<?xml version="1.0" standalone="no"?>
 <!DOCTYPE svg PUBLIC "-//W3C//DTD SVG 1.1//EN" 
 "http://www.w3.org/Graphics/SVG/1.1/DTD/svg11.dtd"> 
<svg
  xmlns:svg="http://www.w3.org/2000/svg"
  xmlns="http://www.w3.org/2000/svg"
  xmlns:xlink="http://www.w3.org/1999/xlink"
  version="1.1"
  width="29.700220cm" height="21.000720cm" viewBox="0 0 116930 82680">
<title>SVG Picture created as nmos_transistor_characterization.svg date 2020/07/07 12:16:28 </title>
  <desc>Picture generated by Eeschema-SVG </desc>
<g style="fill:#000000; fill-opacity:1;stroke:#000000; stroke-opacity:1;
stroke-linecap:round; stroke-linejoin:round;"
 transform="translate(0 0) scale(1 1)">
</g>
<g style="fill:#000000; fill-opacity:0.0; 
stroke:#000000; stroke-width:0; stroke-opacity:1; 
stroke-linecap:round; stroke-linejoin:round;">
<g >
</g>
<g style="fill:#840000; fill-opacity:0.0; 
stroke:#840000; stroke-width:0; stroke-opacity:1; 
stroke-linecap:round; stroke-linejoin:round;">
</g>
<g style="fill:#840000; fill-opacity:0.0; 
stroke:#840000; stroke-width:60; stroke-opacity:1; 
stroke-linecap:round; stroke-linejoin:round;">
<path style="fill:#840000; fill-opacity:0.0; 
stroke:#840000; stroke-width:60; stroke-opacity:1; 
stroke-linecap:round; stroke-linejoin:round;fill:none"
d="M 67750,35000
68500,35000
" /> 
<path style="fill:#840000; fill-opacity:0.0; 
stroke:#840000; stroke-width:60; stroke-opacity:1; 
stroke-linecap:round; stroke-linejoin:round;fill:none"
d="M 67500,35500
67500,34500
" /> 
<path style="fill:#840000; fill-opacity:0.0; 
stroke:#840000; stroke-width:60; stroke-opacity:1; 
stroke-linecap:round; stroke-linejoin:round;fill:none"
d="M 67500,35000
67000,35000
" /> 
<path style="fill:#840000; fill-opacity:0.0; 
stroke:#840000; stroke-width:60; stroke-opacity:1; 
stroke-linecap:round; stroke-linejoin:round;fill:none"
d="M 67750,35500
67750,34500
" /> 
<path style="fill:#840000; fill-opacity:0.0; 
stroke:#840000; stroke-width:60; stroke-opacity:1; 
stroke-linecap:round; stroke-linejoin:round;fill:none"
d="M 67750,35500
68500,35500
" /> 
<path style="fill:#840000; fill-opacity:0.0; 
stroke:#840000; stroke-width:60; stroke-opacity:1; 
stroke-linecap:round; stroke-linejoin:round;fill:none"
d="M 67750,34500
68500,34500
" /> 
<path style="fill:#840000; fill-opacity:0.0; 
stroke:#840000; stroke-width:60; stroke-opacity:1; 
stroke-linecap:round; stroke-linejoin:round;fill:none"
d="M 68500,35500
68500,36000
" /> 
<path style="fill:#840000; fill-opacity:0.0; 
stroke:#840000; stroke-width:60; stroke-opacity:1; 
stroke-linecap:round; stroke-linejoin:round;fill:none"
d="M 68500,34500
68500,34000
" /> 
<path style="fill:#840000; fill-opacity:0.0; 
stroke:#840000; stroke-width:60; stroke-opacity:1; 
stroke-linecap:round; stroke-linejoin:round;fill:none"
d="M 68000,35300
68300,35500
68000,35700
" /> 
<path d="M68500 35000
L68500 35000
" />
<path d="M68500 34000
L68500 34000
" />
<path d="M67000 35000
L67000 35000
" />
<path d="M68500 36000
L68500 36000
" />
</g>
<g style="fill:#008484; fill-opacity:0.0; 
stroke:#008484; stroke-width:60; stroke-opacity:1; 
stroke-linecap:round; stroke-linejoin:round;">
<text x="69190" y="35270"
textLength="1060" font-size="660" lengthAdjust="spacingAndGlyphs"
text-anchor="middle" opacity="0">M2</text>
<path d="M68780 35240
L68780 34740
L68950 35100
L69110 34740
L69110 35240
" />
<path d="M69330 34790
L69350 34770
L69400 34740
L69520 34740
L69570 34770
L69590 34790
L69610 34840
L69610 34880
L69590 34960
L69300 35240
L69610 35240
" />
<text x="68440" y="36270"
textLength="4510" font-size="660" lengthAdjust="spacingAndGlyphs"
text-anchor="middle" opacity="0">W=5u L=2u</text>
<path d="M66280 35740
L66400 36240
L66490 35880
L66590 36240
L66710 35740
" />
<path d="M66900 35980
L67280 35980
" />
<path d="M67280 36120
L66900 36120
" />
<path d="M67760 35740
L67520 35740
L67490 35980
L67520 35960
L67570 35930
L67690 35930
L67730 35960
L67760 35980
L67780 36030
L67780 36150
L67760 36190
L67730 36220
L67690 36240
L67570 36240
L67520 36220
L67490 36190
" />
<path d="M68210 35910
L68210 36240
" />
<path d="M67990 35910
L67990 36170
L68020 36220
L68070 36240
L68140 36240
L68190 36220
L68210 36190
" />
<path d="M69070 36240
L68830 36240
L68830 35740
" />
<path d="M69230 35980
L69610 35980
" />
<path d="M69610 36120
L69230 36120
" />
<path d="M69830 35790
L69850 35770
L69900 35740
L70020 35740
L70070 35770
L70090 35790
L70110 35840
L70110 35880
L70090 35960
L69800 36240
L70110 36240
" />
<path d="M70540 35910
L70540 36240
" />
<path d="M70330 35910
L70330 36170
L70350 36220
L70400 36240
L70470 36240
L70520 36220
L70540 36190
" />
</g>
</g>
<g style="fill:#008484; fill-opacity:0.0; 
stroke:#008484; stroke-width:0; stroke-opacity:1; 
stroke-linecap:round; stroke-linejoin:round;">
<g >
</g>
<g style="fill:#840000; fill-opacity:0.0; 
stroke:#840000; stroke-width:0; stroke-opacity:1; 
stroke-linecap:round; stroke-linejoin:round;">
</g>
<g style="fill:#840000; fill-opacity:0.0; 
stroke:#840000; stroke-width:60; stroke-opacity:1; 
stroke-linecap:round; stroke-linejoin:round;">
<circle cx="71500" cy="35000" r="750" /> 
<path style="fill:#840000; fill-opacity:0.0; 
stroke:#840000; stroke-width:60; stroke-opacity:1; 
stroke-linecap:round; stroke-linejoin:round;fill:none"
d="M 71250,35350
71750,35350
" /> 
<path style="fill:#840000; fill-opacity:0.0; 
stroke:#840000; stroke-width:60; stroke-opacity:1; 
stroke-linecap:round; stroke-linejoin:round;fill:none"
d="M 71500,35750
71500,36000
" /> 
<path style="fill:#840000; fill-opacity:0.0; 
stroke:#840000; stroke-width:60; stroke-opacity:1; 
stroke-linecap:round; stroke-linejoin:round;fill:none"
d="M 71500,35000
71500,34500
" /> 
<path style="fill:#840000; fill-opacity:0.0; 
stroke:#840000; stroke-width:60; stroke-opacity:1; 
stroke-linecap:round; stroke-linejoin:round;fill:none"
d="M 71500,34250
71500,34000
" /> 
<path style="fill:#840000; fill-opacity:0.0; 
stroke:#840000; stroke-width:60; stroke-opacity:1; 
stroke-linecap:round; stroke-linejoin:round;fill:none"
d="M 71750,34750
71250,34750
" /> 
<path d="M71500 34000
L71500 34000
" />
<path d="M71500 36000
L71500 36000
" />
</g>
<g style="fill:#008484; fill-opacity:0.0; 
stroke:#008484; stroke-width:60; stroke-opacity:1; 
stroke-linecap:round; stroke-linejoin:round;">
<text x="72980" y="35270"
textLength="960" font-size="660" lengthAdjust="spacingAndGlyphs"
text-anchor="middle" opacity="0">V2</text>
<path d="M72570 34740
L72740 35240
L72900 34740
" />
<path d="M73050 34790
L73070 34770
L73120 34740
L73240 34740
L73280 34770
L73310 34790
L73330 34840
L73330 34880
L73310 34960
L73020 35240
L73330 35240
" />
</g>
</g>
<g style="fill:#008484; fill-opacity:0.0; 
stroke:#008484; stroke-width:0; stroke-opacity:1; 
stroke-linecap:round; stroke-linejoin:round;">
<g >
</g>
<g style="fill:#840000; fill-opacity:0.0; 
stroke:#840000; stroke-width:0; stroke-opacity:1; 
stroke-linecap:round; stroke-linejoin:round;">
</g>
<g style="fill:#840000; fill-opacity:0.0; 
stroke:#840000; stroke-width:60; stroke-opacity:1; 
stroke-linecap:round; stroke-linejoin:round;">
<path style="fill:#840000; fill-opacity:0.0; 
stroke:#840000; stroke-width:60; stroke-opacity:1; 
stroke-linecap:round; stroke-linejoin:round;fill:none"
d="M 67750,39500
69250,39500
" /> 
<path style="fill:#840000; fill-opacity:0.0; 
stroke:#840000; stroke-width:60; stroke-opacity:1; 
stroke-linecap:round; stroke-linejoin:round;fill:none"
d="M 68000,39750
69000,39750
" /> 
<path style="fill:#840000; fill-opacity:0.0; 
stroke:#840000; stroke-width:60; stroke-opacity:1; 
stroke-linecap:round; stroke-linejoin:round;fill:none"
d="M 68250,40000
68750,40000
" /> 
<path style="fill:#840000; fill-opacity:0.0; 
stroke:#840000; stroke-width:60; stroke-opacity:1; 
stroke-linecap:round; stroke-linejoin:round;fill:none"
d="M 68500,38500
68500,39500
" /> 
<path d="M68500 38500
L68500 38500
" />
</g>
</g>
<g style="fill:#840000; fill-opacity:0.0; 
stroke:#840000; stroke-width:0; stroke-opacity:1; 
stroke-linecap:round; stroke-linejoin:round;">
<g >
</g>
<g style="fill:#840000; fill-opacity:0.0; 
stroke:#840000; stroke-width:60; stroke-opacity:1; 
stroke-linecap:round; stroke-linejoin:round;">
<circle cx="65000" cy="36250" r="750" /> 
<path style="fill:#840000; fill-opacity:0.0; 
stroke:#840000; stroke-width:60; stroke-opacity:1; 
stroke-linecap:round; stroke-linejoin:round;fill:none"
d="M 65250,36600
64750,36600
" /> 
<path style="fill:#840000; fill-opacity:0.0; 
stroke:#840000; stroke-width:60; stroke-opacity:1; 
stroke-linecap:round; stroke-linejoin:round;fill:none"
d="M 65000,37000
65000,37250
" /> 
<path style="fill:#840000; fill-opacity:0.0; 
stroke:#840000; stroke-width:60; stroke-opacity:1; 
stroke-linecap:round; stroke-linejoin:round;fill:none"
d="M 65000,36250
65000,35750
" /> 
<path style="fill:#840000; fill-opacity:0.0; 
stroke:#840000; stroke-width:60; stroke-opacity:1; 
stroke-linecap:round; stroke-linejoin:round;fill:none"
d="M 65000,35500
65000,35250
" /> 
<path style="fill:#840000; fill-opacity:0.0; 
stroke:#840000; stroke-width:60; stroke-opacity:1; 
stroke-linecap:round; stroke-linejoin:round;fill:none"
d="M 64750,36000
65250,36000
" /> 
<path d="M65000 35250
L65000 35250
" />
<path d="M65000 37250
L65000 37250
" />
</g>
<g style="fill:#008484; fill-opacity:0.0; 
stroke:#008484; stroke-width:60; stroke-opacity:1; 
stroke-linecap:round; stroke-linejoin:round;">
<text x="63520" y="36520"
textLength="960" font-size="660" lengthAdjust="spacingAndGlyphs"
text-anchor="middle" opacity="0">V1</text>
<path d="M63110 35990
L63280 36490
L63440 35990
" />
<path d="M63870 36490
L63590 36490
" />
<path d="M63730 36490
L63730 35990
L63680 36060
L63630 36110
L63590 36130
" />
</g>
</g>
<g style="fill:#008484; fill-opacity:0.0; 
stroke:#008484; stroke-width:60; stroke-opacity:1; 
stroke-linecap:round; stroke-linejoin:round;">
</g>
<g style="fill:#008400; fill-opacity:0.0; 
stroke:#008400; stroke-width:60; stroke-opacity:1; 
stroke-linecap:round; stroke-linejoin:round;">
<path d="M71500 32500
L71500 34000
" />
<path d="M68500 32500
L68500 34000
" />
<path d="M65000 35000
L67000 35000
" />
<path d="M65000 35250
L65000 35000
" />
<path d="M68500 36000
L68500 37500
" />
<path d="M68500 38500
L68500 37500
" />
<path d="M71500 37500
L71500 36000
" />
<path d="M71500 37500
L68500 37500
" />
<path d="M65000 37500
L68500 37500
" />
<path d="M65000 37250
L65000 37500
" />
<path d="M71500 32500
L68500 32500
" />
<path d="M68500 35000
L68500 36000
" />
</g>
<g style="fill:#000000; fill-opacity:0.0; 
stroke:#000000; stroke-width:60; stroke-opacity:1; 
stroke-linecap:round; stroke-linejoin:round;">
<text x="68500" y="37400"
textLength="630" font-size="800" lengthAdjust="spacingAndGlyphs"
text-anchor="start" opacity="0">0</text>
<path d="M68780 36770
L68840 36770
L68900 36800
L68930 36820
L68950 36880
L68980 37000
L68980 37140
L68950 37250
L68930 37310
L68900 37340
L68840 37370
L68780 37370
L68730 37340
L68700 37310
L68670 37250
L68640 37140
L68640 37000
L68670 36880
L68700 36820
L68730 36800
L68780 36770
" />
<text x="66000" y="34900"
textLength="990" font-size="660" lengthAdjust="spacingAndGlyphs"
text-anchor="start" opacity="0">n1</text>
<path d="M66140 34540
L66140 34870
" />
<path d="M66140 34590
L66170 34560
L66220 34540
L66290 34540
L66330 34560
L66360 34610
L66360 34870
" />
<path d="M66860 34870
L66570 34870
" />
<path d="M66720 34870
L66720 34370
L66670 34440
L66620 34490
L66570 34510
" />
<text x="69500" y="32400"
textLength="990" font-size="660" lengthAdjust="spacingAndGlyphs"
text-anchor="start" opacity="0">n2</text>
<path d="M69640 32040
L69640 32370
" />
<path d="M69640 32090
L69670 32060
L69720 32040
L69790 32040
L69830 32060
L69860 32110
L69860 32370
" />
<path d="M70070 31920
L70100 31900
L70140 31870
L70260 31870
L70310 31900
L70330 31920
L70360 31970
L70360 32010
L70330 32090
L70050 32370
L70360 32370
" />
</g>
<g style="fill:#000000; fill-opacity:0.0; 
stroke:#000000; stroke-width:0; stroke-opacity:1; 
stroke-linecap:round; stroke-linejoin:round;">
</g>
<g style="fill:#008400; fill-opacity:0.0; 
stroke:#008400; stroke-width:0; stroke-opacity:1; 
stroke-linecap:round; stroke-linejoin:round;">
</g>
<g style="fill:#008400; fill-opacity:1.0; 
stroke:#008400; stroke-width:100; stroke-opacity:1; 
stroke-linecap:round; stroke-linejoin:round;">
<circle cx="68500" cy="36000" r="200" /> 
</g>
<g style="fill:#008400; fill-opacity:1.0; 
stroke:#008400; stroke-width:0; stroke-opacity:1; 
stroke-linecap:round; stroke-linejoin:round;">
</g>
<g style="fill:#008400; fill-opacity:1.0; 
stroke:#008400; stroke-width:100; stroke-opacity:1; 
stroke-linecap:round; stroke-linejoin:round;">
<circle cx="68500" cy="37500" r="200" /> 
</g> 
</svg>
