<?xml version="1.0" encoding="UTF-8" standalone="no"?>
<svg
   xmlns:dc="http://purl.org/dc/elements/1.1/"
   xmlns:cc="http://creativecommons.org/ns#"
   xmlns:rdf="http://www.w3.org/1999/02/22-rdf-syntax-ns#"
   xmlns:svg="http://www.w3.org/2000/svg"
   xmlns="http://www.w3.org/2000/svg"
   xmlns:sodipodi="http://sodipodi.sourceforge.net/DTD/sodipodi-0.dtd"
   xmlns:inkscape="http://www.inkscape.org/namespaces/inkscape"
   version="1.1"
   width="5.4627962cm"
   height="3.2024446cm"
   viewBox="0 0 21507.072 12608.05"
   id="svg2"
   inkscape:version="0.91 r13725"
   sodipodi:docname="widlar_current_mirror.svg">
  <metadata
     id="metadata434">
    <rdf:RDF>
      <cc:Work
         rdf:about="">
        <dc:format>image/svg+xml</dc:format>
        <dc:type
           rdf:resource="http://purl.org/dc/dcmitype/StillImage" />
        <dc:title>SVG Picture created as widlar_current_mirror.svg date 2020/06/30 14:54:02 </dc:title>
      </cc:Work>
    </rdf:RDF>
  </metadata>
  <defs
     id="defs432" />
  <sodipodi:namedview
     pagecolor="#ffffff"
     bordercolor="#666666"
     borderopacity="1"
     objecttolerance="10"
     gridtolerance="10"
     guidetolerance="10"
     inkscape:pageopacity="1"
     inkscape:pageshadow="2"
     inkscape:window-width="1920"
     inkscape:window-height="1057"
     id="namedview430"
     showgrid="false"
     fit-margin-top="0"
     fit-margin-left="0"
     fit-margin-right="0"
     fit-margin-bottom="0"
     inkscape:zoom="3.0531973"
     inkscape:cx="59.231278"
     inkscape:cy="104.90676"
     inkscape:window-x="1280"
     inkscape:window-y="0"
     inkscape:window-maximized="1"
     inkscape:current-layer="svg2" />
  <title
     id="title4">SVG Picture created as widlar_current_mirror.svg date 2020/06/30 14:54:02 </title>
  <desc
     id="desc6">Picture generated by Eeschema-SVG </desc>
  <g
     style="fill:#000000;fill-opacity:1;stroke:#000000;stroke-linecap:round;stroke-linejoin:round;stroke-opacity:1"
     id="g8"
     transform="translate(-34633.066,-33921.953)" />
  <g
     style="fill:#000000;fill-opacity:0;stroke:#000000;stroke-width:0;stroke-linecap:round;stroke-linejoin:round;stroke-opacity:1"
     id="g10"
     transform="translate(-34633.066,-33921.953)">
    <g
       id="g12" />
    <g
       style="fill:#840000;fill-opacity:0;stroke:#840000;stroke-width:0;stroke-linecap:round;stroke-linejoin:round;stroke-opacity:1"
       id="g14" />
    <g
       style="fill:#840000;fill-opacity:0;stroke:#840000;stroke-width:60;stroke-linecap:round;stroke-linejoin:round;stroke-opacity:1"
       id="g16">
      <circle
         cx="53000"
         cy="41500"
         r="750"
         id="circle18" />
      <path
         style="fill:none;fill-opacity:0;stroke:#840000;stroke-width:60;stroke-linecap:round;stroke-linejoin:round;stroke-opacity:1"
         d="m 52750,41850 500,0"
         id="path20"
         inkscape:connector-curvature="0" />
      <path
         style="fill:none;fill-opacity:0;stroke:#840000;stroke-width:60;stroke-linecap:round;stroke-linejoin:round;stroke-opacity:1"
         d="m 53000,42250 0,250"
         id="path22"
         inkscape:connector-curvature="0" />
      <path
         style="fill:none;fill-opacity:0;stroke:#840000;stroke-width:60;stroke-linecap:round;stroke-linejoin:round;stroke-opacity:1"
         d="m 53000,41500 0,-500"
         id="path24"
         inkscape:connector-curvature="0" />
      <path
         style="fill:none;fill-opacity:0;stroke:#840000;stroke-width:60;stroke-linecap:round;stroke-linejoin:round;stroke-opacity:1"
         d="m 53000,40750 0,-250"
         id="path26"
         inkscape:connector-curvature="0" />
      <path
         style="fill:none;fill-opacity:0;stroke:#840000;stroke-width:60;stroke-linecap:round;stroke-linejoin:round;stroke-opacity:1"
         d="m 53250,41250 -500,0"
         id="path28"
         inkscape:connector-curvature="0" />
      <path
         d="m 53000,40500 0,0"
         id="path30"
         inkscape:connector-curvature="0" />
      <path
         d="m 53000,42500 0,0"
         id="path32"
         inkscape:connector-curvature="0" />
    </g>
    <g
       style="fill:#008484;fill-opacity:0;stroke:#008484;stroke-width:60;stroke-linecap:round;stroke-linejoin:round;stroke-opacity:1"
       id="g34">
      <text
         x="54510"
         y="41310"
         textLength="960"
         font-size="660"
         lengthAdjust="spacingAndGlyphs"
         id="text36"
         style="font-size:660px;text-anchor:middle;opacity:0">V2</text>
      <path
         d="m 54100,40780 170,500 160,-500"
         id="path38"
         inkscape:connector-curvature="0" />
      <path
         d="m 54580,40830 20,-20 50,-30 120,0 40,30 30,20 20,50 0,40 -20,80 -290,280 310,0"
         id="path40"
         inkscape:connector-curvature="0" />
      <text
         x="55110"
         y="42220"
         textLength="2160"
         font-size="660"
         lengthAdjust="spacingAndGlyphs"
         id="text42"
         style="font-size:660px;text-anchor:middle;opacity:0">0.66V</text>
      <path
         d="m 54270,41690 50,0 50,30 20,20 20,50 30,90 0,120 -30,100 -20,40 -20,30 -50,20 -50,0 -50,-20 -20,-30 -20,-40 -30,-100 0,-120 30,-90 20,-50 20,-20 50,-30"
         id="path44"
         inkscape:connector-curvature="0" />
      <path
         d="m 54650,42140 30,30 -30,20 -20,-20 20,-30 0,50"
         id="path46"
         inkscape:connector-curvature="0" />
      <path
         d="m 55110,41690 -100,0 -50,30 -20,20 -50,70 -20,100 0,190 20,40 20,30 50,20 100,0 50,-20 20,-30 20,-40 0,-120 -20,-50 -20,-20 -50,-30 -100,0 -50,30 -20,20 -20,50"
         id="path48"
         inkscape:connector-curvature="0" />
      <path
         d="m 55580,41690 -90,0 -50,30 -30,20 -40,70 -30,100 0,190 30,40 20,30 50,20 90,0 50,-20 30,-30 20,-40 0,-120 -20,-50 -30,-20 -50,-30 -90,0 -50,30 -20,20 -30,50"
         id="path50"
         inkscape:connector-curvature="0" />
      <path
         d="m 55770,41690 170,500 170,-500"
         id="path52"
         inkscape:connector-curvature="0" />
    </g>
  </g>
  <g
     style="fill:#008484;fill-opacity:0;stroke:#008484;stroke-width:0;stroke-linecap:round;stroke-linejoin:round;stroke-opacity:1"
     id="g54"
     transform="translate(-34633.066,-33921.953)">
    <g
       id="g56" />
    <g
       style="fill:#840000;fill-opacity:0;stroke:#840000;stroke-width:0;stroke-linecap:round;stroke-linejoin:round;stroke-opacity:1"
       id="g58" />
    <g
       style="fill:#840000;fill-opacity:0;stroke:#840000;stroke-width:60;stroke-linecap:round;stroke-linejoin:round;stroke-opacity:1"
       id="g60">
      <path
         style="fill:none;fill-opacity:0;stroke:#840000;stroke-width:60;stroke-linecap:round;stroke-linejoin:round;stroke-opacity:1"
         d="m 45750,46000 1500,0"
         id="path62"
         inkscape:connector-curvature="0" />
      <path
         style="fill:none;fill-opacity:0;stroke:#840000;stroke-width:60;stroke-linecap:round;stroke-linejoin:round;stroke-opacity:1"
         d="m 46000,46250 1000,0"
         id="path64"
         inkscape:connector-curvature="0" />
      <path
         style="fill:none;fill-opacity:0;stroke:#840000;stroke-width:60;stroke-linecap:round;stroke-linejoin:round;stroke-opacity:1"
         d="m 46250,46500 500,0"
         id="path66"
         inkscape:connector-curvature="0" />
      <path
         style="fill:none;fill-opacity:0;stroke:#840000;stroke-width:60;stroke-linecap:round;stroke-linejoin:round;stroke-opacity:1"
         d="m 46500,45000 0,1000"
         id="path68"
         inkscape:connector-curvature="0" />
      <path
         d="m 46500,45000 0,0"
         id="path70"
         inkscape:connector-curvature="0" />
    </g>
  </g>
  <g
     style="fill:#840000;fill-opacity:0;stroke:#840000;stroke-width:0;stroke-linecap:round;stroke-linejoin:round;stroke-opacity:1"
     id="g72"
     transform="translate(-34633.066,-33921.953)">
    <g
       id="g74" />
    <g
       style="fill:#840000;fill-opacity:0;stroke:#840000;stroke-width:60;stroke-linecap:round;stroke-linejoin:round;stroke-opacity:1"
       id="g76">
      <path
         style="fill:none;fill-opacity:0;stroke:#840000;stroke-width:60;stroke-linecap:round;stroke-linejoin:round;stroke-opacity:1"
         d="m 48500,42250 0,-1500"
         id="path78"
         inkscape:connector-curvature="0" />
      <path
         style="fill:none;fill-opacity:0;stroke:#840000;stroke-width:60;stroke-linecap:round;stroke-linejoin:round;stroke-opacity:1"
         d="m 48500,41500 -500,0"
         id="path80"
         inkscape:connector-curvature="0" />
      <path
         style="fill:none;fill-opacity:0;stroke:#840000;stroke-width:60;stroke-linecap:round;stroke-linejoin:round;stroke-opacity:1"
         d="m 48500,41150 1000,-400"
         id="path82"
         inkscape:connector-curvature="0" />
      <path
         style="fill:none;fill-opacity:0;stroke:#840000;stroke-width:60;stroke-linecap:round;stroke-linejoin:round;stroke-opacity:1"
         d="m 49250,42150 -350,150"
         id="path84"
         inkscape:connector-curvature="0" />
      <path
         style="fill:none;fill-opacity:0;stroke:#840000;stroke-width:60;stroke-linecap:round;stroke-linejoin:round;stroke-opacity:1"
         d="m 49250,42150 -150,-350"
         id="path86"
         inkscape:connector-curvature="0" />
      <path
         style="fill:none;fill-opacity:0;stroke:#840000;stroke-width:60;stroke-linecap:round;stroke-linejoin:round;stroke-opacity:1"
         d="m 49500,40750 0,-250"
         id="path88"
         inkscape:connector-curvature="0" />
      <path
         style="fill:none;fill-opacity:0;stroke:#840000;stroke-width:60;stroke-linecap:round;stroke-linejoin:round;stroke-opacity:1"
         d="m 48500,41850 1000,400"
         id="path90"
         inkscape:connector-curvature="0" />
      <path
         style="fill:none;fill-opacity:0;stroke:#840000;stroke-width:60;stroke-linecap:round;stroke-linejoin:round;stroke-opacity:1"
         d="m 49500,42250 0,250"
         id="path92"
         inkscape:connector-curvature="0" />
      <path
         d="m 48000,41500 0,0"
         id="path94"
         inkscape:connector-curvature="0" />
      <path
         d="m 49500,40500 0,0"
         id="path96"
         inkscape:connector-curvature="0" />
      <path
         d="m 49500,42500 0,0"
         id="path98"
         inkscape:connector-curvature="0" />
    </g>
    <g
       style="fill:#008484;fill-opacity:0;stroke:#008484;stroke-width:60;stroke-linecap:round;stroke-linejoin:round;stroke-opacity:1"
       id="g100">
      <text
         x="50470"
         y="41310"
         textLength="1060"
         font-size="660"
         lengthAdjust="spacingAndGlyphs"
         id="text102"
         style="font-size:660px;text-anchor:middle;opacity:0">Q2</text>
      <path
         d="m 50420,41330 -50,-20 -50,-50 -70,-70 -50,-30 -40,0"
         id="path104"
         inkscape:connector-curvature="0" />
      <path
         d="m 50180,41280 -50,-20 -50,-50 -20,-100 0,-160 20,-100 50,-40 50,-30 90,0 50,30 50,40 20,100 0,160 -20,100 -50,50 -50,20 -90,0"
         id="path106"
         inkscape:connector-curvature="0" />
      <path
         d="m 50580,40830 30,-20 50,-30 110,0 50,30 30,20 20,50 0,40 -20,80 -290,280 310,0"
         id="path108"
         inkscape:connector-curvature="0" />
      <text
         x="50880"
         y="42220"
         textLength="1890"
         font-size="660"
         lengthAdjust="spacingAndGlyphs"
         id="text110"
         style="font-size:660px;text-anchor:middle;opacity:0">npn1</text>
      <path
         d="m 50080,41860 0,330"
         id="path112"
         inkscape:connector-curvature="0" />
      <path
         d="m 50080,41910 20,-30 50,-20 70,0 50,20 20,50 0,260"
         id="path114"
         inkscape:connector-curvature="0" />
      <path
         d="m 50530,41860 0,500"
         id="path116"
         inkscape:connector-curvature="0" />
      <path
         d="m 50530,41880 50,-20 90,0 50,20 20,30 30,40 0,150 -30,40 -20,30 -50,20 -90,0 -50,-20"
         id="path118"
         inkscape:connector-curvature="0" />
      <path
         d="m 50980,41860 0,330"
         id="path120"
         inkscape:connector-curvature="0" />
      <path
         d="m 50980,41910 30,-30 40,-20 80,0 40,20 30,50 0,260"
         id="path122"
         inkscape:connector-curvature="0" />
      <path
         d="m 51700,42190 -290,0"
         id="path124"
         inkscape:connector-curvature="0" />
      <path
         d="m 51550,42190 0,-500 -40,70 -50,50 -50,20"
         id="path126"
         inkscape:connector-curvature="0" />
    </g>
  </g>
  <g
     style="fill:#008484;fill-opacity:0;stroke:#008484;stroke-width:0;stroke-linecap:round;stroke-linejoin:round;stroke-opacity:1"
     id="g128"
     transform="translate(-34633.066,-33921.953)">
    <g
       id="g130" />
    <g
       style="fill:#840000;fill-opacity:0;stroke:#840000;stroke-width:0;stroke-linecap:round;stroke-linejoin:round;stroke-opacity:1"
       id="g132" />
    <g
       style="fill:#840000;fill-opacity:0;stroke:#840000;stroke-width:60;stroke-linecap:round;stroke-linejoin:round;stroke-opacity:1"
       id="g134">
      <path
         style="fill:none;fill-opacity:0;stroke:#840000;stroke-width:60;stroke-linecap:round;stroke-linejoin:round;stroke-opacity:1"
         d="m 44500,42250 0,-1500"
         id="path136"
         inkscape:connector-curvature="0" />
      <path
         style="fill:none;fill-opacity:0;stroke:#840000;stroke-width:60;stroke-linecap:round;stroke-linejoin:round;stroke-opacity:1"
         d="m 44500,41500 500,0"
         id="path138"
         inkscape:connector-curvature="0" />
      <path
         style="fill:none;fill-opacity:0;stroke:#840000;stroke-width:60;stroke-linecap:round;stroke-linejoin:round;stroke-opacity:1"
         d="m 44500,41150 -1000,-400"
         id="path140"
         inkscape:connector-curvature="0" />
      <path
         style="fill:none;fill-opacity:0;stroke:#840000;stroke-width:60;stroke-linecap:round;stroke-linejoin:round;stroke-opacity:1"
         d="m 43750,42150 350,150"
         id="path142"
         inkscape:connector-curvature="0" />
      <path
         style="fill:none;fill-opacity:0;stroke:#840000;stroke-width:60;stroke-linecap:round;stroke-linejoin:round;stroke-opacity:1"
         d="m 43750,42150 150,-350"
         id="path144"
         inkscape:connector-curvature="0" />
      <path
         style="fill:none;fill-opacity:0;stroke:#840000;stroke-width:60;stroke-linecap:round;stroke-linejoin:round;stroke-opacity:1"
         d="m 43500,40750 0,-250"
         id="path146"
         inkscape:connector-curvature="0" />
      <path
         style="fill:none;fill-opacity:0;stroke:#840000;stroke-width:60;stroke-linecap:round;stroke-linejoin:round;stroke-opacity:1"
         d="m 44500,41850 -1000,400"
         id="path148"
         inkscape:connector-curvature="0" />
      <path
         style="fill:none;fill-opacity:0;stroke:#840000;stroke-width:60;stroke-linecap:round;stroke-linejoin:round;stroke-opacity:1"
         d="m 43500,42250 0,250"
         id="path150"
         inkscape:connector-curvature="0" />
      <path
         d="m 45000,41500 0,0"
         id="path152"
         inkscape:connector-curvature="0" />
      <path
         d="m 43500,40500 0,0"
         id="path154"
         inkscape:connector-curvature="0" />
      <path
         d="m 43500,42500 0,0"
         id="path156"
         inkscape:connector-curvature="0" />
    </g>
    <g
       style="fill:#008484;fill-opacity:0;stroke:#008484;stroke-width:60;stroke-linecap:round;stroke-linejoin:round;stroke-opacity:1"
       id="g158">
      <text
         x="42540"
         y="41310"
         textLength="1060"
         font-size="660"
         lengthAdjust="spacingAndGlyphs"
         id="text160"
         style="font-size:660px;text-anchor:middle;opacity:0">Q1</text>
      <path
         d="m 42490,41330 -50,-20 -50,-50 -70,-70 -50,-30 -40,0"
         id="path162"
         inkscape:connector-curvature="0" />
      <path
         d="m 42250,41280 -50,-20 -50,-50 -20,-100 0,-160 20,-100 50,-40 50,-30 90,0 50,30 50,40 20,100 0,160 -20,100 -50,50 -50,20 -90,0"
         id="path164"
         inkscape:connector-curvature="0" />
      <path
         d="m 42940,41280 -290,0"
         id="path166"
         inkscape:connector-curvature="0" />
      <path
         d="m 42800,41280 0,-500 -50,70 -50,50 -50,20"
         id="path168"
         inkscape:connector-curvature="0" />
      <text
         x="42120"
         y="42220"
         textLength="1890"
         font-size="660"
         lengthAdjust="spacingAndGlyphs"
         id="text170"
         style="font-size:660px;text-anchor:middle;opacity:0">npn1</text>
      <path
         d="m 41320,41860 0,330"
         id="path172"
         inkscape:connector-curvature="0" />
      <path
         d="m 41320,41910 20,-30 50,-20 70,0 50,20 20,50 0,260"
         id="path174"
         inkscape:connector-curvature="0" />
      <path
         d="m 41770,41860 0,500"
         id="path176"
         inkscape:connector-curvature="0" />
      <path
         d="m 41770,41880 50,-20 90,0 50,20 20,30 30,40 0,150 -30,40 -20,30 -50,20 -90,0 -50,-20"
         id="path178"
         inkscape:connector-curvature="0" />
      <path
         d="m 42220,41860 0,330"
         id="path180"
         inkscape:connector-curvature="0" />
      <path
         d="m 42220,41910 30,-30 40,-20 80,0 40,20 30,50 0,260"
         id="path182"
         inkscape:connector-curvature="0" />
      <path
         d="m 42940,42190 -290,0"
         id="path184"
         inkscape:connector-curvature="0" />
      <path
         d="m 42790,42190 0,-500 -40,70 -50,50 -50,20"
         id="path186"
         inkscape:connector-curvature="0" />
    </g>
  </g>
  <g
     style="fill:#008484;fill-opacity:0;stroke:#008484;stroke-width:0;stroke-linecap:round;stroke-linejoin:round;stroke-opacity:1"
     id="g188"
     transform="translate(-34633.066,-33921.953)">
    <g
       id="g190" />
    <g
       style="fill:#840000;fill-opacity:0;stroke:#840000;stroke-width:0;stroke-linecap:round;stroke-linejoin:round;stroke-opacity:1"
       id="g192" />
    <g
       style="fill:#840000;fill-opacity:0;stroke:#840000;stroke-width:60;stroke-linecap:round;stroke-linejoin:round;stroke-opacity:1"
       id="g194">
      <circle
         cx="38500"
         cy="39000"
         r="750"
         id="circle196" />
      <path
         style="fill:none;fill-opacity:0;stroke:#840000;stroke-width:60;stroke-linecap:round;stroke-linejoin:round;stroke-opacity:1"
         d="m 38250,39350 500,0"
         id="path198"
         inkscape:connector-curvature="0" />
      <path
         style="fill:none;fill-opacity:0;stroke:#840000;stroke-width:60;stroke-linecap:round;stroke-linejoin:round;stroke-opacity:1"
         d="m 38500,39750 0,250"
         id="path200"
         inkscape:connector-curvature="0" />
      <path
         style="fill:none;fill-opacity:0;stroke:#840000;stroke-width:60;stroke-linecap:round;stroke-linejoin:round;stroke-opacity:1"
         d="m 38500,39000 0,-500"
         id="path202"
         inkscape:connector-curvature="0" />
      <path
         style="fill:none;fill-opacity:0;stroke:#840000;stroke-width:60;stroke-linecap:round;stroke-linejoin:round;stroke-opacity:1"
         d="m 38500,38250 0,-250"
         id="path204"
         inkscape:connector-curvature="0" />
      <path
         style="fill:none;fill-opacity:0;stroke:#840000;stroke-width:60;stroke-linecap:round;stroke-linejoin:round;stroke-opacity:1"
         d="m 38750,38750 -500,0"
         id="path206"
         inkscape:connector-curvature="0" />
      <path
         d="m 38500,38000 0,0"
         id="path208"
         inkscape:connector-curvature="0" />
      <path
         d="m 38500,40000 0,0"
         id="path210"
         inkscape:connector-curvature="0" />
    </g>
    <g
       style="fill:#008484;fill-opacity:0;stroke:#008484;stroke-width:60;stroke-linecap:round;stroke-linejoin:round;stroke-opacity:1"
       id="g212">
      <text
         x="40010"
         y="38810"
         textLength="960"
         font-size="660"
         lengthAdjust="spacingAndGlyphs"
         id="text214"
         style="font-size:660px;text-anchor:middle;opacity:0">V1</text>
      <path
         d="m 39600,38280 170,500 160,-500"
         id="path216"
         inkscape:connector-curvature="0" />
      <path
         d="m 40360,38780 -280,0"
         id="path218"
         inkscape:connector-curvature="0" />
      <path
         d="m 40220,38780 0,-500 -50,70 -50,50 -40,20"
         id="path220"
         inkscape:connector-curvature="0" />
      <text
         x="40010"
         y="39720"
         textLength="960"
         font-size="660"
         lengthAdjust="spacingAndGlyphs"
         id="text222"
         style="font-size:660px;text-anchor:middle;opacity:0">5V</text>
      <path
         d="m 39910,39190 -240,0 -20,240 20,-20 50,-30 120,0 50,30 20,20 20,50 0,120 -20,40 -20,30 -50,20 -120,0 -50,-20 -20,-30"
         id="path224"
         inkscape:connector-curvature="0" />
      <path
         d="m 40080,39190 160,500 170,-500"
         id="path226"
         inkscape:connector-curvature="0" />
    </g>
  </g>
  <g
     style="fill:#008484;fill-opacity:0;stroke:#008484;stroke-width:0;stroke-linecap:round;stroke-linejoin:round;stroke-opacity:1"
     id="g228"
     transform="translate(-34633.066,-33921.953)">
    <g
       id="g230" />
    <g
       style="fill:#840000;fill-opacity:0;stroke:#840000;stroke-width:0;stroke-linecap:round;stroke-linejoin:round;stroke-opacity:1"
       id="g232" />
    <g
       style="fill:#840000;fill-opacity:0;stroke:#840000;stroke-width:60;stroke-linecap:round;stroke-linejoin:round;stroke-opacity:1"
       id="g234">
      <circle
         cx="43500"
         cy="36500"
         r="750"
         id="circle236" />
      <path
         style="fill:none;fill-opacity:0;stroke:#840000;stroke-width:60;stroke-linecap:round;stroke-linejoin:round;stroke-opacity:1"
         d="m 43500,37250 0,250"
         id="path238"
         inkscape:connector-curvature="0" />
      <path
         style="fill:none;fill-opacity:0;stroke:#840000;stroke-width:60;stroke-linecap:round;stroke-linejoin:round;stroke-opacity:1"
         d="m 43500,35750 0,-250"
         id="path240"
         inkscape:connector-curvature="0" />
    </g>
    <g
       style="fill:#840000;fill-opacity:1;stroke:#840000;stroke-width:60;stroke-linecap:round;stroke-linejoin:round;stroke-opacity:1"
       id="g242">
      <path
         style="fill:#840000;fill-opacity:1;fill-rule:evenodd;stroke:#840000;stroke-width:60;stroke-linecap:round;stroke-linejoin:round;stroke-opacity:1"
         d="m 43500,36000 0,1000 -250,-500 500,0 -250,500"
         id="path244"
         inkscape:connector-curvature="0" />
    </g>
    <g
       style="fill:#840000;fill-opacity:0;stroke:#840000;stroke-width:60;stroke-linecap:round;stroke-linejoin:round;stroke-opacity:1"
       id="g246">
      <path
         d="m 43500,35500 0,0"
         id="path248"
         inkscape:connector-curvature="0" />
      <path
         d="m 43500,37500 0,0"
         id="path250"
         inkscape:connector-curvature="0" />
    </g>
    <g
       style="fill:#008484;fill-opacity:0;stroke:#008484;stroke-width:60;stroke-linecap:round;stroke-linejoin:round;stroke-opacity:1"
       id="g252">
      <text
         x="44910"
         y="36310"
         textLength="770"
         font-size="660"
         lengthAdjust="spacingAndGlyphs"
         id="text254"
         style="font-size:660px;text-anchor:middle;opacity:0">I1</text>
      <path
         d="m 44670,36280 0,-500"
         id="path256"
         inkscape:connector-curvature="0" />
      <path
         d="m 45170,36280 -290,0"
         id="path258"
         inkscape:connector-curvature="0" />
      <path
         d="m 45020,36280 0,-500 -40,70 -50,50 -50,20"
         id="path260"
         inkscape:connector-curvature="0" />
      <text
         x="45470"
         y="37220"
         textLength="1890"
         font-size="660"
         lengthAdjust="spacingAndGlyphs"
         id="text262"
         style="font-size:660px;text-anchor:middle;opacity:0">50uA</text>
      <path
         d="m 44910,36690 -240,0 -30,240 30,-20 50,-30 110,0 50,30 30,20 20,50 0,120 -20,40 -30,30 -50,20 -110,0 -50,-20 -30,-30"
         id="path264"
         inkscape:connector-curvature="0" />
      <path
         d="m 45240,36690 50,0 40,30 30,20 20,50 30,90 0,120 -30,100 -20,40 -30,30 -40,20 -50,0 -50,-20 -20,-30 -30,-40 -20,-100 0,-120 20,-90 30,-50 20,-20 50,-30"
         id="path266"
         inkscape:connector-curvature="0" />
      <path
         d="m 45830,36860 0,330"
         id="path268"
         inkscape:connector-curvature="0" />
      <path
         d="m 45620,36860 0,260 20,50 50,20 70,0 50,-20 20,-30"
         id="path270"
         inkscape:connector-curvature="0" />
      <path
         d="m 46050,37050 240,0"
         id="path272"
         inkscape:connector-curvature="0" />
      <path
         d="m 46000,37190 170,-500 160,500"
         id="path274"
         inkscape:connector-curvature="0" />
    </g>
  </g>
  <g
     style="fill:#008484;fill-opacity:0;stroke:#008484;stroke-width:0;stroke-linecap:round;stroke-linejoin:round;stroke-opacity:1"
     id="g276"
     transform="translate(-34633.066,-33921.953)">
    <g
       id="g278" />
    <g
       style="fill:#840000;fill-opacity:0;stroke:#840000;stroke-width:0;stroke-linecap:round;stroke-linejoin:round;stroke-opacity:1"
       id="g280" />
    <g
       style="fill:#840000;fill-opacity:0;stroke:#840000;stroke-width:60;stroke-linecap:round;stroke-linejoin:round;stroke-opacity:1"
       id="g282">
      <circle
         cx="36500"
         cy="34500"
         r="500"
         id="circle284" />
      <path
         style="fill:none;fill-opacity:0;stroke:#840000;stroke-width:60;stroke-linecap:round;stroke-linejoin:round;stroke-opacity:1"
         d="m 36500,34250 0,500"
         id="path286"
         inkscape:connector-curvature="0" />
      <path
         style="fill:none;fill-opacity:0;stroke:#840000;stroke-width:60;stroke-linecap:round;stroke-linejoin:round;stroke-opacity:1"
         d="m 37500,34500 -500,0"
         id="path288"
         inkscape:connector-curvature="0" />
      <path
         style="fill:none;fill-opacity:0;stroke:#840000;stroke-width:60;stroke-linecap:round;stroke-linejoin:round;stroke-opacity:1"
         d="m 36750,34500 -500,0"
         id="path290"
         inkscape:connector-curvature="0" />
      <path
         d="m 37500,34500 0,0"
         id="path292"
         inkscape:connector-curvature="0" />
    </g>
    <g
       style="fill:#008484;fill-opacity:0;stroke:#008484;stroke-width:60;stroke-linecap:round;stroke-linejoin:round;stroke-opacity:1"
       id="g294">
      <text
         x="35160"
         y="34770"
         textLength="1110"
         font-size="660"
         lengthAdjust="spacingAndGlyphs"
         id="text296"
         style="font-size:660px;text-anchor:middle;opacity:0">V+</text>
      <path
         d="m 34680,34240 170,500 160,-500"
         id="path298"
         inkscape:connector-curvature="0" />
      <path
         d="m 35180,34550 380,0"
         id="path300"
         inkscape:connector-curvature="0" />
      <path
         d="m 35370,34740 0,-380"
         id="path302"
         inkscape:connector-curvature="0" />
    </g>
  </g>
  <g
     style="fill:#008484;fill-opacity:0;stroke:#008484;stroke-width:60;stroke-linecap:round;stroke-linejoin:round;stroke-opacity:1"
     id="g304"
     transform="translate(-34633.066,-33921.953)" />
  <g
     style="fill:#008400;fill-opacity:0;stroke:#008400;stroke-width:60;stroke-linecap:round;stroke-linejoin:round;stroke-opacity:1"
     id="g306"
     transform="translate(-34633.066,-33921.953)">
    <path
       d="m 38500,34500 0,3500"
       id="path308"
       inkscape:connector-curvature="0" />
    <path
       d="m 38500,40000 0,4000"
       id="path310"
       inkscape:connector-curvature="0" />
    <path
       d="m 45000,41500 1500,0"
       id="path312"
       inkscape:connector-curvature="0" />
    <path
       d="m 43500,34500 0,1000"
       id="path314"
       inkscape:connector-curvature="0" />
    <path
       d="m 43500,37500 0,1500"
       id="path316"
       inkscape:connector-curvature="0" />
    <path
       d="m 46500,41500 1500,0"
       id="path318"
       inkscape:connector-curvature="0" />
    <path
       d="m 43500,39000 0,1500"
       id="path320"
       inkscape:connector-curvature="0" />
    <path
       d="m 38500,34500 5000,0"
       id="path322"
       inkscape:connector-curvature="0" />
    <path
       d="m 49500,44000 3500,0"
       id="path324"
       inkscape:connector-curvature="0" />
    <path
       d="m 46500,44000 3000,0"
       id="path326"
       inkscape:connector-curvature="0" />
    <path
       d="m 43500,44000 3000,0"
       id="path328"
       inkscape:connector-curvature="0" />
    <path
       d="m 38500,44000 5000,0"
       id="path330"
       inkscape:connector-curvature="0" />
    <path
       d="m 43500,39000 3000,0"
       id="path332"
       inkscape:connector-curvature="0" />
    <path
       d="m 46500,39000 0,2500"
       id="path334"
       inkscape:connector-curvature="0" />
    <path
       d="m 53000,40500 0,-1500"
       id="path336"
       inkscape:connector-curvature="0" />
    <path
       d="m 53000,39000 -3500,0"
       id="path338"
       inkscape:connector-curvature="0" />
    <path
       d="m 49500,39000 0,1500"
       id="path340"
       inkscape:connector-curvature="0" />
    <path
       d="m 37500,34500 1000,0"
       id="path342"
       inkscape:connector-curvature="0" />
    <path
       d="m 43500,42500 0,1500"
       id="path344"
       inkscape:connector-curvature="0" />
    <path
       d="m 49500,44000 0,-1500"
       id="path346"
       inkscape:connector-curvature="0" />
    <path
       d="m 53000,44000 0,-1500"
       id="path348"
       inkscape:connector-curvature="0" />
    <path
       d="m 46500,45000 0,-1000"
       id="path350"
       inkscape:connector-curvature="0" />
  </g>
  <g
     style="fill:#000000;fill-opacity:0;stroke:#000000;stroke-width:60;stroke-linecap:round;stroke-linejoin:round;stroke-opacity:1"
     id="g352"
     transform="translate(-34633.066,-33921.953)">
    <text
       x="49500"
       y="38900"
       textLength="1170"
       font-size="800"
       lengthAdjust="spacingAndGlyphs"
       id="text354"
       style="font-size:800px;text-anchor:start;opacity:0">n2</text>
    <path
       d="m 49670,38470 0,400"
       id="path356"
       inkscape:connector-curvature="0" />
    <path
       d="m 49670,38520 30,-20 50,-30 90,0 60,30 30,50 0,320"
       id="path358"
       inkscape:connector-curvature="0" />
    <path
       d="m 50180,38320 30,-20 60,-30 140,0 60,30 30,20 30,60 0,60 -30,80 -350,350 380,0"
       id="path360"
       inkscape:connector-curvature="0" />
    <text
       x="46500"
       y="43900"
       textLength="630"
       font-size="800"
       lengthAdjust="spacingAndGlyphs"
       id="text362"
       style="font-size:800px;text-anchor:start;opacity:0">0</text>
    <path
       d="m 46780,43270 60,0 60,30 30,20 20,60 30,120 0,140 -30,110 -20,60 -30,30 -60,30 -60,0 -50,-30 -30,-30 -30,-60 -30,-110 0,-140 30,-120 30,-60 30,-20 50,-30"
       id="path364"
       inkscape:connector-curvature="0" />
    <text
       x="43500"
       y="38900"
       textLength="1170"
       font-size="800"
       lengthAdjust="spacingAndGlyphs"
       id="text366"
       style="font-size:800px;text-anchor:start;opacity:0">n1</text>
    <path
       d="m 43670,38470 0,400"
       id="path368"
       inkscape:connector-curvature="0" />
    <path
       d="m 43670,38520 30,-20 50,-30 90,0 60,30 30,50 0,320"
       id="path370"
       inkscape:connector-curvature="0" />
    <path
       d="m 44530,38870 -350,0"
       id="path372"
       inkscape:connector-curvature="0" />
    <path
       d="m 44350,38870 0,-600 -50,80 -60,60 -60,30"
       id="path374"
       inkscape:connector-curvature="0" />
    <text
       x="40000"
       y="34400"
       textLength="2630"
       font-size="800"
       lengthAdjust="spacingAndGlyphs"
       id="text376"
       style="font-size:800px;text-anchor:start;opacity:0">n_pos</text>
    <path
       d="m 40170,33970 0,400"
       id="path378"
       inkscape:connector-curvature="0" />
    <path
       d="m 40170,34020 30,-20 50,-30 90,0 60,30 30,50 0,320"
       id="path380"
       inkscape:connector-curvature="0" />
    <path
       d="m 40570,34420 460,0"
       id="path382"
       inkscape:connector-curvature="0" />
    <path
       d="m 41170,33970 0,600"
       id="path384"
       inkscape:connector-curvature="0" />
    <path
       d="m 41170,34000 60,-30 110,0 60,30 30,20 20,60 0,170 -20,60 -30,30 -60,30 -110,0 -60,-30"
       id="path386"
       inkscape:connector-curvature="0" />
    <path
       d="m 41800,34370 -60,-30 -30,-30 -30,-60 0,-170 30,-60 30,-20 60,-30 80,0 60,30 30,20 30,60 0,170 -30,60 -30,30 -60,30 -80,0"
       id="path388"
       inkscape:connector-curvature="0" />
    <path
       d="m 42230,34340 50,30 120,0 50,-30 30,-60 0,-30 -30,-50 -50,-30 -90,0 -60,-30 -20,-60 0,-30 20,-50 60,-30 90,0 50,30"
       id="path390"
       inkscape:connector-curvature="0" />
  </g>
  <g
     style="fill:#000000;fill-opacity:0;stroke:#000000;stroke-width:0;stroke-linecap:round;stroke-linejoin:round;stroke-opacity:1"
     id="g392"
     transform="translate(-34633.066,-33921.953)" />
  <g
     style="fill:#008400;fill-opacity:0;stroke:#008400;stroke-width:0;stroke-linecap:round;stroke-linejoin:round;stroke-opacity:1"
     id="g394"
     transform="translate(-34633.066,-33921.953)" />
  <g
     style="fill:#008400;fill-opacity:1;stroke:#008400;stroke-width:100;stroke-linecap:round;stroke-linejoin:round;stroke-opacity:1"
     id="g396"
     transform="translate(-34633.066,-33921.953)">
    <circle
       cx="43500"
       cy="44000"
       r="200"
       id="circle398" />
  </g>
  <g
     style="fill:#008400;fill-opacity:1;stroke:#008400;stroke-width:0;stroke-linecap:round;stroke-linejoin:round;stroke-opacity:1"
     id="g400"
     transform="translate(-34633.066,-33921.953)" />
  <g
     style="fill:#008400;fill-opacity:1;stroke:#008400;stroke-width:100;stroke-linecap:round;stroke-linejoin:round;stroke-opacity:1"
     id="g402"
     transform="translate(-34633.066,-33921.953)">
    <circle
       cx="49500"
       cy="44000"
       r="200"
       id="circle404" />
  </g>
  <g
     style="fill:#008400;fill-opacity:1;stroke:#008400;stroke-width:0;stroke-linecap:round;stroke-linejoin:round;stroke-opacity:1"
     id="g406"
     transform="translate(-34633.066,-33921.953)" />
  <g
     style="fill:#008400;fill-opacity:1;stroke:#008400;stroke-width:100;stroke-linecap:round;stroke-linejoin:round;stroke-opacity:1"
     id="g408"
     transform="translate(-34633.066,-33921.953)">
    <circle
       cx="38500"
       cy="34500"
       r="200"
       id="circle410" />
  </g>
  <g
     style="fill:#008400;fill-opacity:1;stroke:#008400;stroke-width:0;stroke-linecap:round;stroke-linejoin:round;stroke-opacity:1"
     id="g412"
     transform="translate(-34633.066,-33921.953)" />
  <g
     style="fill:#008400;fill-opacity:1;stroke:#008400;stroke-width:100;stroke-linecap:round;stroke-linejoin:round;stroke-opacity:1"
     id="g414"
     transform="translate(-34633.066,-33921.953)">
    <circle
       cx="43500"
       cy="39000"
       r="200"
       id="circle416" />
  </g>
  <g
     style="fill:#008400;fill-opacity:1;stroke:#008400;stroke-width:0;stroke-linecap:round;stroke-linejoin:round;stroke-opacity:1"
     id="g418"
     transform="translate(-34633.066,-33921.953)" />
  <g
     style="fill:#008400;fill-opacity:1;stroke:#008400;stroke-width:100;stroke-linecap:round;stroke-linejoin:round;stroke-opacity:1"
     id="g420"
     transform="translate(-34633.066,-33921.953)">
    <circle
       cx="46500"
       cy="41500"
       r="200"
       id="circle422" />
  </g>
  <g
     style="fill:#008400;fill-opacity:1;stroke:#008400;stroke-width:0;stroke-linecap:round;stroke-linejoin:round;stroke-opacity:1"
     id="g424"
     transform="translate(-34633.066,-33921.953)" />
  <g
     style="fill:#008400;fill-opacity:1;stroke:#008400;stroke-width:100;stroke-linecap:round;stroke-linejoin:round;stroke-opacity:1"
     id="g426"
     transform="translate(-34633.066,-33921.953)">
    <circle
       cx="46500"
       cy="44000"
       r="200"
       id="circle428" />
  </g>
</svg>
