<?xml version="1.0" encoding="UTF-8" standalone="no"?>
<svg
   xmlns:dc="http://purl.org/dc/elements/1.1/"
   xmlns:cc="http://creativecommons.org/ns#"
   xmlns:rdf="http://www.w3.org/1999/02/22-rdf-syntax-ns#"
   xmlns:svg="http://www.w3.org/2000/svg"
   xmlns="http://www.w3.org/2000/svg"
   xmlns:sodipodi="http://sodipodi.sourceforge.net/DTD/sodipodi-0.dtd"
   xmlns:inkscape="http://www.inkscape.org/namespaces/inkscape"
   version="1.1"
   width="4.511282cm"
   height="3.3294444cm"
   viewBox="0 0 17760.953 13108.049"
   id="svg2"
   inkscape:version="0.91 r13725"
   sodipodi:docname="wilson_current_mirror_npn.svg">
  <metadata
     id="metadata510">
    <rdf:RDF>
      <cc:Work
         rdf:about="">
        <dc:format>image/svg+xml</dc:format>
        <dc:type
           rdf:resource="http://purl.org/dc/dcmitype/StillImage" />
        <dc:title>SVG Picture created as wilson_current_mirror_npn.svg date 2020/07/03 15:40:50 </dc:title>
      </cc:Work>
    </rdf:RDF>
  </metadata>
  <defs
     id="defs508" />
  <sodipodi:namedview
     pagecolor="#ffffff"
     bordercolor="#666666"
     borderopacity="1"
     objecttolerance="10"
     gridtolerance="10"
     guidetolerance="10"
     inkscape:pageopacity="1"
     inkscape:pageshadow="2"
     inkscape:window-width="1920"
     inkscape:window-height="1057"
     id="namedview506"
     showgrid="false"
     fit-margin-top="0"
     fit-margin-left="0"
     fit-margin-right="0"
     fit-margin-bottom="0"
     inkscape:zoom="4.317873"
     inkscape:cx="69.711454"
     inkscape:cy="59.376748"
     inkscape:window-x="1280"
     inkscape:window-y="0"
     inkscape:window-maximized="1"
     inkscape:current-layer="svg2" />
  <title
     id="title4">SVG Picture created as wilson_current_mirror_npn.svg date 2020/07/03 15:40:50 </title>
  <desc
     id="desc6">Picture generated by Eeschema-SVG </desc>
  <g
     style="fill:#000000;fill-opacity:1;stroke:#000000;stroke-linecap:round;stroke-linejoin:round;stroke-opacity:1"
     id="g8"
     transform="translate(-36679.593,-32921.953)" />
  <g
     style="fill:#000000;fill-opacity:0;stroke:#000000;stroke-width:0;stroke-linecap:round;stroke-linejoin:round;stroke-opacity:1"
     id="g10"
     transform="translate(-36679.593,-32921.953)">
    <g
       id="g12" />
    <g
       style="fill:#840000;fill-opacity:0;stroke:#840000;stroke-width:0;stroke-linecap:round;stroke-linejoin:round;stroke-opacity:1"
       id="g14" />
    <g
       style="fill:#840000;fill-opacity:0;stroke:#840000;stroke-width:60;stroke-linecap:round;stroke-linejoin:round;stroke-opacity:1"
       id="g16">
      <circle
         cx="43500"
         cy="35500"
         r="750"
         id="circle18" />
      <path
         style="fill:none;fill-opacity:0;stroke:#840000;stroke-width:60;stroke-linecap:round;stroke-linejoin:round;stroke-opacity:1"
         d="m 43500,36250 0,250"
         id="path20"
         inkscape:connector-curvature="0" />
      <path
         style="fill:none;fill-opacity:0;stroke:#840000;stroke-width:60;stroke-linecap:round;stroke-linejoin:round;stroke-opacity:1"
         d="m 43500,34750 0,-250"
         id="path22"
         inkscape:connector-curvature="0" />
    </g>
    <g
       style="fill:#840000;fill-opacity:1;stroke:#840000;stroke-width:60;stroke-linecap:round;stroke-linejoin:round;stroke-opacity:1"
       id="g24">
      <path
         style="fill:#840000;fill-opacity:1;fill-rule:evenodd;stroke:#840000;stroke-width:60;stroke-linecap:round;stroke-linejoin:round;stroke-opacity:1"
         d="m 43500,35000 0,1000 -250,-500 500,0 -250,500"
         id="path26"
         inkscape:connector-curvature="0" />
    </g>
    <g
       style="fill:#840000;fill-opacity:0;stroke:#840000;stroke-width:60;stroke-linecap:round;stroke-linejoin:round;stroke-opacity:1"
       id="g28">
      <path
         d="m 43500,34500 0,0"
         id="path30"
         inkscape:connector-curvature="0" />
      <path
         d="m 43500,36500 0,0"
         id="path32"
         inkscape:connector-curvature="0" />
    </g>
    <g
       style="fill:#008484;fill-opacity:0;stroke:#008484;stroke-width:60;stroke-linecap:round;stroke-linejoin:round;stroke-opacity:1"
       id="g34">
      <text
         x="45380"
         y="35490"
         textLength="720"
         font-size="660"
         lengthAdjust="spacingAndGlyphs"
         id="text36"
         style="font-size:660px;text-anchor:middle;opacity:0">I1</text>
      <path
         d="m 45140,35460 0,-500"
         id="path38"
         inkscape:connector-curvature="0" />
      <path
         d="m 45640,35460 -290,0"
         id="path40"
         inkscape:connector-curvature="0" />
      <path
         d="m 45490,35460 0,-500 -40,70 -50,50 -50,20"
         id="path42"
         inkscape:connector-curvature="0" />
      <text
         x="45440"
         y="36550"
         textLength="1890"
         font-size="660"
         lengthAdjust="spacingAndGlyphs"
         id="text44"
         style="font-size:660px;text-anchor:middle;opacity:0">50uA</text>
      <path
         d="m 44880,36020 -240,0 -30,240 30,-20 50,-30 110,0 50,30 30,20 20,50 0,120 -20,40 -30,30 -50,20 -110,0 -50,-20 -30,-30"
         id="path46"
         inkscape:connector-curvature="0" />
      <path
         d="m 45210,36020 50,0 40,30 30,20 20,50 30,90 0,120 -30,100 -20,40 -30,30 -40,20 -50,0 -50,-20 -20,-30 -30,-40 -20,-100 0,-120 20,-90 30,-50 20,-20 50,-30"
         id="path48"
         inkscape:connector-curvature="0" />
      <path
         d="m 45800,36190 0,330"
         id="path50"
         inkscape:connector-curvature="0" />
      <path
         d="m 45590,36190 0,260 20,50 50,20 70,0 50,-20 20,-30"
         id="path52"
         inkscape:connector-curvature="0" />
      <path
         d="m 46020,36380 240,0"
         id="path54"
         inkscape:connector-curvature="0" />
      <path
         d="m 45970,36520 170,-500 160,500"
         id="path56"
         inkscape:connector-curvature="0" />
    </g>
  </g>
  <g
     style="fill:#008484;fill-opacity:0;stroke:#008484;stroke-width:0;stroke-linecap:round;stroke-linejoin:round;stroke-opacity:1"
     id="g58"
     transform="translate(-36679.593,-32921.953)">
    <g
       id="g60" />
    <g
       style="fill:#840000;fill-opacity:0;stroke:#840000;stroke-width:0;stroke-linecap:round;stroke-linejoin:round;stroke-opacity:1"
       id="g62" />
    <g
       style="fill:#840000;fill-opacity:0;stroke:#840000;stroke-width:60;stroke-linecap:round;stroke-linejoin:round;stroke-opacity:1"
       id="g64">
      <path
         style="fill:none;fill-opacity:0;stroke:#840000;stroke-width:60;stroke-linecap:round;stroke-linejoin:round;stroke-opacity:1"
         d="m 44500,42250 0,-1500"
         id="path66"
         inkscape:connector-curvature="0" />
      <path
         style="fill:none;fill-opacity:0;stroke:#840000;stroke-width:60;stroke-linecap:round;stroke-linejoin:round;stroke-opacity:1"
         d="m 44500,41500 500,0"
         id="path68"
         inkscape:connector-curvature="0" />
      <path
         style="fill:none;fill-opacity:0;stroke:#840000;stroke-width:60;stroke-linecap:round;stroke-linejoin:round;stroke-opacity:1"
         d="m 44500,41150 -1000,-400"
         id="path70"
         inkscape:connector-curvature="0" />
      <path
         style="fill:none;fill-opacity:0;stroke:#840000;stroke-width:60;stroke-linecap:round;stroke-linejoin:round;stroke-opacity:1"
         d="m 43750,42150 350,150"
         id="path72"
         inkscape:connector-curvature="0" />
      <path
         style="fill:none;fill-opacity:0;stroke:#840000;stroke-width:60;stroke-linecap:round;stroke-linejoin:round;stroke-opacity:1"
         d="m 43750,42150 150,-350"
         id="path74"
         inkscape:connector-curvature="0" />
      <path
         style="fill:none;fill-opacity:0;stroke:#840000;stroke-width:60;stroke-linecap:round;stroke-linejoin:round;stroke-opacity:1"
         d="m 43500,40750 0,-250"
         id="path76"
         inkscape:connector-curvature="0" />
      <path
         style="fill:none;fill-opacity:0;stroke:#840000;stroke-width:60;stroke-linecap:round;stroke-linejoin:round;stroke-opacity:1"
         d="m 44500,41850 -1000,400"
         id="path78"
         inkscape:connector-curvature="0" />
      <path
         style="fill:none;fill-opacity:0;stroke:#840000;stroke-width:60;stroke-linecap:round;stroke-linejoin:round;stroke-opacity:1"
         d="m 43500,42250 0,250"
         id="path80"
         inkscape:connector-curvature="0" />
      <path
         d="m 45000,41500 0,0"
         id="path82"
         inkscape:connector-curvature="0" />
      <path
         d="m 43500,40500 0,0"
         id="path84"
         inkscape:connector-curvature="0" />
      <path
         d="m 43500,42500 0,0"
         id="path86"
         inkscape:connector-curvature="0" />
    </g>
    <g
       style="fill:#008484;fill-opacity:0;stroke:#008484;stroke-width:60;stroke-linecap:round;stroke-linejoin:round;stroke-opacity:1"
       id="g88">
      <text
         x="42970"
         y="40740"
         textLength="1060"
         font-size="660"
         lengthAdjust="spacingAndGlyphs"
         id="text90"
         style="font-size:660px;text-anchor:middle;opacity:0">Q1</text>
      <path
         d="m 42920,40760 -50,-20 -50,-50 -70,-70 -50,-30 -40,0"
         id="path92"
         inkscape:connector-curvature="0" />
      <path
         d="m 42680,40710 -50,-20 -50,-50 -20,-100 0,-160 20,-100 50,-40 50,-30 90,0 50,30 50,40 20,100 0,160 -20,100 -50,50 -50,20 -90,0"
         id="path94"
         inkscape:connector-curvature="0" />
      <path
         d="m 43370,40710 -290,0"
         id="path96"
         inkscape:connector-curvature="0" />
      <path
         d="m 43230,40710 0,-500 -50,70 -50,50 -50,20"
         id="path98"
         inkscape:connector-curvature="0" />
      <text
         x="42550"
         y="42800"
         textLength="1890"
         font-size="660"
         lengthAdjust="spacingAndGlyphs"
         id="text100"
         style="font-size:660px;text-anchor:middle;opacity:0">npn1</text>
      <path
         d="m 41750,42440 0,330"
         id="path102"
         inkscape:connector-curvature="0" />
      <path
         d="m 41750,42490 20,-30 50,-20 70,0 50,20 20,50 0,260"
         id="path104"
         inkscape:connector-curvature="0" />
      <path
         d="m 42200,42440 0,500"
         id="path106"
         inkscape:connector-curvature="0" />
      <path
         d="m 42200,42460 50,-20 90,0 50,20 20,30 30,40 0,150 -30,40 -20,30 -50,20 -90,0 -50,-20"
         id="path108"
         inkscape:connector-curvature="0" />
      <path
         d="m 42650,42440 0,330"
         id="path110"
         inkscape:connector-curvature="0" />
      <path
         d="m 42650,42490 30,-30 40,-20 80,0 40,20 30,50 0,260"
         id="path112"
         inkscape:connector-curvature="0" />
      <path
         d="m 43370,42770 -290,0"
         id="path114"
         inkscape:connector-curvature="0" />
      <path
         d="m 43220,42770 0,-500 -40,70 -50,50 -50,20"
         id="path116"
         inkscape:connector-curvature="0" />
    </g>
  </g>
  <g
     style="fill:#008484;fill-opacity:0;stroke:#008484;stroke-width:0;stroke-linecap:round;stroke-linejoin:round;stroke-opacity:1"
     id="g118"
     transform="translate(-36679.593,-32921.953)">
    <g
       id="g120" />
    <g
       style="fill:#840000;fill-opacity:0;stroke:#840000;stroke-width:0;stroke-linecap:round;stroke-linejoin:round;stroke-opacity:1"
       id="g122" />
    <g
       style="fill:#840000;fill-opacity:0;stroke:#840000;stroke-width:60;stroke-linecap:round;stroke-linejoin:round;stroke-opacity:1"
       id="g124">
      <path
         style="fill:none;fill-opacity:0;stroke:#840000;stroke-width:60;stroke-linecap:round;stroke-linejoin:round;stroke-opacity:1"
         d="m 48500,42250 0,-1500"
         id="path126"
         inkscape:connector-curvature="0" />
      <path
         style="fill:none;fill-opacity:0;stroke:#840000;stroke-width:60;stroke-linecap:round;stroke-linejoin:round;stroke-opacity:1"
         d="m 48500,41500 -500,0"
         id="path128"
         inkscape:connector-curvature="0" />
      <path
         style="fill:none;fill-opacity:0;stroke:#840000;stroke-width:60;stroke-linecap:round;stroke-linejoin:round;stroke-opacity:1"
         d="m 48500,41150 1000,-400"
         id="path130"
         inkscape:connector-curvature="0" />
      <path
         style="fill:none;fill-opacity:0;stroke:#840000;stroke-width:60;stroke-linecap:round;stroke-linejoin:round;stroke-opacity:1"
         d="m 49250,42150 -350,150"
         id="path132"
         inkscape:connector-curvature="0" />
      <path
         style="fill:none;fill-opacity:0;stroke:#840000;stroke-width:60;stroke-linecap:round;stroke-linejoin:round;stroke-opacity:1"
         d="m 49250,42150 -150,-350"
         id="path134"
         inkscape:connector-curvature="0" />
      <path
         style="fill:none;fill-opacity:0;stroke:#840000;stroke-width:60;stroke-linecap:round;stroke-linejoin:round;stroke-opacity:1"
         d="m 49500,40750 0,-250"
         id="path136"
         inkscape:connector-curvature="0" />
      <path
         style="fill:none;fill-opacity:0;stroke:#840000;stroke-width:60;stroke-linecap:round;stroke-linejoin:round;stroke-opacity:1"
         d="m 48500,41850 1000,400"
         id="path138"
         inkscape:connector-curvature="0" />
      <path
         style="fill:none;fill-opacity:0;stroke:#840000;stroke-width:60;stroke-linecap:round;stroke-linejoin:round;stroke-opacity:1"
         d="m 49500,42250 0,250"
         id="path140"
         inkscape:connector-curvature="0" />
      <path
         d="m 48000,41500 0,0"
         id="path142"
         inkscape:connector-curvature="0" />
      <path
         d="m 49500,40500 0,0"
         id="path144"
         inkscape:connector-curvature="0" />
      <path
         d="m 49500,42500 0,0"
         id="path146"
         inkscape:connector-curvature="0" />
    </g>
    <g
       style="fill:#008484;fill-opacity:0;stroke:#008484;stroke-width:60;stroke-linecap:round;stroke-linejoin:round;stroke-opacity:1"
       id="g148">
      <text
         x="50030"
         y="40740"
         textLength="1060"
         font-size="660"
         lengthAdjust="spacingAndGlyphs"
         id="text150"
         style="font-size:660px;text-anchor:middle;opacity:0">Q2</text>
      <path
         d="m 49980,40760 -50,-20 -50,-50 -70,-70 -50,-30 -40,0"
         id="path152"
         inkscape:connector-curvature="0" />
      <path
         d="m 49740,40710 -50,-20 -50,-50 -20,-100 0,-160 20,-100 50,-40 50,-30 90,0 50,30 50,40 20,100 0,160 -20,100 -50,50 -50,20 -90,0"
         id="path154"
         inkscape:connector-curvature="0" />
      <path
         d="m 50140,40260 30,-20 50,-30 110,0 50,30 30,20 20,50 0,40 -20,80 -290,280 310,0"
         id="path156"
         inkscape:connector-curvature="0" />
      <text
         x="50440"
         y="42800"
         textLength="1890"
         font-size="660"
         lengthAdjust="spacingAndGlyphs"
         id="text158"
         style="font-size:660px;text-anchor:middle;opacity:0">npn1</text>
      <path
         d="m 49640,42440 0,330"
         id="path160"
         inkscape:connector-curvature="0" />
      <path
         d="m 49640,42490 20,-30 50,-20 70,0 50,20 20,50 0,260"
         id="path162"
         inkscape:connector-curvature="0" />
      <path
         d="m 50090,42440 0,500"
         id="path164"
         inkscape:connector-curvature="0" />
      <path
         d="m 50090,42460 50,-20 90,0 50,20 20,30 30,40 0,150 -30,40 -20,30 -50,20 -90,0 -50,-20"
         id="path166"
         inkscape:connector-curvature="0" />
      <path
         d="m 50540,42440 0,330"
         id="path168"
         inkscape:connector-curvature="0" />
      <path
         d="m 50540,42490 30,-30 40,-20 80,0 40,20 30,50 0,260"
         id="path170"
         inkscape:connector-curvature="0" />
      <path
         d="m 51260,42770 -290,0"
         id="path172"
         inkscape:connector-curvature="0" />
      <path
         d="m 51110,42770 0,-500 -40,70 -50,50 -50,20"
         id="path174"
         inkscape:connector-curvature="0" />
    </g>
  </g>
  <g
     style="fill:#008484;fill-opacity:0;stroke:#008484;stroke-width:0;stroke-linecap:round;stroke-linejoin:round;stroke-opacity:1"
     id="g176"
     transform="translate(-36679.593,-32921.953)">
    <g
       id="g178" />
    <g
       style="fill:#840000;fill-opacity:0;stroke:#840000;stroke-width:0;stroke-linecap:round;stroke-linejoin:round;stroke-opacity:1"
       id="g180" />
    <g
       style="fill:#840000;fill-opacity:0;stroke:#840000;stroke-width:60;stroke-linecap:round;stroke-linejoin:round;stroke-opacity:1"
       id="g182">
      <circle
         cx="38000"
         cy="33500"
         r="500"
         id="circle184" />
      <path
         style="fill:none;fill-opacity:0;stroke:#840000;stroke-width:60;stroke-linecap:round;stroke-linejoin:round;stroke-opacity:1"
         d="m 38000,33750 0,-500"
         id="path186"
         inkscape:connector-curvature="0" />
      <path
         style="fill:none;fill-opacity:0;stroke:#840000;stroke-width:60;stroke-linecap:round;stroke-linejoin:round;stroke-opacity:1"
         d="m 39000,33500 -500,0"
         id="path188"
         inkscape:connector-curvature="0" />
      <path
         style="fill:none;fill-opacity:0;stroke:#840000;stroke-width:60;stroke-linecap:round;stroke-linejoin:round;stroke-opacity:1"
         d="m 38250,33500 -500,0"
         id="path190"
         inkscape:connector-curvature="0" />
      <path
         d="m 39000,33500 0,0"
         id="path192"
         inkscape:connector-curvature="0" />
    </g>
    <g
       style="fill:#008484;fill-opacity:0;stroke:#008484;stroke-width:60;stroke-linecap:round;stroke-linejoin:round;stroke-opacity:1"
       id="g194">
      <g
         transform="matrix(0,-1,1,0,3500,70480)"
         id="g196">
        <text
           x="36990"
           y="33740"
           textLength="1110"
           font-size="660"
           lengthAdjust="spacingAndGlyphs"
           id="text198"
           style="font-size:660px;text-anchor:middle;opacity:0">V+</text>
      </g>
      <path
         d="m 36710,33960 500,-170 -500,-160"
         id="path200"
         inkscape:connector-curvature="0" />
      <path
         d="m 37020,33460 0,-380"
         id="path202"
         inkscape:connector-curvature="0" />
      <path
         d="m 37210,33270 -380,0"
         id="path204"
         inkscape:connector-curvature="0" />
    </g>
  </g>
  <g
     style="fill:#008484;fill-opacity:0;stroke:#008484;stroke-width:0;stroke-linecap:round;stroke-linejoin:round;stroke-opacity:1"
     id="g206"
     transform="translate(-36679.593,-32921.953)">
    <g
       id="g208" />
    <g
       style="fill:#840000;fill-opacity:0;stroke:#840000;stroke-width:0;stroke-linecap:round;stroke-linejoin:round;stroke-opacity:1"
       id="g210" />
    <g
       style="fill:#840000;fill-opacity:0;stroke:#840000;stroke-width:60;stroke-linecap:round;stroke-linejoin:round;stroke-opacity:1"
       id="g212">
      <circle
         cx="53000"
         cy="39500"
         r="750"
         id="circle214" />
      <path
         style="fill:none;fill-opacity:0;stroke:#840000;stroke-width:60;stroke-linecap:round;stroke-linejoin:round;stroke-opacity:1"
         d="m 52750,39850 500,0"
         id="path216"
         inkscape:connector-curvature="0" />
      <path
         style="fill:none;fill-opacity:0;stroke:#840000;stroke-width:60;stroke-linecap:round;stroke-linejoin:round;stroke-opacity:1"
         d="m 53000,40250 0,250"
         id="path218"
         inkscape:connector-curvature="0" />
      <path
         style="fill:none;fill-opacity:0;stroke:#840000;stroke-width:60;stroke-linecap:round;stroke-linejoin:round;stroke-opacity:1"
         d="m 53000,39500 0,-500"
         id="path220"
         inkscape:connector-curvature="0" />
      <path
         style="fill:none;fill-opacity:0;stroke:#840000;stroke-width:60;stroke-linecap:round;stroke-linejoin:round;stroke-opacity:1"
         d="m 53000,38750 0,-250"
         id="path222"
         inkscape:connector-curvature="0" />
      <path
         style="fill:none;fill-opacity:0;stroke:#840000;stroke-width:60;stroke-linecap:round;stroke-linejoin:round;stroke-opacity:1"
         d="m 53250,39250 -500,0"
         id="path224"
         inkscape:connector-curvature="0" />
      <path
         d="m 53000,38500 0,0"
         id="path226"
         inkscape:connector-curvature="0" />
      <path
         d="m 53000,40500 0,0"
         id="path228"
         inkscape:connector-curvature="0" />
    </g>
    <g
       style="fill:#008484;fill-opacity:0;stroke:#008484;stroke-width:60;stroke-linecap:round;stroke-linejoin:round;stroke-opacity:1"
       id="g230">
      <text
         x="53980"
         y="38490"
         textLength="960"
         font-size="660"
         lengthAdjust="spacingAndGlyphs"
         id="text232"
         style="font-size:660px;text-anchor:middle;opacity:0">V2</text>
      <path
         d="m 53570,37960 170,500 160,-500"
         id="path234"
         inkscape:connector-curvature="0" />
      <path
         d="m 54050,38010 20,-20 50,-30 120,0 40,30 30,20 20,50 0,40 -20,80 -290,280 310,0"
         id="path236"
         inkscape:connector-curvature="0" />
      <text
         x="53980"
         y="41050"
         textLength="960"
         font-size="660"
         lengthAdjust="spacingAndGlyphs"
         id="text238"
         style="font-size:660px;text-anchor:middle;opacity:0">1V</text>
      <path
         d="m 53900,41020 -280,0"
         id="path240"
         inkscape:connector-curvature="0" />
      <path
         d="m 53760,41020 0,-500 -50,70 -40,50 -50,20"
         id="path242"
         inkscape:connector-curvature="0" />
      <path
         d="m 54050,40520 160,500 170,-500"
         id="path244"
         inkscape:connector-curvature="0" />
    </g>
  </g>
  <g
     style="fill:#008484;fill-opacity:0;stroke:#008484;stroke-width:0;stroke-linecap:round;stroke-linejoin:round;stroke-opacity:1"
     id="g246"
     transform="translate(-36679.593,-32921.953)">
    <g
       id="g248" />
    <g
       style="fill:#840000;fill-opacity:0;stroke:#840000;stroke-width:0;stroke-linecap:round;stroke-linejoin:round;stroke-opacity:1"
       id="g250" />
    <g
       style="fill:#840000;fill-opacity:0;stroke:#840000;stroke-width:60;stroke-linecap:round;stroke-linejoin:round;stroke-opacity:1"
       id="g252">
      <circle
         cx="40000"
         cy="38500"
         r="750"
         id="circle254" />
      <path
         style="fill:none;fill-opacity:0;stroke:#840000;stroke-width:60;stroke-linecap:round;stroke-linejoin:round;stroke-opacity:1"
         d="m 39750,38850 500,0"
         id="path256"
         inkscape:connector-curvature="0" />
      <path
         style="fill:none;fill-opacity:0;stroke:#840000;stroke-width:60;stroke-linecap:round;stroke-linejoin:round;stroke-opacity:1"
         d="m 40000,39250 0,250"
         id="path258"
         inkscape:connector-curvature="0" />
      <path
         style="fill:none;fill-opacity:0;stroke:#840000;stroke-width:60;stroke-linecap:round;stroke-linejoin:round;stroke-opacity:1"
         d="m 40000,38500 0,-500"
         id="path260"
         inkscape:connector-curvature="0" />
      <path
         style="fill:none;fill-opacity:0;stroke:#840000;stroke-width:60;stroke-linecap:round;stroke-linejoin:round;stroke-opacity:1"
         d="m 40000,37750 0,-250"
         id="path262"
         inkscape:connector-curvature="0" />
      <path
         style="fill:none;fill-opacity:0;stroke:#840000;stroke-width:60;stroke-linecap:round;stroke-linejoin:round;stroke-opacity:1"
         d="m 40250,38250 -500,0"
         id="path264"
         inkscape:connector-curvature="0" />
      <path
         d="m 40000,37500 0,0"
         id="path266"
         inkscape:connector-curvature="0" />
      <path
         d="m 40000,39500 0,0"
         id="path268"
         inkscape:connector-curvature="0" />
    </g>
    <g
       style="fill:#008484;fill-opacity:0;stroke:#008484;stroke-width:60;stroke-linecap:round;stroke-linejoin:round;stroke-opacity:1"
       id="g270">
      <text
         x="38520"
         y="37990"
         textLength="960"
         font-size="660"
         lengthAdjust="spacingAndGlyphs"
         id="text272"
         style="font-size:660px;text-anchor:middle;opacity:0">V1</text>
      <path
         d="m 38110,37460 170,500 160,-500"
         id="path274"
         inkscape:connector-curvature="0" />
      <path
         d="m 38870,37960 -280,0"
         id="path276"
         inkscape:connector-curvature="0" />
      <path
         d="m 38730,37960 0,-500 -50,70 -50,50 -40,20"
         id="path278"
         inkscape:connector-curvature="0" />
      <text
         x="38520"
         y="39550"
         textLength="960"
         font-size="660"
         lengthAdjust="spacingAndGlyphs"
         id="text280"
         style="font-size:660px;text-anchor:middle;opacity:0">5V</text>
      <path
         d="m 38420,39020 -240,0 -20,240 20,-20 50,-30 120,0 50,30 20,20 20,50 0,120 -20,40 -20,30 -50,20 -120,0 -50,-20 -20,-30"
         id="path282"
         inkscape:connector-curvature="0" />
      <path
         d="m 38590,39020 160,500 170,-500"
         id="path284"
         inkscape:connector-curvature="0" />
    </g>
  </g>
  <g
     style="fill:#008484;fill-opacity:0;stroke:#008484;stroke-width:0;stroke-linecap:round;stroke-linejoin:round;stroke-opacity:1"
     id="g286"
     transform="translate(-36679.593,-32921.953)">
    <g
       id="g288" />
    <g
       style="fill:#840000;fill-opacity:0;stroke:#840000;stroke-width:0;stroke-linecap:round;stroke-linejoin:round;stroke-opacity:1"
       id="g290" />
    <g
       style="fill:#840000;fill-opacity:0;stroke:#840000;stroke-width:60;stroke-linecap:round;stroke-linejoin:round;stroke-opacity:1"
       id="g292">
      <path
         style="fill:none;fill-opacity:0;stroke:#840000;stroke-width:60;stroke-linecap:round;stroke-linejoin:round;stroke-opacity:1"
         d="m 45750,45500 1500,0"
         id="path294"
         inkscape:connector-curvature="0" />
      <path
         style="fill:none;fill-opacity:0;stroke:#840000;stroke-width:60;stroke-linecap:round;stroke-linejoin:round;stroke-opacity:1"
         d="m 46000,45750 1000,0"
         id="path296"
         inkscape:connector-curvature="0" />
      <path
         style="fill:none;fill-opacity:0;stroke:#840000;stroke-width:60;stroke-linecap:round;stroke-linejoin:round;stroke-opacity:1"
         d="m 46250,46000 500,0"
         id="path298"
         inkscape:connector-curvature="0" />
      <path
         style="fill:none;fill-opacity:0;stroke:#840000;stroke-width:60;stroke-linecap:round;stroke-linejoin:round;stroke-opacity:1"
         d="m 46500,44500 0,1000"
         id="path300"
         inkscape:connector-curvature="0" />
      <path
         d="m 46500,44500 0,0"
         id="path302"
         inkscape:connector-curvature="0" />
    </g>
  </g>
  <g
     style="fill:#840000;fill-opacity:0;stroke:#840000;stroke-width:0;stroke-linecap:round;stroke-linejoin:round;stroke-opacity:1"
     id="g304"
     transform="translate(-36679.593,-32921.953)">
    <g
       id="g306" />
    <g
       style="fill:#840000;fill-opacity:0;stroke:#840000;stroke-width:60;stroke-linecap:round;stroke-linejoin:round;stroke-opacity:1"
       id="g308">
      <path
         style="fill:none;fill-opacity:0;stroke:#840000;stroke-width:60;stroke-linecap:round;stroke-linejoin:round;stroke-opacity:1"
         d="m 48500,38250 0,-1500"
         id="path310"
         inkscape:connector-curvature="0" />
      <path
         style="fill:none;fill-opacity:0;stroke:#840000;stroke-width:60;stroke-linecap:round;stroke-linejoin:round;stroke-opacity:1"
         d="m 48500,37500 -500,0"
         id="path312"
         inkscape:connector-curvature="0" />
      <path
         style="fill:none;fill-opacity:0;stroke:#840000;stroke-width:60;stroke-linecap:round;stroke-linejoin:round;stroke-opacity:1"
         d="m 48500,37150 1000,-400"
         id="path314"
         inkscape:connector-curvature="0" />
      <path
         style="fill:none;fill-opacity:0;stroke:#840000;stroke-width:60;stroke-linecap:round;stroke-linejoin:round;stroke-opacity:1"
         d="m 49250,38150 -350,150"
         id="path316"
         inkscape:connector-curvature="0" />
      <path
         style="fill:none;fill-opacity:0;stroke:#840000;stroke-width:60;stroke-linecap:round;stroke-linejoin:round;stroke-opacity:1"
         d="m 49250,38150 -150,-350"
         id="path318"
         inkscape:connector-curvature="0" />
      <path
         style="fill:none;fill-opacity:0;stroke:#840000;stroke-width:60;stroke-linecap:round;stroke-linejoin:round;stroke-opacity:1"
         d="m 49500,36750 0,-250"
         id="path320"
         inkscape:connector-curvature="0" />
      <path
         style="fill:none;fill-opacity:0;stroke:#840000;stroke-width:60;stroke-linecap:round;stroke-linejoin:round;stroke-opacity:1"
         d="m 48500,37850 1000,400"
         id="path322"
         inkscape:connector-curvature="0" />
      <path
         style="fill:none;fill-opacity:0;stroke:#840000;stroke-width:60;stroke-linecap:round;stroke-linejoin:round;stroke-opacity:1"
         d="m 49500,38250 0,250"
         id="path324"
         inkscape:connector-curvature="0" />
      <path
         d="m 48000,37500 0,0"
         id="path326"
         inkscape:connector-curvature="0" />
      <path
         d="m 49500,36500 0,0"
         id="path328"
         inkscape:connector-curvature="0" />
      <path
         d="m 49500,38500 0,0"
         id="path330"
         inkscape:connector-curvature="0" />
    </g>
    <g
       style="fill:#008484;fill-opacity:0;stroke:#008484;stroke-width:60;stroke-linecap:round;stroke-linejoin:round;stroke-opacity:1"
       id="g332">
      <text
         x="50030"
         y="36740"
         textLength="1060"
         font-size="660"
         lengthAdjust="spacingAndGlyphs"
         id="text334"
         style="font-size:660px;text-anchor:middle;opacity:0">Q3</text>
      <path
         d="m 49980,36760 -50,-20 -50,-50 -70,-70 -50,-30 -40,0"
         id="path336"
         inkscape:connector-curvature="0" />
      <path
         d="m 49740,36710 -50,-20 -50,-50 -20,-100 0,-160 20,-100 50,-40 50,-30 90,0 50,30 50,40 20,100 0,160 -20,100 -50,50 -50,20 -90,0"
         id="path338"
         inkscape:connector-curvature="0" />
      <path
         d="m 50120,36210 310,0 -170,190 70,0 50,30 30,20 20,50 0,120 -20,40 -30,30 -50,20 -140,0 -50,-20 -20,-30"
         id="path340"
         inkscape:connector-curvature="0" />
      <text
         x="50440"
         y="38800"
         textLength="1890"
         font-size="660"
         lengthAdjust="spacingAndGlyphs"
         id="text342"
         style="font-size:660px;text-anchor:middle;opacity:0">npn1</text>
      <path
         d="m 49640,38440 0,330"
         id="path344"
         inkscape:connector-curvature="0" />
      <path
         d="m 49640,38490 20,-30 50,-20 70,0 50,20 20,50 0,260"
         id="path346"
         inkscape:connector-curvature="0" />
      <path
         d="m 50090,38440 0,500"
         id="path348"
         inkscape:connector-curvature="0" />
      <path
         d="m 50090,38460 50,-20 90,0 50,20 20,30 30,40 0,150 -30,40 -20,30 -50,20 -90,0 -50,-20"
         id="path350"
         inkscape:connector-curvature="0" />
      <path
         d="m 50540,38440 0,330"
         id="path352"
         inkscape:connector-curvature="0" />
      <path
         d="m 50540,38490 30,-30 40,-20 80,0 40,20 30,50 0,260"
         id="path354"
         inkscape:connector-curvature="0" />
      <path
         d="m 51260,38770 -290,0"
         id="path356"
         inkscape:connector-curvature="0" />
      <path
         d="m 51110,38770 0,-500 -40,70 -50,50 -50,20"
         id="path358"
         inkscape:connector-curvature="0" />
    </g>
  </g>
  <g
     style="fill:#008484;fill-opacity:0;stroke:#008484;stroke-width:60;stroke-linecap:round;stroke-linejoin:round;stroke-opacity:1"
     id="g360"
     transform="translate(-36679.593,-32921.953)" />
  <g
     style="fill:#008400;fill-opacity:0;stroke:#008400;stroke-width:60;stroke-linecap:round;stroke-linejoin:round;stroke-opacity:1"
     id="g362"
     transform="translate(-36679.593,-32921.953)">
    <path
       d="m 46500,43500 0,1000"
       id="path364"
       inkscape:connector-curvature="0" />
    <path
       d="m 40000,33500 3500,0"
       id="path366"
       inkscape:connector-curvature="0" />
    <path
       d="m 40000,43500 3500,0"
       id="path368"
       inkscape:connector-curvature="0" />
    <path
       d="m 53000,43500 0,-3000"
       id="path370"
       inkscape:connector-curvature="0" />
    <path
       d="m 53000,38500 0,-3000"
       id="path372"
       inkscape:connector-curvature="0" />
    <path
       d="m 53000,35500 -3500,0"
       id="path374"
       inkscape:connector-curvature="0" />
    <path
       d="m 49500,35500 0,1000"
       id="path376"
       inkscape:connector-curvature="0" />
    <path
       d="m 40000,43500 0,-4000"
       id="path378"
       inkscape:connector-curvature="0" />
    <path
       d="m 40000,37500 0,-4000"
       id="path380"
       inkscape:connector-curvature="0" />
    <path
       d="m 39000,33500 1000,0"
       id="path382"
       inkscape:connector-curvature="0" />
    <path
       d="m 46500,41500 1500,0"
       id="path384"
       inkscape:connector-curvature="0" />
    <path
       d="m 49500,39500 0,1000"
       id="path386"
       inkscape:connector-curvature="0" />
    <path
       d="m 43500,37500 0,3000"
       id="path388"
       inkscape:connector-curvature="0" />
    <path
       d="m 49500,43500 3500,0"
       id="path390"
       inkscape:connector-curvature="0" />
    <path
       d="m 46500,43500 3000,0"
       id="path392"
       inkscape:connector-curvature="0" />
    <path
       d="m 43500,43500 3000,0"
       id="path394"
       inkscape:connector-curvature="0" />
    <path
       d="m 46500,39500 0,2000"
       id="path396"
       inkscape:connector-curvature="0" />
    <path
       d="m 45000,41500 1500,0"
       id="path398"
       inkscape:connector-curvature="0" />
    <path
       d="m 43500,36500 0,1000"
       id="path400"
       inkscape:connector-curvature="0" />
    <path
       d="m 49500,38500 0,1000"
       id="path402"
       inkscape:connector-curvature="0" />
    <path
       d="m 49500,39500 -3000,0"
       id="path404"
       inkscape:connector-curvature="0" />
    <path
       d="m 43500,33500 0,1000"
       id="path406"
       inkscape:connector-curvature="0" />
    <path
       d="m 48000,37500 -4500,0"
       id="path408"
       inkscape:connector-curvature="0" />
    <path
       d="m 49500,43500 0,-1000"
       id="path410"
       inkscape:connector-curvature="0" />
    <path
       d="m 43500,42500 0,1000"
       id="path412"
       inkscape:connector-curvature="0" />
  </g>
  <g
     style="fill:#000000;fill-opacity:0;stroke:#000000;stroke-width:60;stroke-linecap:round;stroke-linejoin:round;stroke-opacity:1"
     id="g414"
     transform="translate(-36679.593,-32921.953)">
    <text
       x="43500"
       y="38400"
       textLength="1170"
       font-size="800"
       lengthAdjust="spacingAndGlyphs"
       id="text416"
       style="font-size:800px;text-anchor:start;opacity:0">n3</text>
    <path
       d="m 43670,37970 0,400"
       id="path418"
       inkscape:connector-curvature="0" />
    <path
       d="m 43670,38020 30,-20 50,-30 90,0 60,30 30,50 0,320"
       id="path420"
       inkscape:connector-curvature="0" />
    <path
       d="m 44150,37770 380,0 -200,230 80,0 60,20 30,30 30,60 0,140 -30,60 -30,30 -60,30 -170,0 -60,-30 -30,-30"
       id="path422"
       inkscape:connector-curvature="0" />
    <text
       x="49500"
       y="35400"
       textLength="1170"
       font-size="800"
       lengthAdjust="spacingAndGlyphs"
       id="text424"
       style="font-size:800px;text-anchor:start;opacity:0">n2</text>
    <path
       d="m 49670,34970 0,400"
       id="path426"
       inkscape:connector-curvature="0" />
    <path
       d="m 49670,35020 30,-20 50,-30 90,0 60,30 30,50 0,320"
       id="path428"
       inkscape:connector-curvature="0" />
    <path
       d="m 50180,34820 30,-20 60,-30 140,0 60,30 30,20 30,60 0,60 -30,80 -350,350 380,0"
       id="path430"
       inkscape:connector-curvature="0" />
    <text
       x="46500"
       y="43400"
       textLength="630"
       font-size="800"
       lengthAdjust="spacingAndGlyphs"
       id="text432"
       style="font-size:800px;text-anchor:start;opacity:0">0</text>
    <path
       d="m 46780,42770 60,0 60,30 30,20 20,60 30,120 0,140 -30,110 -20,60 -30,30 -60,30 -60,0 -50,-30 -30,-30 -30,-60 -30,-110 0,-140 30,-120 30,-60 30,-20 50,-30"
       id="path434"
       inkscape:connector-curvature="0" />
    <text
       x="46500"
       y="39400"
       textLength="1170"
       font-size="800"
       lengthAdjust="spacingAndGlyphs"
       id="text436"
       style="font-size:800px;text-anchor:start;opacity:0">n1</text>
    <path
       d="m 46670,38970 0,400"
       id="path438"
       inkscape:connector-curvature="0" />
    <path
       d="m 46670,39020 30,-20 50,-30 90,0 60,30 30,50 0,320"
       id="path440"
       inkscape:connector-curvature="0" />
    <path
       d="m 47530,39370 -350,0"
       id="path442"
       inkscape:connector-curvature="0" />
    <path
       d="m 47350,39370 0,-600 -50,80 -60,60 -60,30"
       id="path444"
       inkscape:connector-curvature="0" />
    <text
       x="40500"
       y="33400"
       textLength="2630"
       font-size="800"
       lengthAdjust="spacingAndGlyphs"
       id="text446"
       style="font-size:800px;text-anchor:start;opacity:0">n_pos</text>
    <path
       d="m 40670,32970 0,400"
       id="path448"
       inkscape:connector-curvature="0" />
    <path
       d="m 40670,33020 30,-20 50,-30 90,0 60,30 30,50 0,320"
       id="path450"
       inkscape:connector-curvature="0" />
    <path
       d="m 41070,33420 460,0"
       id="path452"
       inkscape:connector-curvature="0" />
    <path
       d="m 41670,32970 0,600"
       id="path454"
       inkscape:connector-curvature="0" />
    <path
       d="m 41670,33000 60,-30 110,0 60,30 30,20 20,60 0,170 -20,60 -30,30 -60,30 -110,0 -60,-30"
       id="path456"
       inkscape:connector-curvature="0" />
    <path
       d="m 42300,33370 -60,-30 -30,-30 -30,-60 0,-170 30,-60 30,-20 60,-30 80,0 60,30 30,20 30,60 0,170 -30,60 -30,30 -60,30 -80,0"
       id="path458"
       inkscape:connector-curvature="0" />
    <path
       d="m 42730,33340 50,30 120,0 50,-30 30,-60 0,-30 -30,-50 -50,-30 -90,0 -60,-30 -20,-60 0,-30 20,-50 60,-30 90,0 50,30"
       id="path460"
       inkscape:connector-curvature="0" />
  </g>
  <g
     style="fill:#000000;fill-opacity:0;stroke:#000000;stroke-width:0;stroke-linecap:round;stroke-linejoin:round;stroke-opacity:1"
     id="g462"
     transform="translate(-36679.593,-32921.953)" />
  <g
     style="fill:#008400;fill-opacity:0;stroke:#008400;stroke-width:0;stroke-linecap:round;stroke-linejoin:round;stroke-opacity:1"
     id="g464"
     transform="translate(-36679.593,-32921.953)" />
  <g
     style="fill:#008400;fill-opacity:1;stroke:#008400;stroke-width:100;stroke-linecap:round;stroke-linejoin:round;stroke-opacity:1"
     id="g466"
     transform="translate(-36679.593,-32921.953)">
    <circle
       cx="43500"
       cy="37500"
       r="200"
       id="circle468" />
  </g>
  <g
     style="fill:#008400;fill-opacity:1;stroke:#008400;stroke-width:0;stroke-linecap:round;stroke-linejoin:round;stroke-opacity:1"
     id="g470"
     transform="translate(-36679.593,-32921.953)" />
  <g
     style="fill:#008400;fill-opacity:1;stroke:#008400;stroke-width:100;stroke-linecap:round;stroke-linejoin:round;stroke-opacity:1"
     id="g472"
     transform="translate(-36679.593,-32921.953)">
    <circle
       cx="49500"
       cy="39500"
       r="200"
       id="circle474" />
  </g>
  <g
     style="fill:#008400;fill-opacity:1;stroke:#008400;stroke-width:0;stroke-linecap:round;stroke-linejoin:round;stroke-opacity:1"
     id="g476"
     transform="translate(-36679.593,-32921.953)" />
  <g
     style="fill:#008400;fill-opacity:1;stroke:#008400;stroke-width:100;stroke-linecap:round;stroke-linejoin:round;stroke-opacity:1"
     id="g478"
     transform="translate(-36679.593,-32921.953)">
    <circle
       cx="40000"
       cy="33500"
       r="200"
       id="circle480" />
  </g>
  <g
     style="fill:#008400;fill-opacity:1;stroke:#008400;stroke-width:0;stroke-linecap:round;stroke-linejoin:round;stroke-opacity:1"
     id="g482"
     transform="translate(-36679.593,-32921.953)" />
  <g
     style="fill:#008400;fill-opacity:1;stroke:#008400;stroke-width:100;stroke-linecap:round;stroke-linejoin:round;stroke-opacity:1"
     id="g484"
     transform="translate(-36679.593,-32921.953)">
    <circle
       cx="49500"
       cy="43500"
       r="200"
       id="circle486" />
  </g>
  <g
     style="fill:#008400;fill-opacity:1;stroke:#008400;stroke-width:0;stroke-linecap:round;stroke-linejoin:round;stroke-opacity:1"
     id="g488"
     transform="translate(-36679.593,-32921.953)" />
  <g
     style="fill:#008400;fill-opacity:1;stroke:#008400;stroke-width:100;stroke-linecap:round;stroke-linejoin:round;stroke-opacity:1"
     id="g490"
     transform="translate(-36679.593,-32921.953)">
    <circle
       cx="43500"
       cy="43500"
       r="200"
       id="circle492" />
  </g>
  <g
     style="fill:#008400;fill-opacity:1;stroke:#008400;stroke-width:0;stroke-linecap:round;stroke-linejoin:round;stroke-opacity:1"
     id="g494"
     transform="translate(-36679.593,-32921.953)" />
  <g
     style="fill:#008400;fill-opacity:1;stroke:#008400;stroke-width:100;stroke-linecap:round;stroke-linejoin:round;stroke-opacity:1"
     id="g496"
     transform="translate(-36679.593,-32921.953)">
    <circle
       cx="46500"
       cy="41500"
       r="200"
       id="circle498" />
  </g>
  <g
     style="fill:#008400;fill-opacity:1;stroke:#008400;stroke-width:0;stroke-linecap:round;stroke-linejoin:round;stroke-opacity:1"
     id="g500"
     transform="translate(-36679.593,-32921.953)" />
  <g
     style="fill:#008400;fill-opacity:1;stroke:#008400;stroke-width:100;stroke-linecap:round;stroke-linejoin:round;stroke-opacity:1"
     id="g502"
     transform="translate(-36679.593,-32921.953)">
    <circle
       cx="46500"
       cy="43500"
       r="200"
       id="circle504" />
  </g>
</svg>
