<?xml version="1.0" encoding="UTF-8" standalone="no"?>
<!-- Created with Inkscape (http://www.inkscape.org/) -->

<svg
   xmlns:dc="http://purl.org/dc/elements/1.1/"
   xmlns:cc="http://creativecommons.org/ns#"
   xmlns:rdf="http://www.w3.org/1999/02/22-rdf-syntax-ns#"
   xmlns:svg="http://www.w3.org/2000/svg"
   xmlns="http://www.w3.org/2000/svg"
   xmlns:sodipodi="http://sodipodi.sourceforge.net/DTD/sodipodi-0.dtd"
   xmlns:inkscape="http://www.inkscape.org/namespaces/inkscape"
   version="1.1"
   id="svg2"
   xml:space="preserve"
   width="696.0152"
   height="653.99072"
   viewBox="0 0 696.0152 653.99072"
   sodipodi:docname="dc_mc.svg"
   inkscape:version="0.92.5 (2060ec1f9f, 2020-04-08)"><metadata
     id="metadata8"><rdf:RDF><cc:Work
         rdf:about=""><dc:format>image/svg+xml</dc:format><dc:type
           rdf:resource="http://purl.org/dc/dcmitype/StillImage" /><dc:title></dc:title></cc:Work></rdf:RDF></metadata><defs
     id="defs6" /><sodipodi:namedview
     pagecolor="#ffffff"
     bordercolor="#666666"
     borderopacity="1"
     objecttolerance="10"
     gridtolerance="10"
     guidetolerance="10"
     inkscape:pageopacity="1"
     inkscape:pageshadow="2"
     inkscape:window-width="1920"
     inkscape:window-height="1030"
     id="namedview4"
     showgrid="false"
     fit-margin-top="5"
     fit-margin-left="5"
     fit-margin-right="5"
     fit-margin-bottom="5"
     inkscape:zoom="0.89718925"
     inkscape:cx="502.87432"
     inkscape:cy="296.66"
     inkscape:window-x="0"
     inkscape:window-y="0"
     inkscape:window-maximized="1"
     inkscape:current-layer="g88" /><g
     id="g10"
     inkscape:groupmode="layer"
     inkscape:label="ink_ext_XXXXXX"
     transform="matrix(1.3333333,0,0,-1.3333333,0.96186839,669.30665)"><g
       id="g12"
       transform="scale(0.1)"><path
         d="M 440,500 V 4940"
         style="fill:none;stroke:#000000;stroke-width:10;stroke-linecap:butt;stroke-linejoin:miter;stroke-miterlimit:10;stroke-dasharray:none;stroke-opacity:1"
         id="path30"
         inkscape:connector-curvature="0" /><g
         id="g32"
         transform="scale(10)"><text
           transform="matrix(1,0,0,-1,32,33)"
           style="font-variant:normal;font-weight:normal;font-size:10px;font-family:Helvetica;-inkscape-font-specification:Helvetica;writing-mode:lr-tb;fill:#000000;fill-opacity:1;fill-rule:nonzero;stroke:none"
           id="text36"><tspan
             x="0 5.8400002 11.4 14.18"
             y="0"
             sodipodi:role="line"
             id="tspan34">−0.0</tspan></text>
</g><path
         d="M 1110,500 V 4940"
         style="fill:none;stroke:#808080;stroke-width:10;stroke-linecap:butt;stroke-linejoin:miter;stroke-miterlimit:10;stroke-dasharray:none;stroke-opacity:1"
         id="path38"
         inkscape:connector-curvature="0" /><g
         id="g40"
         transform="scale(10)"><text
           transform="matrix(1,0,0,-1,102,33)"
           style="font-variant:normal;font-weight:normal;font-size:10px;font-family:Helvetica;-inkscape-font-specification:Helvetica;writing-mode:lr-tb;fill:#000000;fill-opacity:1;fill-rule:nonzero;stroke:none"
           id="text44"><tspan
             x="0 5.5599999 8.3400002"
             y="0"
             sodipodi:role="line"
             id="tspan42">0.2</tspan></text>
</g><path
         d="M 1780,500 V 4940"
         style="fill:none;stroke:#808080;stroke-width:10;stroke-linecap:butt;stroke-linejoin:miter;stroke-miterlimit:10;stroke-dasharray:none;stroke-opacity:1"
         id="path46"
         inkscape:connector-curvature="0" /><g
         id="g48"
         transform="scale(10)"><text
           transform="matrix(1,0,0,-1,169,33)"
           style="font-variant:normal;font-weight:normal;font-size:10px;font-family:Helvetica;-inkscape-font-specification:Helvetica;writing-mode:lr-tb;fill:#000000;fill-opacity:1;fill-rule:nonzero;stroke:none"
           id="text52"><tspan
             x="0 5.5599999 8.3400002"
             y="0"
             sodipodi:role="line"
             id="tspan50">0.4</tspan></text>
</g><path
         d="M 2450,500 V 4940"
         style="fill:none;stroke:#808080;stroke-width:10;stroke-linecap:butt;stroke-linejoin:miter;stroke-miterlimit:10;stroke-dasharray:none;stroke-opacity:1"
         id="path54"
         inkscape:connector-curvature="0" /><g
         id="g56"
         transform="scale(10)"><text
           transform="matrix(1,0,0,-1,236,33)"
           style="font-variant:normal;font-weight:normal;font-size:10px;font-family:Helvetica;-inkscape-font-specification:Helvetica;writing-mode:lr-tb;fill:#000000;fill-opacity:1;fill-rule:nonzero;stroke:none"
           id="text60"><tspan
             x="0 5.5599999 8.3400002"
             y="0"
             sodipodi:role="line"
             id="tspan58">0.6</tspan></text>
</g><path
         d="M 3120,500 V 4940"
         style="fill:none;stroke:#808080;stroke-width:10;stroke-linecap:butt;stroke-linejoin:miter;stroke-miterlimit:10;stroke-dasharray:none;stroke-opacity:1"
         id="path62"
         inkscape:connector-curvature="0" /><g
         id="g64"
         transform="scale(10)"><text
           transform="matrix(1,0,0,-1,303,33)"
           style="font-variant:normal;font-weight:normal;font-size:10px;font-family:Helvetica;-inkscape-font-specification:Helvetica;writing-mode:lr-tb;fill:#000000;fill-opacity:1;fill-rule:nonzero;stroke:none"
           id="text68"><tspan
             x="0 5.5599999 8.3400002"
             y="0"
             sodipodi:role="line"
             id="tspan66">0.8</tspan></text>
</g><path
         d="M 3790,500 V 4940"
         style="fill:none;stroke:#808080;stroke-width:10;stroke-linecap:butt;stroke-linejoin:miter;stroke-miterlimit:10;stroke-dasharray:none;stroke-opacity:1"
         id="path70"
         inkscape:connector-curvature="0" /><g
         id="g72"
         transform="scale(10)"><text
           transform="matrix(1,0,0,-1,370,33)"
           style="font-variant:normal;font-weight:normal;font-size:10px;font-family:Helvetica;-inkscape-font-specification:Helvetica;writing-mode:lr-tb;fill:#000000;fill-opacity:1;fill-rule:nonzero;stroke:none"
           id="text76"><tspan
             x="0 5.5599999 8.3400002"
             y="0"
             sodipodi:role="line"
             id="tspan74">1.0</tspan></text>
</g><path
         d="M 4460,500 V 4940"
         style="fill:none;stroke:#808080;stroke-width:10;stroke-linecap:butt;stroke-linejoin:miter;stroke-miterlimit:10;stroke-dasharray:none;stroke-opacity:1"
         id="path78"
         inkscape:connector-curvature="0" /><g
         id="g80"
         transform="scale(10)"><text
           transform="matrix(1,0,0,-1,437,33)"
           style="font-variant:normal;font-weight:normal;font-size:10px;font-family:Helvetica;-inkscape-font-specification:Helvetica;writing-mode:lr-tb;fill:#000000;fill-opacity:1;fill-rule:nonzero;stroke:none"
           id="text84"><tspan
             x="0 5.5599999 8.3400002"
             y="0"
             sodipodi:role="line"
             id="tspan82">1.2</tspan></text>
</g><path
         d="M 5130,500 V 4940"
         style="fill:none;stroke:#808080;stroke-width:10;stroke-linecap:butt;stroke-linejoin:miter;stroke-miterlimit:10;stroke-dasharray:none;stroke-opacity:1"
         id="path86"
         inkscape:connector-curvature="0" /><g
         id="g88"
         transform="scale(10)"><text
           transform="matrix(1,0,0,-1,504,33)"
           style="font-variant:normal;font-weight:normal;font-size:10px;font-family:Helvetica;-inkscape-font-specification:Helvetica;writing-mode:lr-tb;fill:#000000;fill-opacity:1;fill-rule:nonzero;stroke:none"
           id="text94"><tspan
             x="0 5.5599999 8.3400002"
             y="0"
             sodipodi:role="line"
             id="tspan90">1.4</tspan><tspan
             x="-176"
             y="21"
             id="tspan92" /></text>
<text
           xml:space="preserve"
           style="font-style:normal;font-weight:normal;font-size:8px;line-height:1.25;font-family:sans-serif;letter-spacing:0px;word-spacing:0px;fill:#000000;fill-opacity:1;stroke:none;stroke-width:0.75"
           x="228.16527"
           y="-17.733034"
           id="text1679"
           transform="scale(1,-1)"><tspan
             sodipodi:role="line"
             id="tspan1677"
             x="228.16527"
             y="-17.733034"
             style="font-style:normal;font-variant:normal;font-weight:normal;font-stretch:normal;font-size:12px;font-family:sans-serif;-inkscape-font-specification:'sans-serif, Normal';font-variant-ligatures:normal;font-variant-caps:normal;font-variant-numeric:normal;font-feature-settings:normal;text-align:start;writing-mode:lr-tb;text-anchor:start;stroke-width:0.75">Drain Voltage (V)</tspan></text>
</g><path
         d="M 440,500 H 5130"
         style="fill:none;stroke:#808080;stroke-width:10;stroke-linecap:butt;stroke-linejoin:miter;stroke-miterlimit:10;stroke-dasharray:none;stroke-opacity:1"
         id="path96"
         inkscape:connector-curvature="0" /><g
         id="g98"
         transform="scale(10)"><text
           transform="matrix(1,0,0,-1,20,47)"
           style="font-variant:normal;font-weight:normal;font-size:10px;font-family:Helvetica;-inkscape-font-specification:Helvetica;writing-mode:lr-tb;fill:#000000;fill-opacity:1;fill-rule:nonzero;stroke:none"
           id="text102"><tspan
             x="0 5.5599999 11.12 13.9"
             y="0"
             sodipodi:role="line"
             id="tspan100">48.5</tspan></text>
</g><path
         d="M 440,1610 H 5130"
         style="fill:none;stroke:#808080;stroke-width:10;stroke-linecap:butt;stroke-linejoin:miter;stroke-miterlimit:10;stroke-dasharray:none;stroke-opacity:1"
         id="path104"
         inkscape:connector-curvature="0" /><g
         id="g106"
         transform="scale(10)"><text
           transform="matrix(1,0,0,-1,20,158)"
           style="font-variant:normal;font-weight:normal;font-size:10px;font-family:Helvetica;-inkscape-font-specification:Helvetica;writing-mode:lr-tb;fill:#000000;fill-opacity:1;fill-rule:nonzero;stroke:none"
           id="text110"><tspan
             x="0 5.5599999 11.12 13.9"
             y="0"
             sodipodi:role="line"
             id="tspan108">49.0</tspan></text>
</g><path
         d="M 440,2720 H 5130"
         style="fill:none;stroke:#808080;stroke-width:10;stroke-linecap:butt;stroke-linejoin:miter;stroke-miterlimit:10;stroke-dasharray:none;stroke-opacity:1"
         id="path112"
         inkscape:connector-curvature="0" /><g
         id="g114"
         transform="scale(10)"><text
           transform="matrix(1,0,0,-1,20,269)"
           style="font-variant:normal;font-weight:normal;font-size:10px;font-family:Helvetica;-inkscape-font-specification:Helvetica;writing-mode:lr-tb;fill:#000000;fill-opacity:1;fill-rule:nonzero;stroke:none"
           id="text118"><tspan
             x="0 5.5599999 11.12 13.9"
             y="0"
             sodipodi:role="line"
             id="tspan116">49.5</tspan></text>
</g><path
         d="M 440,3830 H 5130"
         style="fill:none;stroke:#808080;stroke-width:10;stroke-linecap:butt;stroke-linejoin:miter;stroke-miterlimit:10;stroke-dasharray:none;stroke-opacity:1"
         id="path120"
         inkscape:connector-curvature="0" /><g
         id="g122"
         transform="scale(10)"><text
           transform="matrix(1,0,0,-1,20,380)"
           style="font-variant:normal;font-weight:normal;font-size:10px;font-family:Helvetica;-inkscape-font-specification:Helvetica;writing-mode:lr-tb;fill:#000000;fill-opacity:1;fill-rule:nonzero;stroke:none"
           id="text126"><tspan
             x="0 5.5599999 11.12 13.9"
             y="0"
             sodipodi:role="line"
             id="tspan124">50.0</tspan></text>
</g><path
         d="M 440,4940 H 5130"
         style="fill:none;stroke:#808080;stroke-width:10;stroke-linecap:butt;stroke-linejoin:miter;stroke-miterlimit:10;stroke-dasharray:none;stroke-opacity:1"
         id="path128"
         inkscape:connector-curvature="0" /><g
         id="g130"
         transform="scale(10)"><text
           transform="matrix(1,0,0,-1,20,491)"
           style="font-variant:normal;font-weight:normal;font-size:10px;font-family:Helvetica;-inkscape-font-specification:Helvetica;writing-mode:lr-tb;fill:#000000;fill-opacity:1;fill-rule:nonzero;stroke:none"
           id="text136"><tspan
             x="0"
             y="0"
             sodipodi:role="line"
             id="tspan134">50.5</tspan></text>
<text
           xml:space="preserve"
           style="font-style:normal;font-weight:normal;font-size:8px;line-height:1.25;font-family:sans-serif;letter-spacing:0px;word-spacing:0px;fill:#000000;fill-opacity:1;stroke:none;stroke-width:0.75"
           x="213.77405"
           y="12.145786"
           id="text1675"
           transform="matrix(0,1,1,0,0,0)"><tspan
             sodipodi:role="line"
             id="tspan1673"
             x="213.77405"
             y="12.145786"
             style="font-style:normal;font-variant:normal;font-weight:normal;font-stretch:normal;font-size:12px;font-family:sans-serif;-inkscape-font-specification:'sans-serif, Normal';font-variant-ligatures:normal;font-variant-caps:normal;font-variant-numeric:normal;font-feature-settings:normal;text-align:start;writing-mode:lr-tb;text-anchor:start;stroke-width:0.75">Drain Current Output (uA)</tspan></text>
</g><path
         d="m 4010,500 -50,970 -170,1150 -170,480 -160,260 -170,180 -170,120 -170,90 -160,50 -170,20 -170,10 H 2280 2110 1950 1780 1610 1440 1280 1110 940 770 610 l -170,10"
         style="fill:none;stroke:#ff0000;stroke-width:10;stroke-linecap:butt;stroke-linejoin:miter;stroke-miterlimit:10;stroke-dasharray:none;stroke-opacity:1"
         id="path146"
         inkscape:connector-curvature="0" /><path
         d="m 3950,500 -160,1720 -170,730 -160,350 -170,220 -170,150 -170,120 -160,100 -170,70 -170,40 -170,20 -170,10 H 1950 1780 1610 1440 1280 1110 940 770 610 440"
         style="fill:none;stroke:#0000ff;stroke-width:10;stroke-linecap:butt;stroke-linejoin:miter;stroke-miterlimit:10;stroke-dasharray:none;stroke-opacity:1"
         id="path156"
         inkscape:connector-curvature="0" /><path
         d="m 4040,500 -80,1450 -170,1180 -170,490 -160,270 -170,180 -170,130 -170,90 -160,60 -170,20 -170,10 h -170 -170 -160 -170 -170 -170 -160 -170 l -170,10 H 770 610 440"
         style="fill:none;stroke:#00ff00;stroke-width:10;stroke-linecap:butt;stroke-linejoin:miter;stroke-miterlimit:10;stroke-dasharray:none;stroke-opacity:1"
         id="path174"
         inkscape:connector-curvature="0" /><path
         d="m 3980,500 -20,440 -170,1530 -170,600 -160,310 -170,200 -170,140 -170,110 -160,80 -170,50 -170,10 -170,10 h -170 -160 -170 -170 -170 l -160,10 H 1110 940 770 610 440"
         style="fill:none;stroke:#a52a2a;stroke-width:10;stroke-linecap:butt;stroke-linejoin:miter;stroke-miterlimit:10;stroke-dasharray:none;stroke-opacity:1"
         id="path192"
         inkscape:connector-curvature="0" /><path
         d="m 3990,500 -30,650 -170,1660 -170,640 -160,320 -170,210 -170,140 -170,120 -160,90 -170,60 -170,30 -170,10 h -170 l -160,10 H 1780 1610 1440 1280 1110 940 770 610 440"
         style="fill:none;stroke:#f0e68c;stroke-width:10;stroke-linecap:butt;stroke-linejoin:miter;stroke-miterlimit:10;stroke-dasharray:none;stroke-opacity:1"
         id="path202"
         inkscape:connector-curvature="0" /><path
         d="m 4070,500 -110,1580 -170,850 -170,390 -160,220 -170,150 -170,100 -170,50 -160,20 h -170 -170 l -170,10 H 2110 1950 1780 1610 1440 1280 1110 940 770 610 440"
         style="fill:none;stroke:#dda0dd;stroke-width:10;stroke-linecap:butt;stroke-linejoin:miter;stroke-miterlimit:10;stroke-dasharray:none;stroke-opacity:1"
         id="path212"
         inkscape:connector-curvature="0" /><path
         d="m 4070,500 -110,1610 -170,920 -170,410 -160,230 -170,160 -170,110 -170,60 -160,30 h -170 -170 -170 l -170,10 H 1950 1780 1610 1440 1280 1110 940 770 610 440"
         style="fill:none;stroke:#da70d6;stroke-width:10;stroke-linecap:butt;stroke-linejoin:miter;stroke-miterlimit:10;stroke-dasharray:none;stroke-opacity:1"
         id="path222"
         inkscape:connector-curvature="0" /><path
         d="m 3910,500 -120,1430 -170,780 -160,370 -170,220 -170,150 -170,130 -160,90 -170,80 -170,60 -170,30 -170,10 H 1950 1780 1610 1440 1280 1110 940 770 610 440"
         style="fill:none;stroke:#ff00ff;stroke-width:10;stroke-linecap:butt;stroke-linejoin:miter;stroke-miterlimit:10;stroke-dasharray:none;stroke-opacity:1"
         id="path280"
         inkscape:connector-curvature="0" /><path
         d="m 4050,500 -90,1500 -170,1030 -170,440 -160,250 -170,170 -170,120 -170,80 -160,40 -170,20 h -170 -170 -170 -160 -170 -170 l -170,10 H 1280 1110 940 770 610 440"
         style="fill:none;stroke:#ff0000;stroke-width:10;stroke-linecap:butt;stroke-linejoin:miter;stroke-miterlimit:10;stroke-dasharray:none;stroke-opacity:1"
         id="path314"
         inkscape:connector-curvature="0" /><path
         d="m 4010,500 -50,1010 -170,1200 -170,490 -160,270 -170,180 -170,130 -170,100 -160,50 -170,20 -170,10 h -170 -170 -160 -170 l -170,10 H 1440 1280 1110 940 770 610 440"
         style="fill:none;stroke:#ffa500;stroke-width:10;stroke-linecap:butt;stroke-linejoin:miter;stroke-miterlimit:10;stroke-dasharray:none;stroke-opacity:1"
         id="path332"
         inkscape:connector-curvature="0" /><path
         d="m 4100,500 -140,1840 -170,790 -170,370 -160,210 -170,150 -170,80 -170,40 -160,10 -170,10 H 2450 2280 2110 1950 1780 1610 1440 1280 1110 940 l -170,10 H 610 440"
         style="fill:none;stroke:#00ff00;stroke-width:10;stroke-linecap:butt;stroke-linejoin:miter;stroke-miterlimit:10;stroke-dasharray:none;stroke-opacity:1"
         id="path342"
         inkscape:connector-curvature="0" /><path
         d="m 3980,500 -20,500 -170,1480 -170,580 -160,300 -170,200 -170,140 -170,100 -160,80 -170,50 -170,20 h -170 -170 -160 l -170,10 H 1610 1440 1280 1110 940 770 610 440"
         style="fill:none;stroke:#a52a2a;stroke-width:10;stroke-linecap:butt;stroke-linejoin:miter;stroke-miterlimit:10;stroke-dasharray:none;stroke-opacity:1"
         id="path360"
         inkscape:connector-curvature="0" /><path
         d="m 4020,500 -60,1180 -170,1150 -170,480 -160,270 -170,170 -170,130 -170,90 -160,60 -170,20 h -170 -170 -170 l -160,10 H 1780 1610 1440 1280 1110 940 770 610 440"
         style="fill:none;stroke:#f0e68c;stroke-width:10;stroke-linecap:butt;stroke-linejoin:miter;stroke-miterlimit:10;stroke-dasharray:none;stroke-opacity:1"
         id="path370"
         inkscape:connector-curvature="0" /><path
         d="m 4030,500 -70,1240 -170,1100 -170,460 -160,260 -170,180 -170,120 -170,80 -160,50 -170,10 -170,10 H 2280 2110 1950 1780 1610 1440 1280 1110 940 l -170,10 H 610 440"
         style="fill:none;stroke:#da70d6;stroke-width:10;stroke-linecap:butt;stroke-linejoin:miter;stroke-miterlimit:10;stroke-dasharray:none;stroke-opacity:1"
         id="path388"
         inkscape:connector-curvature="0" /><path
         d="m 4050,500 -90,1480 -170,960 -170,430 -160,240 -170,160 -170,110 -170,70 -160,30 -170,10 h -170 -170 -170 -160 -170 -170 -170 -160 l -170,10 H 940 770 610 440"
         style="fill:none;stroke:#ee82ee;stroke-width:10;stroke-linecap:butt;stroke-linejoin:miter;stroke-miterlimit:10;stroke-dasharray:none;stroke-opacity:1"
         id="path398"
         inkscape:connector-curvature="0" /><path
         d="m 3970,500 -10,70 -170,1700 -170,650 -160,330 -170,200 -170,150 -170,110 -160,90 -170,60 -170,30 -170,10 h -170 -160 -170 -170 l -170,10 H 1280 1110 940 770 610 440"
         style="fill:none;stroke:#b03060;stroke-width:10;stroke-linecap:butt;stroke-linejoin:miter;stroke-miterlimit:10;stroke-dasharray:none;stroke-opacity:1"
         id="path408"
         inkscape:connector-curvature="0" /><path
         d="m 3960,500 -170,1860 -170,710 -160,350 -170,210 -170,150 -170,120 -160,100 -170,70 -170,40 -170,20 -170,10 H 1950 1780 1610 1440 1280 1110 940 770 610 440"
         style="fill:none;stroke:#ff00ff;stroke-width:10;stroke-linecap:butt;stroke-linejoin:miter;stroke-miterlimit:10;stroke-dasharray:none;stroke-opacity:1"
         id="path450"
         inkscape:connector-curvature="0" /><path
         d="m 4020,500 -60,1170 -170,1120 -170,480 -160,260 -170,170 -170,130 -170,90 -160,50 -170,10 -170,10 h -170 -170 -160 -170 -170 -170 l -160,10 H 1110 940 770 610 440"
         style="fill:none;stroke:#606060;stroke-width:10;stroke-linecap:butt;stroke-linejoin:miter;stroke-miterlimit:10;stroke-dasharray:none;stroke-opacity:1"
         id="path460"
         inkscape:connector-curvature="0" /><path
         d="m 4100,500 -140,1840 -170,820 -170,370 -160,230 -170,140 -170,90 -170,50 -160,10 h -170 -170 -170 l -170,10 H 1950 1780 1610 1440 1280 1110 940 770 610 440"
         style="fill:none;stroke:#0000ff;stroke-width:10;stroke-linecap:butt;stroke-linejoin:miter;stroke-miterlimit:10;stroke-dasharray:none;stroke-opacity:1"
         id="path494"
         inkscape:connector-curvature="0" /><path
         d="m 4000,500 -40,820 -170,1370 -170,550 -160,290 -170,190 -170,130 -170,110 -160,70 -170,40 -170,10 h -170 l -170,10 H 1950 1780 1610 1440 1280 1110 940 770 610 440"
         style="fill:none;stroke:#a52a2a;stroke-width:10;stroke-linecap:butt;stroke-linejoin:miter;stroke-miterlimit:10;stroke-dasharray:none;stroke-opacity:1"
         id="path528"
         inkscape:connector-curvature="0" /><path
         d="m 3990,500 -30,520 -170,1460 -170,580 -160,300 -170,190 -170,140 -170,110 -160,70 -170,50 -170,10 h -170 l -170,10 H 1950 1780 1610 1440 1280 1110 940 770 610 440"
         style="fill:none;stroke:#ee82ee;stroke-width:10;stroke-linecap:butt;stroke-linejoin:miter;stroke-miterlimit:10;stroke-dasharray:none;stroke-opacity:1"
         id="path562"
         inkscape:connector-curvature="0" /><path
         d="m 4090,500 -130,1660 -170,800 -170,370 -160,210 -170,150 -170,80 -170,50 -160,10 h -170 -170 -170 -170 l -160,10 H 1780 1610 1440 1280 1110 940 770 610 440"
         style="fill:none;stroke:#40e0d0;stroke-width:10;stroke-linecap:butt;stroke-linejoin:miter;stroke-miterlimit:10;stroke-dasharray:none;stroke-opacity:1"
         id="path580"
         inkscape:connector-curvature="0" /><path
         d="m 3970,500 -10,220 -170,1610 -170,630 -160,310 -170,200 -170,150 -170,110 -160,80 -170,60 -170,20 -170,10 h -170 -160 l -170,10 H 1610 1440 1280 1110 940 770 610 440"
         style="fill:none;stroke:#00ffff;stroke-width:10;stroke-linecap:butt;stroke-linejoin:miter;stroke-miterlimit:10;stroke-dasharray:none;stroke-opacity:1"
         id="path606"
         inkscape:connector-curvature="0" /><path
         d="m 3870,500 -80,1160 -170,1010 -160,450 -170,250 -170,170 -170,130 -160,100 -170,90 -170,80 -170,50 -170,40 -160,10 h -170 -170 -170 -160 l -170,10 H 940 770 610 440"
         style="fill:none;stroke:#ff00ff;stroke-width:10;stroke-linecap:butt;stroke-linejoin:miter;stroke-miterlimit:10;stroke-dasharray:none;stroke-opacity:1"
         id="path616"
         inkscape:connector-curvature="0" /><path
         d="m 4100,500 -140,1790 -170,770 -170,370 -160,210 -170,140 -170,90 -170,30 -160,10 -170,10 h -170 -170 -170 -160 -170 -170 -170 -160 -170 l -170,10 H 770 610 440"
         style="fill:none;stroke:#606060;stroke-width:10;stroke-linecap:butt;stroke-linejoin:miter;stroke-miterlimit:10;stroke-dasharray:none;stroke-opacity:1"
         id="path626"
         inkscape:connector-curvature="0" /><path
         d="m 4070,500 -110,1880 -170,1030 -170,450 -160,250 -170,170 -170,120 -170,80 -160,40 -170,20 h -170 -170 -170 -160 -170 -170 -170 l -160,10 H 1110 940 770 610 440"
         style="fill:none;stroke:#969696;stroke-width:10;stroke-linecap:butt;stroke-linejoin:miter;stroke-miterlimit:10;stroke-dasharray:none;stroke-opacity:1"
         id="path636"
         inkscape:connector-curvature="0" /><path
         d="m 4080,500 -120,1800 -170,940 -170,410 -160,240 -170,170 -170,110 -170,70 -160,20 -170,10 h -170 -170 -170 -160 -170 l -170,10 H 1440 1280 1110 940 770 610 440"
         style="fill:none;stroke:#808080;stroke-width:10;stroke-linecap:butt;stroke-linejoin:miter;stroke-miterlimit:10;stroke-dasharray:none;stroke-opacity:1"
         id="path646"
         inkscape:connector-curvature="0" /><path
         d="m 4050,500 -90,1570 -170,1110 -170,470 -160,260 -170,180 -170,120 -170,90 -160,50 -170,20 h -170 -170 -170 -160 -170 l -170,10 H 1440 1280 1110 940 770 610 440"
         style="fill:none;stroke:#0000ff;stroke-width:10;stroke-linecap:butt;stroke-linejoin:miter;stroke-miterlimit:10;stroke-dasharray:none;stroke-opacity:1"
         id="path664"
         inkscape:connector-curvature="0" /><path
         d="m 4090,500 -130,1990 -170,900 -170,410 -160,240 -170,150 -170,110 -170,60 -160,30 h -170 -170 -170 l -170,10 H 1950 1780 1610 1440 1280 1110 940 770 610 440"
         style="fill:none;stroke:#ffa500;stroke-width:10;stroke-linecap:butt;stroke-linejoin:miter;stroke-miterlimit:10;stroke-dasharray:none;stroke-opacity:1"
         id="path674"
         inkscape:connector-curvature="0" /><path
         d="m 4020,500 -60,1070 -170,1130 -170,480 -160,270 -170,170 -170,130 -170,90 -160,50 -170,10 -170,10 h -170 -170 -160 -170 -170 -170 -160 -170 l -170,10 H 770 610 440"
         style="fill:none;stroke:#00ff00;stroke-width:10;stroke-linecap:butt;stroke-linejoin:miter;stroke-miterlimit:10;stroke-dasharray:none;stroke-opacity:1"
         id="path684"
         inkscape:connector-curvature="0" /><path
         d="m 4020,500 -60,1090 -170,1110 -170,470 -160,260 -170,170 -170,120 -170,90 -160,50 -170,20 h -170 -170 -170 -160 l -170,10 H 1610 1440 1280 1110 940 770 610 440"
         style="fill:none;stroke:#a52a2a;stroke-width:10;stroke-linecap:butt;stroke-linejoin:miter;stroke-miterlimit:10;stroke-dasharray:none;stroke-opacity:1"
         id="path702"
         inkscape:connector-curvature="0" /><path
         d="m 4140,500 -10,150 -170,1920 -170,680 -170,340 -160,200 -170,120 -170,70 -170,20 h -160 -170 -170 -170 l -170,10 H 1950 1780 1610 1440 1280 1110 940 770 610 440"
         style="fill:none;stroke:#ee82ee;stroke-width:10;stroke-linecap:butt;stroke-linejoin:miter;stroke-miterlimit:10;stroke-dasharray:none;stroke-opacity:1"
         id="path736"
         inkscape:connector-curvature="0" /><path
         d="m 3940,500 -150,1680 -170,720 -160,350 -170,220 -170,150 -170,120 -160,90 -170,70 -170,50 -170,10 -170,10 H 1950 1780 1610 1440 1280 1110 940 770 610 l -170,10"
         style="fill:none;stroke:#40e0d0;stroke-width:10;stroke-linecap:butt;stroke-linejoin:miter;stroke-miterlimit:10;stroke-dasharray:none;stroke-opacity:1"
         id="path754"
         inkscape:connector-curvature="0" /><path
         d="m 4090,500 -130,1750 -170,830 -170,380 -160,220 -170,150 -170,100 -170,40 -160,20 h -170 -170 -170 -170 -160 l -170,10 H 1610 1440 1280 1110 940 770 610 440"
         style="fill:none;stroke:#a0522d;stroke-width:10;stroke-linecap:butt;stroke-linejoin:miter;stroke-miterlimit:10;stroke-dasharray:none;stroke-opacity:1"
         id="path764"
         inkscape:connector-curvature="0" /><path
         d="m 4020,500 -60,1100 -170,1120 -170,470 -160,270 -170,170 -170,130 -170,80 -160,50 -170,20 h -170 -170 -170 -160 l -170,10 H 1610 1440 1280 1110 940 770 610 440"
         style="fill:none;stroke:#00ffff;stroke-width:10;stroke-linecap:butt;stroke-linejoin:miter;stroke-miterlimit:10;stroke-dasharray:none;stroke-opacity:1"
         id="path782"
         inkscape:connector-curvature="0" /><path
         d="m 4000,500 -40,760 -170,1350 -170,550 -160,290 -170,180 -170,140 -170,100 -160,70 -170,40 -170,10 h -170 l -170,10 H 1950 1780 1610 1440 1280 1110 940 770 610 440"
         style="fill:none;stroke:#969696;stroke-width:10;stroke-linecap:butt;stroke-linejoin:miter;stroke-miterlimit:10;stroke-dasharray:none;stroke-opacity:1"
         id="path808"
         inkscape:connector-curvature="0" /><path
         d="m 4070,500 -110,1680 -170,910 -170,410 -160,240 -170,150 -170,110 -170,70 -160,20 -170,10 h -170 -170 -170 -160 -170 -170 l -170,10 H 1280 1110 940 770 610 440"
         style="fill:none;stroke:#808080;stroke-width:10;stroke-linecap:butt;stroke-linejoin:miter;stroke-miterlimit:10;stroke-dasharray:none;stroke-opacity:1"
         id="path818"
         inkscape:connector-curvature="0" /><path
         d="m 3830,500 -40,690 -170,1250 -160,530 -170,280 -170,180 -170,140 -160,110 -170,100 -170,80 -170,70 -170,50 -160,30 -170,10 H 1610 1440 1280 1110 940 770 610 440"
         style="fill:none;stroke:#ff0000;stroke-width:10;stroke-linecap:butt;stroke-linejoin:miter;stroke-miterlimit:10;stroke-dasharray:none;stroke-opacity:1"
         id="path828"
         inkscape:connector-curvature="0" /><path
         d="m 3940,500 -150,1620 -170,740 -160,350 -170,210 -170,160 -170,120 -160,90 -170,80 -170,40 -170,30 h -170 -160 -170 l -170,10 H 1440 1280 1110 940 770 610 440"
         style="fill:none;stroke:#ffa500;stroke-width:10;stroke-linecap:butt;stroke-linejoin:miter;stroke-miterlimit:10;stroke-dasharray:none;stroke-opacity:1"
         id="path838"
         inkscape:connector-curvature="0" /><path
         d="m 4030,500 -70,1180 -170,1090 -170,460 -160,250 -170,180 -170,120 -170,80 -160,40 -170,20 h -170 -170 -170 -160 l -170,10 H 1610 1440 1280 1110 940 770 610 440"
         style="fill:none;stroke:#a52a2a;stroke-width:10;stroke-linecap:butt;stroke-linejoin:miter;stroke-miterlimit:10;stroke-dasharray:none;stroke-opacity:1"
         id="path840"
         inkscape:connector-curvature="0" /><path
         d="m 4010,500 -50,910 -170,1230 -170,510 -160,270 -170,180 -170,140 -170,90 -160,60 -170,30 h -170 l -170,10 H 2110 1950 1780 1610 1440 1280 1110 940 770 610 440"
         style="fill:none;stroke:#f0e68c;stroke-width:10;stroke-linecap:butt;stroke-linejoin:miter;stroke-miterlimit:10;stroke-dasharray:none;stroke-opacity:1"
         id="path842"
         inkscape:connector-curvature="0" /><path
         d="m 4060,500 -100,1470 -170,910 -170,400 -160,240 -170,150 -170,110 -170,50 -160,20 -170,10 h -170 -170 -170 -160 -170 l -170,10 H 1440 1280 1110 940 770 610 440"
         style="fill:none;stroke:#ee82ee;stroke-width:10;stroke-linecap:butt;stroke-linejoin:miter;stroke-miterlimit:10;stroke-dasharray:none;stroke-opacity:1"
         id="path844"
         inkscape:connector-curvature="0" /><path
         d="m 3970,500 -10,160 -170,1680 -170,650 -160,320 -170,200 -170,150 -170,110 -160,90 -170,60 -170,30 -170,10 -170,10 H 1950 1780 1610 1440 1280 1110 940 770 610 440"
         style="fill:none;stroke:#b03060;stroke-width:10;stroke-linecap:butt;stroke-linejoin:miter;stroke-miterlimit:10;stroke-dasharray:none;stroke-opacity:1"
         id="path846"
         inkscape:connector-curvature="0" /><path
         d="m 3980,500 -20,320 -170,1140 -170,480 -160,260 -170,180 -170,120 -170,90 -160,60 -170,20 h -170 l -170,10 H 2110 1950 1780 1610 1440 1280 1110 940 770 610 440"
         style="fill:none;stroke:#40e0d0;stroke-width:10;stroke-linecap:butt;stroke-linejoin:miter;stroke-miterlimit:10;stroke-dasharray:none;stroke-opacity:1"
         id="path848"
         inkscape:connector-curvature="0" /><path
         d="m 4010,500 -50,950 -170,1180 -170,490 -160,270 -170,180 -170,130 -170,90 -160,50 -170,20 -170,10 h -170 -170 -160 -170 -170 -170 -160 -170 l -170,10 H 770 610 440"
         style="fill:none;stroke:#a0522d;stroke-width:10;stroke-linecap:butt;stroke-linejoin:miter;stroke-miterlimit:10;stroke-dasharray:none;stroke-opacity:1"
         id="path850"
         inkscape:connector-curvature="0" /><path
         d="m 4070,500 -110,1430 -170,780 -170,370 -160,210 -170,140 -170,90 -170,40 -160,10 h -170 -170 -170 -170 -160 l -170,10 H 1610 1440 1280 1110 940 770 610 440"
         style="fill:none;stroke:#ff7f50;stroke-width:10;stroke-linecap:butt;stroke-linejoin:miter;stroke-miterlimit:10;stroke-dasharray:none;stroke-opacity:1"
         id="path852"
         inkscape:connector-curvature="0" /><path
         d="m 4010,500 -50,890 -170,1240 -170,510 -160,280 -170,180 -170,130 -170,90 -160,60 -170,30 h -170 l -170,10 H 2110 1950 1780 1610 1440 1280 1110 940 770 610 l -170,10"
         style="fill:none;stroke:#00ffff;stroke-width:10;stroke-linecap:butt;stroke-linejoin:miter;stroke-miterlimit:10;stroke-dasharray:none;stroke-opacity:1"
         id="path854"
         inkscape:connector-curvature="0" /><path
         d="m 4040,500 -80,1360 -170,1010 -170,430 -160,250 -170,170 -170,110 -170,80 -160,30 -170,10 h -170 l -170,10 H 2110 1950 1780 1610 1440 1280 1110 940 770 610 440"
         style="fill:none;stroke:#ff00ff;stroke-width:10;stroke-linecap:butt;stroke-linejoin:miter;stroke-miterlimit:10;stroke-dasharray:none;stroke-opacity:1"
         id="path856"
         inkscape:connector-curvature="0" /><path
         d="m 3980,500 -20,450 -170,1460 -170,580 -160,300 -170,190 -170,140 -170,110 -160,80 -170,50 -170,20 h -170 -170 -160 -170 -170 l -170,10 H 1280 1110 940 770 610 440"
         style="fill:none;stroke:#969696;stroke-width:10;stroke-linecap:butt;stroke-linejoin:miter;stroke-miterlimit:10;stroke-dasharray:none;stroke-opacity:1"
         id="path858"
         inkscape:connector-curvature="0" /><path
         d="m 3990,500 -30,680 -170,1450 -170,580 -160,290 -170,200 -170,140 -170,110 -160,70 -170,50 -170,20 h -170 -170 -160 -170 -170 -170 l -160,10 H 1110 940 770 610 440"
         style="fill:none;stroke:#808080;stroke-width:10;stroke-linecap:butt;stroke-linejoin:miter;stroke-miterlimit:10;stroke-dasharray:none;stroke-opacity:1"
         id="path860"
         inkscape:connector-curvature="0" /><path
         d="m 3920,500 -130,1670 -170,830 -160,380 -170,230 -170,160 -170,130 -160,100 -170,80 -170,60 -170,30 -170,20 H 1950 1780 1610 1440 1280 1110 940 l -170,10 H 610 440"
         style="fill:none;stroke:#ff0000;stroke-width:10;stroke-linecap:butt;stroke-linejoin:miter;stroke-miterlimit:10;stroke-dasharray:none;stroke-opacity:1"
         id="path862"
         inkscape:connector-curvature="0" /><path
         d="m 3850,500 -60,960 -170,1120 -160,480 -170,270 -170,170 -170,140 -160,110 -170,90 -170,80 -170,60 -170,40 -160,20 h -170 l -170,10 H 1440 1280 1110 940 770 610 440"
         style="fill:none;stroke:#ffc0cb;stroke-width:10;stroke-linecap:butt;stroke-linejoin:miter;stroke-miterlimit:10;stroke-dasharray:none;stroke-opacity:1"
         id="path864"
         inkscape:connector-curvature="0" /></g></g></svg>