<?xml version="1.0" encoding="UTF-8" standalone="no"?>
<!-- Created with Inkscape (http://www.inkscape.org/) -->

<svg
   xmlns:dc="http://purl.org/dc/elements/1.1/"
   xmlns:cc="http://creativecommons.org/ns#"
   xmlns:rdf="http://www.w3.org/1999/02/22-rdf-syntax-ns#"
   xmlns:svg="http://www.w3.org/2000/svg"
   xmlns="http://www.w3.org/2000/svg"
   xmlns:sodipodi="http://sodipodi.sourceforge.net/DTD/sodipodi-0.dtd"
   xmlns:inkscape="http://www.inkscape.org/namespaces/inkscape"
   id="svg2"
   version="1.1"
   inkscape:version="0.91 r13725"
   xml:space="preserve"
   width="436.44125"
   height="304.07877"
   viewBox="0 0 436.44125 304.07877"
   sodipodi:docname="source_degeneration_resistors_negative_feedback_simulation_dc_analysis_zoom.svg"><metadata
     id="metadata8"><rdf:RDF><cc:Work
         rdf:about=""><dc:format>image/svg+xml</dc:format><dc:type
           rdf:resource="http://purl.org/dc/dcmitype/StillImage" /><dc:title></dc:title></cc:Work></rdf:RDF></metadata><defs
     id="defs6" /><sodipodi:namedview
     pagecolor="#ffffff"
     bordercolor="#666666"
     borderopacity="1"
     objecttolerance="10"
     gridtolerance="10"
     guidetolerance="10"
     inkscape:pageopacity="1"
     inkscape:pageshadow="2"
     inkscape:window-width="1920"
     inkscape:window-height="1057"
     id="namedview4"
     showgrid="false"
     fit-margin-top="0"
     fit-margin-left="0"
     fit-margin-right="0"
     fit-margin-bottom="0"
     inkscape:zoom="0.74920635"
     inkscape:cx="80.125699"
     inkscape:cy="156.1575"
     inkscape:window-x="1280"
     inkscape:window-y="0"
     inkscape:window-maximized="1"
     inkscape:current-layer="g10" /><g
     id="g10"
     inkscape:groupmode="layer"
     inkscape:label="ink_ext_XXXXXX"
     transform="matrix(1.25,0,0,-1.25,-3.39125,305.42125)"><g
       id="g12"
       transform="scale(0.1,0.1)"><path
         d="m 259,319 3214.5,0"
         style="fill:none;stroke:#000000;stroke-width:1.25;stroke-linecap:butt;stroke-linejoin:miter;stroke-miterlimit:3.79999995;stroke-dasharray:5, 10;stroke-dashoffset:0;stroke-opacity:1"
         id="path14"
         inkscape:connector-curvature="0" /><path
         d="m 259,319 31.5,0 m 3183,0 -31.5,0"
         style="fill:none;stroke:#000000;stroke-width:5;stroke-linecap:butt;stroke-linejoin:miter;stroke-miterlimit:3.79999995;stroke-dasharray:none;stroke-opacity:1"
         id="path16"
         inkscape:connector-curvature="0" /><g
         id="g18"
         transform="scale(10,10)"><text
           transform="matrix(1,0,0,-1,13.9164,29.6)"
           style="font-variant:normal;font-weight:normal;font-size:7px;font-family:Helvetica;-inkscape-font-specification:Helvetica;writing-mode:lr-tb;fill:#000000;fill-opacity:1;fill-rule:nonzero;stroke:none"
           id="text20"><tspan
             x="0 3.892"
             y="0"
             sodipodi:role="line"
             id="tspan22">46</tspan></text>
</g><path
         d="m 259,635 3214.5,0"
         style="fill:none;stroke:#000000;stroke-width:1.25;stroke-linecap:butt;stroke-linejoin:miter;stroke-miterlimit:3.79999995;stroke-dasharray:5, 10;stroke-dashoffset:0;stroke-opacity:1"
         id="path24"
         inkscape:connector-curvature="0" /><path
         d="m 259,635 31.5,0 m 3183,0 -31.5,0"
         style="fill:none;stroke:#000000;stroke-width:5;stroke-linecap:butt;stroke-linejoin:miter;stroke-miterlimit:3.79999995;stroke-dasharray:none;stroke-opacity:1"
         id="path26"
         inkscape:connector-curvature="0" /><g
         id="g28"
         transform="scale(10,10)"><text
           transform="matrix(1,0,0,-1,13.9164,61.2)"
           style="font-variant:normal;font-weight:normal;font-size:7px;font-family:Helvetica;-inkscape-font-specification:Helvetica;writing-mode:lr-tb;fill:#000000;fill-opacity:1;fill-rule:nonzero;stroke:none"
           id="text30"><tspan
             x="0 3.892"
             y="0"
             sodipodi:role="line"
             id="tspan32">47</tspan></text>
</g><path
         d="m 259,951 3214.5,0"
         style="fill:none;stroke:#000000;stroke-width:1.25;stroke-linecap:butt;stroke-linejoin:miter;stroke-miterlimit:3.79999995;stroke-dasharray:5, 10;stroke-dashoffset:0;stroke-opacity:1"
         id="path34"
         inkscape:connector-curvature="0" /><path
         d="m 259,951 31.5,0 m 3183,0 -31.5,0"
         style="fill:none;stroke:#000000;stroke-width:5;stroke-linecap:butt;stroke-linejoin:miter;stroke-miterlimit:3.79999995;stroke-dasharray:none;stroke-opacity:1"
         id="path36"
         inkscape:connector-curvature="0" /><g
         id="g38"
         transform="scale(10,10)"><text
           transform="matrix(1,0,0,-1,13.9164,92.8)"
           style="font-variant:normal;font-weight:normal;font-size:7px;font-family:Helvetica;-inkscape-font-specification:Helvetica;writing-mode:lr-tb;fill:#000000;fill-opacity:1;fill-rule:nonzero;stroke:none"
           id="text40"><tspan
             x="0 3.892"
             y="0"
             sodipodi:role="line"
             id="tspan42">48</tspan></text>
</g><path
         d="m 259,1267 3214.5,0"
         style="fill:none;stroke:#000000;stroke-width:1.25;stroke-linecap:butt;stroke-linejoin:miter;stroke-miterlimit:3.79999995;stroke-dasharray:5, 10;stroke-dashoffset:0;stroke-opacity:1"
         id="path44"
         inkscape:connector-curvature="0" /><path
         d="m 259,1267 31.5,0 m 3183,0 -31.5,0"
         style="fill:none;stroke:#000000;stroke-width:5;stroke-linecap:butt;stroke-linejoin:miter;stroke-miterlimit:3.79999995;stroke-dasharray:none;stroke-opacity:1"
         id="path46"
         inkscape:connector-curvature="0" /><g
         id="g48"
         transform="scale(10,10)"><text
           transform="matrix(1,0,0,-1,13.9164,124.4)"
           style="font-variant:normal;font-weight:normal;font-size:7px;font-family:Helvetica;-inkscape-font-specification:Helvetica;writing-mode:lr-tb;fill:#000000;fill-opacity:1;fill-rule:nonzero;stroke:none"
           id="text50"><tspan
             x="0 3.892"
             y="0"
             sodipodi:role="line"
             id="tspan52">49</tspan></text>
</g><path
         d="m 259,1582.5 3214.5,0"
         style="fill:none;stroke:#000000;stroke-width:1.25;stroke-linecap:butt;stroke-linejoin:miter;stroke-miterlimit:3.79999995;stroke-dasharray:5, 10;stroke-dashoffset:0;stroke-opacity:1"
         id="path54"
         inkscape:connector-curvature="0" /><path
         d="m 259,1582.5 31.5,0 m 3183,0 -31.5,0"
         style="fill:none;stroke:#000000;stroke-width:5;stroke-linecap:butt;stroke-linejoin:miter;stroke-miterlimit:3.79999995;stroke-dasharray:none;stroke-opacity:1"
         id="path56"
         inkscape:connector-curvature="0" /><g
         id="g58"
         transform="scale(10,10)"><text
           transform="matrix(1,0,0,-1,13.9164,155.95)"
           style="font-variant:normal;font-weight:normal;font-size:7px;font-family:Helvetica;-inkscape-font-specification:Helvetica;writing-mode:lr-tb;fill:#000000;fill-opacity:1;fill-rule:nonzero;stroke:none"
           id="text60"><tspan
             x="0 3.892"
             y="0"
             sodipodi:role="line"
             id="tspan62">50</tspan></text>
</g><path
         d="m 259,1898.5 3214.5,0"
         style="fill:none;stroke:#000000;stroke-width:1.25;stroke-linecap:butt;stroke-linejoin:miter;stroke-miterlimit:3.79999995;stroke-dasharray:5, 10;stroke-dashoffset:0;stroke-opacity:1"
         id="path64"
         inkscape:connector-curvature="0" /><path
         d="m 259,1898.5 31.5,0 m 3183,0 -31.5,0"
         style="fill:none;stroke:#000000;stroke-width:5;stroke-linecap:butt;stroke-linejoin:miter;stroke-miterlimit:3.79999995;stroke-dasharray:none;stroke-opacity:1"
         id="path66"
         inkscape:connector-curvature="0" /><g
         id="g68"
         transform="scale(10,10)"><text
           transform="matrix(1,0,0,-1,13.9164,187.55)"
           style="font-variant:normal;font-weight:normal;font-size:7px;font-family:Helvetica;-inkscape-font-specification:Helvetica;writing-mode:lr-tb;fill:#000000;fill-opacity:1;fill-rule:nonzero;stroke:none"
           id="text70"><tspan
             x="0 3.892"
             y="0"
             sodipodi:role="line"
             id="tspan72">51</tspan></text>
</g><path
         d="m 259,2214.5 2133,0 m 1039.5,0 42,0"
         style="fill:none;stroke:#000000;stroke-width:1.25;stroke-linecap:butt;stroke-linejoin:miter;stroke-miterlimit:3.79999995;stroke-dasharray:5, 10;stroke-dashoffset:0;stroke-opacity:1"
         id="path74"
         inkscape:connector-curvature="0" /><path
         d="m 259,2214.5 31.5,0 m 3183,0 -31.5,0"
         style="fill:none;stroke:#000000;stroke-width:5;stroke-linecap:butt;stroke-linejoin:miter;stroke-miterlimit:3.79999995;stroke-dasharray:none;stroke-opacity:1"
         id="path76"
         inkscape:connector-curvature="0" /><g
         id="g78"
         transform="scale(10,10)"><text
           transform="matrix(1,0,0,-1,13.9164,219.15)"
           style="font-variant:normal;font-weight:normal;font-size:7px;font-family:Helvetica;-inkscape-font-specification:Helvetica;writing-mode:lr-tb;fill:#000000;fill-opacity:1;fill-rule:nonzero;stroke:none"
           id="text80"><tspan
             x="0 3.892"
             y="0"
             sodipodi:role="line"
             id="tspan82">52</tspan></text>
</g><path
         d="m 259,224 0,2085.5"
         style="fill:none;stroke:#000000;stroke-width:1.25;stroke-linecap:butt;stroke-linejoin:miter;stroke-miterlimit:3.79999995;stroke-dasharray:5, 10;stroke-dashoffset:0;stroke-opacity:1"
         id="path84"
         inkscape:connector-curvature="0" /><path
         d="m 259,224 0,31.5 m 0,2054 0,-31.5"
         style="fill:none;stroke:#000000;stroke-width:5;stroke-linecap:butt;stroke-linejoin:miter;stroke-miterlimit:3.79999995;stroke-dasharray:none;stroke-opacity:1"
         id="path86"
         inkscape:connector-curvature="0" /><g
         id="g88"
         transform="scale(10,10)"><text
           transform="matrix(1,0,0,-1,21.0355,13.1)"
           style="font-variant:normal;font-weight:normal;font-size:7px;font-family:Helvetica;-inkscape-font-specification:Helvetica;writing-mode:lr-tb;fill:#000000;fill-opacity:1;fill-rule:nonzero;stroke:none"
           id="text90"><tspan
             x="0 3.892 5.8379998"
             y="0"
             sodipodi:role="line"
             id="tspan92">0.2</tspan></text>
</g><path
         d="m 551,224 0,2085.5"
         style="fill:none;stroke:#000000;stroke-width:1.25;stroke-linecap:butt;stroke-linejoin:miter;stroke-miterlimit:3.79999995;stroke-dasharray:5, 10;stroke-dashoffset:0;stroke-opacity:1"
         id="path94"
         inkscape:connector-curvature="0" /><path
         d="m 551,224 0,31.5 m 0,2054 0,-31.5"
         style="fill:none;stroke:#000000;stroke-width:5;stroke-linecap:butt;stroke-linejoin:miter;stroke-miterlimit:3.79999995;stroke-dasharray:none;stroke-opacity:1"
         id="path96"
         inkscape:connector-curvature="0" /><g
         id="g98"
         transform="scale(10,10)"><text
           transform="matrix(1,0,0,-1,50.2355,13.1)"
           style="font-variant:normal;font-weight:normal;font-size:7px;font-family:Helvetica;-inkscape-font-specification:Helvetica;writing-mode:lr-tb;fill:#000000;fill-opacity:1;fill-rule:nonzero;stroke:none"
           id="text100"><tspan
             x="0 3.892 5.8379998"
             y="0"
             sodipodi:role="line"
             id="tspan102">0.3</tspan></text>
</g><path
         d="m 843.5,224 0,2085.5"
         style="fill:none;stroke:#000000;stroke-width:1.25;stroke-linecap:butt;stroke-linejoin:miter;stroke-miterlimit:3.79999995;stroke-dasharray:5, 10;stroke-dashoffset:0;stroke-opacity:1"
         id="path104"
         inkscape:connector-curvature="0" /><path
         d="m 843.5,224 0,31.5 m 0,2054 0,-31.5"
         style="fill:none;stroke:#000000;stroke-width:5;stroke-linecap:butt;stroke-linejoin:miter;stroke-miterlimit:3.79999995;stroke-dasharray:none;stroke-opacity:1"
         id="path106"
         inkscape:connector-curvature="0" /><g
         id="g108"
         transform="scale(10,10)"><text
           transform="matrix(1,0,0,-1,79.4855,13.1)"
           style="font-variant:normal;font-weight:normal;font-size:7px;font-family:Helvetica;-inkscape-font-specification:Helvetica;writing-mode:lr-tb;fill:#000000;fill-opacity:1;fill-rule:nonzero;stroke:none"
           id="text110"><tspan
             x="0 3.892 5.8379998"
             y="0"
             sodipodi:role="line"
             id="tspan112">0.4</tspan></text>
</g><path
         d="m 1135.5,224 0,2085.5"
         style="fill:none;stroke:#000000;stroke-width:1.25;stroke-linecap:butt;stroke-linejoin:miter;stroke-miterlimit:3.79999995;stroke-dasharray:5, 10;stroke-dashoffset:0;stroke-opacity:1"
         id="path114"
         inkscape:connector-curvature="0" /><path
         d="m 1135.5,224 0,31.5 m 0,2054 0,-31.5"
         style="fill:none;stroke:#000000;stroke-width:5;stroke-linecap:butt;stroke-linejoin:miter;stroke-miterlimit:3.79999995;stroke-dasharray:none;stroke-opacity:1"
         id="path116"
         inkscape:connector-curvature="0" /><g
         id="g118"
         transform="scale(10,10)"><text
           transform="matrix(1,0,0,-1,108.686,13.1)"
           style="font-variant:normal;font-weight:normal;font-size:7px;font-family:Helvetica;-inkscape-font-specification:Helvetica;writing-mode:lr-tb;fill:#000000;fill-opacity:1;fill-rule:nonzero;stroke:none"
           id="text120"><tspan
             x="0 3.892 5.8379998"
             y="0"
             sodipodi:role="line"
             id="tspan122">0.5</tspan></text>
</g><path
         d="m 1428,224 0,2085.5"
         style="fill:none;stroke:#000000;stroke-width:1.25;stroke-linecap:butt;stroke-linejoin:miter;stroke-miterlimit:3.79999995;stroke-dasharray:5, 10;stroke-dashoffset:0;stroke-opacity:1"
         id="path124"
         inkscape:connector-curvature="0" /><path
         d="m 1428,224 0,31.5 m 0,2054 0,-31.5"
         style="fill:none;stroke:#000000;stroke-width:5;stroke-linecap:butt;stroke-linejoin:miter;stroke-miterlimit:3.79999995;stroke-dasharray:none;stroke-opacity:1"
         id="path126"
         inkscape:connector-curvature="0" /><g
         id="g128"
         transform="scale(10,10)"><text
           transform="matrix(1,0,0,-1,137.936,13.1)"
           style="font-variant:normal;font-weight:normal;font-size:7px;font-family:Helvetica;-inkscape-font-specification:Helvetica;writing-mode:lr-tb;fill:#000000;fill-opacity:1;fill-rule:nonzero;stroke:none"
           id="text130"><tspan
             x="0 3.892 5.8379998"
             y="0"
             sodipodi:role="line"
             id="tspan132">0.6</tspan></text>
</g><path
         d="m 1720,224 0,2085.5"
         style="fill:none;stroke:#000000;stroke-width:1.25;stroke-linecap:butt;stroke-linejoin:miter;stroke-miterlimit:3.79999995;stroke-dasharray:5, 10;stroke-dashoffset:0;stroke-opacity:1"
         id="path134"
         inkscape:connector-curvature="0" /><path
         d="m 1720,224 0,31.5 m 0,2054 0,-31.5"
         style="fill:none;stroke:#000000;stroke-width:5;stroke-linecap:butt;stroke-linejoin:miter;stroke-miterlimit:3.79999995;stroke-dasharray:none;stroke-opacity:1"
         id="path136"
         inkscape:connector-curvature="0" /><g
         id="g138"
         transform="scale(10,10)"><text
           transform="matrix(1,0,0,-1,167.136,13.1)"
           style="font-variant:normal;font-weight:normal;font-size:7px;font-family:Helvetica;-inkscape-font-specification:Helvetica;writing-mode:lr-tb;fill:#000000;fill-opacity:1;fill-rule:nonzero;stroke:none"
           id="text140"><tspan
             x="0 3.892 5.8379998"
             y="0"
             sodipodi:role="line"
             id="tspan142">0.7</tspan></text>
</g><path
         d="m 2012.5,224 0,2085.5"
         style="fill:none;stroke:#000000;stroke-width:1.25;stroke-linecap:butt;stroke-linejoin:miter;stroke-miterlimit:3.79999995;stroke-dasharray:5, 10;stroke-dashoffset:0;stroke-opacity:1"
         id="path144"
         inkscape:connector-curvature="0" /><path
         d="m 2012.5,224 0,31.5 m 0,2054 0,-31.5"
         style="fill:none;stroke:#000000;stroke-width:5;stroke-linecap:butt;stroke-linejoin:miter;stroke-miterlimit:3.79999995;stroke-dasharray:none;stroke-opacity:1"
         id="path146"
         inkscape:connector-curvature="0" /><g
         id="g148"
         transform="scale(10,10)"><text
           transform="matrix(1,0,0,-1,196.386,13.1)"
           style="font-variant:normal;font-weight:normal;font-size:7px;font-family:Helvetica;-inkscape-font-specification:Helvetica;writing-mode:lr-tb;fill:#000000;fill-opacity:1;fill-rule:nonzero;stroke:none"
           id="text150"><tspan
             x="0 3.892 5.8379998"
             y="0"
             sodipodi:role="line"
             id="tspan152">0.8</tspan></text>
</g><path
         d="m 2304.5,224 0,2085.5"
         style="fill:none;stroke:#000000;stroke-width:1.25;stroke-linecap:butt;stroke-linejoin:miter;stroke-miterlimit:3.79999995;stroke-dasharray:5, 10;stroke-dashoffset:0;stroke-opacity:1"
         id="path154"
         inkscape:connector-curvature="0" /><path
         d="m 2304.5,224 0,31.5 m 0,2054 0,-31.5"
         style="fill:none;stroke:#000000;stroke-width:5;stroke-linecap:butt;stroke-linejoin:miter;stroke-miterlimit:3.79999995;stroke-dasharray:none;stroke-opacity:1"
         id="path156"
         inkscape:connector-curvature="0" /><g
         id="g158"
         transform="scale(10,10)"><text
           transform="matrix(1,0,0,-1,225.586,13.1)"
           style="font-variant:normal;font-weight:normal;font-size:7px;font-family:Helvetica;-inkscape-font-specification:Helvetica;writing-mode:lr-tb;fill:#000000;fill-opacity:1;fill-rule:nonzero;stroke:none"
           id="text160"><tspan
             x="0 3.892 5.8379998"
             y="0"
             sodipodi:role="line"
             id="tspan162">0.9</tspan></text>
</g><path
         d="m 2597,224 0,1984 m 0,70 0,31.5"
         style="fill:none;stroke:#000000;stroke-width:1.25;stroke-linecap:butt;stroke-linejoin:miter;stroke-miterlimit:3.79999995;stroke-dasharray:5, 10;stroke-dashoffset:0;stroke-opacity:1"
         id="path164"
         inkscape:connector-curvature="0" /><path
         d="m 2597,224 0,31.5 m 0,2054 0,-31.5"
         style="fill:none;stroke:#000000;stroke-width:5;stroke-linecap:butt;stroke-linejoin:miter;stroke-miterlimit:3.79999995;stroke-dasharray:none;stroke-opacity:1"
         id="path166"
         inkscape:connector-curvature="0" /><g
         id="g168"
         transform="scale(10,10)"><text
           transform="matrix(1,0,0,-1,257.754,13.1)"
           style="font-variant:normal;font-weight:normal;font-size:7px;font-family:Helvetica;-inkscape-font-specification:Helvetica;writing-mode:lr-tb;fill:#000000;fill-opacity:1;fill-rule:nonzero;stroke:none"
           id="text170"><tspan
             x="0"
             y="0"
             id="tspan172">1</tspan></text>
</g><path
         d="m 2889,224 0,1984 m 0,70 0,31.5"
         style="fill:none;stroke:#000000;stroke-width:1.25;stroke-linecap:butt;stroke-linejoin:miter;stroke-miterlimit:3.79999995;stroke-dasharray:5, 10;stroke-dashoffset:0;stroke-opacity:1"
         id="path174"
         inkscape:connector-curvature="0" /><path
         d="m 2889,224 0,31.5 m 0,2054 0,-31.5"
         style="fill:none;stroke:#000000;stroke-width:5;stroke-linecap:butt;stroke-linejoin:miter;stroke-miterlimit:3.79999995;stroke-dasharray:none;stroke-opacity:1"
         id="path176"
         inkscape:connector-curvature="0" /><g
         id="g178"
         transform="scale(10,10)"><text
           transform="matrix(1,0,0,-1,284.036,13.1)"
           style="font-variant:normal;font-weight:normal;font-size:7px;font-family:Helvetica;-inkscape-font-specification:Helvetica;writing-mode:lr-tb;fill:#000000;fill-opacity:1;fill-rule:nonzero;stroke:none"
           id="text180"><tspan
             x="0 3.892 5.8379998"
             y="0"
             sodipodi:role="line"
             id="tspan182">1.1</tspan></text>
</g><path
         d="m 3181.5,224 0,1984 m 0,70 0,31.5"
         style="fill:none;stroke:#000000;stroke-width:1.25;stroke-linecap:butt;stroke-linejoin:miter;stroke-miterlimit:3.79999995;stroke-dasharray:5, 10;stroke-dashoffset:0;stroke-opacity:1"
         id="path184"
         inkscape:connector-curvature="0" /><path
         d="m 3181.5,224 0,31.5 m 0,2054 0,-31.5"
         style="fill:none;stroke:#000000;stroke-width:5;stroke-linecap:butt;stroke-linejoin:miter;stroke-miterlimit:3.79999995;stroke-dasharray:none;stroke-opacity:1"
         id="path186"
         inkscape:connector-curvature="0" /><g
         id="g188"
         transform="scale(10,10)"><text
           transform="matrix(1,0,0,-1,313.286,13.1)"
           style="font-variant:normal;font-weight:normal;font-size:7px;font-family:Helvetica;-inkscape-font-specification:Helvetica;writing-mode:lr-tb;fill:#000000;fill-opacity:1;fill-rule:nonzero;stroke:none"
           id="text190"><tspan
             x="0 3.892 5.8379998"
             y="0"
             sodipodi:role="line"
             id="tspan192">1.2</tspan></text>
</g><path
         d="m 3473.5,224 0,2085.5"
         style="fill:none;stroke:#000000;stroke-width:1.25;stroke-linecap:butt;stroke-linejoin:miter;stroke-miterlimit:3.79999995;stroke-dasharray:5, 10;stroke-dashoffset:0;stroke-opacity:1"
         id="path194"
         inkscape:connector-curvature="0" /><path
         d="m 3473.5,224 0,31.5 m 0,2054 0,-31.5"
         style="fill:none;stroke:#000000;stroke-width:5;stroke-linecap:butt;stroke-linejoin:miter;stroke-miterlimit:3.79999995;stroke-dasharray:none;stroke-opacity:1"
         id="path196"
         inkscape:connector-curvature="0" /><g
         id="g198"
         transform="scale(10,10)"><text
           transform="matrix(1,0,0,-1,342.486,13.1)"
           style="font-variant:normal;font-weight:normal;font-size:7px;font-family:Helvetica;-inkscape-font-specification:Helvetica;writing-mode:lr-tb;fill:#000000;fill-opacity:1;fill-rule:nonzero;stroke:none"
           id="text200"><tspan
             x="0 3.892 5.8379998"
             y="0"
             sodipodi:role="line"
             id="tspan202">1.3</tspan></text>
</g><path
         d="m 259,2309.5 0,-2085.5 3214.5,0 0,2085.5 -3214.5,0 z"
         style="fill:none;stroke:#000000;stroke-width:5;stroke-linecap:butt;stroke-linejoin:miter;stroke-miterlimit:3.79999995;stroke-dasharray:none;stroke-opacity:1"
         id="path204"
         inkscape:connector-curvature="0" /><g
         id="g206"
         transform="scale(10,10)"><text
           transform="matrix(0,1,1,0,7.9,86.5848)"
           style="font-variant:normal;font-weight:normal;font-size:7px;font-family:Helvetica;-inkscape-font-specification:Helvetica;writing-mode:lr-tb;fill:#000000;fill-opacity:1;fill-rule:nonzero;stroke:none"
           id="text208"><tspan
             x="0 5.0539999 7.3850002 11.277 12.831 16.723 18.669001 23.723 27.615 29.945999 32.277 36.168999 40.061001 42.007 43.952999 49.398998 53.291 55.237 59.129002 63.021 64.967003 66.913002 69.244003 73.136002 77.805"
             y="0"
             sodipodi:role="line"
             id="tspan210">Drain Current Output (uA)</tspan></text>
<text
           transform="matrix(1,0,0,-1,159.76,2.6)"
           style="font-variant:normal;font-weight:normal;font-size:7px;font-family:Helvetica;-inkscape-font-specification:Helvetica;writing-mode:lr-tb;fill:#000000;fill-opacity:1;fill-rule:nonzero;stroke:none"
           id="text212"><tspan
             x="0 5.0539999 7.3850002 11.277 12.831 16.723 18.669001 23.337999 27.23 28.784 30.73 34.622002 38.514 42.405998 44.352001 46.682999 51.352001"
             y="0"
             sodipodi:role="line"
             id="tspan214">Drain Voltage (V)</tspan><tspan
             x="-65.541 -60.487 -55.432999 -53.487 -48.818001 -44.925999 -41.034 -39.48 -35.98 -32.48 -30.926001 -27.426001 -25.48 -23.534 -18.48 -16.149 -12.257 -10.703 -6.8109999 -4.8649998 0.189 4.0809999 6.4120002 8.743 12.635 16.527 18.473 20.419001 25.865 29.757 31.702999 35.595001 39.487 41.432999 43.379002 46.879002 50.379002 52.325001 57.379002 59.709999 63.602001 65.155998 69.047997 70.994003 75.663002 79.555 81.109001 83.055 86.946999 90.838997 94.731003 96.677002 99.008003 103.285 107.177 111.069 116.9"
             y="-236.55"
             sodipodi:role="line"
             id="tspan216">DC Analysis: Drain Current Output vs Drain Voltage (Zoom)</tspan><tspan
             x="92.987999 95.319 98.819 102.711 106.603 110.495 112.826 116.718 120.61 124.11 128.002 130.72501 133.056 136.948 140.84 144.92799 148.82001 152.71201"
             y="-219.39999"
             sodipodi:role="line"
             id="tspan218">(v2#branch*-1e+06)</tspan></text>
</g><path
         d="m 3190,2243 199.5,0 m -2849,-2019 10.5,89.5 146.5,714 146,313 146,114 146,45 146.5,23.5 146,15 146,11 146,9.5 146.5,8 146,7.5 146,7 146,7 146,6.5 146.5,6 146,6 146,6 146,5.5 146.5,5.5 146,5.5 146,5.5"
         style="fill:none;stroke:#ff0000;stroke-width:2.5;stroke-linecap:butt;stroke-linejoin:miter;stroke-miterlimit:3.79999995;stroke-dasharray:none;stroke-opacity:1"
         id="path220"
         inkscape:connector-curvature="0" /><path
         d="m 259,2309.5 0,-2085.5 3214.5,0 0,2085.5 -3214.5,0 z"
         style="fill:none;stroke:#000000;stroke-width:5;stroke-linecap:butt;stroke-linejoin:miter;stroke-miterlimit:3.79999995;stroke-dasharray:none;stroke-opacity:1"
         id="path222"
         inkscape:connector-curvature="0" /></g></g></svg>