<?xml version="1.0" encoding="UTF-8" standalone="no"?>
<!-- Created with Inkscape (http://www.inkscape.org/) -->

<svg
   xmlns:dc="http://purl.org/dc/elements/1.1/"
   xmlns:cc="http://creativecommons.org/ns#"
   xmlns:rdf="http://www.w3.org/1999/02/22-rdf-syntax-ns#"
   xmlns:svg="http://www.w3.org/2000/svg"
   xmlns="http://www.w3.org/2000/svg"
   xmlns:sodipodi="http://sodipodi.sourceforge.net/DTD/sodipodi-0.dtd"
   xmlns:inkscape="http://www.inkscape.org/namespaces/inkscape"
   id="svg2"
   version="1.1"
   inkscape:version="0.91 r13725"
   xml:space="preserve"
   width="431.10876"
   height="304.07877"
   viewBox="0 0 431.10876 304.07877"
   sodipodi:docname="simulation_dc_analysis.svg"><metadata
     id="metadata8"><rdf:RDF><cc:Work
         rdf:about=""><dc:format>image/svg+xml</dc:format><dc:type
           rdf:resource="http://purl.org/dc/dcmitype/StillImage" /><dc:title></dc:title></cc:Work></rdf:RDF></metadata><defs
     id="defs6" /><sodipodi:namedview
     pagecolor="#ffffff"
     bordercolor="#666666"
     borderopacity="1"
     objecttolerance="10"
     gridtolerance="10"
     guidetolerance="10"
     inkscape:pageopacity="1"
     inkscape:pageshadow="2"
     inkscape:window-width="1920"
     inkscape:window-height="1057"
     id="namedview4"
     showgrid="false"
     fit-margin-top="0"
     fit-margin-left="0"
     fit-margin-right="0"
     fit-margin-bottom="0"
     inkscape:zoom="1.4984127"
     inkscape:cx="183.66245"
     inkscape:cy="163.07595"
     inkscape:window-x="1280"
     inkscape:window-y="0"
     inkscape:window-maximized="1"
     inkscape:current-layer="g12" /><g
     id="g10"
     inkscape:groupmode="layer"
     inkscape:label="ink_ext_XXXXXX"
     transform="matrix(1.25,0,0,-1.25,-3.39125,305.42125)"><g
       id="g12"
       transform="scale(0.1,0.1)"><path
         d="m 259,319 3214.5,0"
         style="fill:none;stroke:#000000;stroke-width:1.25;stroke-linecap:butt;stroke-linejoin:miter;stroke-miterlimit:3.79999995;stroke-dasharray:5, 10;stroke-dashoffset:0;stroke-opacity:1"
         id="path14"
         inkscape:connector-curvature="0" /><path
         d="m 259,319 31.5,0 m 3183,0 -31.5,0"
         style="fill:none;stroke:#000000;stroke-width:5;stroke-linecap:butt;stroke-linejoin:miter;stroke-miterlimit:3.79999995;stroke-dasharray:none;stroke-opacity:1"
         id="path16"
         inkscape:connector-curvature="0" /><g
         id="g18"
         transform="scale(10,10)"><text
           transform="matrix(1,0,0,-1,17.8082,29.6)"
           style="font-variant:normal;font-weight:normal;font-size:7px;font-family:Helvetica;-inkscape-font-specification:Helvetica;writing-mode:lr-tb;fill:#000000;fill-opacity:1;fill-rule:nonzero;stroke:none"
           id="text20"><tspan
             x="0"
             y="0"
             id="tspan22">0</tspan></text>
</g><path
         d="m 259,713 3214.5,0"
         style="fill:none;stroke:#000000;stroke-width:1.25;stroke-linecap:butt;stroke-linejoin:miter;stroke-miterlimit:3.79999995;stroke-dasharray:5, 10;stroke-dashoffset:0;stroke-opacity:1"
         id="path24"
         inkscape:connector-curvature="0" /><path
         d="m 259,713 31.5,0 m 3183,0 -31.5,0"
         style="fill:none;stroke:#000000;stroke-width:5;stroke-linecap:butt;stroke-linejoin:miter;stroke-miterlimit:3.79999995;stroke-dasharray:none;stroke-opacity:1"
         id="path26"
         inkscape:connector-curvature="0" /><g
         id="g28"
         transform="scale(10,10)"><text
           transform="matrix(1,0,0,-1,17.8082,69)"
           style="font-variant:normal;font-weight:normal;font-size:7px;font-family:Helvetica;-inkscape-font-specification:Helvetica;writing-mode:lr-tb;fill:#000000;fill-opacity:1;fill-rule:nonzero;stroke:none"
           id="text30"><tspan
             x="0"
             y="0"
             id="tspan32">2</tspan></text>
</g><path
         d="m 259,1107 3214.5,0"
         style="fill:none;stroke:#000000;stroke-width:1.25;stroke-linecap:butt;stroke-linejoin:miter;stroke-miterlimit:3.79999995;stroke-dasharray:5, 10;stroke-dashoffset:0;stroke-opacity:1"
         id="path34"
         inkscape:connector-curvature="0" /><path
         d="m 259,1107 31.5,0 m 3183,0 -31.5,0"
         style="fill:none;stroke:#000000;stroke-width:5;stroke-linecap:butt;stroke-linejoin:miter;stroke-miterlimit:3.79999995;stroke-dasharray:none;stroke-opacity:1"
         id="path36"
         inkscape:connector-curvature="0" /><g
         id="g38"
         transform="scale(10,10)"><text
           transform="matrix(1,0,0,-1,17.8082,108.4)"
           style="font-variant:normal;font-weight:normal;font-size:7px;font-family:Helvetica;-inkscape-font-specification:Helvetica;writing-mode:lr-tb;fill:#000000;fill-opacity:1;fill-rule:nonzero;stroke:none"
           id="text40"><tspan
             x="0"
             y="0"
             id="tspan42">4</tspan></text>
</g><path
         d="m 259,1501 3214.5,0"
         style="fill:none;stroke:#000000;stroke-width:1.25;stroke-linecap:butt;stroke-linejoin:miter;stroke-miterlimit:3.79999995;stroke-dasharray:5, 10;stroke-dashoffset:0;stroke-opacity:1"
         id="path44"
         inkscape:connector-curvature="0" /><path
         d="m 259,1501 31.5,0 m 3183,0 -31.5,0"
         style="fill:none;stroke:#000000;stroke-width:5;stroke-linecap:butt;stroke-linejoin:miter;stroke-miterlimit:3.79999995;stroke-dasharray:none;stroke-opacity:1"
         id="path46"
         inkscape:connector-curvature="0" /><g
         id="g48"
         transform="scale(10,10)"><text
           transform="matrix(1,0,0,-1,17.8082,147.8)"
           style="font-variant:normal;font-weight:normal;font-size:7px;font-family:Helvetica;-inkscape-font-specification:Helvetica;writing-mode:lr-tb;fill:#000000;fill-opacity:1;fill-rule:nonzero;stroke:none"
           id="text50"><tspan
             x="0"
             y="0"
             id="tspan52">6</tspan></text>
</g><path
         d="m 259,1895 3214.5,0"
         style="fill:none;stroke:#000000;stroke-width:1.25;stroke-linecap:butt;stroke-linejoin:miter;stroke-miterlimit:3.79999995;stroke-dasharray:5, 10;stroke-dashoffset:0;stroke-opacity:1"
         id="path54"
         inkscape:connector-curvature="0" /><path
         d="m 259,1895 31.5,0 m 3183,0 -31.5,0"
         style="fill:none;stroke:#000000;stroke-width:5;stroke-linecap:butt;stroke-linejoin:miter;stroke-miterlimit:3.79999995;stroke-dasharray:none;stroke-opacity:1"
         id="path56"
         inkscape:connector-curvature="0" /><g
         id="g58"
         transform="scale(10,10)"><text
           transform="matrix(1,0,0,-1,17.8082,187.2)"
           style="font-variant:normal;font-weight:normal;font-size:7px;font-family:Helvetica;-inkscape-font-specification:Helvetica;writing-mode:lr-tb;fill:#000000;fill-opacity:1;fill-rule:nonzero;stroke:none"
           id="text60"><tspan
             x="0"
             y="0"
             id="tspan62">8</tspan></text>
</g><path
         d="m 259,2289 3214.5,0"
         style="fill:none;stroke:#000000;stroke-width:1.25;stroke-linecap:butt;stroke-linejoin:miter;stroke-miterlimit:3.79999995;stroke-dasharray:5, 10;stroke-dashoffset:0;stroke-opacity:1"
         id="path64"
         inkscape:connector-curvature="0" /><path
         d="m 259,2289 31.5,0 m 3183,0 -31.5,0"
         style="fill:none;stroke:#000000;stroke-width:5;stroke-linecap:butt;stroke-linejoin:miter;stroke-miterlimit:3.79999995;stroke-dasharray:none;stroke-opacity:1"
         id="path66"
         inkscape:connector-curvature="0" /><g
         id="g68"
         transform="scale(10,10)"><text
           transform="matrix(1,0,0,-1,13.9164,226.6)"
           style="font-variant:normal;font-weight:normal;font-size:7px;font-family:Helvetica;-inkscape-font-specification:Helvetica;writing-mode:lr-tb;fill:#000000;fill-opacity:1;fill-rule:nonzero;stroke:none"
           id="text70"><tspan
             x="0 3.892"
             y="0"
             sodipodi:role="line"
             id="tspan72">10</tspan></text>
</g><path
         d="m 259,224 0,2085.5"
         style="fill:none;stroke:#000000;stroke-width:1.25;stroke-linecap:butt;stroke-linejoin:miter;stroke-miterlimit:3.79999995;stroke-dasharray:5, 10;stroke-dashoffset:0;stroke-opacity:1"
         id="path74"
         inkscape:connector-curvature="0" /><path
         d="m 259,224 0,31.5 m 0,2054 0,-31.5"
         style="fill:none;stroke:#000000;stroke-width:5;stroke-linecap:butt;stroke-linejoin:miter;stroke-miterlimit:3.79999995;stroke-dasharray:none;stroke-opacity:1"
         id="path76"
         inkscape:connector-curvature="0" /><g
         id="g78"
         transform="scale(10,10)"><text
           transform="matrix(1,0,0,-1,23.9543,13.1)"
           style="font-variant:normal;font-weight:normal;font-size:7px;font-family:Helvetica;-inkscape-font-specification:Helvetica;writing-mode:lr-tb;fill:#000000;fill-opacity:1;fill-rule:nonzero;stroke:none"
           id="text80"><tspan
             x="0"
             y="0"
             id="tspan82">0</tspan></text>
</g><path
         d="m 753.5,224 0,2085.5"
         style="fill:none;stroke:#000000;stroke-width:1.25;stroke-linecap:butt;stroke-linejoin:miter;stroke-miterlimit:3.79999995;stroke-dasharray:5, 10;stroke-dashoffset:0;stroke-opacity:1"
         id="path84"
         inkscape:connector-curvature="0" /><path
         d="m 753.5,224 0,31.5 m 0,2054 0,-31.5"
         style="fill:none;stroke:#000000;stroke-width:5;stroke-linecap:butt;stroke-linejoin:miter;stroke-miterlimit:3.79999995;stroke-dasharray:none;stroke-opacity:1"
         id="path86"
         inkscape:connector-curvature="0" /><g
         id="g88"
         transform="scale(10,10)"><text
           transform="matrix(1,0,0,-1,70.4855,13.1)"
           style="font-variant:normal;font-weight:normal;font-size:7px;font-family:Helvetica;-inkscape-font-specification:Helvetica;writing-mode:lr-tb;fill:#000000;fill-opacity:1;fill-rule:nonzero;stroke:none"
           id="text90"><tspan
             x="0 3.892 5.8379998"
             y="0"
             sodipodi:role="line"
             id="tspan92">0.2</tspan></text>
</g><path
         d="m 1248,224 0,2085.5"
         style="fill:none;stroke:#000000;stroke-width:1.25;stroke-linecap:butt;stroke-linejoin:miter;stroke-miterlimit:3.79999995;stroke-dasharray:5, 10;stroke-dashoffset:0;stroke-opacity:1"
         id="path94"
         inkscape:connector-curvature="0" /><path
         d="m 1248,224 0,31.5 m 0,2054 0,-31.5"
         style="fill:none;stroke:#000000;stroke-width:5;stroke-linecap:butt;stroke-linejoin:miter;stroke-miterlimit:3.79999995;stroke-dasharray:none;stroke-opacity:1"
         id="path96"
         inkscape:connector-curvature="0" /><g
         id="g98"
         transform="scale(10,10)"><text
           transform="matrix(1,0,0,-1,119.936,13.1)"
           style="font-variant:normal;font-weight:normal;font-size:7px;font-family:Helvetica;-inkscape-font-specification:Helvetica;writing-mode:lr-tb;fill:#000000;fill-opacity:1;fill-rule:nonzero;stroke:none"
           id="text100"><tspan
             x="0 3.892 5.8379998"
             y="0"
             sodipodi:role="line"
             id="tspan102">0.4</tspan></text>
</g><path
         d="m 1742.5,224 0,2085.5"
         style="fill:none;stroke:#000000;stroke-width:1.25;stroke-linecap:butt;stroke-linejoin:miter;stroke-miterlimit:3.79999995;stroke-dasharray:5, 10;stroke-dashoffset:0;stroke-opacity:1"
         id="path104"
         inkscape:connector-curvature="0" /><path
         d="m 1742.5,224 0,31.5 m 0,2054 0,-31.5"
         style="fill:none;stroke:#000000;stroke-width:5;stroke-linecap:butt;stroke-linejoin:miter;stroke-miterlimit:3.79999995;stroke-dasharray:none;stroke-opacity:1"
         id="path106"
         inkscape:connector-curvature="0" /><g
         id="g108"
         transform="scale(10,10)"><text
           transform="matrix(1,0,0,-1,169.386,13.1)"
           style="font-variant:normal;font-weight:normal;font-size:7px;font-family:Helvetica;-inkscape-font-specification:Helvetica;writing-mode:lr-tb;fill:#000000;fill-opacity:1;fill-rule:nonzero;stroke:none"
           id="text110"><tspan
             x="0 3.892 5.8379998"
             y="0"
             sodipodi:role="line"
             id="tspan112">0.6</tspan></text>
</g><path
         d="m 2237,224 0,2085.5"
         style="fill:none;stroke:#000000;stroke-width:1.25;stroke-linecap:butt;stroke-linejoin:miter;stroke-miterlimit:3.79999995;stroke-dasharray:5, 10;stroke-dashoffset:0;stroke-opacity:1"
         id="path114"
         inkscape:connector-curvature="0" /><path
         d="m 2237,224 0,31.5 m 0,2054 0,-31.5"
         style="fill:none;stroke:#000000;stroke-width:5;stroke-linecap:butt;stroke-linejoin:miter;stroke-miterlimit:3.79999995;stroke-dasharray:none;stroke-opacity:1"
         id="path116"
         inkscape:connector-curvature="0" /><g
         id="g118"
         transform="scale(10,10)"><text
           transform="matrix(1,0,0,-1,218.836,13.1)"
           style="font-variant:normal;font-weight:normal;font-size:7px;font-family:Helvetica;-inkscape-font-specification:Helvetica;writing-mode:lr-tb;fill:#000000;fill-opacity:1;fill-rule:nonzero;stroke:none"
           id="text120"><tspan
             x="0 3.892 5.8379998"
             y="0"
             sodipodi:role="line"
             id="tspan122">0.8</tspan></text>
</g><path
         d="m 2731.5,224 0,2065.1675 m 0,-11.1675 0,31.5"
         style="fill:none;stroke:#000000;stroke-width:1.25;stroke-linecap:butt;stroke-linejoin:miter;stroke-miterlimit:3.79999995;stroke-dasharray:5, 10;stroke-dashoffset:0;stroke-opacity:1"
         id="path124"
         inkscape:connector-curvature="0"
         sodipodi:nodetypes="cccc" /><path
         d="m 2731.5,224 0,31.5 m 0,2054 0,-31.5"
         style="fill:none;stroke:#000000;stroke-width:5;stroke-linecap:butt;stroke-linejoin:miter;stroke-miterlimit:3.79999995;stroke-dasharray:none;stroke-opacity:1"
         id="path126"
         inkscape:connector-curvature="0" /><g
         id="g128"
         transform="scale(10,10)"><text
           transform="matrix(1,0,0,-1,271.204,13.1)"
           style="font-variant:normal;font-weight:normal;font-size:7px;font-family:Helvetica;-inkscape-font-specification:Helvetica;writing-mode:lr-tb;fill:#000000;fill-opacity:1;fill-rule:nonzero;stroke:none"
           id="text130"><tspan
             x="0"
             y="0"
             id="tspan132">1</tspan></text>
</g><path
         d="m 3226,224 0,2057.411 m 0,-3.411 0,31.5"
         style="fill:none;stroke:#000000;stroke-width:1.25;stroke-linecap:butt;stroke-linejoin:miter;stroke-miterlimit:3.79999995;stroke-dasharray:5, 10;stroke-dashoffset:0;stroke-opacity:1"
         id="path134"
         inkscape:connector-curvature="0"
         sodipodi:nodetypes="cccc" /><path
         d="m 3226,224 0,31.5 m 0,2054 0,-31.5"
         style="fill:none;stroke:#000000;stroke-width:5;stroke-linecap:butt;stroke-linejoin:miter;stroke-miterlimit:3.79999995;stroke-dasharray:none;stroke-opacity:1"
         id="path136"
         inkscape:connector-curvature="0" /><g
         id="g138"
         transform="scale(10,10)"><text
           transform="matrix(1,0,0,-1,317.736,13.1)"
           style="font-variant:normal;font-weight:normal;font-size:7px;font-family:Helvetica;-inkscape-font-specification:Helvetica;writing-mode:lr-tb;fill:#000000;fill-opacity:1;fill-rule:nonzero;stroke:none"
           id="text140"><tspan
             x="0 3.892 5.8379998"
             y="0"
             sodipodi:role="line"
             id="tspan142">1.2</tspan></text>
</g><path
         d="m 259,2309.5 0,-2085.5 3214.5,0 0,2085.5 -3214.5,0 z"
         style="fill:none;stroke:#000000;stroke-width:5;stroke-linecap:butt;stroke-linejoin:miter;stroke-miterlimit:3.79999995;stroke-dasharray:none;stroke-opacity:1"
         id="path144"
         inkscape:connector-curvature="0" /><g
         id="g146"
         transform="scale(10,10)"><text
           transform="matrix(0,1,1,0,7.9,97.0941)"
           style="font-variant:normal;font-weight:normal;font-size:7px;font-family:Helvetica;-inkscape-font-specification:Helvetica;writing-mode:lr-tb;fill:#000000;fill-opacity:1;fill-rule:nonzero;stroke:none"
           id="text148"><tspan
             x="0 5.0539999 7.3850002 11.277 12.831 16.723 18.669001 23.723 27.615 29.945999 32.277 36.168999 40.061001 42.007 43.952999 46.284 52.115002 56.784"
             y="0"
             sodipodi:role="line"
             id="tspan150">Drain Current (mA)</tspan></text>
<text
           transform="matrix(1,0,0,-1,143.808,2.6)"
           style="font-variant:normal;font-weight:normal;font-size:7px;font-family:Helvetica;-inkscape-font-specification:Helvetica;writing-mode:lr-tb;fill:#000000;fill-opacity:1;fill-rule:nonzero;stroke:none"
           id="text152"><tspan
             x="0 5.0539999 7.3850002 11.277 12.831 16.723 18.669001 20.615 24.507 26.452999 31.122 35.014 38.905998 41.237 44.737 48.629002 50.575001 55.243999 59.136002 60.689999 62.636002 66.528 70.419998 74.311996 76.258003 78.588997 83.258003"
             y="0"
             sodipodi:role="line"
             id="tspan154">Drain to Source Voltage (V)</tspan><tspan
             x="-53.291401 -48.2374 -43.183399 -41.2374 -36.568401 -32.676399 -28.784401 -27.2304 -23.7304 -20.2304 -18.676399 -15.1764 -13.2304 -11.2844 -6.2304001 -3.8994 -0.0074 1.5466 5.4386001 7.3846002 12.4386 16.330601 18.6616 20.992599 24.8846 28.7766 30.722601 32.668598 38.114601 42.006599 43.952599 47.844601 51.736599 53.682598 55.628601 59.128601 62.628601 64.5746 69.628601 71.959602 75.851601 77.405602 81.2976 83.243599 85.189598 89.081596 91.027603 95.696602 99.5886 103.4806 105.8116 109.3116 113.2036 115.1496 119.8186 123.7106 125.2646 127.2106 131.1026 134.9946"
             y="-236.55"
             sodipodi:role="line"
             id="tspan156">DC Analysis: Drain Current Output vs Drain to Source Voltage</tspan><tspan
             sodipodi:role="line"
             id="tspan158"
             x="0"
             y="0" /></text>
</g><path
         d="m 259,319 2967,0 124,0.5 123.5,0 M 259,319 l 123.5,0.5 494.5,0 124,0.5 123.5,0 123.5,0 123.5,0 124,0.5 123.5,0 123.5,0 124,0 123.5,0.5 123.5,0 123.5,0.5 124,0 123.5,0 123.5,0.5 123.5,0 124,0.5 123.5,0.5 123.5,0 123.5,0.5 124,0.5 123.5,0.5 M 259,319 l 123.5,5.5 124,1 123.5,0.5 123.5,1 123.5,0.5 124,1 123.5,0.5 123.5,1 123.5,1 124,1 123.5,1 123.5,1 124,1 123.5,1 123.5,1.5 123.5,1.5 124,1 123.5,1.5 123.5,2 123.5,1.5 124,2 123.5,1.5 123.5,2 123.5,2 124,2.5 123.5,2 M 259,319 l 123.5,31.5 124,10 123.5,4 123.5,3.5 123.5,3.5 124,3 123.5,3.5 123.5,3.5 123.5,3.5 124,3.5 123.5,3.5 123.5,4 124,4 123.5,4 123.5,4.5 123.5,4.5 124,4 123.5,5 123.5,4.5 123.5,5 124,5"
         style="fill:none;stroke:#ff0000;stroke-width:2.5;stroke-linecap:butt;stroke-linejoin:miter;stroke-miterlimit:3.79999995;stroke-dasharray:none;stroke-opacity:1"
         id="path160"
         inkscape:connector-curvature="0"
         sodipodi:nodetypes="ccccccccccccccccccccccccccccccccccccccccccccccccccccccccccccccccccccccccccccc" /><path
         d="m 2855.5,436.5 123.5,5 123.5,5 123.5,5.5 124,5 123.5,5.5 M 259,319 l 123.5,87.5 124,43.5 123.5,18 123.5,10 123.5,7.5 124,7 123.5,7 123.5,6.5 123.5,7 124,6.5 123.5,6.5 123.5,7 124,6.5 123.5,7 123.5,7 123.5,7 124,7 123.5,7 123.5,7 123.5,7.5 124,7 123.5,7.5 123.5,7 123.5,7.5 124,7.5 123.5,7.5 M 259,319 l 123.5,144 124,92.5 123.5,51 123.5,25 123.5,15 124,11 123.5,10 123.5,9 123.5,9 124,8.5 123.5,8.5 123.5,8.5 124,8.5 123.5,8 123.5,8.5 123.5,8.5 124,8 123.5,8.5 123.5,8.5 123.5,8 124,8.5 123.5,8.5 123.5,8.5 123.5,8 124,8.5 123.5,8.5 M 259,319 l 123.5,187 124,136.5 123.5,92 123.5,53.5 123.5,29 124,18 123.5,14 123.5,11.5 123.5,11 124,10 123.5,10 123.5,9.5 124,9.5 123.5,9.5 123.5,9 123.5,9 124,9.5 123.5,9 123.5,9 123.5,9 124,9 123.5,9 123.5,9 123.5,9.5 124,9 123.5,9 M 259,319 382.5,538 506.5,709 630,837.5 753.5,926 877,979.5 l 124,30.5 123.5,20.5 123.5,15.5 123.5,13 124,12 123.5,11.5 123.5,10.5 124,10.5 123.5,10 123.5,10.5 123.5,9.5 124,10 123.5,10 123.5,9.5 123.5,9.5 124,10 123.5,9.5 123.5,9.5 123.5,9.5 124,9.5 123.5,9.5 M 259,319 382.5,562 506.5,760.5 630,919 753.5,1039.5 877,1123 l 124,52 123.5,31.5 123.5,21.5 123.5,16.5 124,14.5 123.5,13 123.5,12 124,12 123.5,11 123.5,11 123.5,10.5 124,10.5 123.5,10.5 123.5,10.5 123.5,10 124,10.5 123.5,10 123.5,10 123.5,10"
         style="fill:none;stroke:#ff0000;stroke-width:2.5;stroke-linecap:butt;stroke-linejoin:miter;stroke-miterlimit:3.79999995;stroke-dasharray:none;stroke-opacity:1"
         id="path162"
         inkscape:connector-curvature="0" /><path
         d="m 3226,1410.5 124,10 123.5,10 M 259,319 382.5,580.5 506.5,801 630,984 l 123.5,148 123.5,112.5 124,78.5 123.5,49.5 123.5,31.5 123.5,22.5 124,17.5 123.5,15.5 123.5,14 124,12.5 123.5,12.5 123.5,12 123.5,11.5 124,11 123.5,11 123.5,11 123.5,11 124,10.5 123.5,11 123.5,10.5 123.5,10.5 124,10.5 123.5,10.5 M 259,319 l 123.5,276.5 124,238 123.5,203.5 123.5,170 123.5,138.5 124,105 123.5,73 123.5,47.5 123.5,31 124,23 123.5,18.5 123.5,16 124,14.5 123.5,14 123.5,12.5 123.5,12.5 124,12.5 123.5,11.5 123.5,11.5 123.5,11.5 124,11.5 123.5,11 123.5,11 123.5,11 124,11 123.5,11 M 259,319 382.5,607.5 506.5,860 630,1080 753.5,1269.5 877,1429 l 124,129.5 123.5,98 123.5,68 123.5,45 124,30.5 123.5,23.5 123.5,19 124,17 123.5,15 123.5,14 123.5,13.5 124,13 123.5,13 123.5,12 123.5,12 124,12 123.5,12 123.5,11.5 123.5,11.5 124,11.5 123.5,11 M 259,319 382.5,617 506.5,882 630,1116 753.5,1321.5 877,1499 l 124,149.5 123.5,121.5 123.5,91.5 123.5,63 124,43 123.5,30.5 123.5,23.5 124,19.5 123.5,17 123.5,16 123.5,14.5 124,14 123.5,13.5 123.5,13.5 123.5,12.5"
         style="fill:none;stroke:#ff0000;stroke-width:2.5;stroke-linecap:butt;stroke-linejoin:miter;stroke-miterlimit:3.79999995;stroke-dasharray:none;stroke-opacity:1"
         id="path164"
         inkscape:connector-curvature="0" /><path
         d="m 2731.5,2142 124,12.5 123.5,12.5 123.5,12 123.5,12 124,12 123.5,11.5"
         style="fill:none;stroke:#ff0000;stroke-width:2.5;stroke-linecap:butt;stroke-linejoin:miter;stroke-miterlimit:3.79999995;stroke-dasharray:none;stroke-opacity:1"
         id="path166"
         inkscape:connector-curvature="0" /><path
         d="m 259,2309.5 0,-2085.5 3214.5,0 0,2085.5 -3214.5,0 z"
         style="fill:none;stroke:#000000;stroke-width:5;stroke-linecap:butt;stroke-linejoin:miter;stroke-miterlimit:3.79999995;stroke-dasharray:none;stroke-opacity:1"
         id="path168"
         inkscape:connector-curvature="0" /></g></g></svg>