<?xml version="1.0" encoding="UTF-8" standalone="no"?>
<svg
   xmlns:dc="http://purl.org/dc/elements/1.1/"
   xmlns:cc="http://creativecommons.org/ns#"
   xmlns:rdf="http://www.w3.org/1999/02/22-rdf-syntax-ns#"
   xmlns:svg="http://www.w3.org/2000/svg"
   xmlns="http://www.w3.org/2000/svg"
   xmlns:sodipodi="http://sodipodi.sourceforge.net/DTD/sodipodi-0.dtd"
   xmlns:inkscape="http://www.inkscape.org/namespaces/inkscape"
   version="1.1"
   width="4.3172565cm"
   height="3.7104445cm"
   viewBox="0 0 16997.073 14608.05"
   id="svg2"
   inkscape:version="0.92.5 (2060ec1f9f, 2020-04-08)"
   sodipodi:docname="sch.svg">
  <metadata
     id="metadata570">
    <rdf:RDF>
      <cc:Work
         rdf:about="">
        <dc:format>image/svg+xml</dc:format>
        <dc:type
           rdf:resource="http://purl.org/dc/dcmitype/StillImage" />
        <dc:title>SVG Picture created as source_degeneration_resistors_negative_feedback.svg date 2020/07/02 18:34:34 </dc:title>
      </cc:Work>
    </rdf:RDF>
  </metadata>
  <defs
     id="defs568" />
  <sodipodi:namedview
     pagecolor="#ffffff"
     bordercolor="#666666"
     borderopacity="1"
     objecttolerance="10"
     gridtolerance="10"
     guidetolerance="10"
     inkscape:pageopacity="1"
     inkscape:pageshadow="2"
     inkscape:window-width="1920"
     inkscape:window-height="1030"
     id="namedview566"
     showgrid="false"
     fit-margin-top="0"
     fit-margin-left="0"
     fit-margin-right="0"
     fit-margin-bottom="0"
     inkscape:zoom="4.317873"
     inkscape:cx="72.65109"
     inkscape:cy="51.115543"
     inkscape:window-x="0"
     inkscape:window-y="0"
     inkscape:window-maximized="1"
     inkscape:current-layer="g50" />
  <title
     id="title4">SVG Picture created as source_degeneration_resistors_negative_feedback.svg date 2020/07/02 18:34:34 </title>
  <desc
     id="desc6">Picture generated by Eeschema-SVG </desc>
  <g
     style="fill:#000000;fill-opacity:1;stroke:#000000;stroke-linecap:round;stroke-linejoin:round;stroke-opacity:1"
     id="g8"
     transform="translate(-58643.066,-28421.953)" />
  <g
     style="fill:#000000;fill-opacity:0;stroke:#000000;stroke-width:0;stroke-linecap:round;stroke-linejoin:round;stroke-opacity:1"
     id="g10"
     transform="translate(-58643.066,-28421.953)">
    <g
       id="g12" />
    <g
       style="fill:#840000;fill-opacity:0;stroke:#840000;stroke-width:0;stroke-linecap:round;stroke-linejoin:round;stroke-opacity:1"
       id="g14" />
    <g
       style="fill:#840000;fill-opacity:0;stroke:#840000;stroke-width:60;stroke-linecap:round;stroke-linejoin:round;stroke-opacity:1"
       id="g16">
      <path
         style="fill:none;fill-opacity:0;stroke:#840000;stroke-width:60;stroke-linecap:round;stroke-linejoin:round;stroke-opacity:1"
         d="m 66250,42500 1500,0"
         id="path18"
         inkscape:connector-curvature="0" />
      <path
         style="fill:none;fill-opacity:0;stroke:#840000;stroke-width:60;stroke-linecap:round;stroke-linejoin:round;stroke-opacity:1"
         d="m 66500,42750 1000,0"
         id="path20"
         inkscape:connector-curvature="0" />
      <path
         style="fill:none;fill-opacity:0;stroke:#840000;stroke-width:60;stroke-linecap:round;stroke-linejoin:round;stroke-opacity:1"
         d="m 66750,43000 500,0"
         id="path22"
         inkscape:connector-curvature="0" />
      <path
         style="fill:none;fill-opacity:0;stroke:#840000;stroke-width:60;stroke-linecap:round;stroke-linejoin:round;stroke-opacity:1"
         d="m 67000,41500 0,1000"
         id="path24"
         inkscape:connector-curvature="0" />
      <path
         d="m 67000,41500 0,0"
         id="path26"
         inkscape:connector-curvature="0" />
    </g>
  </g>
  <g
     style="fill:#840000;fill-opacity:0;stroke:#840000;stroke-width:0;stroke-linecap:round;stroke-linejoin:round;stroke-opacity:1"
     id="g28"
     transform="translate(-58643.066,-28421.953)">
    <g
       id="g30" />
    <g
       style="fill:#840000;fill-opacity:0;stroke:#840000;stroke-width:60;stroke-linecap:round;stroke-linejoin:round;stroke-opacity:1"
       id="g32">
      <circle
         cx="72500"
         cy="35000"
         r="750"
         id="circle34" />
      <path
         style="fill:none;fill-opacity:0;stroke:#840000;stroke-width:60;stroke-linecap:round;stroke-linejoin:round;stroke-opacity:1"
         d="m 72250,35350 500,0"
         id="path36"
         inkscape:connector-curvature="0" />
      <path
         style="fill:none;fill-opacity:0;stroke:#840000;stroke-width:60;stroke-linecap:round;stroke-linejoin:round;stroke-opacity:1"
         d="m 72500,35750 0,250"
         id="path38"
         inkscape:connector-curvature="0" />
      <path
         style="fill:none;fill-opacity:0;stroke:#840000;stroke-width:60;stroke-linecap:round;stroke-linejoin:round;stroke-opacity:1"
         d="m 72500,35000 0,-500"
         id="path40"
         inkscape:connector-curvature="0" />
      <path
         style="fill:none;fill-opacity:0;stroke:#840000;stroke-width:60;stroke-linecap:round;stroke-linejoin:round;stroke-opacity:1"
         d="m 72500,34250 0,-250"
         id="path42"
         inkscape:connector-curvature="0" />
      <path
         style="fill:none;fill-opacity:0;stroke:#840000;stroke-width:60;stroke-linecap:round;stroke-linejoin:round;stroke-opacity:1"
         d="m 72750,34750 -500,0"
         id="path44"
         inkscape:connector-curvature="0" />
      <path
         d="m 72500,34000 0,0"
         id="path46"
         inkscape:connector-curvature="0" />
      <path
         d="m 72500,36000 0,0"
         id="path48"
         inkscape:connector-curvature="0" />
    </g>
    <g
       style="fill:#008484;fill-opacity:0;stroke:#008484;stroke-width:60;stroke-linecap:round;stroke-linejoin:round;stroke-opacity:1"
       id="g50">
      <text
         x="74010"
         y="34810"
         textLength="960"
         font-size="660"
         lengthAdjust="spacingAndGlyphs"
         id="text52"
         style="font-size:660px;line-height:0%;text-anchor:middle;opacity:0"
         transform="translate(-144.7472,506.61521)">V2</text>
      <path
         d="m 73455.253,34786.615 170,500 160,-500"
         id="path54"
         inkscape:connector-curvature="0" />
      <path
         d="m 73935.253,34836.615 20,-20 50,-30 h 120 l 40,30 30,20 20,50 v 40 l -20,80 -290,280 h 310"
         id="path56"
         inkscape:connector-curvature="0" />
    </g>
  </g>
  <g
     style="fill:#008484;fill-opacity:0;stroke:#008484;stroke-width:0;stroke-linecap:round;stroke-linejoin:round;stroke-opacity:1"
     id="g70"
     transform="translate(-58643.066,-28421.953)">
    <g
       id="g72" />
    <g
       style="fill:#840000;fill-opacity:0;stroke:#840000;stroke-width:0;stroke-linecap:round;stroke-linejoin:round;stroke-opacity:1"
       id="g74" />
    <g
       style="fill:#840000;fill-opacity:0;stroke:#840000;stroke-width:60;stroke-linecap:round;stroke-linejoin:round;stroke-opacity:1"
       id="g76">
      <circle
         cx="60500"
         cy="29000"
         r="500"
         id="circle78" />
      <path
         style="fill:none;fill-opacity:0;stroke:#840000;stroke-width:60;stroke-linecap:round;stroke-linejoin:round;stroke-opacity:1"
         d="m 60500,29250 0,-500"
         id="path80"
         inkscape:connector-curvature="0" />
      <path
         style="fill:none;fill-opacity:0;stroke:#840000;stroke-width:60;stroke-linecap:round;stroke-linejoin:round;stroke-opacity:1"
         d="m 61500,29000 -500,0"
         id="path82"
         inkscape:connector-curvature="0" />
      <path
         style="fill:none;fill-opacity:0;stroke:#840000;stroke-width:60;stroke-linecap:round;stroke-linejoin:round;stroke-opacity:1"
         d="m 60750,29000 -500,0"
         id="path84"
         inkscape:connector-curvature="0" />
      <path
         d="m 61500,29000 0,0"
         id="path86"
         inkscape:connector-curvature="0" />
    </g>
    <g
       style="fill:#008484;fill-opacity:0;stroke:#008484;stroke-width:60;stroke-linecap:round;stroke-linejoin:round;stroke-opacity:1"
       id="g88">
      <text
         x="59170"
         y="29220"
         textLength="1110"
         font-size="660"
         lengthAdjust="spacingAndGlyphs"
         id="text90"
         style="font-size:660px;line-height:0%;text-anchor:middle;opacity:0">V+</text>
      <path
         d="m 58690,28690 170,500 160,-500"
         id="path92"
         inkscape:connector-curvature="0" />
      <path
         d="m 59190,29000 380,0"
         id="path94"
         inkscape:connector-curvature="0" />
      <path
         d="m 59380,29190 0,-380"
         id="path96"
         inkscape:connector-curvature="0" />
    </g>
  </g>
  <g
     style="fill:#008484;fill-opacity:0;stroke:#008484;stroke-width:0;stroke-linecap:round;stroke-linejoin:round;stroke-opacity:1"
     id="g98"
     transform="translate(-58643.066,-28421.953)">
    <g
       id="g100" />
    <g
       style="fill:#840000;fill-opacity:0;stroke:#840000;stroke-width:0;stroke-linecap:round;stroke-linejoin:round;stroke-opacity:1"
       id="g102" />
    <g
       style="fill:#840000;fill-opacity:0;stroke:#840000;stroke-width:60;stroke-linecap:round;stroke-linejoin:round;stroke-opacity:1"
       id="g104">
      <circle
         cx="64500"
         cy="31000"
         r="750"
         id="circle106" />
      <path
         style="fill:none;fill-opacity:0;stroke:#840000;stroke-width:60;stroke-linecap:round;stroke-linejoin:round;stroke-opacity:1"
         d="m 64500,31750 0,250"
         id="path108"
         inkscape:connector-curvature="0" />
      <path
         style="fill:none;fill-opacity:0;stroke:#840000;stroke-width:60;stroke-linecap:round;stroke-linejoin:round;stroke-opacity:1"
         d="m 64500,30250 0,-250"
         id="path110"
         inkscape:connector-curvature="0" />
    </g>
    <g
       style="fill:#840000;fill-opacity:1;stroke:#840000;stroke-width:60;stroke-linecap:round;stroke-linejoin:round;stroke-opacity:1"
       id="g112">
      <path
         style="fill:#840000;fill-opacity:1;fill-rule:evenodd;stroke:#840000;stroke-width:60;stroke-linecap:round;stroke-linejoin:round;stroke-opacity:1"
         d="m 64500,30500 0,1000 -250,-500 500,0 -250,500"
         id="path114"
         inkscape:connector-curvature="0" />
    </g>
    <g
       style="fill:#840000;fill-opacity:0;stroke:#840000;stroke-width:60;stroke-linecap:round;stroke-linejoin:round;stroke-opacity:1"
       id="g116">
      <path
         d="m 64500,30000 0,0"
         id="path118"
         inkscape:connector-curvature="0" />
      <path
         d="m 64500,32000 0,0"
         id="path120"
         inkscape:connector-curvature="0" />
    </g>
    <g
       style="fill:#008484;fill-opacity:0;stroke:#008484;stroke-width:60;stroke-linecap:round;stroke-linejoin:round;stroke-opacity:1"
       id="g122"
       transform="translate(-120.62267,530.73974)">
      <text
         x="65910"
         y="30810"
         textLength="770"
         font-size="660"
         lengthAdjust="spacingAndGlyphs"
         id="text124"
         style="font-size:660px;line-height:0%;text-anchor:middle;opacity:0">I1</text>
      <path
         d="m 65670,30780 v -500"
         id="path126"
         inkscape:connector-curvature="0" />
      <path
         d="m 66170,30780 h -290"
         id="path128"
         inkscape:connector-curvature="0" />
      <path
         d="m 66020,30780 v -500 l -40,70 -50,50 -50,20"
         id="path130"
         inkscape:connector-curvature="0" />
    </g>
  </g>
  <g
     style="fill:#008484;fill-opacity:0;stroke:#008484;stroke-width:0;stroke-linecap:round;stroke-linejoin:round;stroke-opacity:1"
     id="g146"
     transform="translate(-58643.066,-28421.953)">
    <g
       id="g148" />
    <g
       style="fill:#840000;fill-opacity:0;stroke:#840000;stroke-width:0;stroke-linecap:round;stroke-linejoin:round;stroke-opacity:1"
       id="g150" />
    <g
       style="fill:#840000;fill-opacity:0;stroke:#840000;stroke-width:60;stroke-linecap:round;stroke-linejoin:round;stroke-opacity:1"
       id="g152">
      <path
         style="fill:none;fill-opacity:0;stroke:#840000;stroke-width:60;stroke-linecap:round;stroke-linejoin:round;stroke-opacity:1"
         d="m 65250,35000 -750,0"
         id="path154"
         inkscape:connector-curvature="0" />
      <path
         style="fill:none;fill-opacity:0;stroke:#840000;stroke-width:60;stroke-linecap:round;stroke-linejoin:round;stroke-opacity:1"
         d="m 65500,35500 0,-1000"
         id="path156"
         inkscape:connector-curvature="0" />
      <path
         style="fill:none;fill-opacity:0;stroke:#840000;stroke-width:60;stroke-linecap:round;stroke-linejoin:round;stroke-opacity:1"
         d="m 65500,35000 500,0"
         id="path158"
         inkscape:connector-curvature="0" />
      <path
         style="fill:none;fill-opacity:0;stroke:#840000;stroke-width:60;stroke-linecap:round;stroke-linejoin:round;stroke-opacity:1"
         d="m 65250,35500 0,-1000"
         id="path160"
         inkscape:connector-curvature="0" />
      <path
         style="fill:none;fill-opacity:0;stroke:#840000;stroke-width:60;stroke-linecap:round;stroke-linejoin:round;stroke-opacity:1"
         d="m 65250,35500 -750,0"
         id="path162"
         inkscape:connector-curvature="0" />
      <path
         style="fill:none;fill-opacity:0;stroke:#840000;stroke-width:60;stroke-linecap:round;stroke-linejoin:round;stroke-opacity:1"
         d="m 65250,34500 -750,0"
         id="path164"
         inkscape:connector-curvature="0" />
      <path
         style="fill:none;fill-opacity:0;stroke:#840000;stroke-width:60;stroke-linecap:round;stroke-linejoin:round;stroke-opacity:1"
         d="m 64500,35500 0,500"
         id="path166"
         inkscape:connector-curvature="0" />
      <path
         style="fill:none;fill-opacity:0;stroke:#840000;stroke-width:60;stroke-linecap:round;stroke-linejoin:round;stroke-opacity:1"
         d="m 64500,34500 0,-500"
         id="path168"
         inkscape:connector-curvature="0" />
      <path
         style="fill:none;fill-opacity:0;stroke:#840000;stroke-width:60;stroke-linecap:round;stroke-linejoin:round;stroke-opacity:1"
         d="m 65000,35300 -300,200 300,200"
         id="path170"
         inkscape:connector-curvature="0" />
      <path
         d="m 64500,35000 0,0"
         id="path172"
         inkscape:connector-curvature="0" />
      <path
         d="m 64500,34000 0,0"
         id="path174"
         inkscape:connector-curvature="0" />
      <path
         d="m 66000,35000 0,0"
         id="path176"
         inkscape:connector-curvature="0" />
      <path
         d="m 64500,36000 0,0"
         id="path178"
         inkscape:connector-curvature="0" />
    </g>
    <g
       style="fill:#008484;fill-opacity:0;stroke:#008484;stroke-width:60;stroke-linecap:round;stroke-linejoin:round;stroke-opacity:1"
       id="g180">
      <text
         x="65300"
         y="34270"
         textLength="1110"
         font-size="660"
         lengthAdjust="spacingAndGlyphs"
         id="text182"
         style="font-size:660px;line-height:0%;text-anchor:middle;opacity:0">M1</text>
      <path
         d="m 64890,34240 0,-500 170,360 160,-360 0,500"
         id="path184"
         inkscape:connector-curvature="0" />
      <path
         d="m 65720,34240 -280,0"
         id="path186"
         inkscape:connector-curvature="0" />
      <path
         d="m 65580,34240 0,-500 -50,70 -40,50 -50,20"
         id="path188"
         inkscape:connector-curvature="0" />
    </g>
  </g>
  <g
     style="fill:#008484;fill-opacity:0;stroke:#008484;stroke-width:0;stroke-linecap:round;stroke-linejoin:round;stroke-opacity:1"
     id="g216"
     transform="translate(-58643.066,-28421.953)">
    <g
       id="g218" />
    <g
       style="fill:#840000;fill-opacity:0;stroke:#840000;stroke-width:0;stroke-linecap:round;stroke-linejoin:round;stroke-opacity:1"
       id="g220" />
    <g
       style="fill:#840000;fill-opacity:0;stroke:#840000;stroke-width:60;stroke-linecap:round;stroke-linejoin:round;stroke-opacity:1"
       id="g222">
      <path
         style="fill:none;fill-opacity:0;stroke:#840000;stroke-width:60;stroke-linecap:round;stroke-linejoin:round;stroke-opacity:1"
         d="m 68750,35000 750,0"
         id="path224"
         inkscape:connector-curvature="0" />
      <path
         style="fill:none;fill-opacity:0;stroke:#840000;stroke-width:60;stroke-linecap:round;stroke-linejoin:round;stroke-opacity:1"
         d="m 68500,35500 0,-1000"
         id="path226"
         inkscape:connector-curvature="0" />
      <path
         style="fill:none;fill-opacity:0;stroke:#840000;stroke-width:60;stroke-linecap:round;stroke-linejoin:round;stroke-opacity:1"
         d="m 68500,35000 -500,0"
         id="path228"
         inkscape:connector-curvature="0" />
      <path
         style="fill:none;fill-opacity:0;stroke:#840000;stroke-width:60;stroke-linecap:round;stroke-linejoin:round;stroke-opacity:1"
         d="m 68750,35500 0,-1000"
         id="path230"
         inkscape:connector-curvature="0" />
      <path
         style="fill:none;fill-opacity:0;stroke:#840000;stroke-width:60;stroke-linecap:round;stroke-linejoin:round;stroke-opacity:1"
         d="m 68750,35500 750,0"
         id="path232"
         inkscape:connector-curvature="0" />
      <path
         style="fill:none;fill-opacity:0;stroke:#840000;stroke-width:60;stroke-linecap:round;stroke-linejoin:round;stroke-opacity:1"
         d="m 68750,34500 750,0"
         id="path234"
         inkscape:connector-curvature="0" />
      <path
         style="fill:none;fill-opacity:0;stroke:#840000;stroke-width:60;stroke-linecap:round;stroke-linejoin:round;stroke-opacity:1"
         d="m 69500,35500 0,500"
         id="path236"
         inkscape:connector-curvature="0" />
      <path
         style="fill:none;fill-opacity:0;stroke:#840000;stroke-width:60;stroke-linecap:round;stroke-linejoin:round;stroke-opacity:1"
         d="m 69500,34500 0,-500"
         id="path238"
         inkscape:connector-curvature="0" />
      <path
         style="fill:none;fill-opacity:0;stroke:#840000;stroke-width:60;stroke-linecap:round;stroke-linejoin:round;stroke-opacity:1"
         d="m 69000,35300 300,200 -300,200"
         id="path240"
         inkscape:connector-curvature="0" />
      <path
         d="m 69500,35000 0,0"
         id="path242"
         inkscape:connector-curvature="0" />
      <path
         d="m 69500,34000 0,0"
         id="path244"
         inkscape:connector-curvature="0" />
      <path
         d="m 68000,35000 0,0"
         id="path246"
         inkscape:connector-curvature="0" />
      <path
         d="m 69500,36000 0,0"
         id="path248"
         inkscape:connector-curvature="0" />
    </g>
    <g
       style="fill:#008484;fill-opacity:0;stroke:#008484;stroke-width:60;stroke-linecap:round;stroke-linejoin:round;stroke-opacity:1"
       id="g250">
      <text
         x="68690"
         y="34270"
         textLength="1110"
         font-size="660"
         lengthAdjust="spacingAndGlyphs"
         id="text252"
         style="font-size:660px;line-height:0%;text-anchor:middle;opacity:0">M2</text>
      <path
         d="m 68280,34240 0,-500 170,360 160,-360 0,500"
         id="path254"
         inkscape:connector-curvature="0" />
      <path
         d="m 68830,33790 20,-20 50,-30 120,0 50,30 20,20 20,50 0,40 -20,80 -290,280 310,0"
         id="path256"
         inkscape:connector-curvature="0" />
    </g>
  </g>
  <g
     style="fill:#008484;fill-opacity:0;stroke:#008484;stroke-width:0;stroke-linecap:round;stroke-linejoin:round;stroke-opacity:1"
     id="g284"
     transform="translate(-58643.066,-28421.953)">
    <g
       id="g286" />
    <g
       style="fill:#840000;fill-opacity:0;stroke:#840000;stroke-width:0;stroke-linecap:round;stroke-linejoin:round;stroke-opacity:1"
       id="g288" />
    <g
       style="fill:#840000;fill-opacity:0;stroke:#840000;stroke-width:60;stroke-linecap:round;stroke-linejoin:round;stroke-opacity:1"
       id="g290">
      <circle
         cx="61500"
         cy="33250"
         r="750"
         id="circle292" />
      <path
         style="fill:none;fill-opacity:0;stroke:#840000;stroke-width:60;stroke-linecap:round;stroke-linejoin:round;stroke-opacity:1"
         d="m 61750,33600 -500,0"
         id="path294"
         inkscape:connector-curvature="0" />
      <path
         style="fill:none;fill-opacity:0;stroke:#840000;stroke-width:60;stroke-linecap:round;stroke-linejoin:round;stroke-opacity:1"
         d="m 61500,34000 0,250"
         id="path296"
         inkscape:connector-curvature="0" />
      <path
         style="fill:none;fill-opacity:0;stroke:#840000;stroke-width:60;stroke-linecap:round;stroke-linejoin:round;stroke-opacity:1"
         d="m 61500,33250 0,-500"
         id="path298"
         inkscape:connector-curvature="0" />
      <path
         style="fill:none;fill-opacity:0;stroke:#840000;stroke-width:60;stroke-linecap:round;stroke-linejoin:round;stroke-opacity:1"
         d="m 61500,32500 0,-250"
         id="path300"
         inkscape:connector-curvature="0" />
      <path
         style="fill:none;fill-opacity:0;stroke:#840000;stroke-width:60;stroke-linecap:round;stroke-linejoin:round;stroke-opacity:1"
         d="m 61250,33000 500,0"
         id="path302"
         inkscape:connector-curvature="0" />
      <path
         d="m 61500,32250 0,0"
         id="path304"
         inkscape:connector-curvature="0" />
      <path
         d="m 61500,34250 0,0"
         id="path306"
         inkscape:connector-curvature="0" />
    </g>
    <g
       style="fill:#008484;fill-opacity:0;stroke:#008484;stroke-width:60;stroke-linecap:round;stroke-linejoin:round;stroke-opacity:1"
       id="g308"
       transform="translate(168.87174,482.49068)">
      <text
         x="59990"
         y="33060"
         textLength="960"
         font-size="660"
         lengthAdjust="spacingAndGlyphs"
         id="text310"
         style="font-size:660px;line-height:0%;text-anchor:middle;opacity:0">V1</text>
      <path
         d="m 59580,32530 170,500 160,-500"
         id="path312"
         inkscape:connector-curvature="0" />
      <path
         d="m 60340,33030 h -280"
         id="path314"
         inkscape:connector-curvature="0" />
      <path
         d="m 60200,33030 v -500 l -50,70 -50,50 -40,20"
         id="path316"
         inkscape:connector-curvature="0" />
    </g>
  </g>
  <g
     style="fill:#008484;fill-opacity:0;stroke:#008484;stroke-width:0;stroke-linecap:round;stroke-linejoin:round;stroke-opacity:1"
     id="g330"
     transform="translate(-58643.066,-28421.953)">
    <g
       id="g332" />
    <g
       style="fill:#840000;fill-opacity:0;stroke:#840000;stroke-width:0;stroke-linecap:round;stroke-linejoin:round;stroke-opacity:1"
       id="g334" />
    <g
       style="fill:#840000;fill-opacity:0;stroke:#840000;stroke-width:60;stroke-linecap:round;stroke-linejoin:round;stroke-opacity:1"
       id="g336">
      <path
         style="fill:none;fill-opacity:0;stroke:#840000;stroke-width:60;stroke-linecap:round;stroke-linejoin:round;stroke-opacity:1"
         d="m 64500,38500 300,-100 -600,-200 600,-200 -300,-100 0,-400"
         id="path338"
         inkscape:connector-curvature="0" />
      <path
         style="fill:none;fill-opacity:0;stroke:#840000;stroke-width:60;stroke-linecap:round;stroke-linejoin:round;stroke-opacity:1"
         d="m 64500,38500 -300,100 600,200 -600,200 300,100 0,400"
         id="path340"
         inkscape:connector-curvature="0" />
      <path
         d="m 64500,37500 0,0"
         id="path342"
         inkscape:connector-curvature="0" />
      <path
         d="m 64500,39500 0,0"
         id="path344"
         inkscape:connector-curvature="0" />
    </g>
    <g
       style="fill:#008484;fill-opacity:0;stroke:#008484;stroke-width:60;stroke-linecap:round;stroke-linejoin:round;stroke-opacity:1"
       id="g346">
      <text
         x="63520"
         y="38770"
         textLength="1040"
         font-size="660"
         lengthAdjust="spacingAndGlyphs"
         id="text348"
         style="font-size:660px;line-height:0%;text-anchor:middle;opacity:0">R1</text>
      <path
         d="m 63430,38740 -160,-240"
         id="path350"
         inkscape:connector-curvature="0" />
      <path
         d="m 63150,38740 0,-500 190,0 40,30 30,20 20,50 0,70 -20,50 -30,20 -40,20 -190,0"
         id="path352"
         inkscape:connector-curvature="0" />
      <path
         d="m 63910,38740 -290,0"
         id="path354"
         inkscape:connector-curvature="0" />
      <path
         d="m 63770,38740 0,-500 -50,70 -50,50 -50,20"
         id="path356"
         inkscape:connector-curvature="0" />
    </g>
  </g>
  <g
     style="fill:#008484;fill-opacity:0;stroke:#008484;stroke-width:0;stroke-linecap:round;stroke-linejoin:round;stroke-opacity:1"
     id="g370"
     transform="translate(-58643.066,-28421.953)">
    <g
       id="g372" />
    <g
       style="fill:#840000;fill-opacity:0;stroke:#840000;stroke-width:0;stroke-linecap:round;stroke-linejoin:round;stroke-opacity:1"
       id="g374" />
    <g
       style="fill:#840000;fill-opacity:0;stroke:#840000;stroke-width:60;stroke-linecap:round;stroke-linejoin:round;stroke-opacity:1"
       id="g376">
      <path
         style="fill:none;fill-opacity:0;stroke:#840000;stroke-width:60;stroke-linecap:round;stroke-linejoin:round;stroke-opacity:1"
         d="m 69500,38500 300,-100 -600,-200 600,-200 -300,-100 0,-400"
         id="path378"
         inkscape:connector-curvature="0" />
      <path
         style="fill:none;fill-opacity:0;stroke:#840000;stroke-width:60;stroke-linecap:round;stroke-linejoin:round;stroke-opacity:1"
         d="m 69500,38500 -300,100 600,200 -600,200 300,100 0,400"
         id="path380"
         inkscape:connector-curvature="0" />
      <path
         d="m 69500,37500 0,0"
         id="path382"
         inkscape:connector-curvature="0" />
      <path
         d="m 69500,39500 0,0"
         id="path384"
         inkscape:connector-curvature="0" />
    </g>
    <g
       style="fill:#008484;fill-opacity:0;stroke:#008484;stroke-width:60;stroke-linecap:round;stroke-linejoin:round;stroke-opacity:1"
       id="g386">
      <text
         x="68520"
         y="38770"
         textLength="1040"
         font-size="660"
         lengthAdjust="spacingAndGlyphs"
         id="text388"
         style="font-size:660px;line-height:0%;text-anchor:middle;opacity:0">R2</text>
      <path
         d="m 68430,38740 -160,-240"
         id="path390"
         inkscape:connector-curvature="0" />
      <path
         d="m 68150,38740 0,-500 190,0 40,30 30,20 20,50 0,70 -20,50 -30,20 -40,20 -190,0"
         id="path392"
         inkscape:connector-curvature="0" />
      <path
         d="m 68620,38290 30,-20 40,-30 120,0 50,30 20,20 30,50 0,40 -30,80 -280,280 310,0"
         id="path394"
         inkscape:connector-curvature="0" />
    </g>
  </g>
  <g
     style="fill:#008484;fill-opacity:0;stroke:#008484;stroke-width:60;stroke-linecap:round;stroke-linejoin:round;stroke-opacity:1"
     id="g408"
     transform="translate(-58643.066,-28421.953)" />
  <g
     style="fill:#008400;fill-opacity:0;stroke:#008400;stroke-width:60;stroke-linecap:round;stroke-linejoin:round;stroke-opacity:1"
     id="g410"
     transform="translate(-58643.066,-28421.953)">
    <path
       d="m 64500,39500 0,1000"
       id="path412"
       inkscape:connector-curvature="0" />
    <path
       d="m 69500,33000 0,1000"
       id="path414"
       inkscape:connector-curvature="0" />
    <path
       d="m 67000,41500 0,-1000"
       id="path416"
       inkscape:connector-curvature="0" />
    <path
       d="m 64500,37500 0,-1500"
       id="path418"
       inkscape:connector-curvature="0" />
    <path
       d="m 69500,36000 0,1500"
       id="path420"
       inkscape:connector-curvature="0" />
    <path
       d="m 61500,40500 3000,0"
       id="path422"
       inkscape:connector-curvature="0" />
    <path
       d="m 67000,40500 2500,0"
       id="path424"
       inkscape:connector-curvature="0" />
    <path
       d="m 70500,35000 -1000,0"
       id="path426"
       inkscape:connector-curvature="0" />
    <path
       d="m 64500,40500 2500,0"
       id="path428"
       inkscape:connector-curvature="0" />
    <path
       d="m 69500,39500 0,1000"
       id="path430"
       inkscape:connector-curvature="0" />
    <path
       d="m 69500,40500 3000,0"
       id="path432"
       inkscape:connector-curvature="0" />
    <path
       d="m 72500,36000 0,4500"
       id="path434"
       inkscape:connector-curvature="0" />
    <path
       d="m 61500,34250 0,6250"
       id="path436"
       inkscape:connector-curvature="0" />
    <path
       d="m 64500,35000 -1000,0"
       id="path438"
       inkscape:connector-curvature="0" />
    <path
       d="m 72500,34000 0,-1000"
       id="path440"
       inkscape:connector-curvature="0" />
    <path
       d="m 66000,35000 1000,0"
       id="path442"
       inkscape:connector-curvature="0" />
    <path
       d="m 64500,34000 0,-1000"
       id="path444"
       inkscape:connector-curvature="0" />
    <path
       d="m 64500,33000 2500,0"
       id="path446"
       inkscape:connector-curvature="0" />
    <path
       d="m 67000,33000 0,2000"
       id="path448"
       inkscape:connector-curvature="0" />
    <path
       d="m 67000,35000 1000,0"
       id="path450"
       inkscape:connector-curvature="0" />
    <path
       d="m 64500,33000 0,-1000"
       id="path452"
       inkscape:connector-curvature="0" />
    <path
       d="m 64500,30000 0,-1000"
       id="path454"
       inkscape:connector-curvature="0" />
    <path
       d="m 64500,29000 -3000,0"
       id="path456"
       inkscape:connector-curvature="0" />
    <path
       d="m 61500,29000 0,3250"
       id="path458"
       inkscape:connector-curvature="0" />
    <path
       d="m 72500,33000 -3000,0"
       id="path460"
       inkscape:connector-curvature="0" />
  </g>
  <g
     style="fill:#000000;fill-opacity:0;stroke:#000000;stroke-width:60;stroke-linecap:round;stroke-linejoin:round;stroke-opacity:1"
     id="g462"
     transform="translate(-58643.066,-28421.953)">
    <text
       x="65000"
       y="32900"
       textLength="1170"
       font-size="800"
       lengthAdjust="spacingAndGlyphs"
       id="text464"
       style="font-size:800px;line-height:0%;text-anchor:start;opacity:0">n1</text>
    <path
       d="m 65170,32470 0,400"
       id="path466"
       inkscape:connector-curvature="0" />
    <path
       d="m 65170,32520 30,-20 50,-30 90,0 60,30 30,50 0,320"
       id="path468"
       inkscape:connector-curvature="0" />
    <path
       d="m 66030,32870 -350,0"
       id="path470"
       inkscape:connector-curvature="0" />
    <path
       d="m 65850,32870 0,-600 -50,80 -60,60 -60,30"
       id="path472"
       inkscape:connector-curvature="0" />
    <text
       x="63500"
       y="34900"
       textLength="630"
       font-size="800"
       lengthAdjust="spacingAndGlyphs"
       id="text474"
       style="font-size:800px;line-height:0%;text-anchor:start;opacity:0">0</text>
    <path
       d="m 63780,34270 60,0 60,30 30,20 20,60 30,120 0,140 -30,110 -20,60 -30,30 -60,30 -60,0 -50,-30 -30,-30 -30,-60 -30,-110 0,-140 30,-120 30,-60 30,-20 50,-30"
       id="path476"
       inkscape:connector-curvature="0" />
    <text
       x="69500"
       y="37150"
       textLength="1170"
       font-size="800"
       lengthAdjust="spacingAndGlyphs"
       id="text478"
       style="font-size:800px;line-height:0%;text-anchor:start;opacity:0">n4</text>
    <path
       d="m 69670,36720 0,400"
       id="path480"
       inkscape:connector-curvature="0" />
    <path
       d="m 69670,36770 30,-20 50,-30 90,0 60,30 30,50 0,320"
       id="path482"
       inkscape:connector-curvature="0" />
    <path
       d="m 70470,36720 0,400"
       id="path484"
       inkscape:connector-curvature="0" />
    <path
       d="m 70330,36490 -150,430 370,0"
       id="path486"
       inkscape:connector-curvature="0" />
    <text
       x="70000"
       y="34900"
       textLength="630"
       font-size="800"
       lengthAdjust="spacingAndGlyphs"
       id="text488"
       style="font-size:800px;line-height:0%;text-anchor:start;opacity:0">0</text>
    <path
       d="m 70280,34270 60,0 60,30 30,20 20,60 30,120 0,140 -30,110 -20,60 -30,30 -60,30 -60,0 -50,-30 -30,-30 -30,-60 -30,-110 0,-140 30,-120 30,-60 30,-20 50,-30"
       id="path490"
       inkscape:connector-curvature="0" />
    <text
       x="64500"
       y="37150"
       textLength="1170"
       font-size="800"
       lengthAdjust="spacingAndGlyphs"
       id="text492"
       style="font-size:800px;line-height:0%;text-anchor:start;opacity:0">n3</text>
    <path
       d="m 64670,36720 0,400"
       id="path494"
       inkscape:connector-curvature="0" />
    <path
       d="m 64670,36770 30,-20 50,-30 90,0 60,30 30,50 0,320"
       id="path496"
       inkscape:connector-curvature="0" />
    <path
       d="m 65150,36520 380,0 -200,230 80,0 60,20 30,30 30,60 0,140 -30,60 -30,30 -60,30 -170,0 -60,-30 -30,-30"
       id="path498"
       inkscape:connector-curvature="0" />
    <text
       x="62000"
       y="28900"
       textLength="2630"
       font-size="800"
       lengthAdjust="spacingAndGlyphs"
       id="text500"
       style="font-size:800px;line-height:0%;text-anchor:start;opacity:0">n_pos</text>
    <path
       d="m 62170,28470 0,400"
       id="path502"
       inkscape:connector-curvature="0" />
    <path
       d="m 62170,28520 30,-20 50,-30 90,0 60,30 30,50 0,320"
       id="path504"
       inkscape:connector-curvature="0" />
    <path
       d="m 62570,28920 460,0"
       id="path506"
       inkscape:connector-curvature="0" />
    <path
       d="m 63170,28470 0,600"
       id="path508"
       inkscape:connector-curvature="0" />
    <path
       d="m 63170,28500 60,-30 110,0 60,30 30,20 20,60 0,170 -20,60 -30,30 -60,30 -110,0 -60,-30"
       id="path510"
       inkscape:connector-curvature="0" />
    <path
       d="m 63800,28870 -60,-30 -30,-30 -30,-60 0,-170 30,-60 30,-20 60,-30 80,0 60,30 30,20 30,60 0,170 -30,60 -30,30 -60,30 -80,0"
       id="path512"
       inkscape:connector-curvature="0" />
    <path
       d="m 64230,28840 50,30 120,0 50,-30 30,-60 0,-30 -30,-50 -50,-30 -90,0 -60,-30 -20,-60 0,-30 20,-50 60,-30 90,0 50,30"
       id="path514"
       inkscape:connector-curvature="0" />
    <text
       x="69500"
       y="32900"
       textLength="1170"
       font-size="800"
       lengthAdjust="spacingAndGlyphs"
       id="text516"
       style="font-size:800px;line-height:0%;text-anchor:start;opacity:0">n2</text>
    <path
       d="m 69670,32470 0,400"
       id="path518"
       inkscape:connector-curvature="0" />
    <path
       d="m 69670,32520 30,-20 50,-30 90,0 60,30 30,50 0,320"
       id="path520"
       inkscape:connector-curvature="0" />
    <path
       d="m 70180,32320 30,-20 60,-30 140,0 60,30 30,20 30,60 0,60 -30,80 -350,350 380,0"
       id="path522"
       inkscape:connector-curvature="0" />
    <text
       x="66400"
       y="40400"
       textLength="630"
       font-size="800"
       lengthAdjust="spacingAndGlyphs"
       id="text524"
       style="font-size:800px;line-height:0%;text-anchor:start;opacity:0">0</text>
    <path
       d="m 66680,39770 60,0 60,30 30,20 20,60 30,120 0,140 -30,110 -20,60 -30,30 -60,30 -60,0 -50,-30 -30,-30 -30,-60 -30,-110 0,-140 30,-120 30,-60 30,-20 50,-30"
       id="path526"
       inkscape:connector-curvature="0" />
  </g>
  <g
     style="fill:#000000;fill-opacity:0;stroke:#000000;stroke-width:0;stroke-linecap:round;stroke-linejoin:round;stroke-opacity:1"
     id="g528"
     transform="translate(-58643.066,-28421.953)" />
  <g
     style="fill:#008400;fill-opacity:0;stroke:#008400;stroke-width:0;stroke-linecap:round;stroke-linejoin:round;stroke-opacity:1"
     id="g530"
     transform="translate(-58643.066,-28421.953)" />
  <g
     style="fill:#008400;fill-opacity:1;stroke:#008400;stroke-width:100;stroke-linecap:round;stroke-linejoin:round;stroke-opacity:1"
     id="g532"
     transform="translate(-58643.066,-28421.953)">
    <circle
       cx="69500"
       cy="40500"
       r="200"
       id="circle534" />
  </g>
  <g
     style="fill:#008400;fill-opacity:1;stroke:#008400;stroke-width:0;stroke-linecap:round;stroke-linejoin:round;stroke-opacity:1"
     id="g536"
     transform="translate(-58643.066,-28421.953)" />
  <g
     style="fill:#008400;fill-opacity:1;stroke:#008400;stroke-width:100;stroke-linecap:round;stroke-linejoin:round;stroke-opacity:1"
     id="g538"
     transform="translate(-58643.066,-28421.953)">
    <circle
       cx="64500"
       cy="40500"
       r="200"
       id="circle540" />
  </g>
  <g
     style="fill:#008400;fill-opacity:1;stroke:#008400;stroke-width:0;stroke-linecap:round;stroke-linejoin:round;stroke-opacity:1"
     id="g542"
     transform="translate(-58643.066,-28421.953)" />
  <g
     style="fill:#008400;fill-opacity:1;stroke:#008400;stroke-width:100;stroke-linecap:round;stroke-linejoin:round;stroke-opacity:1"
     id="g544"
     transform="translate(-58643.066,-28421.953)">
    <circle
       cx="67000"
       cy="35000"
       r="200"
       id="circle546" />
  </g>
  <g
     style="fill:#008400;fill-opacity:1;stroke:#008400;stroke-width:0;stroke-linecap:round;stroke-linejoin:round;stroke-opacity:1"
     id="g548"
     transform="translate(-58643.066,-28421.953)" />
  <g
     style="fill:#008400;fill-opacity:1;stroke:#008400;stroke-width:100;stroke-linecap:round;stroke-linejoin:round;stroke-opacity:1"
     id="g550"
     transform="translate(-58643.066,-28421.953)">
    <circle
       cx="64500"
       cy="33000"
       r="200"
       id="circle552" />
  </g>
  <g
     style="fill:#008400;fill-opacity:1;stroke:#008400;stroke-width:0;stroke-linecap:round;stroke-linejoin:round;stroke-opacity:1"
     id="g554"
     transform="translate(-58643.066,-28421.953)" />
  <g
     style="fill:#008400;fill-opacity:1;stroke:#008400;stroke-width:100;stroke-linecap:round;stroke-linejoin:round;stroke-opacity:1"
     id="g556"
     transform="translate(-58643.066,-28421.953)">
    <circle
       cx="67000"
       cy="40500"
       r="200"
       id="circle558" />
  </g>
  <g
     style="fill:#008400;fill-opacity:1;stroke:#008400;stroke-width:0;stroke-linecap:round;stroke-linejoin:round;stroke-opacity:1"
     id="g560"
     transform="translate(-58643.066,-28421.953)" />
  <g
     style="fill:#008400;fill-opacity:1;stroke:#008400;stroke-width:100;stroke-linecap:round;stroke-linejoin:round;stroke-opacity:1"
     id="g562"
     transform="translate(-58643.066,-28421.953)">
    <circle
       cx="61500"
       cy="29000"
       r="200"
       id="circle564" />
  </g>
</svg>
