<?xml version="1.0" encoding="UTF-8" standalone="no"?>
<svg
   xmlns:dc="http://purl.org/dc/elements/1.1/"
   xmlns:cc="http://creativecommons.org/ns#"
   xmlns:rdf="http://www.w3.org/1999/02/22-rdf-syntax-ns#"
   xmlns:svg="http://www.w3.org/2000/svg"
   xmlns="http://www.w3.org/2000/svg"
   xmlns:sodipodi="http://sodipodi.sourceforge.net/DTD/sodipodi-0.dtd"
   xmlns:inkscape="http://www.inkscape.org/namespaces/inkscape"
   version="1.1"
   width="4.3807564cm"
   height="2.6944447cm"
   viewBox="0 0 17247.072 10608.05"
   id="svg2"
   inkscape:version="0.91 r13725"
   sodipodi:docname="simple_pmos_current_mirror.svg">
  <metadata
     id="metadata480">
    <rdf:RDF>
      <cc:Work
         rdf:about="">
        <dc:format>image/svg+xml</dc:format>
        <dc:type
           rdf:resource="http://purl.org/dc/dcmitype/StillImage" />
        <dc:title>SVG Picture created as simple_pmos_current_mirror.svg date 2020/06/29 12:26:06 </dc:title>
      </cc:Work>
    </rdf:RDF>
  </metadata>
  <defs
     id="defs478" />
  <sodipodi:namedview
     pagecolor="#ffffff"
     bordercolor="#666666"
     borderopacity="1"
     objecttolerance="10"
     gridtolerance="10"
     guidetolerance="10"
     inkscape:pageopacity="1"
     inkscape:pageshadow="2"
     inkscape:window-width="1920"
     inkscape:window-height="1057"
     id="namedview476"
     showgrid="false"
     fit-margin-top="0"
     fit-margin-left="0"
     fit-margin-right="0"
     fit-margin-bottom="0"
     inkscape:zoom="4.317873"
     inkscape:cx="117.41597"
     inkscape:cy="63.504978"
     inkscape:window-x="1280"
     inkscape:window-y="0"
     inkscape:window-maximized="1"
     inkscape:current-layer="svg2" />
  <title
     id="title4">SVG Picture created as simple_pmos_current_mirror.svg date 2020/06/29 12:26:06 </title>
  <desc
     id="desc6">Picture generated by Eeschema-SVG </desc>
  <g
     style="fill:#000000;fill-opacity:1;stroke:#000000;stroke-linecap:round;stroke-linejoin:round;stroke-opacity:1"
     id="g8"
     transform="translate(-47143.066,-29421.953)" />
  <g
     style="fill:#000000;fill-opacity:0;stroke:#000000;stroke-width:0;stroke-linecap:round;stroke-linejoin:round;stroke-opacity:1"
     id="g10"
     transform="translate(-47143.066,-29421.953)">
    <g
       id="g12" />
    <g
       style="fill:#840000;fill-opacity:0;stroke:#840000;stroke-width:0;stroke-linecap:round;stroke-linejoin:round;stroke-opacity:1"
       id="g14" />
    <g
       style="fill:#840000;fill-opacity:0;stroke:#840000;stroke-width:60;stroke-linecap:round;stroke-linejoin:round;stroke-opacity:1"
       id="g16">
      <circle
         cx="49000"
         cy="30000"
         r="500"
         id="circle18" />
      <path
         style="fill:none;fill-opacity:0;stroke:#840000;stroke-width:60;stroke-linecap:round;stroke-linejoin:round;stroke-opacity:1"
         d="m 49000,30250 0,-500"
         id="path20"
         inkscape:connector-curvature="0" />
      <path
         style="fill:none;fill-opacity:0;stroke:#840000;stroke-width:60;stroke-linecap:round;stroke-linejoin:round;stroke-opacity:1"
         d="m 50000,30000 -500,0"
         id="path22"
         inkscape:connector-curvature="0" />
      <path
         style="fill:none;fill-opacity:0;stroke:#840000;stroke-width:60;stroke-linecap:round;stroke-linejoin:round;stroke-opacity:1"
         d="m 49250,30000 -500,0"
         id="path24"
         inkscape:connector-curvature="0" />
      <path
         d="m 50000,30000 0,0"
         id="path26"
         inkscape:connector-curvature="0" />
    </g>
    <g
       style="fill:#008484;fill-opacity:0;stroke:#008484;stroke-width:60;stroke-linecap:round;stroke-linejoin:round;stroke-opacity:1"
       id="g28">
      <text
         x="47670"
         y="30220"
         textLength="1110"
         font-size="660"
         lengthAdjust="spacingAndGlyphs"
         id="text30"
         style="font-size:660px;text-anchor:middle;opacity:0">V+</text>
      <path
         d="m 47190,29690 170,500 160,-500"
         id="path32"
         inkscape:connector-curvature="0" />
      <path
         d="m 47690,30000 380,0"
         id="path34"
         inkscape:connector-curvature="0" />
      <path
         d="m 47880,30190 0,-380"
         id="path36"
         inkscape:connector-curvature="0" />
    </g>
  </g>
  <g
     style="fill:#008484;fill-opacity:0;stroke:#008484;stroke-width:0;stroke-linecap:round;stroke-linejoin:round;stroke-opacity:1"
     id="g38"
     transform="translate(-47143.066,-29421.953)">
    <g
       id="g40" />
    <g
       style="fill:#840000;fill-opacity:0;stroke:#840000;stroke-width:0;stroke-linecap:round;stroke-linejoin:round;stroke-opacity:1"
       id="g42" />
    <g
       style="fill:#840000;fill-opacity:0;stroke:#840000;stroke-width:60;stroke-linecap:round;stroke-linejoin:round;stroke-opacity:1"
       id="g44">
      <circle
         cx="53000"
         cy="36250"
         r="750"
         id="circle46" />
      <path
         style="fill:none;fill-opacity:0;stroke:#840000;stroke-width:60;stroke-linecap:round;stroke-linejoin:round;stroke-opacity:1"
         d="m 53000,37000 0,250"
         id="path48"
         inkscape:connector-curvature="0" />
      <path
         style="fill:none;fill-opacity:0;stroke:#840000;stroke-width:60;stroke-linecap:round;stroke-linejoin:round;stroke-opacity:1"
         d="m 53000,35500 0,-250"
         id="path50"
         inkscape:connector-curvature="0" />
    </g>
    <g
       style="fill:#840000;fill-opacity:1;stroke:#840000;stroke-width:60;stroke-linecap:round;stroke-linejoin:round;stroke-opacity:1"
       id="g52">
      <path
         style="fill:#840000;fill-opacity:1;fill-rule:evenodd;stroke:#840000;stroke-width:60;stroke-linecap:round;stroke-linejoin:round;stroke-opacity:1"
         d="m 53000,35750 0,1000 -250,-500 500,0 -250,500"
         id="path54"
         inkscape:connector-curvature="0" />
    </g>
    <g
       style="fill:#840000;fill-opacity:0;stroke:#840000;stroke-width:60;stroke-linecap:round;stroke-linejoin:round;stroke-opacity:1"
       id="g56">
      <path
         d="m 53000,35250 0,0"
         id="path58"
         inkscape:connector-curvature="0" />
      <path
         d="m 53000,37250 0,0"
         id="path60"
         inkscape:connector-curvature="0" />
    </g>
    <g
       style="fill:#008484;fill-opacity:0;stroke:#008484;stroke-width:60;stroke-linecap:round;stroke-linejoin:round;stroke-opacity:1"
       id="g62">
      <text
         x="54410"
         y="36060"
         textLength="770"
         font-size="660"
         lengthAdjust="spacingAndGlyphs"
         id="text64"
         style="font-size:660px;text-anchor:middle;opacity:0">I1</text>
      <path
         d="m 54170,36030 0,-500"
         id="path66"
         inkscape:connector-curvature="0" />
      <path
         d="m 54670,36030 -290,0"
         id="path68"
         inkscape:connector-curvature="0" />
      <path
         d="m 54520,36030 0,-500 -40,70 -50,50 -50,20"
         id="path70"
         inkscape:connector-curvature="0" />
      <text
         x="54970"
         y="36970"
         textLength="1890"
         font-size="660"
         lengthAdjust="spacingAndGlyphs"
         id="text72"
         style="font-size:660px;text-anchor:middle;opacity:0">50uA</text>
      <path
         d="m 54410,36440 -240,0 -30,240 30,-20 50,-30 110,0 50,30 30,20 20,50 0,120 -20,40 -30,30 -50,20 -110,0 -50,-20 -30,-30"
         id="path74"
         inkscape:connector-curvature="0" />
      <path
         d="m 54740,36440 50,0 40,30 30,20 20,50 30,90 0,120 -30,100 -20,40 -30,30 -40,20 -50,0 -50,-20 -20,-30 -30,-40 -20,-100 0,-120 20,-90 30,-50 20,-20 50,-30"
         id="path76"
         inkscape:connector-curvature="0" />
      <path
         d="m 55330,36610 0,330"
         id="path78"
         inkscape:connector-curvature="0" />
      <path
         d="m 55120,36610 0,260 20,50 50,20 70,0 50,-20 20,-30"
         id="path80"
         inkscape:connector-curvature="0" />
      <path
         d="m 55550,36800 240,0"
         id="path82"
         inkscape:connector-curvature="0" />
      <path
         d="m 55500,36940 170,-500 160,500"
         id="path84"
         inkscape:connector-curvature="0" />
    </g>
  </g>
  <g
     style="fill:#008484;fill-opacity:0;stroke:#008484;stroke-width:0;stroke-linecap:round;stroke-linejoin:round;stroke-opacity:1"
     id="g86"
     transform="translate(-47143.066,-29421.953)">
    <g
       id="g88" />
    <g
       style="fill:#840000;fill-opacity:0;stroke:#840000;stroke-width:0;stroke-linecap:round;stroke-linejoin:round;stroke-opacity:1"
       id="g90" />
    <g
       style="fill:#840000;fill-opacity:0;stroke:#840000;stroke-width:60;stroke-linecap:round;stroke-linejoin:round;stroke-opacity:1"
       id="g92">
      <circle
         cx="61250"
         cy="32500"
         r="750"
         id="circle94" />
      <path
         style="fill:none;fill-opacity:0;stroke:#840000;stroke-width:60;stroke-linecap:round;stroke-linejoin:round;stroke-opacity:1"
         d="m 61000,32850 500,0"
         id="path96"
         inkscape:connector-curvature="0" />
      <path
         style="fill:none;fill-opacity:0;stroke:#840000;stroke-width:60;stroke-linecap:round;stroke-linejoin:round;stroke-opacity:1"
         d="m 61250,33250 0,250"
         id="path98"
         inkscape:connector-curvature="0" />
      <path
         style="fill:none;fill-opacity:0;stroke:#840000;stroke-width:60;stroke-linecap:round;stroke-linejoin:round;stroke-opacity:1"
         d="m 61250,32500 0,-500"
         id="path100"
         inkscape:connector-curvature="0" />
      <path
         style="fill:none;fill-opacity:0;stroke:#840000;stroke-width:60;stroke-linecap:round;stroke-linejoin:round;stroke-opacity:1"
         d="m 61250,31750 0,-250"
         id="path102"
         inkscape:connector-curvature="0" />
      <path
         style="fill:none;fill-opacity:0;stroke:#840000;stroke-width:60;stroke-linecap:round;stroke-linejoin:round;stroke-opacity:1"
         d="m 61500,32250 -500,0"
         id="path104"
         inkscape:connector-curvature="0" />
      <path
         d="m 61250,31500 0,0"
         id="path106"
         inkscape:connector-curvature="0" />
      <path
         d="m 61250,33500 0,0"
         id="path108"
         inkscape:connector-curvature="0" />
    </g>
    <g
       style="fill:#008484;fill-opacity:0;stroke:#008484;stroke-width:60;stroke-linecap:round;stroke-linejoin:round;stroke-opacity:1"
       id="g110">
      <text
         x="62760"
         y="32310"
         textLength="960"
         font-size="660"
         lengthAdjust="spacingAndGlyphs"
         id="text112"
         style="font-size:660px;text-anchor:middle;opacity:0">V2</text>
      <path
         d="m 62350,31780 170,500 160,-500"
         id="path114"
         inkscape:connector-curvature="0" />
      <path
         d="m 62830,31830 20,-20 50,-30 120,0 40,30 30,20 20,50 0,40 -20,80 -290,280 310,0"
         id="path116"
         inkscape:connector-curvature="0" />
      <text
         x="63360"
         y="33220"
         textLength="2160"
         font-size="660"
         lengthAdjust="spacingAndGlyphs"
         id="text118"
         style="font-size:660px;text-anchor:middle;opacity:0">0.56V</text>
      <path
         d="m 62520,32690 50,0 50,30 20,20 20,50 30,90 0,120 -30,100 -20,40 -20,30 -50,20 -50,0 -50,-20 -20,-30 -20,-40 -30,-100 0,-120 30,-90 20,-50 20,-20 50,-30"
         id="path120"
         inkscape:connector-curvature="0" />
      <path
         d="m 62900,33140 30,30 -30,20 -20,-20 20,-30 0,50"
         id="path122"
         inkscape:connector-curvature="0" />
      <path
         d="m 63380,32690 -240,0 -20,240 20,-20 50,-30 120,0 50,30 20,20 20,50 0,120 -20,40 -20,30 -50,20 -120,0 -50,-20 -20,-30"
         id="path124"
         inkscape:connector-curvature="0" />
      <path
         d="m 63830,32690 -90,0 -50,30 -30,20 -40,70 -30,100 0,190 30,40 20,30 50,20 90,0 50,-20 30,-30 20,-40 0,-120 -20,-50 -30,-20 -50,-30 -90,0 -50,30 -20,20 -30,50"
         id="path126"
         inkscape:connector-curvature="0" />
      <path
         d="m 64020,32690 170,500 170,-500"
         id="path128"
         inkscape:connector-curvature="0" />
    </g>
  </g>
  <g
     style="fill:#008484;fill-opacity:0;stroke:#008484;stroke-width:0;stroke-linecap:round;stroke-linejoin:round;stroke-opacity:1"
     id="g130"
     transform="translate(-47143.066,-29421.953)">
    <g
       id="g132" />
    <g
       style="fill:#840000;fill-opacity:0;stroke:#840000;stroke-width:0;stroke-linecap:round;stroke-linejoin:round;stroke-opacity:1"
       id="g134" />
    <g
       style="fill:#840000;fill-opacity:0;stroke:#840000;stroke-width:60;stroke-linecap:round;stroke-linejoin:round;stroke-opacity:1"
       id="g136">
      <path
         style="fill:none;fill-opacity:0;stroke:#840000;stroke-width:60;stroke-linecap:round;stroke-linejoin:round;stroke-opacity:1"
         d="m 52250,39500 1500,0"
         id="path138"
         inkscape:connector-curvature="0" />
      <path
         style="fill:none;fill-opacity:0;stroke:#840000;stroke-width:60;stroke-linecap:round;stroke-linejoin:round;stroke-opacity:1"
         d="m 52500,39750 1000,0"
         id="path140"
         inkscape:connector-curvature="0" />
      <path
         style="fill:none;fill-opacity:0;stroke:#840000;stroke-width:60;stroke-linecap:round;stroke-linejoin:round;stroke-opacity:1"
         d="m 52750,40000 500,0"
         id="path142"
         inkscape:connector-curvature="0" />
      <path
         style="fill:none;fill-opacity:0;stroke:#840000;stroke-width:60;stroke-linecap:round;stroke-linejoin:round;stroke-opacity:1"
         d="m 53000,38500 0,1000"
         id="path144"
         inkscape:connector-curvature="0" />
      <path
         d="m 53000,38500 0,0"
         id="path146"
         inkscape:connector-curvature="0" />
    </g>
  </g>
  <g
     style="fill:#840000;fill-opacity:0;stroke:#840000;stroke-width:0;stroke-linecap:round;stroke-linejoin:round;stroke-opacity:1"
     id="g148"
     transform="translate(-47143.066,-29421.953)">
    <g
       id="g150" />
    <g
       style="fill:#840000;fill-opacity:0;stroke:#840000;stroke-width:60;stroke-linecap:round;stroke-linejoin:round;stroke-opacity:1"
       id="g152">
      <circle
         cx="50000"
         cy="34000"
         r="750"
         id="circle154" />
      <path
         style="fill:none;fill-opacity:0;stroke:#840000;stroke-width:60;stroke-linecap:round;stroke-linejoin:round;stroke-opacity:1"
         d="m 50250,34350 -500,0"
         id="path156"
         inkscape:connector-curvature="0" />
      <path
         style="fill:none;fill-opacity:0;stroke:#840000;stroke-width:60;stroke-linecap:round;stroke-linejoin:round;stroke-opacity:1"
         d="m 50000,34750 0,250"
         id="path158"
         inkscape:connector-curvature="0" />
      <path
         style="fill:none;fill-opacity:0;stroke:#840000;stroke-width:60;stroke-linecap:round;stroke-linejoin:round;stroke-opacity:1"
         d="m 50000,34000 0,-500"
         id="path160"
         inkscape:connector-curvature="0" />
      <path
         style="fill:none;fill-opacity:0;stroke:#840000;stroke-width:60;stroke-linecap:round;stroke-linejoin:round;stroke-opacity:1"
         d="m 50000,33250 0,-250"
         id="path162"
         inkscape:connector-curvature="0" />
      <path
         style="fill:none;fill-opacity:0;stroke:#840000;stroke-width:60;stroke-linecap:round;stroke-linejoin:round;stroke-opacity:1"
         d="m 49750,33750 500,0"
         id="path164"
         inkscape:connector-curvature="0" />
      <path
         d="m 50000,33000 0,0"
         id="path166"
         inkscape:connector-curvature="0" />
      <path
         d="m 50000,35000 0,0"
         id="path168"
         inkscape:connector-curvature="0" />
    </g>
    <g
       style="fill:#008484;fill-opacity:0;stroke:#008484;stroke-width:60;stroke-linecap:round;stroke-linejoin:round;stroke-opacity:1"
       id="g170">
      <text
         x="48490"
         y="33810"
         textLength="960"
         font-size="660"
         lengthAdjust="spacingAndGlyphs"
         id="text172"
         style="font-size:660px;text-anchor:middle;opacity:0">V1</text>
      <path
         d="m 48080,33280 170,500 160,-500"
         id="path174"
         inkscape:connector-curvature="0" />
      <path
         d="m 48840,33780 -280,0"
         id="path176"
         inkscape:connector-curvature="0" />
      <path
         d="m 48700,33780 0,-500 -50,70 -50,50 -40,20"
         id="path178"
         inkscape:connector-curvature="0" />
      <text
         x="48130"
         y="34720"
         textLength="1680"
         font-size="660"
         lengthAdjust="spacingAndGlyphs"
         id="text180"
         style="font-size:660px;text-anchor:middle;opacity:0">1.3V</text>
      <path
         d="m 47700,34690 -290,0"
         id="path182"
         inkscape:connector-curvature="0" />
      <path
         d="m 47550,34690 0,-500 -40,70 -50,50 -50,20"
         id="path184"
         inkscape:connector-curvature="0" />
      <path
         d="m 47910,34640 20,30 -20,20 -20,-20 20,-30 0,50"
         id="path186"
         inkscape:connector-curvature="0" />
      <path
         d="m 48100,34190 310,0 -170,190 80,0 40,30 30,20 20,50 0,120 -20,40 -30,30 -40,20 -150,0 -40,-20 -30,-30"
         id="path188"
         inkscape:connector-curvature="0" />
      <path
         d="m 48550,34190 170,500 170,-500"
         id="path190"
         inkscape:connector-curvature="0" />
    </g>
  </g>
  <g
     style="fill:#008484;fill-opacity:0;stroke:#008484;stroke-width:0;stroke-linecap:round;stroke-linejoin:round;stroke-opacity:1"
     id="g192"
     transform="translate(-47143.066,-29421.953)">
    <g
       id="g194" />
    <g
       style="fill:#840000;fill-opacity:0;stroke:#840000;stroke-width:0;stroke-linecap:round;stroke-linejoin:round;stroke-opacity:1"
       id="g196" />
    <g
       style="fill:#840000;fill-opacity:0;stroke:#840000;stroke-width:60;stroke-linecap:round;stroke-linejoin:round;stroke-opacity:1"
       id="g198">
      <circle
         cx="54150"
         cy="32500"
         r="150"
         id="circle200" />
      <path
         style="fill:none;fill-opacity:0;stroke:#840000;stroke-width:60;stroke-linecap:round;stroke-linejoin:round;stroke-opacity:1"
         d="m 53750,32500 -750,0"
         id="path202"
         inkscape:connector-curvature="0" />
      <path
         style="fill:none;fill-opacity:0;stroke:#840000;stroke-width:60;stroke-linecap:round;stroke-linejoin:round;stroke-opacity:1"
         d="m 54300,32500 450,0"
         id="path204"
         inkscape:connector-curvature="0" />
      <path
         style="fill:none;fill-opacity:0;stroke:#840000;stroke-width:60;stroke-linecap:round;stroke-linejoin:round;stroke-opacity:1"
         d="m 54000,33000 0,-1000"
         id="path206"
         inkscape:connector-curvature="0" />
      <path
         style="fill:none;fill-opacity:0;stroke:#840000;stroke-width:60;stroke-linecap:round;stroke-linejoin:round;stroke-opacity:1"
         d="m 53750,33000 0,-1000"
         id="path208"
         inkscape:connector-curvature="0" />
      <path
         style="fill:none;fill-opacity:0;stroke:#840000;stroke-width:60;stroke-linecap:round;stroke-linejoin:round;stroke-opacity:1"
         d="m 53750,33000 -750,0"
         id="path210"
         inkscape:connector-curvature="0" />
      <path
         style="fill:none;fill-opacity:0;stroke:#840000;stroke-width:60;stroke-linecap:round;stroke-linejoin:round;stroke-opacity:1"
         d="m 53750,32000 -750,0"
         id="path212"
         inkscape:connector-curvature="0" />
      <path
         style="fill:none;fill-opacity:0;stroke:#840000;stroke-width:60;stroke-linecap:round;stroke-linejoin:round;stroke-opacity:1"
         d="m 53000,33000 0,500"
         id="path214"
         inkscape:connector-curvature="0" />
      <path
         style="fill:none;fill-opacity:0;stroke:#840000;stroke-width:60;stroke-linecap:round;stroke-linejoin:round;stroke-opacity:1"
         d="m 53000,32000 0,-500"
         id="path216"
         inkscape:connector-curvature="0" />
      <path
         style="fill:none;fill-opacity:0;stroke:#840000;stroke-width:60;stroke-linecap:round;stroke-linejoin:round;stroke-opacity:1"
         d="m 53200,31800 300,200 -300,200"
         id="path218"
         inkscape:connector-curvature="0" />
      <path
         d="m 53000,32500 0,0"
         id="path220"
         inkscape:connector-curvature="0" />
      <path
         d="m 53000,33500 0,0"
         id="path222"
         inkscape:connector-curvature="0" />
      <path
         d="m 54750,32500 0,0"
         id="path224"
         inkscape:connector-curvature="0" />
      <path
         d="m 53000,31500 0,0"
         id="path226"
         inkscape:connector-curvature="0" />
    </g>
    <g
       style="fill:#008484;fill-opacity:0;stroke:#008484;stroke-width:60;stroke-linecap:round;stroke-linejoin:round;stroke-opacity:1"
       id="g228">
      <text
         x="52300"
         y="32270"
         textLength="1110"
         font-size="660"
         lengthAdjust="spacingAndGlyphs"
         id="text230"
         style="font-size:660px;text-anchor:middle;opacity:0">M1</text>
      <path
         d="m 51890,32240 0,-500 170,360 160,-360 0,500"
         id="path232"
         inkscape:connector-curvature="0" />
      <path
         d="m 52720,32240 -280,0"
         id="path234"
         inkscape:connector-curvature="0" />
      <path
         d="m 52580,32240 0,-500 -50,70 -40,50 -50,20"
         id="path236"
         inkscape:connector-curvature="0" />
      <text
         x="52490"
         y="31270"
         textLength="4990"
         font-size="660"
         lengthAdjust="spacingAndGlyphs"
         id="text238"
         style="font-size:660px;text-anchor:middle;opacity:0">W=50u L=2u</text>
      <path
         d="m 50090,30740 120,500 100,-360 90,360 120,-500"
         id="path240"
         inkscape:connector-curvature="0" />
      <path
         d="m 50710,30980 380,0"
         id="path242"
         inkscape:connector-curvature="0" />
      <path
         d="m 51090,31120 -380,0"
         id="path244"
         inkscape:connector-curvature="0" />
      <path
         d="m 51570,30740 -240,0 -20,240 20,-20 50,-30 120,0 40,30 30,20 20,50 0,120 -20,40 -30,30 -40,20 -120,0 -50,-20 -20,-30"
         id="path246"
         inkscape:connector-curvature="0" />
      <path
         d="m 51900,30740 50,0 50,30 20,20 20,50 30,90 0,120 -30,100 -20,40 -20,30 -50,20 -50,0 -50,-20 -20,-30 -20,-40 -30,-100 0,-120 30,-90 20,-50 20,-20 50,-30"
         id="path248"
         inkscape:connector-curvature="0" />
      <path
         d="m 52500,30910 0,330"
         id="path250"
         inkscape:connector-curvature="0" />
      <path
         d="m 52280,30910 0,260 30,50 40,20 80,0 40,-20 30,-30"
         id="path252"
         inkscape:connector-curvature="0" />
      <path
         d="m 53350,31240 -230,0 0,-500"
         id="path254"
         inkscape:connector-curvature="0" />
      <path
         d="m 53520,30980 380,0"
         id="path256"
         inkscape:connector-curvature="0" />
      <path
         d="m 53900,31120 -380,0"
         id="path258"
         inkscape:connector-curvature="0" />
      <path
         d="m 54120,30790 20,-20 50,-30 120,0 40,30 30,20 20,50 0,40 -20,80 -290,280 310,0"
         id="path260"
         inkscape:connector-curvature="0" />
      <path
         d="m 54830,30910 0,330"
         id="path262"
         inkscape:connector-curvature="0" />
      <path
         d="m 54620,30910 0,260 20,50 50,20 70,0 50,-20 20,-30"
         id="path264"
         inkscape:connector-curvature="0" />
    </g>
  </g>
  <g
     style="fill:#008484;fill-opacity:0;stroke:#008484;stroke-width:0;stroke-linecap:round;stroke-linejoin:round;stroke-opacity:1"
     id="g266"
     transform="translate(-47143.066,-29421.953)">
    <g
       id="g268" />
    <g
       style="fill:#840000;fill-opacity:0;stroke:#840000;stroke-width:0;stroke-linecap:round;stroke-linejoin:round;stroke-opacity:1"
       id="g270" />
    <g
       style="fill:#840000;fill-opacity:0;stroke:#840000;stroke-width:60;stroke-linecap:round;stroke-linejoin:round;stroke-opacity:1"
       id="g272">
      <circle
         cx="56850"
         cy="32500"
         r="150"
         id="circle274" />
      <path
         style="fill:none;fill-opacity:0;stroke:#840000;stroke-width:60;stroke-linecap:round;stroke-linejoin:round;stroke-opacity:1"
         d="m 57250,32500 750,0"
         id="path276"
         inkscape:connector-curvature="0" />
      <path
         style="fill:none;fill-opacity:0;stroke:#840000;stroke-width:60;stroke-linecap:round;stroke-linejoin:round;stroke-opacity:1"
         d="m 56700,32500 -450,0"
         id="path278"
         inkscape:connector-curvature="0" />
      <path
         style="fill:none;fill-opacity:0;stroke:#840000;stroke-width:60;stroke-linecap:round;stroke-linejoin:round;stroke-opacity:1"
         d="m 57000,33000 0,-1000"
         id="path280"
         inkscape:connector-curvature="0" />
      <path
         style="fill:none;fill-opacity:0;stroke:#840000;stroke-width:60;stroke-linecap:round;stroke-linejoin:round;stroke-opacity:1"
         d="m 57250,33000 0,-1000"
         id="path282"
         inkscape:connector-curvature="0" />
      <path
         style="fill:none;fill-opacity:0;stroke:#840000;stroke-width:60;stroke-linecap:round;stroke-linejoin:round;stroke-opacity:1"
         d="m 57250,33000 750,0"
         id="path284"
         inkscape:connector-curvature="0" />
      <path
         style="fill:none;fill-opacity:0;stroke:#840000;stroke-width:60;stroke-linecap:round;stroke-linejoin:round;stroke-opacity:1"
         d="m 57250,32000 750,0"
         id="path286"
         inkscape:connector-curvature="0" />
      <path
         style="fill:none;fill-opacity:0;stroke:#840000;stroke-width:60;stroke-linecap:round;stroke-linejoin:round;stroke-opacity:1"
         d="m 58000,33000 0,500"
         id="path288"
         inkscape:connector-curvature="0" />
      <path
         style="fill:none;fill-opacity:0;stroke:#840000;stroke-width:60;stroke-linecap:round;stroke-linejoin:round;stroke-opacity:1"
         d="m 58000,32000 0,-500"
         id="path290"
         inkscape:connector-curvature="0" />
      <path
         style="fill:none;fill-opacity:0;stroke:#840000;stroke-width:60;stroke-linecap:round;stroke-linejoin:round;stroke-opacity:1"
         d="m 57800,31800 -300,200 300,200"
         id="path292"
         inkscape:connector-curvature="0" />
      <path
         d="m 58000,32500 0,0"
         id="path294"
         inkscape:connector-curvature="0" />
      <path
         d="m 58000,33500 0,0"
         id="path296"
         inkscape:connector-curvature="0" />
      <path
         d="m 56250,32500 0,0"
         id="path298"
         inkscape:connector-curvature="0" />
      <path
         d="m 58000,31500 0,0"
         id="path300"
         inkscape:connector-curvature="0" />
    </g>
    <g
       style="fill:#008484;fill-opacity:0;stroke:#008484;stroke-width:60;stroke-linecap:round;stroke-linejoin:round;stroke-opacity:1"
       id="g302">
      <text
         x="58690"
         y="32270"
         textLength="1110"
         font-size="660"
         lengthAdjust="spacingAndGlyphs"
         id="text304"
         style="font-size:660px;text-anchor:middle;opacity:0">M2</text>
      <path
         d="m 58280,32240 0,-500 170,360 160,-360 0,500"
         id="path306"
         inkscape:connector-curvature="0" />
      <path
         d="m 58830,31790 20,-20 50,-30 120,0 50,30 20,20 20,50 0,40 -20,80 -290,280 310,0"
         id="path308"
         inkscape:connector-curvature="0" />
      <text
         x="57750"
         y="31270"
         textLength="4990"
         font-size="660"
         lengthAdjust="spacingAndGlyphs"
         id="text310"
         style="font-size:660px;text-anchor:middle;opacity:0">W=50u L=2u</text>
      <path
         d="m 55350,30740 120,500 100,-360 90,360 120,-500"
         id="path312"
         inkscape:connector-curvature="0" />
      <path
         d="m 55970,30980 380,0"
         id="path314"
         inkscape:connector-curvature="0" />
      <path
         d="m 56350,31120 -380,0"
         id="path316"
         inkscape:connector-curvature="0" />
      <path
         d="m 56830,30740 -240,0 -20,240 20,-20 50,-30 120,0 40,30 30,20 20,50 0,120 -20,40 -30,30 -40,20 -120,0 -50,-20 -20,-30"
         id="path318"
         inkscape:connector-curvature="0" />
      <path
         d="m 57160,30740 50,0 50,30 20,20 20,50 30,90 0,120 -30,100 -20,40 -20,30 -50,20 -50,0 -50,-20 -20,-30 -20,-40 -30,-100 0,-120 30,-90 20,-50 20,-20 50,-30"
         id="path320"
         inkscape:connector-curvature="0" />
      <path
         d="m 57760,30910 0,330"
         id="path322"
         inkscape:connector-curvature="0" />
      <path
         d="m 57540,30910 0,260 30,50 40,20 80,0 40,-20 30,-30"
         id="path324"
         inkscape:connector-curvature="0" />
      <path
         d="m 58610,31240 -230,0 0,-500"
         id="path326"
         inkscape:connector-curvature="0" />
      <path
         d="m 58780,30980 380,0"
         id="path328"
         inkscape:connector-curvature="0" />
      <path
         d="m 59160,31120 -380,0"
         id="path330"
         inkscape:connector-curvature="0" />
      <path
         d="m 59380,30790 20,-20 50,-30 120,0 40,30 30,20 20,50 0,40 -20,80 -290,280 310,0"
         id="path332"
         inkscape:connector-curvature="0" />
      <path
         d="m 60090,30910 0,330"
         id="path334"
         inkscape:connector-curvature="0" />
      <path
         d="m 59880,30910 0,260 20,50 50,20 70,0 50,-20 20,-30"
         id="path336"
         inkscape:connector-curvature="0" />
    </g>
  </g>
  <g
     style="fill:#008484;fill-opacity:0;stroke:#008484;stroke-width:60;stroke-linecap:round;stroke-linejoin:round;stroke-opacity:1"
     id="g338"
     transform="translate(-47143.066,-29421.953)" />
  <g
     style="fill:#008400;fill-opacity:0;stroke:#008400;stroke-width:60;stroke-linecap:round;stroke-linejoin:round;stroke-opacity:1"
     id="g340"
     transform="translate(-47143.066,-29421.953)">
    <path
       d="m 53000,38000 0,-750"
       id="path342"
       inkscape:connector-curvature="0" />
    <path
       d="m 58000,32500 0,-1000"
       id="path344"
       inkscape:connector-curvature="0" />
    <path
       d="m 53000,38000 -3000,0"
       id="path346"
       inkscape:connector-curvature="0" />
    <path
       d="m 53000,38500 0,-500"
       id="path348"
       inkscape:connector-curvature="0" />
    <path
       d="m 50000,33000 0,-3000"
       id="path350"
       inkscape:connector-curvature="0" />
    <path
       d="m 61250,33500 0,1500"
       id="path352"
       inkscape:connector-curvature="0" />
    <path
       d="m 50000,35000 0,3000"
       id="path354"
       inkscape:connector-curvature="0" />
    <path
       d="m 61250,31500 0,-1500"
       id="path356"
       inkscape:connector-curvature="0" />
    <path
       d="m 61250,30000 -3250,0"
       id="path358"
       inkscape:connector-curvature="0" />
    <path
       d="m 58000,33500 0,1500"
       id="path360"
       inkscape:connector-curvature="0" />
    <path
       d="m 61250,35000 -3250,0"
       id="path362"
       inkscape:connector-curvature="0" />
    <path
       d="m 58000,30000 0,1500"
       id="path364"
       inkscape:connector-curvature="0" />
    <path
       d="m 53000,35000 0,250"
       id="path366"
       inkscape:connector-curvature="0" />
    <path
       d="m 53000,30000 0,1500"
       id="path368"
       inkscape:connector-curvature="0" />
    <path
       d="m 53000,32500 0,-1000"
       id="path370"
       inkscape:connector-curvature="0" />
    <path
       d="m 55500,32500 750,0"
       id="path372"
       inkscape:connector-curvature="0" />
    <path
       d="m 55500,32500 0,2500"
       id="path374"
       inkscape:connector-curvature="0" />
    <path
       d="m 53000,30000 5000,0"
       id="path376"
       inkscape:connector-curvature="0" />
    <path
       d="m 54750,32500 750,0"
       id="path378"
       inkscape:connector-curvature="0" />
    <path
       d="m 53000,30000 -3000,0"
       id="path380"
       inkscape:connector-curvature="0" />
    <path
       d="m 53000,33500 0,1500"
       id="path382"
       inkscape:connector-curvature="0" />
    <path
       d="m 53000,35000 2500,0"
       id="path384"
       inkscape:connector-curvature="0" />
  </g>
  <g
     style="fill:#000000;fill-opacity:0;stroke:#000000;stroke-width:60;stroke-linecap:round;stroke-linejoin:round;stroke-opacity:1"
     id="g386"
     transform="translate(-47143.066,-29421.953)">
    <text
       x="53750"
       y="34900"
       textLength="1170"
       font-size="800"
       lengthAdjust="spacingAndGlyphs"
       id="text388"
       style="font-size:800px;text-anchor:start;opacity:0">n1</text>
    <path
       d="m 53920,34470 0,400"
       id="path390"
       inkscape:connector-curvature="0" />
    <path
       d="m 53920,34520 30,-20 50,-30 90,0 60,30 30,50 0,320"
       id="path392"
       inkscape:connector-curvature="0" />
    <path
       d="m 54780,34870 -350,0"
       id="path394"
       inkscape:connector-curvature="0" />
    <path
       d="m 54600,34870 0,-600 -50,80 -60,60 -60,30"
       id="path396"
       inkscape:connector-curvature="0" />
    <text
       x="58000"
       y="34900"
       textLength="1170"
       font-size="800"
       lengthAdjust="spacingAndGlyphs"
       id="text398"
       style="font-size:800px;text-anchor:start;opacity:0">n2</text>
    <path
       d="m 58170,34470 0,400"
       id="path400"
       inkscape:connector-curvature="0" />
    <path
       d="m 58170,34520 30,-20 50,-30 90,0 60,30 30,50 0,320"
       id="path402"
       inkscape:connector-curvature="0" />
    <path
       d="m 58680,34320 30,-20 60,-30 140,0 60,30 30,20 30,60 0,60 -30,80 -350,350 380,0"
       id="path404"
       inkscape:connector-curvature="0" />
    <text
       x="52250"
       y="37900"
       textLength="630"
       font-size="800"
       lengthAdjust="spacingAndGlyphs"
       id="text406"
       style="font-size:800px;text-anchor:start;opacity:0">0</text>
    <path
       d="m 52530,37270 60,0 60,30 30,20 20,60 30,120 0,140 -30,110 -20,60 -30,30 -60,30 -60,0 -50,-30 -30,-30 -30,-60 -30,-110 0,-140 30,-120 30,-60 30,-20 50,-30"
       id="path408"
       inkscape:connector-curvature="0" />
    <text
       x="53250"
       y="29900"
       textLength="2630"
       font-size="800"
       lengthAdjust="spacingAndGlyphs"
       id="text410"
       style="font-size:800px;text-anchor:start;opacity:0">n_pos</text>
    <path
       d="m 53420,29470 0,400"
       id="path412"
       inkscape:connector-curvature="0" />
    <path
       d="m 53420,29520 30,-20 50,-30 90,0 60,30 30,50 0,320"
       id="path414"
       inkscape:connector-curvature="0" />
    <path
       d="m 53820,29920 460,0"
       id="path416"
       inkscape:connector-curvature="0" />
    <path
       d="m 54420,29470 0,600"
       id="path418"
       inkscape:connector-curvature="0" />
    <path
       d="m 54420,29500 60,-30 110,0 60,30 30,20 20,60 0,170 -20,60 -30,30 -60,30 -110,0 -60,-30"
       id="path420"
       inkscape:connector-curvature="0" />
    <path
       d="m 55050,29870 -60,-30 -30,-30 -30,-60 0,-170 30,-60 30,-20 60,-30 80,0 60,30 30,20 30,60 0,170 -30,60 -30,30 -60,30 -80,0"
       id="path422"
       inkscape:connector-curvature="0" />
    <path
       d="m 55480,29840 50,30 120,0 50,-30 30,-60 0,-30 -30,-50 -50,-30 -90,0 -60,-30 -20,-60 0,-30 20,-50 60,-30 90,0 50,30"
       id="path424"
       inkscape:connector-curvature="0" />
  </g>
  <g
     style="fill:#000000;fill-opacity:0;stroke:#000000;stroke-width:0;stroke-linecap:round;stroke-linejoin:round;stroke-opacity:1"
     id="g426"
     transform="translate(-47143.066,-29421.953)" />
  <g
     style="fill:#008400;fill-opacity:0;stroke:#008400;stroke-width:0;stroke-linecap:round;stroke-linejoin:round;stroke-opacity:1"
     id="g428"
     transform="translate(-47143.066,-29421.953)" />
  <g
     style="fill:#008400;fill-opacity:1;stroke:#008400;stroke-width:100;stroke-linecap:round;stroke-linejoin:round;stroke-opacity:1"
     id="g430"
     transform="translate(-47143.066,-29421.953)">
    <circle
       cx="58000"
       cy="30000"
       r="200"
       id="circle432" />
  </g>
  <g
     style="fill:#008400;fill-opacity:1;stroke:#008400;stroke-width:0;stroke-linecap:round;stroke-linejoin:round;stroke-opacity:1"
     id="g434"
     transform="translate(-47143.066,-29421.953)" />
  <g
     style="fill:#008400;fill-opacity:1;stroke:#008400;stroke-width:100;stroke-linecap:round;stroke-linejoin:round;stroke-opacity:1"
     id="g436"
     transform="translate(-47143.066,-29421.953)">
    <circle
       cx="50000"
       cy="30000"
       r="200"
       id="circle438" />
  </g>
  <g
     style="fill:#008400;fill-opacity:1;stroke:#008400;stroke-width:0;stroke-linecap:round;stroke-linejoin:round;stroke-opacity:1"
     id="g440"
     transform="translate(-47143.066,-29421.953)" />
  <g
     style="fill:#008400;fill-opacity:1;stroke:#008400;stroke-width:100;stroke-linecap:round;stroke-linejoin:round;stroke-opacity:1"
     id="g442"
     transform="translate(-47143.066,-29421.953)">
    <circle
       cx="53000"
       cy="30000"
       r="200"
       id="circle444" />
  </g>
  <g
     style="fill:#008400;fill-opacity:1;stroke:#008400;stroke-width:0;stroke-linecap:round;stroke-linejoin:round;stroke-opacity:1"
     id="g446"
     transform="translate(-47143.066,-29421.953)" />
  <g
     style="fill:#008400;fill-opacity:1;stroke:#008400;stroke-width:100;stroke-linecap:round;stroke-linejoin:round;stroke-opacity:1"
     id="g448"
     transform="translate(-47143.066,-29421.953)">
    <circle
       cx="53000"
       cy="38000"
       r="200"
       id="circle450" />
  </g>
  <g
     style="fill:#008400;fill-opacity:1;stroke:#008400;stroke-width:0;stroke-linecap:round;stroke-linejoin:round;stroke-opacity:1"
     id="g452"
     transform="translate(-47143.066,-29421.953)" />
  <g
     style="fill:#008400;fill-opacity:1;stroke:#008400;stroke-width:100;stroke-linecap:round;stroke-linejoin:round;stroke-opacity:1"
     id="g454"
     transform="translate(-47143.066,-29421.953)">
    <circle
       cx="58000"
       cy="31500"
       r="200"
       id="circle456" />
  </g>
  <g
     style="fill:#008400;fill-opacity:1;stroke:#008400;stroke-width:0;stroke-linecap:round;stroke-linejoin:round;stroke-opacity:1"
     id="g458"
     transform="translate(-47143.066,-29421.953)" />
  <g
     style="fill:#008400;fill-opacity:1;stroke:#008400;stroke-width:100;stroke-linecap:round;stroke-linejoin:round;stroke-opacity:1"
     id="g460"
     transform="translate(-47143.066,-29421.953)">
    <circle
       cx="53000"
       cy="35000"
       r="200"
       id="circle462" />
  </g>
  <g
     style="fill:#008400;fill-opacity:1;stroke:#008400;stroke-width:0;stroke-linecap:round;stroke-linejoin:round;stroke-opacity:1"
     id="g464"
     transform="translate(-47143.066,-29421.953)" />
  <g
     style="fill:#008400;fill-opacity:1;stroke:#008400;stroke-width:100;stroke-linecap:round;stroke-linejoin:round;stroke-opacity:1"
     id="g466"
     transform="translate(-47143.066,-29421.953)">
    <circle
       cx="53000"
       cy="31500"
       r="200"
       id="circle468" />
  </g>
  <g
     style="fill:#008400;fill-opacity:1;stroke:#008400;stroke-width:0;stroke-linecap:round;stroke-linejoin:round;stroke-opacity:1"
     id="g470"
     transform="translate(-47143.066,-29421.953)" />
  <g
     style="fill:#008400;fill-opacity:1;stroke:#008400;stroke-width:100;stroke-linecap:round;stroke-linejoin:round;stroke-opacity:1"
     id="g472"
     transform="translate(-47143.066,-29421.953)">
    <circle
       cx="55500"
       cy="32500"
       r="200"
       id="circle474" />
  </g>
</svg>
