<?xml version="1.0" encoding="UTF-8" standalone="no"?>
<svg
   xmlns:dc="http://purl.org/dc/elements/1.1/"
   xmlns:cc="http://creativecommons.org/ns#"
   xmlns:rdf="http://www.w3.org/1999/02/22-rdf-syntax-ns#"
   xmlns:svg="http://www.w3.org/2000/svg"
   xmlns="http://www.w3.org/2000/svg"
   xmlns:sodipodi="http://sodipodi.sourceforge.net/DTD/sodipodi-0.dtd"
   xmlns:inkscape="http://www.inkscape.org/namespaces/inkscape"
   version="1.1"
   width="5.1258588cm"
   height="3.9644444cm"
   viewBox="0 0 20180.546 15608.05"
   id="svg2"
   inkscape:version="0.92.5 (2060ec1f9f, 2020-04-08)"
   sodipodi:docname="sch.svg">
  <metadata
     id="metadata540">
    <rdf:RDF>
      <cc:Work
         rdf:about="">
        <dc:format>image/svg+xml</dc:format>
        <dc:type
           rdf:resource="http://purl.org/dc/dcmitype/StillImage" />
        <dc:title>SVG Picture created as emitter_degeneration_resistors_negative_feedback.svg date 2020/07/02 13:18:17 </dc:title>
      </cc:Work>
    </rdf:RDF>
  </metadata>
  <defs
     id="defs538" />
  <sodipodi:namedview
     pagecolor="#ffffff"
     bordercolor="#666666"
     borderopacity="1"
     objecttolerance="10"
     gridtolerance="10"
     guidetolerance="10"
     inkscape:pageopacity="1"
     inkscape:pageshadow="2"
     inkscape:window-width="1920"
     inkscape:window-height="1030"
     id="namedview536"
     showgrid="false"
     fit-margin-top="0"
     fit-margin-left="0"
     fit-margin-right="0"
     fit-margin-bottom="0"
     inkscape:zoom="3.0531973"
     inkscape:cx="25.197942"
     inkscape:cy="103.27209"
     inkscape:window-x="0"
     inkscape:window-y="0"
     inkscape:window-maximized="1"
     inkscape:current-layer="g148" />
  <title
     id="title4">SVG Picture created as emitter_degeneration_resistors_negative_feedback.svg date 2020/07/02 13:18:17 </title>
  <desc
     id="desc6">Picture generated by Eeschema-SVG </desc>
  <g
     style="fill:#000000;fill-opacity:1;stroke:#000000;stroke-linecap:round;stroke-linejoin:round;stroke-opacity:1"
     id="g8"
     transform="translate(-35179.594,-33921.953)" />
  <g
     style="fill:#000000;fill-opacity:0;stroke:#000000;stroke-width:0;stroke-linecap:round;stroke-linejoin:round;stroke-opacity:1"
     id="g10"
     transform="translate(-35179.594,-33921.953)">
    <g
       id="g12" />
    <g
       style="fill:#840000;fill-opacity:0;stroke:#840000;stroke-width:0;stroke-linecap:round;stroke-linejoin:round;stroke-opacity:1"
       id="g14" />
    <g
       style="fill:#840000;fill-opacity:0;stroke:#840000;stroke-width:60;stroke-linecap:round;stroke-linejoin:round;stroke-opacity:1"
       id="g16">
      <circle
         cx="43500"
         cy="36500"
         r="750"
         id="circle18" />
      <path
         style="fill:none;fill-opacity:0;stroke:#840000;stroke-width:60;stroke-linecap:round;stroke-linejoin:round;stroke-opacity:1"
         d="m 43500,37250 0,250"
         id="path20"
         inkscape:connector-curvature="0" />
      <path
         style="fill:none;fill-opacity:0;stroke:#840000;stroke-width:60;stroke-linecap:round;stroke-linejoin:round;stroke-opacity:1"
         d="m 43500,35750 0,-250"
         id="path22"
         inkscape:connector-curvature="0" />
    </g>
    <g
       style="fill:#840000;fill-opacity:1;stroke:#840000;stroke-width:60;stroke-linecap:round;stroke-linejoin:round;stroke-opacity:1"
       id="g24">
      <path
         style="fill:#840000;fill-opacity:1;fill-rule:evenodd;stroke:#840000;stroke-width:60;stroke-linecap:round;stroke-linejoin:round;stroke-opacity:1"
         d="m 43500,36000 0,1000 -250,-500 500,0 -250,500"
         id="path26"
         inkscape:connector-curvature="0" />
    </g>
    <g
       style="fill:#840000;fill-opacity:0;stroke:#840000;stroke-width:60;stroke-linecap:round;stroke-linejoin:round;stroke-opacity:1"
       id="g28">
      <path
         d="m 43500,35500 0,0"
         id="path30"
         inkscape:connector-curvature="0" />
      <path
         d="m 43500,37500 0,0"
         id="path32"
         inkscape:connector-curvature="0" />
    </g>
    <g
       style="fill:#008484;fill-opacity:0;stroke:#008484;stroke-width:60;stroke-linecap:round;stroke-linejoin:round;stroke-opacity:1"
       id="g34"
       transform="translate(-579.99311,272.93793)">
      <text
         x="45380"
         y="36490"
         textLength="720"
         font-size="660"
         lengthAdjust="spacingAndGlyphs"
         id="text36"
         style="font-size:660px;line-height:0%;text-anchor:middle;opacity:0">I1</text>
      <path
         d="m 45140,36460 v -500"
         id="path38"
         inkscape:connector-curvature="0" />
      <path
         d="m 45640,36460 h -290"
         id="path40"
         inkscape:connector-curvature="0" />
      <path
         d="m 45490,36460 v -500 l -40,70 -50,50 -50,20"
         id="path42"
         inkscape:connector-curvature="0" />
    </g>
  </g>
  <g
     style="fill:#008484;fill-opacity:0;stroke:#008484;stroke-width:0;stroke-linecap:round;stroke-linejoin:round;stroke-opacity:1"
     id="g58"
     transform="translate(-35179.594,-33921.953)">
    <g
       id="g60" />
    <g
       style="fill:#840000;fill-opacity:0;stroke:#840000;stroke-width:0;stroke-linecap:round;stroke-linejoin:round;stroke-opacity:1"
       id="g62" />
    <g
       style="fill:#840000;fill-opacity:0;stroke:#840000;stroke-width:60;stroke-linecap:round;stroke-linejoin:round;stroke-opacity:1"
       id="g64">
      <path
         style="fill:none;fill-opacity:0;stroke:#840000;stroke-width:60;stroke-linecap:round;stroke-linejoin:round;stroke-opacity:1"
         d="m 44500,42250 0,-1500"
         id="path66"
         inkscape:connector-curvature="0" />
      <path
         style="fill:none;fill-opacity:0;stroke:#840000;stroke-width:60;stroke-linecap:round;stroke-linejoin:round;stroke-opacity:1"
         d="m 44500,41500 500,0"
         id="path68"
         inkscape:connector-curvature="0" />
      <path
         style="fill:none;fill-opacity:0;stroke:#840000;stroke-width:60;stroke-linecap:round;stroke-linejoin:round;stroke-opacity:1"
         d="m 44500,41150 -1000,-400"
         id="path70"
         inkscape:connector-curvature="0" />
      <path
         style="fill:none;fill-opacity:0;stroke:#840000;stroke-width:60;stroke-linecap:round;stroke-linejoin:round;stroke-opacity:1"
         d="m 43750,42150 350,150"
         id="path72"
         inkscape:connector-curvature="0" />
      <path
         style="fill:none;fill-opacity:0;stroke:#840000;stroke-width:60;stroke-linecap:round;stroke-linejoin:round;stroke-opacity:1"
         d="m 43750,42150 150,-350"
         id="path74"
         inkscape:connector-curvature="0" />
      <path
         style="fill:none;fill-opacity:0;stroke:#840000;stroke-width:60;stroke-linecap:round;stroke-linejoin:round;stroke-opacity:1"
         d="m 43500,40750 0,-250"
         id="path76"
         inkscape:connector-curvature="0" />
      <path
         style="fill:none;fill-opacity:0;stroke:#840000;stroke-width:60;stroke-linecap:round;stroke-linejoin:round;stroke-opacity:1"
         d="m 44500,41850 -1000,400"
         id="path78"
         inkscape:connector-curvature="0" />
      <path
         style="fill:none;fill-opacity:0;stroke:#840000;stroke-width:60;stroke-linecap:round;stroke-linejoin:round;stroke-opacity:1"
         d="m 43500,42250 0,250"
         id="path80"
         inkscape:connector-curvature="0" />
      <path
         d="m 45000,41500 0,0"
         id="path82"
         inkscape:connector-curvature="0" />
      <path
         d="m 43500,40500 0,0"
         id="path84"
         inkscape:connector-curvature="0" />
      <path
         d="m 43500,42500 0,0"
         id="path86"
         inkscape:connector-curvature="0" />
    </g>
    <g
       style="fill:#008484;fill-opacity:0;stroke:#008484;stroke-width:60;stroke-linecap:round;stroke-linejoin:round;stroke-opacity:1"
       id="g88">
      <text
         x="42970"
         y="40740"
         textLength="1060"
         font-size="660"
         lengthAdjust="spacingAndGlyphs"
         id="text90"
         style="font-size:660px;line-height:0%;text-anchor:middle;opacity:0"
         transform="translate(-34.117242,989.40001)">Q1</text>
      <path
         d="m 42885.883,41749.4 -50,-20 -50,-50 -70,-70 -50,-30 h -40"
         id="path92"
         inkscape:connector-curvature="0" />
      <path
         d="m 42645.883,41699.4 -50,-20 -50,-50 -20,-100 v -160 l 20,-100 50,-40 50,-30 h 90 l 50,30 50,40 20,100 v 160 l -20,100 -50,50 -50,20 h -90"
         id="path94"
         inkscape:connector-curvature="0" />
      <path
         d="m 43335.883,41699.4 h -290"
         id="path96"
         inkscape:connector-curvature="0" />
      <path
         d="m 43195.883,41699.4 v -500 l -50,70 -50,50 -50,20"
         id="path98"
         inkscape:connector-curvature="0" />
      <text
         x="42550"
         y="42800"
         textLength="1890"
         font-size="660"
         lengthAdjust="spacingAndGlyphs"
         id="text100"
         style="font-size:660px;line-height:0%;text-anchor:middle;opacity:0">npn1</text>
    </g>
  </g>
  <g
     style="fill:#008484;fill-opacity:0;stroke:#008484;stroke-width:0;stroke-linecap:round;stroke-linejoin:round;stroke-opacity:1"
     id="g118"
     transform="translate(-35179.594,-33921.953)">
    <g
       id="g120" />
    <g
       style="fill:#840000;fill-opacity:0;stroke:#840000;stroke-width:0;stroke-linecap:round;stroke-linejoin:round;stroke-opacity:1"
       id="g122" />
    <g
       style="fill:#840000;fill-opacity:0;stroke:#840000;stroke-width:60;stroke-linecap:round;stroke-linejoin:round;stroke-opacity:1"
       id="g124">
      <path
         style="fill:none;fill-opacity:0;stroke:#840000;stroke-width:60;stroke-linecap:round;stroke-linejoin:round;stroke-opacity:1"
         d="m 48500,42250 0,-1500"
         id="path126"
         inkscape:connector-curvature="0" />
      <path
         style="fill:none;fill-opacity:0;stroke:#840000;stroke-width:60;stroke-linecap:round;stroke-linejoin:round;stroke-opacity:1"
         d="m 48500,41500 -500,0"
         id="path128"
         inkscape:connector-curvature="0" />
      <path
         style="fill:none;fill-opacity:0;stroke:#840000;stroke-width:60;stroke-linecap:round;stroke-linejoin:round;stroke-opacity:1"
         d="m 48500,41150 1000,-400"
         id="path130"
         inkscape:connector-curvature="0" />
      <path
         style="fill:none;fill-opacity:0;stroke:#840000;stroke-width:60;stroke-linecap:round;stroke-linejoin:round;stroke-opacity:1"
         d="m 49250,42150 -350,150"
         id="path132"
         inkscape:connector-curvature="0" />
      <path
         style="fill:none;fill-opacity:0;stroke:#840000;stroke-width:60;stroke-linecap:round;stroke-linejoin:round;stroke-opacity:1"
         d="m 49250,42150 -150,-350"
         id="path134"
         inkscape:connector-curvature="0" />
      <path
         style="fill:none;fill-opacity:0;stroke:#840000;stroke-width:60;stroke-linecap:round;stroke-linejoin:round;stroke-opacity:1"
         d="m 49500,40750 0,-250"
         id="path136"
         inkscape:connector-curvature="0" />
      <path
         style="fill:none;fill-opacity:0;stroke:#840000;stroke-width:60;stroke-linecap:round;stroke-linejoin:round;stroke-opacity:1"
         d="m 48500,41850 1000,400"
         id="path138"
         inkscape:connector-curvature="0" />
      <path
         style="fill:none;fill-opacity:0;stroke:#840000;stroke-width:60;stroke-linecap:round;stroke-linejoin:round;stroke-opacity:1"
         d="m 49500,42250 0,250"
         id="path140"
         inkscape:connector-curvature="0" />
      <path
         d="m 48000,41500 0,0"
         id="path142"
         inkscape:connector-curvature="0" />
      <path
         d="m 49500,40500 0,0"
         id="path144"
         inkscape:connector-curvature="0" />
      <path
         d="m 49500,42500 0,0"
         id="path146"
         inkscape:connector-curvature="0" />
    </g>
    <g
       style="fill:#008484;fill-opacity:0;stroke:#008484;stroke-width:60;stroke-linecap:round;stroke-linejoin:round;stroke-opacity:1"
       id="g148">
      <text
         x="50030"
         y="40740"
         textLength="1060"
         font-size="660"
         lengthAdjust="spacingAndGlyphs"
         id="text150"
         style="font-size:660px;line-height:0%;text-anchor:middle;opacity:0"
         transform="translate(-34.117242,887.04829)">Q2</text>
      <path
         d="m 49945.883,41647.048 -50,-20 -50,-50 -70,-70 -50,-30 h -40"
         id="path152"
         inkscape:connector-curvature="0" />
      <path
         d="m 49705.883,41597.048 -50,-20 -50,-50 -20,-100 v -160 l 20,-100 50,-40 50,-30 h 90 l 50,30 50,40 20,100 v 160 l -20,100 -50,50 -50,20 h -90"
         id="path154"
         inkscape:connector-curvature="0" />
      <path
         d="m 50105.883,41147.048 30,-20 50,-30 h 110 l 50,30 30,20 20,50 v 40 l -20,80 -290,280 h 310"
         id="path156"
         inkscape:connector-curvature="0" />
      <text
         x="50440"
         y="42800"
         textLength="1890"
         font-size="660"
         lengthAdjust="spacingAndGlyphs"
         id="text158"
         style="font-size:660px;line-height:0%;text-anchor:middle;opacity:0">npn1</text>
    </g>
  </g>
  <g
     style="fill:#008484;fill-opacity:0;stroke:#008484;stroke-width:0;stroke-linecap:round;stroke-linejoin:round;stroke-opacity:1"
     id="g176"
     transform="translate(-35179.594,-33921.953)">
    <g
       id="g178" />
    <g
       style="fill:#840000;fill-opacity:0;stroke:#840000;stroke-width:0;stroke-linecap:round;stroke-linejoin:round;stroke-opacity:1"
       id="g180" />
    <g
       style="fill:#840000;fill-opacity:0;stroke:#840000;stroke-width:60;stroke-linecap:round;stroke-linejoin:round;stroke-opacity:1"
       id="g182">
      <circle
         cx="53000"
         cy="41500"
         r="750"
         id="circle184" />
      <path
         style="fill:none;fill-opacity:0;stroke:#840000;stroke-width:60;stroke-linecap:round;stroke-linejoin:round;stroke-opacity:1"
         d="m 52750,41850 500,0"
         id="path186"
         inkscape:connector-curvature="0" />
      <path
         style="fill:none;fill-opacity:0;stroke:#840000;stroke-width:60;stroke-linecap:round;stroke-linejoin:round;stroke-opacity:1"
         d="m 53000,42250 0,250"
         id="path188"
         inkscape:connector-curvature="0" />
      <path
         style="fill:none;fill-opacity:0;stroke:#840000;stroke-width:60;stroke-linecap:round;stroke-linejoin:round;stroke-opacity:1"
         d="m 53000,41500 0,-500"
         id="path190"
         inkscape:connector-curvature="0" />
      <path
         style="fill:none;fill-opacity:0;stroke:#840000;stroke-width:60;stroke-linecap:round;stroke-linejoin:round;stroke-opacity:1"
         d="m 53000,40750 0,-250"
         id="path192"
         inkscape:connector-curvature="0" />
      <path
         style="fill:none;fill-opacity:0;stroke:#840000;stroke-width:60;stroke-linecap:round;stroke-linejoin:round;stroke-opacity:1"
         d="m 53250,41250 -500,0"
         id="path194"
         inkscape:connector-curvature="0" />
      <path
         d="m 53000,40500 0,0"
         id="path196"
         inkscape:connector-curvature="0" />
      <path
         d="m 53000,42500 0,0"
         id="path198"
         inkscape:connector-curvature="0" />
    </g>
    <g
       style="fill:#008484;fill-opacity:0;stroke:#008484;stroke-width:60;stroke-linecap:round;stroke-linejoin:round;stroke-opacity:1"
       id="g200"
       transform="translate(545.87587,1467.0414)">
      <text
         x="53730"
         y="40240"
         textLength="960"
         font-size="660"
         lengthAdjust="spacingAndGlyphs"
         id="text202"
         style="font-size:660px;line-height:0%;text-anchor:middle;opacity:0">V2</text>
      <path
         d="m 53320,39710 170,500 160,-500"
         id="path204"
         inkscape:connector-curvature="0" />
      <path
         d="m 53800,39760 20,-20 50,-30 h 120 l 40,30 30,20 20,50 v 40 l -20,80 -290,280 h 310"
         id="path206"
         inkscape:connector-curvature="0" />
    </g>
  </g>
  <g
     style="fill:#008484;fill-opacity:0;stroke:#008484;stroke-width:0;stroke-linecap:round;stroke-linejoin:round;stroke-opacity:1"
     id="g220"
     transform="translate(-35179.594,-33921.953)">
    <g
       id="g222" />
    <g
       style="fill:#840000;fill-opacity:0;stroke:#840000;stroke-width:0;stroke-linecap:round;stroke-linejoin:round;stroke-opacity:1"
       id="g224" />
    <g
       style="fill:#840000;fill-opacity:0;stroke:#840000;stroke-width:60;stroke-linecap:round;stroke-linejoin:round;stroke-opacity:1"
       id="g226">
      <circle
         cx="38500"
         cy="41500"
         r="750"
         id="circle228" />
      <path
         style="fill:none;fill-opacity:0;stroke:#840000;stroke-width:60;stroke-linecap:round;stroke-linejoin:round;stroke-opacity:1"
         d="m 38250,41850 500,0"
         id="path230"
         inkscape:connector-curvature="0" />
      <path
         style="fill:none;fill-opacity:0;stroke:#840000;stroke-width:60;stroke-linecap:round;stroke-linejoin:round;stroke-opacity:1"
         d="m 38500,42250 0,250"
         id="path232"
         inkscape:connector-curvature="0" />
      <path
         style="fill:none;fill-opacity:0;stroke:#840000;stroke-width:60;stroke-linecap:round;stroke-linejoin:round;stroke-opacity:1"
         d="m 38500,41500 0,-500"
         id="path234"
         inkscape:connector-curvature="0" />
      <path
         style="fill:none;fill-opacity:0;stroke:#840000;stroke-width:60;stroke-linecap:round;stroke-linejoin:round;stroke-opacity:1"
         d="m 38500,40750 0,-250"
         id="path236"
         inkscape:connector-curvature="0" />
      <path
         style="fill:none;fill-opacity:0;stroke:#840000;stroke-width:60;stroke-linecap:round;stroke-linejoin:round;stroke-opacity:1"
         d="m 38750,41250 -500,0"
         id="path238"
         inkscape:connector-curvature="0" />
      <path
         d="m 38500,40500 0,0"
         id="path240"
         inkscape:connector-curvature="0" />
      <path
         d="m 38500,42500 0,0"
         id="path242"
         inkscape:connector-curvature="0" />
    </g>
    <g
       style="fill:#008484;fill-opacity:0;stroke:#008484;stroke-width:60;stroke-linecap:round;stroke-linejoin:round;stroke-opacity:1"
       id="g244">
      <text
         x="39230"
         y="40240"
         textLength="960"
         font-size="660"
         lengthAdjust="spacingAndGlyphs"
         id="text246"
         style="font-size:660px;line-height:0%;text-anchor:middle;opacity:0"
         transform="translate(682.34484,1637.6276)">V1</text>
      <path
         d="m 39502.345,41347.628 170,500 160,-500"
         id="path248"
         inkscape:connector-curvature="0" />
      <path
         d="m 40262.345,41847.628 h -280"
         id="path250"
         inkscape:connector-curvature="0" />
      <path
         d="m 40122.345,41847.628 v -500 l -50,70 -50,50 -40,20"
         id="path252"
         inkscape:connector-curvature="0" />
      <text
         x="39230"
         y="43300"
         textLength="960"
         font-size="660"
         lengthAdjust="spacingAndGlyphs"
         id="text254"
         style="font-size:660px;line-height:0%;text-anchor:middle;opacity:0">5V</text>
    </g>
  </g>
  <g
     style="fill:#008484;fill-opacity:0;stroke:#008484;stroke-width:0;stroke-linecap:round;stroke-linejoin:round;stroke-opacity:1"
     id="g260"
     transform="translate(-35179.594,-33921.953)">
    <g
       id="g262" />
    <g
       style="fill:#840000;fill-opacity:0;stroke:#840000;stroke-width:0;stroke-linecap:round;stroke-linejoin:round;stroke-opacity:1"
       id="g264" />
    <g
       style="fill:#840000;fill-opacity:0;stroke:#840000;stroke-width:60;stroke-linecap:round;stroke-linejoin:round;stroke-opacity:1"
       id="g266">
      <path
         style="fill:none;fill-opacity:0;stroke:#840000;stroke-width:60;stroke-linecap:round;stroke-linejoin:round;stroke-opacity:1"
         d="m 45750,49000 1500,0"
         id="path268"
         inkscape:connector-curvature="0" />
      <path
         style="fill:none;fill-opacity:0;stroke:#840000;stroke-width:60;stroke-linecap:round;stroke-linejoin:round;stroke-opacity:1"
         d="m 46000,49250 1000,0"
         id="path270"
         inkscape:connector-curvature="0" />
      <path
         style="fill:none;fill-opacity:0;stroke:#840000;stroke-width:60;stroke-linecap:round;stroke-linejoin:round;stroke-opacity:1"
         d="m 46250,49500 500,0"
         id="path272"
         inkscape:connector-curvature="0" />
      <path
         style="fill:none;fill-opacity:0;stroke:#840000;stroke-width:60;stroke-linecap:round;stroke-linejoin:round;stroke-opacity:1"
         d="m 46500,48000 0,1000"
         id="path274"
         inkscape:connector-curvature="0" />
      <path
         d="m 46500,48000 0,0"
         id="path276"
         inkscape:connector-curvature="0" />
    </g>
  </g>
  <g
     style="fill:#840000;fill-opacity:0;stroke:#840000;stroke-width:0;stroke-linecap:round;stroke-linejoin:round;stroke-opacity:1"
     id="g278"
     transform="translate(-35179.594,-33921.953)">
    <g
       id="g280" />
    <g
       style="fill:#840000;fill-opacity:0;stroke:#840000;stroke-width:60;stroke-linecap:round;stroke-linejoin:round;stroke-opacity:1"
       id="g282">
      <circle
         cx="36500"
         cy="34500"
         r="500"
         id="circle284" />
      <path
         style="fill:none;fill-opacity:0;stroke:#840000;stroke-width:60;stroke-linecap:round;stroke-linejoin:round;stroke-opacity:1"
         d="m 36500,34750 0,-500"
         id="path286"
         inkscape:connector-curvature="0" />
      <path
         style="fill:none;fill-opacity:0;stroke:#840000;stroke-width:60;stroke-linecap:round;stroke-linejoin:round;stroke-opacity:1"
         d="m 37500,34500 -500,0"
         id="path288"
         inkscape:connector-curvature="0" />
      <path
         style="fill:none;fill-opacity:0;stroke:#840000;stroke-width:60;stroke-linecap:round;stroke-linejoin:round;stroke-opacity:1"
         d="m 36750,34500 -500,0"
         id="path290"
         inkscape:connector-curvature="0" />
      <path
         d="m 37500,34500 0,0"
         id="path292"
         inkscape:connector-curvature="0" />
    </g>
    <g
       style="fill:#008484;fill-opacity:0;stroke:#008484;stroke-width:60;stroke-linecap:round;stroke-linejoin:round;stroke-opacity:1"
       id="g294">
      <g
         transform="matrix(0,-1,1,0,1000,69980)"
         id="g296">
        <text
           x="35490"
           y="34740"
           textLength="1110"
           font-size="660"
           lengthAdjust="spacingAndGlyphs"
           id="text298"
           style="font-size:660px;line-height:0%;text-anchor:middle;opacity:0">V+</text>
      </g>
      <path
         d="m 35210,34960 500,-170 -500,-160"
         id="path300"
         inkscape:connector-curvature="0" />
      <path
         d="m 35520,34460 0,-380"
         id="path302"
         inkscape:connector-curvature="0" />
      <path
         d="m 35710,34270 -380,0"
         id="path304"
         inkscape:connector-curvature="0" />
    </g>
  </g>
  <g
     style="fill:#008484;fill-opacity:0;stroke:#008484;stroke-width:0;stroke-linecap:round;stroke-linejoin:round;stroke-opacity:1"
     id="g306"
     transform="translate(-35179.594,-33921.953)">
    <g
       id="g308" />
    <g
       style="fill:#840000;fill-opacity:0;stroke:#840000;stroke-width:0;stroke-linecap:round;stroke-linejoin:round;stroke-opacity:1"
       id="g310" />
    <g
       style="fill:#840000;fill-opacity:0;stroke:#840000;stroke-width:60;stroke-linecap:round;stroke-linejoin:round;stroke-opacity:1"
       id="g312">
      <path
         style="fill:none;fill-opacity:0;stroke:#840000;stroke-width:60;stroke-linecap:round;stroke-linejoin:round;stroke-opacity:1"
         d="m 43500,45000 300,-100 -600,-200 600,-200 -300,-100 0,-400"
         id="path314"
         inkscape:connector-curvature="0" />
      <path
         style="fill:none;fill-opacity:0;stroke:#840000;stroke-width:60;stroke-linecap:round;stroke-linejoin:round;stroke-opacity:1"
         d="m 43500,45000 -300,100 600,200 -600,200 300,100 0,400"
         id="path316"
         inkscape:connector-curvature="0" />
      <path
         d="m 43500,44000 0,0"
         id="path318"
         inkscape:connector-curvature="0" />
      <path
         d="m 43500,46000 0,0"
         id="path320"
         inkscape:connector-curvature="0" />
    </g>
    <g
       style="fill:#008484;fill-opacity:0;stroke:#008484;stroke-width:60;stroke-linecap:round;stroke-linejoin:round;stroke-opacity:1"
       id="g322">
      <text
         x="44500"
         y="45270"
         textLength="1040"
         font-size="660"
         lengthAdjust="spacingAndGlyphs"
         id="text324"
         style="font-size:660px;line-height:0%;text-anchor:middle;opacity:0">R1</text>
      <path
         d="m 44410,45240 -160,-240"
         id="path326"
         inkscape:connector-curvature="0" />
      <path
         d="m 44130,45240 0,-500 190,0 40,30 30,20 20,50 0,70 -20,50 -30,20 -40,20 -190,0"
         id="path328"
         inkscape:connector-curvature="0" />
      <path
         d="m 44890,45240 -290,0"
         id="path330"
         inkscape:connector-curvature="0" />
      <path
         d="m 44750,45240 0,-500 -50,70 -50,50 -50,20"
         id="path332"
         inkscape:connector-curvature="0" />
      <text
         x="42270"
         y="45270"
         textLength="1540"
         font-size="660"
         lengthAdjust="spacingAndGlyphs"
         id="text334"
         style="font-size:660px;line-height:0%;text-anchor:middle;opacity:0">6KR</text>
    </g>
  </g>
  <g
     style="fill:#008484;fill-opacity:0;stroke:#008484;stroke-width:0;stroke-linecap:round;stroke-linejoin:round;stroke-opacity:1"
     id="g348"
     transform="translate(-35179.594,-33921.953)">
    <g
       id="g350" />
    <g
       style="fill:#840000;fill-opacity:0;stroke:#840000;stroke-width:0;stroke-linecap:round;stroke-linejoin:round;stroke-opacity:1"
       id="g352" />
    <g
       style="fill:#840000;fill-opacity:0;stroke:#840000;stroke-width:60;stroke-linecap:round;stroke-linejoin:round;stroke-opacity:1"
       id="g354">
      <path
         style="fill:none;fill-opacity:0;stroke:#840000;stroke-width:60;stroke-linecap:round;stroke-linejoin:round;stroke-opacity:1"
         d="m 49500,45000 300,-100 -600,-200 600,-200 -300,-100 0,-400"
         id="path356"
         inkscape:connector-curvature="0" />
      <path
         style="fill:none;fill-opacity:0;stroke:#840000;stroke-width:60;stroke-linecap:round;stroke-linejoin:round;stroke-opacity:1"
         d="m 49500,45000 -300,100 600,200 -600,200 300,100 0,400"
         id="path358"
         inkscape:connector-curvature="0" />
      <path
         d="m 49500,44000 0,0"
         id="path360"
         inkscape:connector-curvature="0" />
      <path
         d="m 49500,46000 0,0"
         id="path362"
         inkscape:connector-curvature="0" />
    </g>
    <g
       style="fill:#008484;fill-opacity:0;stroke:#008484;stroke-width:60;stroke-linecap:round;stroke-linejoin:round;stroke-opacity:1"
       id="g364">
      <text
         x="48500"
         y="45270"
         textLength="1040"
         font-size="660"
         lengthAdjust="spacingAndGlyphs"
         id="text366"
         style="font-size:660px;line-height:0%;text-anchor:middle;opacity:0">R2</text>
      <path
         d="m 48410,45240 -160,-240"
         id="path368"
         inkscape:connector-curvature="0" />
      <path
         d="m 48130,45240 0,-500 190,0 40,30 30,20 20,50 0,70 -20,50 -30,20 -40,20 -190,0"
         id="path370"
         inkscape:connector-curvature="0" />
      <path
         d="m 48600,44790 30,-20 40,-30 120,0 50,30 20,20 30,50 0,40 -30,80 -280,280 310,0"
         id="path372"
         inkscape:connector-curvature="0" />
    </g>
  </g>
  <g
     style="fill:#008484;fill-opacity:0;stroke:#008484;stroke-width:60;stroke-linecap:round;stroke-linejoin:round;stroke-opacity:1"
     id="g388"
     transform="translate(-35179.594,-33921.953)" />
  <g
     style="fill:#008400;fill-opacity:0;stroke:#008400;stroke-width:60;stroke-linecap:round;stroke-linejoin:round;stroke-opacity:1"
     id="g390"
     transform="translate(-35179.594,-33921.953)">
    <path
       d="m 49500,47000 0,-1000"
       id="path392"
       inkscape:connector-curvature="0" />
    <path
       d="m 45000,41500 1500,0"
       id="path394"
       inkscape:connector-curvature="0" />
    <path
       d="m 38500,47000 5000,0"
       id="path396"
       inkscape:connector-curvature="0" />
    <path
       d="m 43500,46000 0,1000"
       id="path398"
       inkscape:connector-curvature="0" />
    <path
       d="m 38500,42500 0,4500"
       id="path400"
       inkscape:connector-curvature="0" />
    <path
       d="m 49500,42500 0,1500"
       id="path402"
       inkscape:connector-curvature="0" />
    <path
       d="m 43500,42500 0,1500"
       id="path404"
       inkscape:connector-curvature="0" />
    <path
       d="m 49500,47000 3500,0"
       id="path406"
       inkscape:connector-curvature="0" />
    <path
       d="m 46500,48000 0,-1000"
       id="path408"
       inkscape:connector-curvature="0" />
    <path
       d="m 53000,47000 0,-4500"
       id="path410"
       inkscape:connector-curvature="0" />
    <path
       d="m 38500,34500 5000,0"
       id="path412"
       inkscape:connector-curvature="0" />
    <path
       d="m 43500,39000 0,1500"
       id="path414"
       inkscape:connector-curvature="0" />
    <path
       d="m 46500,41500 1500,0"
       id="path416"
       inkscape:connector-curvature="0" />
    <path
       d="m 46500,47000 3000,0"
       id="path418"
       inkscape:connector-curvature="0" />
    <path
       d="m 43500,47000 3000,0"
       id="path420"
       inkscape:connector-curvature="0" />
    <path
       d="m 46500,39000 0,2500"
       id="path422"
       inkscape:connector-curvature="0" />
    <path
       d="m 43500,37500 0,1500"
       id="path424"
       inkscape:connector-curvature="0" />
    <path
       d="m 43500,34500 0,1000"
       id="path426"
       inkscape:connector-curvature="0" />
    <path
       d="m 38500,34500 0,6000"
       id="path428"
       inkscape:connector-curvature="0" />
    <path
       d="m 37500,34500 1000,0"
       id="path430"
       inkscape:connector-curvature="0" />
    <path
       d="m 49500,39000 0,1500"
       id="path432"
       inkscape:connector-curvature="0" />
    <path
       d="m 53000,39000 -3500,0"
       id="path434"
       inkscape:connector-curvature="0" />
    <path
       d="m 53000,40500 0,-1500"
       id="path436"
       inkscape:connector-curvature="0" />
    <path
       d="m 43500,39000 3000,0"
       id="path438"
       inkscape:connector-curvature="0" />
  </g>
  <g
     style="fill:#000000;fill-opacity:0;stroke:#000000;stroke-width:60;stroke-linecap:round;stroke-linejoin:round;stroke-opacity:1"
     id="g440"
     transform="translate(-35179.594,-33921.953)">
    <text
       x="46500"
       y="46900"
       textLength="630"
       font-size="800"
       lengthAdjust="spacingAndGlyphs"
       id="text442"
       style="font-size:800px;line-height:0%;text-anchor:start;opacity:0">0</text>
    <path
       d="m 46780,46270 60,0 60,30 30,20 20,60 30,120 0,140 -30,110 -20,60 -30,30 -60,30 -60,0 -50,-30 -30,-30 -30,-60 -30,-110 0,-140 30,-120 30,-60 30,-20 50,-30"
       id="path444"
       inkscape:connector-curvature="0" />
    <text
       x="49500"
       y="43900"
       textLength="1170"
       font-size="800"
       lengthAdjust="spacingAndGlyphs"
       id="text446"
       style="font-size:800px;line-height:0%;text-anchor:end;opacity:0">n4</text>
    <path
       d="m 48490,43470 0,400"
       id="path448"
       inkscape:connector-curvature="0" />
    <path
       d="m 48490,43520 30,-20 60,-30 90,0 50,30 30,50 0,320"
       id="path450"
       inkscape:connector-curvature="0" />
    <path
       d="m 49290,43470 0,400"
       id="path452"
       inkscape:connector-curvature="0" />
    <path
       d="m 49150,43240 -140,430 370,0"
       id="path454"
       inkscape:connector-curvature="0" />
    <text
       x="43500"
       y="43900"
       textLength="1170"
       font-size="800"
       lengthAdjust="spacingAndGlyphs"
       id="text456"
       style="font-size:800px;line-height:0%;text-anchor:start;opacity:0">n3</text>
    <path
       d="m 43670,43470 0,400"
       id="path458"
       inkscape:connector-curvature="0" />
    <path
       d="m 43670,43520 30,-20 50,-30 90,0 60,30 30,50 0,320"
       id="path460"
       inkscape:connector-curvature="0" />
    <path
       d="m 44150,43270 380,0 -200,230 80,0 60,20 30,30 30,60 0,140 -30,60 -30,30 -60,30 -170,0 -60,-30 -30,-30"
       id="path462"
       inkscape:connector-curvature="0" />
    <text
       x="49500"
       y="38900"
       textLength="1170"
       font-size="800"
       lengthAdjust="spacingAndGlyphs"
       id="text464"
       style="font-size:800px;line-height:0%;text-anchor:start;opacity:0">n2</text>
    <path
       d="m 49670,38470 0,400"
       id="path466"
       inkscape:connector-curvature="0" />
    <path
       d="m 49670,38520 30,-20 50,-30 90,0 60,30 30,50 0,320"
       id="path468"
       inkscape:connector-curvature="0" />
    <path
       d="m 50180,38320 30,-20 60,-30 140,0 60,30 30,20 30,60 0,60 -30,80 -350,350 380,0"
       id="path470"
       inkscape:connector-curvature="0" />
    <text
       x="43500"
       y="38900"
       textLength="1170"
       font-size="800"
       lengthAdjust="spacingAndGlyphs"
       id="text472"
       style="font-size:800px;line-height:0%;text-anchor:start;opacity:0">n1</text>
    <path
       d="m 43670,38470 0,400"
       id="path474"
       inkscape:connector-curvature="0" />
    <path
       d="m 43670,38520 30,-20 50,-30 90,0 60,30 30,50 0,320"
       id="path476"
       inkscape:connector-curvature="0" />
    <path
       d="m 44530,38870 -350,0"
       id="path478"
       inkscape:connector-curvature="0" />
    <path
       d="m 44350,38870 0,-600 -50,80 -60,60 -60,30"
       id="path480"
       inkscape:connector-curvature="0" />
    <text
       x="40000"
       y="34400"
       textLength="2630"
       font-size="800"
       lengthAdjust="spacingAndGlyphs"
       id="text482"
       style="font-size:800px;line-height:0%;text-anchor:start;opacity:0">n_pos</text>
    <path
       d="m 40170,33970 0,400"
       id="path484"
       inkscape:connector-curvature="0" />
    <path
       d="m 40170,34020 30,-20 50,-30 90,0 60,30 30,50 0,320"
       id="path486"
       inkscape:connector-curvature="0" />
    <path
       d="m 40570,34420 460,0"
       id="path488"
       inkscape:connector-curvature="0" />
    <path
       d="m 41170,33970 0,600"
       id="path490"
       inkscape:connector-curvature="0" />
    <path
       d="m 41170,34000 60,-30 110,0 60,30 30,20 20,60 0,170 -20,60 -30,30 -60,30 -110,0 -60,-30"
       id="path492"
       inkscape:connector-curvature="0" />
    <path
       d="m 41800,34370 -60,-30 -30,-30 -30,-60 0,-170 30,-60 30,-20 60,-30 80,0 60,30 30,20 30,60 0,170 -30,60 -30,30 -60,30 -80,0"
       id="path494"
       inkscape:connector-curvature="0" />
    <path
       d="m 42230,34340 50,30 120,0 50,-30 30,-60 0,-30 -30,-50 -50,-30 -90,0 -60,-30 -20,-60 0,-30 20,-50 60,-30 90,0 50,30"
       id="path496"
       inkscape:connector-curvature="0" />
  </g>
  <g
     style="fill:#000000;fill-opacity:0;stroke:#000000;stroke-width:0;stroke-linecap:round;stroke-linejoin:round;stroke-opacity:1"
     id="g498"
     transform="translate(-35179.594,-33921.953)" />
  <g
     style="fill:#008400;fill-opacity:0;stroke:#008400;stroke-width:0;stroke-linecap:round;stroke-linejoin:round;stroke-opacity:1"
     id="g500"
     transform="translate(-35179.594,-33921.953)" />
  <g
     style="fill:#008400;fill-opacity:1;stroke:#008400;stroke-width:100;stroke-linecap:round;stroke-linejoin:round;stroke-opacity:1"
     id="g502"
     transform="translate(-35179.594,-33921.953)">
    <circle
       cx="46500"
       cy="47000"
       r="200"
       id="circle504" />
  </g>
  <g
     style="fill:#008400;fill-opacity:1;stroke:#008400;stroke-width:0;stroke-linecap:round;stroke-linejoin:round;stroke-opacity:1"
     id="g506"
     transform="translate(-35179.594,-33921.953)" />
  <g
     style="fill:#008400;fill-opacity:1;stroke:#008400;stroke-width:100;stroke-linecap:round;stroke-linejoin:round;stroke-opacity:1"
     id="g508"
     transform="translate(-35179.594,-33921.953)">
    <circle
       cx="43500"
       cy="47000"
       r="200"
       id="circle510" />
  </g>
  <g
     style="fill:#008400;fill-opacity:1;stroke:#008400;stroke-width:0;stroke-linecap:round;stroke-linejoin:round;stroke-opacity:1"
     id="g512"
     transform="translate(-35179.594,-33921.953)" />
  <g
     style="fill:#008400;fill-opacity:1;stroke:#008400;stroke-width:100;stroke-linecap:round;stroke-linejoin:round;stroke-opacity:1"
     id="g514"
     transform="translate(-35179.594,-33921.953)">
    <circle
       cx="38500"
       cy="34500"
       r="200"
       id="circle516" />
  </g>
  <g
     style="fill:#008400;fill-opacity:1;stroke:#008400;stroke-width:0;stroke-linecap:round;stroke-linejoin:round;stroke-opacity:1"
     id="g518"
     transform="translate(-35179.594,-33921.953)" />
  <g
     style="fill:#008400;fill-opacity:1;stroke:#008400;stroke-width:100;stroke-linecap:round;stroke-linejoin:round;stroke-opacity:1"
     id="g520"
     transform="translate(-35179.594,-33921.953)">
    <circle
       cx="49500"
       cy="47000"
       r="200"
       id="circle522" />
  </g>
  <g
     style="fill:#008400;fill-opacity:1;stroke:#008400;stroke-width:0;stroke-linecap:round;stroke-linejoin:round;stroke-opacity:1"
     id="g524"
     transform="translate(-35179.594,-33921.953)" />
  <g
     style="fill:#008400;fill-opacity:1;stroke:#008400;stroke-width:100;stroke-linecap:round;stroke-linejoin:round;stroke-opacity:1"
     id="g526"
     transform="translate(-35179.594,-33921.953)">
    <circle
       cx="43500"
       cy="39000"
       r="200"
       id="circle528" />
  </g>
  <g
     style="fill:#008400;fill-opacity:1;stroke:#008400;stroke-width:0;stroke-linecap:round;stroke-linejoin:round;stroke-opacity:1"
     id="g530"
     transform="translate(-35179.594,-33921.953)" />
  <g
     style="fill:#008400;fill-opacity:1;stroke:#008400;stroke-width:100;stroke-linecap:round;stroke-linejoin:round;stroke-opacity:1"
     id="g532"
     transform="translate(-35179.594,-33921.953)">
    <circle
       cx="46500"
       cy="41500"
       r="200"
       id="circle534" />
  </g>
</svg>
