<?xml version="1.0" encoding="UTF-8" standalone="no"?>
<svg
   xmlns:dc="http://purl.org/dc/elements/1.1/"
   xmlns:cc="http://creativecommons.org/ns#"
   xmlns:rdf="http://www.w3.org/1999/02/22-rdf-syntax-ns#"
   xmlns:svg="http://www.w3.org/2000/svg"
   xmlns="http://www.w3.org/2000/svg"
   xmlns:sodipodi="http://sodipodi.sourceforge.net/DTD/sodipodi-0.dtd"
   xmlns:inkscape="http://www.inkscape.org/namespaces/inkscape"
   version="1.1"
   width="5.4627962cm"
   height="3.2024446cm"
   viewBox="0 0 21507.072 12608.05"
   id="svg2"
   inkscape:version="0.92.5 (2060ec1f9f, 2020-04-08)"
   sodipodi:docname="sch.svg">
  <metadata
     id="metadata434">
    <rdf:RDF>
      <cc:Work
         rdf:about="">
        <dc:format>image/svg+xml</dc:format>
        <dc:type
           rdf:resource="http://purl.org/dc/dcmitype/StillImage" />
        <dc:title>SVG Picture created as widlar_current_mirror.svg date 2020/06/30 14:54:02 </dc:title>
      </cc:Work>
    </rdf:RDF>
  </metadata>
  <defs
     id="defs432" />
  <sodipodi:namedview
     pagecolor="#ffffff"
     bordercolor="#666666"
     borderopacity="1"
     objecttolerance="10"
     gridtolerance="10"
     guidetolerance="10"
     inkscape:pageopacity="1"
     inkscape:pageshadow="2"
     inkscape:window-width="1920"
     inkscape:window-height="1030"
     id="namedview430"
     showgrid="false"
     fit-margin-top="0"
     fit-margin-left="0"
     fit-margin-right="0"
     fit-margin-bottom="0"
     inkscape:zoom="3.0531973"
     inkscape:cx="55.289412"
     inkscape:cy="83.109263"
     inkscape:window-x="0"
     inkscape:window-y="0"
     inkscape:window-maximized="1"
     inkscape:current-layer="g34" />
  <title
     id="title4">SVG Picture created as widlar_current_mirror.svg date 2020/06/30 14:54:02 </title>
  <desc
     id="desc6">Picture generated by Eeschema-SVG </desc>
  <g
     style="fill:#000000;fill-opacity:1;stroke:#000000;stroke-linecap:round;stroke-linejoin:round;stroke-opacity:1"
     id="g8"
     transform="translate(-34633.066,-33921.953)" />
  <g
     style="fill:#000000;fill-opacity:0;stroke:#000000;stroke-width:0;stroke-linecap:round;stroke-linejoin:round;stroke-opacity:1"
     id="g10"
     transform="translate(-34633.066,-33921.953)">
    <g
       id="g12" />
    <g
       style="fill:#840000;fill-opacity:0;stroke:#840000;stroke-width:0;stroke-linecap:round;stroke-linejoin:round;stroke-opacity:1"
       id="g14" />
    <g
       style="fill:#840000;fill-opacity:0;stroke:#840000;stroke-width:60;stroke-linecap:round;stroke-linejoin:round;stroke-opacity:1"
       id="g16">
      <circle
         cx="53000"
         cy="41500"
         r="750"
         id="circle18" />
      <path
         style="fill:none;fill-opacity:0;stroke:#840000;stroke-width:60;stroke-linecap:round;stroke-linejoin:round;stroke-opacity:1"
         d="m 52750,41850 500,0"
         id="path20"
         inkscape:connector-curvature="0" />
      <path
         style="fill:none;fill-opacity:0;stroke:#840000;stroke-width:60;stroke-linecap:round;stroke-linejoin:round;stroke-opacity:1"
         d="m 53000,42250 0,250"
         id="path22"
         inkscape:connector-curvature="0" />
      <path
         style="fill:none;fill-opacity:0;stroke:#840000;stroke-width:60;stroke-linecap:round;stroke-linejoin:round;stroke-opacity:1"
         d="m 53000,41500 0,-500"
         id="path24"
         inkscape:connector-curvature="0" />
      <path
         style="fill:none;fill-opacity:0;stroke:#840000;stroke-width:60;stroke-linecap:round;stroke-linejoin:round;stroke-opacity:1"
         d="m 53000,40750 0,-250"
         id="path26"
         inkscape:connector-curvature="0" />
      <path
         style="fill:none;fill-opacity:0;stroke:#840000;stroke-width:60;stroke-linecap:round;stroke-linejoin:round;stroke-opacity:1"
         d="m 53250,41250 -500,0"
         id="path28"
         inkscape:connector-curvature="0" />
      <path
         d="m 53000,40500 0,0"
         id="path30"
         inkscape:connector-curvature="0" />
      <path
         d="m 53000,42500 0,0"
         id="path32"
         inkscape:connector-curvature="0" />
    </g>
    <g
       style="fill:#008484;fill-opacity:0;stroke:#008484;stroke-width:60;stroke-linecap:round;stroke-linejoin:round;stroke-opacity:1"
       id="g34">
      <text
         x="54510"
         y="41310"
         textLength="960"
         font-size="660"
         lengthAdjust="spacingAndGlyphs"
         id="text36"
         style="font-size:660px;line-height:0%;text-anchor:middle;opacity:0"
         transform="translate(-180.93399,434.24158)">V2</text>
      <path
         d="m 53919.066,41214.242 170,500 160,-500"
         id="path38"
         inkscape:connector-curvature="0" />
      <path
         d="m 54399.066,41264.242 20,-20 50,-30 h 120 l 40,30 30,20 20,50 v 40 l -20,80 -290,280 h 310"
         id="path40"
         inkscape:connector-curvature="0" />
    </g>
  </g>
  <g
     style="fill:#008484;fill-opacity:0;stroke:#008484;stroke-width:0;stroke-linecap:round;stroke-linejoin:round;stroke-opacity:1"
     id="g54"
     transform="translate(-34633.066,-33921.953)">
    <g
       id="g56" />
    <g
       style="fill:#840000;fill-opacity:0;stroke:#840000;stroke-width:0;stroke-linecap:round;stroke-linejoin:round;stroke-opacity:1"
       id="g58" />
    <g
       style="fill:#840000;fill-opacity:0;stroke:#840000;stroke-width:60;stroke-linecap:round;stroke-linejoin:round;stroke-opacity:1"
       id="g60">
      <path
         style="fill:none;fill-opacity:0;stroke:#840000;stroke-width:60;stroke-linecap:round;stroke-linejoin:round;stroke-opacity:1"
         d="m 45750,46000 1500,0"
         id="path62"
         inkscape:connector-curvature="0" />
      <path
         style="fill:none;fill-opacity:0;stroke:#840000;stroke-width:60;stroke-linecap:round;stroke-linejoin:round;stroke-opacity:1"
         d="m 46000,46250 1000,0"
         id="path64"
         inkscape:connector-curvature="0" />
      <path
         style="fill:none;fill-opacity:0;stroke:#840000;stroke-width:60;stroke-linecap:round;stroke-linejoin:round;stroke-opacity:1"
         d="m 46250,46500 500,0"
         id="path66"
         inkscape:connector-curvature="0" />
      <path
         style="fill:none;fill-opacity:0;stroke:#840000;stroke-width:60;stroke-linecap:round;stroke-linejoin:round;stroke-opacity:1"
         d="m 46500,45000 0,1000"
         id="path68"
         inkscape:connector-curvature="0" />
      <path
         d="m 46500,45000 0,0"
         id="path70"
         inkscape:connector-curvature="0" />
    </g>
  </g>
  <g
     style="fill:#840000;fill-opacity:0;stroke:#840000;stroke-width:0;stroke-linecap:round;stroke-linejoin:round;stroke-opacity:1"
     id="g72"
     transform="translate(-34633.066,-33921.953)">
    <g
       id="g74" />
    <g
       style="fill:#840000;fill-opacity:0;stroke:#840000;stroke-width:60;stroke-linecap:round;stroke-linejoin:round;stroke-opacity:1"
       id="g76">
      <path
         style="fill:none;fill-opacity:0;stroke:#840000;stroke-width:60;stroke-linecap:round;stroke-linejoin:round;stroke-opacity:1"
         d="m 48500,42250 0,-1500"
         id="path78"
         inkscape:connector-curvature="0" />
      <path
         style="fill:none;fill-opacity:0;stroke:#840000;stroke-width:60;stroke-linecap:round;stroke-linejoin:round;stroke-opacity:1"
         d="m 48500,41500 -500,0"
         id="path80"
         inkscape:connector-curvature="0" />
      <path
         style="fill:none;fill-opacity:0;stroke:#840000;stroke-width:60;stroke-linecap:round;stroke-linejoin:round;stroke-opacity:1"
         d="m 48500,41150 1000,-400"
         id="path82"
         inkscape:connector-curvature="0" />
      <path
         style="fill:none;fill-opacity:0;stroke:#840000;stroke-width:60;stroke-linecap:round;stroke-linejoin:round;stroke-opacity:1"
         d="m 49250,42150 -350,150"
         id="path84"
         inkscape:connector-curvature="0" />
      <path
         style="fill:none;fill-opacity:0;stroke:#840000;stroke-width:60;stroke-linecap:round;stroke-linejoin:round;stroke-opacity:1"
         d="m 49250,42150 -150,-350"
         id="path86"
         inkscape:connector-curvature="0" />
      <path
         style="fill:none;fill-opacity:0;stroke:#840000;stroke-width:60;stroke-linecap:round;stroke-linejoin:round;stroke-opacity:1"
         d="m 49500,40750 0,-250"
         id="path88"
         inkscape:connector-curvature="0" />
      <path
         style="fill:none;fill-opacity:0;stroke:#840000;stroke-width:60;stroke-linecap:round;stroke-linejoin:round;stroke-opacity:1"
         d="m 48500,41850 1000,400"
         id="path90"
         inkscape:connector-curvature="0" />
      <path
         style="fill:none;fill-opacity:0;stroke:#840000;stroke-width:60;stroke-linecap:round;stroke-linejoin:round;stroke-opacity:1"
         d="m 49500,42250 0,250"
         id="path92"
         inkscape:connector-curvature="0" />
      <path
         d="m 48000,41500 0,0"
         id="path94"
         inkscape:connector-curvature="0" />
      <path
         d="m 49500,40500 0,0"
         id="path96"
         inkscape:connector-curvature="0" />
      <path
         d="m 49500,42500 0,0"
         id="path98"
         inkscape:connector-curvature="0" />
    </g>
    <g
       style="fill:#008484;fill-opacity:0;stroke:#008484;stroke-width:60;stroke-linecap:round;stroke-linejoin:round;stroke-opacity:1"
       id="g100">
      <text
         x="50470"
         y="41310"
         textLength="1060"
         font-size="660"
         lengthAdjust="spacingAndGlyphs"
         id="text102"
         style="font-size:660px;line-height:0%;text-anchor:middle;opacity:0"
         transform="translate(-460.58275,443.52413)">Q2</text>
      <path
         d="m 49959.417,41773.524 -50,-20 -50,-50 -70,-70 -50,-30 h -40"
         id="path104"
         inkscape:connector-curvature="0" />
      <path
         d="m 49719.417,41723.524 -50,-20 -50,-50 -20,-100 v -160 l 20,-100 50,-40 50,-30 h 90 l 50,30 50,40 20,100 v 160 l -20,100 -50,50 -50,20 h -90"
         id="path106"
         inkscape:connector-curvature="0" />
      <path
         d="m 50119.417,41273.524 30,-20 50,-30 h 110 l 50,30 30,20 20,50 v 40 l -20,80 -290,280 h 310"
         id="path108"
         inkscape:connector-curvature="0" />
    </g>
  </g>
  <g
     style="fill:#008484;fill-opacity:0;stroke:#008484;stroke-width:0;stroke-linecap:round;stroke-linejoin:round;stroke-opacity:1"
     id="g128"
     transform="translate(-34633.066,-33921.953)">
    <g
       id="g130" />
    <g
       style="fill:#840000;fill-opacity:0;stroke:#840000;stroke-width:0;stroke-linecap:round;stroke-linejoin:round;stroke-opacity:1"
       id="g132" />
    <g
       style="fill:#840000;fill-opacity:0;stroke:#840000;stroke-width:60;stroke-linecap:round;stroke-linejoin:round;stroke-opacity:1"
       id="g134">
      <path
         style="fill:none;fill-opacity:0;stroke:#840000;stroke-width:60;stroke-linecap:round;stroke-linejoin:round;stroke-opacity:1"
         d="m 44500,42250 0,-1500"
         id="path136"
         inkscape:connector-curvature="0" />
      <path
         style="fill:none;fill-opacity:0;stroke:#840000;stroke-width:60;stroke-linecap:round;stroke-linejoin:round;stroke-opacity:1"
         d="m 44500,41500 500,0"
         id="path138"
         inkscape:connector-curvature="0" />
      <path
         style="fill:none;fill-opacity:0;stroke:#840000;stroke-width:60;stroke-linecap:round;stroke-linejoin:round;stroke-opacity:1"
         d="m 44500,41150 -1000,-400"
         id="path140"
         inkscape:connector-curvature="0" />
      <path
         style="fill:none;fill-opacity:0;stroke:#840000;stroke-width:60;stroke-linecap:round;stroke-linejoin:round;stroke-opacity:1"
         d="m 43750,42150 350,150"
         id="path142"
         inkscape:connector-curvature="0" />
      <path
         style="fill:none;fill-opacity:0;stroke:#840000;stroke-width:60;stroke-linecap:round;stroke-linejoin:round;stroke-opacity:1"
         d="m 43750,42150 150,-350"
         id="path144"
         inkscape:connector-curvature="0" />
      <path
         style="fill:none;fill-opacity:0;stroke:#840000;stroke-width:60;stroke-linecap:round;stroke-linejoin:round;stroke-opacity:1"
         d="m 43500,40750 0,-250"
         id="path146"
         inkscape:connector-curvature="0" />
      <path
         style="fill:none;fill-opacity:0;stroke:#840000;stroke-width:60;stroke-linecap:round;stroke-linejoin:round;stroke-opacity:1"
         d="m 44500,41850 -1000,400"
         id="path148"
         inkscape:connector-curvature="0" />
      <path
         style="fill:none;fill-opacity:0;stroke:#840000;stroke-width:60;stroke-linecap:round;stroke-linejoin:round;stroke-opacity:1"
         d="m 43500,42250 0,250"
         id="path150"
         inkscape:connector-curvature="0" />
      <path
         d="m 45000,41500 0,0"
         id="path152"
         inkscape:connector-curvature="0" />
      <path
         d="m 43500,40500 0,0"
         id="path154"
         inkscape:connector-curvature="0" />
      <path
         d="m 43500,42500 0,0"
         id="path156"
         inkscape:connector-curvature="0" />
    </g>
    <g
       style="fill:#008484;fill-opacity:0;stroke:#008484;stroke-width:60;stroke-linecap:round;stroke-linejoin:round;stroke-opacity:1"
       id="g158"
       transform="translate(375.28965,409.40689)">
      <text
         x="42540"
         y="41310"
         textLength="1060"
         font-size="660"
         lengthAdjust="spacingAndGlyphs"
         id="text160"
         style="font-size:660px;line-height:0%;text-anchor:middle;opacity:0">Q1</text>
      <path
         d="m 42490,41330 -50,-20 -50,-50 -70,-70 -50,-30 h -40"
         id="path162"
         inkscape:connector-curvature="0" />
      <path
         d="m 42250,41280 -50,-20 -50,-50 -20,-100 v -160 l 20,-100 50,-40 50,-30 h 90 l 50,30 50,40 20,100 v 160 l -20,100 -50,50 -50,20 h -90"
         id="path164"
         inkscape:connector-curvature="0" />
      <path
         d="m 42940,41280 h -290"
         id="path166"
         inkscape:connector-curvature="0" />
      <path
         d="m 42800,41280 v -500 l -50,70 -50,50 -50,20"
         id="path168"
         inkscape:connector-curvature="0" />
    </g>
  </g>
  <g
     style="fill:#008484;fill-opacity:0;stroke:#008484;stroke-width:0;stroke-linecap:round;stroke-linejoin:round;stroke-opacity:1"
     id="g188"
     transform="translate(-34633.066,-33921.953)">
    <g
       id="g190" />
    <g
       style="fill:#840000;fill-opacity:0;stroke:#840000;stroke-width:0;stroke-linecap:round;stroke-linejoin:round;stroke-opacity:1"
       id="g192" />
    <g
       style="fill:#840000;fill-opacity:0;stroke:#840000;stroke-width:60;stroke-linecap:round;stroke-linejoin:round;stroke-opacity:1"
       id="g194">
      <circle
         cx="38500"
         cy="39000"
         r="750"
         id="circle196" />
      <path
         style="fill:none;fill-opacity:0;stroke:#840000;stroke-width:60;stroke-linecap:round;stroke-linejoin:round;stroke-opacity:1"
         d="m 38250,39350 500,0"
         id="path198"
         inkscape:connector-curvature="0" />
      <path
         style="fill:none;fill-opacity:0;stroke:#840000;stroke-width:60;stroke-linecap:round;stroke-linejoin:round;stroke-opacity:1"
         d="m 38500,39750 0,250"
         id="path200"
         inkscape:connector-curvature="0" />
      <path
         style="fill:none;fill-opacity:0;stroke:#840000;stroke-width:60;stroke-linecap:round;stroke-linejoin:round;stroke-opacity:1"
         d="m 38500,39000 0,-500"
         id="path202"
         inkscape:connector-curvature="0" />
      <path
         style="fill:none;fill-opacity:0;stroke:#840000;stroke-width:60;stroke-linecap:round;stroke-linejoin:round;stroke-opacity:1"
         d="m 38500,38250 0,-250"
         id="path204"
         inkscape:connector-curvature="0" />
      <path
         style="fill:none;fill-opacity:0;stroke:#840000;stroke-width:60;stroke-linecap:round;stroke-linejoin:round;stroke-opacity:1"
         d="m 38750,38750 -500,0"
         id="path206"
         inkscape:connector-curvature="0" />
      <path
         d="m 38500,38000 0,0"
         id="path208"
         inkscape:connector-curvature="0" />
      <path
         d="m 38500,40000 0,0"
         id="path210"
         inkscape:connector-curvature="0" />
    </g>
    <g
       style="fill:#008484;fill-opacity:0;stroke:#008484;stroke-width:60;stroke-linecap:round;stroke-linejoin:round;stroke-opacity:1"
       id="g212">
      <text
         x="40010"
         y="38810"
         textLength="960"
         font-size="660"
         lengthAdjust="spacingAndGlyphs"
         id="text214"
         style="font-size:660px;line-height:0%;text-anchor:middle;opacity:0"
         transform="translate(-187.64482,426.46551)">V1</text>
      <path
         d="m 39412.355,38706.466 170,500 160,-500"
         id="path216"
         inkscape:connector-curvature="0" />
      <path
         d="m 40172.355,39206.466 h -280"
         id="path218"
         inkscape:connector-curvature="0" />
      <path
         d="m 40032.355,39206.466 v -500 l -50,70 -50,50 -40,20"
         id="path220"
         inkscape:connector-curvature="0" />
    </g>
  </g>
  <g
     style="fill:#008484;fill-opacity:0;stroke:#008484;stroke-width:0;stroke-linecap:round;stroke-linejoin:round;stroke-opacity:1"
     id="g228"
     transform="translate(-34633.066,-33921.953)">
    <g
       id="g230" />
    <g
       style="fill:#840000;fill-opacity:0;stroke:#840000;stroke-width:0;stroke-linecap:round;stroke-linejoin:round;stroke-opacity:1"
       id="g232" />
    <g
       style="fill:#840000;fill-opacity:0;stroke:#840000;stroke-width:60;stroke-linecap:round;stroke-linejoin:round;stroke-opacity:1"
       id="g234">
      <circle
         cx="43500"
         cy="36500"
         r="750"
         id="circle236" />
      <path
         style="fill:none;fill-opacity:0;stroke:#840000;stroke-width:60;stroke-linecap:round;stroke-linejoin:round;stroke-opacity:1"
         d="m 43500,37250 0,250"
         id="path238"
         inkscape:connector-curvature="0" />
      <path
         style="fill:none;fill-opacity:0;stroke:#840000;stroke-width:60;stroke-linecap:round;stroke-linejoin:round;stroke-opacity:1"
         d="m 43500,35750 0,-250"
         id="path240"
         inkscape:connector-curvature="0" />
    </g>
    <g
       style="fill:#840000;fill-opacity:1;stroke:#840000;stroke-width:60;stroke-linecap:round;stroke-linejoin:round;stroke-opacity:1"
       id="g242">
      <path
         style="fill:#840000;fill-opacity:1;fill-rule:evenodd;stroke:#840000;stroke-width:60;stroke-linecap:round;stroke-linejoin:round;stroke-opacity:1"
         d="m 43500,36000 0,1000 -250,-500 500,0 -250,500"
         id="path244"
         inkscape:connector-curvature="0" />
    </g>
    <g
       style="fill:#840000;fill-opacity:0;stroke:#840000;stroke-width:60;stroke-linecap:round;stroke-linejoin:round;stroke-opacity:1"
       id="g246">
      <path
         d="m 43500,35500 0,0"
         id="path248"
         inkscape:connector-curvature="0" />
      <path
         d="m 43500,37500 0,0"
         id="path250"
         inkscape:connector-curvature="0" />
    </g>
    <g
       style="fill:#008484;fill-opacity:0;stroke:#008484;stroke-width:60;stroke-linecap:round;stroke-linejoin:round;stroke-opacity:1"
       id="g252">
      <text
         x="44910"
         y="36310"
         textLength="770"
         font-size="660"
         lengthAdjust="spacingAndGlyphs"
         id="text254"
         style="font-size:660px;line-height:0%;text-anchor:middle;opacity:0"
         transform="translate(-170.5862,426.46551)">I1</text>
      <path
         d="m 44499.414,36706.466 v -500"
         id="path256"
         inkscape:connector-curvature="0" />
      <path
         d="m 44999.414,36706.466 h -290"
         id="path258"
         inkscape:connector-curvature="0" />
      <path
         d="m 44849.414,36706.466 v -500 l -40,70 -50,50 -50,20"
         id="path260"
         inkscape:connector-curvature="0" />
    </g>
  </g>
  <g
     style="fill:#008484;fill-opacity:0;stroke:#008484;stroke-width:0;stroke-linecap:round;stroke-linejoin:round;stroke-opacity:1"
     id="g276"
     transform="translate(-34633.066,-33921.953)">
    <g
       id="g278" />
    <g
       style="fill:#840000;fill-opacity:0;stroke:#840000;stroke-width:0;stroke-linecap:round;stroke-linejoin:round;stroke-opacity:1"
       id="g280" />
    <g
       style="fill:#840000;fill-opacity:0;stroke:#840000;stroke-width:60;stroke-linecap:round;stroke-linejoin:round;stroke-opacity:1"
       id="g282">
      <circle
         cx="36500"
         cy="34500"
         r="500"
         id="circle284" />
      <path
         style="fill:none;fill-opacity:0;stroke:#840000;stroke-width:60;stroke-linecap:round;stroke-linejoin:round;stroke-opacity:1"
         d="m 36500,34250 0,500"
         id="path286"
         inkscape:connector-curvature="0" />
      <path
         style="fill:none;fill-opacity:0;stroke:#840000;stroke-width:60;stroke-linecap:round;stroke-linejoin:round;stroke-opacity:1"
         d="m 37500,34500 -500,0"
         id="path288"
         inkscape:connector-curvature="0" />
      <path
         style="fill:none;fill-opacity:0;stroke:#840000;stroke-width:60;stroke-linecap:round;stroke-linejoin:round;stroke-opacity:1"
         d="m 36750,34500 -500,0"
         id="path290"
         inkscape:connector-curvature="0" />
      <path
         d="m 37500,34500 0,0"
         id="path292"
         inkscape:connector-curvature="0" />
    </g>
    <g
       style="fill:#008484;fill-opacity:0;stroke:#008484;stroke-width:60;stroke-linecap:round;stroke-linejoin:round;stroke-opacity:1"
       id="g294">
      <text
         x="35160"
         y="34770"
         textLength="1110"
         font-size="660"
         lengthAdjust="spacingAndGlyphs"
         id="text296"
         style="font-size:660px;line-height:0%;text-anchor:middle;opacity:0">V+</text>
      <path
         d="m 34680,34240 170,500 160,-500"
         id="path298"
         inkscape:connector-curvature="0" />
      <path
         d="m 35180,34550 380,0"
         id="path300"
         inkscape:connector-curvature="0" />
      <path
         d="m 35370,34740 0,-380"
         id="path302"
         inkscape:connector-curvature="0" />
    </g>
  </g>
  <g
     style="fill:#008484;fill-opacity:0;stroke:#008484;stroke-width:60;stroke-linecap:round;stroke-linejoin:round;stroke-opacity:1"
     id="g304"
     transform="translate(-34633.066,-33921.953)" />
  <g
     style="fill:#008400;fill-opacity:0;stroke:#008400;stroke-width:60;stroke-linecap:round;stroke-linejoin:round;stroke-opacity:1"
     id="g306"
     transform="translate(-34633.066,-33921.953)">
    <path
       d="m 38500,34500 0,3500"
       id="path308"
       inkscape:connector-curvature="0" />
    <path
       d="m 38500,40000 0,4000"
       id="path310"
       inkscape:connector-curvature="0" />
    <path
       d="m 45000,41500 1500,0"
       id="path312"
       inkscape:connector-curvature="0" />
    <path
       d="m 43500,34500 0,1000"
       id="path314"
       inkscape:connector-curvature="0" />
    <path
       d="m 43500,37500 0,1500"
       id="path316"
       inkscape:connector-curvature="0" />
    <path
       d="m 46500,41500 1500,0"
       id="path318"
       inkscape:connector-curvature="0" />
    <path
       d="m 43500,39000 0,1500"
       id="path320"
       inkscape:connector-curvature="0" />
    <path
       d="m 38500,34500 5000,0"
       id="path322"
       inkscape:connector-curvature="0" />
    <path
       d="m 49500,44000 3500,0"
       id="path324"
       inkscape:connector-curvature="0" />
    <path
       d="m 46500,44000 3000,0"
       id="path326"
       inkscape:connector-curvature="0" />
    <path
       d="m 43500,44000 3000,0"
       id="path328"
       inkscape:connector-curvature="0" />
    <path
       d="m 38500,44000 5000,0"
       id="path330"
       inkscape:connector-curvature="0" />
    <path
       d="m 43500,39000 3000,0"
       id="path332"
       inkscape:connector-curvature="0" />
    <path
       d="m 46500,39000 0,2500"
       id="path334"
       inkscape:connector-curvature="0" />
    <path
       d="m 53000,40500 0,-1500"
       id="path336"
       inkscape:connector-curvature="0" />
    <path
       d="m 53000,39000 -3500,0"
       id="path338"
       inkscape:connector-curvature="0" />
    <path
       d="m 49500,39000 0,1500"
       id="path340"
       inkscape:connector-curvature="0" />
    <path
       d="m 37500,34500 1000,0"
       id="path342"
       inkscape:connector-curvature="0" />
    <path
       d="m 43500,42500 0,1500"
       id="path344"
       inkscape:connector-curvature="0" />
    <path
       d="m 49500,44000 0,-1500"
       id="path346"
       inkscape:connector-curvature="0" />
    <path
       d="m 53000,44000 0,-1500"
       id="path348"
       inkscape:connector-curvature="0" />
    <path
       d="m 46500,45000 0,-1000"
       id="path350"
       inkscape:connector-curvature="0" />
  </g>
  <g
     style="fill:#000000;fill-opacity:0;stroke:#000000;stroke-width:60;stroke-linecap:round;stroke-linejoin:round;stroke-opacity:1"
     id="g352"
     transform="translate(-34633.066,-33921.953)">
    <text
       x="49500"
       y="38900"
       textLength="1170"
       font-size="800"
       lengthAdjust="spacingAndGlyphs"
       id="text354"
       style="font-size:800px;line-height:0%;text-anchor:start;opacity:0">n2</text>
    <path
       d="m 49670,38470 0,400"
       id="path356"
       inkscape:connector-curvature="0" />
    <path
       d="m 49670,38520 30,-20 50,-30 90,0 60,30 30,50 0,320"
       id="path358"
       inkscape:connector-curvature="0" />
    <path
       d="m 50180,38320 30,-20 60,-30 140,0 60,30 30,20 30,60 0,60 -30,80 -350,350 380,0"
       id="path360"
       inkscape:connector-curvature="0" />
    <text
       x="46500"
       y="43900"
       textLength="630"
       font-size="800"
       lengthAdjust="spacingAndGlyphs"
       id="text362"
       style="font-size:800px;line-height:0%;text-anchor:start;opacity:0">0</text>
    <path
       d="m 46780,43270 60,0 60,30 30,20 20,60 30,120 0,140 -30,110 -20,60 -30,30 -60,30 -60,0 -50,-30 -30,-30 -30,-60 -30,-110 0,-140 30,-120 30,-60 30,-20 50,-30"
       id="path364"
       inkscape:connector-curvature="0" />
    <text
       x="43500"
       y="38900"
       textLength="1170"
       font-size="800"
       lengthAdjust="spacingAndGlyphs"
       id="text366"
       style="font-size:800px;line-height:0%;text-anchor:start;opacity:0">n1</text>
    <path
       d="m 43670,38470 0,400"
       id="path368"
       inkscape:connector-curvature="0" />
    <path
       d="m 43670,38520 30,-20 50,-30 90,0 60,30 30,50 0,320"
       id="path370"
       inkscape:connector-curvature="0" />
    <path
       d="m 44530,38870 -350,0"
       id="path372"
       inkscape:connector-curvature="0" />
    <path
       d="m 44350,38870 0,-600 -50,80 -60,60 -60,30"
       id="path374"
       inkscape:connector-curvature="0" />
    <text
       x="40000"
       y="34400"
       textLength="2630"
       font-size="800"
       lengthAdjust="spacingAndGlyphs"
       id="text376"
       style="font-size:800px;line-height:0%;text-anchor:start;opacity:0">n_pos</text>
    <path
       d="m 40170,33970 0,400"
       id="path378"
       inkscape:connector-curvature="0" />
    <path
       d="m 40170,34020 30,-20 50,-30 90,0 60,30 30,50 0,320"
       id="path380"
       inkscape:connector-curvature="0" />
    <path
       d="m 40570,34420 460,0"
       id="path382"
       inkscape:connector-curvature="0" />
    <path
       d="m 41170,33970 0,600"
       id="path384"
       inkscape:connector-curvature="0" />
    <path
       d="m 41170,34000 60,-30 110,0 60,30 30,20 20,60 0,170 -20,60 -30,30 -60,30 -110,0 -60,-30"
       id="path386"
       inkscape:connector-curvature="0" />
    <path
       d="m 41800,34370 -60,-30 -30,-30 -30,-60 0,-170 30,-60 30,-20 60,-30 80,0 60,30 30,20 30,60 0,170 -30,60 -30,30 -60,30 -80,0"
       id="path388"
       inkscape:connector-curvature="0" />
    <path
       d="m 42230,34340 50,30 120,0 50,-30 30,-60 0,-30 -30,-50 -50,-30 -90,0 -60,-30 -20,-60 0,-30 20,-50 60,-30 90,0 50,30"
       id="path390"
       inkscape:connector-curvature="0" />
  </g>
  <g
     style="fill:#000000;fill-opacity:0;stroke:#000000;stroke-width:0;stroke-linecap:round;stroke-linejoin:round;stroke-opacity:1"
     id="g392"
     transform="translate(-34633.066,-33921.953)" />
  <g
     style="fill:#008400;fill-opacity:0;stroke:#008400;stroke-width:0;stroke-linecap:round;stroke-linejoin:round;stroke-opacity:1"
     id="g394"
     transform="translate(-34633.066,-33921.953)" />
  <g
     style="fill:#008400;fill-opacity:1;stroke:#008400;stroke-width:100;stroke-linecap:round;stroke-linejoin:round;stroke-opacity:1"
     id="g396"
     transform="translate(-34633.066,-33921.953)">
    <circle
       cx="43500"
       cy="44000"
       r="200"
       id="circle398" />
  </g>
  <g
     style="fill:#008400;fill-opacity:1;stroke:#008400;stroke-width:0;stroke-linecap:round;stroke-linejoin:round;stroke-opacity:1"
     id="g400"
     transform="translate(-34633.066,-33921.953)" />
  <g
     style="fill:#008400;fill-opacity:1;stroke:#008400;stroke-width:100;stroke-linecap:round;stroke-linejoin:round;stroke-opacity:1"
     id="g402"
     transform="translate(-34633.066,-33921.953)">
    <circle
       cx="49500"
       cy="44000"
       r="200"
       id="circle404" />
  </g>
  <g
     style="fill:#008400;fill-opacity:1;stroke:#008400;stroke-width:0;stroke-linecap:round;stroke-linejoin:round;stroke-opacity:1"
     id="g406"
     transform="translate(-34633.066,-33921.953)" />
  <g
     style="fill:#008400;fill-opacity:1;stroke:#008400;stroke-width:100;stroke-linecap:round;stroke-linejoin:round;stroke-opacity:1"
     id="g408"
     transform="translate(-34633.066,-33921.953)">
    <circle
       cx="38500"
       cy="34500"
       r="200"
       id="circle410" />
  </g>
  <g
     style="fill:#008400;fill-opacity:1;stroke:#008400;stroke-width:0;stroke-linecap:round;stroke-linejoin:round;stroke-opacity:1"
     id="g412"
     transform="translate(-34633.066,-33921.953)" />
  <g
     style="fill:#008400;fill-opacity:1;stroke:#008400;stroke-width:100;stroke-linecap:round;stroke-linejoin:round;stroke-opacity:1"
     id="g414"
     transform="translate(-34633.066,-33921.953)">
    <circle
       cx="43500"
       cy="39000"
       r="200"
       id="circle416" />
  </g>
  <g
     style="fill:#008400;fill-opacity:1;stroke:#008400;stroke-width:0;stroke-linecap:round;stroke-linejoin:round;stroke-opacity:1"
     id="g418"
     transform="translate(-34633.066,-33921.953)" />
  <g
     style="fill:#008400;fill-opacity:1;stroke:#008400;stroke-width:100;stroke-linecap:round;stroke-linejoin:round;stroke-opacity:1"
     id="g420"
     transform="translate(-34633.066,-33921.953)">
    <circle
       cx="46500"
       cy="41500"
       r="200"
       id="circle422" />
  </g>
  <g
     style="fill:#008400;fill-opacity:1;stroke:#008400;stroke-width:0;stroke-linecap:round;stroke-linejoin:round;stroke-opacity:1"
     id="g424"
     transform="translate(-34633.066,-33921.953)" />
  <g
     style="fill:#008400;fill-opacity:1;stroke:#008400;stroke-width:100;stroke-linecap:round;stroke-linejoin:round;stroke-opacity:1"
     id="g426"
     transform="translate(-34633.066,-33921.953)">
    <circle
       cx="46500"
       cy="44000"
       r="200"
       id="circle428" />
  </g>
</svg>
