<?xml version="1.0" encoding="UTF-8" standalone="no"?>
<svg
   xmlns:dc="http://purl.org/dc/elements/1.1/"
   xmlns:cc="http://creativecommons.org/ns#"
   xmlns:rdf="http://www.w3.org/1999/02/22-rdf-syntax-ns#"
   xmlns:svg="http://www.w3.org/2000/svg"
   xmlns="http://www.w3.org/2000/svg"
   xmlns:sodipodi="http://sodipodi.sourceforge.net/DTD/sodipodi-0.dtd"
   xmlns:inkscape="http://www.inkscape.org/namespaces/inkscape"
   version="1.1"
   width="3.0971849cm"
   height="1.7855275cm"
   viewBox="0 0 12193.65 7029.6424"
   id="svg264"
   sodipodi:docname="schematic.svg"
   inkscape:version="0.92.5 (2060ec1f9f, 2020-04-08)">
  <metadata
     id="metadata270">
    <rdf:RDF>
      <cc:Work
         rdf:about="">
        <dc:format>image/svg+xml</dc:format>
        <dc:type
           rdf:resource="http://purl.org/dc/dcmitype/StillImage" />
        <dc:title>SVG Picture created as schematic.svg date 2020/09/02 22:07:37 </dc:title>
      </cc:Work>
    </rdf:RDF>
  </metadata>
  <defs
     id="defs268" />
  <sodipodi:namedview
     pagecolor="#ffffff"
     bordercolor="#666666"
     borderopacity="1"
     objecttolerance="10"
     gridtolerance="10"
     guidetolerance="10"
     inkscape:pageopacity="0"
     inkscape:pageshadow="2"
     inkscape:window-width="1920"
     inkscape:window-height="1031"
     id="namedview266"
     showgrid="false"
     fit-margin-top="0"
     fit-margin-left="0"
     fit-margin-right="0"
     fit-margin-bottom="0"
     inkscape:zoom="5.6038035"
     inkscape:cx="80.047906"
     inkscape:cy="32.991611"
     inkscape:window-x="0"
     inkscape:window-y="0"
     inkscape:window-maximized="1"
     inkscape:current-layer="svg264" />
  <title
     id="title2">SVG Picture created as schematic.svg date 2020/09/02 22:07:37 </title>
  <desc
     id="desc4">Picture generated by Eeschema-SVG </desc>
  <g
     style="fill:#000000;fill-opacity:1;stroke:#000000;stroke-linecap:round;stroke-linejoin:round;stroke-opacity:1"
     id="g6"
     transform="translate(-62645.52,-32000.361)" />
  <g
     style="fill:#000000;fill-opacity:0;stroke:#000000;stroke-width:0;stroke-linecap:round;stroke-linejoin:round;stroke-opacity:1"
     id="g42"
     transform="translate(-62645.52,-32000.361)">
    <g
       id="g8" />
    <g
       style="fill:#840000;fill-opacity:0;stroke:#840000;stroke-width:0;stroke-linecap:round;stroke-linejoin:round;stroke-opacity:1"
       id="g10" />
    <g
       style="fill:#840000;fill-opacity:0;stroke:#840000;stroke-width:60;stroke-linecap:round;stroke-linejoin:round;stroke-opacity:1"
       id="g28">
      <circle
         cx="65000"
         cy="33750"
         r="750"
         id="circle12" />
      <path
         style="fill:none;fill-opacity:0;stroke:#840000;stroke-width:60;stroke-linecap:round;stroke-linejoin:round;stroke-opacity:1"
         d="m 65250,33400 h -500"
         id="path14"
         inkscape:connector-curvature="0" />
      <path
         style="fill:none;fill-opacity:0;stroke:#840000;stroke-width:60;stroke-linecap:round;stroke-linejoin:round;stroke-opacity:1"
         d="m 65000,33000 v -250"
         id="path16"
         inkscape:connector-curvature="0" />
      <path
         style="fill:none;fill-opacity:0;stroke:#840000;stroke-width:60;stroke-linecap:round;stroke-linejoin:round;stroke-opacity:1"
         d="m 65000,33750 v 500"
         id="path18"
         inkscape:connector-curvature="0" />
      <path
         style="fill:none;fill-opacity:0;stroke:#840000;stroke-width:60;stroke-linecap:round;stroke-linejoin:round;stroke-opacity:1"
         d="m 65000,34500 v 250"
         id="path20"
         inkscape:connector-curvature="0" />
      <path
         style="fill:none;fill-opacity:0;stroke:#840000;stroke-width:60;stroke-linecap:round;stroke-linejoin:round;stroke-opacity:1"
         d="m 64750,34000 h 500"
         id="path22"
         inkscape:connector-curvature="0" />
      <path
         d="m 65000,34750 v 0"
         id="path24"
         inkscape:connector-curvature="0" />
      <path
         d="m 65000,32750 v 0"
         id="path26"
         inkscape:connector-curvature="0" />
    </g>
    <g
       style="fill:#008484;fill-opacity:0;stroke:#008484;stroke-width:60;stroke-linecap:round;stroke-linejoin:round;stroke-opacity:1"
       id="g40">
      <text
         x="63320"
         y="33970"
         textLength="1300"
         font-size="660"
         lengthAdjust="spacingAndGlyphs"
         id="text30"
         style="font-size:660px;text-anchor:middle;opacity:0">Vgs</text>
      <path
         d="m 62720,33440 170,500 160,-500"
         id="path32"
         inkscape:connector-curvature="0" />
      <path
         d="m 63430,33610 v 400 l -20,50 -20,20 -50,30 h -70 l -50,-30"
         id="path34"
         inkscape:connector-curvature="0" />
      <path
         d="m 63430,33920 -40,20 h -100 l -50,-20 -20,-30 -20,-40 v -150 l 20,-40 20,-30 50,-20 h 100 l 40,20"
         id="path36"
         inkscape:connector-curvature="0" />
      <path
         d="m 63650,33920 50,20 h 90 l 50,-20 20,-50 v -20 l -20,-50 -50,-30 h -70 l -50,-20 -20,-50 v -20 l 20,-50 50,-20 h 70 l 50,20"
         id="path38"
         inkscape:connector-curvature="0" />
    </g>
  </g>
  <g
     style="fill:#008484;fill-opacity:0;stroke:#008484;stroke-width:0;stroke-linecap:round;stroke-linejoin:round;stroke-opacity:1"
     id="g78"
     transform="translate(-62645.52,-32000.361)">
    <g
       id="g44" />
    <g
       style="fill:#840000;fill-opacity:0;stroke:#840000;stroke-width:0;stroke-linecap:round;stroke-linejoin:round;stroke-opacity:1"
       id="g46" />
    <g
       style="fill:#840000;fill-opacity:0;stroke:#840000;stroke-width:60;stroke-linecap:round;stroke-linejoin:round;stroke-opacity:1"
       id="g64">
      <circle
         cx="72500"
         cy="35000"
         r="750"
         id="circle48" />
      <path
         style="fill:none;fill-opacity:0;stroke:#840000;stroke-width:60;stroke-linecap:round;stroke-linejoin:round;stroke-opacity:1"
         d="m 72250,34650 h 500"
         id="path50"
         inkscape:connector-curvature="0" />
      <path
         style="fill:none;fill-opacity:0;stroke:#840000;stroke-width:60;stroke-linecap:round;stroke-linejoin:round;stroke-opacity:1"
         d="m 72500,34250 v -250"
         id="path52"
         inkscape:connector-curvature="0" />
      <path
         style="fill:none;fill-opacity:0;stroke:#840000;stroke-width:60;stroke-linecap:round;stroke-linejoin:round;stroke-opacity:1"
         d="m 72500,35000 v 500"
         id="path54"
         inkscape:connector-curvature="0" />
      <path
         style="fill:none;fill-opacity:0;stroke:#840000;stroke-width:60;stroke-linecap:round;stroke-linejoin:round;stroke-opacity:1"
         d="m 72500,35750 v 250"
         id="path56"
         inkscape:connector-curvature="0" />
      <path
         style="fill:none;fill-opacity:0;stroke:#840000;stroke-width:60;stroke-linecap:round;stroke-linejoin:round;stroke-opacity:1"
         d="m 72750,35250 h -500"
         id="path58"
         inkscape:connector-curvature="0" />
      <path
         d="m 72500,36000 v 0"
         id="path60"
         inkscape:connector-curvature="0" />
      <path
         d="m 72500,34000 v 0"
         id="path62"
         inkscape:connector-curvature="0" />
    </g>
    <g
       style="fill:#008484;fill-opacity:0;stroke:#008484;stroke-width:60;stroke-linecap:round;stroke-linejoin:round;stroke-opacity:1"
       id="g76">
      <text
         x="74170"
         y="35220"
         textLength="1350"
         font-size="660"
         lengthAdjust="spacingAndGlyphs"
         id="text66"
         style="font-size:660px;text-anchor:middle;opacity:0">Vds</text>
      <path
         d="m 73570,34690 170,500 160,-500"
         id="path68"
         inkscape:connector-curvature="0" />
      <path
         d="m 74280,35190 v -500"
         id="path70"
         inkscape:connector-curvature="0" />
      <path
         d="m 74280,35170 -40,20 h -100 l -50,-20 -20,-30 -20,-40 v -150 l 20,-40 20,-30 50,-20 h 100 l 40,20"
         id="path72"
         inkscape:connector-curvature="0" />
      <path
         d="m 74500,35170 50,20 h 90 l 50,-20 20,-50 v -20 l -20,-50 -50,-30 h -70 l -50,-20 -20,-50 v -20 l 20,-50 50,-20 h 70 l 50,20"
         id="path74"
         inkscape:connector-curvature="0" />
    </g>
  </g>
  <g
     style="fill:#008484;fill-opacity:0;stroke:#008484;stroke-width:0;stroke-linecap:round;stroke-linejoin:round;stroke-opacity:1"
     id="g96"
     transform="translate(-62645.52,-32000.361)">
    <g
       id="g80" />
    <g
       style="fill:#840000;fill-opacity:0;stroke:#840000;stroke-width:0;stroke-linecap:round;stroke-linejoin:round;stroke-opacity:1"
       id="g82" />
    <g
       style="fill:#840000;fill-opacity:0;stroke:#840000;stroke-width:60;stroke-linecap:round;stroke-linejoin:round;stroke-opacity:1"
       id="g94">
      <path
         style="fill:none;fill-opacity:0;stroke:#840000;stroke-width:60;stroke-linecap:round;stroke-linejoin:round;stroke-opacity:1"
         d="m 67750,38500 h 1500"
         id="path84"
         inkscape:connector-curvature="0" />
      <path
         style="fill:none;fill-opacity:0;stroke:#840000;stroke-width:60;stroke-linecap:round;stroke-linejoin:round;stroke-opacity:1"
         d="m 68000,38750 h 1000"
         id="path86"
         inkscape:connector-curvature="0" />
      <path
         style="fill:none;fill-opacity:0;stroke:#840000;stroke-width:60;stroke-linecap:round;stroke-linejoin:round;stroke-opacity:1"
         d="m 68250,39000 h 500"
         id="path88"
         inkscape:connector-curvature="0" />
      <path
         style="fill:none;fill-opacity:0;stroke:#840000;stroke-width:60;stroke-linecap:round;stroke-linejoin:round;stroke-opacity:1"
         d="m 68500,37500 v 1000"
         id="path90"
         inkscape:connector-curvature="0" />
      <path
         d="m 68500,37500 v 0"
         id="path92"
         inkscape:connector-curvature="0" />
    </g>
  </g>
  <g
     style="fill:#840000;fill-opacity:0;stroke:#840000;stroke-width:0;stroke-linecap:round;stroke-linejoin:round;stroke-opacity:1"
     id="g140"
     transform="translate(-62645.52,-32000.361)">
    <g
       id="g98" />
    <g
       style="fill:#840000;fill-opacity:0;stroke:#840000;stroke-width:60;stroke-linecap:round;stroke-linejoin:round;stroke-opacity:1"
       id="g128">
      <circle
         cx="67400"
         cy="35000"
         r="100"
         id="circle100" />
      <path
         style="fill:none;fill-opacity:0;stroke:#840000;stroke-width:60;stroke-linecap:round;stroke-linejoin:round;stroke-opacity:1"
         d="m 67000,35000 h 300"
         id="path102"
         inkscape:connector-curvature="0" />
      <path
         style="fill:none;fill-opacity:0;stroke:#840000;stroke-width:60;stroke-linecap:round;stroke-linejoin:round;stroke-opacity:1"
         d="m 67750,35000 h 750"
         id="path104"
         inkscape:connector-curvature="0" />
      <path
         style="fill:none;fill-opacity:0;stroke:#840000;stroke-width:60;stroke-linecap:round;stroke-linejoin:round;stroke-opacity:1"
         d="M 67500,35500 V 34500"
         id="path106"
         inkscape:connector-curvature="0" />
      <path
         style="fill:none;fill-opacity:0;stroke:#840000;stroke-width:60;stroke-linecap:round;stroke-linejoin:round;stroke-opacity:1"
         d="M 67750,35500 V 34500"
         id="path108"
         inkscape:connector-curvature="0" />
      <path
         style="fill:none;fill-opacity:0;stroke:#840000;stroke-width:60;stroke-linecap:round;stroke-linejoin:round;stroke-opacity:1"
         d="m 67750,35500 h 750"
         id="path110"
         inkscape:connector-curvature="0" />
      <path
         style="fill:none;fill-opacity:0;stroke:#840000;stroke-width:60;stroke-linecap:round;stroke-linejoin:round;stroke-opacity:1"
         d="m 67750,34500 h 750"
         id="path112"
         inkscape:connector-curvature="0" />
      <path
         style="fill:none;fill-opacity:0;stroke:#840000;stroke-width:60;stroke-linecap:round;stroke-linejoin:round;stroke-opacity:1"
         d="m 68500,35500 v 500"
         id="path114"
         inkscape:connector-curvature="0" />
      <path
         style="fill:none;fill-opacity:0;stroke:#840000;stroke-width:60;stroke-linecap:round;stroke-linejoin:round;stroke-opacity:1"
         d="m 68500,34500 v -500"
         id="path116"
         inkscape:connector-curvature="0" />
      <path
         style="fill:none;fill-opacity:0;stroke:#840000;stroke-width:60;stroke-linecap:round;stroke-linejoin:round;stroke-opacity:1"
         d="m 68300,34300 -300,200 300,200"
         id="path118"
         inkscape:connector-curvature="0" />
      <path
         d="m 68500,35000 v 0"
         id="path120"
         inkscape:connector-curvature="0" />
      <path
         d="m 68500,36000 v 0"
         id="path122"
         inkscape:connector-curvature="0" />
      <path
         d="m 67000,35000 v 0"
         id="path124"
         inkscape:connector-curvature="0" />
      <path
         d="m 68500,34000 v 0"
         id="path126"
         inkscape:connector-curvature="0" />
    </g>
    <g
       style="fill:#008484;fill-opacity:0;stroke:#008484;stroke-width:60;stroke-linecap:round;stroke-linejoin:round;stroke-opacity:1"
       id="g138">
      <text
         x="67690"
         y="34020"
         textLength="1110"
         font-size="660"
         lengthAdjust="spacingAndGlyphs"
         id="text130"
         style="font-size:660px;text-anchor:middle;opacity:0">M1</text>
      <path
         d="m 67280,33990 v -500 l 170,360 160,-360 v 500"
         id="path132"
         inkscape:connector-curvature="0" />
      <path
         d="m 68110,33990 h -280"
         id="path134"
         inkscape:connector-curvature="0" />
      <path
         d="m 67970,33990 v -500 l -50,70 -40,50 -50,20"
         id="path136"
         inkscape:connector-curvature="0" />
    </g>
  </g>
  <g
     style="fill:#008484;fill-opacity:0;stroke:#008484;stroke-width:0;stroke-linecap:round;stroke-linejoin:round;stroke-opacity:1"
     id="g176"
     transform="translate(-62645.52,-32000.361)">
    <g
       id="g142" />
    <g
       style="fill:#840000;fill-opacity:0;stroke:#840000;stroke-width:0;stroke-linecap:round;stroke-linejoin:round;stroke-opacity:1"
       id="g144" />
    <g
       style="fill:#840000;fill-opacity:0;stroke:#840000;stroke-width:60;stroke-linecap:round;stroke-linejoin:round;stroke-opacity:1"
       id="g162">
      <circle
         cx="70000"
         cy="33750"
         r="750"
         id="circle146" />
      <path
         style="fill:none;fill-opacity:0;stroke:#840000;stroke-width:60;stroke-linecap:round;stroke-linejoin:round;stroke-opacity:1"
         d="m 69750,33400 h 500"
         id="path148"
         inkscape:connector-curvature="0" />
      <path
         style="fill:none;fill-opacity:0;stroke:#840000;stroke-width:60;stroke-linecap:round;stroke-linejoin:round;stroke-opacity:1"
         d="m 70000,33000 v -250"
         id="path150"
         inkscape:connector-curvature="0" />
      <path
         style="fill:none;fill-opacity:0;stroke:#840000;stroke-width:60;stroke-linecap:round;stroke-linejoin:round;stroke-opacity:1"
         d="m 70000,33750 v 500"
         id="path152"
         inkscape:connector-curvature="0" />
      <path
         style="fill:none;fill-opacity:0;stroke:#840000;stroke-width:60;stroke-linecap:round;stroke-linejoin:round;stroke-opacity:1"
         d="m 70000,34500 v 250"
         id="path154"
         inkscape:connector-curvature="0" />
      <path
         style="fill:none;fill-opacity:0;stroke:#840000;stroke-width:60;stroke-linecap:round;stroke-linejoin:round;stroke-opacity:1"
         d="m 70250,34000 h -500"
         id="path156"
         inkscape:connector-curvature="0" />
      <path
         d="m 70000,34750 v 0"
         id="path158"
         inkscape:connector-curvature="0" />
      <path
         d="m 70000,32750 v 0"
         id="path160"
         inkscape:connector-curvature="0" />
    </g>
    <g
       style="fill:#008484;fill-opacity:0;stroke:#008484;stroke-width:60;stroke-linecap:round;stroke-linejoin:round;stroke-opacity:1"
       id="g174">
      <text
         x="71670"
         y="33970"
         textLength="1350"
         font-size="660"
         lengthAdjust="spacingAndGlyphs"
         id="text164"
         style="font-size:660px;text-anchor:middle;opacity:0">Vbs</text>
      <path
         d="m 71070,33440 170,500 160,-500"
         id="path166"
         inkscape:connector-curvature="0" />
      <path
         d="m 71570,33940 v -500"
         id="path168"
         inkscape:connector-curvature="0" />
      <path
         d="m 71570,33630 50,-20 h 90 l 50,20 20,30 30,40 v 150 l -30,40 -20,30 -50,20 h -90 l -50,-20"
         id="path170"
         inkscape:connector-curvature="0" />
      <path
         d="m 72000,33920 50,20 h 90 l 50,-20 20,-50 v -20 l -20,-50 -50,-30 h -70 l -50,-20 -20,-50 v -20 l 20,-50 50,-20 h 70 l 50,20"
         id="path172"
         inkscape:connector-curvature="0" />
    </g>
  </g>
  <g
     style="fill:#008484;fill-opacity:0;stroke:#008484;stroke-width:60;stroke-linecap:round;stroke-linejoin:round;stroke-opacity:1"
     id="g178"
     transform="translate(-62645.52,-32000.361)" />
  <g
     style="fill:#008400;fill-opacity:0;stroke:#008400;stroke-width:60;stroke-linecap:round;stroke-linejoin:round;stroke-opacity:1"
     id="g208"
     transform="translate(-62645.52,-32000.361)">
    <path
       d="M 72500,37500 H 68500"
       id="path180"
       inkscape:connector-curvature="0" />
    <path
       d="m 68500,36000 v 1500"
       id="path182"
       inkscape:connector-curvature="0" />
    <path
       d="M 72500,37500 V 36000"
       id="path184"
       inkscape:connector-curvature="0" />
    <path
       d="m 70000,32500 h 2500"
       id="path186"
       inkscape:connector-curvature="0" />
    <path
       d="m 70000,32750 v -250"
       id="path188"
       inkscape:connector-curvature="0" />
    <path
       d="m 70000,34750 v 250"
       id="path190"
       inkscape:connector-curvature="0" />
    <path
       d="m 65000,32500 h 3500"
       id="path192"
       inkscape:connector-curvature="0" />
    <path
       d="m 65000,32750 v -250"
       id="path194"
       inkscape:connector-curvature="0" />
    <path
       d="m 65000,35000 v -250"
       id="path196"
       inkscape:connector-curvature="0" />
    <path
       d="M 67000,35000 H 65000"
       id="path198"
       inkscape:connector-curvature="0" />
    <path
       d="M 72500,34000 V 32500"
       id="path200"
       inkscape:connector-curvature="0" />
    <path
       d="m 68500,32500 h 1500"
       id="path202"
       inkscape:connector-curvature="0" />
    <path
       d="M 70000,35000 H 68500"
       id="path204"
       inkscape:connector-curvature="0" />
    <path
       d="m 68500,32500 v 1500"
       id="path206"
       inkscape:connector-curvature="0" />
  </g>
  <g
     style="fill:#000000;fill-opacity:0;stroke:#000000;stroke-width:60;stroke-linecap:round;stroke-linejoin:round;stroke-opacity:1"
     id="g242"
     transform="translate(-62645.52,-32000.361)">
    <text
       x="68750"
       y="34900"
       textLength="960"
       font-size="660"
       lengthAdjust="spacingAndGlyphs"
       id="text210"
       style="font-size:660px;text-anchor:start;opacity:0">nb</text>
    <path
       d="m 68890,34540 v 330"
       id="path212"
       inkscape:connector-curvature="0" />
    <path
       d="m 68890,34590 30,-30 50,-20 h 70 l 40,20 30,50 v 260"
       id="path214"
       inkscape:connector-curvature="0" />
    <path
       d="m 69350,34870 v -500"
       id="path216"
       inkscape:connector-curvature="0" />
    <path
       d="m 69350,34560 40,-20 h 100 l 50,20 20,30 20,40 v 150 l -20,40 -20,30 -50,20 h -100 l -40,-20"
       id="path218"
       inkscape:connector-curvature="0" />
    <text
       x="68500"
       y="37400"
       textLength="630"
       font-size="800"
       lengthAdjust="spacingAndGlyphs"
       id="text220"
       style="font-size:800px;text-anchor:start;opacity:0">0</text>
    <path
       d="m 68780,36770 h 60 l 60,30 30,20 20,60 30,120 v 140 l -30,110 -20,60 -30,30 -60,30 h -60 l -50,-30 -30,-30 -30,-60 -30,-110 v -140 l 30,-120 30,-60 30,-20 50,-30"
       id="path222"
       inkscape:connector-curvature="0" />
    <text
       x="68500"
       y="32400"
       textLength="920"
       font-size="660"
       lengthAdjust="spacingAndGlyphs"
       id="text224"
       style="font-size:660px;text-anchor:start;opacity:0">ns</text>
    <path
       d="m 68640,32040 v 330"
       id="path226"
       inkscape:connector-curvature="0" />
    <path
       d="m 68640,32090 30,-30 50,-20 h 70 l 40,20 30,50 v 260"
       id="path228"
       inkscape:connector-curvature="0" />
    <path
       d="m 69070,32350 50,20 h 100 l 40,-20 30,-50 v -20 l -30,-50 -40,-30 h -80 l -40,-20 -30,-50 v -20 l 30,-50 40,-20 h 80 l 40,20"
       id="path230"
       inkscape:connector-curvature="0" />
    <text
       x="65750"
       y="34900"
       textLength="960"
       font-size="660"
       lengthAdjust="spacingAndGlyphs"
       id="text232"
       style="font-size:660px;text-anchor:start;opacity:0">ng</text>
    <path
       d="m 65890,34540 v 330"
       id="path234"
       inkscape:connector-curvature="0" />
    <path
       d="m 65890,34590 30,-30 50,-20 h 70 l 40,20 30,50 v 260"
       id="path236"
       inkscape:connector-curvature="0" />
    <path
       d="m 66560,34540 v 400 l -20,50 -30,20 -40,30 h -80 l -40,-30"
       id="path238"
       inkscape:connector-curvature="0" />
    <path
       d="m 66560,34850 -50,20 h -90 l -50,-20 -20,-30 -30,-40 v -150 l 30,-40 20,-30 50,-20 h 90 l 50,20"
       id="path240"
       inkscape:connector-curvature="0" />
  </g>
  <g
     style="fill:#000000;fill-opacity:0;stroke:#000000;stroke-width:0;stroke-linecap:round;stroke-linejoin:round;stroke-opacity:1"
     id="g244"
     transform="translate(-62645.52,-32000.361)" />
  <g
     style="fill:#008400;fill-opacity:0;stroke:#008400;stroke-width:0;stroke-linecap:round;stroke-linejoin:round;stroke-opacity:1"
     id="g246"
     transform="translate(-62645.52,-32000.361)" />
  <g
     style="fill:#008400;fill-opacity:1;stroke:#008400;stroke-width:100;stroke-linecap:round;stroke-linejoin:round;stroke-opacity:1"
     id="g250"
     transform="translate(-62645.52,-32000.361)">
    <circle
       cx="68500"
       cy="32500"
       r="200"
       id="circle248" />
  </g>
  <g
     style="fill:#008400;fill-opacity:1;stroke:#008400;stroke-width:0;stroke-linecap:round;stroke-linejoin:round;stroke-opacity:1"
     id="g252"
     transform="translate(-62645.52,-32000.361)" />
  <g
     style="fill:#008400;fill-opacity:1;stroke:#008400;stroke-width:100;stroke-linecap:round;stroke-linejoin:round;stroke-opacity:1"
     id="g256"
     transform="translate(-62645.52,-32000.361)">
    <circle
       cx="70000"
       cy="32500"
       r="200"
       id="circle254" />
  </g>
  <g
     style="fill:#008400;fill-opacity:1;stroke:#008400;stroke-width:0;stroke-linecap:round;stroke-linejoin:round;stroke-opacity:1"
     id="g258"
     transform="translate(-62645.52,-32000.361)" />
  <g
     style="fill:#008400;fill-opacity:1;stroke:#008400;stroke-width:100;stroke-linecap:round;stroke-linejoin:round;stroke-opacity:1"
     id="g262"
     transform="translate(-62645.52,-32000.361)">
    <circle
       cx="68500"
       cy="37500"
       r="200"
       id="circle260" />
  </g>
</svg>
