<?xml version="1.0" encoding="UTF-8" standalone="no"?>
<!-- Created with Inkscape (http://www.inkscape.org/) -->

<svg
   xmlns:dc="http://purl.org/dc/elements/1.1/"
   xmlns:cc="http://creativecommons.org/ns#"
   xmlns:rdf="http://www.w3.org/1999/02/22-rdf-syntax-ns#"
   xmlns:svg="http://www.w3.org/2000/svg"
   xmlns="http://www.w3.org/2000/svg"
   xmlns:sodipodi="http://sodipodi.sourceforge.net/DTD/sodipodi-0.dtd"
   xmlns:inkscape="http://www.inkscape.org/namespaces/inkscape"
   id="svg2"
   version="1.1"
   inkscape:version="0.91 r13725"
   xml:space="preserve"
   width="450"
   height="315"
   viewBox="0 0 450 315"
   sodipodi:docname="simple_mos_current_mirror_simulation_dc_analysis.svg"><metadata
     id="metadata8"><rdf:RDF><cc:Work
         rdf:about=""><dc:format>image/svg+xml</dc:format><dc:type
           rdf:resource="http://purl.org/dc/dcmitype/StillImage" /><dc:title></dc:title></cc:Work></rdf:RDF></metadata><defs
     id="defs6" /><sodipodi:namedview
     pagecolor="#ffffff"
     bordercolor="#666666"
     borderopacity="1"
     objecttolerance="10"
     gridtolerance="10"
     guidetolerance="10"
     inkscape:pageopacity="0"
     inkscape:pageshadow="2"
     inkscape:window-width="1920"
     inkscape:window-height="1057"
     id="namedview4"
     showgrid="false"
     inkscape:zoom="1.4984127"
     inkscape:cx="204.02321"
     inkscape:cy="125.53794"
     inkscape:window-x="1280"
     inkscape:window-y="0"
     inkscape:window-maximized="1"
     inkscape:current-layer="g10" /><g
     id="g10"
     inkscape:groupmode="layer"
     inkscape:label="ink_ext_XXXXXX"
     transform="matrix(1.25,0,0,-1.25,0,315)"><g
       id="g12"
       transform="scale(0.1,0.1)"><path
         d="m 259,319 3214.5,0"
         style="fill:none;stroke:#000000;stroke-width:1.25;stroke-linecap:butt;stroke-linejoin:miter;stroke-miterlimit:3.79999995;stroke-dasharray:5, 10;stroke-dashoffset:0;stroke-opacity:1"
         id="path14"
         inkscape:connector-curvature="0" /><path
         d="m 259,319 31.5,0 m 3183,0 -31.5,0"
         style="fill:none;stroke:#000000;stroke-width:5;stroke-linecap:butt;stroke-linejoin:miter;stroke-miterlimit:3.79999995;stroke-dasharray:none;stroke-opacity:1"
         id="path16"
         inkscape:connector-curvature="0" /><g
         id="g18"
         transform="scale(10,10)"><text
           transform="matrix(1,0,0,-1,13.9164,29.6)"
           style="font-variant:normal;font-weight:normal;font-size:7px;font-family:Helvetica;-inkscape-font-specification:Helvetica;writing-mode:lr-tb;fill:#000000;fill-opacity:1;fill-rule:nonzero;stroke:none"
           id="text20"><tspan
             x="0 3.892"
             y="0"
             sodipodi:role="line"
             id="tspan22">46</tspan></text>
</g><path
         d="m 259,635 3214.5,0"
         style="fill:none;stroke:#000000;stroke-width:1.25;stroke-linecap:butt;stroke-linejoin:miter;stroke-miterlimit:3.79999995;stroke-dasharray:5, 10;stroke-dashoffset:0;stroke-opacity:1"
         id="path24"
         inkscape:connector-curvature="0" /><path
         d="m 259,635 31.5,0 m 3183,0 -31.5,0"
         style="fill:none;stroke:#000000;stroke-width:5;stroke-linecap:butt;stroke-linejoin:miter;stroke-miterlimit:3.79999995;stroke-dasharray:none;stroke-opacity:1"
         id="path26"
         inkscape:connector-curvature="0" /><g
         id="g28"
         transform="scale(10,10)"><text
           transform="matrix(1,0,0,-1,13.9164,61.2)"
           style="font-variant:normal;font-weight:normal;font-size:7px;font-family:Helvetica;-inkscape-font-specification:Helvetica;writing-mode:lr-tb;fill:#000000;fill-opacity:1;fill-rule:nonzero;stroke:none"
           id="text30"><tspan
             x="0 3.892"
             y="0"
             sodipodi:role="line"
             id="tspan32">47</tspan></text>
</g><path
         d="m 259,951 3214.5,0"
         style="fill:none;stroke:#000000;stroke-width:1.25;stroke-linecap:butt;stroke-linejoin:miter;stroke-miterlimit:3.79999995;stroke-dasharray:5, 10;stroke-dashoffset:0;stroke-opacity:1"
         id="path34"
         inkscape:connector-curvature="0" /><path
         d="m 259,951 31.5,0 m 3183,0 -31.5,0"
         style="fill:none;stroke:#000000;stroke-width:5;stroke-linecap:butt;stroke-linejoin:miter;stroke-miterlimit:3.79999995;stroke-dasharray:none;stroke-opacity:1"
         id="path36"
         inkscape:connector-curvature="0" /><g
         id="g38"
         transform="scale(10,10)"><text
           transform="matrix(1,0,0,-1,13.9164,92.8)"
           style="font-variant:normal;font-weight:normal;font-size:7px;font-family:Helvetica;-inkscape-font-specification:Helvetica;writing-mode:lr-tb;fill:#000000;fill-opacity:1;fill-rule:nonzero;stroke:none"
           id="text40"><tspan
             x="0 3.892"
             y="0"
             sodipodi:role="line"
             id="tspan42">48</tspan></text>
</g><path
         d="m 259,1267 3214.5,0"
         style="fill:none;stroke:#000000;stroke-width:1.25;stroke-linecap:butt;stroke-linejoin:miter;stroke-miterlimit:3.79999995;stroke-dasharray:5, 10;stroke-dashoffset:0;stroke-opacity:1"
         id="path44"
         inkscape:connector-curvature="0" /><path
         d="m 259,1267 31.5,0 m 3183,0 -31.5,0"
         style="fill:none;stroke:#000000;stroke-width:5;stroke-linecap:butt;stroke-linejoin:miter;stroke-miterlimit:3.79999995;stroke-dasharray:none;stroke-opacity:1"
         id="path46"
         inkscape:connector-curvature="0" /><g
         id="g48"
         transform="scale(10,10)"><text
           transform="matrix(1,0,0,-1,13.9164,124.4)"
           style="font-variant:normal;font-weight:normal;font-size:7px;font-family:Helvetica;-inkscape-font-specification:Helvetica;writing-mode:lr-tb;fill:#000000;fill-opacity:1;fill-rule:nonzero;stroke:none"
           id="text50"><tspan
             x="0 3.892"
             y="0"
             sodipodi:role="line"
             id="tspan52">49</tspan></text>
</g><path
         d="m 259,1582.5 3214.5,0"
         style="fill:none;stroke:#000000;stroke-width:1.25;stroke-linecap:butt;stroke-linejoin:miter;stroke-miterlimit:3.79999995;stroke-dasharray:5, 10;stroke-dashoffset:0;stroke-opacity:1"
         id="path54"
         inkscape:connector-curvature="0" /><path
         d="m 259,1582.5 31.5,0 m 3183,0 -31.5,0"
         style="fill:none;stroke:#000000;stroke-width:5;stroke-linecap:butt;stroke-linejoin:miter;stroke-miterlimit:3.79999995;stroke-dasharray:none;stroke-opacity:1"
         id="path56"
         inkscape:connector-curvature="0" /><g
         id="g58"
         transform="scale(10,10)"><text
           transform="matrix(1,0,0,-1,13.9164,155.95)"
           style="font-variant:normal;font-weight:normal;font-size:7px;font-family:Helvetica;-inkscape-font-specification:Helvetica;writing-mode:lr-tb;fill:#000000;fill-opacity:1;fill-rule:nonzero;stroke:none"
           id="text60"><tspan
             x="0 3.892"
             y="0"
             sodipodi:role="line"
             id="tspan62">50</tspan></text>
</g><path
         d="m 259,1898.5 3214.5,0"
         style="fill:none;stroke:#000000;stroke-width:1.25;stroke-linecap:butt;stroke-linejoin:miter;stroke-miterlimit:3.79999995;stroke-dasharray:5, 10;stroke-dashoffset:0;stroke-opacity:1"
         id="path64"
         inkscape:connector-curvature="0" /><path
         d="m 259,1898.5 31.5,0 m 3183,0 -31.5,0"
         style="fill:none;stroke:#000000;stroke-width:5;stroke-linecap:butt;stroke-linejoin:miter;stroke-miterlimit:3.79999995;stroke-dasharray:none;stroke-opacity:1"
         id="path66"
         inkscape:connector-curvature="0" /><g
         id="g68"
         transform="scale(10,10)"><text
           transform="matrix(1,0,0,-1,13.9164,187.55)"
           style="font-variant:normal;font-weight:normal;font-size:7px;font-family:Helvetica;-inkscape-font-specification:Helvetica;writing-mode:lr-tb;fill:#000000;fill-opacity:1;fill-rule:nonzero;stroke:none"
           id="text70"><tspan
             x="0 3.892"
             y="0"
             sodipodi:role="line"
             id="tspan72">51</tspan></text>
</g><path
         d="m 259,2214.5 2133,0 m 1039.5,0 42,0"
         style="fill:none;stroke:#000000;stroke-width:1.25;stroke-linecap:butt;stroke-linejoin:miter;stroke-miterlimit:3.79999995;stroke-dasharray:5, 10;stroke-dashoffset:0;stroke-opacity:1"
         id="path74"
         inkscape:connector-curvature="0" /><path
         d="m 259,2214.5 31.5,0 m 3183,0 -31.5,0"
         style="fill:none;stroke:#000000;stroke-width:5;stroke-linecap:butt;stroke-linejoin:miter;stroke-miterlimit:3.79999995;stroke-dasharray:none;stroke-opacity:1"
         id="path76"
         inkscape:connector-curvature="0" /><g
         id="g78"
         transform="scale(10,10)"><text
           transform="matrix(1,0,0,-1,13.9164,219.15)"
           style="font-variant:normal;font-weight:normal;font-size:7px;font-family:Helvetica;-inkscape-font-specification:Helvetica;writing-mode:lr-tb;fill:#000000;fill-opacity:1;fill-rule:nonzero;stroke:none"
           id="text80"><tspan
             x="0 3.892"
             y="0"
             sodipodi:role="line"
             id="tspan82">52</tspan></text>
</g><path
         d="m 259,224 0,2085.5"
         style="fill:none;stroke:#000000;stroke-width:1.25;stroke-linecap:butt;stroke-linejoin:miter;stroke-miterlimit:3.79999995;stroke-dasharray:5, 10;stroke-dashoffset:0;stroke-opacity:1"
         id="path84"
         inkscape:connector-curvature="0" /><path
         d="m 259,224 0,31.5 m 0,2054 0,-31.5"
         style="fill:none;stroke:#000000;stroke-width:5;stroke-linecap:butt;stroke-linejoin:miter;stroke-miterlimit:3.79999995;stroke-dasharray:none;stroke-opacity:1"
         id="path86"
         inkscape:connector-curvature="0" /><g
         id="g88"
         transform="scale(10,10)"><text
           transform="matrix(1,0,0,-1,23.9543,13.1)"
           style="font-variant:normal;font-weight:normal;font-size:7px;font-family:Helvetica;-inkscape-font-specification:Helvetica;writing-mode:lr-tb;fill:#000000;fill-opacity:1;fill-rule:nonzero;stroke:none"
           id="text90"><tspan
             x="0"
             y="0"
             id="tspan92">0</tspan></text>
</g><path
         d="m 753.5,224 0,2085.5"
         style="fill:none;stroke:#000000;stroke-width:1.25;stroke-linecap:butt;stroke-linejoin:miter;stroke-miterlimit:3.79999995;stroke-dasharray:5, 10;stroke-dashoffset:0;stroke-opacity:1"
         id="path94"
         inkscape:connector-curvature="0" /><path
         d="m 753.5,224 0,31.5 m 0,2054 0,-31.5"
         style="fill:none;stroke:#000000;stroke-width:5;stroke-linecap:butt;stroke-linejoin:miter;stroke-miterlimit:3.79999995;stroke-dasharray:none;stroke-opacity:1"
         id="path96"
         inkscape:connector-curvature="0" /><g
         id="g98"
         transform="scale(10,10)"><text
           transform="matrix(1,0,0,-1,70.4855,13.1)"
           style="font-variant:normal;font-weight:normal;font-size:7px;font-family:Helvetica;-inkscape-font-specification:Helvetica;writing-mode:lr-tb;fill:#000000;fill-opacity:1;fill-rule:nonzero;stroke:none"
           id="text100"><tspan
             x="0 3.892 5.8379998"
             y="0"
             sodipodi:role="line"
             id="tspan102">0.2</tspan></text>
</g><path
         d="m 1248,224 0,2085.5"
         style="fill:none;stroke:#000000;stroke-width:1.25;stroke-linecap:butt;stroke-linejoin:miter;stroke-miterlimit:3.79999995;stroke-dasharray:5, 10;stroke-dashoffset:0;stroke-opacity:1"
         id="path104"
         inkscape:connector-curvature="0" /><path
         d="m 1248,224 0,31.5 m 0,2054 0,-31.5"
         style="fill:none;stroke:#000000;stroke-width:5;stroke-linecap:butt;stroke-linejoin:miter;stroke-miterlimit:3.79999995;stroke-dasharray:none;stroke-opacity:1"
         id="path106"
         inkscape:connector-curvature="0" /><g
         id="g108"
         transform="scale(10,10)"><text
           transform="matrix(1,0,0,-1,119.936,13.1)"
           style="font-variant:normal;font-weight:normal;font-size:7px;font-family:Helvetica;-inkscape-font-specification:Helvetica;writing-mode:lr-tb;fill:#000000;fill-opacity:1;fill-rule:nonzero;stroke:none"
           id="text110"><tspan
             x="0 3.892 5.8379998"
             y="0"
             sodipodi:role="line"
             id="tspan112">0.4</tspan></text>
</g><path
         d="m 1742.5,224 0,2085.5"
         style="fill:none;stroke:#000000;stroke-width:1.25;stroke-linecap:butt;stroke-linejoin:miter;stroke-miterlimit:3.79999995;stroke-dasharray:5, 10;stroke-dashoffset:0;stroke-opacity:1"
         id="path114"
         inkscape:connector-curvature="0" /><path
         d="m 1742.5,224 0,31.5 m 0,2054 0,-31.5"
         style="fill:none;stroke:#000000;stroke-width:5;stroke-linecap:butt;stroke-linejoin:miter;stroke-miterlimit:3.79999995;stroke-dasharray:none;stroke-opacity:1"
         id="path116"
         inkscape:connector-curvature="0" /><g
         id="g118"
         transform="scale(10,10)"><text
           transform="matrix(1,0,0,-1,169.386,13.1)"
           style="font-variant:normal;font-weight:normal;font-size:7px;font-family:Helvetica;-inkscape-font-specification:Helvetica;writing-mode:lr-tb;fill:#000000;fill-opacity:1;fill-rule:nonzero;stroke:none"
           id="text120"><tspan
             x="0 3.892 5.8379998"
             y="0"
             sodipodi:role="line"
             id="tspan122">0.6</tspan></text>
</g><path
         d="m 2237,224 0,2085.5"
         style="fill:none;stroke:#000000;stroke-width:1.25;stroke-linecap:butt;stroke-linejoin:miter;stroke-miterlimit:3.79999995;stroke-dasharray:5, 10;stroke-dashoffset:0;stroke-opacity:1"
         id="path124"
         inkscape:connector-curvature="0" /><path
         d="m 2237,224 0,31.5 m 0,2054 0,-31.5"
         style="fill:none;stroke:#000000;stroke-width:5;stroke-linecap:butt;stroke-linejoin:miter;stroke-miterlimit:3.79999995;stroke-dasharray:none;stroke-opacity:1"
         id="path126"
         inkscape:connector-curvature="0" /><g
         id="g128"
         transform="scale(10,10)"><text
           transform="matrix(1,0,0,-1,218.836,13.1)"
           style="font-variant:normal;font-weight:normal;font-size:7px;font-family:Helvetica;-inkscape-font-specification:Helvetica;writing-mode:lr-tb;fill:#000000;fill-opacity:1;fill-rule:nonzero;stroke:none"
           id="text130"><tspan
             x="0 3.892 5.8379998"
             y="0"
             sodipodi:role="line"
             id="tspan132">0.8</tspan></text>
</g><path
         d="m 2731.5,224 0,1984 m 0,70 0,31.5"
         style="fill:none;stroke:#000000;stroke-width:1.25;stroke-linecap:butt;stroke-linejoin:miter;stroke-miterlimit:3.79999995;stroke-dasharray:5, 10;stroke-dashoffset:0;stroke-opacity:1"
         id="path134"
         inkscape:connector-curvature="0" /><path
         d="m 2731.5,224 0,31.5 m 0,2054 0,-31.5"
         style="fill:none;stroke:#000000;stroke-width:5;stroke-linecap:butt;stroke-linejoin:miter;stroke-miterlimit:3.79999995;stroke-dasharray:none;stroke-opacity:1"
         id="path136"
         inkscape:connector-curvature="0" /><g
         id="g138"
         transform="scale(10,10)"><text
           transform="matrix(1,0,0,-1,271.204,13.1)"
           style="font-variant:normal;font-weight:normal;font-size:7px;font-family:Helvetica;-inkscape-font-specification:Helvetica;writing-mode:lr-tb;fill:#000000;fill-opacity:1;fill-rule:nonzero;stroke:none"
           id="text140"><tspan
             x="0"
             y="0"
             id="tspan142">1</tspan></text>
</g><path
         d="m 3226,224 0,1984 m 0,70 0,31.5"
         style="fill:none;stroke:#000000;stroke-width:1.25;stroke-linecap:butt;stroke-linejoin:miter;stroke-miterlimit:3.79999995;stroke-dasharray:5, 10;stroke-dashoffset:0;stroke-opacity:1"
         id="path144"
         inkscape:connector-curvature="0" /><path
         d="m 3226,224 0,31.5 m 0,2054 0,-31.5"
         style="fill:none;stroke:#000000;stroke-width:5;stroke-linecap:butt;stroke-linejoin:miter;stroke-miterlimit:3.79999995;stroke-dasharray:none;stroke-opacity:1"
         id="path146"
         inkscape:connector-curvature="0" /><g
         id="g148"
         transform="scale(10,10)"><text
           transform="matrix(1,0,0,-1,317.736,13.1)"
           style="font-variant:normal;font-weight:normal;font-size:7px;font-family:Helvetica;-inkscape-font-specification:Helvetica;writing-mode:lr-tb;fill:#000000;fill-opacity:1;fill-rule:nonzero;stroke:none"
           id="text150"><tspan
             x="0 3.892 5.8379998"
             y="0"
             sodipodi:role="line"
             id="tspan152">1.2</tspan></text>
</g><path
         d="m 259,2309.5 0,-2085.5 3214.5,0 0,2085.5 -3214.5,0 z"
         style="fill:none;stroke:#000000;stroke-width:5;stroke-linecap:butt;stroke-linejoin:miter;stroke-miterlimit:3.79999995;stroke-dasharray:none;stroke-opacity:1"
         id="path154"
         inkscape:connector-curvature="0" /><g
         id="g156"
         transform="scale(10,10)"><text
           transform="matrix(0,1,1,0,7.9,97.8609)"
           style="font-variant:normal;font-weight:normal;font-size:7px;font-family:Helvetica;-inkscape-font-specification:Helvetica;writing-mode:lr-tb;fill:#000000;fill-opacity:1;fill-rule:nonzero;stroke:none"
           id="text158"><tspan
             x="0 3.5 7.3920002 9.7229996 12.054 15.946 19.837999 21.784 23.73 27.622 31.514 33.459999 37.352001 41.243999 43.189999 45.136002 47.466999 51.359001 55.250999"
             y="0"
             sodipodi:role="line"
             id="tspan160">current output (ua)</tspan></text>
<text
           transform="matrix(1,0,0,-1,161.51,2.6)"
           style="font-variant:normal;font-weight:normal;font-size:7px;font-family:Helvetica;-inkscape-font-specification:Helvetica;writing-mode:lr-tb;fill:#000000;fill-opacity:1;fill-rule:nonzero;stroke:none"
           id="text162"><tspan
             x="0 3.892 6.223 10.115 11.669 15.561 17.507 21.007 24.899 26.452999 28.399 32.291 36.182999 40.075001 42.021 44.352001 47.852001"
             y="0"
             sodipodi:role="line"
             id="tspan164">drain voltage (v)</tspan><tspan
             x="-41.241798 -37.3498 -33.8498 -31.903799 -28.011801 -24.119801 -20.2278 -18.6738 -15.1738 -11.6738 -10.1198 -6.6198001 -4.6738 -2.7277999 0.77219999 4.6641998 6.9952002 9.3261995 13.2182 17.110201 19.0562 21.002199 24.894199 28.7862 30.732201 34.624199 38.516201 40.4622 42.408199 45.908199 49.408199 51.354198 55.246201 57.577202 61.4692 63.023201 66.915199 68.861198 72.361198 76.253197 77.807198 79.753197 83.645203 87.537201"
             y="-236.55"
             sodipodi:role="line"
             id="tspan166">dc analysis: current output vs drain voltage</tspan><tspan
             x="91.238197 93.569199 97.069199 100.9612 104.8532 108.7452 111.0762 114.9682 118.8602 122.3602 126.2522 128.9752 131.3062 135.1982 139.09019 143.17821 147.07021 150.9622"
             y="-219.39999"
             sodipodi:role="line"
             id="tspan168">(v2#branch*-1e+06)</tspan></text>
</g><path
         d="m 3190,2243 199.5,0 M 738,224 l 15.5,199 123.5,664.5 124,235.5 123.5,96 123.5,50.5 123.5,33.5 124,25.5 123.5,21 123.5,19 124,17.5 123.5,16 123.5,15.5 123.5,15 124,14.5 123.5,14 123.5,13.5 123.5,13.5 124,13 123.5,12.5 123.5,13 123.5,12 124,12.5 123.5,12"
         style="fill:none;stroke:#ff0000;stroke-width:2.5;stroke-linecap:butt;stroke-linejoin:miter;stroke-miterlimit:3.79999995;stroke-dasharray:none;stroke-opacity:1"
         id="path170"
         inkscape:connector-curvature="0" /><path
         d="m 259,2309.5 0,-2085.5 3214.5,0 0,2085.5 -3214.5,0 z"
         style="fill:none;stroke:#000000;stroke-width:5;stroke-linecap:butt;stroke-linejoin:miter;stroke-miterlimit:3.79999995;stroke-dasharray:none;stroke-opacity:1"
         id="path172"
         inkscape:connector-curvature="0" /></g></g></svg>