<?xml version="1.0" encoding="UTF-8" standalone="no"?>
<!-- Created with Inkscape (http://www.inkscape.org/) -->

<svg
   xmlns:dc="http://purl.org/dc/elements/1.1/"
   xmlns:cc="http://creativecommons.org/ns#"
   xmlns:rdf="http://www.w3.org/1999/02/22-rdf-syntax-ns#"
   xmlns:svg="http://www.w3.org/2000/svg"
   xmlns="http://www.w3.org/2000/svg"
   xmlns:sodipodi="http://sodipodi.sourceforge.net/DTD/sodipodi-0.dtd"
   xmlns:inkscape="http://www.inkscape.org/namespaces/inkscape"
   version="1.1"
   id="svg1108"
   xml:space="preserve"
   width="480"
   height="336"
   viewBox="0 0 480 336"
   sodipodi:docname="dc_mc.svg"
   inkscape:version="0.92.5 (2060ec1f9f, 2020-04-08)"><metadata
     id="metadata1114"><rdf:RDF><cc:Work
         rdf:about=""><dc:format>image/svg+xml</dc:format><dc:type
           rdf:resource="http://purl.org/dc/dcmitype/StillImage" /><dc:title></dc:title></cc:Work></rdf:RDF></metadata><defs
     id="defs1112" /><sodipodi:namedview
     pagecolor="#ffffff"
     bordercolor="#666666"
     borderopacity="1"
     objecttolerance="10"
     gridtolerance="10"
     guidetolerance="10"
     inkscape:pageopacity="0"
     inkscape:pageshadow="2"
     inkscape:window-width="1920"
     inkscape:window-height="1030"
     id="namedview1110"
     showgrid="false"
     fit-margin-top="5"
     fit-margin-left="5"
     fit-margin-right="5"
     fit-margin-bottom="5"
     inkscape:zoom="1.594697"
     inkscape:cx="216.56956"
     inkscape:cy="214.47106"
     inkscape:window-x="0"
     inkscape:window-y="0"
     inkscape:window-maximized="1"
     inkscape:current-layer="g1116" /><g
     id="g1116"
     inkscape:groupmode="layer"
     inkscape:label="ink_ext_XXXXXX"
     transform="matrix(1.3333333,0,0,-1.3333333,-77.433302,421.56916)"><path
       inkscape:connector-curvature="0"
       id="path1136"
       style="fill:none;stroke:#000000;stroke-width:1;stroke-linecap:butt;stroke-linejoin:miter;stroke-miterlimit:10;stroke-dasharray:none;stroke-opacity:1"
       d="m 101.18762,103.09774 v 183.5446" /><g
       id="g1138"
       transform="matrix(0.62008312,0,0,0.62008312,40.41947,38.609093)"
       style="stroke-width:1.61268699"><text
         id="text1142"
         style="font-variant:normal;font-weight:normal;font-size:10px;font-family:Helvetica;-inkscape-font-specification:Helvetica;writing-mode:lr-tb;fill:#000000;fill-opacity:1;fill-rule:nonzero;stroke:none;stroke-width:1.61268699"
         transform="matrix(1,0,0,-1,86,87)"><tspan
           id="tspan1140"
           sodipodi:role="line"
           y="0"
           x="0 5.8400002 11.4 14.18"
           style="stroke-width:1.61268699">−0.0</tspan></text>
</g><path
       inkscape:connector-curvature="0"
       id="path1144"
       style="fill:none;stroke:#808080;stroke-width:1;stroke-linecap:butt;stroke-linejoin:miter;stroke-miterlimit:10;stroke-dasharray:none;stroke-opacity:1"
       d="m 142.73319,103.09774 v 183.5446" /><g
       id="g1146"
       transform="matrix(0.62008312,0,0,0.62008312,40.41947,38.609093)"
       style="stroke-width:1.61268699"><text
         id="text1150"
         style="font-variant:normal;font-weight:normal;font-size:10px;font-family:Helvetica;-inkscape-font-specification:Helvetica;writing-mode:lr-tb;fill:#000000;fill-opacity:1;fill-rule:nonzero;stroke:none;stroke-width:1.61268699"
         transform="matrix(1,0,0,-1,156,87)"><tspan
           id="tspan1148"
           sodipodi:role="line"
           y="0"
           x="0 5.5599999 8.3400002"
           style="stroke-width:1.61268699">0.2</tspan></text>
</g><path
       inkscape:connector-curvature="0"
       id="path1152"
       style="fill:none;stroke:#808080;stroke-width:1;stroke-linecap:butt;stroke-linejoin:miter;stroke-miterlimit:10;stroke-dasharray:none;stroke-opacity:1"
       d="m 184.27876,103.09774 v 183.5446" /><g
       id="g1154"
       transform="matrix(0.62008312,0,0,0.62008312,40.41947,38.609093)"
       style="stroke-width:1.61268699"><text
         id="text1158"
         style="font-variant:normal;font-weight:normal;font-size:10px;font-family:Helvetica;-inkscape-font-specification:Helvetica;writing-mode:lr-tb;fill:#000000;fill-opacity:1;fill-rule:nonzero;stroke:none;stroke-width:1.61268699"
         transform="matrix(1,0,0,-1,223,87)"><tspan
           id="tspan1156"
           sodipodi:role="line"
           y="0"
           x="0 5.5599999 8.3400002"
           style="stroke-width:1.61268699">0.4</tspan></text>
</g><path
       inkscape:connector-curvature="0"
       id="path1160"
       style="fill:none;stroke:#808080;stroke-width:1;stroke-linecap:butt;stroke-linejoin:miter;stroke-miterlimit:10;stroke-dasharray:none;stroke-opacity:1"
       d="m 225.82433,103.09774 v 183.5446" /><g
       id="g1162"
       transform="matrix(0.62008312,0,0,0.62008312,40.41947,38.609093)"
       style="stroke-width:1.61268699"><text
         id="text1166"
         style="font-variant:normal;font-weight:normal;font-size:10px;font-family:Helvetica;-inkscape-font-specification:Helvetica;writing-mode:lr-tb;fill:#000000;fill-opacity:1;fill-rule:nonzero;stroke:none;stroke-width:1.61268699"
         transform="matrix(1,0,0,-1,290,87)"><tspan
           id="tspan1164"
           sodipodi:role="line"
           y="0"
           x="0 5.5599999 8.3400002"
           style="stroke-width:1.61268699">0.6</tspan></text>
</g><path
       inkscape:connector-curvature="0"
       id="path1168"
       style="fill:none;stroke:#808080;stroke-width:1;stroke-linecap:butt;stroke-linejoin:miter;stroke-miterlimit:10;stroke-dasharray:none;stroke-opacity:1"
       d="m 267.36989,103.09774 v 183.5446" /><g
       id="g1170"
       transform="matrix(0.62008312,0,0,0.62008312,40.41947,38.609093)"
       style="stroke-width:1.61268699"><text
         id="text1174"
         style="font-variant:normal;font-weight:normal;font-size:10px;font-family:Helvetica;-inkscape-font-specification:Helvetica;writing-mode:lr-tb;fill:#000000;fill-opacity:1;fill-rule:nonzero;stroke:none;stroke-width:1.61268699"
         transform="matrix(1,0,0,-1,357,87)"><tspan
           id="tspan1172"
           sodipodi:role="line"
           y="0"
           x="0 5.5599999 8.3400002"
           style="stroke-width:1.61268699">0.8</tspan></text>
</g><path
       inkscape:connector-curvature="0"
       id="path1176"
       style="fill:none;stroke:#808080;stroke-width:1;stroke-linecap:butt;stroke-linejoin:miter;stroke-miterlimit:10;stroke-dasharray:none;stroke-opacity:1"
       d="m 308.91546,103.09774 v 183.5446" /><g
       id="g1178"
       transform="matrix(0.62008312,0,0,0.62008312,40.41947,38.609093)"
       style="stroke-width:1.61268699"><text
         id="text1182"
         style="font-variant:normal;font-weight:normal;font-size:10px;font-family:Helvetica;-inkscape-font-specification:Helvetica;writing-mode:lr-tb;fill:#000000;fill-opacity:1;fill-rule:nonzero;stroke:none;stroke-width:1.61268699"
         transform="matrix(1,0,0,-1,424,87)"><tspan
           id="tspan1180"
           sodipodi:role="line"
           y="0"
           x="0 5.5599999 8.3400002"
           style="stroke-width:1.61268699">1.0</tspan></text>
</g><path
       inkscape:connector-curvature="0"
       id="path1184"
       style="fill:none;stroke:#808080;stroke-width:1;stroke-linecap:butt;stroke-linejoin:miter;stroke-miterlimit:10;stroke-dasharray:none;stroke-opacity:1"
       d="m 350.46103,103.09774 v 183.5446" /><g
       id="g1186"
       transform="matrix(0.62008312,0,0,0.62008312,40.41947,38.609093)"
       style="stroke-width:1.61268699"><text
         id="text1190"
         style="font-variant:normal;font-weight:normal;font-size:10px;font-family:Helvetica;-inkscape-font-specification:Helvetica;writing-mode:lr-tb;fill:#000000;fill-opacity:1;fill-rule:nonzero;stroke:none;stroke-width:1.61268699"
         transform="matrix(1,0,0,-1,491,87)"><tspan
           id="tspan1188"
           sodipodi:role="line"
           y="0"
           x="0 5.5599999 8.3400002"
           style="stroke-width:1.61268699">1.2</tspan></text>
</g><path
       inkscape:connector-curvature="0"
       id="path1192"
       style="fill:none;stroke:#808080;stroke-width:1;stroke-linecap:butt;stroke-linejoin:miter;stroke-miterlimit:10;stroke-dasharray:none;stroke-opacity:1"
       d="m 392.0066,103.09774 v 183.5446" /><text
       y="-92.556328"
       x="387.36649"
       transform="scale(1,-1)"
       style="font-variant:normal;font-weight:normal;font-size:6.20083141px;font-family:Helvetica;-inkscape-font-specification:Helvetica;writing-mode:lr-tb;fill:#000000;fill-opacity:1;fill-rule:nonzero;stroke:none;stroke-width:1"
       id="text1200"><tspan
         style="stroke-width:1"
         x="387.36649 390.81415 392.53796"
         y="-92.556328"
         sodipodi:role="line"
         id="tspan1196">1.4</tspan><tspan
         style="stroke-width:1"
         x="278.23184"
         y="-79.534584"
         id="tspan1198" /></text>
<text
       id="text1692"
       style="font-variant:normal;font-weight:normal;font-size:10.94890594px;font-family:Helvetica;-inkscape-font-specification:Helvetica;writing-mode:lr-tb;fill:#000000;fill-opacity:1;fill-rule:nonzero;stroke:none;stroke-width:0.99999982"
       transform="matrix(0,1,1,0,0,0)"
       x="125.22922"
       y="74.29541"><tspan
         id="tspan1690"
         sodipodi:role="line"
         y="74.29541"
         x="125.22922 133.13435 136.7803 142.86784 145.29854 151.38617 154.42996 162.33511 168.42265 172.0686 175.71457 181.80225 187.88985 190.93361 193.97739 202.49561 208.58325 211.62701 217.71468 223.80223 226.84596 229.88985 233.5358 239.62335 246.92627"
         style="stroke-width:0.99999982">Drain Current Output (uA)</tspan></text>
<text
       transform="scale(1,-1)"
       id="text1700"
       style="font-variant:normal;font-weight:normal;font-size:11.08764553px;font-family:Helvetica;-inkscape-font-specification:Helvetica;writing-mode:lr-tb;fill:#000000;fill-opacity:1;fill-rule:nonzero;stroke:none;stroke-width:1"
       x="201.18399"
       y="-74.687538"><tspan
         id="tspan1698"
         sodipodi:role="line"
         y="-74.687538"
         x="201.18399"
         style="stroke-width:1">Drain Voltage (V)</tspan></text>
<path
       inkscape:connector-curvature="0"
       id="path1202"
       style="fill:none;stroke:#808080;stroke-width:1;stroke-linecap:butt;stroke-linejoin:miter;stroke-miterlimit:10;stroke-dasharray:none;stroke-opacity:1"
       d="M 101.18762,103.09774 H 392.0066" /><g
       id="g1204"
       transform="matrix(0.62008312,0,0,0.62008312,40.41947,38.609093)"
       style="stroke-width:1.61268699"><text
         id="text1208"
         style="font-variant:normal;font-weight:normal;font-size:10px;font-family:Helvetica;-inkscape-font-specification:Helvetica;writing-mode:lr-tb;fill:#000000;fill-opacity:1;fill-rule:nonzero;stroke:none;stroke-width:1.61268699"
         transform="matrix(1,0,0,-1,74,101)"><tspan
           id="tspan1206"
           sodipodi:role="line"
           y="0"
           x="0 5.5599999 11.12 13.9"
           style="stroke-width:1.61268699">48.5</tspan></text>
</g><path
       inkscape:connector-curvature="0"
       id="path1210"
       style="fill:none;stroke:#808080;stroke-width:1;stroke-linecap:butt;stroke-linejoin:miter;stroke-miterlimit:10;stroke-dasharray:none;stroke-opacity:1"
       d="M 101.18762,148.98389 H 392.0066" /><g
       id="g1212"
       transform="matrix(0.62008312,0,0,0.62008312,40.41947,38.609093)"
       style="stroke-width:1.61268699"><text
         id="text1216"
         style="font-variant:normal;font-weight:normal;font-size:10px;font-family:Helvetica;-inkscape-font-specification:Helvetica;writing-mode:lr-tb;fill:#000000;fill-opacity:1;fill-rule:nonzero;stroke:none;stroke-width:1.61268699"
         transform="matrix(1,0,0,-1,74,175)"><tspan
           id="tspan1214"
           sodipodi:role="line"
           y="0"
           x="0 5.5599999 11.12 13.9"
           style="stroke-width:1.61268699">49.0</tspan></text>
</g><path
       inkscape:connector-curvature="0"
       id="path1218"
       style="fill:none;stroke:#808080;stroke-width:1;stroke-linecap:butt;stroke-linejoin:miter;stroke-miterlimit:10;stroke-dasharray:none;stroke-opacity:1"
       d="M 101.18762,194.87004 H 392.0066" /><g
       id="g1220"
       transform="matrix(0.62008312,0,0,0.62008312,40.41947,38.609093)"
       style="stroke-width:1.61268699"><text
         id="text1224"
         style="font-variant:normal;font-weight:normal;font-size:10px;font-family:Helvetica;-inkscape-font-specification:Helvetica;writing-mode:lr-tb;fill:#000000;fill-opacity:1;fill-rule:nonzero;stroke:none;stroke-width:1.61268699"
         transform="matrix(1,0,0,-1,74,249)"><tspan
           id="tspan1222"
           sodipodi:role="line"
           y="0"
           x="0 5.5599999 11.12 13.9"
           style="stroke-width:1.61268699">49.5</tspan></text>
</g><path
       inkscape:connector-curvature="0"
       id="path1226"
       style="fill:none;stroke:#808080;stroke-width:1;stroke-linecap:butt;stroke-linejoin:miter;stroke-miterlimit:10;stroke-dasharray:none;stroke-opacity:1"
       d="M 101.18762,240.75619 H 392.0066" /><g
       id="g1228"
       transform="matrix(0.62008312,0,0,0.62008312,40.41947,38.609093)"
       style="stroke-width:1.61268699"><text
         id="text1232"
         style="font-variant:normal;font-weight:normal;font-size:10px;font-family:Helvetica;-inkscape-font-specification:Helvetica;writing-mode:lr-tb;fill:#000000;fill-opacity:1;fill-rule:nonzero;stroke:none;stroke-width:1.61268699"
         transform="matrix(1,0,0,-1,74,323)"><tspan
           id="tspan1230"
           sodipodi:role="line"
           y="0"
           x="0 5.5599999 11.12 13.9"
           style="stroke-width:1.61268699">50.0</tspan></text>
</g><path
       inkscape:connector-curvature="0"
       id="path1234"
       style="fill:none;stroke:#808080;stroke-width:1;stroke-linecap:butt;stroke-linejoin:miter;stroke-miterlimit:10;stroke-dasharray:none;stroke-opacity:1"
       d="M 101.18762,286.64234 H 392.0066" /><g
       id="g1236"
       transform="matrix(0.62008312,0,0,0.62008312,40.41947,38.609093)"
       style="stroke-width:1.61268699"><text
         id="text1240"
         style="font-variant:normal;font-weight:normal;font-size:10px;font-family:Helvetica;-inkscape-font-specification:Helvetica;writing-mode:lr-tb;fill:#000000;fill-opacity:1;fill-rule:nonzero;stroke:none;stroke-width:1.61268699"
         transform="matrix(1,0,0,-1,74,397)"><tspan
           id="tspan1238"
           sodipodi:role="line"
           y="0"
           x="0 5.5599999 11.12 13.9"
           style="stroke-width:1.61268699">50.5</tspan></text>
</g><path
       inkscape:connector-curvature="0"
       id="path1268"
       style="fill:none;stroke:#ff0000;stroke-width:1;stroke-linecap:butt;stroke-linejoin:miter;stroke-miterlimit:10;stroke-dasharray:none;stroke-opacity:1"
       d="m 274.81089,103.09774 -7.441,47.7464 -10.54141,35.34474 -9.92133,17.98241 -10.54141,9.92133 -10.54141,6.82091 -10.54142,4.34059 -10.54141,2.48033 -9.92133,1.86025 -10.54141,1.24016 h -10.54142 -10.54141 l -9.92133,0.62009 h -10.54141 -10.54142 -10.54141 -9.92133 -10.54141" /><path
       inkscape:connector-curvature="0"
       id="path1278"
       style="fill:none;stroke:#0000ff;stroke-width:1;stroke-linecap:butt;stroke-linejoin:miter;stroke-miterlimit:10;stroke-dasharray:none;stroke-opacity:1"
       d="m 288.45272,103.09774 -10.54141,67.58906 -10.54142,33.48449 -10.54141,16.74224 -9.92133,9.30125 -10.54141,6.20083 -10.54141,4.34058 -10.54142,3.10042 -10.54141,1.86025 -9.92133,1.24017 h -10.54141 l -10.54142,0.62008 h -10.54141 -9.92133 -10.54141 -10.54142 -10.54141 -9.92133 -10.54141" /><path
       inkscape:connector-curvature="0"
       id="path1288"
       style="fill:none;stroke:#ffa500;stroke-width:1;stroke-linecap:butt;stroke-linejoin:miter;stroke-miterlimit:10;stroke-dasharray:none;stroke-opacity:1"
       d="m 259.9289,103.09774 -3.10042,18.6025 -9.92133,40.92548 -10.54141,21.08283 -10.54141,12.40166 -10.54142,7.441 -10.54141,4.34058 -9.92133,3.10041 -10.54141,1.86025 -10.54142,0.62009 -10.54141,0.62008 h -9.92133 -10.54141 -10.54142 -10.54141 -9.92133 -10.54141" /><path
       inkscape:connector-curvature="0"
       id="path1298"
       style="fill:none;stroke:#00ff00;stroke-width:1;stroke-linecap:butt;stroke-linejoin:miter;stroke-miterlimit:10;stroke-dasharray:none;stroke-opacity:1"
       d="m 267.36989,103.09774 -10.54141,53.94723 -9.92133,29.76399 -10.54141,15.50208 -10.54141,9.30125 -10.54142,6.20083 -10.54141,3.7205 -9.92133,2.48033 -10.54141,1.86025 -10.54142,0.62008 h -10.54141 l -9.92133,0.62009 h -10.54141 -10.54142 -10.54141 -9.92133 -10.54141" /><path
       inkscape:connector-curvature="0"
       id="path1308"
       style="fill:none;stroke:#ffc0cb;stroke-width:1;stroke-linecap:butt;stroke-linejoin:miter;stroke-miterlimit:10;stroke-dasharray:none;stroke-opacity:1"
       d="m 273.57073,103.09774 -6.20084,38.44515 -10.54141,35.34474 -9.92133,17.98241 -10.54141,10.54142 -10.54141,6.82091 -10.54142,3.7205 -10.54141,3.10041 -9.92133,1.86025 -10.54141,0.62009 -10.54142,0.62008 h -10.54141 -9.92133 -10.54141 -10.54142 -10.54141 -9.92133 -10.54141" /><path
       inkscape:connector-curvature="0"
       id="path1318"
       style="fill:none;stroke:#a52a2a;stroke-width:1;stroke-linecap:butt;stroke-linejoin:miter;stroke-miterlimit:10;stroke-dasharray:none;stroke-opacity:1"
       d="m 285.97239,103.09774 -8.06108,58.28781 -10.54142,35.96483 -10.54141,18.60249 -9.92133,9.92133 -10.54141,6.82091 -10.54141,4.34059 -10.54142,3.10041 -10.54141,1.86025 -9.92133,0.62008 -10.54141,0.62009 h -10.54142 -10.54141 -9.92133 -10.54141 l -10.54142,0.62008 h -10.54141 -9.92133 -10.54141" /><path
       inkscape:connector-curvature="0"
       id="path1328"
       style="fill:none;stroke:#f0e68c;stroke-width:1;stroke-linecap:butt;stroke-linejoin:miter;stroke-miterlimit:10;stroke-dasharray:none;stroke-opacity:1"
       d="m 279.77156,103.09774 -1.86025,16.74225 -10.54142,58.90789 -10.54141,29.14391 -9.92133,15.50208 -10.54141,8.68116 -10.54141,6.20083 -10.54142,3.7205 -10.54141,3.10042 -9.92133,1.86025 -10.54141,0.62008 -10.54142,0.62008 h -10.54141 -9.92133 -10.54141 -10.54142 -10.54141 -9.92133 -10.54141" /><path
       inkscape:connector-curvature="0"
       id="path1338"
       style="fill:none;stroke:#dda0dd;stroke-width:1;stroke-linecap:butt;stroke-linejoin:miter;stroke-miterlimit:10;stroke-dasharray:none;stroke-opacity:1"
       d="m 284.11214,103.09774 -6.20083,47.7464 -10.54142,42.16565 -10.54141,20.46275 -9.92133,11.78158 -10.54141,7.44099 -10.54141,4.34059 -10.54142,3.72049 -10.54141,1.86025 -9.92133,1.24017 -10.54141,0.62008 h -10.54142 -10.54141 -9.92133 l -10.54141,0.62009 h -10.54142 -10.54141 -9.92133 -10.54141" /><path
       inkscape:connector-curvature="0"
       id="path1348"
       style="fill:none;stroke:#da70d6;stroke-width:1;stroke-linecap:butt;stroke-linejoin:miter;stroke-miterlimit:10;stroke-dasharray:none;stroke-opacity:1"
       d="m 281.01172,103.09774 -3.10041,22.32299 -10.54142,45.88615 -10.54141,22.323 -9.92133,12.40166 -10.54141,6.82091 -10.54141,4.96067 -10.54142,3.7205 -10.54141,1.86025 -9.92133,1.24016 h -10.54141 -10.54142 l -10.54141,0.62009 h -9.92133 -10.54141 -10.54142 -10.54141 -9.92133 -10.54141" /><path
       inkscape:connector-curvature="0"
       id="path1358"
       style="fill:none;stroke:#ee82ee;stroke-width:1;stroke-linecap:butt;stroke-linejoin:miter;stroke-miterlimit:10;stroke-dasharray:none;stroke-opacity:1"
       d="m 267.98998,103.09774 -0.62009,1.24016 -10.54141,60.76815 -9.92133,32.24433 -10.54141,16.74224 -10.54141,9.92133 -10.54142,6.20083 -10.54141,4.34058 -9.92133,3.10042 -10.54141,1.24016 -10.54142,1.24017 -10.54141,0.62008 h -9.92133 -10.54141 -10.54142 -10.54141 -9.92133 -10.54141" /><path
       inkscape:connector-curvature="0"
       id="path1368"
       style="fill:none;stroke:#b03060;stroke-width:1;stroke-linecap:butt;stroke-linejoin:miter;stroke-miterlimit:10;stroke-dasharray:none;stroke-opacity:1"
       d="m 290.31297,103.09774 -1.86025,15.50208 -10.54141,50.22673 -10.54142,24.18324 -10.54141,12.40167 -9.92133,7.44099 -10.54141,4.96067 -10.54141,3.7205 -10.54142,1.86025 -10.54141,1.24016 -9.92133,0.62009 h -10.54141 -10.54142 -10.54141 -9.92133 -10.54141 -10.54142 -10.54141 -9.92133 -10.54141" /><path
       inkscape:connector-curvature="0"
       id="path1378"
       style="fill:none;stroke:#40e0d0;stroke-width:1;stroke-linecap:butt;stroke-linejoin:miter;stroke-miterlimit:10;stroke-dasharray:none;stroke-opacity:1"
       d="m 279.15147,103.09774 -1.24016,8.68117 -10.54142,57.66773 -10.54141,28.52382 -9.92133,14.88199 -10.54141,8.68117 -10.54141,5.58075 -10.54142,4.34058 -10.54141,2.48033 -9.92133,1.24017 -10.54141,1.24016 h -10.54142 -10.54141 -9.92133 -10.54141 l -10.54142,0.62009 h -10.54141 -9.92133 -10.54141" /><path
       inkscape:connector-curvature="0"
       id="path1388"
       style="fill:none;stroke:#a0522d;stroke-width:1;stroke-linecap:butt;stroke-linejoin:miter;stroke-miterlimit:10;stroke-dasharray:none;stroke-opacity:1"
       d="m 254.34815,103.09774 -7.441,39.06524 -10.54141,31.00415 -10.54141,17.36233 -10.54142,9.92133 -10.54141,6.20083 -9.92133,3.7205 -10.54141,2.48033 -10.54142,1.86025 -10.54141,0.62009 h -9.92133 -10.54141 -10.54142 -10.54141 l -9.92133,0.62008 h -10.54141" /><path
       inkscape:connector-curvature="0"
       id="path1398"
       style="fill:none;stroke:#ff7f50;stroke-width:1;stroke-linecap:butt;stroke-linejoin:miter;stroke-miterlimit:10;stroke-dasharray:none;stroke-opacity:1"
       d="m 263.02931,103.09774 -6.20083,36.58491 -9.92133,33.48448 -10.54141,18.6025 -10.54141,9.92133 -10.54142,6.82091 -10.54141,3.7205 -9.92133,3.10042 -10.54141,1.24016 -10.54142,0.62009 -10.54141,0.62008 h -9.92133 -10.54141 -10.54142 -10.54141 l -9.92133,0.62008 h -10.54141" /><path
       inkscape:connector-curvature="0"
       id="path1408"
       style="fill:none;stroke:#00ffff;stroke-width:1;stroke-linecap:butt;stroke-linejoin:miter;stroke-miterlimit:10;stroke-dasharray:none;stroke-opacity:1"
       d="m 278.53139,103.09774 -0.62008,6.20083 -10.54142,57.04765 -10.54141,28.52382 -9.92133,14.882 -10.54141,8.68116 -10.54141,5.58075 -10.54142,3.7205 -10.54141,3.10041 -9.92133,1.24017 -10.54141,0.62008 -10.54142,0.62009 h -10.54141 -9.92133 -10.54141 -10.54142 -10.54141 -9.92133 -10.54141" /><path
       inkscape:connector-curvature="0"
       id="path1418"
       style="fill:none;stroke:#ff00ff;stroke-width:1;stroke-linecap:butt;stroke-linejoin:miter;stroke-miterlimit:10;stroke-dasharray:none;stroke-opacity:1"
       d="m 251.86782,103.09774 -4.96067,30.38407 -10.54141,34.10458 -10.54141,18.60249 -10.54142,10.54141 -10.54141,6.82092 -9.92133,4.34058 -10.54141,2.48033 -10.54142,1.86025 -10.54141,0.62008 -9.92133,0.62009 h -10.54141 -10.54142 -10.54141 -9.92133 -10.54141" /><path
       inkscape:connector-curvature="0"
       id="path1428"
       style="fill:none;stroke:#606060;stroke-width:1;stroke-linecap:butt;stroke-linejoin:miter;stroke-miterlimit:10;stroke-dasharray:none;stroke-opacity:1"
       d="m 287.21255,103.09774 -9.30124,57.66773 -10.54142,31.62424 -10.54141,15.50208 -9.92133,9.30125 -10.54141,6.20083 -10.54141,4.34058 -10.54142,3.10041 -10.54141,1.24017 -9.92133,1.24017 h -10.54141 l -10.54142,0.62008 h -10.54141 -9.92133 -10.54141 -10.54142 -10.54141 -9.92133 -10.54141" /><path
       inkscape:connector-curvature="0"
       id="path1438"
       style="fill:none;stroke:#969696;stroke-width:1;stroke-linecap:butt;stroke-linejoin:miter;stroke-miterlimit:10;stroke-dasharray:none;stroke-opacity:1"
       d="m 279.15147,103.09774 -1.24016,10.54141 -10.54142,58.9079 -10.54141,29.14391 -9.92133,15.50208 -10.54141,8.68116 -10.54141,6.20083 -10.54142,3.7205 -10.54141,2.48033 -9.92133,1.86025 -10.54141,0.62008 -10.54142,0.62009 h -10.54141 -9.92133 -10.54141 -10.54142 -10.54141 -9.92133 -10.54141" /><path
       inkscape:connector-curvature="0"
       id="path1448"
       style="fill:none;stroke:#808080;stroke-width:1;stroke-linecap:butt;stroke-linejoin:miter;stroke-miterlimit:10;stroke-dasharray:none;stroke-opacity:1"
       d="m 263.02931,103.09774 -6.20083,37.82507 -9.92133,37.20499 -10.54141,19.84266 -10.54141,11.16149 -10.54142,6.82092 -10.54141,4.96066 -9.92133,3.10042 -10.54141,1.86025 -10.54142,0.62008 -10.54141,0.62009 h -9.92133 l -10.54141,0.62008 h -10.54142 -10.54141 -9.92133 -10.54141" /><path
       inkscape:connector-curvature="0"
       id="path1458"
       style="fill:none;stroke:#ff0000;stroke-width:1;stroke-linecap:butt;stroke-linejoin:miter;stroke-miterlimit:10;stroke-dasharray:none;stroke-opacity:1"
       d="m 289.0728,103.09774 -0.62008,3.7205 -10.54141,66.34889 -10.54142,31.62424 -10.54141,15.50208 -9.92133,9.30125 -10.54141,6.20083 -10.54141,4.34058 -10.54142,2.48033 -10.54141,1.86025 -9.92133,1.24017 h -10.54141 -10.54142 -10.54141 -9.92133 l -10.54141,0.62008 h -10.54142 -10.54141 -9.92133 -10.54141" /><path
       inkscape:connector-curvature="0"
       id="path1468"
       style="fill:none;stroke:#0000ff;stroke-width:1;stroke-linecap:butt;stroke-linejoin:miter;stroke-miterlimit:10;stroke-dasharray:none;stroke-opacity:1"
       d="m 267.98998,103.09774 -0.62009,4.96067 -10.54141,58.90789 -9.92133,31.00416 -10.54141,16.12216 -10.54141,9.92133 -10.54142,5.58075 -10.54141,4.34058 -9.92133,2.48033 -10.54141,1.86025 -10.54142,0.62008 h -10.54141 -9.92133 l -10.54141,0.62009 h -10.54142 -10.54141 -9.92133 -10.54141" /><path
       inkscape:connector-curvature="0"
       id="path1478"
       style="fill:none;stroke:#ffa500;stroke-width:1;stroke-linecap:butt;stroke-linejoin:miter;stroke-miterlimit:10;stroke-dasharray:none;stroke-opacity:1"
       d="m 281.01172,103.09774 -3.10041,26.04349 -10.54142,44.0259 -10.54141,21.70291 -9.92133,11.78158 -10.54141,7.441 -10.54141,4.96066 -10.54142,3.10042 -10.54141,1.86025 -9.92133,1.24017 h -10.54141 -10.54142 l -10.54141,0.62008 h -9.92133 -10.54141 -10.54142 -10.54141 -9.92133 -10.54141" /><path
       inkscape:connector-curvature="0"
       id="path1488"
       style="fill:none;stroke:#00ff00;stroke-width:1;stroke-linecap:butt;stroke-linejoin:miter;stroke-miterlimit:10;stroke-dasharray:none;stroke-opacity:1"
       d="m 290.31297,103.09774 -1.86025,17.98241 -10.54141,57.04765 -10.54142,26.66357 -10.54141,13.64183 -9.92133,8.68117 -10.54141,4.96066 -10.54141,4.34058 -10.54142,2.48033 -10.54141,1.24017 -9.92133,0.62008 h -10.54141 -10.54142 l -10.54141,0.62009 h -9.92133 -10.54141 -10.54142 -10.54141 -9.92133 -10.54141" /><path
       inkscape:connector-curvature="0"
       id="path1498"
       style="fill:none;stroke:#ffc0cb;stroke-width:1;stroke-linecap:butt;stroke-linejoin:miter;stroke-miterlimit:10;stroke-dasharray:none;stroke-opacity:1"
       d="m 269.85023,103.09774 -2.48034,16.12216 -10.54141,48.36649 -9.92133,24.80332 -10.54141,13.64183 -10.54141,8.06108 -10.54142,4.96066 -10.54141,3.7205 -9.92133,2.48034 -10.54141,0.62008 -10.54142,0.62008 -10.54141,0.62009 h -9.92133 -10.54141 -10.54142 -10.54141 -9.92133 -10.54141" /><path
       inkscape:connector-curvature="0"
       id="path1508"
       style="fill:none;stroke:#a52a2a;stroke-width:1;stroke-linecap:butt;stroke-linejoin:miter;stroke-miterlimit:10;stroke-dasharray:none;stroke-opacity:1"
       d="m 259.30881,103.09774 -2.48033,14.882 -9.92133,47.12631 -10.54141,25.42341 -10.54141,14.26191 -10.54142,8.06108 -10.54141,5.58075 -9.92133,3.7205 -10.54141,1.86025 -10.54142,1.24017 -10.54141,0.62008 -9.92133,0.62008 h -10.54141 -10.54142 -10.54141 -9.92133 -10.54141" /><path
       inkscape:connector-curvature="0"
       id="path1518"
       style="fill:none;stroke:#f0e68c;stroke-width:1;stroke-linecap:butt;stroke-linejoin:miter;stroke-miterlimit:10;stroke-dasharray:none;stroke-opacity:1"
       d="m 283.49206,103.09774 -5.58075,42.78574 -10.54142,41.54557 -10.54141,21.08282 -9.92133,11.1615 -10.54141,7.441 -10.54141,4.96066 -10.54142,3.10042 -10.54141,2.48033 -9.92133,1.24016 h -10.54141 l -10.54142,0.62009 h -10.54141 -9.92133 -10.54141 -10.54142 -10.54141 -9.92133 -10.54141" /><path
       inkscape:connector-curvature="0"
       id="path1528"
       style="fill:none;stroke:#dda0dd;stroke-width:1;stroke-linecap:butt;stroke-linejoin:miter;stroke-miterlimit:10;stroke-dasharray:none;stroke-opacity:1"
       d="m 266.74981,103.09774 -9.92133,55.1874 -9.92133,31.00416 -10.54141,16.74224 -10.54141,9.92133 -10.54142,6.20083 -10.54141,4.34058 -9.92133,2.48033 -10.54141,1.86025 -10.54142,0.62009 -10.54141,0.62008 h -9.92133 -10.54141 -10.54142 -10.54141 -9.92133 -10.54141" /><path
       inkscape:connector-curvature="0"
       id="path1538"
       style="fill:none;stroke:#da70d6;stroke-width:1;stroke-linecap:butt;stroke-linejoin:miter;stroke-miterlimit:10;stroke-dasharray:none;stroke-opacity:1"
       d="m 275.43098,103.09774 -8.06109,51.4669 -10.54141,35.34474 -9.92133,17.98241 -10.54141,10.54141 -10.54141,6.20083 -10.54142,4.34058 -10.54141,3.10042 -9.92133,1.86025 -10.54141,0.62008 -10.54142,0.62009 h -10.54141 -9.92133 -10.54141 -10.54142 -10.54141 -9.92133 -10.54141" /><path
       inkscape:connector-curvature="0"
       id="path1548"
       style="fill:none;stroke:#ee82ee;stroke-width:1;stroke-linecap:butt;stroke-linejoin:miter;stroke-miterlimit:10;stroke-dasharray:none;stroke-opacity:1"
       d="m 286.59247,103.09774 -8.68116,57.04765 -10.54142,32.24432 -10.54141,16.74224 -9.92133,9.30125 -10.54141,6.20083 -10.54141,4.34058 -10.54142,2.48034 -10.54141,1.86025 -9.92133,1.24016 h -10.54141 -10.54142 -10.54141 -9.92133 -10.54141 l -10.54142,0.62009 h -10.54141 -9.92133 -10.54141" /><path
       inkscape:connector-curvature="0"
       id="path1558"
       style="fill:none;stroke:#b03060;stroke-width:1;stroke-linecap:butt;stroke-linejoin:miter;stroke-miterlimit:10;stroke-dasharray:none;stroke-opacity:1"
       d="m 270.47031,103.09774 -3.10042,24.18324 -10.54141,46.50624 -9.92133,24.18324 -10.54141,13.02174 -10.54141,8.06108 -10.54142,4.96067 -10.54141,3.7205 -9.92133,2.48033 -10.54141,1.24017 -10.54142,0.62008 h -10.54141 -9.92133 -10.54141 l -10.54142,0.62008 h -10.54141 -9.92133 -10.54141" /><path
       inkscape:connector-curvature="0"
       id="path1568"
       style="fill:none;stroke:#40e0d0;stroke-width:1;stroke-linecap:butt;stroke-linejoin:miter;stroke-miterlimit:10;stroke-dasharray:none;stroke-opacity:1"
       d="m 284.73222,103.09774 -6.82091,51.4669 -10.54142,40.3054 -10.54141,19.84266 -9.92133,11.1615 -10.54141,6.82091 -10.54141,4.96067 -10.54142,3.10041 -10.54141,2.48034 -9.92133,1.24016 h -10.54141 l -10.54142,0.62009 h -10.54141 -9.92133 -10.54141 -10.54142 -10.54141 -9.92133 -10.54141" /><path
       inkscape:connector-curvature="0"
       id="path1578"
       style="fill:none;stroke:#a0522d;stroke-width:1;stroke-linecap:butt;stroke-linejoin:miter;stroke-miterlimit:10;stroke-dasharray:none;stroke-opacity:1"
       d="m 291.55314,103.09774 -3.10042,32.86441 -10.54141,55.18739 -10.54142,25.42341 -10.54141,13.64183 -9.92133,8.06108 -10.54141,5.58075 -10.54141,3.7205 -10.54142,2.48033 -10.54141,1.86025 -9.92133,0.62008 h -10.54141 -10.54142 -10.54141 -9.92133 -10.54141 l -10.54142,0.62009 h -10.54141 -9.92133 -10.54141" /><path
       inkscape:connector-curvature="0"
       id="path1588"
       style="fill:none;stroke:#ff7f50;stroke-width:1;stroke-linecap:butt;stroke-linejoin:miter;stroke-miterlimit:10;stroke-dasharray:none;stroke-opacity:1"
       d="m 271.71048,103.09774 -4.34059,30.38407 -10.54141,42.16566 -9.92133,21.08282 -10.54141,11.78158 -10.54141,7.441 -10.54142,4.34058 -10.54141,3.7205 -9.92133,1.86025 -10.54141,0.62008 -10.54142,0.62009 h -10.54141 -9.92133 -10.54141 l -10.54142,0.62008 h -10.54141 -9.92133 -10.54141" /><path
       inkscape:connector-curvature="0"
       id="path1598"
       style="fill:none;stroke:#00ffff;stroke-width:1;stroke-linecap:butt;stroke-linejoin:miter;stroke-miterlimit:10;stroke-dasharray:none;stroke-opacity:1"
       d="m 281.01172,103.09774 -3.10041,24.18324 -10.54142,51.4669 -10.54141,24.80333 -9.92133,13.64183 -10.54141,8.06108 -10.54141,5.58074 -10.54142,3.10042 -10.54141,2.48033 -9.92133,1.86025 -10.54141,0.62008 h -10.54142 -10.54141 -9.92133 -10.54141 -10.54142 -10.54141 -9.92133 -10.54141" /><path
       inkscape:connector-curvature="0"
       id="path1608"
       style="fill:none;stroke:#ff00ff;stroke-width:1;stroke-linecap:butt;stroke-linejoin:miter;stroke-miterlimit:10;stroke-dasharray:none;stroke-opacity:1"
       d="m 281.63181,103.09774 -3.7205,30.38407 -10.54142,44.02591 -10.54141,21.70291 -9.92133,11.78157 -10.54141,7.441 -10.54141,4.96067 -10.54142,3.10041 -10.54141,1.86025 -9.92133,1.24017 h -10.54141 l -10.54142,0.62008 h -10.54141 -9.92133 -10.54141 -10.54142 -10.54141 -9.92133 -10.54141" /><path
       inkscape:connector-curvature="0"
       id="path1618"
       style="fill:none;stroke:#606060;stroke-width:1;stroke-linecap:butt;stroke-linejoin:miter;stroke-miterlimit:10;stroke-dasharray:none;stroke-opacity:1"
       d="m 280.39164,103.09774 -2.48033,19.22258 -10.54142,52.70706 -10.54141,26.04349 -9.92133,13.64183 -10.54141,8.68117 -10.54141,4.96066 -10.54142,3.7205 -10.54141,2.48033 -9.92133,1.86025 -10.54141,0.62009 h -10.54142 -10.54141 -9.92133 -10.54141 -10.54142 -10.54141 -9.92133 -10.54141" /><path
       inkscape:connector-curvature="0"
       id="path1628"
       style="fill:none;stroke:#969696;stroke-width:1;stroke-linecap:butt;stroke-linejoin:miter;stroke-miterlimit:10;stroke-dasharray:none;stroke-opacity:1"
       d="m 277.29122,103.09774 -9.92133,58.28781 -10.54141,31.62424 -9.92133,16.74225 -10.54141,9.30124 -10.54141,6.20084 -10.54142,4.34058 -10.54141,2.48033 -9.92133,1.86025 -10.54141,0.62008 -10.54142,0.62009 h -10.54141 -9.92133 -10.54141 -10.54142 -10.54141 -9.92133 -10.54141" /><path
       inkscape:connector-curvature="0"
       id="path1638"
       style="fill:none;stroke:#808080;stroke-width:1;stroke-linecap:butt;stroke-linejoin:miter;stroke-miterlimit:10;stroke-dasharray:none;stroke-opacity:1"
       d="m 259.30881,103.09774 -2.48033,17.36233 -9.92133,43.40582 -10.54141,23.56316 -10.54141,13.02174 -10.54142,8.06108 -10.54141,4.96067 -9.92133,3.10041 -10.54141,2.48033 -10.54142,0.62009 -10.54141,0.62008 h -9.92133 l -10.54141,0.62008 h -10.54142 -10.54141 -9.92133 -10.54141" /><path
       inkscape:connector-curvature="0"
       id="path1648"
       style="fill:none;stroke:#ff0000;stroke-width:1;stroke-linecap:butt;stroke-linejoin:miter;stroke-miterlimit:10;stroke-dasharray:none;stroke-opacity:1"
       d="m 289.0728,103.09774 -0.62008,6.82092 -10.54141,63.86856 -10.54142,29.76399 -10.54141,15.50207 -9.92133,8.68117 -10.54141,6.20083 -10.54141,3.7205 -10.54142,3.10041 -10.54141,1.86025 -9.92133,0.62009 -10.54141,0.62008 h -10.54142 -10.54141 -9.92133 -10.54141 -10.54142 -10.54141 -9.92133 -10.54141" /><path
       inkscape:connector-curvature="0"
       id="path1658"
       style="fill:none;stroke:#0000ff;stroke-width:1;stroke-linecap:butt;stroke-linejoin:miter;stroke-miterlimit:10;stroke-dasharray:none;stroke-opacity:1"
       d="m 276.67114,103.09774 -9.30125,53.94723 -10.54141,32.86441 -9.92133,16.74224 -10.54141,9.30125 -10.54141,6.20083 -10.54142,4.34058 -10.54141,2.48033 -9.92133,1.86025 -10.54141,0.62009 -10.54142,0.62008 h -10.54141 -9.92133 -10.54141 -10.54142 l -10.54141,0.62008 h -9.92133 -10.54141" /><path
       inkscape:connector-curvature="0"
       id="path1668"
       style="fill:none;stroke:#ffa500;stroke-width:1;stroke-linecap:butt;stroke-linejoin:miter;stroke-miterlimit:10;stroke-dasharray:none;stroke-opacity:1"
       d="m 268.61006,103.09774 -1.24017,11.1615 -10.54141,53.32715 -9.92133,27.28365 -10.54141,15.50208 -10.54141,8.68116 -10.54142,5.58075 -10.54141,3.7205 -9.92133,2.48033 -10.54141,1.24017 -10.54142,0.62008 -10.54141,0.62009 h -9.92133 -10.54141 -10.54142 -10.54141 -9.92133 -10.54141" /><path
       inkscape:connector-curvature="0"
       id="path1678"
       style="fill:none;stroke:#00ff00;stroke-width:1;stroke-linecap:butt;stroke-linejoin:miter;stroke-miterlimit:10;stroke-dasharray:none;stroke-opacity:1"
       d="m 278.53139,103.09774 -0.62008,3.7205 -10.54142,55.80748 -10.54141,27.28366 -9.92133,14.88199 -10.54141,8.06108 -10.54141,5.58075 -10.54142,3.7205 -10.54141,2.48033 -9.92133,1.24017 -10.54141,0.62008 h -10.54142 -10.54141 -9.92133 -10.54141 -10.54142 -10.54141 -9.92133 -10.54141" /><path
       inkscape:connector-curvature="0"
       id="path1688"
       style="fill:none;stroke:#ffc0cb;stroke-width:1;stroke-linecap:butt;stroke-linejoin:miter;stroke-miterlimit:10;stroke-dasharray:none;stroke-opacity:1"
       d="m 263.6494,103.09774 -6.82092,40.92549 -9.92133,36.5849 -10.54141,19.22258 -10.54141,11.16149 -10.54142,6.82092 -10.54141,4.34058 -9.92133,3.10042 -10.54141,1.86025 -10.54142,0.62008 -10.54141,0.62008 h -9.92133 -10.54141 l -10.54142,0.62008 h -10.54141 -9.92133 -10.54141" /><path
       inkscape:connector-curvature="0"
       id="path1698"
       style="fill:none;stroke:#a52a2a;stroke-width:1;stroke-linecap:butt;stroke-linejoin:miter;stroke-miterlimit:10;stroke-dasharray:none;stroke-opacity:1"
       d="m 276.05106,103.09774 -8.68117,48.98657 -10.54141,29.1439 -9.92133,15.50208 -10.54141,8.68117 -10.54141,6.20083 -10.54142,3.7205 -10.54141,2.48033 -9.92133,1.24016 -10.54141,0.62009 h -10.54142 -10.54141 -9.92133 -10.54141 -10.54142 -10.54141 -9.92133 l -10.54141,0.62008" /><path
       inkscape:connector-curvature="0"
       id="path1708"
       style="fill:none;stroke:#f0e68c;stroke-width:1;stroke-linecap:butt;stroke-linejoin:miter;stroke-miterlimit:10;stroke-dasharray:none;stroke-opacity:1"
       d="m 282.25189,103.09774 -4.34058,36.58491 -10.54142,44.0259 -10.54141,21.70291 -9.92133,11.78158 -10.54141,7.44099 -10.54141,4.96067 -10.54142,3.10041 -10.54141,2.48034 -9.92133,1.24016 -10.54141,0.62009 h -10.54142 -10.54141 -9.92133 -10.54141 -10.54142 -10.54141 -9.92133 l -10.54141,0.62008" /><path
       inkscape:connector-curvature="0"
       id="path1718"
       style="fill:none;stroke:#dda0dd;stroke-width:1;stroke-linecap:butt;stroke-linejoin:miter;stroke-miterlimit:10;stroke-dasharray:none;stroke-opacity:1"
       d="m 256.82848,103.09774 -9.92133,52.08698 -10.54141,29.14391 -10.54141,16.12216 -10.54142,9.30125 -10.54141,6.20083 -9.92133,3.7205 -10.54141,3.10041 -10.54142,1.24017 -10.54141,0.62008 -9.92133,0.62009 h -10.54141 -10.54142 -10.54141 -9.92133 -10.54141" /><path
       inkscape:connector-curvature="0"
       id="path1728"
       style="fill:none;stroke:#da70d6;stroke-width:1;stroke-linecap:butt;stroke-linejoin:miter;stroke-miterlimit:10;stroke-dasharray:none;stroke-opacity:1"
       d="m 259.9289,103.09774 -3.10042,19.84266 -9.92133,42.78574 -10.54141,22.32299 -10.54141,12.40166 -10.54142,8.06108 -10.54141,4.96067 -9.92133,3.10041 -10.54141,1.86025 -10.54142,1.24017 h -10.54141 l -9.92133,0.62008 h -10.54141 -10.54142 -10.54141 -9.92133 -10.54141" /><path
       inkscape:connector-curvature="0"
       id="path1738"
       style="fill:none;stroke:#ee82ee;stroke-width:1;stroke-linecap:butt;stroke-linejoin:miter;stroke-miterlimit:10;stroke-dasharray:none;stroke-opacity:1"
       d="m 268.61006,103.09774 -1.24017,7.441 -10.54141,48.98657 -9.92133,25.4234 -10.54141,14.26192 -10.54141,8.06108 -10.54142,4.96066 -10.54141,3.7205 -9.92133,1.86025 -10.54141,1.24016 h -10.54142 l -10.54141,0.62009 h -9.92133 -10.54141 -10.54142 -10.54141 -9.92133 -10.54141" /><path
       inkscape:connector-curvature="0"
       id="path1748"
       style="fill:none;stroke:#b03060;stroke-width:1;stroke-linecap:butt;stroke-linejoin:miter;stroke-miterlimit:10;stroke-dasharray:none;stroke-opacity:1"
       d="m 281.63181,103.09774 -3.7205,28.52383 -10.54142,44.64598 -10.54141,21.70291 -9.92133,12.40166 -10.54141,7.441 -10.54141,4.34058 -10.54142,3.7205 -10.54141,1.86025 -9.92133,1.24016 h -10.54141 l -10.54142,0.62009 h -10.54141 -9.92133 -10.54141 -10.54142 -10.54141 -9.92133 -10.54141" /><path
       inkscape:connector-curvature="0"
       id="path1758"
       style="fill:none;stroke:#40e0d0;stroke-width:1;stroke-linecap:butt;stroke-linejoin:miter;stroke-miterlimit:10;stroke-dasharray:none;stroke-opacity:1"
       d="m 234.50549,103.09774 -8.68116,38.44515 -10.54142,29.76399 -10.54141,17.98242 -9.92133,10.54141 -10.54141,6.20083 -10.54142,4.34058 -10.54141,2.48033 -9.92133,1.86025 -10.54141,0.62009 -10.54142,0.62008 h -10.54141 -9.92133 l -10.54141,0.62008" /><path
       inkscape:connector-curvature="0"
       id="path1768"
       style="fill:none;stroke:#a0522d;stroke-width:1;stroke-linecap:butt;stroke-linejoin:miter;stroke-miterlimit:10;stroke-dasharray:none;stroke-opacity:1"
       d="m 274.19081,103.09774 -6.82092,47.7464 -10.54141,39.06524 -9.92133,19.84266 -10.54141,11.16149 -10.54141,6.82092 -10.54142,4.96066 -10.54141,3.10042 -9.92133,1.86025 -10.54141,0.62008 -10.54142,0.62008 h -10.54141 l -9.92133,0.62009 h -10.54141 -10.54142 -10.54141 -9.92133 -10.54141" /><path
       inkscape:connector-curvature="0"
       id="path1778"
       style="fill:none;stroke:#ff7f50;stroke-width:1;stroke-linecap:butt;stroke-linejoin:miter;stroke-miterlimit:10;stroke-dasharray:none;stroke-opacity:1"
       d="m 279.15147,103.09774 -1.24016,10.54141 -10.54142,57.04765 -10.54141,27.90374 -9.92133,14.882 -10.54141,8.68116 -10.54141,6.20083 -10.54142,3.7205 -10.54141,2.48033 -9.92133,1.24017 -10.54141,1.24017 h -10.54142 -10.54141 -9.92133 -10.54141 -10.54142 l -10.54141,0.62008 h -9.92133 -10.54141" /><path
       inkscape:connector-curvature="0"
       id="path1788"
       style="fill:none;stroke:#00ffff;stroke-width:1;stroke-linecap:butt;stroke-linejoin:miter;stroke-miterlimit:10;stroke-dasharray:none;stroke-opacity:1"
       d="m 269.85023,103.09774 -2.48034,19.22258 -10.54141,48.36648 -9.92133,24.80333 -10.54141,13.64182 -10.54141,8.06109 -10.54142,4.96066 -10.54141,3.7205 -9.92133,2.48033 -10.54141,1.24017 -10.54142,0.62008 -10.54141,0.62008 h -9.92133 -10.54141 -10.54142 -10.54141 -9.92133 -10.54141" /><path
       inkscape:connector-curvature="0"
       id="path1798"
       style="fill:none;stroke:#ff00ff;stroke-width:1;stroke-linecap:butt;stroke-linejoin:miter;stroke-miterlimit:10;stroke-dasharray:none;stroke-opacity:1"
       d="m 259.30881,103.09774 -2.48033,15.50208 -9.92133,44.64598 -10.54141,24.18325 -10.54141,13.64182 -10.54142,8.06108 -10.54141,4.96067 -9.92133,3.7205 -10.54141,1.86025 -10.54142,1.24016 h -10.54141 l -9.92133,0.62009 h -10.54141 -10.54142 -10.54141 -9.92133 -10.54141" /><path
       inkscape:connector-curvature="0"
       id="path1808"
       style="fill:none;stroke:#606060;stroke-width:1;stroke-linecap:butt;stroke-linejoin:miter;stroke-miterlimit:10;stroke-dasharray:none;stroke-opacity:1"
       d="m 289.0728,103.09774 -0.62008,4.96067 -10.54141,64.48864 -10.54142,30.38407 -10.54141,15.50208 -9.92133,8.68117 -10.54141,6.20083 -10.54141,4.34058 -10.54142,2.48033 -10.54141,1.86025 -9.92133,1.24017 -10.54141,0.62008 h -10.54142 -10.54141 -9.92133 -10.54141 -10.54142 -10.54141 -9.92133 -10.54141" /><path
       inkscape:connector-curvature="0"
       id="path1818"
       style="fill:none;stroke:#969696;stroke-width:1;stroke-linecap:butt;stroke-linejoin:miter;stroke-miterlimit:10;stroke-dasharray:none;stroke-opacity:1"
       d="m 274.81089,103.09774 -7.441,47.7464 -10.54141,36.58491 -9.92133,19.22257 -10.54141,10.54142 -10.54141,6.82091 -10.54142,4.34058 -10.54141,3.10042 -9.92133,1.86025 -10.54141,1.24016 -10.54142,0.62009 h -10.54141 -9.92133 -10.54141 -10.54142 -10.54141 -9.92133 -10.54141" /><path
       inkscape:connector-curvature="0"
       id="path1828"
       style="fill:none;stroke:#808080;stroke-width:1;stroke-linecap:butt;stroke-linejoin:miter;stroke-miterlimit:10;stroke-dasharray:none;stroke-opacity:1"
       d="m 275.43098,103.09774 -8.06109,49.60665 -10.54141,35.96482 -9.92133,17.98241 -10.54141,10.54142 -10.54141,6.20083 -10.54142,4.34058 -10.54141,3.10041 -9.92133,1.24017 -10.54141,1.24017 h -10.54142 l -10.54141,0.62008 h -9.92133 -10.54141 -10.54142 -10.54141 -9.92133 -10.54141" /><path
       inkscape:connector-curvature="0"
       id="path1838"
       style="fill:none;stroke:#ff0000;stroke-width:1;stroke-linecap:butt;stroke-linejoin:miter;stroke-miterlimit:10;stroke-dasharray:none;stroke-opacity:1"
       d="m 277.91131,103.09774 -10.54142,56.42757 -10.54141,28.52382 -9.92133,15.50208 -10.54141,8.68116 -10.54141,5.58075 -10.54142,3.7205 -10.54141,2.48033 -9.92133,1.86025 h -10.54141 l -10.54142,0.62008 h -10.54141 -9.92133 -10.54141 -10.54142 -10.54141 -9.92133 -10.54141" /><path
       inkscape:connector-curvature="0"
       id="path1848"
       style="fill:none;stroke:#0000ff;stroke-width:1;stroke-linecap:butt;stroke-linejoin:miter;stroke-miterlimit:10;stroke-dasharray:none;stroke-opacity:1"
       d="m 281.63181,103.09774 -3.7205,29.14391 -10.54142,43.40582 -10.54141,21.70291 -9.92133,11.78157 -10.54141,7.441 -10.54141,4.34058 -10.54142,3.7205 -10.54141,1.86025 -9.92133,1.24017 -10.54141,0.62008 h -10.54142 -10.54141 -9.92133 -10.54141 -10.54142 -10.54141 -9.92133 -10.54141" /><path
       inkscape:connector-curvature="0"
       id="path1858"
       style="fill:none;stroke:#ffa500;stroke-width:1;stroke-linecap:butt;stroke-linejoin:miter;stroke-miterlimit:10;stroke-dasharray:none;stroke-opacity:1"
       d="m 274.81089,103.09774 -7.441,47.12632 -10.54141,35.34474 -9.92133,17.98241 -10.54141,10.54141 -10.54141,6.20083 -10.54142,4.34058 -10.54141,3.10042 -9.92133,1.86025 -10.54141,0.62008 -10.54142,0.62008 h -10.54141 -9.92133 l -10.54141,0.62009 h -10.54142 -10.54141 -9.92133 -10.54141" /><path
       inkscape:connector-curvature="0"
       id="path1868"
       style="fill:none;stroke:#00ff00;stroke-width:1;stroke-linecap:butt;stroke-linejoin:miter;stroke-miterlimit:10;stroke-dasharray:none;stroke-opacity:1"
       d="m 282.25189,103.09774 -4.34058,35.34474 -10.54142,44.64598 -10.54141,21.70291 -9.92133,11.78158 -10.54141,7.441 -10.54141,4.96066 -10.54142,3.10042 -10.54141,2.48033 -9.92133,0.62009 -10.54141,0.62008 h -10.54142 l -10.54141,0.62008 h -9.92133 -10.54141 -10.54142 -10.54141 -9.92133 -10.54141" /><path
       inkscape:connector-curvature="0"
       id="path1878"
       style="fill:none;stroke:#ffc0cb;stroke-width:1;stroke-linecap:butt;stroke-linejoin:miter;stroke-miterlimit:10;stroke-dasharray:none;stroke-opacity:1"
       d="m 277.91131,103.09774 -10.54142,62.6284 -10.54141,31.62424 -9.92133,16.74224 -10.54141,9.30125 -10.54141,6.20083 -10.54142,4.34058 -10.54141,2.48033 -9.92133,1.86025 -10.54141,0.62008 -10.54142,0.62009 h -10.54141 -9.92133 -10.54141 -10.54142 -10.54141 -9.92133 -10.54141" /><path
       inkscape:connector-curvature="0"
       id="path1888"
       style="fill:none;stroke:#a52a2a;stroke-width:1;stroke-linecap:butt;stroke-linejoin:miter;stroke-miterlimit:10;stroke-dasharray:none;stroke-opacity:1"
       d="m 290.93305,103.09774 -2.48033,21.70291 -10.54141,54.56732 -10.54142,24.80332 -10.54141,13.64183 -9.92133,8.06108 -10.54141,5.58075 -10.54141,3.7205 -10.54142,2.48033 -10.54141,1.86025 -9.92133,0.62008 h -10.54141 l -10.54142,0.62008 h -10.54141 -9.92133 -10.54141 -10.54142 -10.54141 -9.92133 -10.54141" /><path
       inkscape:connector-curvature="0"
       id="path1898"
       style="fill:none;stroke:#f0e68c;stroke-width:1;stroke-linecap:butt;stroke-linejoin:miter;stroke-miterlimit:10;stroke-dasharray:none;stroke-opacity:1"
       d="m 276.67114,103.09774 -9.30125,53.94723 -10.54141,32.86441 -9.92133,16.74224 -10.54141,9.92133 -10.54141,6.20083 -10.54142,3.7205 -10.54141,3.10042 -9.92133,1.24016 -10.54141,0.62009 -10.54142,0.62008 h -10.54141 -9.92133 -10.54141 -10.54142 -10.54141 -9.92133 -10.54141" /><path
       inkscape:connector-curvature="0"
       id="path1908"
       style="fill:none;stroke:#dda0dd;stroke-width:1;stroke-linecap:butt;stroke-linejoin:miter;stroke-miterlimit:10;stroke-dasharray:none;stroke-opacity:1"
       d="m 281.01172,103.09774 -3.10041,24.18324 -10.54142,48.98657 -10.54141,24.18324 -9.92133,13.02175 -10.54141,8.06108 -10.54141,4.96066 -10.54142,3.7205 -10.54141,2.48033 -9.92133,1.24017 -10.54141,1.24017 h -10.54142 -10.54141 -9.92133 -10.54141 -10.54142 -10.54141 -9.92133 l -10.54141,0.62008" /><path
       inkscape:connector-curvature="0"
       id="path1918"
       style="fill:none;stroke:#da70d6;stroke-width:1;stroke-linecap:butt;stroke-linejoin:miter;stroke-miterlimit:10;stroke-dasharray:none;stroke-opacity:1"
       d="m 249.38748,103.09774 -2.48033,15.50208 -10.54141,41.54557 -10.54141,22.94307 -10.54142,13.02175 -10.54141,8.06108 -9.92133,4.96066 -10.54141,3.10042 -10.54142,2.48033 -10.54141,0.62009 -9.92133,0.62008 h -10.54141 -10.54142 -10.54141 l -9.92133,0.62008 h -10.54141" /><path
       inkscape:connector-curvature="0"
       id="path1928"
       style="fill:none;stroke:#ee82ee;stroke-width:1;stroke-linecap:butt;stroke-linejoin:miter;stroke-miterlimit:10;stroke-dasharray:none;stroke-opacity:1"
       d="m 277.91131,103.09774 -10.54142,60.14806 -10.54141,31.62424 -9.92133,16.12216 -10.54141,9.30125 -10.54141,6.20083 -10.54142,4.34058 -10.54141,2.48034 -9.92133,1.86025 -10.54141,0.62008 -10.54142,0.62008 h -10.54141 -9.92133 -10.54141 -10.54142 -10.54141 -9.92133 -10.54141" /><path
       inkscape:connector-curvature="0"
       id="path1938"
       style="fill:none;stroke:#b03060;stroke-width:1;stroke-linecap:butt;stroke-linejoin:miter;stroke-miterlimit:10;stroke-dasharray:none;stroke-opacity:1"
       d="m 274.19081,103.09774 -6.82092,42.78574 -10.54141,34.72465 -9.92133,17.98241 -10.54141,10.54141 -10.54141,6.20084 -10.54142,4.34058 -10.54141,2.48033 -9.92133,1.86025 -10.54141,0.62008 -10.54142,0.62009 h -10.54141 -9.92133 -10.54141 -10.54142 -10.54141 -9.92133 -10.54141" /><path
       inkscape:connector-curvature="0"
       id="path1948"
       style="fill:none;stroke:#40e0d0;stroke-width:1;stroke-linecap:butt;stroke-linejoin:miter;stroke-miterlimit:10;stroke-dasharray:none;stroke-opacity:1"
       d="m 274.19081,103.09774 -6.82092,48.36648 -10.54141,40.92549 -9.92133,20.46274 -10.54141,11.78158 -10.54141,7.441 -10.54142,4.34058 -10.54141,3.10042 -9.92133,2.48033 -10.54141,0.62008 -10.54142,0.62009 h -10.54141 l -9.92133,0.62008 h -10.54141 -10.54142 -10.54141 -9.92133 -10.54141" /><path
       inkscape:connector-curvature="0"
       id="path1958"
       style="fill:none;stroke:#a0522d;stroke-width:1;stroke-linecap:butt;stroke-linejoin:miter;stroke-miterlimit:10;stroke-dasharray:none;stroke-opacity:1"
       d="m 276.67114,103.09774 -9.30125,57.04765 -10.54141,34.10457 -9.92133,17.98241 -10.54141,9.92133 -10.54141,6.82091 -10.54142,4.34059 -10.54141,2.48033 -9.92133,1.86025 -10.54141,1.24016 h -10.54142 l -10.54141,0.62009 h -9.92133 -10.54141 -10.54142 -10.54141 -9.92133 -10.54141" /><path
       inkscape:connector-curvature="0"
       id="path1968"
       style="fill:none;stroke:#ff7f50;stroke-width:1;stroke-linecap:butt;stroke-linejoin:miter;stroke-miterlimit:10;stroke-dasharray:none;stroke-opacity:1"
       d="m 277.91131,103.09774 -10.54142,57.66773 -10.54141,29.14391 -9.92133,15.50208 -10.54141,8.68116 -10.54141,5.58075 -10.54142,3.7205 -10.54141,2.48033 -9.92133,1.86025 -10.54141,0.62008 h -10.54142 -10.54141 -9.92133 l -10.54141,0.62008 h -10.54142 -10.54141 -9.92133 -10.54141" /><path
       inkscape:connector-curvature="0"
       id="path1978"
       style="fill:none;stroke:#00ffff;stroke-width:1;stroke-linecap:butt;stroke-linejoin:miter;stroke-miterlimit:10;stroke-dasharray:none;stroke-opacity:1"
       d="m 283.49206,103.09774 -5.58075,37.82507 -10.54142,38.44516 -10.54141,18.60249 -9.92133,11.16149 -10.54141,6.20084 -10.54141,4.34058 -10.54142,3.10041 -10.54141,1.86025 -9.92133,0.62009 -10.54141,0.62008 h -10.54142 -10.54141 -9.92133 -10.54141 -10.54142 -10.54141 -9.92133 -10.54141" /><path
       inkscape:connector-curvature="0"
       id="path1988"
       style="fill:none;stroke:#ff00ff;stroke-width:1;stroke-linecap:butt;stroke-linejoin:miter;stroke-miterlimit:10;stroke-dasharray:none;stroke-opacity:1"
       d="m 281.63181,103.09774 -3.7205,31.00416 -10.54142,43.40582 -10.54141,21.08282 -9.92133,11.78158 -10.54141,7.441 -10.54141,4.34058 -10.54142,3.10042 -10.54141,1.86025 -9.92133,1.24016 -10.54141,0.62008 h -10.54142 -10.54141 -9.92133 -10.54141 -10.54142 -10.54141 -9.92133 -10.54141" /><path
       inkscape:connector-curvature="0"
       id="path1998"
       style="fill:none;stroke:#606060;stroke-width:1;stroke-linecap:butt;stroke-linejoin:miter;stroke-miterlimit:10;stroke-dasharray:none;stroke-opacity:1"
       d="m 285.97239,103.09774 -8.06108,47.7464 -10.54142,31.62424 -10.54141,16.12216 -9.92133,9.30125 -10.54141,5.58075 -10.54141,3.7205 -10.54142,2.48033 -10.54141,1.86025 -9.92133,0.62008 h -10.54141 -10.54142 -10.54141 -9.92133 -10.54141 -10.54142 -10.54141 -9.92133 -10.54141" /><path
       inkscape:connector-curvature="0"
       id="path2008"
       style="fill:none;stroke:#969696;stroke-width:1;stroke-linecap:butt;stroke-linejoin:miter;stroke-miterlimit:10;stroke-dasharray:none;stroke-opacity:1"
       d="m 269.23014,103.09774 -1.86025,13.64183 -10.54141,46.50623 -9.92133,24.18325 -10.54141,13.02174 -10.54141,7.441 -10.54142,5.58075 -10.54141,3.10041 -9.92133,1.86025 -10.54141,1.24017 -10.54142,0.62008 h -10.54141 -9.92133 -10.54141 l -10.54142,0.62008 h -10.54141 -9.92133 -10.54141" /><path
       inkscape:connector-curvature="0"
       id="path2018"
       style="fill:none;stroke:#808080;stroke-width:1;stroke-linecap:butt;stroke-linejoin:miter;stroke-miterlimit:10;stroke-dasharray:none;stroke-opacity:1"
       d="m 290.31297,103.09774 -1.86025,21.08283 -10.54141,63.24848 -10.54142,29.1439 -10.54141,14.882 -9.92133,9.30124 -10.54141,5.58075 -10.54141,4.34058 -10.54142,3.10042 -10.54141,1.24017 -9.92133,1.24016 h -10.54141 l -10.54142,0.62009 h -10.54141 -9.92133 -10.54141 -10.54142 -10.54141 -9.92133 -10.54141" /><path
       inkscape:connector-curvature="0"
       id="path2028"
       style="fill:none;stroke:#ff0000;stroke-width:1;stroke-linecap:butt;stroke-linejoin:miter;stroke-miterlimit:10;stroke-dasharray:none;stroke-opacity:1"
       d="m 270.47031,103.09774 -3.10042,24.18324 -10.54141,45.88615 -9.92133,24.18325 -10.54141,13.02174 -10.54141,7.441 -10.54142,5.58075 -10.54141,3.10041 -9.92133,2.48033 -10.54141,1.24017 -10.54142,0.62008 h -10.54141 -9.92133 -10.54141 -10.54142 -10.54141 -9.92133 -10.54141" /><path
       inkscape:connector-curvature="0"
       id="path2038"
       style="fill:none;stroke:#0000ff;stroke-width:1;stroke-linecap:butt;stroke-linejoin:miter;stroke-miterlimit:10;stroke-dasharray:none;stroke-opacity:1"
       d="m 278.53139,103.09774 -0.62008,6.20083 -10.54142,56.42757 -10.54141,27.28365 -9.92133,14.882 -10.54141,8.68116 -10.54141,5.58075 -10.54142,3.7205 -10.54141,2.48033 -9.92133,1.24017 -10.54141,0.62008 -10.54142,0.62008 h -10.54141 -9.92133 -10.54141 -10.54142 -10.54141 -9.92133 -10.54141" /><path
       inkscape:connector-curvature="0"
       id="path2048"
       style="fill:none;stroke:#ffa500;stroke-width:1;stroke-linecap:butt;stroke-linejoin:miter;stroke-miterlimit:10;stroke-dasharray:none;stroke-opacity:1"
       d="m 260.54898,103.09774 -3.7205,21.70291 -9.92133,39.68532 -10.54141,21.70291 -10.54141,11.78158 -10.54142,7.441 -10.54141,4.34058 -9.92133,3.10041 -10.54141,1.24017 -10.54142,1.24017 h -10.54141 -9.92133 l -10.54141,0.62008 h -10.54142 -10.54141 -9.92133 -10.54141" /><path
       inkscape:connector-curvature="0"
       id="path2058"
       style="fill:none;stroke:#00ff00;stroke-width:1;stroke-linecap:butt;stroke-linejoin:miter;stroke-miterlimit:10;stroke-dasharray:none;stroke-opacity:1"
       d="m 271.71048,103.09774 -4.34059,32.24432 -10.54141,43.40582 -9.92133,22.32299 -10.54141,12.40167 -10.54141,7.44099 -10.54142,4.96067 -10.54141,3.10041 -9.92133,1.86025 -10.54141,1.24017 h -10.54142 l -10.54141,0.62008 h -9.92133 -10.54141 -10.54142 -10.54141 -9.92133 -10.54141" /><path
       inkscape:connector-curvature="0"
       id="path2068"
       style="fill:none;stroke:#ffc0cb;stroke-width:1;stroke-linecap:butt;stroke-linejoin:miter;stroke-miterlimit:10;stroke-dasharray:none;stroke-opacity:1"
       d="m 286.59247,103.09774 -8.68116,52.08698 -10.54142,31.62424 -10.54141,15.50208 -9.92133,9.30125 -10.54141,6.20083 -10.54141,3.7205 -10.54142,2.48033 -10.54141,1.86025 -9.92133,0.62008 h -10.54141 -10.54142 -10.54141 -9.92133 l -10.54141,0.62009 h -10.54142 -10.54141 -9.92133 -10.54141" /><path
       inkscape:connector-curvature="0"
       id="path2078"
       style="fill:none;stroke:#a52a2a;stroke-width:1;stroke-linecap:butt;stroke-linejoin:miter;stroke-miterlimit:10;stroke-dasharray:none;stroke-opacity:1"
       d="m 259.30881,103.09774 -2.48033,17.36233 -9.92133,47.7464 -10.54141,26.04349 -10.54141,14.26191 -10.54142,8.68117 -10.54141,5.58074 -9.92133,3.7205 -10.54141,1.86025 -10.54142,1.24017 -10.54141,0.62008 -9.92133,0.62008 h -10.54141 -10.54142 -10.54141 -9.92133 -10.54141" /><path
       inkscape:connector-curvature="0"
       id="path2088"
       style="fill:none;stroke:#f0e68c;stroke-width:1;stroke-linecap:butt;stroke-linejoin:miter;stroke-miterlimit:10;stroke-dasharray:none;stroke-opacity:1"
       d="m 260.54898,103.09774 -3.7205,23.56316 -9.92133,38.44515 -10.54141,20.46275 -10.54141,11.78158 -10.54142,7.44099 -10.54141,4.34058 -9.92133,2.48034 -10.54141,1.86025 -10.54142,0.62008 h -10.54141 l -9.92133,0.62008 h -10.54141 -10.54142 -10.54141 -9.92133 -10.54141" /><path
       inkscape:connector-curvature="0"
       id="path2098"
       style="fill:none;stroke:#dda0dd;stroke-width:1;stroke-linecap:butt;stroke-linejoin:miter;stroke-miterlimit:10;stroke-dasharray:none;stroke-opacity:1"
       d="m 253.10798,103.09774 -6.20083,37.82507 -10.54141,35.34474 -10.54141,19.84266 -10.54142,11.1615 -10.54141,6.82091 -9.92133,4.34058 -10.54141,3.10042 -10.54142,1.86025 -10.54141,1.24016 h -9.92133 -10.54141 l -10.54142,0.62009 h -10.54141 -9.92133 -10.54141" /><path
       inkscape:connector-curvature="0"
       id="path2106"
       style="fill:none;stroke:#da70d6;stroke-width:1;stroke-linecap:butt;stroke-linejoin:miter;stroke-miterlimit:10;stroke-dasharray:none;stroke-opacity:1"
       d="m 271.71048,103.09774 -4.34059,31.62424 -10.54141,43.40582 -9.92133,22.94307 -10.54141,12.40167 -10.54141,7.44099 -10.54142,4.96067 -10.54141,3.10041 -9.92133,2.48034 -10.54141,1.24016 -10.54142,0.62009 h -10.54141 -9.92133 -10.54141 -10.54142 -10.54141 -9.92133 -10.54141" /><path
       inkscape:connector-curvature="0"
       id="path2114"
       style="fill:none;stroke:#ee82ee;stroke-width:1;stroke-linecap:butt;stroke-linejoin:miter;stroke-miterlimit:10;stroke-dasharray:none;stroke-opacity:1"
       d="m 280.39164,103.09774 -2.48033,20.46274 -10.54142,54.56732 -10.54141,27.28366 -9.92133,14.26191 -10.54141,8.06108 -10.54141,5.58075 -10.54142,3.7205 -10.54141,3.10041 -9.92133,1.24017 -10.54141,0.62008 -10.54142,0.62008 h -10.54141 -9.92133 -10.54141 -10.54142 -10.54141 -9.92133 -10.54141" /><path
       inkscape:connector-curvature="0"
       id="path2116"
       style="fill:none;stroke:#b03060;stroke-width:1;stroke-linecap:butt;stroke-linejoin:miter;stroke-miterlimit:10;stroke-dasharray:none;stroke-opacity:1"
       d="m 269.85023,103.09774 -2.48034,19.22258 -10.54141,50.22673 -9.92133,26.04349 -10.54141,14.26191 -10.54141,8.06108 -10.54142,5.58075 -10.54141,3.7205 -9.92133,1.86025 -10.54141,1.86025 -10.54142,0.62008 h -10.54141 -9.92133 -10.54141 -10.54142 -10.54141 -9.92133 -10.54141" /><path
       inkscape:connector-curvature="0"
       id="path2118"
       style="fill:none;stroke:#40e0d0;stroke-width:1;stroke-linecap:butt;stroke-linejoin:miter;stroke-miterlimit:10;stroke-dasharray:none;stroke-opacity:1"
       d="m 241.94649,103.09774 -5.58075,30.38407 -10.54141,34.10458 -10.54142,19.22257 -10.54141,11.78158 -9.92133,6.82092 -10.54141,4.34058 -10.54142,3.10041 -10.54141,1.24017 -9.92133,1.24017 h -10.54141 l -10.54142,0.62008 h -10.54141 -9.92133 -10.54141" /><path
       inkscape:connector-curvature="0"
       id="path2120"
       style="fill:none;stroke:#a0522d;stroke-width:1;stroke-linecap:butt;stroke-linejoin:miter;stroke-miterlimit:10;stroke-dasharray:none;stroke-opacity:1"
       d="m 271.71048,103.09774 -4.34059,30.38407 -10.54141,41.54557 -9.92133,21.08283 -10.54141,11.78158 -10.54141,7.441 -10.54142,4.34058 -10.54141,3.10041 -9.92133,2.48034 -10.54141,0.62008 -10.54142,0.62008 h -10.54141 -9.92133 -10.54141 l -10.54142,0.62009 h -10.54141 -9.92133 -10.54141" /><path
       inkscape:connector-curvature="0"
       id="path2122"
       style="fill:none;stroke:#ff7f50;stroke-width:1;stroke-linecap:butt;stroke-linejoin:miter;stroke-miterlimit:10;stroke-dasharray:none;stroke-opacity:1"
       d="m 267.98998,103.09774 -0.62009,5.58075 -10.54141,52.08698 -9.92133,27.28366 -10.54141,14.26191 -10.54141,8.68116 -10.54142,5.58075 -10.54141,3.7205 -9.92133,2.48033 -10.54141,1.24017 -10.54142,0.62008 h -10.54141 -9.92133 -10.54141 -10.54142 -10.54141 -9.92133 -10.54141" /><path
       inkscape:connector-curvature="0"
       id="path2124"
       style="fill:none;stroke:#00ffff;stroke-width:1;stroke-linecap:butt;stroke-linejoin:miter;stroke-miterlimit:10;stroke-dasharray:none;stroke-opacity:1"
       d="m 267.98998,103.09774 -0.62009,4.96067 -10.54141,51.4669 -9.92133,27.28365 -10.54141,14.26191 -10.54141,8.68117 -10.54142,5.58075 -10.54141,3.72049 -9.92133,2.48034 -10.54141,1.24016 -10.54142,0.62009 h -10.54141 -9.92133 -10.54141 l -10.54142,0.62008 h -10.54141 -9.92133 -10.54141" /><path
       inkscape:connector-curvature="0"
       id="path2126"
       style="fill:none;stroke:#ff00ff;stroke-width:1;stroke-linecap:butt;stroke-linejoin:miter;stroke-miterlimit:10;stroke-dasharray:none;stroke-opacity:1"
       d="m 261.78915,103.09774 -4.96067,30.38407 -9.92133,35.96483 -10.54141,19.22257 -10.54141,10.54142 -10.54142,6.82091 -10.54141,4.34058 -9.92133,2.48033 -10.54141,1.86025 -10.54142,0.62009 h -10.54141 -9.92133 l -10.54141,0.62008 h -10.54142 -10.54141 -9.92133 -10.54141" /><path
       inkscape:connector-curvature="0"
       id="path2128"
       style="fill:none;stroke:#606060;stroke-width:1;stroke-linecap:butt;stroke-linejoin:miter;stroke-miterlimit:10;stroke-dasharray:none;stroke-opacity:1"
       d="m 266.12973,103.09774 -9.30125,53.32715 -9.92133,32.86441 -10.54141,17.36232 -10.54141,10.54142 -10.54142,6.20083 -10.54141,3.7205 -9.92133,3.10041 -10.54141,1.24017 -10.54142,1.24016 h -10.54141 -9.92133 l -10.54141,0.62009 h -10.54142 -10.54141 -9.92133 -10.54141" /><path
       inkscape:connector-curvature="0"
       id="path2130"
       style="fill:none;stroke:#969696;stroke-width:1;stroke-linecap:butt;stroke-linejoin:miter;stroke-miterlimit:10;stroke-dasharray:none;stroke-opacity:1"
       d="m 264.88956,103.09774 -8.06108,47.7464 -9.92133,33.48449 -10.54141,17.36233 -10.54141,10.54141 -10.54142,6.20083 -10.54141,4.34058 -9.92133,2.48034 -10.54141,1.86025 -10.54142,0.62008 h -10.54141 l -9.92133,0.62008 h -10.54141 -10.54142 -10.54141 -9.92133 -10.54141" /><path
       inkscape:connector-curvature="0"
       id="path2132"
       style="fill:none;stroke:#808080;stroke-width:1;stroke-linecap:butt;stroke-linejoin:miter;stroke-miterlimit:10;stroke-dasharray:none;stroke-opacity:1"
       d="m 283.49206,103.09774 -5.58075,39.68532 -10.54142,40.3054 -10.54141,20.46275 -9.92133,11.16149 -10.54141,6.82092 -10.54141,4.96066 -10.54142,3.10042 -10.54141,1.86025 -9.92133,1.24016 -10.54141,0.62009 h -10.54142 l -10.54141,0.62008 h -9.92133 -10.54141 -10.54142 -10.54141 -9.92133 -10.54141" /><path
       inkscape:connector-curvature="0"
       id="path2134"
       style="fill:none;stroke:#ff0000;stroke-width:1;stroke-linecap:butt;stroke-linejoin:miter;stroke-miterlimit:10;stroke-dasharray:none;stroke-opacity:1"
       d="m 271.09039,103.09774 -3.7205,26.04349 -10.54141,44.0259 -9.92133,22.94308 -10.54141,12.40166 -10.54141,7.441 -10.54142,4.96066 -10.54141,3.10042 -9.92133,2.48033 -10.54141,1.24017 -10.54142,0.62008 h -10.54141 -9.92133 -10.54141 -10.54142 -10.54141 -9.92133 -10.54141" /><path
       inkscape:connector-curvature="0"
       id="path2136"
       style="fill:none;stroke:#0000ff;stroke-width:1;stroke-linecap:butt;stroke-linejoin:miter;stroke-miterlimit:10;stroke-dasharray:none;stroke-opacity:1"
       d="m 278.53139,103.09774 -0.62008,1.86025 -10.54142,63.24848 -10.54141,31.00416 -9.92133,16.12216 -10.54141,9.30124 -10.54141,6.20083 -10.54142,4.34059 -10.54141,3.10041 -9.92133,1.86025 -10.54141,0.62008 -10.54142,0.62009 h -10.54141 -9.92133 -10.54141 -10.54142 -10.54141 -9.92133 -10.54141" /><path
       inkscape:connector-curvature="0"
       id="path2138"
       style="fill:none;stroke:#ffa500;stroke-width:1;stroke-linecap:butt;stroke-linejoin:miter;stroke-miterlimit:10;stroke-dasharray:none;stroke-opacity:1"
       d="m 256.82848,103.09774 -9.92133,49.60665 -10.54141,27.90374 -10.54141,15.50208 -10.54142,9.30125 -10.54141,6.20083 -9.92133,3.7205 -10.54141,1.86025 -10.54142,1.86024 -10.54141,0.62009 h -9.92133 -10.54141 -10.54142 -10.54141 -9.92133 l -10.54141,0.62008" /><path
       inkscape:connector-curvature="0"
       id="path2140"
       style="fill:none;stroke:#00ff00;stroke-width:1;stroke-linecap:butt;stroke-linejoin:miter;stroke-miterlimit:10;stroke-dasharray:none;stroke-opacity:1"
       d="m 284.11214,103.09774 -6.20083,48.98657 -10.54142,42.78573 -10.54141,21.08283 -9.92133,11.78158 -10.54141,7.441 -10.54141,4.96066 -10.54142,3.10042 -10.54141,2.48033 -9.92133,1.24017 -10.54141,0.62008 h -10.54142 -10.54141 l -9.92133,0.62008 h -10.54141 -10.54142 -10.54141 -9.92133 -10.54141" /><path
       inkscape:connector-curvature="0"
       id="path2142"
       style="fill:none;stroke:#ffc0cb;stroke-width:1;stroke-linecap:butt;stroke-linejoin:miter;stroke-miterlimit:10;stroke-dasharray:none;stroke-opacity:1"
       d="m 271.09039,103.09774 -3.7205,27.28366 -10.54141,47.12632 -9.92133,24.80332 -10.54141,13.02175 -10.54141,8.06108 -10.54142,4.96066 -10.54141,3.7205 -9.92133,1.86025 -10.54141,1.24017 -10.54142,0.62008 h -10.54141 l -9.92133,0.62008 h -10.54141 -10.54142 -10.54141 -9.92133 -10.54141" /></g></svg>