<?xml version="1.0" encoding="UTF-8" standalone="no"?>
<!-- Created with Inkscape (http://www.inkscape.org/) -->

<svg
   xmlns:dc="http://purl.org/dc/elements/1.1/"
   xmlns:cc="http://creativecommons.org/ns#"
   xmlns:rdf="http://www.w3.org/1999/02/22-rdf-syntax-ns#"
   xmlns:svg="http://www.w3.org/2000/svg"
   xmlns="http://www.w3.org/2000/svg"
   xmlns:sodipodi="http://sodipodi.sourceforge.net/DTD/sodipodi-0.dtd"
   xmlns:inkscape="http://www.inkscape.org/namespaces/inkscape"
   version="1.1"
   id="svg2"
   xml:space="preserve"
   width="600.01947"
   height="553.36646"
   viewBox="0 0 600.01947 553.36646"
   sodipodi:docname="dc_mc.svg"
   inkscape:version="0.92.5 (2060ec1f9f, 2020-04-08)"><metadata
     id="metadata8"><rdf:RDF><cc:Work
         rdf:about=""><dc:format>image/svg+xml</dc:format><dc:type
           rdf:resource="http://purl.org/dc/dcmitype/StillImage" /><dc:title></dc:title></cc:Work></rdf:RDF></metadata><defs
     id="defs6" /><sodipodi:namedview
     pagecolor="#ffffff"
     bordercolor="#666666"
     borderopacity="1"
     objecttolerance="10"
     gridtolerance="10"
     guidetolerance="10"
     inkscape:pageopacity="1"
     inkscape:pageshadow="2"
     inkscape:window-width="1920"
     inkscape:window-height="1030"
     id="namedview4"
     showgrid="false"
     fit-margin-top="5"
     fit-margin-left="5"
     fit-margin-right="5"
     fit-margin-bottom="5"
     inkscape:zoom="1.0322301"
     inkscape:cx="127.2753"
     inkscape:cy="283.11644"
     inkscape:window-x="0"
     inkscape:window-y="0"
     inkscape:window-maximized="1"
     inkscape:current-layer="g14" /><g
     id="g10"
     inkscape:groupmode="layer"
     inkscape:label="ink_ext_XXXXXX"
     transform="matrix(1.3333333,0,0,-1.3333333,1.4910724,553.98115)"><g
       id="g12"
       transform="scale(0.1)"><g
         id="g14"
         transform="scale(10)"><text
           transform="scale(1,-1)"
           style="font-variant:normal;font-size:10px;font-family:f-0;-inkscape-font-specification:f-0-0;writing-mode:lr-tb;fill:#000000;fill-opacity:1;fill-rule:nonzero;stroke:none"
           id="text18"
           x="189.90425"
           y="-6.291111"><tspan
             x="189.90425 195.46426 198.79427 204.35426 206.57426 212.13426 214.91426 219.91426 225.47426 227.69426 230.47426 236.03426 241.59425 247.15425 249.93425 253.26425 258.26425"
             y="-6.291111"
             sodipodi:role="line"
             id="tspan16">drain voltage (v)</tspan></text>
<text
           transform="matrix(0,1,1,0,0,0)"
           style="font-variant:normal;font-size:10px;font-family:f-0;-inkscape-font-specification:f-0-0;writing-mode:lr-tb;fill:#000000;fill-opacity:1;fill-rule:nonzero;stroke:none"
           id="text22"
           x="167.53723"
           y="10.219586"><tspan
             x="167.53723 172.53723 178.09723 181.42723 184.75723 190.31723 195.87723 198.65723 201.43724 206.99724 212.55724 215.33723 220.89723 226.45723 229.23723 232.01724 235.34723 240.90724 246.46724"
             y="10.219586"
             sodipodi:role="line"
             id="tspan20">current output (ua)</tspan></text>
</g><path
         d="m 384.449,373.16 v 3700"
         style="fill:none;stroke:#000000;stroke-width:10;stroke-linecap:butt;stroke-linejoin:miter;stroke-miterlimit:10;stroke-dasharray:none;stroke-opacity:1"
         id="path24"
         inkscape:connector-curvature="0" /><g
         id="g26"
         transform="scale(10)"><text
           transform="matrix(1,0,0,-1,26.4445,20.3145)"
           style="font-variant:normal;font-size:10px;font-family:f-0;-inkscape-font-specification:f-0-1;writing-mode:lr-tb;fill:#000000;fill-opacity:1;fill-rule:nonzero;stroke:none"
           id="text30"><tspan
             x="0"
             y="0"
             id="tspan28">−</tspan></text>
<text
           transform="matrix(1,0,0,-1,32.28434,20.3145)"
           style="font-variant:normal;font-size:10px;font-family:f-0;-inkscape-font-specification:f-0-0;writing-mode:lr-tb;fill:#000000;fill-opacity:1;fill-rule:nonzero;stroke:none"
           id="text34"><tspan
             x="0 5.5599999 8.3400002"
             y="0"
             sodipodi:role="line"
             id="tspan32">0.0</tspan></text>
</g><path
         d="M 1054.45,373.16 V 4075.6791"
         style="fill:none;stroke:#808080;stroke-width:10;stroke-linecap:butt;stroke-linejoin:miter;stroke-miterlimit:10;stroke-dasharray:none;stroke-opacity:1"
         id="path36"
         inkscape:connector-curvature="0" /><g
         id="g38"
         transform="scale(10)"><text
           transform="matrix(1,0,0,-1,96.4445,20.3145)"
           style="font-variant:normal;font-size:10px;font-family:f-0;-inkscape-font-specification:f-0-0;writing-mode:lr-tb;fill:#000000;fill-opacity:1;fill-rule:nonzero;stroke:none"
           id="text42"><tspan
             x="0 5.5599999 8.3400002"
             y="0"
             sodipodi:role="line"
             id="tspan40">0.2</tspan></text>
</g><path
         d="M 1724.45,373.16 V 4075.6791"
         style="fill:none;stroke:#808080;stroke-width:10;stroke-linecap:butt;stroke-linejoin:miter;stroke-miterlimit:10;stroke-dasharray:none;stroke-opacity:1"
         id="path44"
         inkscape:connector-curvature="0" /><g
         id="g46"
         transform="scale(10)"><text
           transform="matrix(1,0,0,-1,163.445,20.3145)"
           style="font-variant:normal;font-size:10px;font-family:f-0;-inkscape-font-specification:f-0-0;writing-mode:lr-tb;fill:#000000;fill-opacity:1;fill-rule:nonzero;stroke:none"
           id="text50"><tspan
             x="0 5.5599999 8.3400002"
             y="0"
             sodipodi:role="line"
             id="tspan48">0.4</tspan></text>
</g><path
         d="M 2394.45,373.16 V 4075.6791"
         style="fill:none;stroke:#808080;stroke-width:10;stroke-linecap:butt;stroke-linejoin:miter;stroke-miterlimit:10;stroke-dasharray:none;stroke-opacity:1"
         id="path52"
         inkscape:connector-curvature="0" /><g
         id="g54"
         transform="scale(10)"><text
           transform="matrix(1,0,0,-1,230.445,20.3145)"
           style="font-variant:normal;font-size:10px;font-family:f-0;-inkscape-font-specification:f-0-0;writing-mode:lr-tb;fill:#000000;fill-opacity:1;fill-rule:nonzero;stroke:none"
           id="text58"><tspan
             x="0 5.5599999 8.3400002"
             y="0"
             sodipodi:role="line"
             id="tspan56">0.6</tspan></text>
</g><path
         d="M 3064.45,373.16 V 4075.6791"
         style="fill:none;stroke:#808080;stroke-width:10;stroke-linecap:butt;stroke-linejoin:miter;stroke-miterlimit:10;stroke-dasharray:none;stroke-opacity:1"
         id="path60"
         inkscape:connector-curvature="0" /><g
         id="g62"
         transform="scale(10)"><text
           transform="matrix(1,0,0,-1,297.445,20.3145)"
           style="font-variant:normal;font-size:10px;font-family:f-0;-inkscape-font-specification:f-0-0;writing-mode:lr-tb;fill:#000000;fill-opacity:1;fill-rule:nonzero;stroke:none"
           id="text66"><tspan
             x="0 5.5599999 8.3400002"
             y="0"
             sodipodi:role="line"
             id="tspan64">0.8</tspan></text>
</g><path
         d="M 3734.45,373.16 V 4075.6791"
         style="fill:none;stroke:#808080;stroke-width:10;stroke-linecap:butt;stroke-linejoin:miter;stroke-miterlimit:10;stroke-dasharray:none;stroke-opacity:1"
         id="path68"
         inkscape:connector-curvature="0" /><g
         id="g70"
         transform="scale(10)"><text
           transform="matrix(1,0,0,-1,364.445,20.3145)"
           style="font-variant:normal;font-size:10px;font-family:f-0;-inkscape-font-specification:f-0-0;writing-mode:lr-tb;fill:#000000;fill-opacity:1;fill-rule:nonzero;stroke:none"
           id="text74"><tspan
             x="0 5.5599999 8.3400002"
             y="0"
             sodipodi:role="line"
             id="tspan72">1.0</tspan></text>
</g><path
         d="M 4404.45,373.16 V 4075.6791"
         style="fill:none;stroke:#808080;stroke-width:10;stroke-linecap:butt;stroke-linejoin:miter;stroke-miterlimit:10;stroke-dasharray:none;stroke-opacity:1"
         id="path76"
         inkscape:connector-curvature="0" /><g
         id="g78"
         transform="scale(10)"><text
           transform="matrix(1,0,0,-1,431.445,20.3145)"
           style="font-variant:normal;font-size:10px;font-family:f-0;-inkscape-font-specification:f-0-0;writing-mode:lr-tb;fill:#000000;fill-opacity:1;fill-rule:nonzero;stroke:none"
           id="text82"><tspan
             x="0 5.5599999 8.3400002"
             y="0"
             sodipodi:role="line"
             id="tspan80">1.2</tspan></text>
</g><path
         d="M 384.449,373.16 H 4406.48"
         style="fill:none;stroke:#808080;stroke-width:10;stroke-linecap:butt;stroke-linejoin:miter;stroke-miterlimit:10;stroke-dasharray:none;stroke-opacity:1"
         id="path84"
         inkscape:connector-curvature="0" /><g
         id="g86"
         transform="scale(10)"><text
           transform="matrix(1,0,0,-1,14.4445,34.3145)"
           style="font-variant:normal;font-size:10px;font-family:f-0;-inkscape-font-specification:f-0-0;writing-mode:lr-tb;fill:#000000;fill-opacity:1;fill-rule:nonzero;stroke:none"
           id="text90"><tspan
             x="0 5.5599999 11.12 13.9"
             y="0"
             sodipodi:role="line"
             id="tspan88">48.5</tspan></text>
</g><path
         d="M 384.449,1113.16 H 4406.48"
         style="fill:none;stroke:#808080;stroke-width:10;stroke-linecap:butt;stroke-linejoin:miter;stroke-miterlimit:10;stroke-dasharray:none;stroke-opacity:1"
         id="path92"
         inkscape:connector-curvature="0" /><g
         id="g94"
         transform="scale(10)"><text
           transform="matrix(1,0,0,-1,14.4445,108.314)"
           style="font-variant:normal;font-size:10px;font-family:f-0;-inkscape-font-specification:f-0-0;writing-mode:lr-tb;fill:#000000;fill-opacity:1;fill-rule:nonzero;stroke:none"
           id="text98"><tspan
             x="0 5.5599999 11.12 13.9"
             y="0"
             sodipodi:role="line"
             id="tspan96">49.0</tspan></text>
</g><path
         d="M 384.449,1853.16 H 4406.48"
         style="fill:none;stroke:#808080;stroke-width:10;stroke-linecap:butt;stroke-linejoin:miter;stroke-miterlimit:10;stroke-dasharray:none;stroke-opacity:1"
         id="path100"
         inkscape:connector-curvature="0" /><g
         id="g102"
         transform="scale(10)"><text
           transform="matrix(1,0,0,-1,14.4445,182.314)"
           style="font-variant:normal;font-size:10px;font-family:f-0;-inkscape-font-specification:f-0-0;writing-mode:lr-tb;fill:#000000;fill-opacity:1;fill-rule:nonzero;stroke:none"
           id="text106"><tspan
             x="0 5.5599999 11.12 13.9"
             y="0"
             sodipodi:role="line"
             id="tspan104">49.5</tspan></text>
</g><path
         d="M 384.449,2593.16 H 4406.48"
         style="fill:none;stroke:#808080;stroke-width:10;stroke-linecap:butt;stroke-linejoin:miter;stroke-miterlimit:10;stroke-dasharray:none;stroke-opacity:1"
         id="path108"
         inkscape:connector-curvature="0" /><g
         id="g110"
         transform="scale(10)"><text
           transform="matrix(1,0,0,-1,14.4445,256.314)"
           style="font-variant:normal;font-size:10px;font-family:f-0;-inkscape-font-specification:f-0-0;writing-mode:lr-tb;fill:#000000;fill-opacity:1;fill-rule:nonzero;stroke:none"
           id="text114"><tspan
             x="0 5.5599999 11.12 13.9"
             y="0"
             sodipodi:role="line"
             id="tspan112">50.0</tspan></text>
</g><path
         d="M 384.449,3333.16 H 4406.48"
         style="fill:none;stroke:#808080;stroke-width:10;stroke-linecap:butt;stroke-linejoin:miter;stroke-miterlimit:10;stroke-dasharray:none;stroke-opacity:1"
         id="path116"
         inkscape:connector-curvature="0" /><g
         id="g118"
         transform="scale(10)"><text
           transform="matrix(1,0,0,-1,14.4445,330.314)"
           style="font-variant:normal;font-size:10px;font-family:f-0;-inkscape-font-specification:f-0-0;writing-mode:lr-tb;fill:#000000;fill-opacity:1;fill-rule:nonzero;stroke:none"
           id="text122"><tspan
             x="0 5.5599999 11.12 13.9"
             y="0"
             sodipodi:role="line"
             id="tspan120">50.5</tspan></text>
</g><path
         d="M 384.449,4073.16 H 4406.48"
         style="fill:none;stroke:#808080;stroke-width:10;stroke-linecap:butt;stroke-linejoin:miter;stroke-miterlimit:10;stroke-dasharray:none;stroke-opacity:1"
         id="path124"
         inkscape:connector-curvature="0" /><g
         id="g126"
         transform="scale(10)"><text
           transform="matrix(1,0,0,-1,14.4445,404.314)"
           style="font-variant:normal;font-size:10px;font-family:f-0;-inkscape-font-specification:f-0-0;writing-mode:lr-tb;fill:#000000;fill-opacity:1;fill-rule:nonzero;stroke:none"
           id="text130"><tspan
             x="0 5.5599999 11.12 13.9"
             y="0"
             sodipodi:role="line"
             id="tspan128">51.0</tspan></text>
</g><path
         d="m 4124.45,373.16 -50,740 -170,720 -170,310 -170,170 -160,120 -170,90 -170,50 -170,10 -160,10 h -1680 l -170.001,10 h -500"
         style="fill:none;stroke:#ff0000;stroke-width:10;stroke-linecap:butt;stroke-linejoin:miter;stroke-miterlimit:10;stroke-dasharray:none;stroke-opacity:1"
         id="path134"
         inkscape:connector-curvature="0" /><path
         d="m 4194.45,373.16 -120,1360 -170,560 -170,260 -170,170 -160,120 -170,80 -170,60 -170,20 h -670 l -170,10 H 384.449"
         style="fill:none;stroke:#0000ff;stroke-width:10;stroke-linecap:butt;stroke-linejoin:miter;stroke-miterlimit:10;stroke-dasharray:none;stroke-opacity:1"
         id="path136"
         inkscape:connector-curvature="0" /><path
         d="m 4084.45,373.16 -10,100 -170,960 -170,360 -170,190 -160,120 -170,70 -170,40 -170,10 -160,10 H 384.449"
         style="fill:none;stroke:#ffa500;stroke-width:10;stroke-linecap:butt;stroke-linejoin:miter;stroke-miterlimit:10;stroke-dasharray:none;stroke-opacity:1"
         id="path138"
         inkscape:connector-curvature="0" /><path
         d="m 4104.45,373.16 -30,420 -170,880 -170,340 -170,190 -160,130 -170,80 -170,60 -170,20 h -160 l -170,10 H 384.449"
         style="fill:none;stroke:#00ff00;stroke-width:10;stroke-linecap:butt;stroke-linejoin:miter;stroke-miterlimit:10;stroke-dasharray:none;stroke-opacity:1"
         id="path140"
         inkscape:connector-curvature="0" /><path
         d="m 4114.45,373.16 -40,500 -170,730 -170,300 -170,180 -160,120 -170,80 -170,50 -170,10 -160,10 H 384.449"
         style="fill:none;stroke:#ffc0cb;stroke-width:10;stroke-linecap:butt;stroke-linejoin:miter;stroke-miterlimit:10;stroke-dasharray:none;stroke-opacity:1"
         id="path142"
         inkscape:connector-curvature="0" /><path
         d="m 4184.45,373.16 -110,1250 -170,580 -170,260 -170,170 -160,110 -170,90 -170,50 -170,20 h -1510 l -160,10 H 384.449"
         style="fill:none;stroke:#a52a2a;stroke-width:10;stroke-linecap:butt;stroke-linejoin:miter;stroke-miterlimit:10;stroke-dasharray:none;stroke-opacity:1"
         id="path144"
         inkscape:connector-curvature="0" /><path
         d="m 4164.45,373.16 -90,1180 -170,690 -170,300 -170,180 -160,120 -170,90 -170,60 -170,40 h -500 l -170,10 H 384.449"
         style="fill:none;stroke:#f0e68c;stroke-width:10;stroke-linecap:butt;stroke-linejoin:miter;stroke-miterlimit:10;stroke-dasharray:none;stroke-opacity:1"
         id="path146"
         inkscape:connector-curvature="0" /><path
         d="m 4174.45,373.16 -100,1230 -170,610 -170,270 -170,170 -160,120 -170,90 -170,50 -170,20 h -160 l -170,10 H 384.449"
         style="fill:none;stroke:#dda0dd;stroke-width:10;stroke-linecap:butt;stroke-linejoin:miter;stroke-miterlimit:10;stroke-dasharray:none;stroke-opacity:1"
         id="path148"
         inkscape:connector-curvature="0" /><path
         d="m 4134.45,373.16 -60,740 -170,620 -170,270 -170,160 -160,120 -170,80 -170,40 -170,10 h -500 l -170,10 H 384.449"
         style="fill:none;stroke:#da70d6;stroke-width:10;stroke-linecap:butt;stroke-linejoin:miter;stroke-miterlimit:10;stroke-dasharray:none;stroke-opacity:1"
         id="path150"
         inkscape:connector-curvature="0" /><path
         d="m 4114.45,373.16 -40,730 -170,900 -170,360 -170,190 -160,130 -170,90 -170,60 -170,30 -160,10 H 384.449"
         style="fill:none;stroke:#ee82ee;stroke-width:10;stroke-linecap:butt;stroke-linejoin:miter;stroke-miterlimit:10;stroke-dasharray:none;stroke-opacity:1"
         id="path152"
         inkscape:connector-curvature="0" /><path
         d="m 4174.45,373.16 -100,910 -170,500 -170,240 -170,150 -160,110 -170,70 -170,40 -170,10 h -1510 l -160,10 H 384.449"
         style="fill:none;stroke:#b03060;stroke-width:10;stroke-linecap:butt;stroke-linejoin:miter;stroke-miterlimit:10;stroke-dasharray:none;stroke-opacity:1"
         id="path154"
         inkscape:connector-curvature="0" /><path
         d="m 4144.45,373.16 -70,900 -170,680 -170,300 -170,170 -160,120 -170,90 -170,50 -170,30 h -1170 l -170,10 H 384.449"
         style="fill:none;stroke:#40e0d0;stroke-width:10;stroke-linecap:butt;stroke-linejoin:miter;stroke-miterlimit:10;stroke-dasharray:none;stroke-opacity:1"
         id="path156"
         inkscape:connector-curvature="0" /><path
         d="m 4064.45,373.16 -160,1010 -170,410 -170,200 -160,130 -170,80 -170,50 -170,10 -160,10 H 884.449 l -170,10 h -330"
         style="fill:none;stroke:#a0522d;stroke-width:10;stroke-linecap:butt;stroke-linejoin:miter;stroke-miterlimit:10;stroke-dasharray:none;stroke-opacity:1"
         id="path158"
         inkscape:connector-curvature="0" /><path
         d="m 4084.45,373.16 -10,180 -170,910 -170,360 -170,190 -160,120 -170,80 -170,50 -170,20 h -1340 l -170,10 H 384.449"
         style="fill:none;stroke:#ff7f50;stroke-width:10;stroke-linecap:butt;stroke-linejoin:miter;stroke-miterlimit:10;stroke-dasharray:none;stroke-opacity:1"
         id="path160"
         inkscape:connector-curvature="0" /><path
         d="m 4134.45,373.16 -60,850 -170,670 -170,290 -170,170 -160,120 -170,80 -170,60 -170,10 -160,10 H 884.449 l -170,10 h -330"
         style="fill:none;stroke:#00ffff;stroke-width:10;stroke-linecap:butt;stroke-linejoin:miter;stroke-miterlimit:10;stroke-dasharray:none;stroke-opacity:1"
         id="path162"
         inkscape:connector-curvature="0" /><path
         d="m 4044.45,373.16 -140,930 -170,420 -170,210 -160,130 -170,80 -170,50 -170,20 h -160 l -170,10 H 384.449"
         style="fill:none;stroke:#ff00ff;stroke-width:10;stroke-linecap:butt;stroke-linejoin:miter;stroke-miterlimit:10;stroke-dasharray:none;stroke-opacity:1"
         id="path164"
         inkscape:connector-curvature="0" /><path
         d="m 4164.45,373.16 -90,970 -170,560 -170,260 -170,170 -160,110 -170,90 -170,50 -170,20 h -160 l -170,10 H 384.449"
         style="fill:none;stroke:#606060;stroke-width:10;stroke-linecap:butt;stroke-linejoin:miter;stroke-miterlimit:10;stroke-dasharray:none;stroke-opacity:1"
         id="path166"
         inkscape:connector-curvature="0" /><path
         d="m 4154.45,373.16 -80,1050 -170,680 -170,290 -170,180 -160,120 -170,80 -170,60 -170,20 h -160 l -170,10 H 384.449"
         style="fill:none;stroke:#969696;stroke-width:10;stroke-linecap:butt;stroke-linejoin:miter;stroke-miterlimit:10;stroke-dasharray:none;stroke-opacity:1"
         id="path168"
         inkscape:connector-curvature="0" /><path
         d="m 4094.45,373.16 -20,310 -170,970 -170,360 -170,200 -160,130 -170,90 -170,50 -170,30 h -160 l -170,10 H 384.449"
         style="fill:none;stroke:#808080;stroke-width:10;stroke-linecap:butt;stroke-linejoin:miter;stroke-miterlimit:10;stroke-dasharray:none;stroke-opacity:1"
         id="path170"
         inkscape:connector-curvature="0" /><path
         d="m 4194.45,373.16 -120,1320 -170,560 -170,260 -170,160 -160,120 -170,90 -170,50 -170,20 h -330 l -170,10 H 384.449"
         style="fill:none;stroke:#ff0000;stroke-width:10;stroke-linecap:butt;stroke-linejoin:miter;stroke-miterlimit:10;stroke-dasharray:none;stroke-opacity:1"
         id="path172"
         inkscape:connector-curvature="0" /><path
         d="m 4124.45,373.16 -50,830 -170,860 -170,340 -170,190 -160,120 -170,90 -170,50 -170,20 h -160 l -170,10 H 384.449"
         style="fill:none;stroke:#0000ff;stroke-width:10;stroke-linecap:butt;stroke-linejoin:miter;stroke-miterlimit:10;stroke-dasharray:none;stroke-opacity:1"
         id="path174"
         inkscape:connector-curvature="0" /><path
         d="m 4134.45,373.16 -60,760 -170,610 -170,270 -170,170 -160,110 -170,80 -170,40 -170,10 -160,10 H 384.449"
         style="fill:none;stroke:#ffa500;stroke-width:10;stroke-linecap:butt;stroke-linejoin:miter;stroke-miterlimit:10;stroke-dasharray:none;stroke-opacity:1"
         id="path176"
         inkscape:connector-curvature="0" /><path
         d="m 4204.45,373.16 -130,1260 -170,530 -170,250 -170,150 -160,120 -170,80 -170,50 -170,10 h -160 l -170,10 H 384.449"
         style="fill:none;stroke:#00ff00;stroke-width:10;stroke-linecap:butt;stroke-linejoin:miter;stroke-miterlimit:10;stroke-dasharray:none;stroke-opacity:1"
         id="path178"
         inkscape:connector-curvature="0" /><path
         d="m 4104.45,373.16 -30,530 -170,820 -170,320 -170,180 -160,120 -170,90 -170,50 -170,20 h -1510 l -160,10 H 384.449"
         style="fill:none;stroke:#ffc0cb;stroke-width:10;stroke-linecap:butt;stroke-linejoin:miter;stroke-miterlimit:10;stroke-dasharray:none;stroke-opacity:1"
         id="path180"
         inkscape:connector-curvature="0" /><path
         d="m 4084.45,373.16 -10,190 -170,1050 -170,400 -170,200 -160,130 -170,80 -170,60 -170,30 h -670 l -170,10 H 384.449"
         style="fill:none;stroke:#a52a2a;stroke-width:10;stroke-linecap:butt;stroke-linejoin:miter;stroke-miterlimit:10;stroke-dasharray:none;stroke-opacity:1"
         id="path182"
         inkscape:connector-curvature="0" /><path
         d="m 4164.45,373.16 -90,1050 -170,620 -170,270 -170,170 -160,120 -170,90 -170,50 -170,20 -160,10 h -1510 l -170,10 H 384.449"
         style="fill:none;stroke:#f0e68c;stroke-width:10;stroke-linecap:butt;stroke-linejoin:miter;stroke-miterlimit:10;stroke-dasharray:none;stroke-opacity:1"
         id="path184"
         inkscape:connector-curvature="0" /><path
         d="m 4104.45,373.16 -30,500 -170,900 -170,350 -170,200 -160,120 -170,90 -170,60 -170,30 h -330 l -170,10 H 384.449"
         style="fill:none;stroke:#dda0dd;stroke-width:10;stroke-linecap:butt;stroke-linejoin:miter;stroke-miterlimit:10;stroke-dasharray:none;stroke-opacity:1"
         id="path186"
         inkscape:connector-curvature="0" /><path
         d="m 4134.45,373.16 -60,860 -170,720 -170,300 -170,180 -160,120 -170,80 -170,50 -170,20 h -500 l -170,10 H 384.449"
         style="fill:none;stroke:#da70d6;stroke-width:10;stroke-linecap:butt;stroke-linejoin:miter;stroke-miterlimit:10;stroke-dasharray:none;stroke-opacity:1"
         id="path188"
         inkscape:connector-curvature="0" /><path
         d="m 4174.45,373.16 -100,1030 -170,560 -170,260 -170,160 -160,120 -170,80 -170,50 -170,10 -160,10 H 384.449"
         style="fill:none;stroke:#ee82ee;stroke-width:10;stroke-linecap:butt;stroke-linejoin:miter;stroke-miterlimit:10;stroke-dasharray:none;stroke-opacity:1"
         id="path190"
         inkscape:connector-curvature="0" /><path
         d="m 4114.45,373.16 -40,620 -170,820 -170,320 -170,190 -160,120 -170,90 -170,60 -170,20 -160,10 H 714.449 l -160,10 h -170"
         style="fill:none;stroke:#b03060;stroke-width:10;stroke-linecap:butt;stroke-linejoin:miter;stroke-miterlimit:10;stroke-dasharray:none;stroke-opacity:1"
         id="path192"
         inkscape:connector-curvature="0" /><path
         d="m 4174.45,373.16 -100,1230 -170,600 -170,270 -170,170 -160,120 -170,90 -170,60 -170,20 h -670 l -170,10 H 384.449"
         style="fill:none;stroke:#40e0d0;stroke-width:10;stroke-linecap:butt;stroke-linejoin:miter;stroke-miterlimit:10;stroke-dasharray:none;stroke-opacity:1"
         id="path194"
         inkscape:connector-curvature="0" /><path
         d="m 4234.45,373.16 -160,1600 -170,520 -170,250 -170,160 -160,120 -170,90 -170,50 -170,20 h -1170 l -170,10 H 384.449"
         style="fill:none;stroke:#a0522d;stroke-width:10;stroke-linecap:butt;stroke-linejoin:miter;stroke-miterlimit:10;stroke-dasharray:none;stroke-opacity:1"
         id="path196"
         inkscape:connector-curvature="0" /><path
         d="m 4114.45,373.16 -40,610 -170,760 -170,320 -170,170 -160,120 -170,80 -170,50 -170,20 h -500 l -170,10 H 384.449"
         style="fill:none;stroke:#ff7f50;stroke-width:10;stroke-linecap:butt;stroke-linejoin:miter;stroke-miterlimit:10;stroke-dasharray:none;stroke-opacity:1"
         id="path198"
         inkscape:connector-curvature="0" /><path
         d="m 4154.45,373.16 -80,1030 -170,650 -170,280 -170,170 -160,120 -170,80 -170,60 -170,20 h -840 l -160,10 H 384.449"
         style="fill:none;stroke:#00ffff;stroke-width:10;stroke-linecap:butt;stroke-linejoin:miter;stroke-miterlimit:10;stroke-dasharray:none;stroke-opacity:1"
         id="path200"
         inkscape:connector-curvature="0" /><path
         d="m 4154.45,373.16 -80,900 -170,600 -170,270 -170,170 -160,110 -170,80 -170,40 -170,10 h -160 l -170,10 H 384.449"
         style="fill:none;stroke:#ff00ff;stroke-width:10;stroke-linecap:butt;stroke-linejoin:miter;stroke-miterlimit:10;stroke-dasharray:none;stroke-opacity:1"
         id="path202"
         inkscape:connector-curvature="0" /><path
         d="m 4154.45,373.16 -80,980 -170,650 -170,290 -170,170 -160,120 -170,80 -170,50 -170,20 h -160 l -170,10 H 384.449"
         style="fill:none;stroke:#606060;stroke-width:10;stroke-linecap:butt;stroke-linejoin:miter;stroke-miterlimit:10;stroke-dasharray:none;stroke-opacity:1"
         id="path204"
         inkscape:connector-curvature="0" /><path
         d="m 4134.45,373.16 -60,830 -170,710 -170,300 -170,170 -160,120 -170,90 -170,60 -170,20 h -160 l -170,10 H 384.449"
         style="fill:none;stroke:#969696;stroke-width:10;stroke-linecap:butt;stroke-linejoin:miter;stroke-miterlimit:10;stroke-dasharray:none;stroke-opacity:1"
         id="path206"
         inkscape:connector-curvature="0" /><path
         d="m 4084.45,373.16 -10,120 -170,1010 -170,380 -170,200 -160,130 -170,80 -170,50 -170,20 h -160 l -170,10 H 384.449"
         style="fill:none;stroke:#808080;stroke-width:10;stroke-linecap:butt;stroke-linejoin:miter;stroke-miterlimit:10;stroke-dasharray:none;stroke-opacity:1"
         id="path208"
         inkscape:connector-curvature="0" /><path
         d="m 4194.45,373.16 -120,1240 -170,550 -170,260 -170,170 -160,110 -170,90 -170,60 -170,20 h -160 l -170,10 H 384.449"
         style="fill:none;stroke:#ff0000;stroke-width:10;stroke-linecap:butt;stroke-linejoin:miter;stroke-miterlimit:10;stroke-dasharray:none;stroke-opacity:1"
         id="path210"
         inkscape:connector-curvature="0" /><path
         d="m 4134.45,373.16 -60,780 -170,710 -170,300 -170,170 -160,120 -170,80 -170,60 -170,20 h -1510 l -160,10 H 384.449"
         style="fill:none;stroke:#0000ff;stroke-width:10;stroke-linecap:butt;stroke-linejoin:miter;stroke-miterlimit:10;stroke-dasharray:none;stroke-opacity:1"
         id="path212"
         inkscape:connector-curvature="0" /><path
         d="m 4114.45,373.16 -40,640 -170,850 -170,330 -170,190 -160,120 -170,90 -170,50 -170,20 -160,10 H 714.449 l -160,10 h -170"
         style="fill:none;stroke:#ffa500;stroke-width:10;stroke-linecap:butt;stroke-linejoin:miter;stroke-miterlimit:10;stroke-dasharray:none;stroke-opacity:1"
         id="path214"
         inkscape:connector-curvature="0" /><path
         d="m 4134.45,373.16 -60,760 -170,650 -170,280 -170,170 -160,110 -170,80 -170,40 -170,10 h -160 l -170,10 H 384.449"
         style="fill:none;stroke:#00ff00;stroke-width:10;stroke-linecap:butt;stroke-linejoin:miter;stroke-miterlimit:10;stroke-dasharray:none;stroke-opacity:1"
         id="path216"
         inkscape:connector-curvature="0" /><path
         d="m 4094.45,373.16 -20,410 -170,940 -170,360 -170,190 -160,130 -170,80 -170,60 -170,20 h -330 l -170,10 H 384.449"
         style="fill:none;stroke:#ffc0cb;stroke-width:10;stroke-linecap:butt;stroke-linejoin:miter;stroke-miterlimit:10;stroke-dasharray:none;stroke-opacity:1"
         id="path218"
         inkscape:connector-curvature="0" /><path
         d="m 4114.45,373.16 -40,550 -170,670 -170,290 -170,170 -160,110 -170,80 -170,40 -170,10 h -840 l -160,10 H 384.449"
         style="fill:none;stroke:#a52a2a;stroke-width:10;stroke-linecap:butt;stroke-linejoin:miter;stroke-miterlimit:10;stroke-dasharray:none;stroke-opacity:1"
         id="path220"
         inkscape:connector-curvature="0" /><path
         d="m 4154.45,373.16 -80,990 -170,620 -170,280 -170,170 -160,120 -170,80 -170,60 -170,20 h -500 l -170,10 H 384.449"
         style="fill:none;stroke:#f0e68c;stroke-width:10;stroke-linecap:butt;stroke-linejoin:miter;stroke-miterlimit:10;stroke-dasharray:none;stroke-opacity:1"
         id="path222"
         inkscape:connector-curvature="0" /><path
         d="m 4084.45,373.16 -10,60 -170,1120 -170,410 -170,210 -160,130 -170,90 -170,60 -170,20 -160,10 h -510 l -170,10 H 384.449"
         style="fill:none;stroke:#dda0dd;stroke-width:10;stroke-linecap:butt;stroke-linejoin:miter;stroke-miterlimit:10;stroke-dasharray:none;stroke-opacity:1"
         id="path224"
         inkscape:connector-curvature="0" /><path
         d="m 4084.45,373.16 -10,140 -170,1000 -170,370 -170,200 -160,120 -170,80 -170,50 -170,20 h -160 l -170,10 H 384.449"
         style="fill:none;stroke:#da70d6;stroke-width:10;stroke-linecap:butt;stroke-linejoin:miter;stroke-miterlimit:10;stroke-dasharray:none;stroke-opacity:1"
         id="path226"
         inkscape:connector-curvature="0" /><path
         d="m 4104.45,373.16 -30,390 -170,810 -170,320 -170,180 -160,120 -170,80 -170,40 -170,10 -160,10 H 384.449"
         style="fill:none;stroke:#ee82ee;stroke-width:10;stroke-linecap:butt;stroke-linejoin:miter;stroke-miterlimit:10;stroke-dasharray:none;stroke-opacity:1"
         id="path228"
         inkscape:connector-curvature="0" /><path
         d="m 4144.45,373.16 -70,860 -170,610 -170,270 -170,170 -160,110 -170,80 -170,40 -170,20 h -1510 l -160,10 H 384.449"
         style="fill:none;stroke:#b03060;stroke-width:10;stroke-linecap:butt;stroke-linejoin:miter;stroke-miterlimit:10;stroke-dasharray:none;stroke-opacity:1"
         id="path230"
         inkscape:connector-curvature="0" /><path
         d="m 3964.45,373.16 -60,660 -170,630 -170,280 -160,150 -170,100 -170,70 -170,40 -160,10 H 884.449 l -170,10 h -330"
         style="fill:none;stroke:#40e0d0;stroke-width:10;stroke-linecap:butt;stroke-linejoin:miter;stroke-miterlimit:10;stroke-dasharray:none;stroke-opacity:1"
         id="path232"
         inkscape:connector-curvature="0" /><path
         d="m 4134.45,373.16 -60,950 -170,740 -170,310 -170,180 -160,120 -170,80 -170,60 -170,10 -160,10 h -1510 l -170,10 H 384.449"
         style="fill:none;stroke:#a0522d;stroke-width:10;stroke-linecap:butt;stroke-linejoin:miter;stroke-miterlimit:10;stroke-dasharray:none;stroke-opacity:1"
         id="path234"
         inkscape:connector-curvature="0" /><path
         d="m 4144.45,373.16 -70,950 -170,670 -170,290 -170,170 -160,120 -170,90 -170,50 -170,20 h -160 l -170,10 H 384.449"
         style="fill:none;stroke:#ff7f50;stroke-width:10;stroke-linecap:butt;stroke-linejoin:miter;stroke-miterlimit:10;stroke-dasharray:none;stroke-opacity:1"
         id="path236"
         inkscape:connector-curvature="0" /><path
         d="m 4104.45,373.16 -30,540 -170,840 -170,330 -170,180 -160,130 -170,90 -170,60 -170,20 -160,10 h -1180 l -170,10 H 384.449"
         style="fill:none;stroke:#00ffff;stroke-width:10;stroke-linecap:butt;stroke-linejoin:miter;stroke-miterlimit:10;stroke-dasharray:none;stroke-opacity:1"
         id="path238"
         inkscape:connector-curvature="0" /><path
         d="m 4084.45,373.16 -10,160 -170,1010 -170,380 -170,200 -160,120 -170,90 -170,50 -170,10 -160,10 h -1680 l -170.001,10 h -500"
         style="fill:none;stroke:#ff00ff;stroke-width:10;stroke-linecap:butt;stroke-linejoin:miter;stroke-miterlimit:10;stroke-dasharray:none;stroke-opacity:1"
         id="path240"
         inkscape:connector-curvature="0" /><path
         d="m 4184.45,373.16 -110,1210 -170,560 -170,260 -170,170 -160,120 -170,90 -170,60 -170,20 h -160 l -170,10 H 384.449"
         style="fill:none;stroke:#606060;stroke-width:10;stroke-linecap:butt;stroke-linejoin:miter;stroke-miterlimit:10;stroke-dasharray:none;stroke-opacity:1"
         id="path242"
         inkscape:connector-curvature="0" /><path
         d="m 4134.45,373.16 -60,820 -170,740 -170,310 -170,170 -160,120 -170,90 -170,50 -170,20 -160,10 H 384.449"
         style="fill:none;stroke:#969696;stroke-width:10;stroke-linecap:butt;stroke-linejoin:miter;stroke-miterlimit:10;stroke-dasharray:none;stroke-opacity:1"
         id="path244"
         inkscape:connector-curvature="0" /><path
         d="m 4134.45,373.16 -60,840 -170,710 -170,310 -170,170 -160,120 -170,80 -170,50 -170,20 h -1170 l -170,10 H 384.449"
         style="fill:none;stroke:#808080;stroke-width:10;stroke-linecap:butt;stroke-linejoin:miter;stroke-miterlimit:10;stroke-dasharray:none;stroke-opacity:1"
         id="path246"
         inkscape:connector-curvature="0" /><path
         d="m 4134.45,373.16 -60,720 -170,670 -170,280 -170,170 -160,120 -170,80 -170,40 -170,10 -160,10 H 554.449 l -170,10"
         style="fill:none;stroke:#ff0000;stroke-width:10;stroke-linecap:butt;stroke-linejoin:miter;stroke-miterlimit:10;stroke-dasharray:none;stroke-opacity:1"
         id="path248"
         inkscape:connector-curvature="0" /><path
         d="m 4144.45,373.16 -70,790 -170,610 -170,280 -170,160 -160,120 -170,80 -170,50 -170,20 h -330 l -170,10 H 384.449"
         style="fill:none;stroke:#0000ff;stroke-width:10;stroke-linecap:butt;stroke-linejoin:miter;stroke-miterlimit:10;stroke-dasharray:none;stroke-opacity:1"
         id="path250"
         inkscape:connector-curvature="0" /><path
         d="m 4124.45,373.16 -50,700 -170,730 -170,310 -170,170 -160,130 -170,80 -170,60 -170,20 h -500 l -170,10 H 384.449"
         style="fill:none;stroke:#ffa500;stroke-width:10;stroke-linecap:butt;stroke-linejoin:miter;stroke-miterlimit:10;stroke-dasharray:none;stroke-opacity:1"
         id="path252"
         inkscape:connector-curvature="0" /><path
         d="m 4164.45,373.16 -90,1030 -170,610 -170,280 -170,160 -160,120 -170,80 -170,40 -170,20 h -500 l -170,10 H 384.449"
         style="fill:none;stroke:#00ff00;stroke-width:10;stroke-linecap:butt;stroke-linejoin:miter;stroke-miterlimit:10;stroke-dasharray:none;stroke-opacity:1"
         id="path254"
         inkscape:connector-curvature="0" /><path
         d="m 4144.45,373.16 -70,990 -170,700 -170,300 -170,170 -160,120 -170,90 -170,50 -170,20 h -160 l -170,10 H 384.449"
         style="fill:none;stroke:#ffc0cb;stroke-width:10;stroke-linecap:butt;stroke-linejoin:miter;stroke-miterlimit:10;stroke-dasharray:none;stroke-opacity:1"
         id="path256"
         inkscape:connector-curvature="0" /><path
         d="m 4194.45,373.16 -120,1180 -170,530 -170,250 -170,160 -160,120 -170,90 -170,50 -170,20 -160,10 H 554.449 l -170,10"
         style="fill:none;stroke:#a52a2a;stroke-width:10;stroke-linecap:butt;stroke-linejoin:miter;stroke-miterlimit:10;stroke-dasharray:none;stroke-opacity:1"
         id="path258"
         inkscape:connector-curvature="0" /><path
         d="m 4134.45,373.16 -60,850 -170,690 -170,290 -170,170 -160,120 -170,80 -170,40 -170,20 h -1170 l -170,10 H 384.449"
         style="fill:none;stroke:#f0e68c;stroke-width:10;stroke-linecap:butt;stroke-linejoin:miter;stroke-miterlimit:10;stroke-dasharray:none;stroke-opacity:1"
         id="path260"
         inkscape:connector-curvature="0" /><path
         d="m 4144.45,373.16 -70,870 -170,650 -170,290 -170,170 -160,120 -170,90 -170,60 -170,20 -160,10 h -1180 l -170,10 H 384.449"
         style="fill:none;stroke:#dda0dd;stroke-width:10;stroke-linecap:butt;stroke-linejoin:miter;stroke-miterlimit:10;stroke-dasharray:none;stroke-opacity:1"
         id="path262"
         inkscape:connector-curvature="0" /><path
         d="m 4034.45,373.16 -130,960 -170,450 -170,220 -160,130 -170,90 -170,50 -170,20 -160,10 H 554.449 l -170,10"
         style="fill:none;stroke:#da70d6;stroke-width:10;stroke-linecap:butt;stroke-linejoin:miter;stroke-miterlimit:10;stroke-dasharray:none;stroke-opacity:1"
         id="path264"
         inkscape:connector-curvature="0" /><path
         d="m 4144.45,373.16 -70,900 -170,690 -170,300 -170,170 -160,120 -170,90 -170,50 -170,30 h -1340 l -170,10 H 384.449"
         style="fill:none;stroke:#ee82ee;stroke-width:10;stroke-linecap:butt;stroke-linejoin:miter;stroke-miterlimit:10;stroke-dasharray:none;stroke-opacity:1"
         id="path266"
         inkscape:connector-curvature="0" /><path
         d="m 4114.45,373.16 -40,590 -170,720 -170,310 -170,170 -160,120 -170,80 -170,50 -170,20 h -1340 l -170,10 H 384.449"
         style="fill:none;stroke:#b03060;stroke-width:10;stroke-linecap:butt;stroke-linejoin:miter;stroke-miterlimit:10;stroke-dasharray:none;stroke-opacity:1"
         id="path268"
         inkscape:connector-curvature="0" /><path
         d="m 4144.45,373.16 -70,1060 -170,750 -170,320 -170,170 -160,130 -170,80 -170,60 -170,20 h -160 l -170,10 H 384.449"
         style="fill:none;stroke:#40e0d0;stroke-width:10;stroke-linecap:butt;stroke-linejoin:miter;stroke-miterlimit:10;stroke-dasharray:none;stroke-opacity:1"
         id="path270"
         inkscape:connector-curvature="0" /><path
         d="m 4144.45,373.16 -70,960 -170,720 -170,300 -170,180 -160,120 -170,80 -170,60 -170,20 h -500 l -170,10 H 384.449"
         style="fill:none;stroke:#a0522d;stroke-width:10;stroke-linecap:butt;stroke-linejoin:miter;stroke-miterlimit:10;stroke-dasharray:none;stroke-opacity:1"
         id="path272"
         inkscape:connector-curvature="0" /><path
         d="m 4134.45,373.16 -60,750 -170,670 -170,290 -170,170 -160,120 -170,80 -170,50 -170,10 -160,10 H 384.449"
         style="fill:none;stroke:#ff7f50;stroke-width:10;stroke-linecap:butt;stroke-linejoin:miter;stroke-miterlimit:10;stroke-dasharray:none;stroke-opacity:1"
         id="path274"
         inkscape:connector-curvature="0" /><path
         d="m 4144.45,373.16 -70,810 -170,580 -170,270 -170,160 -160,110 -170,80 -170,40 -170,10 h -670 l -170,10 H 384.449"
         style="fill:none;stroke:#00ffff;stroke-width:10;stroke-linecap:butt;stroke-linejoin:miter;stroke-miterlimit:10;stroke-dasharray:none;stroke-opacity:1"
         id="path276"
         inkscape:connector-curvature="0" /><path
         d="m 4154.45,373.16 -80,880 -170,600 -170,270 -170,160 -160,110 -170,80 -170,40 -170,10 -160,10 H 384.449"
         style="fill:none;stroke:#ff00ff;stroke-width:10;stroke-linecap:butt;stroke-linejoin:miter;stroke-miterlimit:10;stroke-dasharray:none;stroke-opacity:1"
         id="path278"
         inkscape:connector-curvature="0" /><path
         d="m 4154.45,373.16 -80,800 -170,540 -170,250 -170,160 -160,110 -170,70 -170,30 -170,10 H 554.449 l -170,10"
         style="fill:none;stroke:#606060;stroke-width:10;stroke-linecap:butt;stroke-linejoin:miter;stroke-miterlimit:10;stroke-dasharray:none;stroke-opacity:1"
         id="path280"
         inkscape:connector-curvature="0" /><path
         d="m 4104.45,373.16 -30,370 -170,810 -170,320 -170,180 -160,120 -170,80 -170,50 -170,20 h -670 l -170,10 H 384.449"
         style="fill:none;stroke:#969696;stroke-width:10;stroke-linecap:butt;stroke-linejoin:miter;stroke-miterlimit:10;stroke-dasharray:none;stroke-opacity:1"
         id="path282"
         inkscape:connector-curvature="0" /><path
         d="m 4234.45,373.16 -160,1680 -170,550 -170,260 -170,160 -160,120 -170,90 -170,60 -170,20 h -500 l -170,10 H 384.449"
         style="fill:none;stroke:#808080;stroke-width:10;stroke-linecap:butt;stroke-linejoin:miter;stroke-miterlimit:10;stroke-dasharray:none;stroke-opacity:1"
         id="path284"
         inkscape:connector-curvature="0" /><path
         d="m 4114.45,373.16 -40,610 -170,800 -170,330 -170,180 -160,120 -170,90 -170,60 -170,20 h -160 l -170,10 H 384.449"
         style="fill:none;stroke:#ff0000;stroke-width:10;stroke-linecap:butt;stroke-linejoin:miter;stroke-miterlimit:10;stroke-dasharray:none;stroke-opacity:1"
         id="path286"
         inkscape:connector-curvature="0" /><path
         d="m 4134.45,373.16 -60,810 -170,660 -170,290 -170,170 -160,120 -170,80 -170,50 -170,10 -160,10 H 714.449 l -160,10 h -170"
         style="fill:none;stroke:#0000ff;stroke-width:10;stroke-linecap:butt;stroke-linejoin:miter;stroke-miterlimit:10;stroke-dasharray:none;stroke-opacity:1"
         id="path288"
         inkscape:connector-curvature="0" /><path
         d="m 4084.45,373.16 -10,150 -170,940 -170,360 -170,190 -160,120 -170,80 -170,40 -170,10 h -160 l -170,10 H 384.449"
         style="fill:none;stroke:#ffa500;stroke-width:10;stroke-linecap:butt;stroke-linejoin:miter;stroke-miterlimit:10;stroke-dasharray:none;stroke-opacity:1"
         id="path290"
         inkscape:connector-curvature="0" /><path
         d="m 4124.45,373.16 -50,750 -170,770 -170,320 -170,170 -160,120 -170,90 -170,50 -170,10 -160,10 H 384.449"
         style="fill:none;stroke:#00ff00;stroke-width:10;stroke-linecap:butt;stroke-linejoin:miter;stroke-miterlimit:10;stroke-dasharray:none;stroke-opacity:1"
         id="path292"
         inkscape:connector-curvature="0" /><path
         d="m 4154.45,373.16 -80,870 -170,550 -170,250 -170,160 -160,110 -170,80 -170,40 -170,10 h -670 l -170,10 H 384.449"
         style="fill:none;stroke:#ffc0cb;stroke-width:10;stroke-linecap:butt;stroke-linejoin:miter;stroke-miterlimit:10;stroke-dasharray:none;stroke-opacity:1"
         id="path294"
         inkscape:connector-curvature="0" /><path
         d="m 4094.45,373.16 -20,350 -170,1040 -170,390 -170,200 -160,130 -170,80 -170,60 -170,20 -160,10 H 384.449"
         style="fill:none;stroke:#a52a2a;stroke-width:10;stroke-linecap:butt;stroke-linejoin:miter;stroke-miterlimit:10;stroke-dasharray:none;stroke-opacity:1"
         id="path296"
         inkscape:connector-curvature="0" /><path
         d="m 4084.45,373.16 -10,150 -170,930 -170,360 -170,190 -160,110 -170,80 -170,40 -170,10 H 884.449 l -170,10 h -330"
         style="fill:none;stroke:#f0e68c;stroke-width:10;stroke-linecap:butt;stroke-linejoin:miter;stroke-miterlimit:10;stroke-dasharray:none;stroke-opacity:1"
         id="path298"
         inkscape:connector-curvature="0" /><path
         d="m 4074.45,373.16 -170,1170 -170,430 -170,220 -160,130 -170,90 -170,60 -170,20 -160,10 h -1680 l -170.001,10 h -500"
         style="fill:none;stroke:#dda0dd;stroke-width:10;stroke-linecap:butt;stroke-linejoin:miter;stroke-miterlimit:10;stroke-dasharray:none;stroke-opacity:1"
         id="path300"
         inkscape:connector-curvature="0" /><path
         d="m 4114.45,373.16 -40,680 -170,790 -170,320 -170,180 -160,130 -170,90 -170,50 -170,30 h -330 l -170,10 H 384.449"
         style="fill:none;stroke:#da70d6;stroke-width:10;stroke-linecap:butt;stroke-linejoin:miter;stroke-miterlimit:10;stroke-dasharray:none;stroke-opacity:1"
         id="path302"
         inkscape:connector-curvature="0" /><path
         d="m 4154.45,373.16 -80,1080 -170,670 -170,290 -170,170 -160,120 -170,90 -170,60 -170,20 -160,10 H 554.449 l -170,10"
         style="fill:none;stroke:#ee82ee;stroke-width:10;stroke-linecap:butt;stroke-linejoin:miter;stroke-miterlimit:10;stroke-dasharray:none;stroke-opacity:1"
         id="path304"
         inkscape:connector-curvature="0" /><path
         d="m 4124.45,373.16 -50,720 -170,820 -170,330 -170,180 -160,130 -170,80 -170,60 -170,20 h -1170 l -170,10 H 384.449"
         style="fill:none;stroke:#b03060;stroke-width:10;stroke-linecap:butt;stroke-linejoin:miter;stroke-miterlimit:10;stroke-dasharray:none;stroke-opacity:1"
         id="path306"
         inkscape:connector-curvature="0" /><path
         d="m 4014.45,373.16 -110,890 -170,510 -170,240 -160,140 -170,90 -170,50 -170,20 -160,10 h -1350 l -160,10 H 384.449"
         style="fill:none;stroke:#40e0d0;stroke-width:10;stroke-linecap:butt;stroke-linejoin:miter;stroke-miterlimit:10;stroke-dasharray:none;stroke-opacity:1"
         id="path308"
         inkscape:connector-curvature="0" /><path
         d="m 4114.45,373.16 -40,570 -170,770 -170,320 -170,170 -160,120 -170,90 -170,50 -170,20 h -1340 l -170,10 H 384.449"
         style="fill:none;stroke:#a0522d;stroke-width:10;stroke-linecap:butt;stroke-linejoin:miter;stroke-miterlimit:10;stroke-dasharray:none;stroke-opacity:1"
         id="path310"
         inkscape:connector-curvature="0" /><path
         d="m 4104.45,373.16 -30,460 -170,840 -170,330 -170,180 -160,120 -170,80 -170,50 -170,20 h -1510 l -160,10 H 384.449"
         style="fill:none;stroke:#ff7f50;stroke-width:10;stroke-linecap:butt;stroke-linejoin:miter;stroke-miterlimit:10;stroke-dasharray:none;stroke-opacity:1"
         id="path312"
         inkscape:connector-curvature="0" /><path
         d="m 4094.45,373.16 -20,360 -170,850 -170,340 -170,190 -160,120 -170,90 -170,50 -170,20 h -160 l -170,10 H 384.449"
         style="fill:none;stroke:#00ffff;stroke-width:10;stroke-linecap:butt;stroke-linejoin:miter;stroke-miterlimit:10;stroke-dasharray:none;stroke-opacity:1"
         id="path314"
         inkscape:connector-curvature="0" /><path
         d="m 4084.45,373.16 -10,150 -170,920 -170,350 -170,190 -160,120 -170,80 -170,40 -170,20 H 884.449 l -170,10 h -330"
         style="fill:none;stroke:#ff00ff;stroke-width:10;stroke-linecap:butt;stroke-linejoin:miter;stroke-miterlimit:10;stroke-dasharray:none;stroke-opacity:1"
         id="path316"
         inkscape:connector-curvature="0" /><path
         d="m 4114.45,373.16 -40,600 -170,890 -170,350 -170,190 -160,120 -170,90 -170,50 -170,20 h -160 l -170,10 H 384.449"
         style="fill:none;stroke:#606060;stroke-width:10;stroke-linecap:butt;stroke-linejoin:miter;stroke-miterlimit:10;stroke-dasharray:none;stroke-opacity:1"
         id="path318"
         inkscape:connector-curvature="0" /><path
         d="m 4104.45,373.16 -30,450 -170,900 -170,350 -170,190 -160,120 -170,90 -170,50 -170,20 h -160 l -170,10 H 384.449"
         style="fill:none;stroke:#969696;stroke-width:10;stroke-linecap:butt;stroke-linejoin:miter;stroke-miterlimit:10;stroke-dasharray:none;stroke-opacity:1"
         id="path320"
         inkscape:connector-curvature="0" /><path
         d="m 4154.45,373.16 -80,910 -170,610 -170,270 -170,170 -160,120 -170,80 -170,60 -170,20 h -1170 l -170,10 H 384.449"
         style="fill:none;stroke:#808080;stroke-width:10;stroke-linecap:butt;stroke-linejoin:miter;stroke-miterlimit:10;stroke-dasharray:none;stroke-opacity:1"
         id="path322"
         inkscape:connector-curvature="0" /><path
         d="m 4114.45,373.16 -40,550 -170,800 -170,320 -170,180 -160,120 -170,90 -170,60 -170,20 h -330 l -170,10 H 384.449"
         style="fill:none;stroke:#ff0000;stroke-width:10;stroke-linecap:butt;stroke-linejoin:miter;stroke-miterlimit:10;stroke-dasharray:none;stroke-opacity:1"
         id="path324"
         inkscape:connector-curvature="0" /><path
         d="m 4144.45,373.16 -70,980 -170,700 -170,300 -170,180 -160,120 -170,90 -170,60 -170,30 -160,10 H 384.449"
         style="fill:none;stroke:#0000ff;stroke-width:10;stroke-linecap:butt;stroke-linejoin:miter;stroke-miterlimit:10;stroke-dasharray:none;stroke-opacity:1"
         id="path326"
         inkscape:connector-curvature="0" /><path
         d="m 4074.45,373.16 -170,1090 -170,400 -170,210 -160,120 -170,90 -170,50 -170,20 h -160 l -170,10 H 384.449"
         style="fill:none;stroke:#ffa500;stroke-width:10;stroke-linecap:butt;stroke-linejoin:miter;stroke-miterlimit:10;stroke-dasharray:none;stroke-opacity:1"
         id="path328"
         inkscape:connector-curvature="0" /><path
         d="m 4174.45,373.16 -100,1280 -170,620 -170,280 -170,160 -160,130 -170,90 -170,50 -170,30 h -160 l -170,10 H 384.449"
         style="fill:none;stroke:#00ff00;stroke-width:10;stroke-linecap:butt;stroke-linejoin:miter;stroke-miterlimit:10;stroke-dasharray:none;stroke-opacity:1"
         id="path330"
         inkscape:connector-curvature="0" /><path
         d="m 4124.45,373.16 -50,800 -170,800 -170,320 -170,180 -160,120 -170,90 -170,50 -170,20 h -160 l -170,10 H 384.449"
         style="fill:none;stroke:#ffc0cb;stroke-width:10;stroke-linecap:butt;stroke-linejoin:miter;stroke-miterlimit:10;stroke-dasharray:none;stroke-opacity:1"
         id="path332"
         inkscape:connector-curvature="0" /></g></g></svg>