<?xml version="1.0" encoding="UTF-8" standalone="no"?>
<!-- Created with Inkscape (http://www.inkscape.org/) -->

<svg
   xmlns:dc="http://purl.org/dc/elements/1.1/"
   xmlns:cc="http://creativecommons.org/ns#"
   xmlns:rdf="http://www.w3.org/1999/02/22-rdf-syntax-ns#"
   xmlns:svg="http://www.w3.org/2000/svg"
   xmlns="http://www.w3.org/2000/svg"
   xmlns:sodipodi="http://sodipodi.sourceforge.net/DTD/sodipodi-0.dtd"
   xmlns:inkscape="http://www.inkscape.org/namespaces/inkscape"
   version="1.1"
   id="svg2"
   xml:space="preserve"
   width="475.77185"
   height="321.13553"
   viewBox="0 0 475.77185 321.13553"
   sodipodi:docname="dc_analysis_large_signal_id_vgs_vbs.svg"
   inkscape:version="0.92.5 (2060ec1f9f, 2020-04-08)"><metadata
     id="metadata8"><rdf:RDF><cc:Work
         rdf:about=""><dc:format>image/svg+xml</dc:format><dc:type
           rdf:resource="http://purl.org/dc/dcmitype/StillImage" /><dc:title></dc:title></cc:Work></rdf:RDF></metadata><defs
     id="defs6"><marker
       inkscape:stockid="Arrow1Send"
       orient="auto"
       refY="0"
       refX="0"
       id="Arrow1Send"
       style="overflow:visible"
       inkscape:isstock="true"><path
         id="path5011"
         d="M 0,0 5,-5 -12.5,0 5,5 Z"
         style="fill:#000000;fill-opacity:1;fill-rule:evenodd;stroke:#000000;stroke-width:1.00000003pt;stroke-opacity:1"
         transform="matrix(-0.2,0,0,-0.2,-1.2,0)"
         inkscape:connector-curvature="0" /></marker></defs><sodipodi:namedview
     pagecolor="#ffffff"
     bordercolor="#666666"
     borderopacity="1"
     objecttolerance="10"
     gridtolerance="10"
     guidetolerance="10"
     inkscape:pageopacity="0"
     inkscape:pageshadow="2"
     inkscape:window-width="1920"
     inkscape:window-height="1031"
     id="namedview4"
     showgrid="false"
     fit-margin-top="0"
     fit-margin-left="0"
     fit-margin-right="0"
     fit-margin-bottom="0"
     inkscape:zoom="2.6333333"
     inkscape:cx="240.51791"
     inkscape:cy="201.29793"
     inkscape:window-x="0"
     inkscape:window-y="0"
     inkscape:window-maximized="1"
     inkscape:current-layer="g12" /><g
     id="g10"
     inkscape:groupmode="layer"
     inkscape:label="ink_ext_XXXXXX"
     transform="matrix(1.3333333,0,0,-1.3333333,4.644221,313.61689)"><g
       id="g12"
       transform="scale(0.1)"><path
         d="M 343.04146,320.61697 H 3525.4586"
         style="fill:none;stroke:#d1d1d1;stroke-width:7.5;stroke-linecap:butt;stroke-linejoin:miter;stroke-miterlimit:3.79999995;stroke-dasharray:7.50000019, 7.50000019;stroke-dashoffset:0;stroke-opacity:1"
         id="path14"
         inkscape:connector-curvature="0" /><path
         d="m 343.04146,320.61697 h 32.02241 m 3150.39473,0 h -32.0224"
         style="fill:none;stroke:#000000;stroke-width:15.99750042;stroke-linecap:butt;stroke-linejoin:miter;stroke-miterlimit:3.79999995;stroke-dasharray:none;stroke-opacity:1"
         id="path16"
         inkscape:connector-curvature="0" /><g
         id="g18"
         transform="matrix(13.566641,0,0,13.566641,-104.2686,-107.9149)"><text
           transform="matrix(1,0,0,-1,26.2082,29.6)"
           style="font-variant:normal;font-weight:normal;font-size:7px;font-family:Helvetica;-inkscape-font-specification:Helvetica;writing-mode:lr-tb;fill:#000000;fill-opacity:1;fill-rule:nonzero;stroke:none"
           id="text22"><tspan
             x="0"
             y="0"
             id="tspan20">0</tspan></text>
</g><path
         d="M 343.04146,541.72406 H 3525.4586"
         style="fill:none;stroke:#d1d1d1;stroke-width:7.5;stroke-linecap:butt;stroke-linejoin:miter;stroke-miterlimit:3.79999995;stroke-dasharray:7.50000019, 7.50000019;stroke-dashoffset:0;stroke-opacity:1"
         id="path24"
         inkscape:connector-curvature="0" /><path
         d="m 343.04146,541.72406 h 32.02241 m 3150.39473,0 h -32.0224"
         style="fill:none;stroke:#000000;stroke-width:15.99750042;stroke-linecap:butt;stroke-linejoin:miter;stroke-miterlimit:3.79999995;stroke-dasharray:none;stroke-opacity:1"
         id="path26"
         inkscape:connector-curvature="0" /><g
         id="g28"
         transform="matrix(13.566641,0,0,13.566641,-104.84789,-185.48935)"><text
           transform="matrix(1,0,0,-1,16.4789,51.35)"
           style="font-variant:normal;font-weight:normal;font-size:7px;font-family:Helvetica;-inkscape-font-specification:Helvetica;writing-mode:lr-tb;fill:#000000;fill-opacity:1;fill-rule:nonzero;stroke:none"
           id="text32"><tspan
             x="0 3.892 5.8379998 9.7299995"
             y="0"
             sodipodi:role="line"
             id="tspan30">0.05</tspan></text>
</g><path
         d="M 343.04146,763.33943 H 3525.4586"
         style="fill:none;stroke:#d1d1d1;stroke-width:7.5;stroke-linecap:butt;stroke-linejoin:miter;stroke-miterlimit:3.79999995;stroke-dasharray:7.50000019, 7.50000019;stroke-dashoffset:0;stroke-opacity:1"
         id="path34"
         inkscape:connector-curvature="0" /><path
         d="m 343.04146,763.33943 h 32.02241 m 3150.39473,0 h -32.0224"
         style="fill:none;stroke:#000000;stroke-width:15.99750042;stroke-linecap:butt;stroke-linejoin:miter;stroke-miterlimit:3.79999995;stroke-dasharray:none;stroke-opacity:1"
         id="path36"
         inkscape:connector-curvature="0" /><g
         id="g38"
         transform="matrix(13.566641,0,0,13.566641,-89.080744,-263.24213)"><text
           transform="matrix(1,0,0,-1,20.3707,73.15)"
           style="font-variant:normal;font-weight:normal;font-size:7px;font-family:Helvetica;-inkscape-font-specification:Helvetica;writing-mode:lr-tb;fill:#000000;fill-opacity:1;fill-rule:nonzero;stroke:none"
           id="text42"><tspan
             x="0 3.892 5.8379998"
             y="0"
             sodipodi:role="line"
             id="tspan40">0.1</tspan></text>
</g><path
         d="M 343.04146,984.95481 H 3525.4586"
         style="fill:none;stroke:#d1d1d1;stroke-width:7.5;stroke-linecap:butt;stroke-linejoin:miter;stroke-miterlimit:3.79999995;stroke-dasharray:7.50000019, 7.50000019;stroke-dashoffset:0;stroke-opacity:1"
         id="path44"
         inkscape:connector-curvature="0" /><path
         d="m 343.04146,984.95481 h 32.02241 m 3150.39473,0 h -32.0224"
         style="fill:none;stroke:#000000;stroke-width:15.99750042;stroke-linecap:butt;stroke-linejoin:miter;stroke-miterlimit:3.79999995;stroke-dasharray:none;stroke-opacity:1"
         id="path46"
         inkscape:connector-curvature="0" /><g
         id="g48"
         transform="matrix(13.566641,0,0,13.566641,-104.84789,-340.99492)"><text
           transform="matrix(1,0,0,-1,16.4789,94.95)"
           style="font-variant:normal;font-weight:normal;font-size:7px;font-family:Helvetica;-inkscape-font-specification:Helvetica;writing-mode:lr-tb;fill:#000000;fill-opacity:1;fill-rule:nonzero;stroke:none"
           id="text52"><tspan
             x="0 3.892 5.8379998 9.7299995"
             y="0"
             sodipodi:role="line"
             id="tspan50">0.15</tspan></text>
</g><path
         d="M 343.04146,1206.0619 H 3525.4586"
         style="fill:none;stroke:#d1d1d1;stroke-width:7.5;stroke-linecap:butt;stroke-linejoin:miter;stroke-miterlimit:3.79999995;stroke-dasharray:7.50000019, 7.50000019;stroke-dashoffset:0;stroke-opacity:1"
         id="path54"
         inkscape:connector-curvature="0" /><path
         d="m 343.04146,1206.0619 h 32.02241 m 3150.39473,0 h -32.0224"
         style="fill:none;stroke:#000000;stroke-width:15.99750042;stroke-linecap:butt;stroke-linejoin:miter;stroke-miterlimit:3.79999995;stroke-dasharray:none;stroke-opacity:1"
         id="path56"
         inkscape:connector-curvature="0" /><g
         id="g58"
         transform="matrix(13.566641,0,0,13.566641,-104.65525,-418.56937)"><text
           transform="matrix(1,0,0,-1,20.3707,116.7)"
           style="font-variant:normal;font-weight:normal;font-size:7px;font-family:Helvetica;-inkscape-font-specification:Helvetica;writing-mode:lr-tb;fill:#000000;fill-opacity:1;fill-rule:nonzero;stroke:none"
           id="text62"><tspan
             x="0 3.892 5.8379998"
             y="0"
             sodipodi:role="line"
             id="tspan60">0.2</tspan></text>
</g><path
         d="M 343.04146,1427.6773 H 3525.4586"
         style="fill:none;stroke:#d1d1d1;stroke-width:7.5;stroke-linecap:butt;stroke-linejoin:miter;stroke-miterlimit:3.79999995;stroke-dasharray:7.50000019, 7.50000019;stroke-dashoffset:0;stroke-opacity:1"
         id="path64"
         inkscape:connector-curvature="0" /><path
         d="m 343.04146,1427.6773 h 32.02241 m 3150.39473,0 h -32.0224"
         style="fill:none;stroke:#000000;stroke-width:15.99750042;stroke-linecap:butt;stroke-linejoin:miter;stroke-miterlimit:3.79999995;stroke-dasharray:none;stroke-opacity:1"
         id="path66"
         inkscape:connector-curvature="0" /><g
         id="g68"
         transform="matrix(13.566641,0,0,13.566641,-104.84789,-496.32215)"><text
           transform="matrix(1,0,0,-1,16.4789,138.5)"
           style="font-variant:normal;font-weight:normal;font-size:7px;font-family:Helvetica;-inkscape-font-specification:Helvetica;writing-mode:lr-tb;fill:#000000;fill-opacity:1;fill-rule:nonzero;stroke:none"
           id="text72"><tspan
             x="0 3.892 5.8379998 9.7299995"
             y="0"
             sodipodi:role="line"
             id="tspan70">0.25</tspan></text>
</g><path
         d="M 343.04146,1649.2927 H 3525.4586"
         style="fill:none;stroke:#d1d1d1;stroke-width:7.5;stroke-linecap:butt;stroke-linejoin:miter;stroke-miterlimit:3.79999995;stroke-dasharray:7.50000019, 7.50000019;stroke-dashoffset:0;stroke-opacity:1"
         id="path74"
         inkscape:connector-curvature="0" /><path
         d="m 343.04146,1649.2927 h 32.02241 m 3150.39473,0 h -32.0224"
         style="fill:none;stroke:#000000;stroke-width:15.99750042;stroke-linecap:butt;stroke-linejoin:miter;stroke-miterlimit:3.79999995;stroke-dasharray:none;stroke-opacity:1"
         id="path76"
         inkscape:connector-curvature="0"
         sodipodi:nodetypes="cccc" /><g
         id="g78"
         transform="matrix(13.566641,0,0,13.566641,-104.18042,-574.07494)"><text
           transform="matrix(1,0,0,-1,20.3707,160.3)"
           style="font-variant:normal;font-weight:normal;font-size:7px;font-family:Helvetica;-inkscape-font-specification:Helvetica;writing-mode:lr-tb;fill:#000000;fill-opacity:1;fill-rule:nonzero;stroke:none"
           id="text82"><tspan
             x="0 3.892 5.8379998"
             y="0"
             sodipodi:role="line"
             id="tspan80">0.3</tspan></text>
</g><path
         d="M 343.04146,1870.3997 H 3525.4586"
         style="fill:none;stroke:#d1d1d1;stroke-width:7.5;stroke-linecap:butt;stroke-linejoin:miter;stroke-miterlimit:3.79999995;stroke-dasharray:7.50000019, 7.50000019;stroke-dashoffset:0;stroke-opacity:1"
         id="path84"
         inkscape:connector-curvature="0" /><path
         d="m 343.04146,1870.3997 h 32.02241 m 3150.39473,0 h -32.0224"
         style="fill:none;stroke:#000000;stroke-width:15.99750042;stroke-linecap:butt;stroke-linejoin:miter;stroke-miterlimit:3.79999995;stroke-dasharray:none;stroke-opacity:1"
         id="path86"
         inkscape:connector-curvature="0" /><g
         id="g88"
         transform="matrix(13.566641,0,0,13.566641,-104.84789,-651.64939)"><text
           transform="matrix(1,0,0,-1,16.4789,182.05)"
           style="font-variant:normal;font-weight:normal;font-size:7px;font-family:Helvetica;-inkscape-font-specification:Helvetica;writing-mode:lr-tb;fill:#000000;fill-opacity:1;fill-rule:nonzero;stroke:none"
           id="text92"><tspan
             x="0 3.892 5.8379998 9.7299995"
             y="0"
             sodipodi:role="line"
             id="tspan90">0.35</tspan></text>
</g><path
         d="M 343.04146,2092.0151 H 3525.4586"
         style="fill:none;stroke:#d1d1d1;stroke-width:7.5;stroke-linecap:butt;stroke-linejoin:miter;stroke-miterlimit:3.79999995;stroke-dasharray:7.50000019, 7.50000019;stroke-dashoffset:0;stroke-opacity:1"
         id="path94"
         inkscape:connector-curvature="0" /><path
         d="m 343.04146,2092.0151 h 32.02241 m 3150.39473,0 h -32.0224"
         style="fill:none;stroke:#000000;stroke-width:15.99750042;stroke-linecap:butt;stroke-linejoin:miter;stroke-miterlimit:3.79999995;stroke-dasharray:none;stroke-opacity:1"
         id="path96"
         inkscape:connector-curvature="0" /><g
         id="g98"
         transform="matrix(13.566641,0,0,13.566641,-105.50995,-729.40217)"><text
           transform="matrix(1,0,0,-1,20.3707,203.85)"
           style="font-variant:normal;font-weight:normal;font-size:7px;font-family:Helvetica;-inkscape-font-specification:Helvetica;writing-mode:lr-tb;fill:#000000;fill-opacity:1;fill-rule:nonzero;stroke:none"
           id="text102"><tspan
             x="0 3.892 5.8379998"
             y="0"
             sodipodi:role="line"
             id="tspan100">0.4</tspan></text>
</g><path
         d="M 343.04146,2313.6305 H 3525.4586"
         style="fill:none;stroke:#d1d1d1;stroke-width:7.5;stroke-linecap:butt;stroke-linejoin:miter;stroke-miterlimit:3.79999995;stroke-dasharray:7.50000019, 7.50000019;stroke-dashoffset:0;stroke-opacity:1"
         id="path104"
         inkscape:connector-curvature="0" /><path
         d="m 343.04146,2313.6305 h 32.02241 m 3150.39473,0 h -32.0224"
         style="fill:none;stroke:#000000;stroke-width:15.99750042;stroke-linecap:butt;stroke-linejoin:miter;stroke-miterlimit:3.79999995;stroke-dasharray:none;stroke-opacity:1"
         id="path106"
         inkscape:connector-curvature="0" /><g
         id="g108"
         transform="matrix(13.566641,0,0,13.566641,-104.84789,-787.21825)"><text
           transform="matrix(1,0,0,-1,16.4789,225.65)"
           style="font-variant:normal;font-weight:normal;font-size:7px;font-family:Helvetica;-inkscape-font-specification:Helvetica;writing-mode:lr-tb;fill:#000000;fill-opacity:1;fill-rule:nonzero;stroke:none"
           id="text112"><tspan
             x="0 3.892 5.8379998 9.7299995"
             y="0"
             sodipodi:role="line"
             id="tspan110">0.45</tspan></text>
</g><path
         d="M 608.36996,224.04146 V 2344.128"
         style="fill:none;stroke:#d1d1d1;stroke-width:7.5;stroke-linecap:butt;stroke-linejoin:miter;stroke-miterlimit:3.79999995;stroke-dasharray:7.50000019, 7.50000019;stroke-dashoffset:0;stroke-opacity:1"
         id="path114"
         inkscape:connector-curvature="0" /><path
         d="m 608.36996,224.04146 v 32.02241 m 0,2088.06413 v -32.0224"
         style="fill:none;stroke:#000000;stroke-width:15.99750042;stroke-linecap:butt;stroke-linejoin:miter;stroke-miterlimit:3.79999995;stroke-dasharray:none;stroke-opacity:1"
         id="path116"
         inkscape:connector-curvature="0" /><g
         id="g118"
         transform="matrix(13.566641,0,0,13.566641,-213.38928,-61.148774)"><text
           transform="matrix(1,0,0,-1,55.5355,13.1)"
           style="font-variant:normal;font-weight:normal;font-size:7px;font-family:Helvetica;-inkscape-font-specification:Helvetica;writing-mode:lr-tb;fill:#000000;fill-opacity:1;fill-rule:nonzero;stroke:none"
           id="text122"><tspan
             x="0 3.892 5.8379998"
             y="0"
             sodipodi:role="line"
             id="tspan120">0.2</tspan></text>
</g><path
         d="M 1138.5187,224.04146 V 2344.128"
         style="fill:none;stroke:#d1d1d1;stroke-width:7.5;stroke-linecap:butt;stroke-linejoin:miter;stroke-miterlimit:3.79999995;stroke-dasharray:7.50000019, 7.50000019;stroke-dashoffset:0;stroke-opacity:1"
         id="path124"
         inkscape:connector-curvature="0" /><path
         d="m 1138.5187,224.04146 v 32.02241 m 0,2088.06413 v -32.0224"
         style="fill:none;stroke:#000000;stroke-width:15.99750042;stroke-linecap:butt;stroke-linejoin:miter;stroke-miterlimit:3.79999995;stroke-dasharray:none;stroke-opacity:1"
         id="path126"
         inkscape:connector-curvature="0" /><g
         id="g128"
         transform="matrix(13.566641,0,0,13.566641,-387.99901,-61.148774)"><text
           transform="matrix(1,0,0,-1,107.686,13.1)"
           style="font-variant:normal;font-weight:normal;font-size:7px;font-family:Helvetica;-inkscape-font-specification:Helvetica;writing-mode:lr-tb;fill:#000000;fill-opacity:1;fill-rule:nonzero;stroke:none"
           id="text132"><tspan
             x="0 3.892 5.8379998"
             y="0"
             sodipodi:role="line"
             id="tspan130">0.4</tspan></text>
</g><path
         d="M 1669.1757,224.04146 V 2344.128"
         style="fill:none;stroke:#d1d1d1;stroke-width:7.5;stroke-linecap:butt;stroke-linejoin:miter;stroke-miterlimit:3.79999995;stroke-dasharray:7.50000019, 7.50000019;stroke-dashoffset:0;stroke-opacity:1"
         id="path134"
         inkscape:connector-curvature="0" /><path
         d="m 1669.1757,224.04146 v 32.02241 m 0,2088.06413 v -32.0224"
         style="fill:none;stroke:#000000;stroke-width:15.99750042;stroke-linecap:butt;stroke-linejoin:miter;stroke-miterlimit:3.79999995;stroke-dasharray:none;stroke-opacity:1"
         id="path136"
         inkscape:connector-curvature="0" /><g
         id="g138"
         transform="matrix(13.566641,0,0,13.566641,-568.4815,-61.148774)"><text
           transform="matrix(1,0,0,-1,159.886,13.1)"
           style="font-variant:normal;font-weight:normal;font-size:7px;font-family:Helvetica;-inkscape-font-specification:Helvetica;writing-mode:lr-tb;fill:#000000;fill-opacity:1;fill-rule:nonzero;stroke:none"
           id="text142"><tspan
             x="0 3.892 5.8379998"
             y="0"
             sodipodi:role="line"
             id="tspan140">0.6</tspan></text>
</g><path
         d="M 2199.3244,224.04146 V 2312.1056 m 0,0 v 32.0224"
         style="fill:none;stroke:#d1d1d1;stroke-width:7.5;stroke-linecap:butt;stroke-linejoin:miter;stroke-miterlimit:3.79999995;stroke-dasharray:7.50000019, 7.50000019;stroke-dashoffset:0;stroke-opacity:1"
         id="path144"
         inkscape:connector-curvature="0"
         sodipodi:nodetypes="cccc" /><path
         d="m 2199.3244,224.04146 v 32.02241 m 0,2088.06413 v -32.0224"
         style="fill:none;stroke:#000000;stroke-width:15.99750042;stroke-linecap:butt;stroke-linejoin:miter;stroke-miterlimit:3.79999995;stroke-dasharray:none;stroke-opacity:1"
         id="path146"
         inkscape:connector-curvature="0" /><g
         id="g148"
         transform="matrix(13.566641,0,0,13.566641,-745.93755,-61.148774)"><text
           transform="matrix(1,0,0,-1,212.036,13.1)"
           style="font-variant:normal;font-weight:normal;font-size:7px;font-family:Helvetica;-inkscape-font-specification:Helvetica;writing-mode:lr-tb;fill:#000000;fill-opacity:1;fill-rule:nonzero;stroke:none"
           id="text152"><tspan
             x="0 3.892 5.8379998"
             y="0"
             sodipodi:role="line"
             id="tspan150">0.8</tspan></text>
</g><path
         d="M 2729.9814,224.04146 V 2312.1056 m 0,0 v 32.0224"
         style="fill:none;stroke:#d1d1d1;stroke-width:7.5;stroke-linecap:butt;stroke-linejoin:miter;stroke-miterlimit:3.79999995;stroke-dasharray:7.50000019, 7.50000019;stroke-dashoffset:0;stroke-opacity:1"
         id="path154"
         inkscape:connector-curvature="0"
         sodipodi:nodetypes="cccc" /><path
         d="m 2729.9814,224.04146 v 32.02241 m 0,2088.06413 v -32.0224"
         style="fill:none;stroke:#000000;stroke-width:15.99750042;stroke-linecap:butt;stroke-linejoin:miter;stroke-miterlimit:3.79999995;stroke-dasharray:none;stroke-opacity:1"
         id="path156"
         inkscape:connector-curvature="0" /><g
         id="g158"
         transform="matrix(13.998222,0,0,13.998222,-1032.4514,-67.376709)"><text
           transform="matrix(1,0,0,-1,267.154,13.1)"
           style="font-variant:normal;font-weight:normal;font-size:7px;font-family:Helvetica;-inkscape-font-specification:Helvetica;writing-mode:lr-tb;fill:#000000;fill-opacity:1;fill-rule:nonzero;stroke:none"
           id="text162"><tspan
             x="0"
             y="0"
             id="tspan160">1</tspan></text>
</g><path
         d="M 3260.1301,224.04146 V 2312.1056 m 0,0 v 32.0224"
         style="fill:none;stroke:#d1d1d1;stroke-width:7.5;stroke-linecap:butt;stroke-linejoin:miter;stroke-miterlimit:3.79999995;stroke-dasharray:7.50000019, 7.50000019;stroke-dashoffset:0;stroke-opacity:1"
         id="path164"
         inkscape:connector-curvature="0"
         sodipodi:nodetypes="cccc" /><path
         d="m 3260.1301,224.04146 v 32.02241 m 0,2088.06413 v -32.0224"
         style="fill:none;stroke:#000000;stroke-width:15.99750042;stroke-linecap:butt;stroke-linejoin:miter;stroke-miterlimit:3.79999995;stroke-dasharray:none;stroke-opacity:1"
         id="path166"
         inkscape:connector-curvature="0" /><g
         id="g168"
         transform="matrix(13.998222,0,0,13.998222,-1239.6416,-67.376709)"><text
           transform="matrix(1,0,0,-1,316.386,13.1)"
           style="font-variant:normal;font-weight:normal;font-size:7px;font-family:Helvetica;-inkscape-font-specification:Helvetica;writing-mode:lr-tb;fill:#000000;fill-opacity:1;fill-rule:nonzero;stroke:none"
           id="text172"><tspan
             x="0 3.892 5.8379998"
             y="0"
             sodipodi:role="line"
             id="tspan170">1.2</tspan></text>
</g><path
         d="M 343.04146,2344.128 V 224.04146 H 3525.4586 V 2344.128 Z"
         style="fill:none;stroke:#000000;stroke-width:15.99750042;stroke-linecap:butt;stroke-linejoin:miter;stroke-miterlimit:3.79999995;stroke-dasharray:none;stroke-opacity:1"
         id="path174"
         inkscape:connector-curvature="0" /><text
         transform="matrix(0,1,1,0,0,0)"
         y="-2159.9995"
         x="-3657.1277"
         id="text522-6-8"
         class="TextShape"
         style="font-size:3.4015739px;line-height:0%;stroke-width:7.9999361;stroke-linejoin:round"><tspan
           style="font-style:normal;font-variant:normal;font-weight:bold;font-stretch:normal;font-size:139.99996948px;font-family:'Liberation Sans', sans-serif;-inkscape-font-specification:'Liberation Sans, sans-serif Bold';stroke-width:7.9999361"
           id="tspan524-0-8"
           font-weight="400"
           font-size="353px"
           class="TextParagraph"><tspan
             style="font-style:normal;font-variant:normal;font-weight:bold;font-stretch:normal;font-size:139.99996948px;font-family:'Liberation Sans', sans-serif;-inkscape-font-specification:'Liberation Sans, sans-serif Bold';fill:#000000;stroke:none;stroke-width:7.9999361"
             id="tspan526-4-8"
             y="66.613632"
             x="530.50281"
             class="TextPosition">Normalized -Id (mA/μm)</tspan></tspan></text>
<text
         transform="scale(1,-1)"
         y="-2199.8911"
         x="-2535.5869"
         id="text522-3-3"
         class="TextShape"
         style="font-size:3.40157413px;line-height:0%;stroke-width:7.9999361;stroke-linejoin:round"><tspan
           style="font-style:normal;font-variant:normal;font-weight:bold;font-stretch:normal;font-size:139.99996948px;font-family:'Liberation Sans', sans-serif;-inkscape-font-specification:'Liberation Sans, sans-serif Bold';stroke-width:7.9999361"
           id="tspan524-6-6"
           font-weight="400"
           font-size="353px"
           class="TextParagraph"><tspan
             style="font-style:normal;font-variant:normal;font-weight:bold;font-stretch:normal;font-size:139.99996948px;font-family:'Liberation Sans', sans-serif;-inkscape-font-specification:'Liberation Sans, sans-serif Bold';fill:#000000;stroke:none;stroke-width:7.9999361"
             id="tspan526-7-7"
             y="26.721731"
             x="1652.0308"
             class="TextPosition">-Vgs (V)</tspan></tspan></text>
<path
         d="m 343.04146,321.12526 265.3285,6.09951 265.32851,34.56386 264.82023,90.47601 265.3285,139.27205 265.3285,169.26128 265.3285,189.08468 264.8202,201.79195 265.3285,210.9413 265.3285,217.0407 265.3285,220.5988 264.8202,223.1403 265.3285,224.1568 M 343.04146,320.61697 l 265.3285,4.06634 265.32851,24.90631 264.82023,77.26041 265.3285,129.10621 265.3285,162.65348 265.3285,184.00176 264.8202,198.74222 265.3285,208.3998 265.3285,215.0076 265.3285,220.0905 264.8202,222.1236 265.3285,223.6486 M 343.04146,320.61697 l 265.3285,2.54146 265.32851,17.79023 264.82023,64.5531 265.3285,118.43207 265.3285,156.04569 265.3285,179.42713 264.8202,194.67585 265.3285,205.8584 265.3285,213.4827 265.3285,218.5656 264.8202,221.6154 265.3285,223.1402 M 343.04146,320.61697 l 265.3285,1.52488 265.32851,12.7073 264.82023,52.35409 265.3285,108.77452 265.3285,148.42131 265.3285,174.34421 264.8202,191.62612 265.3285,203.3169 265.3285,211.4495 265.3285,217.0408 264.8202,220.5988 265.3285,222.6319 M 343.04146,320.61697 l 265.3285,1.01658 265.32851,8.64097 264.82023,42.69654 265.3285,97.59209 265.3285,141.30522 265.3285,169.26129 264.8202,187.5598 265.3285,200.77544 265.3285,209.4163 265.3285,215.5159 264.8202,220.0905 265.3285,221.6154 M 343.04146,320.61697 l 265.3285,0.50829 265.32851,6.09951 264.82023,33.54728 265.3285,87.42625 265.3285,134.18913 265.3285,163.67007 264.8202,184.00176 265.3285,197.72564 265.3285,207.3832 265.3285,214.4993 264.8202,218.5656 265.3285,221.1071 M 343.04146,320.61697 h 265.3285 l 265.32851,4.57463 264.82023,25.9229 265.3285,77.26041 265.3285,126.56474 265.3285,158.58715 264.8202,179.93542 265.3285,195.18418 265.3285,205.35 265.3285,212.4662 264.8202,217.549 265.3285,220.5988 M 343.04146,320.61697 h 265.3285 l 265.32851,3.04975 264.82023,19.8234 265.3285,67.60285 265.3285,118.43207 265.3285,153.50423 264.8202,175.86909 265.3285,192.13444 265.3285,203.3169 265.3285,210.9412 264.8202,216.5325"
         style="fill:none;stroke:#ff0000;stroke-width:7.5;stroke-linecap:butt;stroke-linejoin:miter;stroke-miterlimit:3.79999995;stroke-dasharray:none;stroke-opacity:1"
         id="path190"
         inkscape:connector-curvature="0"
         sodipodi:nodetypes="ccccccccccccccccccccccccccccccccccccccccccccccccccccccccccccccccccccccccccccccccccccccccccccccccccccccc" /><path
         d="m 3260.1301,1681.8234 265.3285,219.5822 M 343.04146,320.61697 h 265.3285 l 265.32851,2.03317 264.82023,15.24876 265.3285,57.94531 265.3285,110.29939 265.3285,147.91302 264.8202,172.31104 265.3285,189.08464 265.3285,200.7754 265.3285,209.4164 264.8202,215.5159 265.3285,218.5656 M 343.04146,320.61697 h 265.3285 l 265.32851,1.52488 264.82023,11.18242 265.3285,49.30434 265.3285,102.67502 265.3285,141.81351 264.8202,168.2447 265.3285,186.03493 265.3285,198.74223 265.3285,207.8915 264.8202,213.991 265.3285,218.0573 M 343.04146,320.61697 h 265.3285 l 265.32851,1.01658 264.82023,8.13268 265.3285,41.67995 265.3285,94.03405 265.3285,136.73059 264.8202,164.17837 265.3285,182.98517 265.3285,196.20074 265.3285,205.8584 264.8202,212.9744 265.3285,217.0407 M 343.04146,320.61697 h 265.3285 l 265.32851,0.50829 264.82023,6.09951 265.3285,34.56386 265.3285,86.40967 265.3285,130.12279 264.8202,160.11203 265.3285,179.93542 265.3285,194.16756 265.3285,204.3335 264.8202,211.4495 265.3285,216.0242 M 343.04146,320.61697 h 265.3285 l 265.32851,0.50829 264.82023,4.57463 265.3285,27.95607 265.3285,78.27699 265.3285,124.53158 264.8202,155.5374 265.3285,176.88566 265.3285,191.62611 265.3285,202.8086 264.8202,209.9247 265.3285,215.0075 M 343.04146,320.61697 h 265.3285 265.32851 l 264.82023,3.55804 265.3285,22.87315 265.3285,70.14432 265.3285,118.43207 264.8202,151.47106 265.3285,173.83592 265.3285,189.08467 265.3285,200.7754 264.8202,208.3998 265.3285,214.4993"
         style="fill:none;stroke:#ff0000;stroke-width:7.5;stroke-linecap:butt;stroke-linejoin:miter;stroke-miterlimit:3.79999995;stroke-dasharray:none;stroke-opacity:1"
         id="path192"
         inkscape:connector-curvature="0" /><path
         d="M 343.04146,2344.128 V 224.04146 H 3525.4586 V 2344.128 Z"
         style="fill:none;stroke:#000000;stroke-width:15.99750042;stroke-linecap:butt;stroke-linejoin:miter;stroke-miterlimit:3.79999995;stroke-dasharray:none;stroke-opacity:1"
         id="path194"
         inkscape:connector-curvature="0" /><text
         style="font-size:3.40157437px;line-height:0%;stroke-width:7.9999361;stroke-linejoin:round"
         class="TextShape"
         id="text522-2"
         x="-2541.4089"
         y="-3622.72"
         transform="scale(1,-1)"><tspan
           class="TextParagraph"
           font-size="353px"
           font-weight="400"
           id="tspan524-2"
           style="font-style:normal;font-variant:normal;font-weight:bold;font-stretch:normal;font-size:139.99996948px;font-family:'Liberation Sans', sans-serif;-inkscape-font-specification:'Liberation Sans, sans-serif Bold';stroke-width:7.9999361"><tspan
             class="TextPosition"
             x="1646.2095"
             y="-1396.1061"
             id="tspan526-8"
             style="font-style:normal;font-variant:normal;font-weight:bold;font-stretch:normal;font-size:139.99996948px;font-family:'Liberation Sans', sans-serif;-inkscape-font-specification:'Liberation Sans, sans-serif Bold';fill:#000000;stroke:none;stroke-width:7.9999361">Vbs = 0</tspan></tspan></text>
<text
         y="-2978.1604"
         x="-1524.9983"
         id="text4984"
         class="TextShape"
         style="font-size:3.40157437px;line-height:0%;stroke-width:7.9999361;stroke-linejoin:round"
         transform="scale(1,-1)"><tspan
           style="font-style:normal;font-variant:normal;font-weight:bold;font-stretch:normal;font-size:139.99996948px;font-family:'Liberation Sans', sans-serif;-inkscape-font-specification:'Liberation Sans, sans-serif Bold';stroke-width:7.9999361"
           id="tspan4986"
           font-weight="400"
           font-size="353px"
           class="TextParagraph"><tspan
             style="font-style:normal;font-variant:normal;font-weight:bold;font-stretch:normal;font-size:139.99996948px;font-family:'Liberation Sans', sans-serif;-inkscape-font-specification:'Liberation Sans, sans-serif Bold';fill:#000000;stroke:none;stroke-width:7.9999361"
             id="tspan4988"
             y="-751.54645"
             x="2662.6221"
             class="TextPosition">Vbs = 1.3</tspan></tspan></text>
<path
         style="fill:none;fill-rule:evenodd;stroke:#000000;stroke-width:16.00000191;stroke-linecap:butt;stroke-linejoin:miter;stroke-miterlimit:4;stroke-dasharray:none;stroke-opacity:1;marker-end:url(#Arrow1Send)"
         d="M 2216.0835,1390.8739 2679.6132,927.34465"
         id="path4990"
         inkscape:connector-curvature="0"
         sodipodi:nodetypes="cc" /></g></g></svg>