<?xml version="1.0" encoding="UTF-8" standalone="no"?>
<!-- Created with Inkscape (http://www.inkscape.org/) -->

<svg
   xmlns:dc="http://purl.org/dc/elements/1.1/"
   xmlns:cc="http://creativecommons.org/ns#"
   xmlns:rdf="http://www.w3.org/1999/02/22-rdf-syntax-ns#"
   xmlns:svg="http://www.w3.org/2000/svg"
   xmlns="http://www.w3.org/2000/svg"
   xmlns:sodipodi="http://sodipodi.sourceforge.net/DTD/sodipodi-0.dtd"
   xmlns:inkscape="http://www.inkscape.org/namespaces/inkscape"
   id="svg2"
   version="1.1"
   inkscape:version="0.91 r13725"
   xml:space="preserve"
   width="450"
   height="315"
   viewBox="0 0 450 315"
   sodipodi:docname="simple_pmos_current_mirror_simulation_dc_analysis.svg"><metadata
     id="metadata8"><rdf:RDF><cc:Work
         rdf:about=""><dc:format>image/svg+xml</dc:format><dc:type
           rdf:resource="http://purl.org/dc/dcmitype/StillImage" /><dc:title></dc:title></cc:Work></rdf:RDF></metadata><defs
     id="defs6" /><sodipodi:namedview
     pagecolor="#ffffff"
     bordercolor="#666666"
     borderopacity="1"
     objecttolerance="10"
     gridtolerance="10"
     guidetolerance="10"
     inkscape:pageopacity="0"
     inkscape:pageshadow="2"
     inkscape:window-width="1920"
     inkscape:window-height="1057"
     id="namedview4"
     showgrid="false"
     inkscape:zoom="1.4984127"
     inkscape:cx="227.05956"
     inkscape:cy="143.41784"
     inkscape:window-x="1280"
     inkscape:window-y="0"
     inkscape:window-maximized="1"
     inkscape:current-layer="g12" /><g
     id="g10"
     inkscape:groupmode="layer"
     inkscape:label="ink_ext_XXXXXX"
     transform="matrix(1.25,0,0,-1.25,0,315)"><g
       id="g12"
       transform="scale(0.1,0.1)"><path
         d="m 259,319 3214.5,0"
         style="fill:none;stroke:#000000;stroke-width:1.25;stroke-linecap:butt;stroke-linejoin:miter;stroke-miterlimit:3.79999995;stroke-dasharray:5, 10;stroke-dashoffset:0;stroke-opacity:1"
         id="path14"
         inkscape:connector-curvature="0" /><path
         d="m 259,319 31.5,0 m 3183,0 -31.5,0"
         style="fill:none;stroke:#000000;stroke-width:5;stroke-linecap:butt;stroke-linejoin:miter;stroke-miterlimit:3.79999995;stroke-dasharray:none;stroke-opacity:1"
         id="path16"
         inkscape:connector-curvature="0" /><g
         id="g18"
         transform="scale(10,10)"><text
           transform="matrix(1,0,0,-1,17.8082,29.6)"
           style="font-variant:normal;font-weight:normal;font-size:7px;font-family:Helvetica;-inkscape-font-specification:Helvetica;writing-mode:lr-tb;fill:#000000;fill-opacity:1;fill-rule:nonzero;stroke:none"
           id="text20"><tspan
             x="0"
             y="0"
             id="tspan22">0</tspan></text>
</g><path
         d="m 259,693 3214.5,0"
         style="fill:none;stroke:#000000;stroke-width:1.25;stroke-linecap:butt;stroke-linejoin:miter;stroke-miterlimit:3.79999995;stroke-dasharray:5, 10;stroke-dashoffset:0;stroke-opacity:1"
         id="path24"
         inkscape:connector-curvature="0" /><path
         d="m 259,693 31.5,0 m 3183,0 -31.5,0"
         style="fill:none;stroke:#000000;stroke-width:5;stroke-linecap:butt;stroke-linejoin:miter;stroke-miterlimit:3.79999995;stroke-dasharray:none;stroke-opacity:1"
         id="path26"
         inkscape:connector-curvature="0" /><g
         id="g28"
         transform="scale(10,10)"><text
           transform="matrix(1,0,0,-1,13.9164,67)"
           style="font-variant:normal;font-weight:normal;font-size:7px;font-family:Helvetica;-inkscape-font-specification:Helvetica;writing-mode:lr-tb;fill:#000000;fill-opacity:1;fill-rule:nonzero;stroke:none"
           id="text30"><tspan
             x="0 3.892"
             y="0"
             sodipodi:role="line"
             id="tspan32">10</tspan></text>
</g><path
         d="m 259,1067 3214.5,0"
         style="fill:none;stroke:#000000;stroke-width:1.25;stroke-linecap:butt;stroke-linejoin:miter;stroke-miterlimit:3.79999995;stroke-dasharray:5, 10;stroke-dashoffset:0;stroke-opacity:1"
         id="path34"
         inkscape:connector-curvature="0" /><path
         d="m 259,1067 31.5,0 m 3183,0 -31.5,0"
         style="fill:none;stroke:#000000;stroke-width:5;stroke-linecap:butt;stroke-linejoin:miter;stroke-miterlimit:3.79999995;stroke-dasharray:none;stroke-opacity:1"
         id="path36"
         inkscape:connector-curvature="0" /><g
         id="g38"
         transform="scale(10,10)"><text
           transform="matrix(1,0,0,-1,13.9164,104.4)"
           style="font-variant:normal;font-weight:normal;font-size:7px;font-family:Helvetica;-inkscape-font-specification:Helvetica;writing-mode:lr-tb;fill:#000000;fill-opacity:1;fill-rule:nonzero;stroke:none"
           id="text40"><tspan
             x="0 3.892"
             y="0"
             sodipodi:role="line"
             id="tspan42">20</tspan></text>
</g><path
         d="m 259,1441 3214.5,0"
         style="fill:none;stroke:#000000;stroke-width:1.25;stroke-linecap:butt;stroke-linejoin:miter;stroke-miterlimit:3.79999995;stroke-dasharray:5, 10;stroke-dashoffset:0;stroke-opacity:1"
         id="path44"
         inkscape:connector-curvature="0" /><path
         d="m 259,1441 31.5,0 m 3183,0 -31.5,0"
         style="fill:none;stroke:#000000;stroke-width:5;stroke-linecap:butt;stroke-linejoin:miter;stroke-miterlimit:3.79999995;stroke-dasharray:none;stroke-opacity:1"
         id="path46"
         inkscape:connector-curvature="0" /><g
         id="g48"
         transform="scale(10,10)"><text
           transform="matrix(1,0,0,-1,13.9164,141.8)"
           style="font-variant:normal;font-weight:normal;font-size:7px;font-family:Helvetica;-inkscape-font-specification:Helvetica;writing-mode:lr-tb;fill:#000000;fill-opacity:1;fill-rule:nonzero;stroke:none"
           id="text50"><tspan
             x="0 3.892"
             y="0"
             sodipodi:role="line"
             id="tspan52">30</tspan></text>
</g><path
         d="m 259,1815 3214.5,0"
         style="fill:none;stroke:#000000;stroke-width:1.25;stroke-linecap:butt;stroke-linejoin:miter;stroke-miterlimit:3.79999995;stroke-dasharray:5, 10;stroke-dashoffset:0;stroke-opacity:1"
         id="path54"
         inkscape:connector-curvature="0" /><path
         d="m 259,1815 31.5,0 m 3183,0 -31.5,0"
         style="fill:none;stroke:#000000;stroke-width:5;stroke-linecap:butt;stroke-linejoin:miter;stroke-miterlimit:3.79999995;stroke-dasharray:none;stroke-opacity:1"
         id="path56"
         inkscape:connector-curvature="0" /><g
         id="g58"
         transform="scale(10,10)"><text
           transform="matrix(1,0,0,-1,13.9164,179.2)"
           style="font-variant:normal;font-weight:normal;font-size:7px;font-family:Helvetica;-inkscape-font-specification:Helvetica;writing-mode:lr-tb;fill:#000000;fill-opacity:1;fill-rule:nonzero;stroke:none"
           id="text60"><tspan
             x="0 3.892"
             y="0"
             sodipodi:role="line"
             id="tspan62">40</tspan></text>
</g><path
         d="m 259,2189 3214.5,0"
         style="fill:none;stroke:#000000;stroke-width:1.25;stroke-linecap:butt;stroke-linejoin:miter;stroke-miterlimit:3.79999995;stroke-dasharray:5, 10;stroke-dashoffset:0;stroke-opacity:1"
         id="path64"
         inkscape:connector-curvature="0" /><path
         d="m 259,2189 31.5,0 m 3183,0 -31.5,0"
         style="fill:none;stroke:#000000;stroke-width:5;stroke-linecap:butt;stroke-linejoin:miter;stroke-miterlimit:3.79999995;stroke-dasharray:none;stroke-opacity:1"
         id="path66"
         inkscape:connector-curvature="0" /><g
         id="g68"
         transform="scale(10,10)"><text
           transform="matrix(1,0,0,-1,13.9164,216.6)"
           style="font-variant:normal;font-weight:normal;font-size:7px;font-family:Helvetica;-inkscape-font-specification:Helvetica;writing-mode:lr-tb;fill:#000000;fill-opacity:1;fill-rule:nonzero;stroke:none"
           id="text70"><tspan
             x="0 3.892"
             y="0"
             sodipodi:role="line"
             id="tspan72">50</tspan></text>
</g><path
         d="m 259,224 0,2085.5"
         style="fill:none;stroke:#000000;stroke-width:1.25;stroke-linecap:butt;stroke-linejoin:miter;stroke-miterlimit:3.79999995;stroke-dasharray:5, 10;stroke-dashoffset:0;stroke-opacity:1"
         id="path74"
         inkscape:connector-curvature="0" /><path
         d="m 259,224 0,31.5 m 0,2054 0,-31.5"
         style="fill:none;stroke:#000000;stroke-width:5;stroke-linecap:butt;stroke-linejoin:miter;stroke-miterlimit:3.79999995;stroke-dasharray:none;stroke-opacity:1"
         id="path76"
         inkscape:connector-curvature="0" /><g
         id="g78"
         transform="scale(10,10)"><text
           transform="matrix(1,0,0,-1,23.9543,13.1)"
           style="font-variant:normal;font-weight:normal;font-size:7px;font-family:Helvetica;-inkscape-font-specification:Helvetica;writing-mode:lr-tb;fill:#000000;fill-opacity:1;fill-rule:nonzero;stroke:none"
           id="text80"><tspan
             x="0"
             y="0"
             id="tspan82">0</tspan></text>
</g><path
         d="m 753.5,224 0,2085.5"
         style="fill:none;stroke:#000000;stroke-width:1.25;stroke-linecap:butt;stroke-linejoin:miter;stroke-miterlimit:3.79999995;stroke-dasharray:5, 10;stroke-dashoffset:0;stroke-opacity:1"
         id="path84"
         inkscape:connector-curvature="0" /><path
         d="m 753.5,224 0,31.5 m 0,2054 0,-31.5"
         style="fill:none;stroke:#000000;stroke-width:5;stroke-linecap:butt;stroke-linejoin:miter;stroke-miterlimit:3.79999995;stroke-dasharray:none;stroke-opacity:1"
         id="path86"
         inkscape:connector-curvature="0" /><g
         id="g88"
         transform="scale(10,10)"><text
           transform="matrix(1,0,0,-1,70.4855,13.1)"
           style="font-variant:normal;font-weight:normal;font-size:7px;font-family:Helvetica;-inkscape-font-specification:Helvetica;writing-mode:lr-tb;fill:#000000;fill-opacity:1;fill-rule:nonzero;stroke:none"
           id="text90"><tspan
             x="0 3.892 5.8379998"
             y="0"
             sodipodi:role="line"
             id="tspan92">0.2</tspan></text>
</g><path
         d="m 1248,224 0,2085.5"
         style="fill:none;stroke:#000000;stroke-width:1.25;stroke-linecap:butt;stroke-linejoin:miter;stroke-miterlimit:3.79999995;stroke-dasharray:5, 10;stroke-dashoffset:0;stroke-opacity:1"
         id="path94"
         inkscape:connector-curvature="0" /><path
         d="m 1248,224 0,31.5 m 0,2054 0,-31.5"
         style="fill:none;stroke:#000000;stroke-width:5;stroke-linecap:butt;stroke-linejoin:miter;stroke-miterlimit:3.79999995;stroke-dasharray:none;stroke-opacity:1"
         id="path96"
         inkscape:connector-curvature="0" /><g
         id="g98"
         transform="scale(10,10)"><text
           transform="matrix(1,0,0,-1,119.936,13.1)"
           style="font-variant:normal;font-weight:normal;font-size:7px;font-family:Helvetica;-inkscape-font-specification:Helvetica;writing-mode:lr-tb;fill:#000000;fill-opacity:1;fill-rule:nonzero;stroke:none"
           id="text100"><tspan
             x="0 3.892 5.8379998"
             y="0"
             sodipodi:role="line"
             id="tspan102">0.4</tspan></text>
</g><path
         d="m 1742.5,224 0,2085.5"
         style="fill:none;stroke:#000000;stroke-width:1.25;stroke-linecap:butt;stroke-linejoin:miter;stroke-miterlimit:3.79999995;stroke-dasharray:5, 10;stroke-dashoffset:0;stroke-opacity:1"
         id="path104"
         inkscape:connector-curvature="0" /><path
         d="m 1742.5,224 0,31.5 m 0,2054 0,-31.5"
         style="fill:none;stroke:#000000;stroke-width:5;stroke-linecap:butt;stroke-linejoin:miter;stroke-miterlimit:3.79999995;stroke-dasharray:none;stroke-opacity:1"
         id="path106"
         inkscape:connector-curvature="0" /><g
         id="g108"
         transform="scale(10,10)"><text
           transform="matrix(1,0,0,-1,169.386,13.1)"
           style="font-variant:normal;font-weight:normal;font-size:7px;font-family:Helvetica;-inkscape-font-specification:Helvetica;writing-mode:lr-tb;fill:#000000;fill-opacity:1;fill-rule:nonzero;stroke:none"
           id="text110"><tspan
             x="0 3.892 5.8379998"
             y="0"
             sodipodi:role="line"
             id="tspan112">0.6</tspan></text>
</g><path
         d="m 2237,224 0,2085.5"
         style="fill:none;stroke:#000000;stroke-width:1.25;stroke-linecap:butt;stroke-linejoin:miter;stroke-miterlimit:3.79999995;stroke-dasharray:5, 10;stroke-dashoffset:0;stroke-opacity:1"
         id="path114"
         inkscape:connector-curvature="0" /><path
         d="m 2237,224 0,31.5 m 0,2054 0,-31.5"
         style="fill:none;stroke:#000000;stroke-width:5;stroke-linecap:butt;stroke-linejoin:miter;stroke-miterlimit:3.79999995;stroke-dasharray:none;stroke-opacity:1"
         id="path116"
         inkscape:connector-curvature="0" /><g
         id="g118"
         transform="scale(10,10)"><text
           transform="matrix(1,0,0,-1,218.836,13.1)"
           style="font-variant:normal;font-weight:normal;font-size:7px;font-family:Helvetica;-inkscape-font-specification:Helvetica;writing-mode:lr-tb;fill:#000000;fill-opacity:1;fill-rule:nonzero;stroke:none"
           id="text120"><tspan
             x="0 3.892 5.8379998"
             y="0"
             sodipodi:role="line"
             id="tspan122">0.8</tspan></text>
</g><path
         d="m 2731.5,224 0,2055.7294 m 0,-1.7294 0,31.5"
         style="fill:none;stroke:#000000;stroke-width:1.25;stroke-linecap:butt;stroke-linejoin:miter;stroke-miterlimit:3.79999995;stroke-dasharray:5, 10;stroke-dashoffset:0;stroke-opacity:1"
         id="path124"
         inkscape:connector-curvature="0"
         sodipodi:nodetypes="cccc" /><path
         d="m 2731.5,224 0,31.5 m 0,2054 0,-31.5"
         style="fill:none;stroke:#000000;stroke-width:5;stroke-linecap:butt;stroke-linejoin:miter;stroke-miterlimit:3.79999995;stroke-dasharray:none;stroke-opacity:1"
         id="path126"
         inkscape:connector-curvature="0" /><g
         id="g128"
         transform="scale(10,10)"><text
           transform="matrix(1,0,0,-1,271.204,13.1)"
           style="font-variant:normal;font-weight:normal;font-size:7px;font-family:Helvetica;-inkscape-font-specification:Helvetica;writing-mode:lr-tb;fill:#000000;fill-opacity:1;fill-rule:nonzero;stroke:none"
           id="text130"><tspan
             x="0"
             y="0"
             id="tspan132">1</tspan></text>
</g><path
         d="m 3226,224 0,2054.7856 m 0,-0.7856 0,31.5"
         style="fill:none;stroke:#000000;stroke-width:1.25;stroke-linecap:butt;stroke-linejoin:miter;stroke-miterlimit:3.79999995;stroke-dasharray:5, 10;stroke-dashoffset:0;stroke-opacity:1"
         id="path134"
         inkscape:connector-curvature="0"
         sodipodi:nodetypes="cccc" /><path
         d="m 3226,224 0,31.5 m 0,2054 0,-31.5"
         style="fill:none;stroke:#000000;stroke-width:5;stroke-linecap:butt;stroke-linejoin:miter;stroke-miterlimit:3.79999995;stroke-dasharray:none;stroke-opacity:1"
         id="path136"
         inkscape:connector-curvature="0" /><g
         id="g138"
         transform="scale(10,10)"><text
           transform="matrix(1,0,0,-1,317.736,13.1)"
           style="font-variant:normal;font-weight:normal;font-size:7px;font-family:Helvetica;-inkscape-font-specification:Helvetica;writing-mode:lr-tb;fill:#000000;fill-opacity:1;fill-rule:nonzero;stroke:none"
           id="text140"><tspan
             x="0 3.892 5.8379998"
             y="0"
             sodipodi:role="line"
             id="tspan142">1.2</tspan></text>
</g><path
         d="m 259,2309.5 0,-2085.5 3214.5,0 0,2085.5 -3214.5,0 z"
         style="fill:none;stroke:#000000;stroke-width:5;stroke-linecap:butt;stroke-linejoin:miter;stroke-miterlimit:3.79999995;stroke-dasharray:none;stroke-opacity:1"
         id="path144"
         inkscape:connector-curvature="0" /><g
         id="g146"
         transform="scale(10,10)"><text
           transform="matrix(0,1,1,0,7.9,86.5848)"
           style="font-variant:normal;font-weight:normal;font-size:7px;font-family:Helvetica;-inkscape-font-specification:Helvetica;writing-mode:lr-tb;fill:#000000;fill-opacity:1;fill-rule:nonzero;stroke:none"
           id="text148"><tspan
             x="0 5.0539999 7.3850002 11.277 12.831 16.723 18.669001 23.723 27.615 29.945999 32.277 36.168999 40.061001 42.007 43.952999 49.398998 53.291 55.237 59.129002 63.021 64.967003 66.913002 69.244003 73.136002 77.805"
             y="0"
             sodipodi:role="line"
             id="tspan150">Drain Current Output (uA)</tspan></text>
<text
           transform="matrix(1,0,0,-1,159.76,2.6)"
           style="font-variant:normal;font-weight:normal;font-size:7px;font-family:Helvetica;-inkscape-font-specification:Helvetica;writing-mode:lr-tb;fill:#000000;fill-opacity:1;fill-rule:nonzero;stroke:none"
           id="text152"><tspan
             x="0 5.0539999 7.3850002 11.277 12.831 16.723 18.669001 23.337999 27.23 28.784 30.73 34.622002 38.514 42.405998 44.352001 46.682999 51.352001"
             y="0"
             sodipodi:role="line"
             id="tspan154">Drain Voltage (V)</tspan><tspan
             x="-53.291401 -48.2374 -43.183399 -41.2374 -36.568401 -32.676399 -28.784401 -27.2304 -23.7304 -20.2304 -18.676399 -15.1764 -13.2304 -11.2844 -6.2304001 -3.8994 -0.0074 1.5466 5.4386001 7.3846002 12.4386 16.330601 18.6616 20.992599 24.8846 28.7766 30.722601 32.668598 38.114601 42.006599 43.952599 47.844601 51.736599 53.682598 55.628601 59.128601 62.628601 64.5746 69.628601 71.959602 75.851601 77.405602 81.2976 83.243599 87.912598 91.804604 93.358597 95.304604 99.196602 103.0886"
             y="-236.55"
             sodipodi:role="line"
             id="tspan156">DC Analysis: Drain Current Output vs Drain Voltage</tspan><tspan
             sodipodi:role="line"
             id="tspan158"
             x="0"
             y="0" /></text>
</g><path
         d="m 3473.5,319 -123.5,699 -124,518 -123.5,342.5 -123.5,184.5 -123.5,74.5 -124,25.5 -123.5,10.5 -123.5,5.5 -123.5,4 -124,3 -123.5,2.5 -123.5,2 -123.5,2 -124,2 -123.5,2 -123.5,2 -124,1.5 -123.5,2 -123.5,1.5 -123.5,2 -124,1.5 -123.5,1.5 -123.5,1.5 -123.5,1.5 -124,1.5 -123.5,1.5"
         style="fill:none;stroke:#ff0000;stroke-width:2.5;stroke-linecap:butt;stroke-linejoin:miter;stroke-miterlimit:3.79999995;stroke-dasharray:none;stroke-opacity:1"
         id="path160"
         inkscape:connector-curvature="0"
         sodipodi:nodetypes="ccccccccccccccccccccccccccc" /><path
         d="m 259,2309.5 0,-2085.5 3214.5,0 0,2085.5 -3214.5,0 z"
         style="fill:none;stroke:#000000;stroke-width:5;stroke-linecap:butt;stroke-linejoin:miter;stroke-miterlimit:3.79999995;stroke-dasharray:none;stroke-opacity:1"
         id="path162"
         inkscape:connector-curvature="0" /></g></g></svg>