<?xml version="1.0" encoding="UTF-8" standalone="no"?>
<svg
   xmlns:dc="http://purl.org/dc/elements/1.1/"
   xmlns:cc="http://creativecommons.org/ns#"
   xmlns:rdf="http://www.w3.org/1999/02/22-rdf-syntax-ns#"
   xmlns:svg="http://www.w3.org/2000/svg"
   xmlns="http://www.w3.org/2000/svg"
   xmlns:sodipodi="http://sodipodi.sourceforge.net/DTD/sodipodi-0.dtd"
   xmlns:inkscape="http://www.inkscape.org/namespaces/inkscape"
   version="1.1"
   width="3.2412822cm"
   height="3.5834446cm"
   viewBox="0 0 12760.954 14108.05"
   id="svg2"
   inkscape:version="0.92.5 (2060ec1f9f, 2020-04-08)"
   sodipodi:docname="sch.svg">
  <metadata
     id="metadata424">
    <rdf:RDF>
      <cc:Work
         rdf:about="">
        <dc:format>image/svg+xml</dc:format>
        <dc:type
           rdf:resource="http://purl.org/dc/dcmitype/StillImage" />
        <dc:title>SVG Picture created as wilson_current_mirror_lateral_pnp.svg date 2020/07/03 17:10:14 </dc:title>
      </cc:Work>
    </rdf:RDF>
  </metadata>
  <defs
     id="defs422" />
  <sodipodi:namedview
     pagecolor="#ffffff"
     bordercolor="#666666"
     borderopacity="1"
     objecttolerance="10"
     gridtolerance="10"
     guidetolerance="10"
     inkscape:pageopacity="1"
     inkscape:pageshadow="2"
     inkscape:window-width="1920"
     inkscape:window-height="1030"
     id="namedview420"
     showgrid="false"
     fit-margin-top="0"
     fit-margin-left="0"
     fit-margin-right="0"
     fit-margin-bottom="0"
     inkscape:zoom="3.0531972"
     inkscape:cx="29.071531"
     inkscape:cy="49.941475"
     inkscape:window-x="0"
     inkscape:window-y="0"
     inkscape:window-maximized="1"
     inkscape:current-layer="g100" />
  <title
     id="title4">SVG Picture created as wilson_current_mirror_lateral_pnp.svg date 2020/07/03 17:10:14 </title>
  <desc
     id="desc6">Picture generated by Eeschema-SVG </desc>
  <g
     style="fill:#000000;fill-opacity:1;stroke:#000000;stroke-linecap:round;stroke-linejoin:round;stroke-opacity:1"
     id="g8"
     transform="translate(-42679.593,-27421.953)" />
  <g
     style="fill:#000000;fill-opacity:0;stroke:#000000;stroke-width:0;stroke-linecap:round;stroke-linejoin:round;stroke-opacity:1"
     id="g10"
     transform="translate(-42679.593,-27421.953)">
    <g
       id="g12" />
    <g
       style="fill:#840000;fill-opacity:0;stroke:#840000;stroke-width:0;stroke-linecap:round;stroke-linejoin:round;stroke-opacity:1"
       id="g14" />
    <g
       style="fill:#840000;fill-opacity:0;stroke:#840000;stroke-width:60;stroke-linecap:round;stroke-linejoin:round;stroke-opacity:1"
       id="g16">
      <circle
         cx="44000"
         cy="28000"
         r="500"
         id="circle18" />
      <path
         style="fill:none;fill-opacity:0;stroke:#840000;stroke-width:60;stroke-linecap:round;stroke-linejoin:round;stroke-opacity:1"
         d="m 44000,28250 0,-500"
         id="path20"
         inkscape:connector-curvature="0" />
      <path
         style="fill:none;fill-opacity:0;stroke:#840000;stroke-width:60;stroke-linecap:round;stroke-linejoin:round;stroke-opacity:1"
         d="m 45000,28000 -500,0"
         id="path22"
         inkscape:connector-curvature="0" />
      <path
         style="fill:none;fill-opacity:0;stroke:#840000;stroke-width:60;stroke-linecap:round;stroke-linejoin:round;stroke-opacity:1"
         d="m 44250,28000 -500,0"
         id="path24"
         inkscape:connector-curvature="0" />
      <path
         d="m 45000,28000 0,0"
         id="path26"
         inkscape:connector-curvature="0" />
    </g>
    <g
       style="fill:#008484;fill-opacity:0;stroke:#008484;stroke-width:60;stroke-linecap:round;stroke-linejoin:round;stroke-opacity:1"
       id="g28">
      <g
         transform="matrix(0,-1,1,0,15000,70980)"
         id="g30">
        <text
           x="42990"
           y="28240"
           textLength="1110"
           font-size="660"
           lengthAdjust="spacingAndGlyphs"
           id="text32"
           style="font-size:660px;line-height:0%;text-anchor:middle;opacity:0">V+</text>
      </g>
      <path
         d="m 42710,28460 500,-170 -500,-160"
         id="path34"
         inkscape:connector-curvature="0" />
      <path
         d="m 43020,27960 0,-380"
         id="path36"
         inkscape:connector-curvature="0" />
      <path
         d="m 43210,27770 -380,0"
         id="path38"
         inkscape:connector-curvature="0" />
    </g>
  </g>
  <g
     style="fill:#008484;fill-opacity:0;stroke:#008484;stroke-width:0;stroke-linecap:round;stroke-linejoin:round;stroke-opacity:1"
     id="g40"
     transform="translate(-42679.593,-27421.953)">
    <g
       id="g42" />
    <g
       style="fill:#840000;fill-opacity:0;stroke:#840000;stroke-width:0;stroke-linecap:round;stroke-linejoin:round;stroke-opacity:1"
       id="g44" />
    <g
       style="fill:#840000;fill-opacity:0;stroke:#840000;stroke-width:60;stroke-linecap:round;stroke-linejoin:round;stroke-opacity:1"
       id="g46">
      <path
         style="fill:none;fill-opacity:0;stroke:#840000;stroke-width:60;stroke-linecap:round;stroke-linejoin:round;stroke-opacity:1"
         d="m 52500,34350 1000,400"
         id="path48"
         inkscape:connector-curvature="0" />
      <path
         style="fill:none;fill-opacity:0;stroke:#840000;stroke-width:60;stroke-linecap:round;stroke-linejoin:round;stroke-opacity:1"
         d="m 52500,34350 1000,400"
         id="path50"
         inkscape:connector-curvature="0" />
      <path
         style="fill:none;fill-opacity:0;stroke:#840000;stroke-width:60;stroke-linecap:round;stroke-linejoin:round;stroke-opacity:1"
         d="m 52500,34000 -500,0"
         id="path52"
         inkscape:connector-curvature="0" />
      <path
         style="fill:none;fill-opacity:0;stroke:#840000;stroke-width:60;stroke-linecap:round;stroke-linejoin:round;stroke-opacity:1"
         d="m 52500,34000 -500,0"
         id="path54"
         inkscape:connector-curvature="0" />
      <path
         style="fill:none;fill-opacity:0;stroke:#840000;stroke-width:60;stroke-linecap:round;stroke-linejoin:round;stroke-opacity:1"
         d="m 52500,33650 1000,-400"
         id="path56"
         inkscape:connector-curvature="0" />
      <path
         style="fill:none;fill-opacity:0;stroke:#840000;stroke-width:60;stroke-linecap:round;stroke-linejoin:round;stroke-opacity:1"
         d="m 52500,33650 1000,-400"
         id="path58"
         inkscape:connector-curvature="0" />
      <path
         style="fill:none;fill-opacity:0;stroke:#840000;stroke-width:60;stroke-linecap:round;stroke-linejoin:round;stroke-opacity:1"
         d="m 52500,33250 0,1500"
         id="path60"
         inkscape:connector-curvature="0" />
      <path
         style="fill:none;fill-opacity:0;stroke:#840000;stroke-width:60;stroke-linecap:round;stroke-linejoin:round;stroke-opacity:1"
         d="m 52500,33250 0,1500"
         id="path62"
         inkscape:connector-curvature="0" />
      <path
         style="fill:none;fill-opacity:0;stroke:#840000;stroke-width:60;stroke-linecap:round;stroke-linejoin:round;stroke-opacity:1"
         d="m 53000,33450 150,-350"
         id="path64"
         inkscape:connector-curvature="0" />
      <path
         style="fill:none;fill-opacity:0;stroke:#840000;stroke-width:60;stroke-linecap:round;stroke-linejoin:round;stroke-opacity:1"
         d="m 53000,33450 350,150"
         id="path66"
         inkscape:connector-curvature="0" />
      <path
         style="fill:none;fill-opacity:0;stroke:#840000;stroke-width:60;stroke-linecap:round;stroke-linejoin:round;stroke-opacity:1"
         d="m 53500,34750 0,250"
         id="path68"
         inkscape:connector-curvature="0" />
      <path
         style="fill:none;fill-opacity:0;stroke:#840000;stroke-width:60;stroke-linecap:round;stroke-linejoin:round;stroke-opacity:1"
         d="m 53500,34750 0,250"
         id="path70"
         inkscape:connector-curvature="0" />
      <path
         style="fill:none;fill-opacity:0;stroke:#840000;stroke-width:60;stroke-linecap:round;stroke-linejoin:round;stroke-opacity:1"
         d="m 53500,33250 0,-250"
         id="path72"
         inkscape:connector-curvature="0" />
      <path
         style="fill:none;fill-opacity:0;stroke:#840000;stroke-width:60;stroke-linecap:round;stroke-linejoin:round;stroke-opacity:1"
         d="m 53500,33250 0,-250"
         id="path74"
         inkscape:connector-curvature="0" />
      <path
         d="m 52000,34000 0,0"
         id="path76"
         inkscape:connector-curvature="0" />
      <path
         d="m 53500,35000 0,0"
         id="path78"
         inkscape:connector-curvature="0" />
      <path
         d="m 53500,33000 0,0"
         id="path80"
         inkscape:connector-curvature="0" />
    </g>
    <g
       style="fill:#008484;fill-opacity:0;stroke:#008484;stroke-width:60;stroke-linecap:round;stroke-linejoin:round;stroke-opacity:1"
       id="g82">
      <text
         x="54030"
         y="33240"
         textLength="1060"
         font-size="660"
         lengthAdjust="spacingAndGlyphs"
         id="text84"
         style="font-size:660px;line-height:0%;text-anchor:middle;opacity:0"
         transform="translate(34.117241,989.40006)">Q2</text>
      <path
         d="m 54014.117,34249.4 -50,-20 -50,-50 -70,-70 -50,-30 h -40"
         id="path86"
         inkscape:connector-curvature="0" />
      <path
         d="m 53774.117,34199.4 -50,-20 -50,-50 -20,-100 v -160 l 20,-100 50,-40 50,-30 h 90 l 50,30 50,40 20,100 v 160 l -20,100 -50,50 -50,20 h -90"
         id="path88"
         inkscape:connector-curvature="0" />
      <path
         d="m 54174.117,33749.4 30,-20 50,-30 h 110 l 50,30 30,20 20,50 v 40 l -20,80 -290,280 h 310"
         id="path90"
         inkscape:connector-curvature="0" />
    </g>
  </g>
  <g
     style="fill:#008484;fill-opacity:0;stroke:#008484;stroke-width:0;stroke-linecap:round;stroke-linejoin:round;stroke-opacity:1"
     id="g100"
     transform="translate(-42679.593,-27421.953)">
    <g
       id="g102" />
    <g
       style="fill:#840000;fill-opacity:0;stroke:#840000;stroke-width:0;stroke-linecap:round;stroke-linejoin:round;stroke-opacity:1"
       id="g104" />
    <g
       style="fill:#840000;fill-opacity:0;stroke:#840000;stroke-width:60;stroke-linecap:round;stroke-linejoin:round;stroke-opacity:1"
       id="g106">
      <path
         style="fill:none;fill-opacity:0;stroke:#840000;stroke-width:60;stroke-linecap:round;stroke-linejoin:round;stroke-opacity:1"
         d="m 52000,29350 -1000,400"
         id="path108"
         inkscape:connector-curvature="0" />
      <path
         style="fill:none;fill-opacity:0;stroke:#840000;stroke-width:60;stroke-linecap:round;stroke-linejoin:round;stroke-opacity:1"
         d="m 52000,29100 -1000,400"
         id="path110"
         inkscape:connector-curvature="0" />
      <path
         style="fill:none;fill-opacity:0;stroke:#840000;stroke-width:60;stroke-linecap:round;stroke-linejoin:round;stroke-opacity:1"
         d="m 52000,29000 500,0"
         id="path112"
         inkscape:connector-curvature="0" />
      <path
         style="fill:none;fill-opacity:0;stroke:#840000;stroke-width:60;stroke-linecap:round;stroke-linejoin:round;stroke-opacity:1"
         d="m 52000,29000 500,0"
         id="path114"
         inkscape:connector-curvature="0" />
      <path
         style="fill:none;fill-opacity:0;stroke:#840000;stroke-width:60;stroke-linecap:round;stroke-linejoin:round;stroke-opacity:1"
         d="m 52000,28650 -1000,-400"
         id="path116"
         inkscape:connector-curvature="0" />
      <path
         style="fill:none;fill-opacity:0;stroke:#840000;stroke-width:60;stroke-linecap:round;stroke-linejoin:round;stroke-opacity:1"
         d="m 52000,28650 -1000,-400"
         id="path118"
         inkscape:connector-curvature="0" />
      <path
         style="fill:none;fill-opacity:0;stroke:#840000;stroke-width:60;stroke-linecap:round;stroke-linejoin:round;stroke-opacity:1"
         d="m 52000,28250 0,1500"
         id="path120"
         inkscape:connector-curvature="0" />
      <path
         style="fill:none;fill-opacity:0;stroke:#840000;stroke-width:60;stroke-linecap:round;stroke-linejoin:round;stroke-opacity:1"
         d="m 52000,28250 0,1500"
         id="path122"
         inkscape:connector-curvature="0" />
      <path
         style="fill:none;fill-opacity:0;stroke:#840000;stroke-width:60;stroke-linecap:round;stroke-linejoin:round;stroke-opacity:1"
         d="m 51750,28550 -150,-350"
         id="path124"
         inkscape:connector-curvature="0" />
      <path
         style="fill:none;fill-opacity:0;stroke:#840000;stroke-width:60;stroke-linecap:round;stroke-linejoin:round;stroke-opacity:1"
         d="m 51750,28550 -350,150"
         id="path126"
         inkscape:connector-curvature="0" />
    </g>
    <g
       style="fill:#840000;fill-opacity:0;stroke:#840000;stroke-width:100;stroke-linecap:round;stroke-linejoin:round;stroke-opacity:1"
       id="g128">
      <path
         style="fill:none;fill-opacity:0;stroke:#840000;stroke-width:100;stroke-linecap:round;stroke-linejoin:round;stroke-opacity:1"
         d="M 51000,30000 Z"
         id="path130"
         inkscape:connector-curvature="0" />
    </g>
    <g
       style="fill:#840000;fill-opacity:0;stroke:#840000;stroke-width:60;stroke-linecap:round;stroke-linejoin:round;stroke-opacity:1"
       id="g132">
      <path
         style="fill:none;fill-opacity:0;stroke:#840000;stroke-width:60;stroke-linecap:round;stroke-linejoin:round;stroke-opacity:1"
         d="m 51000,29750 0,250"
         id="path134"
         inkscape:connector-curvature="0" />
      <path
         style="fill:none;fill-opacity:0;stroke:#840000;stroke-width:60;stroke-linecap:round;stroke-linejoin:round;stroke-opacity:1"
         d="m 51000,28250 0,-250"
         id="path136"
         inkscape:connector-curvature="0" />
      <path
         style="fill:none;fill-opacity:0;stroke:#840000;stroke-width:60;stroke-linecap:round;stroke-linejoin:round;stroke-opacity:1"
         d="m 51000,28250 0,-250"
         id="path138"
         inkscape:connector-curvature="0" />
      <path
         d="m 52500,29000 0,0"
         id="path140"
         inkscape:connector-curvature="0" />
      <path
         d="m 51000,30000 0,0"
         id="path142"
         inkscape:connector-curvature="0" />
      <path
         d="m 51000,29500 0,0"
         id="path144"
         inkscape:connector-curvature="0" />
      <path
         d="m 51000,28000 0,0"
         id="path146"
         inkscape:connector-curvature="0" />
    </g>
    <g
       style="fill:#008484;fill-opacity:0;stroke:#008484;stroke-width:60;stroke-linecap:round;stroke-linejoin:round;stroke-opacity:1"
       id="g148"
       transform="translate(-303.4253,-136.46897)">
      <text
         x="51000"
         y="29270"
         textLength="1060"
         font-size="660"
         lengthAdjust="spacingAndGlyphs"
         id="text150"
         style="font-size:660px;line-height:0%;text-anchor:middle;opacity:0">Q1</text>
      <path
         d="m 50950,29290 -50,-20 -50,-50 -70,-70 -50,-30 h -40"
         id="path152"
         inkscape:connector-curvature="0" />
      <path
         d="m 50710,29240 -50,-20 -50,-50 -20,-100 v -160 l 20,-100 50,-40 50,-30 h 90 l 50,30 50,40 20,100 v 160 l -20,100 -50,50 -50,20 h -90"
         id="path154"
         inkscape:connector-curvature="0" />
      <path
         d="m 51400,29240 h -290"
         id="path156"
         inkscape:connector-curvature="0" />
      <path
         d="m 51260,29240 v -500 l -50,70 -50,50 -50,20"
         id="path158"
         inkscape:connector-curvature="0" />
    </g>
  </g>
  <g
     style="fill:#008484;fill-opacity:0;stroke:#008484;stroke-width:0;stroke-linecap:round;stroke-linejoin:round;stroke-opacity:1"
     id="g160"
     transform="translate(-42679.593,-27421.953)">
    <g
       id="g162" />
    <g
       style="fill:#840000;fill-opacity:0;stroke:#840000;stroke-width:0;stroke-linecap:round;stroke-linejoin:round;stroke-opacity:1"
       id="g164" />
    <g
       style="fill:#840000;fill-opacity:0;stroke:#840000;stroke-width:60;stroke-linecap:round;stroke-linejoin:round;stroke-opacity:1"
       id="g166">
      <path
         style="fill:none;fill-opacity:0;stroke:#840000;stroke-width:60;stroke-linecap:round;stroke-linejoin:round;stroke-opacity:1"
         d="m 48250,41000 1500,0"
         id="path168"
         inkscape:connector-curvature="0" />
      <path
         style="fill:none;fill-opacity:0;stroke:#840000;stroke-width:60;stroke-linecap:round;stroke-linejoin:round;stroke-opacity:1"
         d="m 48500,41250 1000,0"
         id="path170"
         inkscape:connector-curvature="0" />
      <path
         style="fill:none;fill-opacity:0;stroke:#840000;stroke-width:60;stroke-linecap:round;stroke-linejoin:round;stroke-opacity:1"
         d="m 48750,41500 500,0"
         id="path172"
         inkscape:connector-curvature="0" />
      <path
         style="fill:none;fill-opacity:0;stroke:#840000;stroke-width:60;stroke-linecap:round;stroke-linejoin:round;stroke-opacity:1"
         d="m 49000,40000 0,1000"
         id="path174"
         inkscape:connector-curvature="0" />
      <path
         d="m 49000,40000 0,0"
         id="path176"
         inkscape:connector-curvature="0" />
    </g>
  </g>
  <g
     style="fill:#840000;fill-opacity:0;stroke:#840000;stroke-width:0;stroke-linecap:round;stroke-linejoin:round;stroke-opacity:1"
     id="g178"
     transform="translate(-42679.593,-27421.953)">
    <g
       id="g180" />
    <g
       style="fill:#840000;fill-opacity:0;stroke:#840000;stroke-width:60;stroke-linecap:round;stroke-linejoin:round;stroke-opacity:1"
       id="g182">
      <circle
         cx="46000"
         cy="34000"
         r="750"
         id="circle184" />
      <path
         style="fill:none;fill-opacity:0;stroke:#840000;stroke-width:60;stroke-linecap:round;stroke-linejoin:round;stroke-opacity:1"
         d="m 45750,34350 500,0"
         id="path186"
         inkscape:connector-curvature="0" />
      <path
         style="fill:none;fill-opacity:0;stroke:#840000;stroke-width:60;stroke-linecap:round;stroke-linejoin:round;stroke-opacity:1"
         d="m 46000,34750 0,250"
         id="path188"
         inkscape:connector-curvature="0" />
      <path
         style="fill:none;fill-opacity:0;stroke:#840000;stroke-width:60;stroke-linecap:round;stroke-linejoin:round;stroke-opacity:1"
         d="m 46000,34000 0,-500"
         id="path190"
         inkscape:connector-curvature="0" />
      <path
         style="fill:none;fill-opacity:0;stroke:#840000;stroke-width:60;stroke-linecap:round;stroke-linejoin:round;stroke-opacity:1"
         d="m 46000,33250 0,-250"
         id="path192"
         inkscape:connector-curvature="0" />
      <path
         style="fill:none;fill-opacity:0;stroke:#840000;stroke-width:60;stroke-linecap:round;stroke-linejoin:round;stroke-opacity:1"
         d="m 46250,33750 -500,0"
         id="path194"
         inkscape:connector-curvature="0" />
      <path
         d="m 46000,33000 0,0"
         id="path196"
         inkscape:connector-curvature="0" />
      <path
         d="m 46000,35000 0,0"
         id="path198"
         inkscape:connector-curvature="0" />
    </g>
    <g
       style="fill:#008484;fill-opacity:0;stroke:#008484;stroke-width:60;stroke-linecap:round;stroke-linejoin:round;stroke-opacity:1"
       id="g200">
      <text
         x="44520"
         y="33490"
         textLength="960"
         font-size="660"
         lengthAdjust="spacingAndGlyphs"
         id="text202"
         style="font-size:660px;line-height:0%;text-anchor:middle;opacity:0"
         transform="translate(136.46897,750.57933)">V1</text>
      <path
         d="m 44246.469,33710.579 170,500 160,-500"
         id="path204"
         inkscape:connector-curvature="0" />
      <path
         d="m 45006.469,34210.579 h -280"
         id="path206"
         inkscape:connector-curvature="0" />
      <path
         d="m 44866.469,34210.579 v -500 l -50,70 -50,50 -40,20"
         id="path208"
         inkscape:connector-curvature="0" />
    </g>
  </g>
  <g
     style="fill:#008484;fill-opacity:0;stroke:#008484;stroke-width:0;stroke-linecap:round;stroke-linejoin:round;stroke-opacity:1"
     id="g216"
     transform="translate(-42679.593,-27421.953)">
    <g
       id="g218" />
    <g
       style="fill:#840000;fill-opacity:0;stroke:#840000;stroke-width:0;stroke-linecap:round;stroke-linejoin:round;stroke-opacity:1"
       id="g220" />
    <g
       style="fill:#840000;fill-opacity:0;stroke:#840000;stroke-width:60;stroke-linecap:round;stroke-linejoin:round;stroke-opacity:1"
       id="g222">
      <circle
         cx="53500"
         cy="37000"
         r="750"
         id="circle224" />
      <path
         style="fill:none;fill-opacity:0;stroke:#840000;stroke-width:60;stroke-linecap:round;stroke-linejoin:round;stroke-opacity:1"
         d="m 53250,37350 500,0"
         id="path226"
         inkscape:connector-curvature="0" />
      <path
         style="fill:none;fill-opacity:0;stroke:#840000;stroke-width:60;stroke-linecap:round;stroke-linejoin:round;stroke-opacity:1"
         d="m 53500,37750 0,250"
         id="path228"
         inkscape:connector-curvature="0" />
      <path
         style="fill:none;fill-opacity:0;stroke:#840000;stroke-width:60;stroke-linecap:round;stroke-linejoin:round;stroke-opacity:1"
         d="m 53500,37000 0,-500"
         id="path230"
         inkscape:connector-curvature="0" />
      <path
         style="fill:none;fill-opacity:0;stroke:#840000;stroke-width:60;stroke-linecap:round;stroke-linejoin:round;stroke-opacity:1"
         d="m 53500,36250 0,-250"
         id="path232"
         inkscape:connector-curvature="0" />
      <path
         style="fill:none;fill-opacity:0;stroke:#840000;stroke-width:60;stroke-linecap:round;stroke-linejoin:round;stroke-opacity:1"
         d="m 53750,36750 -500,0"
         id="path234"
         inkscape:connector-curvature="0" />
      <path
         d="m 53500,36000 0,0"
         id="path236"
         inkscape:connector-curvature="0" />
      <path
         d="m 53500,38000 0,0"
         id="path238"
         inkscape:connector-curvature="0" />
    </g>
    <g
       style="fill:#008484;fill-opacity:0;stroke:#008484;stroke-width:60;stroke-linecap:round;stroke-linejoin:round;stroke-opacity:1"
       id="g240"
       transform="translate(-102.35173,750.57933)">
      <text
         x="54980"
         y="36490"
         textLength="960"
         font-size="660"
         lengthAdjust="spacingAndGlyphs"
         id="text242"
         style="font-size:660px;line-height:0%;text-anchor:middle;opacity:0">V2</text>
      <path
         d="m 54570,35960 170,500 160,-500"
         id="path244"
         inkscape:connector-curvature="0" />
      <path
         d="m 55050,36010 20,-20 50,-30 h 120 l 40,30 30,20 20,50 v 40 l -20,80 -290,280 h 310"
         id="path246"
         inkscape:connector-curvature="0" />
    </g>
  </g>
  <g
     style="fill:#008484;fill-opacity:0;stroke:#008484;stroke-width:0;stroke-linecap:round;stroke-linejoin:round;stroke-opacity:1"
     id="g256"
     transform="translate(-42679.593,-27421.953)">
    <g
       id="g258" />
    <g
       style="fill:#840000;fill-opacity:0;stroke:#840000;stroke-width:0;stroke-linecap:round;stroke-linejoin:round;stroke-opacity:1"
       id="g260" />
    <g
       style="fill:#840000;fill-opacity:0;stroke:#840000;stroke-width:60;stroke-linecap:round;stroke-linejoin:round;stroke-opacity:1"
       id="g262">
      <circle
         cx="49000"
         cy="37000"
         r="750"
         id="circle264" />
      <path
         style="fill:none;fill-opacity:0;stroke:#840000;stroke-width:60;stroke-linecap:round;stroke-linejoin:round;stroke-opacity:1"
         d="m 49000,37750 0,250"
         id="path266"
         inkscape:connector-curvature="0" />
      <path
         style="fill:none;fill-opacity:0;stroke:#840000;stroke-width:60;stroke-linecap:round;stroke-linejoin:round;stroke-opacity:1"
         d="m 49000,36250 0,-250"
         id="path268"
         inkscape:connector-curvature="0" />
    </g>
    <g
       style="fill:#840000;fill-opacity:1;stroke:#840000;stroke-width:60;stroke-linecap:round;stroke-linejoin:round;stroke-opacity:1"
       id="g270">
      <path
         style="fill:#840000;fill-opacity:1;fill-rule:evenodd;stroke:#840000;stroke-width:60;stroke-linecap:round;stroke-linejoin:round;stroke-opacity:1"
         d="m 49000,36500 0,1000 -250,-500 500,0 -250,500"
         id="path272"
         inkscape:connector-curvature="0" />
    </g>
    <g
       style="fill:#840000;fill-opacity:0;stroke:#840000;stroke-width:60;stroke-linecap:round;stroke-linejoin:round;stroke-opacity:1"
       id="g274">
      <path
         d="m 49000,36000 0,0"
         id="path276"
         inkscape:connector-curvature="0" />
      <path
         d="m 49000,38000 0,0"
         id="path278"
         inkscape:connector-curvature="0" />
    </g>
    <g
       style="fill:#008484;fill-opacity:0;stroke:#008484;stroke-width:60;stroke-linecap:round;stroke-linejoin:round;stroke-opacity:1"
       id="g280">
      <text
         x="50380"
         y="36490"
         textLength="770"
         font-size="660"
         lengthAdjust="spacingAndGlyphs"
         id="text282"
         style="font-size:660px;line-height:0%;text-anchor:middle;opacity:0"
         transform="translate(-102.35173,818.81382)">I1</text>
      <path
         d="m 50037.648,37278.814 v -500"
         id="path284"
         inkscape:connector-curvature="0" />
      <path
         d="m 50537.648,37278.814 h -290"
         id="path286"
         inkscape:connector-curvature="0" />
      <path
         d="m 50387.648,37278.814 v -500 l -40,70 -50,50 -50,20"
         id="path288"
         inkscape:connector-curvature="0" />
    </g>
  </g>
  <g
     style="fill:#008484;fill-opacity:0;stroke:#008484;stroke-width:60;stroke-linecap:round;stroke-linejoin:round;stroke-opacity:1"
     id="g304"
     transform="translate(-42679.593,-27421.953)" />
  <g
     style="fill:#008400;fill-opacity:0;stroke:#008400;stroke-width:60;stroke-linecap:round;stroke-linejoin:round;stroke-opacity:1"
     id="g306"
     transform="translate(-42679.593,-27421.953)">
    <path
       d="m 51000,30000 0,2000"
       id="path308"
       inkscape:connector-curvature="0" />
    <path
       d="m 53500,29000 0,3000"
       id="path310"
       inkscape:connector-curvature="0" />
    <path
       d="m 53500,32000 0,1000"
       id="path312"
       inkscape:connector-curvature="0" />
    <path
       d="m 49000,29500 0,4500"
       id="path314"
       inkscape:connector-curvature="0" />
    <path
       d="m 49000,29500 2000,0"
       id="path316"
       inkscape:connector-curvature="0" />
    <path
       d="m 46000,28000 5000,0"
       id="path318"
       inkscape:connector-curvature="0" />
    <path
       d="m 49000,39000 0,1000"
       id="path320"
       inkscape:connector-curvature="0" />
    <path
       d="m 49000,39000 4500,0"
       id="path322"
       inkscape:connector-curvature="0" />
    <path
       d="m 49000,34000 0,2000"
       id="path324"
       inkscape:connector-curvature="0" />
    <path
       d="m 51000,32000 2500,0"
       id="path326"
       inkscape:connector-curvature="0" />
    <path
       d="m 46000,28000 0,5000"
       id="path328"
       inkscape:connector-curvature="0" />
    <path
       d="m 45000,28000 1000,0"
       id="path330"
       inkscape:connector-curvature="0" />
    <path
       d="m 53500,36000 0,-1000"
       id="path332"
       inkscape:connector-curvature="0" />
    <path
       d="m 49000,38000 0,1000"
       id="path334"
       inkscape:connector-curvature="0" />
    <path
       d="m 53500,39000 0,-1000"
       id="path336"
       inkscape:connector-curvature="0" />
    <path
       d="m 46000,39000 3000,0"
       id="path338"
       inkscape:connector-curvature="0" />
    <path
       d="m 46000,35000 0,4000"
       id="path340"
       inkscape:connector-curvature="0" />
    <path
       d="m 49000,34000 3000,0"
       id="path342"
       inkscape:connector-curvature="0" />
    <path
       d="m 52500,29000 1000,0"
       id="path344"
       inkscape:connector-curvature="0" />
  </g>
  <g
     style="fill:#000000;fill-opacity:0;stroke:#000000;stroke-width:60;stroke-linecap:round;stroke-linejoin:round;stroke-opacity:1"
     id="g346"
     transform="translate(-42679.593,-27421.953)">
    <text
       x="49000"
       y="33900"
       textLength="1170"
       font-size="800"
       lengthAdjust="spacingAndGlyphs"
       id="text348"
       style="font-size:800px;line-height:0%;text-anchor:start;opacity:0">n3</text>
    <path
       d="m 49170,33470 0,400"
       id="path350"
       inkscape:connector-curvature="0" />
    <path
       d="m 49170,33520 30,-20 50,-30 90,0 60,30 30,50 0,320"
       id="path352"
       inkscape:connector-curvature="0" />
    <path
       d="m 49650,33270 380,0 -200,230 80,0 60,20 30,30 30,60 0,140 -30,60 -30,30 -60,30 -170,0 -60,-30 -30,-30"
       id="path354"
       inkscape:connector-curvature="0" />
    <text
       x="53500"
       y="35900"
       textLength="1170"
       font-size="800"
       lengthAdjust="spacingAndGlyphs"
       id="text356"
       style="font-size:800px;line-height:0%;text-anchor:end;opacity:0">n2</text>
    <path
       d="m 52490,35470 0,400"
       id="path358"
       inkscape:connector-curvature="0" />
    <path
       d="m 52490,35520 30,-20 60,-30 90,0 50,30 30,50 0,320"
       id="path360"
       inkscape:connector-curvature="0" />
    <path
       d="m 53010,35320 30,-20 50,-30 150,0 50,30 30,20 30,60 0,60 -30,80 -340,350 370,0"
       id="path362"
       inkscape:connector-curvature="0" />
    <text
       x="53500"
       y="31900"
       textLength="1170"
       font-size="800"
       lengthAdjust="spacingAndGlyphs"
       id="text364"
       style="font-size:800px;line-height:0%;text-anchor:end;opacity:0">n1</text>
    <path
       d="m 52490,31470 0,400"
       id="path366"
       inkscape:connector-curvature="0" />
    <path
       d="m 52490,31520 30,-20 60,-30 90,0 50,30 30,50 0,320"
       id="path368"
       inkscape:connector-curvature="0" />
    <path
       d="m 53350,31870 -340,0"
       id="path370"
       inkscape:connector-curvature="0" />
    <path
       d="m 53180,31870 0,-600 -60,80 -50,60 -60,30"
       id="path372"
       inkscape:connector-curvature="0" />
    <text
       x="49000"
       y="38900"
       textLength="630"
       font-size="800"
       lengthAdjust="spacingAndGlyphs"
       id="text374"
       style="font-size:800px;line-height:0%;text-anchor:start;opacity:0">0</text>
    <path
       d="m 49280,38270 60,0 60,30 30,20 20,60 30,120 0,140 -30,110 -20,60 -30,30 -60,30 -60,0 -50,-30 -30,-30 -30,-60 -30,-110 0,-140 30,-120 30,-60 30,-20 50,-30"
       id="path376"
       inkscape:connector-curvature="0" />
    <text
       x="47000"
       y="27900"
       textLength="2630"
       font-size="800"
       lengthAdjust="spacingAndGlyphs"
       id="text378"
       style="font-size:800px;line-height:0%;text-anchor:start;opacity:0">n_pos</text>
    <path
       d="m 47170,27470 0,400"
       id="path380"
       inkscape:connector-curvature="0" />
    <path
       d="m 47170,27520 30,-20 50,-30 90,0 60,30 30,50 0,320"
       id="path382"
       inkscape:connector-curvature="0" />
    <path
       d="m 47570,27920 460,0"
       id="path384"
       inkscape:connector-curvature="0" />
    <path
       d="m 48170,27470 0,600"
       id="path386"
       inkscape:connector-curvature="0" />
    <path
       d="m 48170,27500 60,-30 110,0 60,30 30,20 20,60 0,170 -20,60 -30,30 -60,30 -110,0 -60,-30"
       id="path388"
       inkscape:connector-curvature="0" />
    <path
       d="m 48800,27870 -60,-30 -30,-30 -30,-60 0,-170 30,-60 30,-20 60,-30 80,0 60,30 30,20 30,60 0,170 -30,60 -30,30 -60,30 -80,0"
       id="path390"
       inkscape:connector-curvature="0" />
    <path
       d="m 49230,27840 50,30 120,0 50,-30 30,-60 0,-30 -30,-50 -50,-30 -90,0 -60,-30 -20,-60 0,-30 20,-50 60,-30 90,0 50,30"
       id="path392"
       inkscape:connector-curvature="0" />
  </g>
  <g
     style="fill:#000000;fill-opacity:0;stroke:#000000;stroke-width:0;stroke-linecap:round;stroke-linejoin:round;stroke-opacity:1"
     id="g394"
     transform="translate(-42679.593,-27421.953)" />
  <g
     style="fill:#008400;fill-opacity:0;stroke:#008400;stroke-width:0;stroke-linecap:round;stroke-linejoin:round;stroke-opacity:1"
     id="g396"
     transform="translate(-42679.593,-27421.953)" />
  <g
     style="fill:#008400;fill-opacity:1;stroke:#008400;stroke-width:100;stroke-linecap:round;stroke-linejoin:round;stroke-opacity:1"
     id="g398"
     transform="translate(-42679.593,-27421.953)">
    <circle
       cx="46000"
       cy="28000"
       r="200"
       id="circle400" />
  </g>
  <g
     style="fill:#008400;fill-opacity:1;stroke:#008400;stroke-width:0;stroke-linecap:round;stroke-linejoin:round;stroke-opacity:1"
     id="g402"
     transform="translate(-42679.593,-27421.953)" />
  <g
     style="fill:#008400;fill-opacity:1;stroke:#008400;stroke-width:100;stroke-linecap:round;stroke-linejoin:round;stroke-opacity:1"
     id="g404"
     transform="translate(-42679.593,-27421.953)">
    <circle
       cx="49000"
       cy="39000"
       r="200"
       id="circle406" />
  </g>
  <g
     style="fill:#008400;fill-opacity:1;stroke:#008400;stroke-width:0;stroke-linecap:round;stroke-linejoin:round;stroke-opacity:1"
     id="g408"
     transform="translate(-42679.593,-27421.953)" />
  <g
     style="fill:#008400;fill-opacity:1;stroke:#008400;stroke-width:100;stroke-linecap:round;stroke-linejoin:round;stroke-opacity:1"
     id="g410"
     transform="translate(-42679.593,-27421.953)">
    <circle
       cx="49000"
       cy="34000"
       r="200"
       id="circle412" />
  </g>
  <g
     style="fill:#008400;fill-opacity:1;stroke:#008400;stroke-width:0;stroke-linecap:round;stroke-linejoin:round;stroke-opacity:1"
     id="g414"
     transform="translate(-42679.593,-27421.953)" />
  <g
     style="fill:#008400;fill-opacity:1;stroke:#008400;stroke-width:100;stroke-linecap:round;stroke-linejoin:round;stroke-opacity:1"
     id="g416"
     transform="translate(-42679.593,-27421.953)">
    <circle
       cx="53500"
       cy="32000"
       r="200"
       id="circle418" />
  </g>
</svg>
