<?xml version="1.0" encoding="UTF-8" standalone="no"?>
<!-- Created with Inkscape (http://www.inkscape.org/) -->

<svg
   xmlns:dc="http://purl.org/dc/elements/1.1/"
   xmlns:cc="http://creativecommons.org/ns#"
   xmlns:rdf="http://www.w3.org/1999/02/22-rdf-syntax-ns#"
   xmlns:svg="http://www.w3.org/2000/svg"
   xmlns="http://www.w3.org/2000/svg"
   xmlns:sodipodi="http://sodipodi.sourceforge.net/DTD/sodipodi-0.dtd"
   xmlns:inkscape="http://www.inkscape.org/namespaces/inkscape"
   id="svg2"
   version="1.1"
   inkscape:version="0.92.5 (2060ec1f9f, 2020-04-08)"
   xml:space="preserve"
   width="691.94189"
   height="410.51666"
   viewBox="0 0 691.94189 410.51665"
   sodipodi:docname="dc_analysis_small_signal_gmw_veff_vbs.svg"><metadata
     id="metadata8"><rdf:RDF><cc:Work
         rdf:about=""><dc:format>image/svg+xml</dc:format><dc:type
           rdf:resource="http://purl.org/dc/dcmitype/StillImage" /><dc:title /></cc:Work></rdf:RDF></metadata><defs
     id="defs6" /><sodipodi:namedview
     pagecolor="#ffffff"
     bordercolor="#666666"
     borderopacity="1"
     objecttolerance="10"
     gridtolerance="10"
     guidetolerance="10"
     inkscape:pageopacity="1"
     inkscape:pageshadow="2"
     inkscape:window-width="1920"
     inkscape:window-height="1031"
     id="namedview4"
     showgrid="true"
     inkscape:zoom="1"
     inkscape:cx="267.80999"
     inkscape:cy="-1.1871284"
     inkscape:window-x="0"
     inkscape:window-y="0"
     inkscape:window-maximized="1"
     inkscape:current-layer="g10"
     fit-margin-top="5"
     fit-margin-left="5"
     fit-margin-right="5"
     fit-margin-bottom="5"><inkscape:grid
       type="xygrid"
       id="grid4765"
       color="#e0e0e0"
       opacity="1"
       empcolor="#e0e0e0"
       empopacity="1"
       dotted="true"
       originx="-748.69148"
       originy="120.28818" /></sodipodi:namedview><g
     id="g10"
     inkscape:groupmode="layer"
     inkscape:label="ink_ext_XXXXXX"
     transform="matrix(1.25,0,0,-1.25,-748.69148,290.22854)"><path
   inkscape:connector-curvature="0"
   id="path10323-4"
   style="fill:none;stroke:#c0c0c0;stroke-width:0.80000007;stroke-linecap:butt;stroke-linejoin:miter;stroke-miterlimit:10;stroke-dasharray:0.8, 0.8;stroke-dashoffset:0;stroke-opacity:1"
   d="M 646.03904,-64.01094 H 1092.2488" /><g
   transform="translate(539.03815,-161.9119)"
   id="g6539"><text
   id="text6541"
   style="font-variant:normal;font-weight:normal;line-height:0%;font-family:Helvetica;-inkscape-font-specification:Helvetica;writing-mode:lr-tb;fill:#000000;fill-opacity:1;fill-rule:nonzero;stroke:none"
   transform="matrix(1,0,0,-1,94,87)"><tspan
     id="tspan6543"
     sodipodi:role="line"
     y="0"
     x="0 5.8400002 11.4 14.18"
     style="font-size:10px;line-height:1.25">−0.6</tspan></text>



</g><g
   transform="translate(539.64821,-161.9119)"
   id="g6547"><text
   id="text6549"
   style="font-variant:normal;font-weight:normal;line-height:0%;font-family:Helvetica;-inkscape-font-specification:Helvetica;writing-mode:lr-tb;fill:#000000;fill-opacity:1;fill-rule:nonzero;stroke:none"
   transform="matrix(1,0,0,-1,156,87)"><tspan
     id="tspan6551"
     sodipodi:role="line"
     y="0"
     x="0 5.8400002 11.4 14.18"
     style="font-size:10px;line-height:1.25">−0.4</tspan></text>



</g><g
   transform="translate(539.03815,-161.9119)"
   id="g6555"><text
   id="text6557"
   style="font-variant:normal;font-weight:normal;line-height:0%;font-family:Helvetica;-inkscape-font-specification:Helvetica;writing-mode:lr-tb;fill:#000000;fill-opacity:1;fill-rule:nonzero;stroke:none"
   transform="matrix(1,0,0,-1,218,87)"><tspan
     id="tspan6559"
     sodipodi:role="line"
     y="0"
     x="0 5.8400002 11.4 14.18"
     style="font-size:10px;line-height:1.25">−0.2</tspan></text>



</g><g
   transform="translate(539.17957,-161.9119)"
   id="g6563"><text
   id="text6565"
   style="font-variant:normal;font-weight:normal;line-height:0%;font-family:Helvetica;-inkscape-font-specification:Helvetica;writing-mode:lr-tb;fill:#000000;fill-opacity:1;fill-rule:nonzero;stroke:none"
   transform="matrix(1,0,0,-1,280,87)"><tspan
     id="tspan6567"
     sodipodi:role="line"
     y="0"
     x="0 5.8400002 11.4 14.18"
     style="font-size:10px;line-height:1.25">−0.0</tspan></text>



</g><g
   transform="translate(542.37957,-161.9119)"
   id="g6571"><text
   id="text6573"
   style="font-variant:normal;font-weight:normal;line-height:0%;font-family:Helvetica;-inkscape-font-specification:Helvetica;writing-mode:lr-tb;fill:#000000;fill-opacity:1;fill-rule:nonzero;stroke:none"
   transform="matrix(1,0,0,-1,345,87)"><tspan
     id="tspan6575"
     sodipodi:role="line"
     y="0"
     x="0 5.5599999 8.3400002"
     style="font-size:10px;line-height:1.25">0.2</tspan></text>



</g><g
   transform="translate(542.37957,-161.9119)"
   id="g6579"><text
   id="text6581"
   style="font-variant:normal;font-weight:normal;line-height:0%;font-family:Helvetica;-inkscape-font-specification:Helvetica;writing-mode:lr-tb;fill:#000000;fill-opacity:1;fill-rule:nonzero;stroke:none"
   transform="matrix(1,0,0,-1,407,87)"><tspan
     id="tspan6583"
     sodipodi:role="line"
     y="0"
     x="0 5.5599999 8.3400002"
     style="font-size:10px;line-height:1.25">0.4</tspan></text>



</g><g
   transform="translate(542.09673,-161.9119)"
   id="g6587"><text
   id="text6589"
   style="font-variant:normal;font-weight:normal;line-height:0%;font-family:Helvetica;-inkscape-font-specification:Helvetica;writing-mode:lr-tb;fill:#000000;fill-opacity:1;fill-rule:nonzero;stroke:none"
   transform="matrix(1,0,0,-1,469,87)"><tspan
     id="tspan6591"
     sodipodi:role="line"
     y="0"
     x="0 5.5599999 8.3400002"
     style="font-size:10px;line-height:1.25">0.6</tspan></text>



</g><g
   transform="translate(542.23815,-161.9119)"
   id="g6595"><text
   id="text6597"
   style="font-variant:normal;font-weight:normal;line-height:0%;font-family:Helvetica;-inkscape-font-specification:Helvetica;writing-mode:lr-tb;fill:#000000;fill-opacity:1;fill-rule:nonzero;stroke:none"
   transform="matrix(1,0,0,-1,531,87)"><tspan
     id="tspan6599"
     sodipodi:role="line"
     y="0"
     x="0 5.5599999 8.3400002"
     style="font-size:10px;line-height:1.25">0.8</tspan></text>



</g><g
   transform="translate(542.09673,-161.9119)"
   id="g6603"><text
   id="text6605"
   style="font-variant:normal;font-weight:normal;line-height:0%;font-family:Helvetica;-inkscape-font-specification:Helvetica;writing-mode:lr-tb;fill:#000000;fill-opacity:1;fill-rule:nonzero;stroke:none"
   transform="matrix(1,0,0,-1,593,87)"><tspan
     id="tspan6609"
     sodipodi:role="line"
     y="0"
     x="0"
     style="font-size:10px;line-height:1.25">1.0</tspan></text>



</g><path
   inkscape:connector-curvature="0"
   id="path6611"
   style="fill:none;stroke:#c0c0c0;stroke-width:0.80000001;stroke-linecap:butt;stroke-linejoin:miter;stroke-miterlimit:10;stroke-dasharray:0.8, 0.8;stroke-dashoffset:0;stroke-opacity:1"
   d="M 646.28353,-64.0244 H 1142.2836" /><path
   d="m 645.48267,-64.0042 h 4.18818"
   id="path6801"
   style="fill:none;stroke:#000000;stroke-width:1.60000002;stroke-linecap:butt;stroke-linejoin:round;stroke-miterlimit:4;stroke-dasharray:none;stroke-opacity:1"
   inkscape:connector-curvature="0" /><path
   inkscape:connector-curvature="0"
   id="path5391-7"
   style="fill:none;stroke:#000000;stroke-width:1.5999999;stroke-linecap:butt;stroke-linejoin:miter;stroke-miterlimit:10;stroke-dasharray:none;stroke-opacity:1"
   d="m 646.3668,-64.00178 h 496.7344" /><path
   d="m 708.31403,-60.03314 v -4.383"
   id="path10793-7-2"
   style="fill:none;stroke:#000000;stroke-width:1.60000002;stroke-linecap:butt;stroke-linejoin:round;stroke-miterlimit:4;stroke-dasharray:none;stroke-opacity:1"
   inkscape:connector-curvature="0" /><text
   id="text10933-3-6"
   y="89.325226"
   x="918.37872"
   style="font-style:normal;font-variant:normal;font-weight:normal;font-stretch:normal;line-height:0%;font-family:'Liberation Sans';-inkscape-font-specification:'Liberation Sans';text-align:end;letter-spacing:0px;word-spacing:0px;writing-mode:lr-tb;text-anchor:end;fill:#000000;fill-opacity:1;stroke:none;stroke-width:1px;stroke-linecap:butt;stroke-linejoin:miter;stroke-opacity:1"
   xml:space="preserve"
   transform="scale(1,-1)"><tspan
     style="font-style:normal;font-variant:normal;font-weight:bold;font-stretch:normal;font-size:13.99999809px;line-height:1.25;font-family:'Liberation Sans';-inkscape-font-specification:'Liberation Sans Bold'"
     y="89.325226"
     x="922.26837"
     id="tspan10935-6-0"
     sodipodi:role="line">Veff (V) </tspan></text>

<path
   inkscape:connector-curvature="0"
   style="fill:none;stroke:#000000;stroke-width:1.60000002;stroke-linecap:butt;stroke-linejoin:round;stroke-miterlimit:4;stroke-dasharray:none;stroke-opacity:1"
   id="path7065"
   d="m 770.28971,-60.03314 v -4.383" /><path
   d="m 894.28971,-60.03314 v -4.383"
   id="path7067"
   style="fill:none;stroke:#000000;stroke-width:1.60000002;stroke-linecap:butt;stroke-linejoin:round;stroke-miterlimit:4;stroke-dasharray:none;stroke-opacity:1"
   inkscape:connector-curvature="0" /><path
   inkscape:connector-curvature="0"
   style="fill:none;stroke:#000000;stroke-width:1.60000002;stroke-linecap:butt;stroke-linejoin:round;stroke-miterlimit:4;stroke-dasharray:none;stroke-opacity:1"
   id="path7069"
   d="m 956.33616,-60.03314 v -4.383" /><path
   d="m 1018.2766,-60.03314 v -4.383"
   id="path7072"
   style="fill:none;stroke:#000000;stroke-width:1.60000002;stroke-linecap:butt;stroke-linejoin:round;stroke-miterlimit:4;stroke-dasharray:none;stroke-opacity:1"
   inkscape:connector-curvature="0" /><path
   inkscape:connector-curvature="0"
   style="fill:none;stroke:#000000;stroke-width:1.60000002;stroke-linecap:butt;stroke-linejoin:round;stroke-miterlimit:4;stroke-dasharray:none;stroke-opacity:1"
   id="path7074"
   d="m 1080.3016,-60.03314 v -4.383" /><path
   d="m 1142.3016,-60.03314 v -4.383"
   id="path7076"
   style="fill:none;stroke:#000000;stroke-width:1.60000002;stroke-linecap:butt;stroke-linejoin:round;stroke-miterlimit:4;stroke-dasharray:none;stroke-opacity:1"
   inkscape:connector-curvature="0" />



<path
   inkscape:connector-curvature="0"
   id="path5023"
   style="fill:none;stroke:#000000;stroke-width:1.60000002;stroke-linecap:butt;stroke-linejoin:miter;stroke-miterlimit:10;stroke-dasharray:none;stroke-opacity:1"
   d="M 646.29187,-64.047217 V 223.95283" /><path
   inkscape:connector-curvature="0"
   id="path5031"
   style="fill:none;stroke:#c0c0c0;stroke-width:0.80000001;stroke-linecap:butt;stroke-linejoin:miter;stroke-miterlimit:10;stroke-dasharray:0.8, 0.8;stroke-dashoffset:0;stroke-opacity:1"
   d="M 708.34654,-64.047217 V 223.95283" /><path
   inkscape:connector-curvature="0"
   id="path5039"
   style="fill:none;stroke:#c0c0c0;stroke-width:0.80000001;stroke-linecap:butt;stroke-linejoin:miter;stroke-miterlimit:10;stroke-dasharray:0.8, 0.8;stroke-dashoffset:0;stroke-opacity:1"
   d="M 770.4012,-64.047217 V 223.95283" /><path
   inkscape:connector-curvature="0"
   id="path5047"
   style="fill:none;stroke:#000000;stroke-width:1.60000002;stroke-linecap:butt;stroke-linejoin:miter;stroke-miterlimit:10;stroke-dasharray:4.8, 1.6;stroke-dashoffset:0;stroke-opacity:1"
   d="M 832.45587,-64.047217 V 223.95283" /><path
   inkscape:connector-curvature="0"
   id="path5055"
   style="fill:none;stroke:#c0c0c0;stroke-width:0.80000001;stroke-linecap:butt;stroke-linejoin:miter;stroke-miterlimit:10;stroke-dasharray:0.8, 0.8;stroke-dashoffset:0;stroke-opacity:1"
   d="M 894.51054,-64.047217 V 223.95283" /><path
   inkscape:connector-curvature="0"
   id="path5063"
   style="fill:none;stroke:#c0c0c0;stroke-width:0.80000001;stroke-linecap:butt;stroke-linejoin:miter;stroke-miterlimit:10;stroke-dasharray:0.8, 0.8;stroke-dashoffset:0;stroke-opacity:1"
   d="M 956.56521,-64.047217 V 223.95283" /><path
   inkscape:connector-curvature="0"
   id="path5071"
   style="fill:none;stroke:#c0c0c0;stroke-width:0.80000001;stroke-linecap:butt;stroke-linejoin:miter;stroke-miterlimit:10;stroke-dasharray:0.8, 0.8;stroke-dashoffset:0;stroke-opacity:1"
   d="M 1018.6176,-64.047217 V 223.95283" /><path
   inkscape:connector-curvature="0"
   id="path5079"
   style="fill:none;stroke:#c0c0c0;stroke-width:0.80000001;stroke-linecap:butt;stroke-linejoin:miter;stroke-miterlimit:10;stroke-dasharray:0.8, 0.8;stroke-dashoffset:0;stroke-opacity:1"
   d="M 1080.6723,-64.047217 V 223.95283" /><path
   inkscape:connector-curvature="0"
   id="path5087"
   style="fill:none;stroke:#c0c0c0;stroke-width:0.80000001;stroke-linecap:butt;stroke-linejoin:miter;stroke-miterlimit:10;stroke-dasharray:0.8, 0.8;stroke-dashoffset:0;stroke-opacity:1"
   d="M 1142.7269,-64.047217 V 223.95283" /><path
   inkscape:connector-curvature="0"
   id="path5097"
   style="fill:none;stroke:#c0c0c0;stroke-width:0.80000001;stroke-linecap:butt;stroke-linejoin:miter;stroke-miterlimit:10;stroke-dasharray:0.8, 0.8;stroke-dashoffset:0;stroke-opacity:1"
   d="M 646.29187,-64.047217 H 1142.7269" /><g
   transform="translate(547.19626,-168.04717)"
   id="g5099"><text
   id="text5101"
   style="font-variant:normal;font-weight:normal;line-height:0%;font-family:Helvetica;-inkscape-font-specification:Helvetica;writing-mode:lr-tb;fill:#000000;fill-opacity:1;fill-rule:nonzero;stroke:none"
   transform="matrix(1,0,0,-1,80,101)"><tspan
     id="tspan5103"
     sodipodi:role="line"
     y="0"
     x="0 5.5599999 8.3400002"
     style="font-size:10px;line-height:1.25">0.0</tspan></text>



</g><path
   inkscape:connector-curvature="0"
   id="path5105"
   style="fill:none;stroke:#c0c0c0;stroke-width:0.80000001;stroke-linecap:butt;stroke-linejoin:miter;stroke-miterlimit:10;stroke-dasharray:0.8, 0.8;stroke-dashoffset:0;stroke-opacity:1"
   d="M 646.29187,-16.047224 H 1142.7269" /><g
   transform="translate(547.15626,-168.04717)"
   id="g5107"><text
   id="text5109"
   style="font-variant:normal;font-weight:normal;line-height:0%;font-family:Helvetica;-inkscape-font-specification:Helvetica;writing-mode:lr-tb;fill:#000000;fill-opacity:1;fill-rule:nonzero;stroke:none"
   transform="matrix(1,0,0,-1,80,149)"><tspan
     id="tspan5111"
     sodipodi:role="line"
     y="0"
     x="0 5.5599999 8.3400002"
     style="font-size:10px;line-height:1.25">0.2</tspan></text>



</g><path
   inkscape:connector-curvature="0"
   id="path5113"
   style="fill:none;stroke:#c0c0c0;stroke-width:0.80000001;stroke-linecap:butt;stroke-linejoin:miter;stroke-miterlimit:10;stroke-dasharray:0.8, 0.8;stroke-dashoffset:0;stroke-opacity:1"
   d="M 646.29187,31.952783 H 1142.7269" /><g
   transform="translate(547.06626,-168.04717)"
   id="g5115"><text
   id="text5117"
   style="font-variant:normal;font-weight:normal;line-height:0%;font-family:Helvetica;-inkscape-font-specification:Helvetica;writing-mode:lr-tb;fill:#000000;fill-opacity:1;fill-rule:nonzero;stroke:none"
   transform="matrix(1,0,0,-1,80,197)"><tspan
     id="tspan5119"
     sodipodi:role="line"
     y="0"
     x="0 5.5599999 8.3400002"
     style="font-size:10px;line-height:1.25">0.4</tspan></text>



</g><path
   inkscape:connector-curvature="0"
   id="path5121"
   style="fill:none;stroke:#c0c0c0;stroke-width:0.80000001;stroke-linecap:butt;stroke-linejoin:miter;stroke-miterlimit:10;stroke-dasharray:0.8, 0.8;stroke-dashoffset:0;stroke-opacity:1"
   d="M 646.29187,79.952783 H 1142.7269" /><g
   transform="translate(547.13626,-168.04717)"
   id="g5123"><text
   id="text5125"
   style="font-variant:normal;font-weight:normal;line-height:0%;font-family:Helvetica;-inkscape-font-specification:Helvetica;writing-mode:lr-tb;fill:#000000;fill-opacity:1;fill-rule:nonzero;stroke:none"
   transform="matrix(1,0,0,-1,80,245)"><tspan
     id="tspan5127"
     sodipodi:role="line"
     y="0"
     x="0 5.5599999 8.3400002"
     style="font-size:10px;line-height:1.25">0.6</tspan></text>



</g><path
   inkscape:connector-curvature="0"
   id="path5129"
   style="fill:none;stroke:#c0c0c0;stroke-width:0.80000001;stroke-linecap:butt;stroke-linejoin:miter;stroke-miterlimit:10;stroke-dasharray:0.8, 0.8;stroke-dashoffset:0;stroke-opacity:1"
   d="M 646.29187,127.95283 H 1142.7269" /><g
   transform="translate(547.13626,-168.04717)"
   id="g5131"><text
   id="text5133"
   style="font-variant:normal;font-weight:normal;line-height:0%;font-family:Helvetica;-inkscape-font-specification:Helvetica;writing-mode:lr-tb;fill:#000000;fill-opacity:1;fill-rule:nonzero;stroke:none"
   transform="matrix(1,0,0,-1,80,293)"><tspan
     id="tspan5135"
     sodipodi:role="line"
     y="0"
     x="0 5.5599999 8.3400002"
     style="font-size:10px;line-height:1.25">0.8</tspan></text>



</g><path
   inkscape:connector-curvature="0"
   id="path5137"
   style="fill:none;stroke:#c0c0c0;stroke-width:0.80000001;stroke-linecap:butt;stroke-linejoin:miter;stroke-miterlimit:10;stroke-dasharray:0.8, 0.8;stroke-dashoffset:0;stroke-opacity:1"
   d="M 646.29187,175.95283 H 1142.7269" /><g
   transform="translate(547.19626,-168.04717)"
   id="g5139"><text
   id="text5141"
   style="font-variant:normal;font-weight:normal;line-height:0%;font-family:Helvetica;-inkscape-font-specification:Helvetica;writing-mode:lr-tb;fill:#000000;fill-opacity:1;fill-rule:nonzero;stroke:none"
   transform="matrix(1,0,0,-1,80,341)"><tspan
     id="tspan5143"
     sodipodi:role="line"
     y="0"
     x="0 5.5599999 8.3400002"
     style="font-size:10px;line-height:1.25">1.0</tspan></text>



</g><path
   inkscape:connector-curvature="0"
   id="path5145"
   style="fill:none;stroke:#c0c0c0;stroke-width:0.80000001;stroke-linecap:butt;stroke-linejoin:miter;stroke-miterlimit:10;stroke-dasharray:0.8, 0.8;stroke-dashoffset:0;stroke-opacity:1"
   d="M 646.29187,223.95283 H 1142.7269" /><g
   transform="translate(547.15642,-168.04717)"
   id="g5147"><text
   id="text5149"
   style="font-variant:normal;font-weight:normal;line-height:0%;font-family:Helvetica;-inkscape-font-specification:Helvetica;writing-mode:lr-tb;fill:#000000;fill-opacity:1;fill-rule:nonzero;stroke:none"
   transform="matrix(1,0,0,-1,80,389)"><tspan
     id="tspan5153"
     sodipodi:role="line"
     y="0"
     x="0"
     style="font-size:10px;line-height:1.25">1.2</tspan></text>



</g><path
   inkscape:connector-curvature="0"
   id="path5165"
   style="fill:none;stroke:#a0a0a0;stroke-width:0.80000001;stroke-linecap:butt;stroke-linejoin:miter;stroke-miterlimit:10;stroke-dasharray:none;stroke-opacity:1"
   d="m 746.76133,-64.047217 15.75992,1 15.75991,2 14.77492,6 15.75992,14 15.75991,30.999994 15.75992,48.000006 14.77492,52.000047 15.75992,41 15.75991,26 15.75992,13 14.77492,7 15.75991,3 15.75992,2 h 15.75991 14.77492 l 15.75766,-1 15.75996,-1 h 15.7599 l 14.7749,-1 15.7599,-2 15.7599,-1 15.7599,-1 14.775,-1 15.7599,-1 15.7599,-1" /><path
   inkscape:connector-curvature="0"
   id="path5167"
   style="fill:none;stroke:#a0a0a0;stroke-width:0.80000001;stroke-linecap:butt;stroke-linejoin:miter;stroke-miterlimit:10;stroke-dasharray:none;stroke-opacity:1"
   d="m 738.88137,-64.047217 h 15.75992 l 15.75991,2 15.75992,3 14.77492,9 15.75992,22 15.75991,40 15.75992,52 14.77492,48.000047 15.75991,32 15.75992,19 15.75991,10 14.77492,5 15.75992,2 15.75992,1 h 15.75991 14.77492 l 15.75766,-1 15.7599,-1 15.7599,-1 14.775,-1 15.7599,-1 15.7599,-1 15.7599,-1 14.7749,-1 15.7599,-1" /><path
   inkscape:connector-curvature="0"
   id="path5169"
   style="fill:none;stroke:#a0a0a0;stroke-width:0.80000001;stroke-linecap:butt;stroke-linejoin:miter;stroke-miterlimit:10;stroke-dasharray:none;stroke-opacity:1"
   d="m 731.98641,-64.047217 h 15.75992 l 15.75991,1 14.77492,2 15.75992,6 15.75991,15 15.75992,30.999994 14.77492,47.000006 15.75991,51.000047 15.75992,40 15.75992,25 14.77492,14 15.75991,7 15.75992,3 15.75991,1 14.77492,1 h 15.75992 l 15.75766,-1 h 15.75996 l 14.7749,-1 15.7599,-1 15.7599,-1 15.7599,-1 14.7749,-1 15.76,-1 15.7599,-2" /><path
   inkscape:connector-curvature="0"
   id="path5171"
   style="fill:none;stroke:#a0a0a0;stroke-width:0.80000001;stroke-linecap:butt;stroke-linejoin:miter;stroke-miterlimit:10;stroke-dasharray:none;stroke-opacity:1"
   d="m 725.09145,-64.047217 h 31.51983 l 14.77492,2 15.75992,3 15.75991,10 15.75992,23 14.77492,40 15.75991,52 15.75992,46.000047 15.75991,31 14.77492,18 15.75992,10 15.75991,4 15.75992,3 14.77492,1 h 15.75992 15.75991 l 15.75767,-1 h 14.7749 l 15.7599,-1 15.7599,-1 15.76,-1 14.7749,-1 15.7599,-1 15.7599,-2" /><path
   inkscape:connector-curvature="0"
   id="path5173"
   style="fill:none;stroke:#a0a0a0;stroke-width:0.80000001;stroke-linecap:butt;stroke-linejoin:miter;stroke-miterlimit:10;stroke-dasharray:none;stroke-opacity:1"
   d="m 718.19649,-64.047217 h 31.51983 l 15.75991,1 14.77492,2 15.75992,7 15.75991,16 15.75992,31.999994 14.77492,48.000006 15.75991,50.000047 15.75992,38 15.75991,23 14.77493,13 15.75991,6 15.75992,4 15.75991,1 14.77492,1 h 15.75992 15.75766 l 15.75987,-1 14.775,-1 15.7599,-1 15.7599,-1 15.7599,-1 14.7749,-1 15.7599,-1" /><path
   inkscape:connector-curvature="0"
   id="path5175"
   style="fill:none;stroke:#a0a0a0;stroke-width:0.80000001;stroke-linecap:butt;stroke-linejoin:miter;stroke-miterlimit:10;stroke-dasharray:none;stroke-opacity:1"
   d="m 712.28652,-64.047217 h 30.53483 l 15.75992,1 15.75991,1 14.77492,4 15.75992,11 15.75992,23.999994 15.75991,42.000006 14.77492,51 15.75992,44.000047 15.75991,29 15.75992,17 14.77492,9 15.75991,4 15.75992,3 15.75991,1 h 14.77492 15.75992 l 15.75768,-1 h 15.7599 l 14.7749,-1 15.7599,-1 15.7599,-1 15.76,-1 14.7749,-1" /><path
   inkscape:connector-curvature="0"
   id="path5177"
   style="fill:none;stroke:#a0a0a0;stroke-width:0.80000001;stroke-linecap:butt;stroke-linejoin:miter;stroke-miterlimit:10;stroke-dasharray:none;stroke-opacity:1"
   d="m 705.39155,-64.047217 h 47.27975 l 14.77492,1 15.75992,3 15.75991,7 15.75992,18 14.77492,35 15.75991,48 15.75992,48.000047 15.75991,35 14.77492,21 15.75992,12 15.75992,6 15.75991,4 14.77492,1 15.75992,1 h 15.75991 15.75765 l 14.7749,-1 15.7599,-1 h 15.76 l 15.7599,-1 14.7749,-1 15.7599,-1" /><path
   inkscape:connector-curvature="0"
   id="path5179"
   style="fill:none;stroke:#a0a0a0;stroke-width:0.80000001;stroke-linecap:butt;stroke-linejoin:miter;stroke-miterlimit:10;stroke-dasharray:none;stroke-opacity:1"
   d="m 699.48159,-64.047217 h 46.29475 l 15.75991,1 15.75992,1 15.75991,5 14.77492,13 15.75992,26.999994 15.75991,44.000006 15.75992,50 14.77492,41.000047 15.75992,26 15.75991,15 15.75992,8 14.77492,4 15.75991,2 15.75992,2 h 15.75991 14.77346 l 15.75916,-1 h 15.7599 l 15.7599,-1 14.7749,-1 15.7599,-1 15.7599,-1" /><path
   inkscape:connector-curvature="0"
   id="path5181"
   style="fill:none;stroke:#a0a0a0;stroke-width:0.80000001;stroke-linecap:butt;stroke-linejoin:miter;stroke-miterlimit:10;stroke-dasharray:none;stroke-opacity:1"
   d="m 693.57162,-64.047217 h 62.05466 l 15.75992,1 15.75992,4 15.75991,8 14.77492,21 15.75992,38 15.75991,49 15.75992,45.000047 14.77492,32 15.75991,19 15.75992,10 15.75991,6 14.77492,3 15.75992,1 15.75992,1 h 15.75991 14.77267 l 15.7599,-1 h 15.7599 l 15.7599,-1 14.775,-1 15.7599,-1" /><path
   inkscape:connector-curvature="0"
   id="path5183"
   style="fill:none;stroke:#a0a0a0;stroke-width:0.80000001;stroke-linecap:butt;stroke-linejoin:miter;stroke-miterlimit:10;stroke-dasharray:none;stroke-opacity:1"
   d="m 687.66165,-64.047217 h 62.05467 l 15.75991,1 15.75992,2 15.75991,6 14.77492,15 15.75992,30.999994 15.75991,46.000006 15.75992,48.000047 14.77492,37 15.75991,23 15.75992,13 15.75992,7 14.77492,4 15.75991,2 15.75992,1 15.75991,1 h 14.77267 l 15.75987,-1 h 15.76 l 15.7599,-1 14.7749,-1 15.7599,-1" /><path
   inkscape:connector-curvature="0"
   id="path5185"
   style="fill:none;stroke:#a0a0a0;stroke-width:0.80000001;stroke-linecap:butt;stroke-linejoin:miter;stroke-miterlimit:10;stroke-dasharray:none;stroke-opacity:1"
   d="m 682.73668,-64.047217 h 77.81458 l 14.77492,2 15.75991,4 15.75992,11 15.75991,23.999994 14.77493,41.000006 15.75991,49 15.75992,41.000047 15.75991,28 14.77492,17 15.75992,9 15.75991,5 15.75992,3 14.77492,1 15.75991,1 h 15.75955 15.75806 l 14.7749,-1 h 15.7599 l 15.7599,-1 15.7599,-1" /><path
   inkscape:connector-curvature="0"
   id="path5187"
   style="fill:none;stroke:#a0a0a0;stroke-width:0.80000001;stroke-linecap:butt;stroke-linejoin:miter;stroke-miterlimit:10;stroke-dasharray:none;stroke-opacity:1"
   d="m 676.82671,-64.047217 h 77.81458 l 15.75991,1 14.77493,3 15.75991,8 15.75992,18 15.75991,34 14.77492,48 15.75992,45.000047 15.75991,33 15.75992,20 14.77492,12 15.75991,6 15.75992,4 15.75992,1 14.77492,1 15.75991,1 h 15.75766 l 15.7599,-1 h 14.7749 l 15.76,-1 15.7599,-1" /><path
   inkscape:connector-curvature="0"
   id="path5189"
   style="fill:none;stroke:#0066ff;stroke-width:1.60000002;stroke-linecap:butt;stroke-linejoin:miter;stroke-miterlimit:10;stroke-dasharray:none;stroke-opacity:1"
   d="m 671.90173,-64.047217 h 77.81459 l 14.77492,1 15.75991,2 15.75992,5 15.75991,13 14.77492,28.999994 15.75992,44.000006 15.75991,47 15.75992,38.000047 14.77492,24 15.75992,14 15.75991,8 15.75992,4 14.77492,3 15.75991,1 15.75992,1 h 15.75766 14.77487 l 15.76,-1 h 15.7599 l 15.7599,-1" /><path
   d="m 645.50295,223.98941 h 4.18818"
   id="path5446"
   style="fill:none;stroke:#000000;stroke-width:1.60000002;stroke-linecap:butt;stroke-linejoin:round;stroke-miterlimit:4;stroke-dasharray:none;stroke-opacity:1"
   inkscape:connector-curvature="0" /><path
   inkscape:connector-curvature="0"
   style="fill:none;stroke:#000000;stroke-width:1.60000002;stroke-linecap:butt;stroke-linejoin:round;stroke-miterlimit:4;stroke-dasharray:none;stroke-opacity:1"
   id="path5448"
   d="m 645.50295,175.98941 h 4.18818" /><path
   d="m 645.50295,127.98941 h 4.18818"
   id="path5450"
   style="fill:none;stroke:#000000;stroke-width:1.60000002;stroke-linecap:butt;stroke-linejoin:round;stroke-miterlimit:4;stroke-dasharray:none;stroke-opacity:1"
   inkscape:connector-curvature="0" /><path
   inkscape:connector-curvature="0"
   style="fill:none;stroke:#000000;stroke-width:1.60000002;stroke-linecap:butt;stroke-linejoin:round;stroke-miterlimit:4;stroke-dasharray:none;stroke-opacity:1"
   id="path5452"
   d="m 645.50295,79.989363 h 4.18818" /><path
   d="m 645.50295,31.989363 h 4.18818"
   id="path5454"
   style="fill:none;stroke:#000000;stroke-width:1.60000002;stroke-linecap:butt;stroke-linejoin:round;stroke-miterlimit:4;stroke-dasharray:none;stroke-opacity:1"
   inkscape:connector-curvature="0" /><path
   inkscape:connector-curvature="0"
   style="fill:none;stroke:#000000;stroke-width:1.60000002;stroke-linecap:butt;stroke-linejoin:round;stroke-miterlimit:4;stroke-dasharray:none;stroke-opacity:1"
   id="path5456"
   d="m 645.50295,-16.010644 h 4.18818" /><path
   d="m 645.50295,-64.010637 h 4.18818"
   id="path5458"
   style="fill:none;stroke:#000000;stroke-width:1.60000002;stroke-linecap:butt;stroke-linejoin:round;stroke-miterlimit:4;stroke-dasharray:none;stroke-opacity:1"
   inkscape:connector-curvature="0" /><path
   inkscape:connector-curvature="0"
   id="path5163"
   style="fill:none;stroke:#ff0000;stroke-width:1.60000002;stroke-linecap:butt;stroke-linejoin:miter;stroke-miterlimit:10;stroke-dasharray:none;stroke-opacity:1"
   d="m 754.64129,-64.047217 15.75991,2 15.75992,3 14.77492,10 15.75992,22 15.75991,41 15.75992,52 14.77492,48.000047 15.75991,33 15.75992,19 15.75991,10 14.77492,4 15.75992,2 15.75992,1 h 15.75991 l 14.77492,-1 h 15.75766 l 15.7599,-1 15.7599,-1 14.775,-1 15.7599,-1 15.7599,-2 15.7599,-1 14.7749,-1 15.7599,-1 15.7599,-2" /><text
   xml:space="preserve"
   style="font-style:normal;font-variant:normal;font-weight:normal;font-stretch:normal;line-height:0%;font-family:'Liberation Sans';-inkscape-font-specification:'Liberation Sans';text-align:end;letter-spacing:0px;word-spacing:0px;writing-mode:lr-tb;text-anchor:end;fill:#000000;fill-opacity:1;stroke:none;stroke-width:1px;stroke-linecap:butt;stroke-linejoin:miter;stroke-opacity:1"
   x="130.3647"
   y="613.09772"
   id="text5460"
   transform="matrix(0,1,1,0,0,0)"><tspan
     sodipodi:role="line"
     id="tspan5462"
     x="130.3647"
     y="613.09772"
     style="font-style:normal;font-variant:normal;font-weight:bold;font-stretch:normal;font-size:13.99999905px;line-height:1.25;font-family:'Liberation Sans';-inkscape-font-specification:'Liberation Sans Bold'">gm/W (mS/μm)</tspan></text>



<g
   id="g5587"
   transform="translate(540.28946,-471.02944)" />



















<g
   transform="translate(554.47247,-1148.3119)"
   id="g6663" />







<rect
   style="color:#000000;clip-rule:nonzero;display:inline;overflow:visible;visibility:visible;opacity:1;isolation:auto;mix-blend-mode:normal;color-interpolation:sRGB;color-interpolation-filters:linearRGB;solid-color:#000000;solid-opacity:1;fill:#ffffff;fill-opacity:1;fill-rule:nonzero;stroke:#808080;stroke-width:1.60000014;stroke-linecap:butt;stroke-linejoin:miter;stroke-miterlimit:10;stroke-dasharray:none;stroke-dashoffset:0;stroke-opacity:1;color-rendering:auto;image-rendering:auto;shape-rendering:auto;text-rendering:auto;enable-background:accumulate"
   id="rect4608-4"
   width="98.400002"
   height="62.400002"
   x="966.43579"
   y="-79.931618"
   rx="4.4456367"
   ry="6.0771937"
   transform="scale(1,-1)" /><text
   id="text4935-4"
   y="-43.590923"
   x="972.8678"
   style="font-style:normal;font-variant:normal;font-weight:normal;font-stretch:normal;font-size:12px;line-height:0%;font-family:'Liberation Sans';-inkscape-font-specification:'Liberation Sans';text-align:start;letter-spacing:0px;word-spacing:0px;writing-mode:lr-tb;text-anchor:start;fill:#000000;fill-opacity:1;stroke:none;stroke-width:1px;stroke-linecap:butt;stroke-linejoin:miter;stroke-opacity:1"
   xml:space="preserve"
   transform="scale(1,-1)"><tspan
     style="font-style:normal;font-variant:normal;font-weight:bold;font-stretch:normal;font-size:13.99999809px;line-height:1.25;font-family:'Liberation Sans';-inkscape-font-specification:'Liberation Sans Bold';text-align:start;text-anchor:start;stroke-width:1px"
     y="-43.590923"
     x="972.8678"
     id="tspan4937-1"
     sodipodi:role="line"> 0.0 V</tspan></text>
<text
   xml:space="preserve"
   style="font-style:normal;font-variant:normal;font-weight:normal;font-stretch:normal;font-size:12px;line-height:0%;font-family:'Liberation Sans';-inkscape-font-specification:'Liberation Sans';text-align:end;letter-spacing:0px;word-spacing:0px;writing-mode:lr-tb;text-anchor:end;fill:#000000;fill-opacity:1;stroke:none;stroke-width:1px;stroke-linecap:butt;stroke-linejoin:miter;stroke-opacity:1"
   x="1010.2536"
   y="-27.190929"
   id="text7078"
   transform="scale(1,-1)"><tspan
     sodipodi:role="line"
     id="tspan7080"
     x="1010.2536"
     y="-27.190929"
     style="font-style:normal;font-variant:normal;font-weight:bold;font-stretch:normal;font-size:13.99999809px;line-height:1.25;font-family:'Liberation Sans';-inkscape-font-specification:'Liberation Sans Bold';stroke-width:1px">-1.3 V</tspan></text>
<text
   xml:space="preserve"
   style="font-style:normal;font-variant:normal;font-weight:normal;font-stretch:normal;font-size:12px;line-height:0%;font-family:'Liberation Sans';-inkscape-font-specification:'Liberation Sans';text-align:start;letter-spacing:0px;word-spacing:0px;writing-mode:lr-tb;text-anchor:start;fill:#000000;fill-opacity:1;stroke:none;stroke-width:1px;stroke-linecap:butt;stroke-linejoin:miter;stroke-opacity:1"
   x="1015.8366"
   y="-61.711681"
   id="text5758-2-4"
   transform="scale(1,-1)"><tspan
     sodipodi:role="line"
     x="1015.8366"
     y="-61.711681"
     style="font-style:normal;font-variant:normal;font-weight:bold;font-stretch:normal;font-size:13.99999809px;line-height:1.25;font-family:'Liberation Sans';-inkscape-font-specification:'Liberation Sans Bold';text-align:center;text-anchor:middle;stroke-width:1px"
     id="tspan5518-1">Vbs potential</tspan></text>
<path
   inkscape:connector-curvature="0"
   id="path5449-0"
   style="fill:none;stroke:#ff0000;stroke-width:1.60000002;stroke-linecap:butt;stroke-linejoin:miter;stroke-miterlimit:10;stroke-dasharray:none;stroke-opacity:1"
   d="M 1018.4616,48.410296 H 1040" /><path
   d="M 1018.4616,32.000046 H 1040"
   style="fill:none;stroke:#0066ff;stroke-width:1.60000002;stroke-linecap:butt;stroke-linejoin:miter;stroke-miterlimit:10;stroke-dasharray:none;stroke-opacity:1"
   id="path7116"
   inkscape:connector-curvature="0" /></g></svg>