<?xml version="1.0" encoding="UTF-8" standalone="no"?>
<!-- Created with Inkscape (http://www.inkscape.org/) -->

<svg
   xmlns:dc="http://purl.org/dc/elements/1.1/"
   xmlns:cc="http://creativecommons.org/ns#"
   xmlns:rdf="http://www.w3.org/1999/02/22-rdf-syntax-ns#"
   xmlns:svg="http://www.w3.org/2000/svg"
   xmlns="http://www.w3.org/2000/svg"
   xmlns:sodipodi="http://sodipodi.sourceforge.net/DTD/sodipodi-0.dtd"
   xmlns:inkscape="http://www.inkscape.org/namespaces/inkscape"
   id="svg2"
   version="1.1"
   inkscape:version="0.92.5 (2060ec1f9f, 2020-04-08)"
   xml:space="preserve"
   width="691.94189"
   height="410.43463"
   viewBox="0 0 691.94189 410.43462"
   sodipodi:docname="dc_analysis_small_signal_fom_veff_vbs.svg"><metadata
     id="metadata8"><rdf:RDF><cc:Work
         rdf:about=""><dc:format>image/svg+xml</dc:format><dc:type
           rdf:resource="http://purl.org/dc/dcmitype/StillImage" /><dc:title /></cc:Work></rdf:RDF></metadata><defs
     id="defs6" /><sodipodi:namedview
     pagecolor="#ffffff"
     bordercolor="#666666"
     borderopacity="1"
     objecttolerance="10"
     gridtolerance="10"
     guidetolerance="10"
     inkscape:pageopacity="1"
     inkscape:pageshadow="2"
     inkscape:window-width="1920"
     inkscape:window-height="1031"
     id="namedview4"
     showgrid="true"
     inkscape:zoom="1"
     inkscape:cx="300.86075"
     inkscape:cy="105.09483"
     inkscape:window-x="0"
     inkscape:window-y="0"
     inkscape:window-maximized="1"
     inkscape:current-layer="g10"
     fit-margin-top="5"
     fit-margin-left="5"
     fit-margin-right="5"
     fit-margin-bottom="5"><inkscape:grid
       type="xygrid"
       id="grid4765"
       color="#e0e0e0"
       opacity="1"
       empcolor="#e0e0e0"
       empopacity="1"
       dotted="true"
       originx="-748.69148"
       originy="878.93482" /></sodipodi:namedview><g
     id="g10"
     inkscape:groupmode="layer"
     inkscape:label="ink_ext_XXXXXX"
     transform="matrix(1.25,0,0,-1.25,-748.69148,-468.50015)"><path
   inkscape:connector-curvature="0"
   id="path10323-4"
   style="fill:none;stroke:#c0c0c0;stroke-width:0.80000007;stroke-linecap:butt;stroke-linejoin:miter;stroke-miterlimit:10;stroke-dasharray:0.8, 0.8;stroke-dashoffset:0;stroke-opacity:1"
   d="M 646.03904,-670.9281 H 1092.2488" />





<g
   id="g5587"
   transform="translate(540.28946,-471.02944)" />

















<path
   inkscape:connector-curvature="0"
   id="path6101"
   style="fill:none;stroke:#000000;stroke-width:1.60000002;stroke-linecap:butt;stroke-linejoin:miter;stroke-miterlimit:10;stroke-dasharray:none;stroke-dashoffset:0;stroke-opacity:1"
   d="m 646.28746,-671.03012 v 288" /><path
   inkscape:connector-curvature="0"
   id="path6109"
   style="fill:none;stroke:#c0c0c0;stroke-width:0.80000001;stroke-linecap:butt;stroke-linejoin:miter;stroke-miterlimit:10;stroke-dasharray:0.8, 0.8;stroke-dashoffset:0;stroke-opacity:1"
   d="m 708.28746,-671.03012 v 288" /><path
   inkscape:connector-curvature="0"
   id="path6117"
   style="fill:none;stroke:#c0c0c0;stroke-width:0.80000001;stroke-linecap:butt;stroke-linejoin:miter;stroke-miterlimit:10;stroke-dasharray:0.8, 0.8;stroke-dashoffset:0;stroke-opacity:1"
   d="m 770.28746,-671.03012 v 288" /><path
   inkscape:connector-curvature="0"
   id="path6125"
   style="fill:none;stroke:#000000;stroke-width:1.60000002;stroke-linecap:butt;stroke-linejoin:miter;stroke-miterlimit:10;stroke-dasharray:4.8, 1.6;stroke-dashoffset:0;stroke-opacity:1"
   d="m 832.28746,-671.03012 v 288" /><path
   inkscape:connector-curvature="0"
   id="path6133"
   style="fill:none;stroke:#c0c0c0;stroke-width:0.80000001;stroke-linecap:butt;stroke-linejoin:miter;stroke-miterlimit:10;stroke-dasharray:0.8, 0.8;stroke-dashoffset:0;stroke-opacity:1"
   d="m 894.28746,-671.03012 v 288" /><path
   inkscape:connector-curvature="0"
   id="path6141"
   style="fill:none;stroke:#c0c0c0;stroke-width:0.80000001;stroke-linecap:butt;stroke-linejoin:miter;stroke-miterlimit:10;stroke-dasharray:0.8, 0.8;stroke-dashoffset:0;stroke-opacity:1"
   d="m 956.28746,-671.03012 v 288" /><path
   inkscape:connector-curvature="0"
   id="path6149"
   style="fill:none;stroke:#c0c0c0;stroke-width:0.80000001;stroke-linecap:butt;stroke-linejoin:miter;stroke-miterlimit:10;stroke-dasharray:0.8, 0.8;stroke-dashoffset:0;stroke-opacity:1"
   d="m 1018.2875,-671.03012 v 288" /><path
   inkscape:connector-curvature="0"
   id="path6157"
   style="fill:none;stroke:#c0c0c0;stroke-width:0.80000001;stroke-linecap:butt;stroke-linejoin:miter;stroke-miterlimit:10;stroke-dasharray:0.8, 0.8;stroke-dashoffset:0;stroke-opacity:1"
   d="m 1080.2875,-671.03012 v 288" /><path
   inkscape:connector-curvature="0"
   id="path6165"
   style="fill:none;stroke:#c0c0c0;stroke-width:0.80000001;stroke-linecap:butt;stroke-linejoin:miter;stroke-miterlimit:10;stroke-dasharray:0.8, 0.8;stroke-dashoffset:0;stroke-opacity:1"
   d="m 1142.2875,-671.03012 v 288" /><path
   inkscape:connector-curvature="0"
   id="path6175"
   style="fill:none;stroke:#c0c0c0;stroke-width:0.80000001;stroke-linecap:butt;stroke-linejoin:miter;stroke-miterlimit:10;stroke-dasharray:0.8, 0.8;stroke-dashoffset:0;stroke-opacity:1"
   d="M 646.28746,-671.03012 H 1142.2875" /><g
   transform="translate(541.63626,-775.03012)"
   id="g6177"><text
   id="text6179"
   style="font-variant:normal;font-weight:normal;line-height:0%;font-family:Helvetica;-inkscape-font-specification:Helvetica;writing-mode:lr-tb;fill:#000000;fill-opacity:1;fill-rule:nonzero;stroke:none"
   transform="matrix(1,0,0,-1,80,101)"><tspan
     id="tspan6181"
     sodipodi:role="line"
     y="0"
     x="0 5.5599999 11.12 13.9"
     style="font-size:10px;line-height:1.25">15.0</tspan></text>



</g><path
   inkscape:connector-curvature="0"
   id="path6183"
   style="fill:none;stroke:#c0c0c0;stroke-width:0.80000001;stroke-linecap:butt;stroke-linejoin:miter;stroke-miterlimit:10;stroke-dasharray:0.8, 0.8;stroke-dashoffset:0;stroke-opacity:1"
   d="M 646.28746,-575.03012 H 1142.2875" /><g
   transform="translate(541.63626,-775.03012)"
   id="g6185"><text
   id="text6187"
   style="font-variant:normal;font-weight:normal;line-height:0%;font-family:Helvetica;-inkscape-font-specification:Helvetica;writing-mode:lr-tb;fill:#000000;fill-opacity:1;fill-rule:nonzero;stroke:none"
   transform="matrix(1,0,0,-1,80,197)"><tspan
     id="tspan6189"
     sodipodi:role="line"
     y="0"
     x="0 5.5599999 11.12 13.9"
     style="font-size:10px;line-height:1.25">20.0</tspan></text>



</g><path
   inkscape:connector-curvature="0"
   id="path6191"
   style="fill:none;stroke:#c0c0c0;stroke-width:0.80000001;stroke-linecap:butt;stroke-linejoin:miter;stroke-miterlimit:10;stroke-dasharray:0.8, 0.8;stroke-dashoffset:0;stroke-opacity:1"
   d="M 646.28746,-479.03012 H 1142.2875" /><g
   transform="translate(541.63626,-775.03012)"
   id="g6193"><text
   id="text6195"
   style="font-variant:normal;font-weight:normal;line-height:0%;font-family:Helvetica;-inkscape-font-specification:Helvetica;writing-mode:lr-tb;fill:#000000;fill-opacity:1;fill-rule:nonzero;stroke:none"
   transform="matrix(1,0,0,-1,80,293)"><tspan
     id="tspan6197"
     sodipodi:role="line"
     y="0"
     x="0 5.5599999 11.12 13.9"
     style="font-size:10px;line-height:1.25">25.0</tspan></text>



</g><path
   inkscape:connector-curvature="0"
   id="path6199"
   style="fill:none;stroke:#c0c0c0;stroke-width:0.80000001;stroke-linecap:butt;stroke-linejoin:miter;stroke-miterlimit:10;stroke-dasharray:0.8, 0.8;stroke-dashoffset:0;stroke-opacity:1"
   d="M 646.28746,-383.03012 H 1142.2875" /><g
   transform="translate(541.63001,-775.03012)"
   id="g6201"><text
   id="text6203"
   style="font-variant:normal;font-weight:normal;line-height:0%;font-family:Helvetica;-inkscape-font-specification:Helvetica;writing-mode:lr-tb;fill:#000000;fill-opacity:1;fill-rule:nonzero;stroke:none"
   transform="matrix(1,0,0,-1,80,389)"><tspan
     id="tspan6207"
     sodipodi:role="line"
     y="0"
     x="0"
     style="font-size:10px;line-height:1.25">30.0</tspan></text>



</g><path
   inkscape:connector-curvature="0"
   id="path6219"
   style="fill:none;stroke:#a0a0a0;stroke-width:0.80000001;stroke-linecap:butt;stroke-linejoin:miter;stroke-miterlimit:10;stroke-dasharray:none;stroke-opacity:1"
   d="m 746.28746,-503.03012 16,25 15,23 16,19 15,16 16,9 h 15 l 16,-3 15,-4 16,-4 15,-4 16,-4 15,-3 16,-3 15,-3 16,-3 15.00004,-2 16,-2 15,-2 16,-2 15,-2 16,-1 15,-2 16,-1 15,-1 16,-2" /><path
   inkscape:connector-curvature="0"
   id="path6221"
   style="fill:none;stroke:#a0a0a0;stroke-width:0.80000001;stroke-linecap:butt;stroke-linejoin:miter;stroke-miterlimit:10;stroke-dasharray:none;stroke-opacity:1"
   d="m 739.28746,-515.03012 15,25 16,24 15,22 16,18 15,13 16,3 15,-3 16,-3 15,-4 16,-4 15,-4 16,-3 15,-4 16,-3 15,-3 16,-2 15.00004,-2 16,-2 15,-2 16,-2 15,-1 16,-2 15,-1 16,-2 15,-1" /><path
   inkscape:connector-curvature="0"
   id="path6223"
   style="fill:none;stroke:#a0a0a0;stroke-width:0.80000001;stroke-linecap:butt;stroke-linejoin:miter;stroke-miterlimit:10;stroke-dasharray:none;stroke-opacity:1"
   d="m 732.28746,-528.03012 15,27 16,25 15,23 16,19 15,16 16,8 15,-1 16,-4 15,-3 16,-4 15,-4 16,-4 15,-3 16,-3 15,-3 16,-3 15.00004,-2 16,-2 15,-2 16,-2 15,-2 16,-1 15,-2 16,-1 15,-1" /><path
   inkscape:connector-curvature="0"
   id="path6225"
   style="fill:none;stroke:#a0a0a0;stroke-width:0.80000001;stroke-linecap:butt;stroke-linejoin:miter;stroke-miterlimit:10;stroke-dasharray:none;stroke-opacity:1"
   d="m 725.28746,-540.03012 15,27 16,26 15,24 16,22 15,17 16,12 15,3 16,-4 15,-4 16,-3 15,-4 16,-4 15,-4 16,-3 15,-3 16,-3 15,-2 16.00004,-2 15,-2 16,-2 15,-2 16,-2 15,-1 16,-1 15,-2" /><path
   inkscape:connector-curvature="0"
   id="path6227"
   style="fill:none;stroke:#a0a0a0;stroke-width:0.80000001;stroke-linecap:butt;stroke-linejoin:miter;stroke-miterlimit:10;stroke-dasharray:none;stroke-opacity:1"
   d="m 718.28746,-553.03012 16,28 15,27 16,25 15,23 16,20 15,14 16,7 15,-2 16,-4 15,-4 16,-4 15,-3 16,-4 15,-4 16,-3 15,-3 16,-2 15.00004,-2 16,-2 15,-2 16,-2 15,-2 16,-1 15,-2 16,-1" /><path
   inkscape:connector-curvature="0"
   id="path6229"
   style="fill:none;stroke:#a0a0a0;stroke-width:0.80000001;stroke-linecap:butt;stroke-linejoin:miter;stroke-miterlimit:10;stroke-dasharray:none;stroke-opacity:1"
   d="m 712.28746,-565.03012 15,29 16,27 15,26 16,24 15,21 16,17 15,11 h 16 l 15,-4 16,-3 15,-4 16,-4 15,-4 16,-3 15,-4 16,-2 15,-3 16.00004,-2 15,-3 16,-2 15,-1 16,-2 15,-2 16,-1 15,-2" /><path
   inkscape:connector-curvature="0"
   id="path6231"
   style="fill:none;stroke:#a0a0a0;stroke-width:0.80000001;stroke-linecap:butt;stroke-linejoin:miter;stroke-miterlimit:10;stroke-dasharray:none;stroke-opacity:1"
   d="m 705.28746,-577.03012 16,29 15,28 16,27 15,25 16,22 15,19 16,14 15,4 16,-3 15,-4 16,-4 15,-3 16,-4 15,-4 16,-3 15,-3 16,-3 15,-2 16.00004,-3 15,-2 16,-2 15,-1 16,-2 15,-2 16,-1" /><path
   inkscape:connector-curvature="0"
   id="path6233"
   style="fill:none;stroke:#a0a0a0;stroke-width:0.80000001;stroke-linecap:butt;stroke-linejoin:miter;stroke-miterlimit:10;stroke-dasharray:none;stroke-opacity:1"
   d="m 699.28746,-588.03012 16,29 15,28 16,28 15,26 16,23 15,21 16,16 15,8 16,-2 15,-4 16,-3 15,-4 16,-4 15,-4 16,-3 15,-3 16,-3 15,-3 16.00004,-2 15,-2 16,-2 15,-2 16,-1 15,-2 16,-2" /><path
   inkscape:connector-curvature="0"
   id="path6235"
   style="fill:none;stroke:#a0a0a0;stroke-width:0.80000001;stroke-linecap:butt;stroke-linejoin:miter;stroke-miterlimit:10;stroke-dasharray:none;stroke-opacity:1"
   d="m 693.28746,-600.03012 16,29 15,29 16,28 15,27 16,25 15,22 16,17 15,12 16,2 15,-5 16,-3 15,-3 16,-4 15,-4 16,-4 15,-3 16,-3 15,-3 16,-2 15.00004,-2 16,-2 15,-2 16,-2 15,-1 16,-2" /><path
   inkscape:connector-curvature="0"
   id="path6237"
   style="fill:none;stroke:#a0a0a0;stroke-width:0.80000001;stroke-linecap:butt;stroke-linejoin:miter;stroke-miterlimit:10;stroke-dasharray:none;stroke-opacity:1"
   d="m 688.28746,-612.03012 15,30 16,29 15,29 16,27 15,26 16,23 15,19 16,15 15,5 16,-3 15,-4 16,-3 15,-4 16,-4 15,-3 16,-4 15,-3 16,-3 15,-2 16.00004,-2 15,-2 16,-2 15,-2 16,-2 15,-1" /><path
   inkscape:connector-curvature="0"
   id="path6239"
   style="fill:none;stroke:#a0a0a0;stroke-width:0.80000001;stroke-linecap:butt;stroke-linejoin:miter;stroke-miterlimit:10;stroke-dasharray:none;stroke-opacity:1"
   d="m 682.28746,-623.03012 16,30 15,29 16,29 15,29 16,26 15,24 16,21 15,16 16,10 15,-1 16,-5 15,-3 16,-4 15,-3 16,-4 15,-4 16,-3 15,-3 16,-2 15.00004,-3 16,-2 15,-2 16,-2 15,-1 16,-2" /><path
   inkscape:connector-curvature="0"
   id="path6241"
   style="fill:none;stroke:#a0a0a0;stroke-width:0.80000001;stroke-linecap:butt;stroke-linejoin:miter;stroke-miterlimit:10;stroke-dasharray:none;stroke-opacity:1"
   d="m 677.28746,-634.03012 15,30 16,30 15,29 16,29 15,27 16,25 15,22 16,18 15,13 16,2 15,-5 16,-3 15,-3 16,-4 15,-4 16,-4 15,-3 16,-3 15,-2 16,-3 15.00004,-2 16,-2 15,-2 16,-2 15,-1" /><path
   inkscape:connector-curvature="0"
   id="path6243"
   style="fill:none;stroke:#0066ff;stroke-width:1.60000002;stroke-linecap:butt;stroke-linejoin:miter;stroke-miterlimit:10;stroke-dasharray:none;stroke-opacity:1"
   d="m 671.28746,-645.03012 16,30 15,30 16,30 15,29 16,28 15,26 16,23 15,20 16,14 15,6 16,-3 15,-4 16,-3 15,-4 16,-4 15,-3 16,-4 15,-3 16,-2 15,-3 16.00004,-2 15,-2 16,-2 15,-2 16,-2" /><path
   inkscape:connector-curvature="0"
   id="path6217"
   style="fill:none;stroke:#ff0000;stroke-width:1.60000002;stroke-linecap:butt;stroke-linejoin:miter;stroke-miterlimit:10;stroke-dasharray:none;stroke-opacity:1"
   d="m 754.28746,-490.03012 16,23 15,21 16,18 15,13 16,5 15,-3 16,-3 15,-4 16,-4 15,-4 16,-3 15,-4 16,-3 15,-3 16,-2 15.00004,-2 16,-2 15,-2 16,-2 15,-2 16,-1 15,-1 16,-2 15,-1 16,-1" /><path
   inkscape:connector-curvature="0"
   style="fill:none;stroke:#000000;stroke-width:1.60000002;stroke-linecap:butt;stroke-linejoin:round;stroke-miterlimit:4;stroke-dasharray:none;stroke-opacity:1"
   id="path6464"
   d="m 645.50295,-383.00428 h 4.18818" /><path
   d="m 645.50295,-479.00428 h 4.18818"
   id="path6466"
   style="fill:none;stroke:#000000;stroke-width:1.60000002;stroke-linecap:butt;stroke-linejoin:round;stroke-miterlimit:4;stroke-dasharray:none;stroke-opacity:1"
   inkscape:connector-curvature="0" /><path
   inkscape:connector-curvature="0"
   style="fill:none;stroke:#000000;stroke-width:1.60000002;stroke-linecap:butt;stroke-linejoin:round;stroke-miterlimit:4;stroke-dasharray:none;stroke-opacity:1"
   id="path6468"
   d="m 645.50295,-575.00428 h 4.18818" /><path
   d="m 645.50295,-671.00428 h 4.18818"
   id="path6470"
   style="fill:none;stroke:#000000;stroke-width:1.60000002;stroke-linecap:butt;stroke-linejoin:round;stroke-miterlimit:4;stroke-dasharray:none;stroke-opacity:1"
   inkscape:connector-curvature="0" /><text
   xml:space="preserve"
   style="font-style:normal;font-variant:normal;font-weight:normal;font-stretch:normal;line-height:0%;font-family:'Liberation Sans';-inkscape-font-specification:'Liberation Sans';text-align:end;letter-spacing:0px;word-spacing:0px;writing-mode:lr-tb;text-anchor:end;fill:#000000;fill-opacity:1;stroke:none;stroke-width:1px;stroke-linecap:butt;stroke-linejoin:miter;stroke-opacity:1"
   x="-407.73209"
   y="613.09772"
   id="text9064-3"
   transform="matrix(0,1,1,0,0,0)"><tspan
     sodipodi:role="line"
     id="tspan9066-3"
     x="-407.73209"
     y="613.09772"
     style="font-style:normal;font-variant:normal;font-weight:bold;font-stretch:normal;font-size:13.99999809px;line-height:1.25;font-family:'Liberation Sans';-inkscape-font-specification:'Liberation Sans Bold'">FoM: gm/Id x Ft (S/A x Hz)(log scale)</tspan></text>



<g
   transform="translate(539.03815,-768.82906)"
   id="g6539"><text
   id="text6541"
   style="font-variant:normal;font-weight:normal;line-height:0%;font-family:Helvetica;-inkscape-font-specification:Helvetica;writing-mode:lr-tb;fill:#000000;fill-opacity:1;fill-rule:nonzero;stroke:none"
   transform="matrix(1,0,0,-1,94,87)"><tspan
     id="tspan6543"
     sodipodi:role="line"
     y="0"
     x="0 5.8400002 11.4 14.18"
     style="font-size:10px;line-height:1.25">−0.6</tspan></text>



</g><g
   transform="translate(539.64821,-768.82906)"
   id="g6547"><text
   id="text6549"
   style="font-variant:normal;font-weight:normal;line-height:0%;font-family:Helvetica;-inkscape-font-specification:Helvetica;writing-mode:lr-tb;fill:#000000;fill-opacity:1;fill-rule:nonzero;stroke:none"
   transform="matrix(1,0,0,-1,156,87)"><tspan
     id="tspan6551"
     sodipodi:role="line"
     y="0"
     x="0 5.8400002 11.4 14.18"
     style="font-size:10px;line-height:1.25">−0.4</tspan></text>



</g><g
   transform="translate(539.03815,-768.82906)"
   id="g6555"><text
   id="text6557"
   style="font-variant:normal;font-weight:normal;line-height:0%;font-family:Helvetica;-inkscape-font-specification:Helvetica;writing-mode:lr-tb;fill:#000000;fill-opacity:1;fill-rule:nonzero;stroke:none"
   transform="matrix(1,0,0,-1,218,87)"><tspan
     id="tspan6559"
     sodipodi:role="line"
     y="0"
     x="0 5.8400002 11.4 14.18"
     style="font-size:10px;line-height:1.25">−0.2</tspan></text>



</g><g
   transform="translate(539.17957,-768.82906)"
   id="g6563"><text
   id="text6565"
   style="font-variant:normal;font-weight:normal;line-height:0%;font-family:Helvetica;-inkscape-font-specification:Helvetica;writing-mode:lr-tb;fill:#000000;fill-opacity:1;fill-rule:nonzero;stroke:none"
   transform="matrix(1,0,0,-1,280,87)"><tspan
     id="tspan6567"
     sodipodi:role="line"
     y="0"
     x="0 5.8400002 11.4 14.18"
     style="font-size:10px;line-height:1.25">−0.0</tspan></text>



</g><g
   transform="translate(542.37957,-768.82906)"
   id="g6571"><text
   id="text6573"
   style="font-variant:normal;font-weight:normal;line-height:0%;font-family:Helvetica;-inkscape-font-specification:Helvetica;writing-mode:lr-tb;fill:#000000;fill-opacity:1;fill-rule:nonzero;stroke:none"
   transform="matrix(1,0,0,-1,345,87)"><tspan
     id="tspan6575"
     sodipodi:role="line"
     y="0"
     x="0 5.5599999 8.3400002"
     style="font-size:10px;line-height:1.25">0.2</tspan></text>



</g><g
   transform="translate(542.37957,-768.82906)"
   id="g6579"><text
   id="text6581"
   style="font-variant:normal;font-weight:normal;line-height:0%;font-family:Helvetica;-inkscape-font-specification:Helvetica;writing-mode:lr-tb;fill:#000000;fill-opacity:1;fill-rule:nonzero;stroke:none"
   transform="matrix(1,0,0,-1,407,87)"><tspan
     id="tspan6583"
     sodipodi:role="line"
     y="0"
     x="0 5.5599999 8.3400002"
     style="font-size:10px;line-height:1.25">0.4</tspan></text>



</g><g
   transform="translate(542.09673,-768.82906)"
   id="g6587"><text
   id="text6589"
   style="font-variant:normal;font-weight:normal;line-height:0%;font-family:Helvetica;-inkscape-font-specification:Helvetica;writing-mode:lr-tb;fill:#000000;fill-opacity:1;fill-rule:nonzero;stroke:none"
   transform="matrix(1,0,0,-1,469,87)"><tspan
     id="tspan6591"
     sodipodi:role="line"
     y="0"
     x="0 5.5599999 8.3400002"
     style="font-size:10px;line-height:1.25">0.6</tspan></text>



</g><g
   transform="translate(542.23815,-768.82906)"
   id="g6595"><text
   id="text6597"
   style="font-variant:normal;font-weight:normal;line-height:0%;font-family:Helvetica;-inkscape-font-specification:Helvetica;writing-mode:lr-tb;fill:#000000;fill-opacity:1;fill-rule:nonzero;stroke:none"
   transform="matrix(1,0,0,-1,531,87)"><tspan
     id="tspan6599"
     sodipodi:role="line"
     y="0"
     x="0 5.5599999 8.3400002"
     style="font-size:10px;line-height:1.25">0.8</tspan></text>



</g><g
   transform="translate(542.09673,-768.82906)"
   id="g6603"><text
   id="text6605"
   style="font-variant:normal;font-weight:normal;line-height:0%;font-family:Helvetica;-inkscape-font-specification:Helvetica;writing-mode:lr-tb;fill:#000000;fill-opacity:1;fill-rule:nonzero;stroke:none"
   transform="matrix(1,0,0,-1,593,87)"><tspan
     id="tspan6609"
     sodipodi:role="line"
     y="0"
     x="0"
     style="font-size:10px;line-height:1.25">1.0</tspan></text>



</g><path
   inkscape:connector-curvature="0"
   id="path6611"
   style="fill:none;stroke:#c0c0c0;stroke-width:0.80000001;stroke-linecap:butt;stroke-linejoin:miter;stroke-miterlimit:10;stroke-dasharray:0.8, 0.8;stroke-dashoffset:0;stroke-opacity:1"
   d="M 646.28353,-670.94156 H 1142.2836" /><g
   transform="translate(554.47247,-1148.3119)"
   id="g6663" /><path
   d="m 645.48267,-670.92136 h 4.18818"
   id="path6801"
   style="fill:none;stroke:#000000;stroke-width:1.60000002;stroke-linecap:butt;stroke-linejoin:round;stroke-miterlimit:4;stroke-dasharray:none;stroke-opacity:1"
   inkscape:connector-curvature="0" />

<path
   inkscape:connector-curvature="0"
   id="path5391-7"
   style="fill:none;stroke:#000000;stroke-width:1.5999999;stroke-linecap:butt;stroke-linejoin:miter;stroke-miterlimit:10;stroke-dasharray:none;stroke-opacity:1"
   d="m 646.3668,-670.91894 h 496.7344" /><path
   d="m 708.31403,-666.9503 v -4.383"
   id="path10793-7-2"
   style="fill:none;stroke:#000000;stroke-width:1.60000002;stroke-linecap:butt;stroke-linejoin:round;stroke-miterlimit:4;stroke-dasharray:none;stroke-opacity:1"
   inkscape:connector-curvature="0" /><text
   id="text10933-3-6"
   y="696.24255"
   x="918.37872"
   style="font-style:normal;font-variant:normal;font-weight:normal;font-stretch:normal;line-height:0%;font-family:'Liberation Sans';-inkscape-font-specification:'Liberation Sans';text-align:end;letter-spacing:0px;word-spacing:0px;writing-mode:lr-tb;text-anchor:end;fill:#000000;fill-opacity:1;stroke:none;stroke-width:1px;stroke-linecap:butt;stroke-linejoin:miter;stroke-opacity:1"
   xml:space="preserve"
   transform="scale(1,-1)"><tspan
     style="font-style:normal;font-variant:normal;font-weight:bold;font-stretch:normal;font-size:13.99999809px;line-height:1.25;font-family:'Liberation Sans';-inkscape-font-specification:'Liberation Sans Bold'"
     y="696.24255"
     x="922.26837"
     id="tspan10935-6-0"
     sodipodi:role="line">Veff (V) </tspan></text>



<path
   inkscape:connector-curvature="0"
   style="fill:none;stroke:#000000;stroke-width:1.60000002;stroke-linecap:butt;stroke-linejoin:round;stroke-miterlimit:4;stroke-dasharray:none;stroke-opacity:1"
   id="path7065"
   d="m 770.28971,-666.9503 v -4.383" /><path
   d="m 894.28971,-666.9503 v -4.383"
   id="path7067"
   style="fill:none;stroke:#000000;stroke-width:1.60000002;stroke-linecap:butt;stroke-linejoin:round;stroke-miterlimit:4;stroke-dasharray:none;stroke-opacity:1"
   inkscape:connector-curvature="0" /><path
   inkscape:connector-curvature="0"
   style="fill:none;stroke:#000000;stroke-width:1.60000002;stroke-linecap:butt;stroke-linejoin:round;stroke-miterlimit:4;stroke-dasharray:none;stroke-opacity:1"
   id="path7069"
   d="m 956.33616,-666.9503 v -4.383" /><path
   d="m 1018.2766,-666.9503 v -4.383"
   id="path7072"
   style="fill:none;stroke:#000000;stroke-width:1.60000002;stroke-linecap:butt;stroke-linejoin:round;stroke-miterlimit:4;stroke-dasharray:none;stroke-opacity:1"
   inkscape:connector-curvature="0" /><path
   inkscape:connector-curvature="0"
   style="fill:none;stroke:#000000;stroke-width:1.60000002;stroke-linecap:butt;stroke-linejoin:round;stroke-miterlimit:4;stroke-dasharray:none;stroke-opacity:1"
   id="path7074"
   d="m 1080.3016,-666.9503 v -4.383" /><path
   d="m 1142.3016,-666.9503 v -4.383"
   id="path7076"
   style="fill:none;stroke:#000000;stroke-width:1.60000002;stroke-linecap:butt;stroke-linejoin:round;stroke-miterlimit:4;stroke-dasharray:none;stroke-opacity:1"
   inkscape:connector-curvature="0" />



<rect
   style="color:#000000;clip-rule:nonzero;display:inline;overflow:visible;visibility:visible;opacity:1;isolation:auto;mix-blend-mode:normal;color-interpolation:sRGB;color-interpolation-filters:linearRGB;solid-color:#000000;solid-opacity:1;fill:#ffffff;fill-opacity:1;fill-rule:nonzero;stroke:#808080;stroke-width:1.60000014;stroke-linecap:butt;stroke-linejoin:miter;stroke-miterlimit:10;stroke-dasharray:none;stroke-dashoffset:0;stroke-opacity:1;color-rendering:auto;image-rendering:auto;shape-rendering:auto;text-rendering:auto;enable-background:accumulate"
   id="rect4608-4"
   width="98.400002"
   height="62.400002"
   x="950.43579"
   y="504.47861"
   rx="4.4456367"
   ry="6.0771937"
   transform="scale(1,-1)" /><text
   id="text4935-4"
   y="540.81934"
   x="956.8678"
   style="font-style:normal;font-variant:normal;font-weight:normal;font-stretch:normal;font-size:12px;line-height:0%;font-family:'Liberation Sans';-inkscape-font-specification:'Liberation Sans';text-align:start;letter-spacing:0px;word-spacing:0px;writing-mode:lr-tb;text-anchor:start;fill:#000000;fill-opacity:1;stroke:none;stroke-width:1px;stroke-linecap:butt;stroke-linejoin:miter;stroke-opacity:1"
   xml:space="preserve"
   transform="scale(1,-1)"><tspan
     style="font-style:normal;font-variant:normal;font-weight:bold;font-stretch:normal;font-size:13.99999809px;line-height:1.25;font-family:'Liberation Sans';-inkscape-font-specification:'Liberation Sans Bold';text-align:start;text-anchor:start;stroke-width:1px"
     y="540.81934"
     x="956.8678"
     id="tspan4937-1"
     sodipodi:role="line"> 0.0 V</tspan></text>
<text
   xml:space="preserve"
   style="font-style:normal;font-variant:normal;font-weight:normal;font-stretch:normal;font-size:12px;line-height:0%;font-family:'Liberation Sans';-inkscape-font-specification:'Liberation Sans';text-align:end;letter-spacing:0px;word-spacing:0px;writing-mode:lr-tb;text-anchor:end;fill:#000000;fill-opacity:1;stroke:none;stroke-width:1px;stroke-linecap:butt;stroke-linejoin:miter;stroke-opacity:1"
   x="994.2536"
   y="557.21936"
   id="text7078"
   transform="scale(1,-1)"><tspan
     sodipodi:role="line"
     id="tspan7080"
     x="994.2536"
     y="557.21936"
     style="font-style:normal;font-variant:normal;font-weight:bold;font-stretch:normal;font-size:13.99999809px;line-height:1.25;font-family:'Liberation Sans';-inkscape-font-specification:'Liberation Sans Bold';stroke-width:1px">-1.3 V</tspan></text>
<text
   xml:space="preserve"
   style="font-style:normal;font-variant:normal;font-weight:normal;font-stretch:normal;font-size:12px;line-height:0%;font-family:'Liberation Sans';-inkscape-font-specification:'Liberation Sans';text-align:start;letter-spacing:0px;word-spacing:0px;writing-mode:lr-tb;text-anchor:start;fill:#000000;fill-opacity:1;stroke:none;stroke-width:1px;stroke-linecap:butt;stroke-linejoin:miter;stroke-opacity:1"
   x="999.83661"
   y="522.69861"
   id="text5758-2-4"
   transform="scale(1,-1)"><tspan
     sodipodi:role="line"
     x="999.83661"
     y="522.69861"
     style="font-style:normal;font-variant:normal;font-weight:bold;font-stretch:normal;font-size:13.99999809px;line-height:1.25;font-family:'Liberation Sans';-inkscape-font-specification:'Liberation Sans Bold';text-align:center;text-anchor:middle;stroke-width:1px"
     id="tspan5518-1">Vbs potential</tspan></text>
<path
   inkscape:connector-curvature="0"
   id="path5449-0"
   style="fill:none;stroke:#ff0000;stroke-width:1.60000002;stroke-linecap:butt;stroke-linejoin:miter;stroke-miterlimit:10;stroke-dasharray:none;stroke-opacity:1"
   d="M 1002.4616,-535.99997 H 1024" /><path
   d="M 1002.4616,-552.41022 H 1024"
   style="fill:none;stroke:#0066ff;stroke-width:1.60000002;stroke-linecap:butt;stroke-linejoin:miter;stroke-miterlimit:10;stroke-dasharray:none;stroke-opacity:1"
   id="path7116"
   inkscape:connector-curvature="0" /></g></svg>