<?xml version="1.0" encoding="UTF-8" standalone="no"?>
<!-- Created with Inkscape (http://www.inkscape.org/) -->

<svg
   xmlns:dc="http://purl.org/dc/elements/1.1/"
   xmlns:cc="http://creativecommons.org/ns#"
   xmlns:rdf="http://www.w3.org/1999/02/22-rdf-syntax-ns#"
   xmlns:svg="http://www.w3.org/2000/svg"
   xmlns="http://www.w3.org/2000/svg"
   xmlns:sodipodi="http://sodipodi.sourceforge.net/DTD/sodipodi-0.dtd"
   xmlns:inkscape="http://www.inkscape.org/namespaces/inkscape"
   id="svg2"
   version="1.1"
   inkscape:version="0.92.5 (2060ec1f9f, 2020-04-08)"
   xml:space="preserve"
   width="691.86499"
   height="406.79507"
   viewBox="0 0 691.86499 406.79506"
   sodipodi:docname="dc_analysis_small_signal_a0_veff_vbs.svg"><metadata
     id="metadata8"><rdf:RDF><cc:Work
         rdf:about=""><dc:format>image/svg+xml</dc:format><dc:type
           rdf:resource="http://purl.org/dc/dcmitype/StillImage" /><dc:title /></cc:Work></rdf:RDF></metadata><defs
     id="defs6" /><sodipodi:namedview
     pagecolor="#ffffff"
     bordercolor="#666666"
     borderopacity="1"
     objecttolerance="10"
     gridtolerance="10"
     guidetolerance="10"
     inkscape:pageopacity="1"
     inkscape:pageshadow="2"
     inkscape:window-width="1920"
     inkscape:window-height="1031"
     id="namedview4"
     showgrid="true"
     inkscape:zoom="1"
     inkscape:cx="156.85419"
     inkscape:cy="315.1937"
     inkscape:window-x="0"
     inkscape:window-y="0"
     inkscape:window-maximized="1"
     inkscape:current-layer="g10"
     fit-margin-top="5"
     fit-margin-left="5"
     fit-margin-right="5"
     fit-margin-bottom="5"><inkscape:grid
       type="xygrid"
       id="grid4765"
       color="#e0e0e0"
       opacity="1"
       empcolor="#e0e0e0"
       empopacity="1"
       dotted="true"
       originx="-748.76839"
       originy="1255.2881" /></sodipodi:namedview><g
     id="g10"
     inkscape:groupmode="layer"
     inkscape:label="ink_ext_XXXXXX"
     transform="matrix(1.25,0,0,-1.25,-748.76839,-848.493)"><path
   inkscape:connector-curvature="0"
   id="path10323-4"
   style="fill:none;stroke:#c0c0c0;stroke-width:0.80000007;stroke-linecap:butt;stroke-linejoin:miter;stroke-miterlimit:10;stroke-dasharray:0.8, 0.8;stroke-dashoffset:0;stroke-opacity:1"
   d="M 646.03904,-972.01094 H 1092.2488" />





<g
   id="g5587"
   transform="translate(540.28946,-471.02944)" />



















<path
   inkscape:connector-curvature="0"
   id="path6537"
   style="fill:none;stroke:#000000;stroke-width:1.60000002;stroke-linecap:butt;stroke-linejoin:miter;stroke-miterlimit:10;stroke-dasharray:none;stroke-dashoffset:0;stroke-opacity:1"
   d="m 646.28353,-972.0244 v 285" /><g
   transform="translate(539.03815,-1069.9119)"
   id="g6539"><text
   id="text6541"
   style="font-variant:normal;font-weight:normal;line-height:0%;font-family:Helvetica;-inkscape-font-specification:Helvetica;writing-mode:lr-tb;fill:#000000;fill-opacity:1;fill-rule:nonzero;stroke:none"
   transform="matrix(1,0,0,-1,94,87)"><tspan
     id="tspan6543"
     sodipodi:role="line"
     y="0"
     x="0 5.8400002 11.4 14.18"
     style="font-size:10px;line-height:1.25">−0.6</tspan></text>



</g><path
   inkscape:connector-curvature="0"
   id="path6545"
   style="fill:none;stroke:#c0c0c0;stroke-width:0.80000001;stroke-linecap:butt;stroke-linejoin:miter;stroke-miterlimit:10;stroke-dasharray:0.8, 0.8;stroke-dashoffset:0;stroke-opacity:1"
   d="m 708.28356,-972.0244 v 285" /><g
   transform="translate(539.64821,-1069.9119)"
   id="g6547"><text
   id="text6549"
   style="font-variant:normal;font-weight:normal;line-height:0%;font-family:Helvetica;-inkscape-font-specification:Helvetica;writing-mode:lr-tb;fill:#000000;fill-opacity:1;fill-rule:nonzero;stroke:none"
   transform="matrix(1,0,0,-1,156,87)"><tspan
     id="tspan6551"
     sodipodi:role="line"
     y="0"
     x="0 5.8400002 11.4 14.18"
     style="font-size:10px;line-height:1.25">−0.4</tspan></text>



</g><path
   inkscape:connector-curvature="0"
   id="path6553"
   style="fill:none;stroke:#c0c0c0;stroke-width:0.80000001;stroke-linecap:butt;stroke-linejoin:miter;stroke-miterlimit:10;stroke-dasharray:0.8, 0.8;stroke-dashoffset:0;stroke-opacity:1"
   d="m 770.28356,-972.0244 v 285" /><g
   transform="translate(539.03815,-1069.9119)"
   id="g6555"><text
   id="text6557"
   style="font-variant:normal;font-weight:normal;line-height:0%;font-family:Helvetica;-inkscape-font-specification:Helvetica;writing-mode:lr-tb;fill:#000000;fill-opacity:1;fill-rule:nonzero;stroke:none"
   transform="matrix(1,0,0,-1,218,87)"><tspan
     id="tspan6559"
     sodipodi:role="line"
     y="0"
     x="0 5.8400002 11.4 14.18"
     style="font-size:10px;line-height:1.25">−0.2</tspan></text>



</g><path
   inkscape:connector-curvature="0"
   id="path6561"
   style="fill:none;stroke:#000000;stroke-width:1.60000002;stroke-linecap:butt;stroke-linejoin:miter;stroke-miterlimit:10;stroke-dasharray:4.8, 1.6;stroke-dashoffset:0;stroke-opacity:1"
   d="m 832.28356,-972.0244 v 285" /><g
   transform="translate(539.17957,-1069.9119)"
   id="g6563"><text
   id="text6565"
   style="font-variant:normal;font-weight:normal;line-height:0%;font-family:Helvetica;-inkscape-font-specification:Helvetica;writing-mode:lr-tb;fill:#000000;fill-opacity:1;fill-rule:nonzero;stroke:none"
   transform="matrix(1,0,0,-1,280,87)"><tspan
     id="tspan6567"
     sodipodi:role="line"
     y="0"
     x="0 5.8400002 11.4 14.18"
     style="font-size:10px;line-height:1.25">−0.0</tspan></text>



</g><path
   inkscape:connector-curvature="0"
   id="path6569"
   style="fill:none;stroke:#c0c0c0;stroke-width:0.80000001;stroke-linecap:butt;stroke-linejoin:miter;stroke-miterlimit:10;stroke-dasharray:0.8, 0.8;stroke-dashoffset:0;stroke-opacity:1"
   d="m 894.28356,-972.0244 v 285" /><g
   transform="translate(542.37957,-1069.9119)"
   id="g6571"><text
   id="text6573"
   style="font-variant:normal;font-weight:normal;line-height:0%;font-family:Helvetica;-inkscape-font-specification:Helvetica;writing-mode:lr-tb;fill:#000000;fill-opacity:1;fill-rule:nonzero;stroke:none"
   transform="matrix(1,0,0,-1,345,87)"><tspan
     id="tspan6575"
     sodipodi:role="line"
     y="0"
     x="0 5.5599999 8.3400002"
     style="font-size:10px;line-height:1.25">0.2</tspan></text>



</g><path
   inkscape:connector-curvature="0"
   id="path6577"
   style="fill:none;stroke:#c0c0c0;stroke-width:0.80000001;stroke-linecap:butt;stroke-linejoin:miter;stroke-miterlimit:10;stroke-dasharray:0.8, 0.8;stroke-dashoffset:0;stroke-opacity:1"
   d="m 956.28356,-972.0244 v 285" /><g
   transform="translate(542.37957,-1069.9119)"
   id="g6579"><text
   id="text6581"
   style="font-variant:normal;font-weight:normal;line-height:0%;font-family:Helvetica;-inkscape-font-specification:Helvetica;writing-mode:lr-tb;fill:#000000;fill-opacity:1;fill-rule:nonzero;stroke:none"
   transform="matrix(1,0,0,-1,407,87)"><tspan
     id="tspan6583"
     sodipodi:role="line"
     y="0"
     x="0 5.5599999 8.3400002"
     style="font-size:10px;line-height:1.25">0.4</tspan></text>



</g><path
   inkscape:connector-curvature="0"
   id="path6585"
   style="fill:none;stroke:#c0c0c0;stroke-width:0.80000001;stroke-linecap:butt;stroke-linejoin:miter;stroke-miterlimit:10;stroke-dasharray:0.8, 0.8;stroke-dashoffset:0;stroke-opacity:1"
   d="m 1018.2836,-972.0244 v 285" /><g
   transform="translate(542.09673,-1069.9119)"
   id="g6587"><text
   id="text6589"
   style="font-variant:normal;font-weight:normal;line-height:0%;font-family:Helvetica;-inkscape-font-specification:Helvetica;writing-mode:lr-tb;fill:#000000;fill-opacity:1;fill-rule:nonzero;stroke:none"
   transform="matrix(1,0,0,-1,469,87)"><tspan
     id="tspan6591"
     sodipodi:role="line"
     y="0"
     x="0 5.5599999 8.3400002"
     style="font-size:10px;line-height:1.25">0.6</tspan></text>



</g><path
   inkscape:connector-curvature="0"
   id="path6593"
   style="fill:none;stroke:#c0c0c0;stroke-width:0.80000001;stroke-linecap:butt;stroke-linejoin:miter;stroke-miterlimit:10;stroke-dasharray:0.8, 0.8;stroke-dashoffset:0;stroke-opacity:1"
   d="m 1080.2836,-972.0244 v 285" /><g
   transform="translate(542.23815,-1069.9119)"
   id="g6595"><text
   id="text6597"
   style="font-variant:normal;font-weight:normal;line-height:0%;font-family:Helvetica;-inkscape-font-specification:Helvetica;writing-mode:lr-tb;fill:#000000;fill-opacity:1;fill-rule:nonzero;stroke:none"
   transform="matrix(1,0,0,-1,531,87)"><tspan
     id="tspan6599"
     sodipodi:role="line"
     y="0"
     x="0 5.5599999 8.3400002"
     style="font-size:10px;line-height:1.25">0.8</tspan></text>



</g><path
   inkscape:connector-curvature="0"
   id="path6601"
   style="fill:none;stroke:#c0c0c0;stroke-width:0.80000001;stroke-linecap:butt;stroke-linejoin:miter;stroke-miterlimit:10;stroke-dasharray:0.8, 0.8;stroke-dashoffset:0;stroke-opacity:1"
   d="m 1142.2836,-972.0244 v 285" /><g
   transform="translate(542.09673,-1069.9119)"
   id="g6603"><text
   id="text6605"
   style="font-variant:normal;font-weight:normal;line-height:0%;font-family:Helvetica;-inkscape-font-specification:Helvetica;writing-mode:lr-tb;fill:#000000;fill-opacity:1;fill-rule:nonzero;stroke:none"
   transform="matrix(1,0,0,-1,593,87)"><tspan
     id="tspan6609"
     sodipodi:role="line"
     y="0"
     x="0"
     style="font-size:10px;line-height:1.25">1.0</tspan></text>



</g><path
   inkscape:connector-curvature="0"
   id="path6611"
   style="fill:none;stroke:#c0c0c0;stroke-width:0.80000001;stroke-linecap:butt;stroke-linejoin:miter;stroke-miterlimit:10;stroke-dasharray:0.8, 0.8;stroke-dashoffset:0;stroke-opacity:1"
   d="M 646.28353,-972.0244 H 1142.2836" /><g
   transform="translate(541.63626,-1074.1416)"
   id="g6613"><text
   id="text6615"
   style="font-variant:normal;font-weight:normal;line-height:0%;font-family:Helvetica;-inkscape-font-specification:Helvetica;writing-mode:lr-tb;fill:#000000;fill-opacity:1;fill-rule:nonzero;stroke:none"
   transform="matrix(1,0,0,-1,80,101)"><tspan
     id="tspan6617"
     sodipodi:role="line"
     y="0"
     x="0 5.5599999 11.12 13.9"
     style="font-size:10px;line-height:1.25">18.0</tspan></text>



</g><path
   inkscape:connector-curvature="0"
   id="path6619"
   style="fill:none;stroke:#c0c0c0;stroke-width:0.80000001;stroke-linecap:butt;stroke-linejoin:miter;stroke-miterlimit:10;stroke-dasharray:0.8, 0.8;stroke-dashoffset:0;stroke-opacity:1"
   d="M 646.28353,-915.0244 H 1142.2836" /><g
   transform="translate(541.63626,-1076.0244)"
   id="g6621"><text
   id="text6623"
   style="font-variant:normal;font-weight:normal;line-height:0%;font-family:Helvetica;-inkscape-font-specification:Helvetica;writing-mode:lr-tb;fill:#000000;fill-opacity:1;fill-rule:nonzero;stroke:none"
   transform="matrix(1,0,0,-1,80,158)"><tspan
     id="tspan6625"
     sodipodi:role="line"
     y="0"
     x="0 5.5599999 11.12 13.9"
     style="font-size:10px;line-height:1.25">19.0</tspan></text>



</g><path
   inkscape:connector-curvature="0"
   id="path6627"
   style="fill:none;stroke:#c0c0c0;stroke-width:0.80000001;stroke-linecap:butt;stroke-linejoin:miter;stroke-miterlimit:10;stroke-dasharray:0.8, 0.8;stroke-dashoffset:0;stroke-opacity:1"
   d="M 646.28353,-858.0244 H 1142.2836" /><g
   transform="translate(541.63626,-1076.0244)"
   id="g6629"><text
   id="text6631"
   style="font-variant:normal;font-weight:normal;line-height:0%;font-family:Helvetica;-inkscape-font-specification:Helvetica;writing-mode:lr-tb;fill:#000000;fill-opacity:1;fill-rule:nonzero;stroke:none"
   transform="matrix(1,0,0,-1,80,215)"><tspan
     id="tspan6633"
     sodipodi:role="line"
     y="0"
     x="0 5.5599999 11.12 13.9"
     style="font-size:10px;line-height:1.25">20.0</tspan></text>



</g><path
   inkscape:connector-curvature="0"
   id="path6635"
   style="fill:none;stroke:#c0c0c0;stroke-width:0.80000001;stroke-linecap:butt;stroke-linejoin:miter;stroke-miterlimit:10;stroke-dasharray:0.8, 0.8;stroke-dashoffset:0;stroke-opacity:1"
   d="M 646.28353,-801.0244 H 1142.2836" /><g
   transform="translate(541.63626,-1076.0244)"
   id="g6637"><text
   id="text6639"
   style="font-variant:normal;font-weight:normal;line-height:0%;font-family:Helvetica;-inkscape-font-specification:Helvetica;writing-mode:lr-tb;fill:#000000;fill-opacity:1;fill-rule:nonzero;stroke:none"
   transform="matrix(1,0,0,-1,80,272)"><tspan
     id="tspan6641"
     sodipodi:role="line"
     y="0"
     x="0 5.5599999 11.12 13.9"
     style="font-size:10px;line-height:1.25">21.0</tspan></text>



</g><path
   inkscape:connector-curvature="0"
   id="path6643"
   style="fill:none;stroke:#c0c0c0;stroke-width:0.80000001;stroke-linecap:butt;stroke-linejoin:miter;stroke-miterlimit:10;stroke-dasharray:0.8, 0.8;stroke-dashoffset:0;stroke-opacity:1"
   d="M 646.28353,-744.0244 H 1142.2836" /><g
   transform="translate(541.63626,-1076.0244)"
   id="g6645"><text
   id="text6647"
   style="font-variant:normal;font-weight:normal;line-height:0%;font-family:Helvetica;-inkscape-font-specification:Helvetica;writing-mode:lr-tb;fill:#000000;fill-opacity:1;fill-rule:nonzero;stroke:none"
   transform="matrix(1,0,0,-1,80,329)"><tspan
     id="tspan6649"
     sodipodi:role="line"
     y="0"
     x="0 5.5599999 11.12 13.9"
     style="font-size:10px;line-height:1.25">22.0</tspan></text>



</g><path
   inkscape:connector-curvature="0"
   id="path6651"
   style="fill:none;stroke:#c0c0c0;stroke-width:0.80000001;stroke-linecap:butt;stroke-linejoin:miter;stroke-miterlimit:10;stroke-dasharray:0.8, 0.8;stroke-dashoffset:0;stroke-opacity:1"
   d="M 646.28353,-687.0244 H 1142.2836" /><g
   transform="translate(541.63001,-1076.0244)"
   id="g6653"><text
   id="text6655"
   style="font-variant:normal;font-weight:normal;line-height:0%;font-family:Helvetica;-inkscape-font-specification:Helvetica;writing-mode:lr-tb;fill:#000000;fill-opacity:1;fill-rule:nonzero;stroke:none"
   transform="matrix(1,0,0,-1,80,386)"><tspan
     id="tspan6659"
     sodipodi:role="line"
     y="0"
     x="0"
     style="font-size:10px;line-height:1.25">23.0</tspan></text>



</g><g
   transform="translate(554.47247,-1148.3119)"
   id="g6663" /><path
   inkscape:connector-curvature="0"
   id="path6671"
   style="fill:none;stroke:#a0a0a0;stroke-width:0.80000001;stroke-linecap:butt;stroke-linejoin:miter;stroke-miterlimit:10;stroke-dasharray:none;stroke-opacity:1"
   d="m 746.28356,-702.0244 16,-1 15,-1 16,-2 15,-2 16,-2 15,-4 16,-7 15,-11 16,-12 15,-13 16,-14 15,-14 16,-14 15,-13 16,-14 15,-13 16.00004,-13 15,-12 16,-13 15,-13 16,-12 15,-12 16,-13 15,-12 16,-12" /><path
   inkscape:connector-curvature="0"
   id="path6673"
   style="fill:none;stroke:#a0a0a0;stroke-width:0.80000001;stroke-linecap:butt;stroke-linejoin:miter;stroke-miterlimit:10;stroke-dasharray:none;stroke-opacity:1"
   d="m 739.28356,-701.0244 15,-1 16,-1 15,-2 16,-3 15,-1 16,-3 15,-7 16,-9 15,-11 16,-13 15,-14 16,-14 15,-13 16,-14 15,-13 16,-14 15.00004,-13 16,-13 15,-12 16,-13 15,-12 16,-13 15,-12 16,-12 15,-13" /><path
   inkscape:connector-curvature="0"
   id="path6675"
   style="fill:none;stroke:#a0a0a0;stroke-width:0.80000001;stroke-linecap:butt;stroke-linejoin:miter;stroke-miterlimit:10;stroke-dasharray:none;stroke-opacity:1"
   d="m 732.28356,-701.0244 h 15 l 16,-2 15,-1 16,-3 15,-2 16,-2 15,-5 16,-8 15,-10 16,-13 15,-13 16,-14 15,-14 16,-14 15,-13 16,-14 15,-13 16.00004,-13 15,-12 16,-13 15,-13 16,-12 15,-12 16,-13 15,-12" /><path
   inkscape:connector-curvature="0"
   id="path6677"
   style="fill:none;stroke:#a0a0a0;stroke-width:0.80000001;stroke-linecap:butt;stroke-linejoin:miter;stroke-miterlimit:10;stroke-dasharray:none;stroke-opacity:1"
   d="m 725.28356,-700.0244 15,-1 16,-1 15,-1 16,-3 15,-2 16,-3 15,-4 16,-6 15,-10 16,-11 15,-13 16,-14 15,-14 16,-14 15,-14 16,-13 15,-13 16.00004,-13 15,-13 16,-13 15,-12 16,-13 15,-12 16,-12 15,-13" /><path
   inkscape:connector-curvature="0"
   id="path6679"
   style="fill:none;stroke:#a0a0a0;stroke-width:0.80000001;stroke-linecap:butt;stroke-linejoin:miter;stroke-miterlimit:10;stroke-dasharray:none;stroke-opacity:1"
   d="m 718.28356,-700.0244 16,-1 h 15 l 16,-2 15,-2 16,-2 15,-3 16,-4 15,-5 16,-8 15,-11 16,-13 15,-13 16,-14 15,-14 16,-14 15,-13 16,-14 15,-13 16.00004,-12 15,-13 16,-13 15,-12 16,-13 15,-12 16,-12" /><path
   inkscape:connector-curvature="0"
   id="path6681"
   style="fill:none;stroke:#a0a0a0;stroke-width:0.80000001;stroke-linecap:butt;stroke-linejoin:miter;stroke-miterlimit:10;stroke-dasharray:none;stroke-opacity:1"
   d="m 712.28356,-700.0244 h 15 l 16,-1 15,-1 16,-2 15,-2 16,-3 15,-4 16,-4 15,-7 16,-10 15,-12 16,-13 15,-14 16,-14 15,-14 16,-14 15,-13 16,-13 15.00004,-13 16,-13 15,-13 16,-12 15,-13 16,-12 15,-12" /><path
   inkscape:connector-curvature="0"
   id="path6683"
   style="fill:none;stroke:#a0a0a0;stroke-width:0.80000001;stroke-linecap:butt;stroke-linejoin:miter;stroke-miterlimit:10;stroke-dasharray:none;stroke-opacity:1"
   d="m 705.28356,-700.0244 h 16 l 15,-1 h 16 l 15,-2 16,-2 15,-3 16,-4 15,-4 16,-6 15,-9 16,-11 15,-13 16,-14 15,-14 16,-13 15,-14 16,-14 15,-13 16.00004,-13 15,-13 16,-12 15,-13 16,-12 15,-13 16,-12" /><path
   inkscape:connector-curvature="0"
   id="path6685"
   style="fill:none;stroke:#a0a0a0;stroke-width:0.80000001;stroke-linecap:butt;stroke-linejoin:miter;stroke-miterlimit:10;stroke-dasharray:none;stroke-opacity:1"
   d="m 699.28356,-700.0244 h 31 l 16,-1 15,-1 16,-2 15,-3 16,-4 15,-4 16,-5 15,-8 16,-10 15,-12 16,-14 15,-14 16,-14 15,-14 16,-13 15,-14 16,-13 15.00004,-13 16,-12 15,-13 16,-12 15,-13 16,-12" /><path
   inkscape:connector-curvature="0"
   id="path6687"
   style="fill:none;stroke:#a0a0a0;stroke-width:0.80000001;stroke-linecap:butt;stroke-linejoin:miter;stroke-miterlimit:10;stroke-dasharray:none;stroke-opacity:1"
   d="m 693.28356,-700.0244 h 31 l 16,-1 15,-1 16,-1 15,-4 16,-4 15,-3 16,-5 15,-6 16,-9 15,-12 16,-13 15,-14 16,-14 15,-14 16,-14 15,-13 16,-14 15.00004,-13 16,-12 15,-13 16,-13 15,-12 16,-12" /><path
   inkscape:connector-curvature="0"
   id="path6689"
   style="fill:none;stroke:#a0a0a0;stroke-width:0.80000001;stroke-linecap:butt;stroke-linejoin:miter;stroke-miterlimit:10;stroke-dasharray:none;stroke-opacity:1"
   d="m 688.28356,-700.0244 h 46 l 16,-1 15,-2 16,-3 15,-4 16,-4 15,-4 16,-5 15,-8 16,-11 15,-13 16,-14 15,-14 16,-14 15,-14 16,-13 15,-13 16,-14 15.00004,-12 16,-13 15,-13 16,-12 15,-13" /><path
   inkscape:connector-curvature="0"
   id="path6691"
   style="fill:none;stroke:#a0a0a0;stroke-width:0.80000001;stroke-linecap:butt;stroke-linejoin:miter;stroke-miterlimit:10;stroke-dasharray:none;stroke-opacity:1"
   d="m 682.28356,-700.0244 h 47 l 15,-1 16,-1 15,-3 16,-4 15,-4 16,-4 15,-4 16,-8 15,-10 16,-12 15,-14 16,-14 15,-14 16,-13 15,-14 16,-13 15,-14 16.00004,-13 15,-12 16,-13 15,-13 16,-12" /><path
   inkscape:connector-curvature="0"
   id="path6693"
   style="fill:none;stroke:#a0a0a0;stroke-width:0.80000001;stroke-linecap:butt;stroke-linejoin:miter;stroke-miterlimit:10;stroke-dasharray:none;stroke-opacity:1"
   d="m 677.28356,-700.0244 h 62 l 15,-1 16,-3 15,-4 16,-4 15,-4 16,-4 15,-6 16,-10 15,-11 16,-13 15,-14 16,-14 15,-14 16,-14 15,-13 16,-14 15.00004,-13 16,-13 15,-12 16,-13 15,-12" /><path
   inkscape:connector-curvature="0"
   id="path6695"
   style="fill:none;stroke:#0066ff;stroke-width:1.60000002;stroke-linecap:butt;stroke-linejoin:miter;stroke-miterlimit:10;stroke-dasharray:none;stroke-opacity:1"
   d="m 671.28356,-700.0244 h 62 l 16,-1 15,-2 16,-4 15,-5 16,-3 15,-4 16,-5 15,-9 16,-11 15,-12 16,-14 15,-14 16,-14 15,-14 16,-14 15,-13 16,-13 15.00004,-13 16,-13 15,-12 16,-13" /><path
   inkscape:connector-curvature="0"
   style="fill:none;stroke:#000000;stroke-width:1.60000002;stroke-linecap:butt;stroke-linejoin:round;stroke-miterlimit:4;stroke-dasharray:none;stroke-opacity:1"
   id="path6791"
   d="m 645.50295,-687.00428 h 4.18818" /><path
   d="m 645.50295,-743.96789 h 4.18818"
   id="path6793"
   style="fill:none;stroke:#000000;stroke-width:1.60000002;stroke-linecap:butt;stroke-linejoin:round;stroke-miterlimit:4;stroke-dasharray:none;stroke-opacity:1"
   inkscape:connector-curvature="0" /><path
   inkscape:connector-curvature="0"
   style="fill:none;stroke:#000000;stroke-width:1.60000002;stroke-linecap:butt;stroke-linejoin:round;stroke-miterlimit:4;stroke-dasharray:none;stroke-opacity:1"
   id="path6795"
   d="m 645.50295,-800.95783 h 4.18818" /><path
   d="m 645.50295,-857.96996 h 4.18818"
   id="path6797"
   style="fill:none;stroke:#000000;stroke-width:1.60000002;stroke-linecap:butt;stroke-linejoin:round;stroke-miterlimit:4;stroke-dasharray:none;stroke-opacity:1"
   inkscape:connector-curvature="0" /><path
   inkscape:connector-curvature="0"
   style="fill:none;stroke:#000000;stroke-width:1.60000002;stroke-linecap:butt;stroke-linejoin:round;stroke-miterlimit:4;stroke-dasharray:none;stroke-opacity:1"
   id="path6799"
   d="m 645.50295,-914.96996 h 4.18818" /><path
   d="m 645.48267,-972.0042 h 4.18818"
   id="path6801"
   style="fill:none;stroke:#000000;stroke-width:1.60000002;stroke-linecap:butt;stroke-linejoin:round;stroke-miterlimit:4;stroke-dasharray:none;stroke-opacity:1"
   inkscape:connector-curvature="0" /><path
   inkscape:connector-curvature="0"
   id="path6669"
   style="fill:none;stroke:#ff0000;stroke-width:1.60000002;stroke-linecap:butt;stroke-linejoin:miter;stroke-miterlimit:10;stroke-dasharray:none;stroke-opacity:1"
   d="m 754.28356,-702.0244 16,-2 15,-1 16,-2 15,-2 16,-2 15,-5 16,-9 15,-11 16,-13 15,-14 16,-14 15,-14 16,-13 15,-14 16,-13 15.00004,-13 16,-13 15,-13 16,-12 15,-13 16,-12 15,-12 16,-13 15,-12 16,-12" /><text
   transform="matrix(0,1,1,0,0,0)"
   id="text10933-38"
   y="613.15924"
   x="-806.47455"
   style="font-style:normal;font-variant:normal;font-weight:normal;font-stretch:normal;line-height:0%;font-family:'Liberation Sans';-inkscape-font-specification:'Liberation Sans';text-align:end;letter-spacing:0px;word-spacing:0px;writing-mode:lr-tb;text-anchor:end;fill:#000000;fill-opacity:1;stroke:none;stroke-width:1px;stroke-linecap:butt;stroke-linejoin:miter;stroke-opacity:1"
   xml:space="preserve"><tspan
     style="font-style:normal;font-variant:normal;font-weight:bold;font-stretch:normal;font-size:13.99999809px;line-height:1.25;font-family:'Liberation Sans';-inkscape-font-specification:'Liberation Sans Bold'"
     y="613.15924"
     x="-806.47455"
     id="tspan10935-0"
     sodipodi:role="line">ao (dB)</tspan></text>



<path
   inkscape:connector-curvature="0"
   id="path5391-7"
   style="fill:none;stroke:#000000;stroke-width:1.5999999;stroke-linecap:butt;stroke-linejoin:miter;stroke-miterlimit:10;stroke-dasharray:none;stroke-opacity:1"
   d="m 646.3668,-972.00178 h 496.7344" /><path
   d="m 708.31403,-968.03314 v -4.383"
   id="path10793-7-2"
   style="fill:none;stroke:#000000;stroke-width:1.60000002;stroke-linecap:butt;stroke-linejoin:round;stroke-miterlimit:4;stroke-dasharray:none;stroke-opacity:1"
   inkscape:connector-curvature="0" /><text
   id="text10933-3-6"
   y="997.3252"
   x="918.37872"
   style="font-style:normal;font-variant:normal;font-weight:normal;font-stretch:normal;line-height:0%;font-family:'Liberation Sans';-inkscape-font-specification:'Liberation Sans';text-align:end;letter-spacing:0px;word-spacing:0px;writing-mode:lr-tb;text-anchor:end;fill:#000000;fill-opacity:1;stroke:none;stroke-width:1px;stroke-linecap:butt;stroke-linejoin:miter;stroke-opacity:1"
   xml:space="preserve"
   transform="scale(1,-1)"><tspan
     style="font-style:normal;font-variant:normal;font-weight:bold;font-stretch:normal;font-size:13.99999809px;line-height:1.25;font-family:'Liberation Sans';-inkscape-font-specification:'Liberation Sans Bold'"
     y="997.3252"
     x="922.26837"
     id="tspan10935-6-0"
     sodipodi:role="line">Veff (V) </tspan></text>



<path
   inkscape:connector-curvature="0"
   style="fill:none;stroke:#000000;stroke-width:1.60000002;stroke-linecap:butt;stroke-linejoin:round;stroke-miterlimit:4;stroke-dasharray:none;stroke-opacity:1"
   id="path7065"
   d="m 770.28971,-968.03314 v -4.383" /><path
   d="m 894.28971,-968.03314 v -4.383"
   id="path7067"
   style="fill:none;stroke:#000000;stroke-width:1.60000002;stroke-linecap:butt;stroke-linejoin:round;stroke-miterlimit:4;stroke-dasharray:none;stroke-opacity:1"
   inkscape:connector-curvature="0" /><path
   inkscape:connector-curvature="0"
   style="fill:none;stroke:#000000;stroke-width:1.60000002;stroke-linecap:butt;stroke-linejoin:round;stroke-miterlimit:4;stroke-dasharray:none;stroke-opacity:1"
   id="path7069"
   d="m 956.33616,-968.03314 v -4.383" /><path
   d="m 1018.2766,-968.03314 v -4.383"
   id="path7072"
   style="fill:none;stroke:#000000;stroke-width:1.60000002;stroke-linecap:butt;stroke-linejoin:round;stroke-miterlimit:4;stroke-dasharray:none;stroke-opacity:1"
   inkscape:connector-curvature="0" /><path
   inkscape:connector-curvature="0"
   style="fill:none;stroke:#000000;stroke-width:1.60000002;stroke-linecap:butt;stroke-linejoin:round;stroke-miterlimit:4;stroke-dasharray:none;stroke-opacity:1"
   id="path7074"
   d="m 1080.3016,-968.03314 v -4.383" /><path
   d="m 1142.3016,-968.03314 v -4.383"
   id="path7076"
   style="fill:none;stroke:#000000;stroke-width:1.60000002;stroke-linecap:butt;stroke-linejoin:round;stroke-miterlimit:4;stroke-dasharray:none;stroke-opacity:1"
   inkscape:connector-curvature="0" />



<rect
   style="color:#000000;clip-rule:nonzero;display:inline;overflow:visible;visibility:visible;opacity:1;isolation:auto;mix-blend-mode:normal;color-interpolation:sRGB;color-interpolation-filters:linearRGB;solid-color:#000000;solid-opacity:1;fill:#ffffff;fill-opacity:1;fill-rule:nonzero;stroke:#808080;stroke-width:1.60000014;stroke-linecap:butt;stroke-linejoin:miter;stroke-miterlimit:10;stroke-dasharray:none;stroke-dashoffset:0;stroke-opacity:1;color-rendering:auto;image-rendering:auto;shape-rendering:auto;text-rendering:auto;enable-background:accumulate"
   id="rect4608-4"
   width="98.400002"
   height="62.400002"
   x="694.43579"
   y="800.06842"
   rx="4.4456367"
   ry="6.0771937"
   transform="scale(1,-1)" /><text
   id="text4935-4"
   y="836.40912"
   x="700.8678"
   style="font-style:normal;font-variant:normal;font-weight:normal;font-stretch:normal;font-size:12px;line-height:0%;font-family:'Liberation Sans';-inkscape-font-specification:'Liberation Sans';text-align:start;letter-spacing:0px;word-spacing:0px;writing-mode:lr-tb;text-anchor:start;fill:#000000;fill-opacity:1;stroke:none;stroke-width:1px;stroke-linecap:butt;stroke-linejoin:miter;stroke-opacity:1"
   xml:space="preserve"
   transform="scale(1,-1)"><tspan
     style="font-style:normal;font-variant:normal;font-weight:bold;font-stretch:normal;font-size:13.99999809px;line-height:1.25;font-family:'Liberation Sans';-inkscape-font-specification:'Liberation Sans Bold';text-align:start;text-anchor:start;stroke-width:1px"
     y="836.40912"
     x="700.8678"
     id="tspan4937-1"
     sodipodi:role="line"> 0.0 V</tspan></text>
<text
   xml:space="preserve"
   style="font-style:normal;font-variant:normal;font-weight:normal;font-stretch:normal;font-size:12px;line-height:0%;font-family:'Liberation Sans';-inkscape-font-specification:'Liberation Sans';text-align:end;letter-spacing:0px;word-spacing:0px;writing-mode:lr-tb;text-anchor:end;fill:#000000;fill-opacity:1;stroke:none;stroke-width:1px;stroke-linecap:butt;stroke-linejoin:miter;stroke-opacity:1"
   x="738.2536"
   y="852.80908"
   id="text7078"
   transform="scale(1,-1)"><tspan
     sodipodi:role="line"
     id="tspan7080"
     x="738.2536"
     y="852.80908"
     style="font-style:normal;font-variant:normal;font-weight:bold;font-stretch:normal;font-size:13.99999809px;line-height:1.25;font-family:'Liberation Sans';-inkscape-font-specification:'Liberation Sans Bold';stroke-width:1px">-1.3 V</tspan></text>
<text
   xml:space="preserve"
   style="font-style:normal;font-variant:normal;font-weight:normal;font-stretch:normal;font-size:12px;line-height:0%;font-family:'Liberation Sans';-inkscape-font-specification:'Liberation Sans';text-align:start;letter-spacing:0px;word-spacing:0px;writing-mode:lr-tb;text-anchor:start;fill:#000000;fill-opacity:1;stroke:none;stroke-width:1px;stroke-linecap:butt;stroke-linejoin:miter;stroke-opacity:1"
   x="743.83661"
   y="818.28833"
   id="text5758-2-4"
   transform="scale(1,-1)"><tspan
     sodipodi:role="line"
     x="743.83661"
     y="818.28833"
     style="font-style:normal;font-variant:normal;font-weight:bold;font-stretch:normal;font-size:13.99999809px;line-height:1.25;font-family:'Liberation Sans';-inkscape-font-specification:'Liberation Sans Bold';text-align:center;text-anchor:middle;stroke-width:1px"
     id="tspan5518-1">Vbs potential</tspan></text>
<path
   inkscape:connector-curvature="0"
   id="path5449-0"
   style="fill:none;stroke:#ff0000;stroke-width:1.60000002;stroke-linecap:butt;stroke-linejoin:miter;stroke-miterlimit:10;stroke-dasharray:none;stroke-opacity:1"
   d="M 746.4616,-831.58973 H 768" /><path
   d="M 746.4616,-847.99998 H 768"
   style="fill:none;stroke:#0066ff;stroke-width:1.60000002;stroke-linecap:butt;stroke-linejoin:miter;stroke-miterlimit:10;stroke-dasharray:none;stroke-opacity:1"
   id="path7116"
   inkscape:connector-curvature="0" /></g></svg>