<?xml version="1.0" encoding="UTF-8" standalone="no"?>
<svg
   xmlns:dc="http://purl.org/dc/elements/1.1/"
   xmlns:cc="http://creativecommons.org/ns#"
   xmlns:rdf="http://www.w3.org/1999/02/22-rdf-syntax-ns#"
   xmlns:svg="http://www.w3.org/2000/svg"
   xmlns="http://www.w3.org/2000/svg"
   xmlns:sodipodi="http://sodipodi.sourceforge.net/DTD/sodipodi-0.dtd"
   xmlns:inkscape="http://www.inkscape.org/namespaces/inkscape"
   version="1.1"
   width="3.0699942cm"
   height="2.0803692cm"
   viewBox="0 0 12086.591 8190.4304"
   id="svg2"
   inkscape:version="0.91 r13725"
   sodipodi:docname="schematic.svg">
  <metadata
     id="metadata266">
    <rdf:RDF>
      <cc:Work
         rdf:about="">
        <dc:format>image/svg+xml</dc:format>
        <dc:type
           rdf:resource="http://purl.org/dc/dcmitype/StillImage" />
        <dc:title>SVG Picture created as schematic.svg date 2020/07/21 12:15:41 </dc:title>
      </cc:Work>
    </rdf:RDF>
  </metadata>
  <defs
     id="defs264" />
  <sodipodi:namedview
     pagecolor="#ffffff"
     bordercolor="#666666"
     borderopacity="1"
     objecttolerance="10"
     gridtolerance="10"
     guidetolerance="10"
     inkscape:pageopacity="1"
     inkscape:pageshadow="2"
     inkscape:window-width="1920"
     inkscape:window-height="1057"
     id="namedview262"
     showgrid="false"
     fit-margin-top="0"
     fit-margin-left="0"
     fit-margin-right="0"
     fit-margin-bottom="0"
     inkscape:zoom="6.1063945"
     inkscape:cx="45.589359"
     inkscape:cy="52.772433"
     inkscape:window-x="1280"
     inkscape:window-y="0"
     inkscape:window-maximized="1"
     inkscape:current-layer="svg2" />
  <title
     id="title4">SVG Picture created as schematic.svg date 2020/07/21 12:15:41 </title>
  <desc
     id="desc6">Picture generated by Eeschema-SVG </desc>
  <g
     style="fill:#000000;fill-opacity:1;stroke:#000000;stroke-linecap:round;stroke-linejoin:round;stroke-opacity:1"
     id="g8"
     transform="translate(-62688.008,-31839.573)" />
  <g
     style="fill:#000000;fill-opacity:0;stroke:#000000;stroke-width:0;stroke-linecap:round;stroke-linejoin:round;stroke-opacity:1"
     id="g10"
     transform="translate(-62688.008,-31839.573)">
    <g
       id="g12" />
    <g
       style="fill:#840000;fill-opacity:0;stroke:#840000;stroke-width:0;stroke-linecap:round;stroke-linejoin:round;stroke-opacity:1"
       id="g14" />
    <g
       style="fill:#840000;fill-opacity:0;stroke:#840000;stroke-width:60;stroke-linecap:round;stroke-linejoin:round;stroke-opacity:1"
       id="g16">
      <path
         style="fill:none;fill-opacity:0;stroke:#840000;stroke-width:60;stroke-linecap:round;stroke-linejoin:round;stroke-opacity:1"
         d="m 67750,35000 750,0"
         id="path18"
         inkscape:connector-curvature="0" />
      <path
         style="fill:none;fill-opacity:0;stroke:#840000;stroke-width:60;stroke-linecap:round;stroke-linejoin:round;stroke-opacity:1"
         d="m 67500,35500 0,-1000"
         id="path20"
         inkscape:connector-curvature="0" />
      <path
         style="fill:none;fill-opacity:0;stroke:#840000;stroke-width:60;stroke-linecap:round;stroke-linejoin:round;stroke-opacity:1"
         d="m 67500,35000 -500,0"
         id="path22"
         inkscape:connector-curvature="0" />
      <path
         style="fill:none;fill-opacity:0;stroke:#840000;stroke-width:60;stroke-linecap:round;stroke-linejoin:round;stroke-opacity:1"
         d="m 67750,35500 0,-1000"
         id="path24"
         inkscape:connector-curvature="0" />
      <path
         style="fill:none;fill-opacity:0;stroke:#840000;stroke-width:60;stroke-linecap:round;stroke-linejoin:round;stroke-opacity:1"
         d="m 67750,35500 750,0"
         id="path26"
         inkscape:connector-curvature="0" />
      <path
         style="fill:none;fill-opacity:0;stroke:#840000;stroke-width:60;stroke-linecap:round;stroke-linejoin:round;stroke-opacity:1"
         d="m 67750,34500 750,0"
         id="path28"
         inkscape:connector-curvature="0" />
      <path
         style="fill:none;fill-opacity:0;stroke:#840000;stroke-width:60;stroke-linecap:round;stroke-linejoin:round;stroke-opacity:1"
         d="m 68500,35500 0,500"
         id="path30"
         inkscape:connector-curvature="0" />
      <path
         style="fill:none;fill-opacity:0;stroke:#840000;stroke-width:60;stroke-linecap:round;stroke-linejoin:round;stroke-opacity:1"
         d="m 68500,34500 0,-500"
         id="path32"
         inkscape:connector-curvature="0" />
      <path
         style="fill:none;fill-opacity:0;stroke:#840000;stroke-width:60;stroke-linecap:round;stroke-linejoin:round;stroke-opacity:1"
         d="m 68000,35300 300,200 -300,200"
         id="path34"
         inkscape:connector-curvature="0" />
      <path
         d="m 68500,35000 0,0"
         id="path36"
         inkscape:connector-curvature="0" />
      <path
         d="m 68500,34000 0,0"
         id="path38"
         inkscape:connector-curvature="0" />
      <path
         d="m 67000,35000 0,0"
         id="path40"
         inkscape:connector-curvature="0" />
      <path
         d="m 68500,36000 0,0"
         id="path42"
         inkscape:connector-curvature="0" />
    </g>
    <g
       style="fill:#008484;fill-opacity:0;stroke:#008484;stroke-width:60;stroke-linecap:round;stroke-linejoin:round;stroke-opacity:1"
       id="g44">
      <text
         x="67690"
         y="34020"
         textLength="1060"
         font-size="660"
         lengthAdjust="spacingAndGlyphs"
         id="text46"
         style="font-size:660px;text-anchor:middle;opacity:0">M1</text>
      <path
         d="m 67280,33990 0,-500 170,360 160,-360 0,500"
         id="path48"
         inkscape:connector-curvature="0" />
      <path
         d="m 68110,33990 -280,0"
         id="path50"
         inkscape:connector-curvature="0" />
      <path
         d="m 67970,33990 0,-500 -50,70 -40,50 -50,20"
         id="path52"
         inkscape:connector-curvature="0" />
    </g>
  </g>
  <g
     style="fill:#008484;fill-opacity:0;stroke:#008484;stroke-width:0;stroke-linecap:round;stroke-linejoin:round;stroke-opacity:1"
     id="g54"
     transform="translate(-62688.008,-31839.573)">
    <g
       id="g56" />
    <g
       style="fill:#840000;fill-opacity:0;stroke:#840000;stroke-width:0;stroke-linecap:round;stroke-linejoin:round;stroke-opacity:1"
       id="g58" />
    <g
       style="fill:#840000;fill-opacity:0;stroke:#840000;stroke-width:60;stroke-linecap:round;stroke-linejoin:round;stroke-opacity:1"
       id="g60">
      <circle
         cx="70000"
         cy="36250"
         r="750"
         id="circle62" />
      <path
         style="fill:none;fill-opacity:0;stroke:#840000;stroke-width:60;stroke-linecap:round;stroke-linejoin:round;stroke-opacity:1"
         d="m 69750,36600 500,0"
         id="path64"
         inkscape:connector-curvature="0" />
      <path
         style="fill:none;fill-opacity:0;stroke:#840000;stroke-width:60;stroke-linecap:round;stroke-linejoin:round;stroke-opacity:1"
         d="m 70000,37000 0,250"
         id="path66"
         inkscape:connector-curvature="0" />
      <path
         style="fill:none;fill-opacity:0;stroke:#840000;stroke-width:60;stroke-linecap:round;stroke-linejoin:round;stroke-opacity:1"
         d="m 70000,36250 0,-500"
         id="path68"
         inkscape:connector-curvature="0" />
      <path
         style="fill:none;fill-opacity:0;stroke:#840000;stroke-width:60;stroke-linecap:round;stroke-linejoin:round;stroke-opacity:1"
         d="m 70000,35500 0,-250"
         id="path70"
         inkscape:connector-curvature="0" />
      <path
         style="fill:none;fill-opacity:0;stroke:#840000;stroke-width:60;stroke-linecap:round;stroke-linejoin:round;stroke-opacity:1"
         d="m 70250,36000 -500,0"
         id="path72"
         inkscape:connector-curvature="0" />
      <path
         d="m 70000,35250 0,0"
         id="path74"
         inkscape:connector-curvature="0" />
      <path
         d="m 70000,37250 0,0"
         id="path76"
         inkscape:connector-curvature="0" />
    </g>
    <g
       style="fill:#008484;fill-opacity:0;stroke:#008484;stroke-width:60;stroke-linecap:round;stroke-linejoin:round;stroke-opacity:1"
       id="g78">
      <text
         x="71670"
         y="36520"
         textLength="1350"
         font-size="660"
         lengthAdjust="spacingAndGlyphs"
         id="text80"
         style="font-size:660px;text-anchor:middle;opacity:0">Vbs</text>
      <path
         d="m 71070,35990 170,500 160,-500"
         id="path82"
         inkscape:connector-curvature="0" />
      <path
         d="m 71570,36490 0,-500"
         id="path84"
         inkscape:connector-curvature="0" />
      <path
         d="m 71570,36180 50,-20 90,0 50,20 20,30 30,40 0,150 -30,40 -20,30 -50,20 -90,0 -50,-20"
         id="path86"
         inkscape:connector-curvature="0" />
      <path
         d="m 72000,36470 50,20 90,0 50,-20 20,-50 0,-20 -20,-50 -50,-30 -70,0 -50,-20 -20,-50 0,-20 20,-50 50,-20 70,0 50,20"
         id="path88"
         inkscape:connector-curvature="0" />
    </g>
  </g>
  <g
     style="fill:#008484;fill-opacity:0;stroke:#008484;stroke-width:0;stroke-linecap:round;stroke-linejoin:round;stroke-opacity:1"
     id="g90"
     transform="translate(-62688.008,-31839.573)">
    <g
       id="g92" />
    <g
       style="fill:#840000;fill-opacity:0;stroke:#840000;stroke-width:0;stroke-linecap:round;stroke-linejoin:round;stroke-opacity:1"
       id="g94" />
    <g
       style="fill:#840000;fill-opacity:0;stroke:#840000;stroke-width:60;stroke-linecap:round;stroke-linejoin:round;stroke-opacity:1"
       id="g96">
      <path
         style="fill:none;fill-opacity:0;stroke:#840000;stroke-width:60;stroke-linecap:round;stroke-linejoin:round;stroke-opacity:1"
         d="m 67750,39500 1500,0"
         id="path98"
         inkscape:connector-curvature="0" />
      <path
         style="fill:none;fill-opacity:0;stroke:#840000;stroke-width:60;stroke-linecap:round;stroke-linejoin:round;stroke-opacity:1"
         d="m 68000,39750 1000,0"
         id="path100"
         inkscape:connector-curvature="0" />
      <path
         style="fill:none;fill-opacity:0;stroke:#840000;stroke-width:60;stroke-linecap:round;stroke-linejoin:round;stroke-opacity:1"
         d="m 68250,40000 500,0"
         id="path102"
         inkscape:connector-curvature="0" />
      <path
         style="fill:none;fill-opacity:0;stroke:#840000;stroke-width:60;stroke-linecap:round;stroke-linejoin:round;stroke-opacity:1"
         d="m 68500,38500 0,1000"
         id="path104"
         inkscape:connector-curvature="0" />
      <path
         d="m 68500,38500 0,0"
         id="path106"
         inkscape:connector-curvature="0" />
    </g>
  </g>
  <g
     style="fill:#840000;fill-opacity:0;stroke:#840000;stroke-width:0;stroke-linecap:round;stroke-linejoin:round;stroke-opacity:1"
     id="g108"
     transform="translate(-62688.008,-31839.573)">
    <g
       id="g110" />
    <g
       style="fill:#840000;fill-opacity:0;stroke:#840000;stroke-width:60;stroke-linecap:round;stroke-linejoin:round;stroke-opacity:1"
       id="g112">
      <circle
         cx="65000"
         cy="36250"
         r="750"
         id="circle114" />
      <path
         style="fill:none;fill-opacity:0;stroke:#840000;stroke-width:60;stroke-linecap:round;stroke-linejoin:round;stroke-opacity:1"
         d="m 65250,36600 -500,0"
         id="path116"
         inkscape:connector-curvature="0" />
      <path
         style="fill:none;fill-opacity:0;stroke:#840000;stroke-width:60;stroke-linecap:round;stroke-linejoin:round;stroke-opacity:1"
         d="m 65000,37000 0,250"
         id="path118"
         inkscape:connector-curvature="0" />
      <path
         style="fill:none;fill-opacity:0;stroke:#840000;stroke-width:60;stroke-linecap:round;stroke-linejoin:round;stroke-opacity:1"
         d="m 65000,36250 0,-500"
         id="path120"
         inkscape:connector-curvature="0" />
      <path
         style="fill:none;fill-opacity:0;stroke:#840000;stroke-width:60;stroke-linecap:round;stroke-linejoin:round;stroke-opacity:1"
         d="m 65000,35500 0,-250"
         id="path122"
         inkscape:connector-curvature="0" />
      <path
         style="fill:none;fill-opacity:0;stroke:#840000;stroke-width:60;stroke-linecap:round;stroke-linejoin:round;stroke-opacity:1"
         d="m 64750,36000 500,0"
         id="path124"
         inkscape:connector-curvature="0" />
      <path
         d="m 65000,35250 0,0"
         id="path126"
         inkscape:connector-curvature="0" />
      <path
         d="m 65000,37250 0,0"
         id="path128"
         inkscape:connector-curvature="0" />
    </g>
    <g
       style="fill:#008484;fill-opacity:0;stroke:#008484;stroke-width:60;stroke-linecap:round;stroke-linejoin:round;stroke-opacity:1"
       id="g130">
      <text
         x="63320"
         y="36520"
         textLength="1350"
         font-size="660"
         lengthAdjust="spacingAndGlyphs"
         id="text132"
         style="font-size:660px;text-anchor:middle;opacity:0">Vgs</text>
      <path
         d="m 62720,35990 170,500 160,-500"
         id="path134"
         inkscape:connector-curvature="0" />
      <path
         d="m 63430,36160 0,400 -20,50 -20,20 -50,30 -70,0 -50,-30"
         id="path136"
         inkscape:connector-curvature="0" />
      <path
         d="m 63430,36470 -40,20 -100,0 -50,-20 -20,-30 -20,-40 0,-150 20,-40 20,-30 50,-20 100,0 40,20"
         id="path138"
         inkscape:connector-curvature="0" />
      <path
         d="m 63650,36470 50,20 90,0 50,-20 20,-50 0,-20 -20,-50 -50,-30 -70,0 -50,-20 -20,-50 0,-20 20,-50 50,-20 70,0 50,20"
         id="path140"
         inkscape:connector-curvature="0" />
    </g>
  </g>
  <g
     style="fill:#008484;fill-opacity:0;stroke:#008484;stroke-width:0;stroke-linecap:round;stroke-linejoin:round;stroke-opacity:1"
     id="g142"
     transform="translate(-62688.008,-31839.573)">
    <g
       id="g144" />
    <g
       style="fill:#840000;fill-opacity:0;stroke:#840000;stroke-width:0;stroke-linecap:round;stroke-linejoin:round;stroke-opacity:1"
       id="g146" />
    <g
       style="fill:#840000;fill-opacity:0;stroke:#840000;stroke-width:60;stroke-linecap:round;stroke-linejoin:round;stroke-opacity:1"
       id="g148">
      <circle
         cx="72500"
         cy="35000"
         r="750"
         id="circle150" />
      <path
         style="fill:none;fill-opacity:0;stroke:#840000;stroke-width:60;stroke-linecap:round;stroke-linejoin:round;stroke-opacity:1"
         d="m 72250,35350 500,0"
         id="path152"
         inkscape:connector-curvature="0" />
      <path
         style="fill:none;fill-opacity:0;stroke:#840000;stroke-width:60;stroke-linecap:round;stroke-linejoin:round;stroke-opacity:1"
         d="m 72500,35750 0,250"
         id="path154"
         inkscape:connector-curvature="0" />
      <path
         style="fill:none;fill-opacity:0;stroke:#840000;stroke-width:60;stroke-linecap:round;stroke-linejoin:round;stroke-opacity:1"
         d="m 72500,35000 0,-500"
         id="path156"
         inkscape:connector-curvature="0" />
      <path
         style="fill:none;fill-opacity:0;stroke:#840000;stroke-width:60;stroke-linecap:round;stroke-linejoin:round;stroke-opacity:1"
         d="m 72500,34250 0,-250"
         id="path158"
         inkscape:connector-curvature="0" />
      <path
         style="fill:none;fill-opacity:0;stroke:#840000;stroke-width:60;stroke-linecap:round;stroke-linejoin:round;stroke-opacity:1"
         d="m 72750,34750 -500,0"
         id="path160"
         inkscape:connector-curvature="0" />
      <path
         d="m 72500,34000 0,0"
         id="path162"
         inkscape:connector-curvature="0" />
      <path
         d="m 72500,36000 0,0"
         id="path164"
         inkscape:connector-curvature="0" />
    </g>
    <g
       style="fill:#008484;fill-opacity:0;stroke:#008484;stroke-width:60;stroke-linecap:round;stroke-linejoin:round;stroke-opacity:1"
       id="g166">
      <text
         x="74170"
         y="35270"
         textLength="1350"
         font-size="660"
         lengthAdjust="spacingAndGlyphs"
         id="text168"
         style="font-size:660px;text-anchor:middle;opacity:0">Vds</text>
      <path
         d="m 73570,34740 170,500 160,-500"
         id="path170"
         inkscape:connector-curvature="0" />
      <path
         d="m 74280,35240 0,-500"
         id="path172"
         inkscape:connector-curvature="0" />
      <path
         d="m 74280,35220 -40,20 -100,0 -50,-20 -20,-30 -20,-40 0,-150 20,-40 20,-30 50,-20 100,0 40,20"
         id="path174"
         inkscape:connector-curvature="0" />
      <path
         d="m 74500,35220 50,20 90,0 50,-20 20,-50 0,-20 -20,-50 -50,-30 -70,0 -50,-20 -20,-50 0,-20 20,-50 50,-20 70,0 50,20"
         id="path176"
         inkscape:connector-curvature="0" />
    </g>
  </g>
  <g
     style="fill:#008484;fill-opacity:0;stroke:#008484;stroke-width:60;stroke-linecap:round;stroke-linejoin:round;stroke-opacity:1"
     id="g178"
     transform="translate(-62688.008,-31839.573)" />
  <g
     style="fill:#008400;fill-opacity:0;stroke:#008400;stroke-width:60;stroke-linecap:round;stroke-linejoin:round;stroke-opacity:1"
     id="g180"
     transform="translate(-62688.008,-31839.573)">
    <path
       d="m 68500,32500 0,1500"
       id="path182"
       inkscape:connector-curvature="0" />
    <path
       d="m 68500,32500 4000,0"
       id="path184"
       inkscape:connector-curvature="0" />
    <path
       d="m 72500,34000 0,-1500"
       id="path186"
       inkscape:connector-curvature="0" />
    <path
       d="m 70000,37500 -1500,0"
       id="path188"
       inkscape:connector-curvature="0" />
    <path
       d="m 70000,35000 -1500,0"
       id="path190"
       inkscape:connector-curvature="0" />
    <path
       d="m 70000,35250 0,-250"
       id="path192"
       inkscape:connector-curvature="0" />
    <path
       d="m 70000,37500 2500,0"
       id="path194"
       inkscape:connector-curvature="0" />
    <path
       d="m 70000,37250 0,250"
       id="path196"
       inkscape:connector-curvature="0" />
    <path
       d="m 65000,35000 2000,0"
       id="path198"
       inkscape:connector-curvature="0" />
    <path
       d="m 65000,35250 0,-250"
       id="path200"
       inkscape:connector-curvature="0" />
    <path
       d="m 68500,36000 0,1500"
       id="path202"
       inkscape:connector-curvature="0" />
    <path
       d="m 68500,38500 0,-1000"
       id="path204"
       inkscape:connector-curvature="0" />
    <path
       d="m 72500,37500 0,-1500"
       id="path206"
       inkscape:connector-curvature="0" />
    <path
       d="m 65000,37500 3500,0"
       id="path208"
       inkscape:connector-curvature="0" />
    <path
       d="m 65000,37250 0,250"
       id="path210"
       inkscape:connector-curvature="0" />
  </g>
  <g
     style="fill:#000000;fill-opacity:0;stroke:#000000;stroke-width:60;stroke-linecap:round;stroke-linejoin:round;stroke-opacity:1"
     id="g212"
     transform="translate(-62688.008,-31839.573)">
    <text
       x="68500"
       y="37400"
       textLength="630"
       font-size="800"
       lengthAdjust="spacingAndGlyphs"
       id="text214"
       style="font-size:800px;text-anchor:start;opacity:0">0</text>
    <path
       d="m 68780,36770 60,0 60,30 30,20 20,60 30,120 0,140 -30,110 -20,60 -30,30 -60,30 -60,0 -50,-30 -30,-30 -30,-60 -30,-110 0,-140 30,-120 30,-60 30,-20 50,-30"
       id="path216"
       inkscape:connector-curvature="0" />
    <text
       x="68750"
       y="34900"
       textLength="960"
       font-size="660"
       lengthAdjust="spacingAndGlyphs"
       id="text218"
       style="font-size:660px;text-anchor:start;opacity:0">nb</text>
    <path
       d="m 68890,34540 0,330"
       id="path220"
       inkscape:connector-curvature="0" />
    <path
       d="m 68890,34590 30,-30 50,-20 70,0 40,20 30,50 0,260"
       id="path222"
       inkscape:connector-curvature="0" />
    <path
       d="m 69350,34870 0,-500"
       id="path224"
       inkscape:connector-curvature="0" />
    <path
       d="m 69350,34560 40,-20 100,0 50,20 20,30 20,40 0,150 -20,40 -20,30 -50,20 -100,0 -40,-20"
       id="path226"
       inkscape:connector-curvature="0" />
    <text
       x="68750"
       y="32400"
       textLength="960"
       font-size="660"
       lengthAdjust="spacingAndGlyphs"
       id="text228"
       style="font-size:660px;text-anchor:start;opacity:0">nd</text>
    <path
       d="m 68890,32040 0,330"
       id="path230"
       inkscape:connector-curvature="0" />
    <path
       d="m 68890,32090 30,-30 50,-20 70,0 40,20 30,50 0,260"
       id="path232"
       inkscape:connector-curvature="0" />
    <path
       d="m 69560,32370 0,-500"
       id="path234"
       inkscape:connector-curvature="0" />
    <path
       d="m 69560,32350 -50,20 -90,0 -50,-20 -20,-30 -30,-40 0,-150 30,-40 20,-30 50,-20 90,0 50,20"
       id="path236"
       inkscape:connector-curvature="0" />
    <text
       x="65500"
       y="34900"
       textLength="960"
       font-size="660"
       lengthAdjust="spacingAndGlyphs"
       id="text238"
       style="font-size:660px;text-anchor:start;opacity:0">ng</text>
    <path
       d="m 65640,34540 0,330"
       id="path240"
       inkscape:connector-curvature="0" />
    <path
       d="m 65640,34590 30,-30 50,-20 70,0 40,20 30,50 0,260"
       id="path242"
       inkscape:connector-curvature="0" />
    <path
       d="m 66310,34540 0,400 -20,50 -30,20 -40,30 -80,0 -40,-30"
       id="path244"
       inkscape:connector-curvature="0" />
    <path
       d="m 66310,34850 -50,20 -90,0 -50,-20 -20,-30 -30,-40 0,-150 30,-40 20,-30 50,-20 90,0 50,20"
       id="path246"
       inkscape:connector-curvature="0" />
  </g>
  <g
     style="fill:#000000;fill-opacity:0;stroke:#000000;stroke-width:0;stroke-linecap:round;stroke-linejoin:round;stroke-opacity:1"
     id="g248"
     transform="translate(-62688.008,-31839.573)" />
  <g
     style="fill:#008400;fill-opacity:0;stroke:#008400;stroke-width:0;stroke-linecap:round;stroke-linejoin:round;stroke-opacity:1"
     id="g250"
     transform="translate(-62688.008,-31839.573)" />
  <g
     style="fill:#008400;fill-opacity:1;stroke:#008400;stroke-width:100;stroke-linecap:round;stroke-linejoin:round;stroke-opacity:1"
     id="g252"
     transform="translate(-62688.008,-31839.573)">
    <circle
       cx="70000"
       cy="37500"
       r="200"
       id="circle254" />
  </g>
  <g
     style="fill:#008400;fill-opacity:1;stroke:#008400;stroke-width:0;stroke-linecap:round;stroke-linejoin:round;stroke-opacity:1"
     id="g256"
     transform="translate(-62688.008,-31839.573)" />
  <g
     style="fill:#008400;fill-opacity:1;stroke:#008400;stroke-width:100;stroke-linecap:round;stroke-linejoin:round;stroke-opacity:1"
     id="g258"
     transform="translate(-62688.008,-31839.573)">
    <circle
       cx="68500"
       cy="37500"
       r="200"
       id="circle260" />
  </g>
</svg>
