<?xml version="1.0" encoding="UTF-8" standalone="no"?>
<svg
   xmlns:dc="http://purl.org/dc/elements/1.1/"
   xmlns:cc="http://creativecommons.org/ns#"
   xmlns:rdf="http://www.w3.org/1999/02/22-rdf-syntax-ns#"
   xmlns:svg="http://www.w3.org/2000/svg"
   xmlns="http://www.w3.org/2000/svg"
   xmlns:sodipodi="http://sodipodi.sourceforge.net/DTD/sodipodi-0.dtd"
   xmlns:inkscape="http://www.inkscape.org/namespaces/inkscape"
   version="1.1"
   width="4.0632563cm"
   height="3.4564445cm"
   viewBox="0 0 15997.072 13608.05"
   id="svg2"
   inkscape:version="0.92.5 (2060ec1f9f, 2020-04-08)"
   sodipodi:docname="sch.svg">
  <metadata
     id="metadata358">
    <rdf:RDF>
      <cc:Work
         rdf:about="">
        <dc:format>image/svg+xml</dc:format>
        <dc:type
           rdf:resource="http://purl.org/dc/dcmitype/StillImage" />
        <dc:title>SVG Picture created as lateral_pnp_current_mirror.svg date 2020/06/30 17:20:03 </dc:title>
      </cc:Work>
    </rdf:RDF>
  </metadata>
  <defs
     id="defs356" />
  <sodipodi:namedview
     pagecolor="#ffffff"
     bordercolor="#666666"
     borderopacity="1"
     objecttolerance="10"
     gridtolerance="10"
     guidetolerance="10"
     inkscape:pageopacity="1"
     inkscape:pageshadow="2"
     inkscape:window-width="1920"
     inkscape:window-height="1030"
     id="namedview354"
     showgrid="false"
     fit-margin-top="0"
     fit-margin-left="0"
     fit-margin-right="0"
     fit-margin-bottom="0"
     inkscape:zoom="6.1063945"
     inkscape:cx="65.642038"
     inkscape:cy="71.693174"
     inkscape:window-x="0"
     inkscape:window-y="0"
     inkscape:window-maximized="1"
     inkscape:current-layer="g34" />
  <title
     id="title4">SVG Picture created as lateral_pnp_current_mirror.svg date 2020/06/30 17:20:03 </title>
  <desc
     id="desc6">Picture generated by Eeschema-SVG </desc>
  <g
     style="fill:#000000;fill-opacity:1;stroke:#000000;stroke-linecap:round;stroke-linejoin:round;stroke-opacity:1"
     id="g8"
     transform="translate(-41143.066,-25421.953)" />
  <g
     style="fill:#000000;fill-opacity:0;stroke:#000000;stroke-width:0;stroke-linecap:round;stroke-linejoin:round;stroke-opacity:1"
     id="g10"
     transform="translate(-41143.066,-25421.953)">
    <g
       id="g12" />
    <g
       style="fill:#840000;fill-opacity:0;stroke:#840000;stroke-width:0;stroke-linecap:round;stroke-linejoin:round;stroke-opacity:1"
       id="g14" />
    <g
       style="fill:#840000;fill-opacity:0;stroke:#840000;stroke-width:60;stroke-linecap:round;stroke-linejoin:round;stroke-opacity:1"
       id="g16">
      <circle
         cx="54000"
         cy="33500"
         r="750"
         id="circle18" />
      <path
         style="fill:none;fill-opacity:0;stroke:#840000;stroke-width:60;stroke-linecap:round;stroke-linejoin:round;stroke-opacity:1"
         d="m 53750,33850 500,0"
         id="path20"
         inkscape:connector-curvature="0" />
      <path
         style="fill:none;fill-opacity:0;stroke:#840000;stroke-width:60;stroke-linecap:round;stroke-linejoin:round;stroke-opacity:1"
         d="m 54000,34250 0,250"
         id="path22"
         inkscape:connector-curvature="0" />
      <path
         style="fill:none;fill-opacity:0;stroke:#840000;stroke-width:60;stroke-linecap:round;stroke-linejoin:round;stroke-opacity:1"
         d="m 54000,33500 0,-500"
         id="path24"
         inkscape:connector-curvature="0" />
      <path
         style="fill:none;fill-opacity:0;stroke:#840000;stroke-width:60;stroke-linecap:round;stroke-linejoin:round;stroke-opacity:1"
         d="m 54000,32750 0,-250"
         id="path26"
         inkscape:connector-curvature="0" />
      <path
         style="fill:none;fill-opacity:0;stroke:#840000;stroke-width:60;stroke-linecap:round;stroke-linejoin:round;stroke-opacity:1"
         d="m 54250,33250 -500,0"
         id="path28"
         inkscape:connector-curvature="0" />
      <path
         d="m 54000,32500 0,0"
         id="path30"
         inkscape:connector-curvature="0" />
      <path
         d="m 54000,34500 0,0"
         id="path32"
         inkscape:connector-curvature="0" />
    </g>
    <g
       style="fill:#008484;fill-opacity:0;stroke:#008484;stroke-width:60;stroke-linecap:round;stroke-linejoin:round;stroke-opacity:1"
       id="g34">
      <text
         x="55510"
         y="33310"
         textLength="910"
         font-size="660"
         lengthAdjust="spacingAndGlyphs"
         id="text36"
         style="font-size:660px;line-height:0%;text-anchor:middle;opacity:0"
         transform="translate(-187.64484,443.52416)">V2</text>
      <path
         d="m 54912.355,33223.524 170,500 160,-500"
         id="path38"
         inkscape:connector-curvature="0" />
      <path
         d="m 55392.355,33273.524 20,-20 50,-30 h 120 l 40,30 30,20 20,50 v 40 l -20,80 -290,280 h 310"
         id="path40"
         inkscape:connector-curvature="0" />
    </g>
  </g>
  <g
     style="fill:#008484;fill-opacity:0;stroke:#008484;stroke-width:0;stroke-linecap:round;stroke-linejoin:round;stroke-opacity:1"
     id="g56"
     transform="translate(-41143.066,-25421.953)">
    <g
       id="g58" />
    <g
       style="fill:#840000;fill-opacity:0;stroke:#840000;stroke-width:0;stroke-linecap:round;stroke-linejoin:round;stroke-opacity:1"
       id="g60" />
    <g
       style="fill:#840000;fill-opacity:0;stroke:#840000;stroke-width:60;stroke-linecap:round;stroke-linejoin:round;stroke-opacity:1"
       id="g62">
      <circle
         cx="45000"
         cy="33500"
         r="750"
         id="circle64" />
      <path
         style="fill:none;fill-opacity:0;stroke:#840000;stroke-width:60;stroke-linecap:round;stroke-linejoin:round;stroke-opacity:1"
         d="m 44750,33850 500,0"
         id="path66"
         inkscape:connector-curvature="0" />
      <path
         style="fill:none;fill-opacity:0;stroke:#840000;stroke-width:60;stroke-linecap:round;stroke-linejoin:round;stroke-opacity:1"
         d="m 45000,34250 0,250"
         id="path68"
         inkscape:connector-curvature="0" />
      <path
         style="fill:none;fill-opacity:0;stroke:#840000;stroke-width:60;stroke-linecap:round;stroke-linejoin:round;stroke-opacity:1"
         d="m 45000,33500 0,-500"
         id="path70"
         inkscape:connector-curvature="0" />
      <path
         style="fill:none;fill-opacity:0;stroke:#840000;stroke-width:60;stroke-linecap:round;stroke-linejoin:round;stroke-opacity:1"
         d="m 45000,32750 0,-250"
         id="path72"
         inkscape:connector-curvature="0" />
      <path
         style="fill:none;fill-opacity:0;stroke:#840000;stroke-width:60;stroke-linecap:round;stroke-linejoin:round;stroke-opacity:1"
         d="m 45250,33250 -500,0"
         id="path74"
         inkscape:connector-curvature="0" />
      <path
         d="m 45000,32500 0,0"
         id="path76"
         inkscape:connector-curvature="0" />
      <path
         d="m 45000,34500 0,0"
         id="path78"
         inkscape:connector-curvature="0" />
    </g>
    <g
       style="fill:#008484;fill-opacity:0;stroke:#008484;stroke-width:60;stroke-linecap:round;stroke-linejoin:round;stroke-opacity:1"
       id="g80"
       transform="translate(-170.58622,443.52416)">
      <text
         x="46510"
         y="33310"
         textLength="960"
         font-size="660"
         lengthAdjust="spacingAndGlyphs"
         id="text82"
         style="font-size:660px;line-height:0%;text-anchor:middle;opacity:0">V1</text>
      <path
         d="m 46100,32780 170,500 160,-500"
         id="path84"
         inkscape:connector-curvature="0" />
      <path
         d="m 46720,33280 v -500 l -50,70 -50,50 -40,20"
         id="path88"
         inkscape:connector-curvature="0" />
    </g>
  </g>
  <g
     style="fill:#008484;fill-opacity:0;stroke:#008484;stroke-width:0;stroke-linecap:round;stroke-linejoin:round;stroke-opacity:1"
     id="g96"
     transform="translate(-41143.066,-25421.953)">
    <g
       id="g98" />
    <g
       style="fill:#840000;fill-opacity:0;stroke:#840000;stroke-width:0;stroke-linecap:round;stroke-linejoin:round;stroke-opacity:1"
       id="g100" />
    <g
       style="fill:#840000;fill-opacity:0;stroke:#840000;stroke-width:60;stroke-linecap:round;stroke-linejoin:round;stroke-opacity:1"
       id="g102">
      <circle
         cx="48000"
         cy="33500"
         r="750"
         id="circle104" />
      <path
         style="fill:none;fill-opacity:0;stroke:#840000;stroke-width:60;stroke-linecap:round;stroke-linejoin:round;stroke-opacity:1"
         d="m 48000,34250 0,250"
         id="path106"
         inkscape:connector-curvature="0" />
      <path
         style="fill:none;fill-opacity:0;stroke:#840000;stroke-width:60;stroke-linecap:round;stroke-linejoin:round;stroke-opacity:1"
         d="m 48000,32750 0,-250"
         id="path108"
         inkscape:connector-curvature="0" />
    </g>
    <g
       style="fill:#840000;fill-opacity:1;stroke:#840000;stroke-width:60;stroke-linecap:round;stroke-linejoin:round;stroke-opacity:1"
       id="g110">
      <path
         style="fill:#840000;fill-opacity:1;fill-rule:evenodd;stroke:#840000;stroke-width:60;stroke-linecap:round;stroke-linejoin:round;stroke-opacity:1"
         d="m 48000,33000 0,1000 -250,-500 500,0 -250,500"
         id="path112"
         inkscape:connector-curvature="0" />
    </g>
    <g
       style="fill:#840000;fill-opacity:0;stroke:#840000;stroke-width:60;stroke-linecap:round;stroke-linejoin:round;stroke-opacity:1"
       id="g114">
      <path
         d="m 48000,32500 0,0"
         id="path116"
         inkscape:connector-curvature="0" />
      <path
         d="m 48000,34500 0,0"
         id="path118"
         inkscape:connector-curvature="0" />
    </g>
    <g
       style="fill:#008484;fill-opacity:0;stroke:#008484;stroke-width:60;stroke-linecap:round;stroke-linejoin:round;stroke-opacity:1"
       id="g120"
       transform="translate(-170.58622,443.52416)">
      <text
         x="49410"
         y="33310"
         textLength="770"
         font-size="660"
         lengthAdjust="spacingAndGlyphs"
         id="text122"
         style="font-size:660px;line-height:0%;text-anchor:middle;opacity:0">I1</text>
      <path
         d="m 49170,33280 v -500"
         id="path124"
         inkscape:connector-curvature="0" />
      <path
         d="m 49670,33280 h -290"
         id="path126"
         inkscape:connector-curvature="0" />
      <path
         d="m 49520,33280 v -500 l -40,70 -50,50 -50,20"
         id="path128"
         inkscape:connector-curvature="0" />
    </g>
  </g>
  <g
     style="fill:#008484;fill-opacity:0;stroke:#008484;stroke-width:0;stroke-linecap:round;stroke-linejoin:round;stroke-opacity:1"
     id="g144"
     transform="translate(-41143.066,-25421.953)">
    <g
       id="g146" />
    <g
       style="fill:#840000;fill-opacity:0;stroke:#840000;stroke-width:0;stroke-linecap:round;stroke-linejoin:round;stroke-opacity:1"
       id="g148" />
    <g
       style="fill:#840000;fill-opacity:0;stroke:#840000;stroke-width:60;stroke-linecap:round;stroke-linejoin:round;stroke-opacity:1"
       id="g150">
      <path
         style="fill:none;fill-opacity:0;stroke:#840000;stroke-width:60;stroke-linecap:round;stroke-linejoin:round;stroke-opacity:1"
         d="m 48750,38500 1500,0"
         id="path152"
         inkscape:connector-curvature="0" />
      <path
         style="fill:none;fill-opacity:0;stroke:#840000;stroke-width:60;stroke-linecap:round;stroke-linejoin:round;stroke-opacity:1"
         d="m 49000,38750 1000,0"
         id="path154"
         inkscape:connector-curvature="0" />
      <path
         style="fill:none;fill-opacity:0;stroke:#840000;stroke-width:60;stroke-linecap:round;stroke-linejoin:round;stroke-opacity:1"
         d="m 49250,39000 500,0"
         id="path156"
         inkscape:connector-curvature="0" />
      <path
         style="fill:none;fill-opacity:0;stroke:#840000;stroke-width:60;stroke-linecap:round;stroke-linejoin:round;stroke-opacity:1"
         d="m 49500,37500 0,1000"
         id="path158"
         inkscape:connector-curvature="0" />
      <path
         d="m 49500,37500 0,0"
         id="path160"
         inkscape:connector-curvature="0" />
    </g>
  </g>
  <g
     style="fill:#840000;fill-opacity:0;stroke:#840000;stroke-width:0;stroke-linecap:round;stroke-linejoin:round;stroke-opacity:1"
     id="g162"
     transform="translate(-41143.066,-25421.953)">
    <g
       id="g164" />
    <g
       style="fill:#840000;fill-opacity:0;stroke:#840000;stroke-width:60;stroke-linecap:round;stroke-linejoin:round;stroke-opacity:1"
       id="g166">
      <path
         style="fill:none;fill-opacity:0;stroke:#840000;stroke-width:60;stroke-linecap:round;stroke-linejoin:round;stroke-opacity:1"
         d="m 51000,29350 1000,400"
         id="path168"
         inkscape:connector-curvature="0" />
      <path
         style="fill:none;fill-opacity:0;stroke:#840000;stroke-width:60;stroke-linecap:round;stroke-linejoin:round;stroke-opacity:1"
         d="m 51000,29100 1000,400"
         id="path170"
         inkscape:connector-curvature="0" />
      <path
         style="fill:none;fill-opacity:0;stroke:#840000;stroke-width:60;stroke-linecap:round;stroke-linejoin:round;stroke-opacity:1"
         d="m 51000,29000 -500,0"
         id="path172"
         inkscape:connector-curvature="0" />
      <path
         style="fill:none;fill-opacity:0;stroke:#840000;stroke-width:60;stroke-linecap:round;stroke-linejoin:round;stroke-opacity:1"
         d="m 51000,29000 -500,0"
         id="path174"
         inkscape:connector-curvature="0" />
      <path
         style="fill:none;fill-opacity:0;stroke:#840000;stroke-width:60;stroke-linecap:round;stroke-linejoin:round;stroke-opacity:1"
         d="m 51000,28650 1000,-400"
         id="path176"
         inkscape:connector-curvature="0" />
      <path
         style="fill:none;fill-opacity:0;stroke:#840000;stroke-width:60;stroke-linecap:round;stroke-linejoin:round;stroke-opacity:1"
         d="m 51000,28650 1000,-400"
         id="path178"
         inkscape:connector-curvature="0" />
      <path
         style="fill:none;fill-opacity:0;stroke:#840000;stroke-width:60;stroke-linecap:round;stroke-linejoin:round;stroke-opacity:1"
         d="m 51000,28250 0,1500"
         id="path180"
         inkscape:connector-curvature="0" />
      <path
         style="fill:none;fill-opacity:0;stroke:#840000;stroke-width:60;stroke-linecap:round;stroke-linejoin:round;stroke-opacity:1"
         d="m 51000,28250 0,1500"
         id="path182"
         inkscape:connector-curvature="0" />
      <path
         style="fill:none;fill-opacity:0;stroke:#840000;stroke-width:60;stroke-linecap:round;stroke-linejoin:round;stroke-opacity:1"
         d="m 51250,28550 150,-350"
         id="path184"
         inkscape:connector-curvature="0" />
      <path
         style="fill:none;fill-opacity:0;stroke:#840000;stroke-width:60;stroke-linecap:round;stroke-linejoin:round;stroke-opacity:1"
         d="m 51250,28550 350,150"
         id="path186"
         inkscape:connector-curvature="0" />
    </g>
    <g
       style="fill:#840000;fill-opacity:0;stroke:#840000;stroke-width:100;stroke-linecap:round;stroke-linejoin:round;stroke-opacity:1"
       id="g188">
      <path
         style="fill:none;fill-opacity:0;stroke:#840000;stroke-width:100;stroke-linecap:round;stroke-linejoin:round;stroke-opacity:1"
         d="M 52000,30000 Z"
         id="path190"
         inkscape:connector-curvature="0" />
    </g>
    <g
       style="fill:#840000;fill-opacity:0;stroke:#840000;stroke-width:60;stroke-linecap:round;stroke-linejoin:round;stroke-opacity:1"
       id="g192">
      <path
         style="fill:none;fill-opacity:0;stroke:#840000;stroke-width:60;stroke-linecap:round;stroke-linejoin:round;stroke-opacity:1"
         d="m 52000,29750 0,250"
         id="path194"
         inkscape:connector-curvature="0" />
      <path
         style="fill:none;fill-opacity:0;stroke:#840000;stroke-width:60;stroke-linecap:round;stroke-linejoin:round;stroke-opacity:1"
         d="m 52000,28250 0,-250"
         id="path196"
         inkscape:connector-curvature="0" />
      <path
         style="fill:none;fill-opacity:0;stroke:#840000;stroke-width:60;stroke-linecap:round;stroke-linejoin:round;stroke-opacity:1"
         d="m 52000,28250 0,-250"
         id="path198"
         inkscape:connector-curvature="0" />
      <path
         d="m 50500,29000 0,0"
         id="path200"
         inkscape:connector-curvature="0" />
      <path
         d="m 52000,30000 0,0"
         id="path202"
         inkscape:connector-curvature="0" />
      <path
         d="m 52000,29500 0,0"
         id="path204"
         inkscape:connector-curvature="0" />
      <path
         d="m 52000,28000 0,0"
         id="path206"
         inkscape:connector-curvature="0" />
    </g>
    <g
       style="fill:#008484;fill-opacity:0;stroke:#008484;stroke-width:60;stroke-linecap:round;stroke-linejoin:round;stroke-opacity:1"
       id="g208">
      <text
         x="50250"
         y="28770"
         textLength="1060"
         font-size="660"
         lengthAdjust="spacingAndGlyphs"
         id="text210"
         style="font-size:660px;line-height:0%;text-anchor:middle;opacity:0">Q1</text>
      <path
         d="m 50200,28790 -50,-20 -50,-50 -70,-70 -50,-30 -40,0"
         id="path212"
         inkscape:connector-curvature="0" />
      <path
         d="m 49960,28740 -50,-20 -50,-50 -20,-100 0,-160 20,-100 50,-40 50,-30 90,0 50,30 50,40 20,100 0,160 -20,100 -50,50 -50,20 -90,0"
         id="path214"
         inkscape:connector-curvature="0" />
      <path
         d="m 50650,28740 -290,0"
         id="path216"
         inkscape:connector-curvature="0" />
      <path
         d="m 50510,28740 0,-500 -50,70 -50,50 -50,20"
         id="path218"
         inkscape:connector-curvature="0" />
    </g>
  </g>
  <g
     style="fill:#008484;fill-opacity:0;stroke:#008484;stroke-width:0;stroke-linecap:round;stroke-linejoin:round;stroke-opacity:1"
     id="g220"
     transform="translate(-41143.066,-25421.953)">
    <g
       id="g222" />
    <g
       style="fill:#840000;fill-opacity:0;stroke:#840000;stroke-width:0;stroke-linecap:round;stroke-linejoin:round;stroke-opacity:1"
       id="g224" />
    <g
       style="fill:#840000;fill-opacity:0;stroke:#840000;stroke-width:60;stroke-linecap:round;stroke-linejoin:round;stroke-opacity:1"
       id="g226">
      <circle
         cx="43000"
         cy="26000"
         r="500"
         id="circle228" />
      <path
         style="fill:none;fill-opacity:0;stroke:#840000;stroke-width:60;stroke-linecap:round;stroke-linejoin:round;stroke-opacity:1"
         d="m 43000,26250 0,-500"
         id="path230"
         inkscape:connector-curvature="0" />
      <path
         style="fill:none;fill-opacity:0;stroke:#840000;stroke-width:60;stroke-linecap:round;stroke-linejoin:round;stroke-opacity:1"
         d="m 44000,26000 -500,0"
         id="path232"
         inkscape:connector-curvature="0" />
      <path
         style="fill:none;fill-opacity:0;stroke:#840000;stroke-width:60;stroke-linecap:round;stroke-linejoin:round;stroke-opacity:1"
         d="m 43250,26000 -500,0"
         id="path234"
         inkscape:connector-curvature="0" />
      <path
         d="m 44000,26000 0,0"
         id="path236"
         inkscape:connector-curvature="0" />
    </g>
    <g
       style="fill:#008484;fill-opacity:0;stroke:#008484;stroke-width:60;stroke-linecap:round;stroke-linejoin:round;stroke-opacity:1"
       id="g238">
      <text
         x="41670"
         y="26220"
         textLength="1110"
         font-size="660"
         lengthAdjust="spacingAndGlyphs"
         id="text240"
         style="font-size:660px;line-height:0%;text-anchor:middle;opacity:0">V+</text>
      <path
         d="m 41190,25690 170,500 160,-500"
         id="path242"
         inkscape:connector-curvature="0" />
      <path
         d="m 41690,26000 380,0"
         id="path244"
         inkscape:connector-curvature="0" />
      <path
         d="m 41880,26190 0,-380"
         id="path246"
         inkscape:connector-curvature="0" />
    </g>
  </g>
  <g
     style="fill:#008484;fill-opacity:0;stroke:#008484;stroke-width:60;stroke-linecap:round;stroke-linejoin:round;stroke-opacity:1"
     id="g248"
     transform="translate(-41143.066,-25421.953)" />
  <g
     style="fill:#008400;fill-opacity:0;stroke:#008400;stroke-width:60;stroke-linecap:round;stroke-linejoin:round;stroke-opacity:1"
     id="g250"
     transform="translate(-41143.066,-25421.953)">
    <path
       d="m 49500,36500 4500,0"
       id="path252"
       inkscape:connector-curvature="0" />
    <path
       d="m 52000,28000 0,-2000"
       id="path254"
       inkscape:connector-curvature="0" />
    <path
       d="m 48000,31500 0,1000"
       id="path256"
       inkscape:connector-curvature="0" />
    <path
       d="m 52000,31500 -4000,0"
       id="path258"
       inkscape:connector-curvature="0" />
    <path
       d="m 52000,30000 0,1500"
       id="path260"
       inkscape:connector-curvature="0" />
    <path
       d="m 48000,29000 0,2500"
       id="path262"
       inkscape:connector-curvature="0" />
    <path
       d="m 54000,29500 0,3000"
       id="path264"
       inkscape:connector-curvature="0" />
    <path
       d="m 52000,29500 2000,0"
       id="path266"
       inkscape:connector-curvature="0" />
    <path
       d="m 48000,36500 1500,0"
       id="path268"
       inkscape:connector-curvature="0" />
    <path
       d="m 45000,34500 0,2000"
       id="path270"
       inkscape:connector-curvature="0" />
    <path
       d="m 45000,32500 0,-6500"
       id="path272"
       inkscape:connector-curvature="0" />
    <path
       d="m 44000,26000 1000,0"
       id="path274"
       inkscape:connector-curvature="0" />
    <path
       d="m 54000,36500 0,-2000"
       id="path276"
       inkscape:connector-curvature="0" />
    <path
       d="m 45000,36500 3000,0"
       id="path278"
       inkscape:connector-curvature="0" />
    <path
       d="m 48000,34500 0,2000"
       id="path280"
       inkscape:connector-curvature="0" />
    <path
       d="m 45000,26000 7000,0"
       id="path282"
       inkscape:connector-curvature="0" />
    <path
       d="m 50500,29000 -2500,0"
       id="path284"
       inkscape:connector-curvature="0" />
    <path
       d="m 49500,37500 0,-1000"
       id="path286"
       inkscape:connector-curvature="0" />
  </g>
  <g
     style="fill:#000000;fill-opacity:0;stroke:#000000;stroke-width:60;stroke-linecap:round;stroke-linejoin:round;stroke-opacity:1"
     id="g288"
     transform="translate(-41143.066,-25421.953)">
    <text
       x="49500"
       y="36400"
       textLength="630"
       font-size="800"
       lengthAdjust="spacingAndGlyphs"
       id="text290"
       style="font-size:800px;line-height:0%;text-anchor:start;opacity:0">0</text>
    <path
       d="m 49780,35770 60,0 60,30 30,20 20,60 30,120 0,140 -30,110 -20,60 -30,30 -60,30 -60,0 -50,-30 -30,-30 -30,-60 -30,-110 0,-140 30,-120 30,-60 30,-20 50,-30"
       id="path292"
       inkscape:connector-curvature="0" />
    <text
       x="48000"
       y="28900"
       textLength="1170"
       font-size="800"
       lengthAdjust="spacingAndGlyphs"
       id="text294"
       style="font-size:800px;line-height:0%;text-anchor:start;opacity:0">n1</text>
    <path
       d="m 48170,28470 0,400"
       id="path296"
       inkscape:connector-curvature="0" />
    <path
       d="m 48170,28520 30,-20 50,-30 90,0 60,30 30,50 0,320"
       id="path298"
       inkscape:connector-curvature="0" />
    <path
       d="m 49030,28870 -350,0"
       id="path300"
       inkscape:connector-curvature="0" />
    <path
       d="m 48850,28870 0,-600 -50,80 -60,60 -60,30"
       id="path302"
       inkscape:connector-curvature="0" />
    <text
       x="53000"
       y="29400"
       textLength="1170"
       font-size="800"
       lengthAdjust="spacingAndGlyphs"
       id="text304"
       style="font-size:800px;line-height:0%;text-anchor:start;opacity:0">n2</text>
    <path
       d="m 53170,28970 0,400"
       id="path306"
       inkscape:connector-curvature="0" />
    <path
       d="m 53170,29020 30,-20 50,-30 90,0 60,30 30,50 0,320"
       id="path308"
       inkscape:connector-curvature="0" />
    <path
       d="m 53680,28820 30,-20 60,-30 140,0 60,30 30,20 30,60 0,60 -30,80 -350,350 380,0"
       id="path310"
       inkscape:connector-curvature="0" />
    <text
       x="47000"
       y="25900"
       textLength="2630"
       font-size="800"
       lengthAdjust="spacingAndGlyphs"
       id="text312"
       style="font-size:800px;line-height:0%;text-anchor:start;opacity:0">n_pos</text>
    <path
       d="m 47170,25470 0,400"
       id="path314"
       inkscape:connector-curvature="0" />
    <path
       d="m 47170,25520 30,-20 50,-30 90,0 60,30 30,50 0,320"
       id="path316"
       inkscape:connector-curvature="0" />
    <path
       d="m 47570,25920 460,0"
       id="path318"
       inkscape:connector-curvature="0" />
    <path
       d="m 48170,25470 0,600"
       id="path320"
       inkscape:connector-curvature="0" />
    <path
       d="m 48170,25500 60,-30 110,0 60,30 30,20 20,60 0,170 -20,60 -30,30 -60,30 -110,0 -60,-30"
       id="path322"
       inkscape:connector-curvature="0" />
    <path
       d="m 48800,25870 -60,-30 -30,-30 -30,-60 0,-170 30,-60 30,-20 60,-30 80,0 60,30 30,20 30,60 0,170 -30,60 -30,30 -60,30 -80,0"
       id="path324"
       inkscape:connector-curvature="0" />
    <path
       d="m 49230,25840 50,30 120,0 50,-30 30,-60 0,-30 -30,-50 -50,-30 -90,0 -60,-30 -20,-60 0,-30 20,-50 60,-30 90,0 50,30"
       id="path326"
       inkscape:connector-curvature="0" />
  </g>
  <g
     style="fill:#000000;fill-opacity:0;stroke:#000000;stroke-width:0;stroke-linecap:round;stroke-linejoin:round;stroke-opacity:1"
     id="g328"
     transform="translate(-41143.066,-25421.953)" />
  <g
     style="fill:#008400;fill-opacity:0;stroke:#008400;stroke-width:0;stroke-linecap:round;stroke-linejoin:round;stroke-opacity:1"
     id="g330"
     transform="translate(-41143.066,-25421.953)" />
  <g
     style="fill:#008400;fill-opacity:1;stroke:#008400;stroke-width:100;stroke-linecap:round;stroke-linejoin:round;stroke-opacity:1"
     id="g332"
     transform="translate(-41143.066,-25421.953)">
    <circle
       cx="48000"
       cy="36500"
       r="200"
       id="circle334" />
  </g>
  <g
     style="fill:#008400;fill-opacity:1;stroke:#008400;stroke-width:0;stroke-linecap:round;stroke-linejoin:round;stroke-opacity:1"
     id="g336"
     transform="translate(-41143.066,-25421.953)" />
  <g
     style="fill:#008400;fill-opacity:1;stroke:#008400;stroke-width:100;stroke-linecap:round;stroke-linejoin:round;stroke-opacity:1"
     id="g338"
     transform="translate(-41143.066,-25421.953)">
    <circle
       cx="49500"
       cy="36500"
       r="200"
       id="circle340" />
  </g>
  <g
     style="fill:#008400;fill-opacity:1;stroke:#008400;stroke-width:0;stroke-linecap:round;stroke-linejoin:round;stroke-opacity:1"
     id="g342"
     transform="translate(-41143.066,-25421.953)" />
  <g
     style="fill:#008400;fill-opacity:1;stroke:#008400;stroke-width:100;stroke-linecap:round;stroke-linejoin:round;stroke-opacity:1"
     id="g344"
     transform="translate(-41143.066,-25421.953)">
    <circle
       cx="48000"
       cy="31500"
       r="200"
       id="circle346" />
  </g>
  <g
     style="fill:#008400;fill-opacity:1;stroke:#008400;stroke-width:0;stroke-linecap:round;stroke-linejoin:round;stroke-opacity:1"
     id="g348"
     transform="translate(-41143.066,-25421.953)" />
  <g
     style="fill:#008400;fill-opacity:1;stroke:#008400;stroke-width:100;stroke-linecap:round;stroke-linejoin:round;stroke-opacity:1"
     id="g350"
     transform="translate(-41143.066,-25421.953)">
    <circle
       cx="45000"
       cy="26000"
       r="200"
       id="circle352" />
  </g>
</svg>
