<?xml version="1.0" standalone="no"?>
 <!DOCTYPE svg PUBLIC "-//W3C//DTD SVG 1.1//EN" 
 "http://www.w3.org/Graphics/SVG/1.1/DTD/svg11.dtd"> 
<svg
  xmlns:svg="http://www.w3.org/2000/svg"
  xmlns="http://www.w3.org/2000/svg"
  xmlns:xlink="http://www.w3.org/1999/xlink"
  version="1.1"
  width="29.700220cm" height="21.000720cm" viewBox="0 0 116930 82680">
<title>SVG Picture created as schematic.svg date 2020/07/08 18:23:50 </title>
  <desc>Picture generated by Eeschema-SVG </desc>
<g style="fill:#000000; fill-opacity:1;stroke:#000000; stroke-opacity:1;
stroke-linecap:round; stroke-linejoin:round;"
 transform="translate(0 0) scale(1 1)">
</g>
<g style="fill:#000000; fill-opacity:0.0; 
stroke:#000000; stroke-width:0; stroke-opacity:1; 
stroke-linecap:round; stroke-linejoin:round;">
<g >
</g>
<g style="fill:#840000; fill-opacity:0.0; 
stroke:#840000; stroke-width:0; stroke-opacity:1; 
stroke-linecap:round; stroke-linejoin:round;">
</g>
<g style="fill:#840000; fill-opacity:0.0; 
stroke:#840000; stroke-width:60; stroke-opacity:1; 
stroke-linecap:round; stroke-linejoin:round;">
<path style="fill:#840000; fill-opacity:0.0; 
stroke:#840000; stroke-width:60; stroke-opacity:1; 
stroke-linecap:round; stroke-linejoin:round;fill:none"
d="M 67750,35000
68500,35000
" /> 
<path style="fill:#840000; fill-opacity:0.0; 
stroke:#840000; stroke-width:60; stroke-opacity:1; 
stroke-linecap:round; stroke-linejoin:round;fill:none"
d="M 67500,35500
67500,34500
" /> 
<path style="fill:#840000; fill-opacity:0.0; 
stroke:#840000; stroke-width:60; stroke-opacity:1; 
stroke-linecap:round; stroke-linejoin:round;fill:none"
d="M 67500,35000
67000,35000
" /> 
<path style="fill:#840000; fill-opacity:0.0; 
stroke:#840000; stroke-width:60; stroke-opacity:1; 
stroke-linecap:round; stroke-linejoin:round;fill:none"
d="M 67750,35500
67750,34500
" /> 
<path style="fill:#840000; fill-opacity:0.0; 
stroke:#840000; stroke-width:60; stroke-opacity:1; 
stroke-linecap:round; stroke-linejoin:round;fill:none"
d="M 67750,35500
68500,35500
" /> 
<path style="fill:#840000; fill-opacity:0.0; 
stroke:#840000; stroke-width:60; stroke-opacity:1; 
stroke-linecap:round; stroke-linejoin:round;fill:none"
d="M 67750,34500
68500,34500
" /> 
<path style="fill:#840000; fill-opacity:0.0; 
stroke:#840000; stroke-width:60; stroke-opacity:1; 
stroke-linecap:round; stroke-linejoin:round;fill:none"
d="M 68500,35500
68500,36000
" /> 
<path style="fill:#840000; fill-opacity:0.0; 
stroke:#840000; stroke-width:60; stroke-opacity:1; 
stroke-linecap:round; stroke-linejoin:round;fill:none"
d="M 68500,34500
68500,34000
" /> 
<path style="fill:#840000; fill-opacity:0.0; 
stroke:#840000; stroke-width:60; stroke-opacity:1; 
stroke-linecap:round; stroke-linejoin:round;fill:none"
d="M 68000,35300
68300,35500
68000,35700
" /> 
<path d="M68500 35000
L68500 35000
" />
<path d="M68500 34000
L68500 34000
" />
<path d="M67000 35000
L67000 35000
" />
<path d="M68500 36000
L68500 36000
" />
</g>
<g style="fill:#008484; fill-opacity:0.0; 
stroke:#008484; stroke-width:60; stroke-opacity:1; 
stroke-linecap:round; stroke-linejoin:round;">
<text x="67690" y="34020"
textLength="1060" font-size="660" lengthAdjust="spacingAndGlyphs"
text-anchor="middle" opacity="0">M1</text>
<path d="M67280 33990
L67280 33490
L67450 33850
L67610 33490
L67610 33990
" />
<path d="M68110 33990
L67830 33990
" />
<path d="M67970 33990
L67970 33490
L67920 33560
L67880 33610
L67830 33630
" />
</g>
</g>
<g style="fill:#008484; fill-opacity:0.0; 
stroke:#008484; stroke-width:0; stroke-opacity:1; 
stroke-linecap:round; stroke-linejoin:round;">
<g >
</g>
<g style="fill:#840000; fill-opacity:0.0; 
stroke:#840000; stroke-width:0; stroke-opacity:1; 
stroke-linecap:round; stroke-linejoin:round;">
</g>
<g style="fill:#840000; fill-opacity:0.0; 
stroke:#840000; stroke-width:60; stroke-opacity:1; 
stroke-linecap:round; stroke-linejoin:round;">
<path style="fill:#840000; fill-opacity:0.0; 
stroke:#840000; stroke-width:60; stroke-opacity:1; 
stroke-linecap:round; stroke-linejoin:round;fill:none"
d="M 67750,39500
69250,39500
" /> 
<path style="fill:#840000; fill-opacity:0.0; 
stroke:#840000; stroke-width:60; stroke-opacity:1; 
stroke-linecap:round; stroke-linejoin:round;fill:none"
d="M 68000,39750
69000,39750
" /> 
<path style="fill:#840000; fill-opacity:0.0; 
stroke:#840000; stroke-width:60; stroke-opacity:1; 
stroke-linecap:round; stroke-linejoin:round;fill:none"
d="M 68250,40000
68750,40000
" /> 
<path style="fill:#840000; fill-opacity:0.0; 
stroke:#840000; stroke-width:60; stroke-opacity:1; 
stroke-linecap:round; stroke-linejoin:round;fill:none"
d="M 68500,38500
68500,39500
" /> 
<path d="M68500 38500
L68500 38500
" />
</g>
</g>
<g style="fill:#840000; fill-opacity:0.0; 
stroke:#840000; stroke-width:0; stroke-opacity:1; 
stroke-linecap:round; stroke-linejoin:round;">
<g >
</g>
<g style="fill:#840000; fill-opacity:0.0; 
stroke:#840000; stroke-width:60; stroke-opacity:1; 
stroke-linecap:round; stroke-linejoin:round;">
<circle cx="70000" cy="36250" r="750" /> 
<path style="fill:#840000; fill-opacity:0.0; 
stroke:#840000; stroke-width:60; stroke-opacity:1; 
stroke-linecap:round; stroke-linejoin:round;fill:none"
d="M 69750,35900
70250,35900
" /> 
<path style="fill:#840000; fill-opacity:0.0; 
stroke:#840000; stroke-width:60; stroke-opacity:1; 
stroke-linecap:round; stroke-linejoin:round;fill:none"
d="M 70000,35500
70000,35250
" /> 
<path style="fill:#840000; fill-opacity:0.0; 
stroke:#840000; stroke-width:60; stroke-opacity:1; 
stroke-linecap:round; stroke-linejoin:round;fill:none"
d="M 70000,36250
70000,36750
" /> 
<path style="fill:#840000; fill-opacity:0.0; 
stroke:#840000; stroke-width:60; stroke-opacity:1; 
stroke-linecap:round; stroke-linejoin:round;fill:none"
d="M 70000,37000
70000,37250
" /> 
<path style="fill:#840000; fill-opacity:0.0; 
stroke:#840000; stroke-width:60; stroke-opacity:1; 
stroke-linecap:round; stroke-linejoin:round;fill:none"
d="M 70250,36500
69750,36500
" /> 
<path d="M70000 37250
L70000 37250
" />
<path d="M70000 35250
L70000 35250
" />
</g>
<g style="fill:#008484; fill-opacity:0.0; 
stroke:#008484; stroke-width:60; stroke-opacity:1; 
stroke-linecap:round; stroke-linejoin:round;">
<text x="71670" y="36470"
textLength="1350" font-size="660" lengthAdjust="spacingAndGlyphs"
text-anchor="middle" opacity="0">Vsb</text>
<path d="M71070 35940
L71240 36440
L71400 35940
" />
<path d="M71550 36420
L71590 36440
L71690 36440
L71740 36420
L71760 36370
L71760 36350
L71740 36300
L71690 36270
L71620 36270
L71570 36250
L71550 36200
L71550 36180
L71570 36130
L71620 36110
L71690 36110
L71740 36130
" />
<path d="M71970 36440
L71970 35940
" />
<path d="M71970 36130
L72020 36110
L72120 36110
L72170 36130
L72190 36160
L72210 36200
L72210 36350
L72190 36390
L72170 36420
L72120 36440
L72020 36440
L71970 36420
" />
</g>
</g>
<g style="fill:#008484; fill-opacity:0.0; 
stroke:#008484; stroke-width:0; stroke-opacity:1; 
stroke-linecap:round; stroke-linejoin:round;">
<g >
</g>
<g style="fill:#840000; fill-opacity:0.0; 
stroke:#840000; stroke-width:0; stroke-opacity:1; 
stroke-linecap:round; stroke-linejoin:round;">
</g>
<g style="fill:#840000; fill-opacity:0.0; 
stroke:#840000; stroke-width:60; stroke-opacity:1; 
stroke-linecap:round; stroke-linejoin:round;">
<circle cx="65000" cy="36250" r="750" /> 
<path style="fill:#840000; fill-opacity:0.0; 
stroke:#840000; stroke-width:60; stroke-opacity:1; 
stroke-linecap:round; stroke-linejoin:round;fill:none"
d="M 65250,36600
64750,36600
" /> 
<path style="fill:#840000; fill-opacity:0.0; 
stroke:#840000; stroke-width:60; stroke-opacity:1; 
stroke-linecap:round; stroke-linejoin:round;fill:none"
d="M 65000,37000
65000,37250
" /> 
<path style="fill:#840000; fill-opacity:0.0; 
stroke:#840000; stroke-width:60; stroke-opacity:1; 
stroke-linecap:round; stroke-linejoin:round;fill:none"
d="M 65000,36250
65000,35750
" /> 
<path style="fill:#840000; fill-opacity:0.0; 
stroke:#840000; stroke-width:60; stroke-opacity:1; 
stroke-linecap:round; stroke-linejoin:round;fill:none"
d="M 65000,35500
65000,35250
" /> 
<path style="fill:#840000; fill-opacity:0.0; 
stroke:#840000; stroke-width:60; stroke-opacity:1; 
stroke-linecap:round; stroke-linejoin:round;fill:none"
d="M 64750,36000
65250,36000
" /> 
<path d="M65000 35250
L65000 35250
" />
<path d="M65000 37250
L65000 37250
" />
</g>
<g style="fill:#008484; fill-opacity:0.0; 
stroke:#008484; stroke-width:60; stroke-opacity:1; 
stroke-linecap:round; stroke-linejoin:round;">
<text x="63320" y="36520"
textLength="1350" font-size="660" lengthAdjust="spacingAndGlyphs"
text-anchor="middle" opacity="0">Vgs</text>
<path d="M62720 35990
L62890 36490
L63050 35990
" />
<path d="M63430 36160
L63430 36560
L63410 36610
L63390 36630
L63340 36660
L63270 36660
L63220 36630
" />
<path d="M63430 36470
L63390 36490
L63290 36490
L63240 36470
L63220 36440
L63200 36400
L63200 36250
L63220 36210
L63240 36180
L63290 36160
L63390 36160
L63430 36180
" />
<path d="M63650 36470
L63700 36490
L63790 36490
L63840 36470
L63860 36420
L63860 36400
L63840 36350
L63790 36320
L63720 36320
L63670 36300
L63650 36250
L63650 36230
L63670 36180
L63720 36160
L63790 36160
L63840 36180
" />
</g>
</g>
<g style="fill:#008484; fill-opacity:0.0; 
stroke:#008484; stroke-width:0; stroke-opacity:1; 
stroke-linecap:round; stroke-linejoin:round;">
<g >
</g>
<g style="fill:#840000; fill-opacity:0.0; 
stroke:#840000; stroke-width:0; stroke-opacity:1; 
stroke-linecap:round; stroke-linejoin:round;">
</g>
<g style="fill:#840000; fill-opacity:0.0; 
stroke:#840000; stroke-width:60; stroke-opacity:1; 
stroke-linecap:round; stroke-linejoin:round;">
<circle cx="72500" cy="35000" r="750" /> 
<path style="fill:#840000; fill-opacity:0.0; 
stroke:#840000; stroke-width:60; stroke-opacity:1; 
stroke-linecap:round; stroke-linejoin:round;fill:none"
d="M 72250,35350
72750,35350
" /> 
<path style="fill:#840000; fill-opacity:0.0; 
stroke:#840000; stroke-width:60; stroke-opacity:1; 
stroke-linecap:round; stroke-linejoin:round;fill:none"
d="M 72500,35750
72500,36000
" /> 
<path style="fill:#840000; fill-opacity:0.0; 
stroke:#840000; stroke-width:60; stroke-opacity:1; 
stroke-linecap:round; stroke-linejoin:round;fill:none"
d="M 72500,35000
72500,34500
" /> 
<path style="fill:#840000; fill-opacity:0.0; 
stroke:#840000; stroke-width:60; stroke-opacity:1; 
stroke-linecap:round; stroke-linejoin:round;fill:none"
d="M 72500,34250
72500,34000
" /> 
<path style="fill:#840000; fill-opacity:0.0; 
stroke:#840000; stroke-width:60; stroke-opacity:1; 
stroke-linecap:round; stroke-linejoin:round;fill:none"
d="M 72750,34750
72250,34750
" /> 
<path d="M72500 34000
L72500 34000
" />
<path d="M72500 36000
L72500 36000
" />
</g>
<g style="fill:#008484; fill-opacity:0.0; 
stroke:#008484; stroke-width:60; stroke-opacity:1; 
stroke-linecap:round; stroke-linejoin:round;">
<text x="74170" y="35270"
textLength="1350" font-size="660" lengthAdjust="spacingAndGlyphs"
text-anchor="middle" opacity="0">Vds</text>
<path d="M73570 34740
L73740 35240
L73900 34740
" />
<path d="M74280 35240
L74280 34740
" />
<path d="M74280 35220
L74240 35240
L74140 35240
L74090 35220
L74070 35190
L74050 35150
L74050 35000
L74070 34960
L74090 34930
L74140 34910
L74240 34910
L74280 34930
" />
<path d="M74500 35220
L74550 35240
L74640 35240
L74690 35220
L74710 35170
L74710 35150
L74690 35100
L74640 35070
L74570 35070
L74520 35050
L74500 35000
L74500 34980
L74520 34930
L74570 34910
L74640 34910
L74690 34930
" />
</g>
</g>
<g style="fill:#008484; fill-opacity:0.0; 
stroke:#008484; stroke-width:60; stroke-opacity:1; 
stroke-linecap:round; stroke-linejoin:round;">
</g>
<g style="fill:#008400; fill-opacity:0.0; 
stroke:#008400; stroke-width:60; stroke-opacity:1; 
stroke-linecap:round; stroke-linejoin:round;">
<path d="M68500 32500
L68500 34000
" />
<path d="M68500 32500
L72500 32500
" />
<path d="M70000 37500
L68500 37500
" />
<path d="M70000 35000
L68500 35000
" />
<path d="M70000 35250
L70000 35000
" />
<path d="M70000 37500
L72500 37500
" />
<path d="M70000 37250
L70000 37500
" />
<path d="M72500 34000
L72500 32500
" />
<path d="M65000 35000
L67000 35000
" />
<path d="M65000 35250
L65000 35000
" />
<path d="M68500 36000
L68500 37500
" />
<path d="M68500 38500
L68500 37500
" />
<path d="M72500 37500
L72500 36000
" />
<path d="M65000 37500
L68500 37500
" />
<path d="M65000 37250
L65000 37500
" />
</g>
<g style="fill:#000000; fill-opacity:0.0; 
stroke:#000000; stroke-width:60; stroke-opacity:1; 
stroke-linecap:round; stroke-linejoin:round;">
<text x="68750" y="34900"
textLength="960" font-size="660" lengthAdjust="spacingAndGlyphs"
text-anchor="start" opacity="0">nb</text>
<path d="M68890 34540
L68890 34870
" />
<path d="M68890 34590
L68920 34560
L68970 34540
L69040 34540
L69080 34560
L69110 34610
L69110 34870
" />
<path d="M69350 34870
L69350 34370
" />
<path d="M69350 34560
L69390 34540
L69490 34540
L69540 34560
L69560 34590
L69580 34630
L69580 34780
L69560 34820
L69540 34850
L69490 34870
L69390 34870
L69350 34850
" />
<text x="68500" y="37400"
textLength="630" font-size="800" lengthAdjust="spacingAndGlyphs"
text-anchor="start" opacity="0">0</text>
<path d="M68780 36770
L68840 36770
L68900 36800
L68930 36820
L68950 36880
L68980 37000
L68980 37140
L68950 37250
L68930 37310
L68900 37340
L68840 37370
L68780 37370
L68730 37340
L68700 37310
L68670 37250
L68640 37140
L68640 37000
L68670 36880
L68700 36820
L68730 36800
L68780 36770
" />
<text x="68750" y="32400"
textLength="960" font-size="660" lengthAdjust="spacingAndGlyphs"
text-anchor="start" opacity="0">nd</text>
<path d="M68890 32040
L68890 32370
" />
<path d="M68890 32090
L68920 32060
L68970 32040
L69040 32040
L69080 32060
L69110 32110
L69110 32370
" />
<path d="M69560 32370
L69560 31870
" />
<path d="M69560 32350
L69510 32370
L69420 32370
L69370 32350
L69350 32320
L69320 32280
L69320 32130
L69350 32090
L69370 32060
L69420 32040
L69510 32040
L69560 32060
" />
<text x="65500" y="34900"
textLength="960" font-size="660" lengthAdjust="spacingAndGlyphs"
text-anchor="start" opacity="0">ng</text>
<path d="M65640 34540
L65640 34870
" />
<path d="M65640 34590
L65670 34560
L65720 34540
L65790 34540
L65830 34560
L65860 34610
L65860 34870
" />
<path d="M66310 34540
L66310 34940
L66290 34990
L66260 35010
L66220 35040
L66140 35040
L66100 35010
" />
<path d="M66310 34850
L66260 34870
L66170 34870
L66120 34850
L66100 34820
L66070 34780
L66070 34630
L66100 34590
L66120 34560
L66170 34540
L66260 34540
L66310 34560
" />
</g>
<g style="fill:#000000; fill-opacity:0.0; 
stroke:#000000; stroke-width:0; stroke-opacity:1; 
stroke-linecap:round; stroke-linejoin:round;">
</g>
<g style="fill:#008400; fill-opacity:0.0; 
stroke:#008400; stroke-width:0; stroke-opacity:1; 
stroke-linecap:round; stroke-linejoin:round;">
</g>
<g style="fill:#008400; fill-opacity:1.0; 
stroke:#008400; stroke-width:100; stroke-opacity:1; 
stroke-linecap:round; stroke-linejoin:round;">
<circle cx="70000" cy="37500" r="200" /> 
</g>
<g style="fill:#008400; fill-opacity:1.0; 
stroke:#008400; stroke-width:0; stroke-opacity:1; 
stroke-linecap:round; stroke-linejoin:round;">
</g>
<g style="fill:#008400; fill-opacity:1.0; 
stroke:#008400; stroke-width:100; stroke-opacity:1; 
stroke-linecap:round; stroke-linejoin:round;">
<circle cx="68500" cy="37500" r="200" /> 
</g> 
</svg>
