<?xml version="1.0" encoding="UTF-8" standalone="no"?>
<!-- Created with Inkscape (http://www.inkscape.org/) -->

<svg
   xmlns:dc="http://purl.org/dc/elements/1.1/"
   xmlns:cc="http://creativecommons.org/ns#"
   xmlns:rdf="http://www.w3.org/1999/02/22-rdf-syntax-ns#"
   xmlns:svg="http://www.w3.org/2000/svg"
   xmlns="http://www.w3.org/2000/svg"
   xmlns:sodipodi="http://sodipodi.sourceforge.net/DTD/sodipodi-0.dtd"
   xmlns:inkscape="http://www.inkscape.org/namespaces/inkscape"
   id="svg2"
   version="1.1"
   inkscape:version="0.91 r13725"
   xml:space="preserve"
   width="450"
   height="315"
   viewBox="0 0 450 315"
   sodipodi:docname="lateral_pnp_current_mirror_simulation_dc_analysis.svg"><metadata
     id="metadata8"><rdf:RDF><cc:Work
         rdf:about=""><dc:format>image/svg+xml</dc:format><dc:type
           rdf:resource="http://purl.org/dc/dcmitype/StillImage" /><dc:title></dc:title></cc:Work></rdf:RDF></metadata><defs
     id="defs6" /><sodipodi:namedview
     pagecolor="#ffffff"
     bordercolor="#666666"
     borderopacity="1"
     objecttolerance="10"
     gridtolerance="10"
     guidetolerance="10"
     inkscape:pageopacity="0"
     inkscape:pageshadow="2"
     inkscape:window-width="1920"
     inkscape:window-height="1057"
     id="namedview4"
     showgrid="false"
     inkscape:zoom="2.1190756"
     inkscape:cx="223.58197"
     inkscape:cy="132.22417"
     inkscape:window-x="1280"
     inkscape:window-y="0"
     inkscape:window-maximized="1"
     inkscape:current-layer="g10" /><g
     id="g10"
     inkscape:groupmode="layer"
     inkscape:label="ink_ext_XXXXXX"
     transform="matrix(1.25,0,0,-1.25,0,315)"><g
       id="g12"
       transform="scale(0.1,0.1)"><path
         d="m 259,219 3214.5,0"
         style="fill:none;stroke:#000000;stroke-width:1.25;stroke-linecap:butt;stroke-linejoin:miter;stroke-miterlimit:3.79999995;stroke-dasharray:5, 10;stroke-dashoffset:0;stroke-opacity:1"
         id="path14"
         inkscape:connector-curvature="0" /><path
         d="m 259,219 31.5,0 m 3183,0 -31.5,0"
         style="fill:none;stroke:#000000;stroke-width:5;stroke-linecap:butt;stroke-linejoin:miter;stroke-miterlimit:3.79999995;stroke-dasharray:none;stroke-opacity:1"
         id="path16"
         inkscape:connector-curvature="0" /><g
         id="g18"
         transform="scale(10,10)"><text
           transform="matrix(1,0,0,-1,13.9164,19.6)"
           style="font-variant:normal;font-weight:normal;font-size:7px;font-family:Helvetica;-inkscape-font-specification:Helvetica;writing-mode:lr-tb;fill:#000000;fill-opacity:1;fill-rule:nonzero;stroke:none"
           id="text20"><tspan
             x="0 3.892"
             y="0"
             sodipodi:role="line"
             id="tspan22">40</tspan></text>
</g><path
         d="m 259,718 3214.5,0"
         style="fill:none;stroke:#000000;stroke-width:1.25;stroke-linecap:butt;stroke-linejoin:miter;stroke-miterlimit:3.79999995;stroke-dasharray:5, 10;stroke-dashoffset:0;stroke-opacity:1"
         id="path24"
         inkscape:connector-curvature="0" /><path
         d="m 259,718 31.5,0 m 3183,0 -31.5,0"
         style="fill:none;stroke:#000000;stroke-width:5;stroke-linecap:butt;stroke-linejoin:miter;stroke-miterlimit:3.79999995;stroke-dasharray:none;stroke-opacity:1"
         id="path26"
         inkscape:connector-curvature="0" /><g
         id="g28"
         transform="scale(10,10)"><text
           transform="matrix(1,0,0,-1,13.9164,69.5)"
           style="font-variant:normal;font-weight:normal;font-size:7px;font-family:Helvetica;-inkscape-font-specification:Helvetica;writing-mode:lr-tb;fill:#000000;fill-opacity:1;fill-rule:nonzero;stroke:none"
           id="text30"><tspan
             x="0 3.892"
             y="0"
             sodipodi:role="line"
             id="tspan32">45</tspan></text>
</g><path
         d="m 259,1217 3214.5,0"
         style="fill:none;stroke:#000000;stroke-width:1.25;stroke-linecap:butt;stroke-linejoin:miter;stroke-miterlimit:3.79999995;stroke-dasharray:5, 10;stroke-dashoffset:0;stroke-opacity:1"
         id="path34"
         inkscape:connector-curvature="0" /><path
         d="m 259,1217 31.5,0 m 3183,0 -31.5,0"
         style="fill:none;stroke:#000000;stroke-width:5;stroke-linecap:butt;stroke-linejoin:miter;stroke-miterlimit:3.79999995;stroke-dasharray:none;stroke-opacity:1"
         id="path36"
         inkscape:connector-curvature="0" /><g
         id="g38"
         transform="scale(10,10)"><text
           transform="matrix(1,0,0,-1,13.9164,119.4)"
           style="font-variant:normal;font-weight:normal;font-size:7px;font-family:Helvetica;-inkscape-font-specification:Helvetica;writing-mode:lr-tb;fill:#000000;fill-opacity:1;fill-rule:nonzero;stroke:none"
           id="text40"><tspan
             x="0 3.892"
             y="0"
             sodipodi:role="line"
             id="tspan42">50</tspan></text>
</g><path
         d="m 259,1716 3214.5,0"
         style="fill:none;stroke:#000000;stroke-width:1.25;stroke-linecap:butt;stroke-linejoin:miter;stroke-miterlimit:3.79999995;stroke-dasharray:5, 10;stroke-dashoffset:0;stroke-opacity:1"
         id="path44"
         inkscape:connector-curvature="0" /><path
         d="m 259,1716 31.5,0 m 3183,0 -31.5,0"
         style="fill:none;stroke:#000000;stroke-width:5;stroke-linecap:butt;stroke-linejoin:miter;stroke-miterlimit:3.79999995;stroke-dasharray:none;stroke-opacity:1"
         id="path46"
         inkscape:connector-curvature="0" /><g
         id="g48"
         transform="scale(10,10)"><text
           transform="matrix(1,0,0,-1,13.9164,169.3)"
           style="font-variant:normal;font-weight:normal;font-size:7px;font-family:Helvetica;-inkscape-font-specification:Helvetica;writing-mode:lr-tb;fill:#000000;fill-opacity:1;fill-rule:nonzero;stroke:none"
           id="text50"><tspan
             x="0 3.892"
             y="0"
             sodipodi:role="line"
             id="tspan52">55</tspan></text>
</g><path
         d="m 259,2214.5 2175,0 m 997.5,0 42,0"
         style="fill:none;stroke:#000000;stroke-width:1.25;stroke-linecap:butt;stroke-linejoin:miter;stroke-miterlimit:3.79999995;stroke-dasharray:5, 10;stroke-dashoffset:0;stroke-opacity:1"
         id="path54"
         inkscape:connector-curvature="0" /><path
         d="m 259,2214.5 31.5,0 m 3183,0 -31.5,0"
         style="fill:none;stroke:#000000;stroke-width:5;stroke-linecap:butt;stroke-linejoin:miter;stroke-miterlimit:3.79999995;stroke-dasharray:none;stroke-opacity:1"
         id="path56"
         inkscape:connector-curvature="0" /><g
         id="g58"
         transform="scale(10,10)"><text
           transform="matrix(1,0,0,-1,13.9164,219.15)"
           style="font-variant:normal;font-weight:normal;font-size:7px;font-family:Helvetica;-inkscape-font-specification:Helvetica;writing-mode:lr-tb;fill:#000000;fill-opacity:1;fill-rule:nonzero;stroke:none"
           id="text60"><tspan
             x="0 3.892"
             y="0"
             sodipodi:role="line"
             id="tspan62">60</tspan></text>
</g><path
         d="m 259,224 0,2085.5"
         style="fill:none;stroke:#000000;stroke-width:1.25;stroke-linecap:butt;stroke-linejoin:miter;stroke-miterlimit:3.79999995;stroke-dasharray:5, 10;stroke-dashoffset:0;stroke-opacity:1"
         id="path64"
         inkscape:connector-curvature="0" /><path
         d="m 259,224 0,31.5 m 0,2054 0,-31.5"
         style="fill:none;stroke:#000000;stroke-width:5;stroke-linecap:butt;stroke-linejoin:miter;stroke-miterlimit:3.79999995;stroke-dasharray:none;stroke-opacity:1"
         id="path66"
         inkscape:connector-curvature="0" /><g
         id="g68"
         transform="scale(10,10)"><text
           transform="matrix(1,0,0,-1,23.9543,13.1)"
           style="font-variant:normal;font-weight:normal;font-size:7px;font-family:Helvetica;-inkscape-font-specification:Helvetica;writing-mode:lr-tb;fill:#000000;fill-opacity:1;fill-rule:nonzero;stroke:none"
           id="text70"><tspan
             x="0"
             y="0"
             id="tspan72">0</tspan></text>
</g><path
         d="m 587.5,224 0,2085.5"
         style="fill:none;stroke:#000000;stroke-width:1.25;stroke-linecap:butt;stroke-linejoin:miter;stroke-miterlimit:3.79999995;stroke-dasharray:5, 10;stroke-dashoffset:0;stroke-opacity:1"
         id="path74"
         inkscape:connector-curvature="0" /><path
         d="m 587.5,224 0,31.5 m 0,2054 0,-31.5"
         style="fill:none;stroke:#000000;stroke-width:5;stroke-linecap:butt;stroke-linejoin:miter;stroke-miterlimit:3.79999995;stroke-dasharray:none;stroke-opacity:1"
         id="path76"
         inkscape:connector-curvature="0" /><g
         id="g78"
         transform="scale(10,10)"><text
           transform="matrix(1,0,0,-1,53.8855,13.1)"
           style="font-variant:normal;font-weight:normal;font-size:7px;font-family:Helvetica;-inkscape-font-specification:Helvetica;writing-mode:lr-tb;fill:#000000;fill-opacity:1;fill-rule:nonzero;stroke:none"
           id="text80"><tspan
             x="0 3.892 5.8379998"
             y="0"
             sodipodi:role="line"
             id="tspan82">0.5</tspan></text>
</g><path
         d="m 916.5,224 0,2085.5"
         style="fill:none;stroke:#000000;stroke-width:1.25;stroke-linecap:butt;stroke-linejoin:miter;stroke-miterlimit:3.79999995;stroke-dasharray:5, 10;stroke-dashoffset:0;stroke-opacity:1"
         id="path84"
         inkscape:connector-curvature="0" /><path
         d="m 916.5,224 0,31.5 m 0,2054 0,-31.5"
         style="fill:none;stroke:#000000;stroke-width:5;stroke-linecap:butt;stroke-linejoin:miter;stroke-miterlimit:3.79999995;stroke-dasharray:none;stroke-opacity:1"
         id="path86"
         inkscape:connector-curvature="0" /><g
         id="g88"
         transform="scale(10,10)"><text
           transform="matrix(1,0,0,-1,89.7043,13.1)"
           style="font-variant:normal;font-weight:normal;font-size:7px;font-family:Helvetica;-inkscape-font-specification:Helvetica;writing-mode:lr-tb;fill:#000000;fill-opacity:1;fill-rule:nonzero;stroke:none"
           id="text90"><tspan
             x="0"
             y="0"
             id="tspan92">1</tspan></text>
</g><path
         d="m 1245,224 0,2085.5"
         style="fill:none;stroke:#000000;stroke-width:1.25;stroke-linecap:butt;stroke-linejoin:miter;stroke-miterlimit:3.79999995;stroke-dasharray:5, 10;stroke-dashoffset:0;stroke-opacity:1"
         id="path94"
         inkscape:connector-curvature="0" /><path
         d="m 1245,224 0,31.5 m 0,2054 0,-31.5"
         style="fill:none;stroke:#000000;stroke-width:5;stroke-linecap:butt;stroke-linejoin:miter;stroke-miterlimit:3.79999995;stroke-dasharray:none;stroke-opacity:1"
         id="path96"
         inkscape:connector-curvature="0" /><g
         id="g98"
         transform="scale(10,10)"><text
           transform="matrix(1,0,0,-1,119.636,13.1)"
           style="font-variant:normal;font-weight:normal;font-size:7px;font-family:Helvetica;-inkscape-font-specification:Helvetica;writing-mode:lr-tb;fill:#000000;fill-opacity:1;fill-rule:nonzero;stroke:none"
           id="text100"><tspan
             x="0 3.892 5.8379998"
             y="0"
             sodipodi:role="line"
             id="tspan102">1.5</tspan></text>
</g><path
         d="m 1573.5,224 0,2085.5"
         style="fill:none;stroke:#000000;stroke-width:1.25;stroke-linecap:butt;stroke-linejoin:miter;stroke-miterlimit:3.79999995;stroke-dasharray:5, 10;stroke-dashoffset:0;stroke-opacity:1"
         id="path104"
         inkscape:connector-curvature="0" /><path
         d="m 1573.5,224 0,31.5 m 0,2054 0,-31.5"
         style="fill:none;stroke:#000000;stroke-width:5;stroke-linecap:butt;stroke-linejoin:miter;stroke-miterlimit:3.79999995;stroke-dasharray:none;stroke-opacity:1"
         id="path106"
         inkscape:connector-curvature="0" /><g
         id="g108"
         transform="scale(10,10)"><text
           transform="matrix(1,0,0,-1,155.404,13.1)"
           style="font-variant:normal;font-weight:normal;font-size:7px;font-family:Helvetica;-inkscape-font-specification:Helvetica;writing-mode:lr-tb;fill:#000000;fill-opacity:1;fill-rule:nonzero;stroke:none"
           id="text110"><tspan
             x="0"
             y="0"
             id="tspan112">2</tspan></text>
</g><path
         d="m 1902.5,224 0,2085.5"
         style="fill:none;stroke:#000000;stroke-width:1.25;stroke-linecap:butt;stroke-linejoin:miter;stroke-miterlimit:3.79999995;stroke-dasharray:5, 10;stroke-dashoffset:0;stroke-opacity:1"
         id="path114"
         inkscape:connector-curvature="0" /><path
         d="m 1902.5,224 0,31.5 m 0,2054 0,-31.5"
         style="fill:none;stroke:#000000;stroke-width:5;stroke-linecap:butt;stroke-linejoin:miter;stroke-miterlimit:3.79999995;stroke-dasharray:none;stroke-opacity:1"
         id="path116"
         inkscape:connector-curvature="0" /><g
         id="g118"
         transform="scale(10,10)"><text
           transform="matrix(1,0,0,-1,185.386,13.1)"
           style="font-variant:normal;font-weight:normal;font-size:7px;font-family:Helvetica;-inkscape-font-specification:Helvetica;writing-mode:lr-tb;fill:#000000;fill-opacity:1;fill-rule:nonzero;stroke:none"
           id="text120"><tspan
             x="0 3.892 5.8379998"
             y="0"
             sodipodi:role="line"
             id="tspan122">2.5</tspan></text>
</g><path
         d="m 2231,224 0,2085.5"
         style="fill:none;stroke:#000000;stroke-width:1.25;stroke-linecap:butt;stroke-linejoin:miter;stroke-miterlimit:3.79999995;stroke-dasharray:5, 10;stroke-dashoffset:0;stroke-opacity:1"
         id="path124"
         inkscape:connector-curvature="0" /><path
         d="m 2231,224 0,31.5 m 0,2054 0,-31.5"
         style="fill:none;stroke:#000000;stroke-width:5;stroke-linecap:butt;stroke-linejoin:miter;stroke-miterlimit:3.79999995;stroke-dasharray:none;stroke-opacity:1"
         id="path126"
         inkscape:connector-curvature="0" /><g
         id="g128"
         transform="scale(10,10)"><text
           transform="matrix(1,0,0,-1,221.154,13.1)"
           style="font-variant:normal;font-weight:normal;font-size:7px;font-family:Helvetica;-inkscape-font-specification:Helvetica;writing-mode:lr-tb;fill:#000000;fill-opacity:1;fill-rule:nonzero;stroke:none"
           id="text130"><tspan
             x="0"
             y="0"
             id="tspan132">3</tspan></text>
</g><path
         d="m 2560,224 0,1984 m 0,70 0,31.5"
         style="fill:none;stroke:#000000;stroke-width:1.25;stroke-linecap:butt;stroke-linejoin:miter;stroke-miterlimit:3.79999995;stroke-dasharray:5, 10;stroke-dashoffset:0;stroke-opacity:1"
         id="path134"
         inkscape:connector-curvature="0" /><path
         d="m 2560,224 0,31.5 m 0,2054 0,-31.5"
         style="fill:none;stroke:#000000;stroke-width:5;stroke-linecap:butt;stroke-linejoin:miter;stroke-miterlimit:3.79999995;stroke-dasharray:none;stroke-opacity:1"
         id="path136"
         inkscape:connector-curvature="0" /><g
         id="g138"
         transform="scale(10,10)"><text
           transform="matrix(1,0,0,-1,251.136,13.1)"
           style="font-variant:normal;font-weight:normal;font-size:7px;font-family:Helvetica;-inkscape-font-specification:Helvetica;writing-mode:lr-tb;fill:#000000;fill-opacity:1;fill-rule:nonzero;stroke:none"
           id="text140"><tspan
             x="0 3.892 5.8379998"
             y="0"
             sodipodi:role="line"
             id="tspan142">3.5</tspan></text>
</g><path
         d="m 2888.5,224 0,1984 m 0,70 0,31.5"
         style="fill:none;stroke:#000000;stroke-width:1.25;stroke-linecap:butt;stroke-linejoin:miter;stroke-miterlimit:3.79999995;stroke-dasharray:5, 10;stroke-dashoffset:0;stroke-opacity:1"
         id="path144"
         inkscape:connector-curvature="0" /><path
         d="m 2888.5,224 0,31.5 m 0,2054 0,-31.5"
         style="fill:none;stroke:#000000;stroke-width:5;stroke-linecap:butt;stroke-linejoin:miter;stroke-miterlimit:3.79999995;stroke-dasharray:none;stroke-opacity:1"
         id="path146"
         inkscape:connector-curvature="0" /><g
         id="g148"
         transform="scale(10,10)"><text
           transform="matrix(1,0,0,-1,286.904,13.1)"
           style="font-variant:normal;font-weight:normal;font-size:7px;font-family:Helvetica;-inkscape-font-specification:Helvetica;writing-mode:lr-tb;fill:#000000;fill-opacity:1;fill-rule:nonzero;stroke:none"
           id="text150"><tspan
             x="0"
             y="0"
             id="tspan152">4</tspan></text>
</g><path
         d="m 3217,224 0,1984 m 0,70 0,31.5"
         style="fill:none;stroke:#000000;stroke-width:1.25;stroke-linecap:butt;stroke-linejoin:miter;stroke-miterlimit:3.79999995;stroke-dasharray:5, 10;stroke-dashoffset:0;stroke-opacity:1"
         id="path154"
         inkscape:connector-curvature="0" /><path
         d="m 3217,224 0,31.5 m 0,2054 0,-31.5"
         style="fill:none;stroke:#000000;stroke-width:5;stroke-linecap:butt;stroke-linejoin:miter;stroke-miterlimit:3.79999995;stroke-dasharray:none;stroke-opacity:1"
         id="path156"
         inkscape:connector-curvature="0" /><g
         id="g158"
         transform="scale(10,10)"><text
           transform="matrix(1,0,0,-1,316.836,13.1)"
           style="font-variant:normal;font-weight:normal;font-size:7px;font-family:Helvetica;-inkscape-font-specification:Helvetica;writing-mode:lr-tb;fill:#000000;fill-opacity:1;fill-rule:nonzero;stroke:none"
           id="text160"><tspan
             x="0 3.892 5.8379998"
             y="0"
             sodipodi:role="line"
             id="tspan162">4.5</tspan></text>
</g><path
         d="m 259,2309.5 0,-2085.5 3214.5,0 0,2085.5 -3214.5,0 z"
         style="fill:none;stroke:#000000;stroke-width:5;stroke-linecap:butt;stroke-linejoin:miter;stroke-miterlimit:3.79999995;stroke-dasharray:none;stroke-opacity:1"
         id="path164"
         inkscape:connector-curvature="0" /><g
         id="g166"
         transform="scale(10,10)"><text
           transform="matrix(0,1,1,0,7.9,81.1391)"
           style="font-variant:normal;font-weight:normal;font-size:7px;font-family:Helvetica;-inkscape-font-specification:Helvetica;writing-mode:lr-tb;fill:#000000;fill-opacity:1;fill-rule:nonzero;stroke:none"
           id="text168"><tspan
             x="0 5.0539999 8.9460001 10.5 12.054 15.946 19.445999 21.392 25.284 27.615 29.561001 34.615002 38.507 40.838001 43.168999 47.061001 50.952999 52.898998 54.845001 60.291 64.182999 66.128998 70.021004 73.913002 75.859001 77.805 80.136002 84.028 88.696999"
             y="0"
             sodipodi:role="line"
             id="tspan170">Collector Current Output (uA)</tspan></text>
<text
           transform="matrix(1,0,0,-1,154.314,2.6)"
           style="font-variant:normal;font-weight:normal;font-size:7px;font-family:Helvetica;-inkscape-font-specification:Helvetica;writing-mode:lr-tb;fill:#000000;fill-opacity:1;fill-rule:nonzero;stroke:none"
           id="text172"><tspan
             x="0 5.0539999 8.9460001 10.5 12.054 15.946 19.445999 21.392 25.284 27.615 29.561001 34.23 38.122002 39.675999 41.622002 45.514 49.405998 53.298 55.243999 57.575001 62.243999"
             y="0"
             sodipodi:role="line"
             id="tspan174">Collector Voltage (V)</tspan><tspan
             x="-70.986702 -65.932701 -60.8787 -58.932701 -54.263699 -50.3717 -46.479698 -44.925701 -41.425701 -37.925701 -36.3717 -32.8717 -30.925699 -28.9797 -23.925699 -20.033701 -18.4797 -16.925699 -13.0337 -9.5337 -7.5876999 -3.6956999 -1.3647 0.58130002 5.6353002 9.5272999 11.8583 14.1893 18.081301 21.973301 23.9193 25.865299 31.3113 35.2033 37.1493 41.041302 44.9333 46.879299 48.825298 52.325298 55.825298 57.771301 62.825298 66.7173 68.271301 69.825302 73.7173 77.2173 79.1633 83.055298 85.386299 87.332298 92.001297 95.893303 97.447304 99.393303 103.2853 107.1773 111.0693 113.0153 115.3463 119.6233 123.5153 127.4073 133.2383"
             y="-236.55"
             sodipodi:role="line"
             id="tspan176">DC Analysis: Collector Current Output vs Collector Voltage (Zoom)</tspan><tspan
             x="100.7643 103.0953 106.5953 110.4873 114.3793 118.2713 120.6023 124.4943 128.38631 131.88631 135.77831 138.5013 142.3933 146.28529 150.37331 154.2653 158.1573"
             y="-219.39999"
             sodipodi:role="line"
             id="tspan178">(v2#branch*1e+06)</tspan></text>
</g><path
         d="m 3190,2243 199.5,0 M 259,1544.5 l 6.5,-1 6.5,-1.5 6.5,-1 7,-1 6.5,-1.5 6.5,-1 6.5,-1.5 6.5,-1 6.5,-1 6.5,-1.5 7,-1 6.5,-1 6.5,-1.5 6.5,-1 6.5,-1 6.5,-1.5 7,-1 6.5,-1.5 6.5,-1 6.5,-1 6.5,-1.5 6.5,-1 6.5,-1 7,-1.5 6.5,-1 6.5,-1 6.5,-1.5 6.5,-1 6.5,-1.5 6.5,-1 7,-1 6.5,-1.5 6.5,-1 6.5,-1 6.5,-1.5 6.5,-1 6.5,-1.5 7,-1 6.5,-1 6.5,-1.5 6.5,-1 6.5,-1 6.5,-1.5 6.5,-1 7,-1 6.5,-1.5 6.5,-1 6.5,-1.5 6.5,-1 6.5,-1 7,-1.5 6.5,-1 6.5,-1 6.5,-1.5 6.5,-1 6.5,-1.5 6.5,-1 7,-1 6.5,-1.5 6.5,-1 6.5,-1 6.5,-1.5 6.5,-1 6.5,-1.5 7,-1 6.5,-1 6.5,-1.5 6.5,-1 6.5,-1 6.5,-1.5 6.5,-1 7,-1.5 6.5,-1 6.5,-1 6.5,-1.5 6.5,-1 6.5,-1 6.5,-1.5 7,-1 6.5,-1.5 6.5,-1 6.5,-1 6.5,-1.5 6.5,-1 7,-1 6.5,-1.5 6.5,-1 6.5,-1.5 6.5,-1 6.5,-1 6.5,-1.5 7,-1 6.5,-1 6.5,-1.5 6.5,-1 6.5,-1.5 6.5,-1 6.5,-1 7,-1.5 6.5,-1 6.5,-1 6.5,-1.5"
         style="fill:none;stroke:#ff0000;stroke-width:2.5;stroke-linecap:butt;stroke-linejoin:miter;stroke-miterlimit:3.79999995;stroke-dasharray:none;stroke-opacity:1"
         id="path180"
         inkscape:connector-curvature="0" /><path
         d="m 929.5,1423.5 6.5,-1 6.5,-1.5 6.5,-1 7,-1 6.5,-1.5 6.5,-1 6.5,-1.5 6.5,-1 6.5,-1 6.5,-1.5 7,-1 6.5,-1 6.5,-1.5 6.5,-1 6.5,-1.5 6.5,-1 7,-1 6.5,-1.5 6.5,-1 6.5,-1 6.5,-1.5 6.5,-1 6.5,-1.5 7,-1 6.5,-1 6.5,-1.5 6.5,-1 6.5,-1.5 6.5,-1 6.5,-1 7,-1.5 6.5,-1 6.5,-1 6.5,-1.5 6.5,-1 6.5,-1.5 6.5,-1 7,-1 6.5,-1.5 6.5,-1 6.5,-1.5 6.5,-1 6.5,-1 6.5,-1.5 7,-1 6.5,-1 6.5,-1.5 6.5,-1 6.5,-1.5 6.5,-1 7,-1 6.5,-1.5 6.5,-1 6.5,-1.5 6.5,-1 6.5,-1 6.5,-1.5 7,-1 6.5,-1 6.5,-1.5 6.5,-1 6.5,-1.5 6.5,-1 6.5,-1 7,-1.5 6.5,-1 6.5,-1.5 6.5,-1 6.5,-1 6.5,-1.5 6.5,-1 7,-1.5 6.5,-1 6.5,-1 6.5,-1.5 6.5,-1 6.5,-1 7,-1.5 6.5,-1 6.5,-1.5 6.5,-1 6.5,-1 6.5,-1.5 6.5,-1 7,-1.5 6.5,-1 6.5,-1 6.5,-1.5 6.5,-1 6.5,-1.5 6.5,-1 7,-1 6.5,-1.5 6.5,-1 6.5,-1.5 6.5,-1 6.5,-1 6.5,-1.5 7,-1 6.5,-1.5 6.5,-1 6.5,-1 6.5,-1.5 6.5,-1"
         style="fill:none;stroke:#ff0000;stroke-width:2.5;stroke-linecap:butt;stroke-linejoin:miter;stroke-miterlimit:3.79999995;stroke-dasharray:none;stroke-opacity:1"
         id="path182"
         inkscape:connector-curvature="0" /><path
         d="m 1613,1299.5 6.5,-1 7,-1.5 6.5,-1 6.5,-1.5 6.5,-1 6.5,-1 6.5,-1.5 7,-1 6.5,-1.5 6.5,-1 6.5,-1 6.5,-1.5 6.5,-1 6.5,-1.5 7,-1 6.5,-1 6.5,-1.5 6.5,-1 6.5,-1.5 6.5,-1 6.5,-1 7,-1.5 6.5,-1 6.5,-1.5 6.5,-1 6.5,-1 6.5,-1.5 6.5,-1 7,-1.5 6.5,-1 6.5,-1 6.5,-1.5 6.5,-1 6.5,-1.5 6.5,-1 7,-1 6.5,-1.5 6.5,-1 6.5,-1.5 6.5,-1 6.5,-1 7,-1.5 6.5,-1 6.5,-1.5 6.5,-1 6.5,-1 6.5,-1.5 6.5,-1 7,-1.5 6.5,-1 6.5,-1 6.5,-1.5 6.5,-1 6.5,-1.5 6.5,-1 7,-1 6.5,-1.5 6.5,-1 6.5,-1.5 6.5,-1 6.5,-1 6.5,-1.5 7,-1 6.5,-1.5 6.5,-1 6.5,-1 6.5,-1.5 6.5,-1 6.5,-1.5 7,-1 6.5,-1 6.5,-1.5 6.5,-1 6.5,-1.5 6.5,-1 7,-1.5 6.5,-1 6.5,-1 6.5,-1.5 6.5,-1 6.5,-1.5 6.5,-1 7,-1 6.5,-1.5 6.5,-1 6.5,-1.5 6.5,-1 6.5,-1 6.5,-1.5 7,-1 6.5,-1.5 6.5,-1 6.5,-1 6.5,-1.5 6.5,-1 6.5,-1.5 7,-1 6.5,-1 6.5,-1.5 6.5,-1 6.5,-1.5 6.5,-1 6.5,-1.5 7,-1"
         style="fill:none;stroke:#ff0000;stroke-width:2.5;stroke-linecap:butt;stroke-linejoin:miter;stroke-miterlimit:3.79999995;stroke-dasharray:none;stroke-opacity:1"
         id="path184"
         inkscape:connector-curvature="0" /><path
         d="m 2297,1174.5 6.5,-1 6.5,-1.5 6.5,-1 6.5,-1.5 6.5,-1 7,-1 6.5,-1.5 6.5,-1 6.5,-1.5 6.5,-1 6.5,-1 6.5,-1.5 7,-1 6.5,-1.5 6.5,-1 6.5,-1.5 6.5,-1 6.5,-1 6.5,-1.5 7,-1 6.5,-1.5 6.5,-1 6.5,-1 6.5,-1.5 6.5,-1 6.5,-1.5 7,-1 6.5,-1 6.5,-1.5 6.5,-1 6.5,-1.5 6.5,-1 7,-1.5 6.5,-1 6.5,-1 6.5,-1.5 6.5,-1 6.5,-1.5 6.5,-1 7,-1 6.5,-1.5 6.5,-1 6.5,-1.5 6.5,-1 6.5,-1.5 6.5,-1 7,-1 6.5,-1.5 6.5,-1 6.5,-1.5 6.5,-1 6.5,-1 6.5,-1.5 7,-1 6.5,-1.5 6.5,-1 6.5,-1.5 6.5,-1 6.5,-1 6.5,-1.5 7,-1 6.5,-1.5 6.5,-1 6.5,-1 6.5,-1.5 6.5,-1 7,-1.5 6.5,-1 6.5,-1.5 6.5,-1 6.5,-1 6.5,-1.5 6.5,-1 7,-1.5 6.5,-1 6.5,-1.5 6.5,-1 6.5,-1 6.5,-1.5 6.5,-1 7,-1.5 6.5,-1 6.5,-1.5 6.5,-1 6.5,-1 6.5,-1.5 6.5,-1 7,-1.5 6.5,-1 6.5,-1 6.5,-1.5 6.5,-1 6.5,-1.5 6.5,-1 7,-1.5 6.5,-1 6.5,-1 6.5,-1.5 6.5,-1 6.5,-1.5 7,-1 6.5,-1.5 6.5,-1 6.5,-1"
         style="fill:none;stroke:#ff0000;stroke-width:2.5;stroke-linecap:butt;stroke-linejoin:miter;stroke-miterlimit:3.79999995;stroke-dasharray:none;stroke-opacity:1"
         id="path186"
         inkscape:connector-curvature="0" /><path
         d="m 2980.5,1049 6.5,-1.5 6.5,-1 6.5,-1.5 7,-1 6.5,-1.5 6.5,-1 6.5,-1 6.5,-1.5 6.5,-1 6.5,-1.5 7,-1 6.5,-1.5 6.5,-1 6.5,-1 6.5,-1.5 6.5,-1 6.5,-1.5 7,-1 6.5,-1.5 6.5,-1 6.5,-1 6.5,-1.5 6.5,-1 6.5,-1.5 7,-1 6.5,-1.5 6.5,-1 6.5,-1 6.5,-1.5 6.5,-1 7,-1.5 6.5,-1 6.5,-1.5 6.5,-1 6.5,-1 6.5,-1.5 6.5,-1 7,-1.5 6.5,-1 6.5,-1.5 6.5,-1 6.5,-1.5 6.5,-1 6.5,-1.5 7,-1 6.5,-1.5 6.5,-1 6.5,-1.5 6.5,-1.5 6.5,-1.5 6.5,-1.5 7,-1.5 6.5,-1.5 6.5,-2 6.5,-2.5 6.5,-3 6.5,-3.5 6.5,-4.5 7,-6 6.5,-8.5 6.5,-11.5 6.5,-16.5 6.5,-23.5 6.5,-33 7,-48.5 6.5,-69.5 6.5,-101 6.5,-146.5 6.5,-211 1.5,-67.5"
         style="fill:none;stroke:#ff0000;stroke-width:2.5;stroke-linecap:butt;stroke-linejoin:miter;stroke-miterlimit:3.79999995;stroke-dasharray:none;stroke-opacity:1"
         id="path188"
         inkscape:connector-curvature="0" /><path
         d="m 259,2309.5 0,-2085.5 3214.5,0 0,2085.5 -3214.5,0 z"
         style="fill:none;stroke:#000000;stroke-width:5;stroke-linecap:butt;stroke-linejoin:miter;stroke-miterlimit:3.79999995;stroke-dasharray:none;stroke-opacity:1"
         id="path190"
         inkscape:connector-curvature="0" /></g></g></svg>