<?xml version="1.0" encoding="UTF-8" standalone="no"?>
<svg
   xmlns:dc="http://purl.org/dc/elements/1.1/"
   xmlns:cc="http://creativecommons.org/ns#"
   xmlns:rdf="http://www.w3.org/1999/02/22-rdf-syntax-ns#"
   xmlns:svg="http://www.w3.org/2000/svg"
   xmlns="http://www.w3.org/2000/svg"
   xmlns:sodipodi="http://sodipodi.sourceforge.net/DTD/sodipodi-0.dtd"
   xmlns:inkscape="http://www.inkscape.org/namespaces/inkscape"
   version="1.1"
   width="4.6864386cm"
   height="3.8374445cm"
   viewBox="0 0 18450.545 15108.05"
   id="svg2"
   inkscape:version="0.91 r13725"
   sodipodi:docname="schematic.svg">
  <metadata
     id="metadata598">
    <rdf:RDF>
      <cc:Work
         rdf:about="">
        <dc:format>image/svg+xml</dc:format>
        <dc:type
           rdf:resource="http://purl.org/dc/dcmitype/StillImage" />
        <dc:title>SVG Picture created as schematic.svg date 2020/07/20 14:40:40 </dc:title>
      </cc:Work>
    </rdf:RDF>
  </metadata>
  <defs
     id="defs596" />
  <sodipodi:namedview
     pagecolor="#ffffff"
     bordercolor="#666666"
     borderopacity="1"
     objecttolerance="10"
     gridtolerance="10"
     guidetolerance="10"
     inkscape:pageopacity="1"
     inkscape:pageshadow="2"
     inkscape:window-width="1920"
     inkscape:window-height="1057"
     id="namedview594"
     showgrid="false"
     fit-margin-top="0"
     fit-margin-left="0"
     fit-margin-right="0"
     fit-margin-bottom="0"
     inkscape:zoom="1.5265986"
     inkscape:cx="35.342599"
     inkscape:cy="-54.068215"
     inkscape:window-x="1280"
     inkscape:window-y="0"
     inkscape:window-maximized="1"
     inkscape:current-layer="svg2" />
  <title
     id="title4">SVG Picture created as schematic.svg date 2020/07/20 14:40:40 </title>
  <desc
     id="desc6">Picture generated by Eeschema-SVG </desc>
  <g
     style="fill:#000000;fill-opacity:1;stroke:#000000;stroke-linecap:round;stroke-linejoin:round;stroke-opacity:1"
     id="g8"
     transform="translate(-36679.593,-30921.953)" />
  <g
     style="fill:#000000;fill-opacity:0;stroke:#000000;stroke-width:0;stroke-linecap:round;stroke-linejoin:round;stroke-opacity:1"
     id="g10"
     transform="translate(-36679.593,-30921.953)">
    <g
       id="g12" />
    <g
       style="fill:#840000;fill-opacity:0;stroke:#840000;stroke-width:0;stroke-linecap:round;stroke-linejoin:round;stroke-opacity:1"
       id="g14" />
    <g
       style="fill:#840000;fill-opacity:0;stroke:#840000;stroke-width:60;stroke-linecap:round;stroke-linejoin:round;stroke-opacity:1"
       id="g16">
      <circle
         cx="43500"
         cy="33500"
         r="750"
         id="circle18" />
      <path
         style="fill:none;fill-opacity:0;stroke:#840000;stroke-width:60;stroke-linecap:round;stroke-linejoin:round;stroke-opacity:1"
         d="m 43500,34250 0,250"
         id="path20"
         inkscape:connector-curvature="0" />
      <path
         style="fill:none;fill-opacity:0;stroke:#840000;stroke-width:60;stroke-linecap:round;stroke-linejoin:round;stroke-opacity:1"
         d="m 43500,32750 0,-250"
         id="path22"
         inkscape:connector-curvature="0" />
    </g>
    <g
       style="fill:#840000;fill-opacity:1;stroke:#840000;stroke-width:60;stroke-linecap:round;stroke-linejoin:round;stroke-opacity:1"
       id="g24">
      <path
         style="fill:#840000;fill-opacity:1;fill-rule:evenodd;stroke:#840000;stroke-width:60;stroke-linecap:round;stroke-linejoin:round;stroke-opacity:1"
         d="m 43500,33000 0,1000 -250,-500 500,0 -250,500"
         id="path26"
         inkscape:connector-curvature="0" />
    </g>
    <g
       style="fill:#840000;fill-opacity:0;stroke:#840000;stroke-width:60;stroke-linecap:round;stroke-linejoin:round;stroke-opacity:1"
       id="g28">
      <path
         d="m 43500,32500 0,0"
         id="path30"
         inkscape:connector-curvature="0" />
      <path
         d="m 43500,34500 0,0"
         id="path32"
         inkscape:connector-curvature="0" />
    </g>
    <g
       style="fill:#008484;fill-opacity:0;stroke:#008484;stroke-width:60;stroke-linecap:round;stroke-linejoin:round;stroke-opacity:1"
       id="g34">
      <text
         x="45380"
         y="33490"
         textLength="770"
         font-size="660"
         lengthAdjust="spacingAndGlyphs"
         id="text36"
         style="font-size:660px;text-anchor:middle;opacity:0">I1</text>
      <path
         d="m 45140,33460 0,-500"
         id="path38"
         inkscape:connector-curvature="0" />
      <path
         d="m 45640,33460 -290,0"
         id="path40"
         inkscape:connector-curvature="0" />
      <path
         d="m 45490,33460 0,-500 -40,70 -50,50 -50,20"
         id="path42"
         inkscape:connector-curvature="0" />
      <text
         x="45440"
         y="34550"
         textLength="1890"
         font-size="660"
         lengthAdjust="spacingAndGlyphs"
         id="text44"
         style="font-size:660px;text-anchor:middle;opacity:0">50uA</text>
      <path
         d="m 44880,34020 -240,0 -30,240 30,-20 50,-30 110,0 50,30 30,20 20,50 0,120 -20,40 -30,30 -50,20 -110,0 -50,-20 -30,-30"
         id="path46"
         inkscape:connector-curvature="0" />
      <path
         d="m 45210,34020 50,0 40,30 30,20 20,50 30,90 0,120 -30,100 -20,40 -30,30 -40,20 -50,0 -50,-20 -20,-30 -30,-40 -20,-100 0,-120 20,-90 30,-50 20,-20 50,-30"
         id="path48"
         inkscape:connector-curvature="0" />
      <path
         d="m 45800,34190 0,330"
         id="path50"
         inkscape:connector-curvature="0" />
      <path
         d="m 45590,34190 0,260 20,50 50,20 70,0 50,-20 20,-30"
         id="path52"
         inkscape:connector-curvature="0" />
      <path
         d="m 46020,34380 240,0"
         id="path54"
         inkscape:connector-curvature="0" />
      <path
         d="m 45970,34520 170,-500 160,500"
         id="path56"
         inkscape:connector-curvature="0" />
    </g>
  </g>
  <g
     style="fill:#008484;fill-opacity:0;stroke:#008484;stroke-width:0;stroke-linecap:round;stroke-linejoin:round;stroke-opacity:1"
     id="g58"
     transform="translate(-36679.593,-30921.953)">
    <g
       id="g60" />
    <g
       style="fill:#840000;fill-opacity:0;stroke:#840000;stroke-width:0;stroke-linecap:round;stroke-linejoin:round;stroke-opacity:1"
       id="g62" />
    <g
       style="fill:#840000;fill-opacity:0;stroke:#840000;stroke-width:60;stroke-linecap:round;stroke-linejoin:round;stroke-opacity:1"
       id="g64">
      <path
         style="fill:none;fill-opacity:0;stroke:#840000;stroke-width:60;stroke-linecap:round;stroke-linejoin:round;stroke-opacity:1"
         d="m 44500,42250 0,-1500"
         id="path66"
         inkscape:connector-curvature="0" />
      <path
         style="fill:none;fill-opacity:0;stroke:#840000;stroke-width:60;stroke-linecap:round;stroke-linejoin:round;stroke-opacity:1"
         d="m 44500,41500 500,0"
         id="path68"
         inkscape:connector-curvature="0" />
      <path
         style="fill:none;fill-opacity:0;stroke:#840000;stroke-width:60;stroke-linecap:round;stroke-linejoin:round;stroke-opacity:1"
         d="m 44500,41150 -1000,-400"
         id="path70"
         inkscape:connector-curvature="0" />
      <path
         style="fill:none;fill-opacity:0;stroke:#840000;stroke-width:60;stroke-linecap:round;stroke-linejoin:round;stroke-opacity:1"
         d="m 43750,42150 350,150"
         id="path72"
         inkscape:connector-curvature="0" />
      <path
         style="fill:none;fill-opacity:0;stroke:#840000;stroke-width:60;stroke-linecap:round;stroke-linejoin:round;stroke-opacity:1"
         d="m 43750,42150 150,-350"
         id="path74"
         inkscape:connector-curvature="0" />
      <path
         style="fill:none;fill-opacity:0;stroke:#840000;stroke-width:60;stroke-linecap:round;stroke-linejoin:round;stroke-opacity:1"
         d="m 43500,40750 0,-250"
         id="path76"
         inkscape:connector-curvature="0" />
      <path
         style="fill:none;fill-opacity:0;stroke:#840000;stroke-width:60;stroke-linecap:round;stroke-linejoin:round;stroke-opacity:1"
         d="m 44500,41850 -1000,400"
         id="path78"
         inkscape:connector-curvature="0" />
      <path
         style="fill:none;fill-opacity:0;stroke:#840000;stroke-width:60;stroke-linecap:round;stroke-linejoin:round;stroke-opacity:1"
         d="m 43500,42250 0,250"
         id="path80"
         inkscape:connector-curvature="0" />
      <path
         d="m 45000,41500 0,0"
         id="path82"
         inkscape:connector-curvature="0" />
      <path
         d="m 43500,40500 0,0"
         id="path84"
         inkscape:connector-curvature="0" />
      <path
         d="m 43500,42500 0,0"
         id="path86"
         inkscape:connector-curvature="0" />
    </g>
    <g
       style="fill:#008484;fill-opacity:0;stroke:#008484;stroke-width:60;stroke-linecap:round;stroke-linejoin:round;stroke-opacity:1"
       id="g88">
      <text
         x="42720"
         y="41270"
         textLength="1060"
         font-size="660"
         lengthAdjust="spacingAndGlyphs"
         id="text90"
         style="font-size:660px;text-anchor:middle;opacity:0">Q1</text>
      <path
         d="m 42670,41290 -50,-20 -50,-50 -70,-70 -50,-30 -40,0"
         id="path92"
         inkscape:connector-curvature="0" />
      <path
         d="m 42430,41240 -50,-20 -50,-50 -20,-100 0,-160 20,-100 50,-40 50,-30 90,0 50,30 50,40 20,100 0,160 -20,100 -50,50 -50,20 -90,0"
         id="path94"
         inkscape:connector-curvature="0" />
      <path
         d="m 43120,41240 -290,0"
         id="path96"
         inkscape:connector-curvature="0" />
      <path
         d="m 42980,41240 0,-500 -50,70 -50,50 -50,20"
         id="path98"
         inkscape:connector-curvature="0" />
      <text
         x="42300"
         y="42020"
         textLength="1890"
         font-size="660"
         lengthAdjust="spacingAndGlyphs"
         id="text100"
         style="font-size:660px;text-anchor:middle;opacity:0">npn1</text>
      <path
         d="m 41500,41660 0,330"
         id="path102"
         inkscape:connector-curvature="0" />
      <path
         d="m 41500,41710 20,-30 50,-20 70,0 50,20 20,50 0,260"
         id="path104"
         inkscape:connector-curvature="0" />
      <path
         d="m 41950,41660 0,500"
         id="path106"
         inkscape:connector-curvature="0" />
      <path
         d="m 41950,41680 50,-20 90,0 50,20 20,30 30,40 0,150 -30,40 -20,30 -50,20 -90,0 -50,-20"
         id="path108"
         inkscape:connector-curvature="0" />
      <path
         d="m 42400,41660 0,330"
         id="path110"
         inkscape:connector-curvature="0" />
      <path
         d="m 42400,41710 30,-30 40,-20 80,0 40,20 30,50 0,260"
         id="path112"
         inkscape:connector-curvature="0" />
      <path
         d="m 43120,41990 -290,0"
         id="path114"
         inkscape:connector-curvature="0" />
      <path
         d="m 42970,41990 0,-500 -40,70 -50,50 -50,20"
         id="path116"
         inkscape:connector-curvature="0" />
    </g>
  </g>
  <g
     style="fill:#008484;fill-opacity:0;stroke:#008484;stroke-width:0;stroke-linecap:round;stroke-linejoin:round;stroke-opacity:1"
     id="g118"
     transform="translate(-36679.593,-30921.953)">
    <g
       id="g120" />
    <g
       style="fill:#840000;fill-opacity:0;stroke:#840000;stroke-width:0;stroke-linecap:round;stroke-linejoin:round;stroke-opacity:1"
       id="g122" />
    <g
       style="fill:#840000;fill-opacity:0;stroke:#840000;stroke-width:60;stroke-linecap:round;stroke-linejoin:round;stroke-opacity:1"
       id="g124">
      <path
         style="fill:none;fill-opacity:0;stroke:#840000;stroke-width:60;stroke-linecap:round;stroke-linejoin:round;stroke-opacity:1"
         d="m 44500,38250 0,-1500"
         id="path126"
         inkscape:connector-curvature="0" />
      <path
         style="fill:none;fill-opacity:0;stroke:#840000;stroke-width:60;stroke-linecap:round;stroke-linejoin:round;stroke-opacity:1"
         d="m 44500,37500 500,0"
         id="path128"
         inkscape:connector-curvature="0" />
      <path
         style="fill:none;fill-opacity:0;stroke:#840000;stroke-width:60;stroke-linecap:round;stroke-linejoin:round;stroke-opacity:1"
         d="m 44500,37150 -1000,-400"
         id="path130"
         inkscape:connector-curvature="0" />
      <path
         style="fill:none;fill-opacity:0;stroke:#840000;stroke-width:60;stroke-linecap:round;stroke-linejoin:round;stroke-opacity:1"
         d="m 43750,38150 350,150"
         id="path132"
         inkscape:connector-curvature="0" />
      <path
         style="fill:none;fill-opacity:0;stroke:#840000;stroke-width:60;stroke-linecap:round;stroke-linejoin:round;stroke-opacity:1"
         d="m 43750,38150 150,-350"
         id="path134"
         inkscape:connector-curvature="0" />
      <path
         style="fill:none;fill-opacity:0;stroke:#840000;stroke-width:60;stroke-linecap:round;stroke-linejoin:round;stroke-opacity:1"
         d="m 43500,36750 0,-250"
         id="path136"
         inkscape:connector-curvature="0" />
      <path
         style="fill:none;fill-opacity:0;stroke:#840000;stroke-width:60;stroke-linecap:round;stroke-linejoin:round;stroke-opacity:1"
         d="m 44500,37850 -1000,400"
         id="path138"
         inkscape:connector-curvature="0" />
      <path
         style="fill:none;fill-opacity:0;stroke:#840000;stroke-width:60;stroke-linecap:round;stroke-linejoin:round;stroke-opacity:1"
         d="m 43500,38250 0,250"
         id="path140"
         inkscape:connector-curvature="0" />
      <path
         d="m 45000,37500 0,0"
         id="path142"
         inkscape:connector-curvature="0" />
      <path
         d="m 43500,36500 0,0"
         id="path144"
         inkscape:connector-curvature="0" />
      <path
         d="m 43500,38500 0,0"
         id="path146"
         inkscape:connector-curvature="0" />
    </g>
    <g
       style="fill:#008484;fill-opacity:0;stroke:#008484;stroke-width:60;stroke-linecap:round;stroke-linejoin:round;stroke-opacity:1"
       id="g148">
      <text
         x="42720"
         y="36990"
         textLength="1060"
         font-size="660"
         lengthAdjust="spacingAndGlyphs"
         id="text150"
         style="font-size:660px;text-anchor:middle;opacity:0">Q4</text>
      <path
         d="m 42670,37010 -50,-20 -50,-50 -70,-70 -50,-30 -40,0"
         id="path152"
         inkscape:connector-curvature="0" />
      <path
         d="m 42430,36960 -50,-20 -50,-50 -20,-100 0,-160 20,-100 50,-40 50,-30 90,0 50,30 50,40 20,100 0,160 -20,100 -50,50 -50,20 -90,0"
         id="path154"
         inkscape:connector-curvature="0" />
      <path
         d="m 43070,36630 0,330"
         id="path156"
         inkscape:connector-curvature="0" />
      <path
         d="m 42950,36440 -120,350 310,0"
         id="path158"
         inkscape:connector-curvature="0" />
      <text
         x="42550"
         y="37800"
         textLength="1890"
         font-size="660"
         lengthAdjust="spacingAndGlyphs"
         id="text160"
         style="font-size:660px;text-anchor:middle;opacity:0">npn1</text>
      <path
         d="m 41750,37440 0,330"
         id="path162"
         inkscape:connector-curvature="0" />
      <path
         d="m 41750,37490 20,-30 50,-20 70,0 50,20 20,50 0,260"
         id="path164"
         inkscape:connector-curvature="0" />
      <path
         d="m 42200,37440 0,500"
         id="path166"
         inkscape:connector-curvature="0" />
      <path
         d="m 42200,37460 50,-20 90,0 50,20 20,30 30,40 0,150 -30,40 -20,30 -50,20 -90,0 -50,-20"
         id="path168"
         inkscape:connector-curvature="0" />
      <path
         d="m 42650,37440 0,330"
         id="path170"
         inkscape:connector-curvature="0" />
      <path
         d="m 42650,37490 30,-30 40,-20 80,0 40,20 30,50 0,260"
         id="path172"
         inkscape:connector-curvature="0" />
      <path
         d="m 43370,37770 -290,0"
         id="path174"
         inkscape:connector-curvature="0" />
      <path
         d="m 43220,37770 0,-500 -40,70 -50,50 -50,20"
         id="path176"
         inkscape:connector-curvature="0" />
    </g>
  </g>
  <g
     style="fill:#008484;fill-opacity:0;stroke:#008484;stroke-width:0;stroke-linecap:round;stroke-linejoin:round;stroke-opacity:1"
     id="g178"
     transform="translate(-36679.593,-30921.953)">
    <g
       id="g180" />
    <g
       style="fill:#840000;fill-opacity:0;stroke:#840000;stroke-width:0;stroke-linecap:round;stroke-linejoin:round;stroke-opacity:1"
       id="g182" />
    <g
       style="fill:#840000;fill-opacity:0;stroke:#840000;stroke-width:60;stroke-linecap:round;stroke-linejoin:round;stroke-opacity:1"
       id="g184">
      <path
         style="fill:none;fill-opacity:0;stroke:#840000;stroke-width:60;stroke-linecap:round;stroke-linejoin:round;stroke-opacity:1"
         d="m 48500,38250 0,-1500"
         id="path186"
         inkscape:connector-curvature="0" />
      <path
         style="fill:none;fill-opacity:0;stroke:#840000;stroke-width:60;stroke-linecap:round;stroke-linejoin:round;stroke-opacity:1"
         d="m 48500,37500 -500,0"
         id="path188"
         inkscape:connector-curvature="0" />
      <path
         style="fill:none;fill-opacity:0;stroke:#840000;stroke-width:60;stroke-linecap:round;stroke-linejoin:round;stroke-opacity:1"
         d="m 48500,37150 1000,-400"
         id="path190"
         inkscape:connector-curvature="0" />
      <path
         style="fill:none;fill-opacity:0;stroke:#840000;stroke-width:60;stroke-linecap:round;stroke-linejoin:round;stroke-opacity:1"
         d="m 49250,38150 -350,150"
         id="path192"
         inkscape:connector-curvature="0" />
      <path
         style="fill:none;fill-opacity:0;stroke:#840000;stroke-width:60;stroke-linecap:round;stroke-linejoin:round;stroke-opacity:1"
         d="m 49250,38150 -150,-350"
         id="path194"
         inkscape:connector-curvature="0" />
      <path
         style="fill:none;fill-opacity:0;stroke:#840000;stroke-width:60;stroke-linecap:round;stroke-linejoin:round;stroke-opacity:1"
         d="m 49500,36750 0,-250"
         id="path196"
         inkscape:connector-curvature="0" />
      <path
         style="fill:none;fill-opacity:0;stroke:#840000;stroke-width:60;stroke-linecap:round;stroke-linejoin:round;stroke-opacity:1"
         d="m 48500,37850 1000,400"
         id="path198"
         inkscape:connector-curvature="0" />
      <path
         style="fill:none;fill-opacity:0;stroke:#840000;stroke-width:60;stroke-linecap:round;stroke-linejoin:round;stroke-opacity:1"
         d="m 49500,38250 0,250"
         id="path200"
         inkscape:connector-curvature="0" />
      <path
         d="m 48000,37500 0,0"
         id="path202"
         inkscape:connector-curvature="0" />
      <path
         d="m 49500,36500 0,0"
         id="path204"
         inkscape:connector-curvature="0" />
      <path
         d="m 49500,38500 0,0"
         id="path206"
         inkscape:connector-curvature="0" />
    </g>
    <g
       style="fill:#008484;fill-opacity:0;stroke:#008484;stroke-width:60;stroke-linecap:round;stroke-linejoin:round;stroke-opacity:1"
       id="g208">
      <text
         x="50030"
         y="37490"
         textLength="1060"
         font-size="660"
         lengthAdjust="spacingAndGlyphs"
         id="text210"
         style="font-size:660px;text-anchor:middle;opacity:0">Q3</text>
      <path
         d="m 49980,37510 -50,-20 -50,-50 -70,-70 -50,-30 -40,0"
         id="path212"
         inkscape:connector-curvature="0" />
      <path
         d="m 49740,37460 -50,-20 -50,-50 -20,-100 0,-160 20,-100 50,-40 50,-30 90,0 50,30 50,40 20,100 0,160 -20,100 -50,50 -50,20 -90,0"
         id="path214"
         inkscape:connector-curvature="0" />
      <path
         d="m 50120,36960 310,0 -170,190 70,0 50,30 30,20 20,50 0,120 -20,40 -30,30 -50,20 -140,0 -50,-20 -20,-30"
         id="path216"
         inkscape:connector-curvature="0" />
      <text
         x="50440"
         y="38050"
         textLength="1890"
         font-size="660"
         lengthAdjust="spacingAndGlyphs"
         id="text218"
         style="font-size:660px;text-anchor:middle;opacity:0">npn1</text>
      <path
         d="m 49640,37690 0,330"
         id="path220"
         inkscape:connector-curvature="0" />
      <path
         d="m 49640,37740 20,-30 50,-20 70,0 50,20 20,50 0,260"
         id="path222"
         inkscape:connector-curvature="0" />
      <path
         d="m 50090,37690 0,500"
         id="path224"
         inkscape:connector-curvature="0" />
      <path
         d="m 50090,37710 50,-20 90,0 50,20 20,30 30,40 0,150 -30,40 -20,30 -50,20 -90,0 -50,-20"
         id="path226"
         inkscape:connector-curvature="0" />
      <path
         d="m 50540,37690 0,330"
         id="path228"
         inkscape:connector-curvature="0" />
      <path
         d="m 50540,37740 30,-30 40,-20 80,0 40,20 30,50 0,260"
         id="path230"
         inkscape:connector-curvature="0" />
      <path
         d="m 51260,38020 -290,0"
         id="path232"
         inkscape:connector-curvature="0" />
      <path
         d="m 51110,38020 0,-500 -40,70 -50,50 -50,20"
         id="path234"
         inkscape:connector-curvature="0" />
    </g>
  </g>
  <g
     style="fill:#008484;fill-opacity:0;stroke:#008484;stroke-width:0;stroke-linecap:round;stroke-linejoin:round;stroke-opacity:1"
     id="g236"
     transform="translate(-36679.593,-30921.953)">
    <g
       id="g238" />
    <g
       style="fill:#840000;fill-opacity:0;stroke:#840000;stroke-width:0;stroke-linecap:round;stroke-linejoin:round;stroke-opacity:1"
       id="g240" />
    <g
       style="fill:#840000;fill-opacity:0;stroke:#840000;stroke-width:60;stroke-linecap:round;stroke-linejoin:round;stroke-opacity:1"
       id="g242">
      <path
         style="fill:none;fill-opacity:0;stroke:#840000;stroke-width:60;stroke-linecap:round;stroke-linejoin:round;stroke-opacity:1"
         d="m 45750,45500 1500,0"
         id="path244"
         inkscape:connector-curvature="0" />
      <path
         style="fill:none;fill-opacity:0;stroke:#840000;stroke-width:60;stroke-linecap:round;stroke-linejoin:round;stroke-opacity:1"
         d="m 46000,45750 1000,0"
         id="path246"
         inkscape:connector-curvature="0" />
      <path
         style="fill:none;fill-opacity:0;stroke:#840000;stroke-width:60;stroke-linecap:round;stroke-linejoin:round;stroke-opacity:1"
         d="m 46250,46000 500,0"
         id="path248"
         inkscape:connector-curvature="0" />
      <path
         style="fill:none;fill-opacity:0;stroke:#840000;stroke-width:60;stroke-linecap:round;stroke-linejoin:round;stroke-opacity:1"
         d="m 46500,44500 0,1000"
         id="path250"
         inkscape:connector-curvature="0" />
      <path
         d="m 46500,44500 0,0"
         id="path252"
         inkscape:connector-curvature="0" />
    </g>
  </g>
  <g
     style="fill:#840000;fill-opacity:0;stroke:#840000;stroke-width:0;stroke-linecap:round;stroke-linejoin:round;stroke-opacity:1"
     id="g254"
     transform="translate(-36679.593,-30921.953)">
    <g
       id="g256" />
    <g
       style="fill:#840000;fill-opacity:0;stroke:#840000;stroke-width:60;stroke-linecap:round;stroke-linejoin:round;stroke-opacity:1"
       id="g258">
      <circle
         cx="38000"
         cy="31500"
         r="500"
         id="circle260" />
      <path
         style="fill:none;fill-opacity:0;stroke:#840000;stroke-width:60;stroke-linecap:round;stroke-linejoin:round;stroke-opacity:1"
         d="m 38000,31750 0,-500"
         id="path262"
         inkscape:connector-curvature="0" />
      <path
         style="fill:none;fill-opacity:0;stroke:#840000;stroke-width:60;stroke-linecap:round;stroke-linejoin:round;stroke-opacity:1"
         d="m 39000,31500 -500,0"
         id="path264"
         inkscape:connector-curvature="0" />
      <path
         style="fill:none;fill-opacity:0;stroke:#840000;stroke-width:60;stroke-linecap:round;stroke-linejoin:round;stroke-opacity:1"
         d="m 38250,31500 -500,0"
         id="path266"
         inkscape:connector-curvature="0" />
      <path
         d="m 39000,31500 0,0"
         id="path268"
         inkscape:connector-curvature="0" />
    </g>
    <g
       style="fill:#008484;fill-opacity:0;stroke:#008484;stroke-width:60;stroke-linecap:round;stroke-linejoin:round;stroke-opacity:1"
       id="g270">
      <g
         transform="matrix(0,-1,1,0,5500,68480)"
         id="g272">
        <text
           x="36990"
           y="31740"
           textLength="1110"
           font-size="660"
           lengthAdjust="spacingAndGlyphs"
           id="text274"
           style="font-size:660px;text-anchor:middle;opacity:0">V+</text>
      </g>
      <path
         d="m 36710,31960 500,-170 -500,-160"
         id="path276"
         inkscape:connector-curvature="0" />
      <path
         d="m 37020,31460 0,-380"
         id="path278"
         inkscape:connector-curvature="0" />
      <path
         d="m 37210,31270 -380,0"
         id="path280"
         inkscape:connector-curvature="0" />
    </g>
  </g>
  <g
     style="fill:#008484;fill-opacity:0;stroke:#008484;stroke-width:0;stroke-linecap:round;stroke-linejoin:round;stroke-opacity:1"
     id="g282"
     transform="translate(-36679.593,-30921.953)">
    <g
       id="g284" />
    <g
       style="fill:#840000;fill-opacity:0;stroke:#840000;stroke-width:0;stroke-linecap:round;stroke-linejoin:round;stroke-opacity:1"
       id="g286" />
    <g
       style="fill:#840000;fill-opacity:0;stroke:#840000;stroke-width:60;stroke-linecap:round;stroke-linejoin:round;stroke-opacity:1"
       id="g288">
      <circle
         cx="40000"
         cy="37500"
         r="750"
         id="circle290" />
      <path
         style="fill:none;fill-opacity:0;stroke:#840000;stroke-width:60;stroke-linecap:round;stroke-linejoin:round;stroke-opacity:1"
         d="m 39750,37850 500,0"
         id="path292"
         inkscape:connector-curvature="0" />
      <path
         style="fill:none;fill-opacity:0;stroke:#840000;stroke-width:60;stroke-linecap:round;stroke-linejoin:round;stroke-opacity:1"
         d="m 40000,38250 0,250"
         id="path294"
         inkscape:connector-curvature="0" />
      <path
         style="fill:none;fill-opacity:0;stroke:#840000;stroke-width:60;stroke-linecap:round;stroke-linejoin:round;stroke-opacity:1"
         d="m 40000,37500 0,-500"
         id="path296"
         inkscape:connector-curvature="0" />
      <path
         style="fill:none;fill-opacity:0;stroke:#840000;stroke-width:60;stroke-linecap:round;stroke-linejoin:round;stroke-opacity:1"
         d="m 40000,36750 0,-250"
         id="path298"
         inkscape:connector-curvature="0" />
      <path
         style="fill:none;fill-opacity:0;stroke:#840000;stroke-width:60;stroke-linecap:round;stroke-linejoin:round;stroke-opacity:1"
         d="m 40250,37250 -500,0"
         id="path300"
         inkscape:connector-curvature="0" />
      <path
         d="m 40000,36500 0,0"
         id="path302"
         inkscape:connector-curvature="0" />
      <path
         d="m 40000,38500 0,0"
         id="path304"
         inkscape:connector-curvature="0" />
    </g>
    <g
       style="fill:#008484;fill-opacity:0;stroke:#008484;stroke-width:60;stroke-linecap:round;stroke-linejoin:round;stroke-opacity:1"
       id="g306">
      <text
         x="38520"
         y="36990"
         textLength="960"
         font-size="660"
         lengthAdjust="spacingAndGlyphs"
         id="text308"
         style="font-size:660px;text-anchor:middle;opacity:0">V1</text>
      <path
         d="m 38110,36460 170,500 160,-500"
         id="path310"
         inkscape:connector-curvature="0" />
      <path
         d="m 38870,36960 -280,0"
         id="path312"
         inkscape:connector-curvature="0" />
      <path
         d="m 38730,36960 0,-500 -50,70 -50,50 -40,20"
         id="path314"
         inkscape:connector-curvature="0" />
      <text
         x="38520"
         y="38550"
         textLength="960"
         font-size="660"
         lengthAdjust="spacingAndGlyphs"
         id="text316"
         style="font-size:660px;text-anchor:middle;opacity:0">5V</text>
      <path
         d="m 38420,38020 -240,0 -20,240 20,-20 50,-30 120,0 50,30 20,20 20,50 0,120 -20,40 -20,30 -50,20 -120,0 -50,-20 -20,-30"
         id="path318"
         inkscape:connector-curvature="0" />
      <path
         d="m 38590,38020 160,500 170,-500"
         id="path320"
         inkscape:connector-curvature="0" />
    </g>
  </g>
  <g
     style="fill:#008484;fill-opacity:0;stroke:#008484;stroke-width:0;stroke-linecap:round;stroke-linejoin:round;stroke-opacity:1"
     id="g322"
     transform="translate(-36679.593,-30921.953)">
    <g
       id="g324" />
    <g
       style="fill:#840000;fill-opacity:0;stroke:#840000;stroke-width:0;stroke-linecap:round;stroke-linejoin:round;stroke-opacity:1"
       id="g326" />
    <g
       style="fill:#840000;fill-opacity:0;stroke:#840000;stroke-width:60;stroke-linecap:round;stroke-linejoin:round;stroke-opacity:1"
       id="g328">
      <path
         style="fill:none;fill-opacity:0;stroke:#840000;stroke-width:60;stroke-linecap:round;stroke-linejoin:round;stroke-opacity:1"
         d="m 48500,42250 0,-1500"
         id="path330"
         inkscape:connector-curvature="0" />
      <path
         style="fill:none;fill-opacity:0;stroke:#840000;stroke-width:60;stroke-linecap:round;stroke-linejoin:round;stroke-opacity:1"
         d="m 48500,41500 -500,0"
         id="path332"
         inkscape:connector-curvature="0" />
      <path
         style="fill:none;fill-opacity:0;stroke:#840000;stroke-width:60;stroke-linecap:round;stroke-linejoin:round;stroke-opacity:1"
         d="m 48500,41150 1000,-400"
         id="path334"
         inkscape:connector-curvature="0" />
      <path
         style="fill:none;fill-opacity:0;stroke:#840000;stroke-width:60;stroke-linecap:round;stroke-linejoin:round;stroke-opacity:1"
         d="m 49250,42150 -350,150"
         id="path336"
         inkscape:connector-curvature="0" />
      <path
         style="fill:none;fill-opacity:0;stroke:#840000;stroke-width:60;stroke-linecap:round;stroke-linejoin:round;stroke-opacity:1"
         d="m 49250,42150 -150,-350"
         id="path338"
         inkscape:connector-curvature="0" />
      <path
         style="fill:none;fill-opacity:0;stroke:#840000;stroke-width:60;stroke-linecap:round;stroke-linejoin:round;stroke-opacity:1"
         d="m 49500,40750 0,-250"
         id="path340"
         inkscape:connector-curvature="0" />
      <path
         style="fill:none;fill-opacity:0;stroke:#840000;stroke-width:60;stroke-linecap:round;stroke-linejoin:round;stroke-opacity:1"
         d="m 48500,41850 1000,400"
         id="path342"
         inkscape:connector-curvature="0" />
      <path
         style="fill:none;fill-opacity:0;stroke:#840000;stroke-width:60;stroke-linecap:round;stroke-linejoin:round;stroke-opacity:1"
         d="m 49500,42250 0,250"
         id="path344"
         inkscape:connector-curvature="0" />
      <path
         d="m 48000,41500 0,0"
         id="path346"
         inkscape:connector-curvature="0" />
      <path
         d="m 49500,40500 0,0"
         id="path348"
         inkscape:connector-curvature="0" />
      <path
         d="m 49500,42500 0,0"
         id="path350"
         inkscape:connector-curvature="0" />
    </g>
    <g
       style="fill:#008484;fill-opacity:0;stroke:#008484;stroke-width:60;stroke-linecap:round;stroke-linejoin:round;stroke-opacity:1"
       id="g352">
      <text
         x="50030"
         y="41490"
         textLength="1060"
         font-size="660"
         lengthAdjust="spacingAndGlyphs"
         id="text354"
         style="font-size:660px;text-anchor:middle;opacity:0">Q2</text>
      <path
         d="m 49980,41510 -50,-20 -50,-50 -70,-70 -50,-30 -40,0"
         id="path356"
         inkscape:connector-curvature="0" />
      <path
         d="m 49740,41460 -50,-20 -50,-50 -20,-100 0,-160 20,-100 50,-40 50,-30 90,0 50,30 50,40 20,100 0,160 -20,100 -50,50 -50,20 -90,0"
         id="path358"
         inkscape:connector-curvature="0" />
      <path
         d="m 50140,41010 30,-20 50,-30 110,0 50,30 30,20 20,50 0,40 -20,80 -290,280 310,0"
         id="path360"
         inkscape:connector-curvature="0" />
      <text
         x="50440"
         y="42050"
         textLength="1890"
         font-size="660"
         lengthAdjust="spacingAndGlyphs"
         id="text362"
         style="font-size:660px;text-anchor:middle;opacity:0">npn1</text>
      <path
         d="m 49640,41690 0,330"
         id="path364"
         inkscape:connector-curvature="0" />
      <path
         d="m 49640,41740 20,-30 50,-20 70,0 50,20 20,50 0,260"
         id="path366"
         inkscape:connector-curvature="0" />
      <path
         d="m 50090,41690 0,500"
         id="path368"
         inkscape:connector-curvature="0" />
      <path
         d="m 50090,41710 50,-20 90,0 50,20 20,30 30,40 0,150 -30,40 -20,30 -50,20 -90,0 -50,-20"
         id="path370"
         inkscape:connector-curvature="0" />
      <path
         d="m 50540,41690 0,330"
         id="path372"
         inkscape:connector-curvature="0" />
      <path
         d="m 50540,41740 30,-30 40,-20 80,0 40,20 30,50 0,260"
         id="path374"
         inkscape:connector-curvature="0" />
      <path
         d="m 51260,42020 -290,0"
         id="path376"
         inkscape:connector-curvature="0" />
      <path
         d="m 51110,42020 0,-500 -40,70 -50,50 -50,20"
         id="path378"
         inkscape:connector-curvature="0" />
    </g>
  </g>
  <g
     style="fill:#008484;fill-opacity:0;stroke:#008484;stroke-width:0;stroke-linecap:round;stroke-linejoin:round;stroke-opacity:1"
     id="g380"
     transform="translate(-36679.593,-30921.953)">
    <g
       id="g382" />
    <g
       style="fill:#840000;fill-opacity:0;stroke:#840000;stroke-width:0;stroke-linecap:round;stroke-linejoin:round;stroke-opacity:1"
       id="g384" />
    <g
       style="fill:#840000;fill-opacity:0;stroke:#840000;stroke-width:60;stroke-linecap:round;stroke-linejoin:round;stroke-opacity:1"
       id="g386">
      <circle
         cx="53000"
         cy="39500"
         r="750"
         id="circle388" />
      <path
         style="fill:none;fill-opacity:0;stroke:#840000;stroke-width:60;stroke-linecap:round;stroke-linejoin:round;stroke-opacity:1"
         d="m 52750,39850 500,0"
         id="path390"
         inkscape:connector-curvature="0" />
      <path
         style="fill:none;fill-opacity:0;stroke:#840000;stroke-width:60;stroke-linecap:round;stroke-linejoin:round;stroke-opacity:1"
         d="m 53000,40250 0,250"
         id="path392"
         inkscape:connector-curvature="0" />
      <path
         style="fill:none;fill-opacity:0;stroke:#840000;stroke-width:60;stroke-linecap:round;stroke-linejoin:round;stroke-opacity:1"
         d="m 53000,39500 0,-500"
         id="path394"
         inkscape:connector-curvature="0" />
      <path
         style="fill:none;fill-opacity:0;stroke:#840000;stroke-width:60;stroke-linecap:round;stroke-linejoin:round;stroke-opacity:1"
         d="m 53000,38750 0,-250"
         id="path396"
         inkscape:connector-curvature="0" />
      <path
         style="fill:none;fill-opacity:0;stroke:#840000;stroke-width:60;stroke-linecap:round;stroke-linejoin:round;stroke-opacity:1"
         d="m 53250,39250 -500,0"
         id="path398"
         inkscape:connector-curvature="0" />
      <path
         d="m 53000,38500 0,0"
         id="path400"
         inkscape:connector-curvature="0" />
      <path
         d="m 53000,40500 0,0"
         id="path402"
         inkscape:connector-curvature="0" />
    </g>
    <g
       style="fill:#008484;fill-opacity:0;stroke:#008484;stroke-width:60;stroke-linecap:round;stroke-linejoin:round;stroke-opacity:1"
       id="g404">
      <text
         x="53980"
         y="38490"
         textLength="960"
         font-size="660"
         lengthAdjust="spacingAndGlyphs"
         id="text406"
         style="font-size:660px;text-anchor:middle;opacity:0">V2</text>
      <path
         d="m 53570,37960 170,500 160,-500"
         id="path408"
         inkscape:connector-curvature="0" />
      <path
         d="m 54050,38010 20,-20 50,-30 120,0 40,30 30,20 20,50 0,40 -20,80 -290,280 310,0"
         id="path410"
         inkscape:connector-curvature="0" />
      <text
         x="54340"
         y="41050"
         textLength="1680"
         font-size="660"
         lengthAdjust="spacingAndGlyphs"
         id="text412"
         style="font-size:660px;text-anchor:middle;opacity:0">1.3V</text>
      <path
         d="m 53910,41020 -290,0"
         id="path414"
         inkscape:connector-curvature="0" />
      <path
         d="m 53760,41020 0,-500 -40,70 -50,50 -50,20"
         id="path416"
         inkscape:connector-curvature="0" />
      <path
         d="m 54120,40970 20,30 -20,20 -20,-20 20,-30 0,50"
         id="path418"
         inkscape:connector-curvature="0" />
      <path
         d="m 54310,40520 310,0 -170,190 80,0 40,30 30,20 20,50 0,120 -20,40 -30,30 -40,20 -150,0 -40,-20 -30,-30"
         id="path420"
         inkscape:connector-curvature="0" />
      <path
         d="m 54760,40520 170,500 170,-500"
         id="path422"
         inkscape:connector-curvature="0" />
    </g>
  </g>
  <g
     style="fill:#008484;fill-opacity:0;stroke:#008484;stroke-width:60;stroke-linecap:round;stroke-linejoin:round;stroke-opacity:1"
     id="g424"
     transform="translate(-36679.593,-30921.953)" />
  <g
     style="fill:#008400;fill-opacity:0;stroke:#008400;stroke-width:60;stroke-linecap:round;stroke-linejoin:round;stroke-opacity:1"
     id="g426"
     transform="translate(-36679.593,-30921.953)">
    <path
       d="m 40000,43500 0,-5000"
       id="path428"
       inkscape:connector-curvature="0" />
    <path
       d="m 53000,35500 -3500,0"
       id="path430"
       inkscape:connector-curvature="0" />
    <path
       d="m 49500,35500 0,1000"
       id="path432"
       inkscape:connector-curvature="0" />
    <path
       d="m 48000,37500 -1500,0"
       id="path434"
       inkscape:connector-curvature="0" />
    <path
       d="m 46500,37500 0,-2000"
       id="path436"
       inkscape:connector-curvature="0" />
    <path
       d="m 46500,35500 -3000,0"
       id="path438"
       inkscape:connector-curvature="0" />
    <path
       d="m 43500,34500 0,1000"
       id="path440"
       inkscape:connector-curvature="0" />
    <path
       d="m 43500,38500 0,2000"
       id="path442"
       inkscape:connector-curvature="0" />
    <path
       d="m 43500,32500 0,-1000"
       id="path444"
       inkscape:connector-curvature="0" />
    <path
       d="m 43500,31500 -3500,0"
       id="path446"
       inkscape:connector-curvature="0" />
    <path
       d="m 46500,37500 -1500,0"
       id="path448"
       inkscape:connector-curvature="0" />
    <path
       d="m 40000,36500 0,-5000"
       id="path450"
       inkscape:connector-curvature="0" />
    <path
       d="m 46500,41500 1500,0"
       id="path452"
       inkscape:connector-curvature="0" />
    <path
       d="m 49500,39500 0,1000"
       id="path454"
       inkscape:connector-curvature="0" />
    <path
       d="m 49500,43500 3500,0"
       id="path456"
       inkscape:connector-curvature="0" />
    <path
       d="m 46500,43500 3000,0"
       id="path458"
       inkscape:connector-curvature="0" />
    <path
       d="m 40000,31500 -1000,0"
       id="path460"
       inkscape:connector-curvature="0" />
    <path
       d="m 43500,43500 3000,0"
       id="path462"
       inkscape:connector-curvature="0" />
    <path
       d="m 43500,35500 0,1000"
       id="path464"
       inkscape:connector-curvature="0" />
    <path
       d="m 53000,43500 0,-3000"
       id="path466"
       inkscape:connector-curvature="0" />
    <path
       d="m 45000,41500 1500,0"
       id="path468"
       inkscape:connector-curvature="0" />
    <path
       d="m 49500,38500 0,1000"
       id="path470"
       inkscape:connector-curvature="0" />
    <path
       d="m 49500,39500 -3000,0"
       id="path472"
       inkscape:connector-curvature="0" />
    <path
       d="m 46500,39500 0,2000"
       id="path474"
       inkscape:connector-curvature="0" />
    <path
       d="m 49500,43500 0,-1000"
       id="path476"
       inkscape:connector-curvature="0" />
    <path
       d="m 43500,42500 0,1000"
       id="path478"
       inkscape:connector-curvature="0" />
    <path
       d="m 46500,43500 0,1000"
       id="path480"
       inkscape:connector-curvature="0" />
    <path
       d="m 53000,38500 0,-3000"
       id="path482"
       inkscape:connector-curvature="0" />
    <path
       d="m 40000,43500 3500,0"
       id="path484"
       inkscape:connector-curvature="0" />
  </g>
  <g
     style="fill:#000000;fill-opacity:0;stroke:#000000;stroke-width:60;stroke-linecap:round;stroke-linejoin:round;stroke-opacity:1"
     id="g486"
     transform="translate(-36679.593,-30921.953)">
    <text
       x="40500"
       y="31400"
       textLength="2630"
       font-size="800"
       lengthAdjust="spacingAndGlyphs"
       id="text488"
       style="font-size:800px;text-anchor:start;opacity:0">n_pos</text>
    <path
       d="m 40670,30970 0,400"
       id="path490"
       inkscape:connector-curvature="0" />
    <path
       d="m 40670,31020 30,-20 50,-30 90,0 60,30 30,50 0,320"
       id="path492"
       inkscape:connector-curvature="0" />
    <path
       d="m 41070,31420 460,0"
       id="path494"
       inkscape:connector-curvature="0" />
    <path
       d="m 41670,30970 0,600"
       id="path496"
       inkscape:connector-curvature="0" />
    <path
       d="m 41670,31000 60,-30 110,0 60,30 30,20 20,60 0,170 -20,60 -30,30 -60,30 -110,0 -60,-30"
       id="path498"
       inkscape:connector-curvature="0" />
    <path
       d="m 42300,31370 -60,-30 -30,-30 -30,-60 0,-170 30,-60 30,-20 60,-30 80,0 60,30 30,20 30,60 0,170 -30,60 -30,30 -60,30 -80,0"
       id="path500"
       inkscape:connector-curvature="0" />
    <path
       d="m 42730,31340 50,30 120,0 50,-30 30,-60 0,-30 -30,-50 -50,-30 -90,0 -60,-30 -20,-60 0,-30 20,-50 60,-30 90,0 50,30"
       id="path502"
       inkscape:connector-curvature="0" />
    <text
       x="46500"
       y="39400"
       textLength="1170"
       font-size="800"
       lengthAdjust="spacingAndGlyphs"
       id="text504"
       style="font-size:800px;text-anchor:start;opacity:0">n1</text>
    <path
       d="m 46670,38970 0,400"
       id="path506"
       inkscape:connector-curvature="0" />
    <path
       d="m 46670,39020 30,-20 50,-30 90,0 60,30 30,50 0,320"
       id="path508"
       inkscape:connector-curvature="0" />
    <path
       d="m 47530,39370 -350,0"
       id="path510"
       inkscape:connector-curvature="0" />
    <path
       d="m 47350,39370 0,-600 -50,80 -60,60 -60,30"
       id="path512"
       inkscape:connector-curvature="0" />
    <text
       x="46500"
       y="43400"
       textLength="630"
       font-size="800"
       lengthAdjust="spacingAndGlyphs"
       id="text514"
       style="font-size:800px;text-anchor:start;opacity:0">0</text>
    <path
       d="m 46780,42770 60,0 60,30 30,20 20,60 30,120 0,140 -30,110 -20,60 -30,30 -60,30 -60,0 -50,-30 -30,-30 -30,-60 -30,-110 0,-140 30,-120 30,-60 30,-20 50,-30"
       id="path516"
       inkscape:connector-curvature="0" />
    <text
       x="49500"
       y="35400"
       textLength="1170"
       font-size="800"
       lengthAdjust="spacingAndGlyphs"
       id="text518"
       style="font-size:800px;text-anchor:start;opacity:0">n2</text>
    <path
       d="m 49670,34970 0,400"
       id="path520"
       inkscape:connector-curvature="0" />
    <path
       d="m 49670,35020 30,-20 50,-30 90,0 60,30 30,50 0,320"
       id="path522"
       inkscape:connector-curvature="0" />
    <path
       d="m 50180,34820 30,-20 60,-30 140,0 60,30 30,20 30,60 0,60 -30,80 -350,350 380,0"
       id="path524"
       inkscape:connector-curvature="0" />
    <text
       x="46500"
       y="35400"
       textLength="1170"
       font-size="800"
       lengthAdjust="spacingAndGlyphs"
       id="text526"
       style="font-size:800px;text-anchor:end;opacity:0">n3</text>
    <path
       d="m 45490,34970 0,400"
       id="path528"
       inkscape:connector-curvature="0" />
    <path
       d="m 45490,35020 30,-20 60,-30 90,0 50,30 30,50 0,320"
       id="path530"
       inkscape:connector-curvature="0" />
    <path
       d="m 45980,34770 370,0 -200,230 90,0 50,20 30,30 30,60 0,140 -30,60 -30,30 -50,30 -170,0 -60,-30 -30,-30"
       id="path532"
       inkscape:connector-curvature="0" />
    <text
       x="43500"
       y="39900"
       textLength="1170"
       font-size="800"
       lengthAdjust="spacingAndGlyphs"
       id="text534"
       style="font-size:800px;text-anchor:start;opacity:0">n4</text>
    <path
       d="m 43670,39470 0,400"
       id="path536"
       inkscape:connector-curvature="0" />
    <path
       d="m 43670,39520 30,-20 50,-30 90,0 60,30 30,50 0,320"
       id="path538"
       inkscape:connector-curvature="0" />
    <path
       d="m 44470,39470 0,400"
       id="path540"
       inkscape:connector-curvature="0" />
    <path
       d="m 44330,39240 -150,430 370,0"
       id="path542"
       inkscape:connector-curvature="0" />
  </g>
  <g
     style="fill:#000000;fill-opacity:0;stroke:#000000;stroke-width:0;stroke-linecap:round;stroke-linejoin:round;stroke-opacity:1"
     id="g544"
     transform="translate(-36679.593,-30921.953)" />
  <g
     style="fill:#008400;fill-opacity:0;stroke:#008400;stroke-width:0;stroke-linecap:round;stroke-linejoin:round;stroke-opacity:1"
     id="g546"
     transform="translate(-36679.593,-30921.953)" />
  <g
     style="fill:#008400;fill-opacity:1;stroke:#008400;stroke-width:100;stroke-linecap:round;stroke-linejoin:round;stroke-opacity:1"
     id="g548"
     transform="translate(-36679.593,-30921.953)">
    <circle
       cx="43500"
       cy="43500"
       r="200"
       id="circle550" />
  </g>
  <g
     style="fill:#008400;fill-opacity:1;stroke:#008400;stroke-width:0;stroke-linecap:round;stroke-linejoin:round;stroke-opacity:1"
     id="g552"
     transform="translate(-36679.593,-30921.953)" />
  <g
     style="fill:#008400;fill-opacity:1;stroke:#008400;stroke-width:100;stroke-linecap:round;stroke-linejoin:round;stroke-opacity:1"
     id="g554"
     transform="translate(-36679.593,-30921.953)">
    <circle
       cx="46500"
       cy="41500"
       r="200"
       id="circle556" />
  </g>
  <g
     style="fill:#008400;fill-opacity:1;stroke:#008400;stroke-width:0;stroke-linecap:round;stroke-linejoin:round;stroke-opacity:1"
     id="g558"
     transform="translate(-36679.593,-30921.953)" />
  <g
     style="fill:#008400;fill-opacity:1;stroke:#008400;stroke-width:100;stroke-linecap:round;stroke-linejoin:round;stroke-opacity:1"
     id="g560"
     transform="translate(-36679.593,-30921.953)">
    <circle
       cx="40000"
       cy="31500"
       r="200"
       id="circle562" />
  </g>
  <g
     style="fill:#008400;fill-opacity:1;stroke:#008400;stroke-width:0;stroke-linecap:round;stroke-linejoin:round;stroke-opacity:1"
     id="g564"
     transform="translate(-36679.593,-30921.953)" />
  <g
     style="fill:#008400;fill-opacity:1;stroke:#008400;stroke-width:100;stroke-linecap:round;stroke-linejoin:round;stroke-opacity:1"
     id="g566"
     transform="translate(-36679.593,-30921.953)">
    <circle
       cx="46500"
       cy="43500"
       r="200"
       id="circle568" />
  </g>
  <g
     style="fill:#008400;fill-opacity:1;stroke:#008400;stroke-width:0;stroke-linecap:round;stroke-linejoin:round;stroke-opacity:1"
     id="g570"
     transform="translate(-36679.593,-30921.953)" />
  <g
     style="fill:#008400;fill-opacity:1;stroke:#008400;stroke-width:100;stroke-linecap:round;stroke-linejoin:round;stroke-opacity:1"
     id="g572"
     transform="translate(-36679.593,-30921.953)">
    <circle
       cx="49500"
       cy="39500"
       r="200"
       id="circle574" />
  </g>
  <g
     style="fill:#008400;fill-opacity:1;stroke:#008400;stroke-width:0;stroke-linecap:round;stroke-linejoin:round;stroke-opacity:1"
     id="g576"
     transform="translate(-36679.593,-30921.953)" />
  <g
     style="fill:#008400;fill-opacity:1;stroke:#008400;stroke-width:100;stroke-linecap:round;stroke-linejoin:round;stroke-opacity:1"
     id="g578"
     transform="translate(-36679.593,-30921.953)">
    <circle
       cx="46500"
       cy="37500"
       r="200"
       id="circle580" />
  </g>
  <g
     style="fill:#008400;fill-opacity:1;stroke:#008400;stroke-width:0;stroke-linecap:round;stroke-linejoin:round;stroke-opacity:1"
     id="g582"
     transform="translate(-36679.593,-30921.953)" />
  <g
     style="fill:#008400;fill-opacity:1;stroke:#008400;stroke-width:100;stroke-linecap:round;stroke-linejoin:round;stroke-opacity:1"
     id="g584"
     transform="translate(-36679.593,-30921.953)">
    <circle
       cx="49500"
       cy="43500"
       r="200"
       id="circle586" />
  </g>
  <g
     style="fill:#008400;fill-opacity:1;stroke:#008400;stroke-width:0;stroke-linecap:round;stroke-linejoin:round;stroke-opacity:1"
     id="g588"
     transform="translate(-36679.593,-30921.953)" />
  <g
     style="fill:#008400;fill-opacity:1;stroke:#008400;stroke-width:100;stroke-linecap:round;stroke-linejoin:round;stroke-opacity:1"
     id="g590"
     transform="translate(-36679.593,-30921.953)">
    <circle
       cx="43500"
       cy="35500"
       r="200"
       id="circle592" />
  </g>
</svg>
