<?xml version="1.0" encoding="UTF-8" standalone="no"?>
<svg
   xmlns:dc="http://purl.org/dc/elements/1.1/"
   xmlns:cc="http://creativecommons.org/ns#"
   xmlns:rdf="http://www.w3.org/1999/02/22-rdf-syntax-ns#"
   xmlns:svg="http://www.w3.org/2000/svg"
   xmlns="http://www.w3.org/2000/svg"
   xmlns:sodipodi="http://sodipodi.sourceforge.net/DTD/sodipodi-0.dtd"
   xmlns:inkscape="http://www.inkscape.org/namespaces/inkscape"
   version="1.1"
   width="4.3172565cm"
   height="2.8214445cm"
   viewBox="0 0 16997.073 11108.05"
   id="svg2"
   inkscape:version="0.91 r13725"
   sodipodi:docname="simple_mos_current_mirror.svg">
  <metadata
     id="metadata476">
    <rdf:RDF>
      <cc:Work
         rdf:about="">
        <dc:format>image/svg+xml</dc:format>
        <dc:type
           rdf:resource="http://purl.org/dc/dcmitype/StillImage" />
        <dc:title>SVG Picture created as simple_mos_current_mirror.svg date 2020/06/14 13:46:34 </dc:title>
      </cc:Work>
    </rdf:RDF>
  </metadata>
  <defs
     id="defs474" />
  <sodipodi:namedview
     pagecolor="#ffffff"
     bordercolor="#666666"
     borderopacity="1"
     objecttolerance="10"
     gridtolerance="10"
     guidetolerance="10"
     inkscape:pageopacity="1"
     inkscape:pageshadow="2"
     inkscape:window-width="1920"
     inkscape:window-height="1057"
     id="namedview472"
     showgrid="false"
     fit-margin-top="0"
     fit-margin-left="0"
     fit-margin-right="0"
     fit-margin-bottom="0"
     inkscape:zoom="6.1063945"
     inkscape:cx="66.825694"
     inkscape:cy="57.363514"
     inkscape:window-x="1280"
     inkscape:window-y="0"
     inkscape:window-maximized="1"
     inkscape:current-layer="svg2" />
  <title
     id="title4">SVG Picture created as simple_mos_current_mirror.svg date 2020/06/14 13:46:34 </title>
  <desc
     id="desc6">Picture generated by Eeschema-SVG </desc>
  <g
     style="fill:#000000;fill-opacity:1;stroke:#000000;stroke-linecap:round;stroke-linejoin:round;stroke-opacity:1"
     id="g8"
     transform="translate(-58643.066,-28421.953)" />
  <g
     style="fill:#000000;fill-opacity:0;stroke:#000000;stroke-width:0;stroke-linecap:round;stroke-linejoin:round;stroke-opacity:1"
     id="g10"
     transform="translate(-58643.066,-28421.953)">
    <g
       id="g12" />
    <g
       style="fill:#840000;fill-opacity:0;stroke:#840000;stroke-width:0;stroke-linecap:round;stroke-linejoin:round;stroke-opacity:1"
       id="g14" />
    <g
       style="fill:#840000;fill-opacity:0;stroke:#840000;stroke-width:60;stroke-linecap:round;stroke-linejoin:round;stroke-opacity:1"
       id="g16">
      <circle
         cx="61500"
         cy="33250"
         r="750"
         id="circle18" />
      <path
         style="fill:none;fill-opacity:0;stroke:#840000;stroke-width:60;stroke-linecap:round;stroke-linejoin:round;stroke-opacity:1"
         d="m 61750,33600 -500,0"
         id="path20"
         inkscape:connector-curvature="0" />
      <path
         style="fill:none;fill-opacity:0;stroke:#840000;stroke-width:60;stroke-linecap:round;stroke-linejoin:round;stroke-opacity:1"
         d="m 61500,34000 0,250"
         id="path22"
         inkscape:connector-curvature="0" />
      <path
         style="fill:none;fill-opacity:0;stroke:#840000;stroke-width:60;stroke-linecap:round;stroke-linejoin:round;stroke-opacity:1"
         d="m 61500,33250 0,-500"
         id="path24"
         inkscape:connector-curvature="0" />
      <path
         style="fill:none;fill-opacity:0;stroke:#840000;stroke-width:60;stroke-linecap:round;stroke-linejoin:round;stroke-opacity:1"
         d="m 61500,32500 0,-250"
         id="path26"
         inkscape:connector-curvature="0" />
      <path
         style="fill:none;fill-opacity:0;stroke:#840000;stroke-width:60;stroke-linecap:round;stroke-linejoin:round;stroke-opacity:1"
         d="m 61250,33000 500,0"
         id="path28"
         inkscape:connector-curvature="0" />
      <path
         d="m 61500,32250 0,0"
         id="path30"
         inkscape:connector-curvature="0" />
      <path
         d="m 61500,34250 0,0"
         id="path32"
         inkscape:connector-curvature="0" />
    </g>
    <g
       style="fill:#008484;fill-opacity:0;stroke:#008484;stroke-width:60;stroke-linecap:round;stroke-linejoin:round;stroke-opacity:1"
       id="g34">
      <text
         x="59990"
         y="33060"
         textLength="910"
         font-size="660"
         lengthAdjust="spacingAndGlyphs"
         id="text36"
         style="font-size:660px;text-anchor:middle;opacity:0">V1</text>
      <path
         d="m 59580,32530 170,500 160,-500"
         id="path38"
         inkscape:connector-curvature="0" />
      <path
         d="m 60340,33030 -280,0"
         id="path40"
         inkscape:connector-curvature="0" />
      <path
         d="m 60200,33030 0,-500 -50,70 -50,50 -40,20"
         id="path42"
         inkscape:connector-curvature="0" />
      <text
         x="59630"
         y="33970"
         textLength="1680"
         font-size="660"
         lengthAdjust="spacingAndGlyphs"
         id="text44"
         style="font-size:660px;text-anchor:middle;opacity:0">1.3V</text>
      <path
         d="m 59200,33940 -290,0"
         id="path46"
         inkscape:connector-curvature="0" />
      <path
         d="m 59050,33940 0,-500 -40,70 -50,50 -50,20"
         id="path48"
         inkscape:connector-curvature="0" />
      <path
         d="m 59410,33890 20,30 -20,20 -20,-20 20,-30 0,50"
         id="path50"
         inkscape:connector-curvature="0" />
      <path
         d="m 59600,33440 310,0 -170,190 80,0 40,30 30,20 20,50 0,120 -20,40 -30,30 -40,20 -150,0 -40,-20 -30,-30"
         id="path52"
         inkscape:connector-curvature="0" />
      <path
         d="m 60050,33440 170,500 170,-500"
         id="path54"
         inkscape:connector-curvature="0" />
    </g>
  </g>
  <g
     style="fill:#008484;fill-opacity:0;stroke:#008484;stroke-width:0;stroke-linecap:round;stroke-linejoin:round;stroke-opacity:1"
     id="g56"
     transform="translate(-58643.066,-28421.953)">
    <g
       id="g58" />
    <g
       style="fill:#840000;fill-opacity:0;stroke:#840000;stroke-width:0;stroke-linecap:round;stroke-linejoin:round;stroke-opacity:1"
       id="g60" />
    <g
       style="fill:#840000;fill-opacity:0;stroke:#840000;stroke-width:60;stroke-linecap:round;stroke-linejoin:round;stroke-opacity:1"
       id="g62">
      <circle
         cx="72500"
         cy="35000"
         r="750"
         id="circle64" />
      <path
         style="fill:none;fill-opacity:0;stroke:#840000;stroke-width:60;stroke-linecap:round;stroke-linejoin:round;stroke-opacity:1"
         d="m 72250,35350 500,0"
         id="path66"
         inkscape:connector-curvature="0" />
      <path
         style="fill:none;fill-opacity:0;stroke:#840000;stroke-width:60;stroke-linecap:round;stroke-linejoin:round;stroke-opacity:1"
         d="m 72500,35750 0,250"
         id="path68"
         inkscape:connector-curvature="0" />
      <path
         style="fill:none;fill-opacity:0;stroke:#840000;stroke-width:60;stroke-linecap:round;stroke-linejoin:round;stroke-opacity:1"
         d="m 72500,35000 0,-500"
         id="path70"
         inkscape:connector-curvature="0" />
      <path
         style="fill:none;fill-opacity:0;stroke:#840000;stroke-width:60;stroke-linecap:round;stroke-linejoin:round;stroke-opacity:1"
         d="m 72500,34250 0,-250"
         id="path72"
         inkscape:connector-curvature="0" />
      <path
         style="fill:none;fill-opacity:0;stroke:#840000;stroke-width:60;stroke-linecap:round;stroke-linejoin:round;stroke-opacity:1"
         d="m 72750,34750 -500,0"
         id="path74"
         inkscape:connector-curvature="0" />
      <path
         d="m 72500,34000 0,0"
         id="path76"
         inkscape:connector-curvature="0" />
      <path
         d="m 72500,36000 0,0"
         id="path78"
         inkscape:connector-curvature="0" />
    </g>
    <g
       style="fill:#008484;fill-opacity:0;stroke:#008484;stroke-width:60;stroke-linecap:round;stroke-linejoin:round;stroke-opacity:1"
       id="g80">
      <text
         x="74010"
         y="34810"
         textLength="960"
         font-size="660"
         lengthAdjust="spacingAndGlyphs"
         id="text82"
         style="font-size:660px;text-anchor:middle;opacity:0">V2</text>
      <path
         d="m 73600,34280 170,500 160,-500"
         id="path84"
         inkscape:connector-curvature="0" />
      <path
         d="m 74080,34330 20,-20 50,-30 120,0 40,30 30,20 20,50 0,40 -20,80 -290,280 310,0"
         id="path86"
         inkscape:connector-curvature="0" />
      <text
         x="74610"
         y="35720"
         textLength="2160"
         font-size="660"
         lengthAdjust="spacingAndGlyphs"
         id="text88"
         style="font-size:660px;text-anchor:middle;opacity:0">0.63V</text>
      <path
         d="m 73770,35190 50,0 50,30 20,20 20,50 30,90 0,120 -30,100 -20,40 -20,30 -50,20 -50,0 -50,-20 -20,-30 -20,-40 -30,-100 0,-120 30,-90 20,-50 20,-20 50,-30"
         id="path90"
         inkscape:connector-curvature="0" />
      <path
         d="m 74150,35640 30,30 -30,20 -20,-20 20,-30 0,50"
         id="path92"
         inkscape:connector-curvature="0" />
      <path
         d="m 74610,35190 -100,0 -50,30 -20,20 -50,70 -20,100 0,190 20,40 20,30 50,20 100,0 50,-20 20,-30 20,-40 0,-120 -20,-50 -20,-20 -50,-30 -100,0 -50,30 -20,20 -20,50"
         id="path94"
         inkscape:connector-curvature="0" />
      <path
         d="m 74820,35190 310,0 -170,190 70,0 50,30 30,20 20,50 0,120 -20,40 -30,30 -50,20 -140,0 -50,-20 -20,-30"
         id="path96"
         inkscape:connector-curvature="0" />
      <path
         d="m 75270,35190 170,500 170,-500"
         id="path98"
         inkscape:connector-curvature="0" />
    </g>
  </g>
  <g
     style="fill:#008484;fill-opacity:0;stroke:#008484;stroke-width:0;stroke-linecap:round;stroke-linejoin:round;stroke-opacity:1"
     id="g100"
     transform="translate(-58643.066,-28421.953)">
    <g
       id="g102" />
    <g
       style="fill:#840000;fill-opacity:0;stroke:#840000;stroke-width:0;stroke-linecap:round;stroke-linejoin:round;stroke-opacity:1"
       id="g104" />
    <g
       style="fill:#840000;fill-opacity:0;stroke:#840000;stroke-width:60;stroke-linecap:round;stroke-linejoin:round;stroke-opacity:1"
       id="g106">
      <circle
         cx="60500"
         cy="29000"
         r="500"
         id="circle108" />
      <path
         style="fill:none;fill-opacity:0;stroke:#840000;stroke-width:60;stroke-linecap:round;stroke-linejoin:round;stroke-opacity:1"
         d="m 60500,29250 0,-500"
         id="path110"
         inkscape:connector-curvature="0" />
      <path
         style="fill:none;fill-opacity:0;stroke:#840000;stroke-width:60;stroke-linecap:round;stroke-linejoin:round;stroke-opacity:1"
         d="m 61500,29000 -500,0"
         id="path112"
         inkscape:connector-curvature="0" />
      <path
         style="fill:none;fill-opacity:0;stroke:#840000;stroke-width:60;stroke-linecap:round;stroke-linejoin:round;stroke-opacity:1"
         d="m 60750,29000 -500,0"
         id="path114"
         inkscape:connector-curvature="0" />
      <path
         d="m 61500,29000 0,0"
         id="path116"
         inkscape:connector-curvature="0" />
    </g>
    <g
       style="fill:#008484;fill-opacity:0;stroke:#008484;stroke-width:60;stroke-linecap:round;stroke-linejoin:round;stroke-opacity:1"
       id="g118">
      <text
         x="59170"
         y="29220"
         textLength="1110"
         font-size="660"
         lengthAdjust="spacingAndGlyphs"
         id="text120"
         style="font-size:660px;text-anchor:middle;opacity:0">V+</text>
      <path
         d="m 58690,28690 170,500 160,-500"
         id="path122"
         inkscape:connector-curvature="0" />
      <path
         d="m 59190,29000 380,0"
         id="path124"
         inkscape:connector-curvature="0" />
      <path
         d="m 59380,29190 0,-380"
         id="path126"
         inkscape:connector-curvature="0" />
    </g>
  </g>
  <g
     style="fill:#008484;fill-opacity:0;stroke:#008484;stroke-width:0;stroke-linecap:round;stroke-linejoin:round;stroke-opacity:1"
     id="g128"
     transform="translate(-58643.066,-28421.953)">
    <g
       id="g130" />
    <g
       style="fill:#840000;fill-opacity:0;stroke:#840000;stroke-width:0;stroke-linecap:round;stroke-linejoin:round;stroke-opacity:1"
       id="g132" />
    <g
       style="fill:#840000;fill-opacity:0;stroke:#840000;stroke-width:60;stroke-linecap:round;stroke-linejoin:round;stroke-opacity:1"
       id="g134">
      <circle
         cx="64500"
         cy="31000"
         r="750"
         id="circle136" />
      <path
         style="fill:none;fill-opacity:0;stroke:#840000;stroke-width:60;stroke-linecap:round;stroke-linejoin:round;stroke-opacity:1"
         d="m 64500,31750 0,250"
         id="path138"
         inkscape:connector-curvature="0" />
      <path
         style="fill:none;fill-opacity:0;stroke:#840000;stroke-width:60;stroke-linecap:round;stroke-linejoin:round;stroke-opacity:1"
         d="m 64500,30250 0,-250"
         id="path140"
         inkscape:connector-curvature="0" />
    </g>
    <g
       style="fill:#840000;fill-opacity:1;stroke:#840000;stroke-width:60;stroke-linecap:round;stroke-linejoin:round;stroke-opacity:1"
       id="g142">
      <path
         style="fill:#840000;fill-opacity:1;fill-rule:evenodd;stroke:#840000;stroke-width:60;stroke-linecap:round;stroke-linejoin:round;stroke-opacity:1"
         d="m 64500,30500 0,1000 -250,-500 500,0 -250,500"
         id="path144"
         inkscape:connector-curvature="0" />
    </g>
    <g
       style="fill:#840000;fill-opacity:0;stroke:#840000;stroke-width:60;stroke-linecap:round;stroke-linejoin:round;stroke-opacity:1"
       id="g146">
      <path
         d="m 64500,30000 0,0"
         id="path148"
         inkscape:connector-curvature="0" />
      <path
         d="m 64500,32000 0,0"
         id="path150"
         inkscape:connector-curvature="0" />
    </g>
    <g
       style="fill:#008484;fill-opacity:0;stroke:#008484;stroke-width:60;stroke-linecap:round;stroke-linejoin:round;stroke-opacity:1"
       id="g152">
      <text
         x="65910"
         y="30810"
         textLength="770"
         font-size="660"
         lengthAdjust="spacingAndGlyphs"
         id="text154"
         style="font-size:660px;text-anchor:middle;opacity:0">I1</text>
      <path
         d="m 65670,30780 0,-500"
         id="path156"
         inkscape:connector-curvature="0" />
      <path
         d="m 66170,30780 -290,0"
         id="path158"
         inkscape:connector-curvature="0" />
      <path
         d="m 66020,30780 0,-500 -40,70 -50,50 -50,20"
         id="path160"
         inkscape:connector-curvature="0" />
      <text
         x="66470"
         y="31720"
         textLength="1890"
         font-size="660"
         lengthAdjust="spacingAndGlyphs"
         id="text162"
         style="font-size:660px;text-anchor:middle;opacity:0">50uA</text>
      <path
         d="m 65910,31190 -240,0 -30,240 30,-20 50,-30 110,0 50,30 30,20 20,50 0,120 -20,40 -30,30 -50,20 -110,0 -50,-20 -30,-30"
         id="path164"
         inkscape:connector-curvature="0" />
      <path
         d="m 66240,31190 50,0 40,30 30,20 20,50 30,90 0,120 -30,100 -20,40 -30,30 -40,20 -50,0 -50,-20 -20,-30 -30,-40 -20,-100 0,-120 20,-90 30,-50 20,-20 50,-30"
         id="path166"
         inkscape:connector-curvature="0" />
      <path
         d="m 66830,31360 0,330"
         id="path168"
         inkscape:connector-curvature="0" />
      <path
         d="m 66620,31360 0,260 20,50 50,20 70,0 50,-20 20,-30"
         id="path170"
         inkscape:connector-curvature="0" />
      <path
         d="m 67050,31550 240,0"
         id="path172"
         inkscape:connector-curvature="0" />
      <path
         d="m 67000,31690 170,-500 160,500"
         id="path174"
         inkscape:connector-curvature="0" />
    </g>
  </g>
  <g
     style="fill:#008484;fill-opacity:0;stroke:#008484;stroke-width:0;stroke-linecap:round;stroke-linejoin:round;stroke-opacity:1"
     id="g176"
     transform="translate(-58643.066,-28421.953)">
    <g
       id="g178" />
    <g
       style="fill:#840000;fill-opacity:0;stroke:#840000;stroke-width:0;stroke-linecap:round;stroke-linejoin:round;stroke-opacity:1"
       id="g180" />
    <g
       style="fill:#840000;fill-opacity:0;stroke:#840000;stroke-width:60;stroke-linecap:round;stroke-linejoin:round;stroke-opacity:1"
       id="g182">
      <path
         style="fill:none;fill-opacity:0;stroke:#840000;stroke-width:60;stroke-linecap:round;stroke-linejoin:round;stroke-opacity:1"
         d="m 65250,35000 -750,0"
         id="path184"
         inkscape:connector-curvature="0" />
      <path
         style="fill:none;fill-opacity:0;stroke:#840000;stroke-width:60;stroke-linecap:round;stroke-linejoin:round;stroke-opacity:1"
         d="m 65500,35500 0,-1000"
         id="path186"
         inkscape:connector-curvature="0" />
      <path
         style="fill:none;fill-opacity:0;stroke:#840000;stroke-width:60;stroke-linecap:round;stroke-linejoin:round;stroke-opacity:1"
         d="m 65500,35000 500,0"
         id="path188"
         inkscape:connector-curvature="0" />
      <path
         style="fill:none;fill-opacity:0;stroke:#840000;stroke-width:60;stroke-linecap:round;stroke-linejoin:round;stroke-opacity:1"
         d="m 65250,35500 0,-1000"
         id="path190"
         inkscape:connector-curvature="0" />
      <path
         style="fill:none;fill-opacity:0;stroke:#840000;stroke-width:60;stroke-linecap:round;stroke-linejoin:round;stroke-opacity:1"
         d="m 65250,35500 -750,0"
         id="path192"
         inkscape:connector-curvature="0" />
      <path
         style="fill:none;fill-opacity:0;stroke:#840000;stroke-width:60;stroke-linecap:round;stroke-linejoin:round;stroke-opacity:1"
         d="m 65250,34500 -750,0"
         id="path194"
         inkscape:connector-curvature="0" />
      <path
         style="fill:none;fill-opacity:0;stroke:#840000;stroke-width:60;stroke-linecap:round;stroke-linejoin:round;stroke-opacity:1"
         d="m 64500,35500 0,500"
         id="path196"
         inkscape:connector-curvature="0" />
      <path
         style="fill:none;fill-opacity:0;stroke:#840000;stroke-width:60;stroke-linecap:round;stroke-linejoin:round;stroke-opacity:1"
         d="m 64500,34500 0,-500"
         id="path198"
         inkscape:connector-curvature="0" />
      <path
         style="fill:none;fill-opacity:0;stroke:#840000;stroke-width:60;stroke-linecap:round;stroke-linejoin:round;stroke-opacity:1"
         d="m 65000,35300 -300,200 300,200"
         id="path200"
         inkscape:connector-curvature="0" />
      <path
         d="m 64500,35000 0,0"
         id="path202"
         inkscape:connector-curvature="0" />
      <path
         d="m 64500,34000 0,0"
         id="path204"
         inkscape:connector-curvature="0" />
      <path
         d="m 66000,35000 0,0"
         id="path206"
         inkscape:connector-curvature="0" />
      <path
         d="m 64500,36000 0,0"
         id="path208"
         inkscape:connector-curvature="0" />
    </g>
    <g
       style="fill:#008484;fill-opacity:0;stroke:#008484;stroke-width:60;stroke-linecap:round;stroke-linejoin:round;stroke-opacity:1"
       id="g210">
      <text
         x="63800"
         y="35270"
         textLength="1110"
         font-size="660"
         lengthAdjust="spacingAndGlyphs"
         id="text212"
         style="font-size:660px;text-anchor:middle;opacity:0">M1</text>
      <path
         d="m 63390,35240 0,-500 170,360 160,-360 0,500"
         id="path214"
         inkscape:connector-curvature="0" />
      <path
         d="m 64220,35240 -280,0"
         id="path216"
         inkscape:connector-curvature="0" />
      <path
         d="m 64080,35240 0,-500 -50,70 -40,50 -50,20"
         id="path218"
         inkscape:connector-curvature="0" />
      <text
         x="64400"
         y="36270"
         textLength="4510"
         font-size="660"
         lengthAdjust="spacingAndGlyphs"
         id="text220"
         style="font-size:660px;text-anchor:middle;opacity:0">W=5u L=2u</text>
      <path
         d="m 62240,35740 120,500 90,-360 100,360 120,-500"
         id="path222"
         inkscape:connector-curvature="0" />
      <path
         d="m 62860,35980 380,0"
         id="path224"
         inkscape:connector-curvature="0" />
      <path
         d="m 63240,36120 -380,0"
         id="path226"
         inkscape:connector-curvature="0" />
      <path
         d="m 63720,35740 -240,0 -30,240 30,-20 50,-30 120,0 40,30 30,20 20,50 0,120 -20,40 -30,30 -40,20 -120,0 -50,-20 -30,-30"
         id="path228"
         inkscape:connector-curvature="0" />
      <path
         d="m 64170,35910 0,330"
         id="path230"
         inkscape:connector-curvature="0" />
      <path
         d="m 63950,35910 0,260 30,50 50,20 70,0 50,-20 20,-30"
         id="path232"
         inkscape:connector-curvature="0" />
      <path
         d="m 65030,36240 -240,0 0,-500"
         id="path234"
         inkscape:connector-curvature="0" />
      <path
         d="m 65190,35980 380,0"
         id="path236"
         inkscape:connector-curvature="0" />
      <path
         d="m 65570,36120 -380,0"
         id="path238"
         inkscape:connector-curvature="0" />
      <path
         d="m 65790,35790 20,-20 50,-30 120,0 50,30 20,20 20,50 0,40 -20,80 -290,280 310,0"
         id="path240"
         inkscape:connector-curvature="0" />
      <path
         d="m 66500,35910 0,330"
         id="path242"
         inkscape:connector-curvature="0" />
      <path
         d="m 66290,35910 0,260 20,50 50,20 70,0 50,-20 20,-30"
         id="path244"
         inkscape:connector-curvature="0" />
    </g>
  </g>
  <g
     style="fill:#008484;fill-opacity:0;stroke:#008484;stroke-width:0;stroke-linecap:round;stroke-linejoin:round;stroke-opacity:1"
     id="g246"
     transform="translate(-58643.066,-28421.953)">
    <g
       id="g248" />
    <g
       style="fill:#840000;fill-opacity:0;stroke:#840000;stroke-width:0;stroke-linecap:round;stroke-linejoin:round;stroke-opacity:1"
       id="g250" />
    <g
       style="fill:#840000;fill-opacity:0;stroke:#840000;stroke-width:60;stroke-linecap:round;stroke-linejoin:round;stroke-opacity:1"
       id="g252">
      <path
         style="fill:none;fill-opacity:0;stroke:#840000;stroke-width:60;stroke-linecap:round;stroke-linejoin:round;stroke-opacity:1"
         d="m 68750,35000 750,0"
         id="path254"
         inkscape:connector-curvature="0" />
      <path
         style="fill:none;fill-opacity:0;stroke:#840000;stroke-width:60;stroke-linecap:round;stroke-linejoin:round;stroke-opacity:1"
         d="m 68500,35500 0,-1000"
         id="path256"
         inkscape:connector-curvature="0" />
      <path
         style="fill:none;fill-opacity:0;stroke:#840000;stroke-width:60;stroke-linecap:round;stroke-linejoin:round;stroke-opacity:1"
         d="m 68500,35000 -500,0"
         id="path258"
         inkscape:connector-curvature="0" />
      <path
         style="fill:none;fill-opacity:0;stroke:#840000;stroke-width:60;stroke-linecap:round;stroke-linejoin:round;stroke-opacity:1"
         d="m 68750,35500 0,-1000"
         id="path260"
         inkscape:connector-curvature="0" />
      <path
         style="fill:none;fill-opacity:0;stroke:#840000;stroke-width:60;stroke-linecap:round;stroke-linejoin:round;stroke-opacity:1"
         d="m 68750,35500 750,0"
         id="path262"
         inkscape:connector-curvature="0" />
      <path
         style="fill:none;fill-opacity:0;stroke:#840000;stroke-width:60;stroke-linecap:round;stroke-linejoin:round;stroke-opacity:1"
         d="m 68750,34500 750,0"
         id="path264"
         inkscape:connector-curvature="0" />
      <path
         style="fill:none;fill-opacity:0;stroke:#840000;stroke-width:60;stroke-linecap:round;stroke-linejoin:round;stroke-opacity:1"
         d="m 69500,35500 0,500"
         id="path266"
         inkscape:connector-curvature="0" />
      <path
         style="fill:none;fill-opacity:0;stroke:#840000;stroke-width:60;stroke-linecap:round;stroke-linejoin:round;stroke-opacity:1"
         d="m 69500,34500 0,-500"
         id="path268"
         inkscape:connector-curvature="0" />
      <path
         style="fill:none;fill-opacity:0;stroke:#840000;stroke-width:60;stroke-linecap:round;stroke-linejoin:round;stroke-opacity:1"
         d="m 69000,35300 300,200 -300,200"
         id="path270"
         inkscape:connector-curvature="0" />
      <path
         d="m 69500,35000 0,0"
         id="path272"
         inkscape:connector-curvature="0" />
      <path
         d="m 69500,34000 0,0"
         id="path274"
         inkscape:connector-curvature="0" />
      <path
         d="m 68000,35000 0,0"
         id="path276"
         inkscape:connector-curvature="0" />
      <path
         d="m 69500,36000 0,0"
         id="path278"
         inkscape:connector-curvature="0" />
    </g>
    <g
       style="fill:#008484;fill-opacity:0;stroke:#008484;stroke-width:60;stroke-linecap:round;stroke-linejoin:round;stroke-opacity:1"
       id="g280">
      <text
         x="70190"
         y="35270"
         textLength="1110"
         font-size="660"
         lengthAdjust="spacingAndGlyphs"
         id="text282"
         style="font-size:660px;text-anchor:middle;opacity:0">M2</text>
      <path
         d="m 69780,35240 0,-500 170,360 160,-360 0,500"
         id="path284"
         inkscape:connector-curvature="0" />
      <path
         d="m 70330,34790 20,-20 50,-30 120,0 50,30 20,20 20,50 0,40 -20,80 -290,280 310,0"
         id="path286"
         inkscape:connector-curvature="0" />
      <text
         x="69440"
         y="36270"
         textLength="4510"
         font-size="660"
         lengthAdjust="spacingAndGlyphs"
         id="text288"
         style="font-size:660px;text-anchor:middle;opacity:0">W=5u L=2u</text>
      <path
         d="m 67280,35740 120,500 90,-360 100,360 120,-500"
         id="path290"
         inkscape:connector-curvature="0" />
      <path
         d="m 67900,35980 380,0"
         id="path292"
         inkscape:connector-curvature="0" />
      <path
         d="m 68280,36120 -380,0"
         id="path294"
         inkscape:connector-curvature="0" />
      <path
         d="m 68760,35740 -240,0 -30,240 30,-20 50,-30 120,0 40,30 30,20 20,50 0,120 -20,40 -30,30 -40,20 -120,0 -50,-20 -30,-30"
         id="path296"
         inkscape:connector-curvature="0" />
      <path
         d="m 69210,35910 0,330"
         id="path298"
         inkscape:connector-curvature="0" />
      <path
         d="m 68990,35910 0,260 30,50 50,20 70,0 50,-20 20,-30"
         id="path300"
         inkscape:connector-curvature="0" />
      <path
         d="m 70070,36240 -240,0 0,-500"
         id="path302"
         inkscape:connector-curvature="0" />
      <path
         d="m 70230,35980 380,0"
         id="path304"
         inkscape:connector-curvature="0" />
      <path
         d="m 70610,36120 -380,0"
         id="path306"
         inkscape:connector-curvature="0" />
      <path
         d="m 70830,35790 20,-20 50,-30 120,0 50,30 20,20 20,50 0,40 -20,80 -290,280 310,0"
         id="path308"
         inkscape:connector-curvature="0" />
      <path
         d="m 71540,35910 0,330"
         id="path310"
         inkscape:connector-curvature="0" />
      <path
         d="m 71330,35910 0,260 20,50 50,20 70,0 50,-20 20,-30"
         id="path312"
         inkscape:connector-curvature="0" />
    </g>
  </g>
  <g
     style="fill:#008484;fill-opacity:0;stroke:#008484;stroke-width:0;stroke-linecap:round;stroke-linejoin:round;stroke-opacity:1"
     id="g314"
     transform="translate(-58643.066,-28421.953)">
    <g
       id="g316" />
    <g
       style="fill:#840000;fill-opacity:0;stroke:#840000;stroke-width:0;stroke-linecap:round;stroke-linejoin:round;stroke-opacity:1"
       id="g318" />
    <g
       style="fill:#840000;fill-opacity:0;stroke:#840000;stroke-width:60;stroke-linecap:round;stroke-linejoin:round;stroke-opacity:1"
       id="g320">
      <path
         style="fill:none;fill-opacity:0;stroke:#840000;stroke-width:60;stroke-linecap:round;stroke-linejoin:round;stroke-opacity:1"
         d="m 66250,39000 1500,0"
         id="path322"
         inkscape:connector-curvature="0" />
      <path
         style="fill:none;fill-opacity:0;stroke:#840000;stroke-width:60;stroke-linecap:round;stroke-linejoin:round;stroke-opacity:1"
         d="m 66500,39250 1000,0"
         id="path324"
         inkscape:connector-curvature="0" />
      <path
         style="fill:none;fill-opacity:0;stroke:#840000;stroke-width:60;stroke-linecap:round;stroke-linejoin:round;stroke-opacity:1"
         d="m 66750,39500 500,0"
         id="path326"
         inkscape:connector-curvature="0" />
      <path
         style="fill:none;fill-opacity:0;stroke:#840000;stroke-width:60;stroke-linecap:round;stroke-linejoin:round;stroke-opacity:1"
         d="m 67000,38000 0,1000"
         id="path328"
         inkscape:connector-curvature="0" />
      <path
         d="m 67000,38000 0,0"
         id="path330"
         inkscape:connector-curvature="0" />
    </g>
  </g>
  <g
     style="fill:#840000;fill-opacity:0;stroke:#840000;stroke-width:60;stroke-linecap:round;stroke-linejoin:round;stroke-opacity:1"
     id="g332"
     transform="translate(-58643.066,-28421.953)" />
  <g
     style="fill:#008400;fill-opacity:0;stroke:#008400;stroke-width:60;stroke-linecap:round;stroke-linejoin:round;stroke-opacity:1"
     id="g334"
     transform="translate(-58643.066,-28421.953)">
    <path
       d="m 69500,33000 0,1000"
       id="path336"
       inkscape:connector-curvature="0" />
    <path
       d="m 72500,36000 0,1000"
       id="path338"
       inkscape:connector-curvature="0" />
    <path
       d="m 64500,33000 0,-1000"
       id="path340"
       inkscape:connector-curvature="0" />
    <path
       d="m 72500,33000 -3000,0"
       id="path342"
       inkscape:connector-curvature="0" />
    <path
       d="m 64500,30000 0,-1000"
       id="path344"
       inkscape:connector-curvature="0" />
    <path
       d="m 64500,29000 -3000,0"
       id="path346"
       inkscape:connector-curvature="0" />
    <path
       d="m 61500,29000 0,3250"
       id="path348"
       inkscape:connector-curvature="0" />
    <path
       d="m 61500,34250 0,2750"
       id="path350"
       inkscape:connector-curvature="0" />
    <path
       d="m 61500,37000 3000,0"
       id="path352"
       inkscape:connector-curvature="0" />
    <path
       d="m 72500,34000 0,-1000"
       id="path354"
       inkscape:connector-curvature="0" />
    <path
       d="m 72500,37000 -3000,0"
       id="path356"
       inkscape:connector-curvature="0" />
    <path
       d="m 64500,37000 2500,0"
       id="path358"
       inkscape:connector-curvature="0" />
    <path
       d="m 69500,37000 0,-1000"
       id="path360"
       inkscape:connector-curvature="0" />
    <path
       d="m 64500,36000 0,1000"
       id="path362"
       inkscape:connector-curvature="0" />
    <path
       d="m 67000,35000 1000,0"
       id="path364"
       inkscape:connector-curvature="0" />
    <path
       d="m 67000,33000 0,2000"
       id="path366"
       inkscape:connector-curvature="0" />
    <path
       d="m 64500,33000 2500,0"
       id="path368"
       inkscape:connector-curvature="0" />
    <path
       d="m 64500,34000 0,-1000"
       id="path370"
       inkscape:connector-curvature="0" />
    <path
       d="m 69500,35000 0,1000"
       id="path372"
       inkscape:connector-curvature="0" />
    <path
       d="m 66000,35000 1000,0"
       id="path374"
       inkscape:connector-curvature="0" />
    <path
       d="m 64500,35000 0,1000"
       id="path376"
       inkscape:connector-curvature="0" />
    <path
       d="m 67000,38000 0,-1000"
       id="path378"
       inkscape:connector-curvature="0" />
    <path
       d="m 67000,37000 2500,0"
       id="path380"
       inkscape:connector-curvature="0" />
  </g>
  <g
     style="fill:#000000;fill-opacity:0;stroke:#000000;stroke-width:60;stroke-linecap:round;stroke-linejoin:round;stroke-opacity:1"
     id="g382"
     transform="translate(-58643.066,-28421.953)">
    <text
       x="65000"
       y="32900"
       textLength="1170"
       font-size="800"
       lengthAdjust="spacingAndGlyphs"
       id="text384"
       style="font-size:800px;text-anchor:start;opacity:0">n1</text>
    <path
       d="m 65170,32470 0,400"
       id="path386"
       inkscape:connector-curvature="0" />
    <path
       d="m 65170,32520 30,-20 50,-30 90,0 60,30 30,50 0,320"
       id="path388"
       inkscape:connector-curvature="0" />
    <path
       d="m 66030,32870 -350,0"
       id="path390"
       inkscape:connector-curvature="0" />
    <path
       d="m 65850,32870 0,-600 -50,80 -60,60 -60,30"
       id="path392"
       inkscape:connector-curvature="0" />
    <text
       x="66400"
       y="36900"
       textLength="630"
       font-size="800"
       lengthAdjust="spacingAndGlyphs"
       id="text394"
       style="font-size:800px;text-anchor:start;opacity:0">0</text>
    <path
       d="m 66680,36270 60,0 60,30 30,20 20,60 30,120 0,140 -30,110 -20,60 -30,30 -60,30 -60,0 -50,-30 -30,-30 -30,-60 -30,-110 0,-140 30,-120 30,-60 30,-20 50,-30"
       id="path396"
       inkscape:connector-curvature="0" />
    <text
       x="69500"
       y="32900"
       textLength="1170"
       font-size="800"
       lengthAdjust="spacingAndGlyphs"
       id="text398"
       style="font-size:800px;text-anchor:start;opacity:0">n2</text>
    <path
       d="m 69670,32470 0,400"
       id="path400"
       inkscape:connector-curvature="0" />
    <path
       d="m 69670,32520 30,-20 50,-30 90,0 60,30 30,50 0,320"
       id="path402"
       inkscape:connector-curvature="0" />
    <path
       d="m 70180,32320 30,-20 60,-30 140,0 60,30 30,20 30,60 0,60 -30,80 -350,350 380,0"
       id="path404"
       inkscape:connector-curvature="0" />
    <text
       x="62000"
       y="28900"
       textLength="2630"
       font-size="800"
       lengthAdjust="spacingAndGlyphs"
       id="text406"
       style="font-size:800px;text-anchor:start;opacity:0">n_pos</text>
    <path
       d="m 62170,28470 0,400"
       id="path408"
       inkscape:connector-curvature="0" />
    <path
       d="m 62170,28520 30,-20 50,-30 90,0 60,30 30,50 0,320"
       id="path410"
       inkscape:connector-curvature="0" />
    <path
       d="m 62570,28920 460,0"
       id="path412"
       inkscape:connector-curvature="0" />
    <path
       d="m 63170,28470 0,600"
       id="path414"
       inkscape:connector-curvature="0" />
    <path
       d="m 63170,28500 60,-30 110,0 60,30 30,20 20,60 0,170 -20,60 -30,30 -60,30 -110,0 -60,-30"
       id="path416"
       inkscape:connector-curvature="0" />
    <path
       d="m 63800,28870 -60,-30 -30,-30 -30,-60 0,-170 30,-60 30,-20 60,-30 80,0 60,30 30,20 30,60 0,170 -30,60 -30,30 -60,30 -80,0"
       id="path418"
       inkscape:connector-curvature="0" />
    <path
       d="m 64230,28840 50,30 120,0 50,-30 30,-60 0,-30 -30,-50 -50,-30 -90,0 -60,-30 -20,-60 0,-30 20,-50 60,-30 90,0 50,30"
       id="path420"
       inkscape:connector-curvature="0" />
  </g>
  <g
     style="fill:#000000;fill-opacity:0;stroke:#000000;stroke-width:0;stroke-linecap:round;stroke-linejoin:round;stroke-opacity:1"
     id="g422"
     transform="translate(-58643.066,-28421.953)" />
  <g
     style="fill:#008400;fill-opacity:0;stroke:#008400;stroke-width:0;stroke-linecap:round;stroke-linejoin:round;stroke-opacity:1"
     id="g424"
     transform="translate(-58643.066,-28421.953)" />
  <g
     style="fill:#008400;fill-opacity:1;stroke:#008400;stroke-width:100;stroke-linecap:round;stroke-linejoin:round;stroke-opacity:1"
     id="g426"
     transform="translate(-58643.066,-28421.953)">
    <circle
       cx="61500"
       cy="29000"
       r="200"
       id="circle428" />
  </g>
  <g
     style="fill:#008400;fill-opacity:1;stroke:#008400;stroke-width:0;stroke-linecap:round;stroke-linejoin:round;stroke-opacity:1"
     id="g430"
     transform="translate(-58643.066,-28421.953)" />
  <g
     style="fill:#008400;fill-opacity:1;stroke:#008400;stroke-width:100;stroke-linecap:round;stroke-linejoin:round;stroke-opacity:1"
     id="g432"
     transform="translate(-58643.066,-28421.953)">
    <circle
       cx="69500"
       cy="37000"
       r="200"
       id="circle434" />
  </g>
  <g
     style="fill:#008400;fill-opacity:1;stroke:#008400;stroke-width:0;stroke-linecap:round;stroke-linejoin:round;stroke-opacity:1"
     id="g436"
     transform="translate(-58643.066,-28421.953)" />
  <g
     style="fill:#008400;fill-opacity:1;stroke:#008400;stroke-width:100;stroke-linecap:round;stroke-linejoin:round;stroke-opacity:1"
     id="g438"
     transform="translate(-58643.066,-28421.953)">
    <circle
       cx="64500"
       cy="37000"
       r="200"
       id="circle440" />
  </g>
  <g
     style="fill:#008400;fill-opacity:1;stroke:#008400;stroke-width:0;stroke-linecap:round;stroke-linejoin:round;stroke-opacity:1"
     id="g442"
     transform="translate(-58643.066,-28421.953)" />
  <g
     style="fill:#008400;fill-opacity:1;stroke:#008400;stroke-width:100;stroke-linecap:round;stroke-linejoin:round;stroke-opacity:1"
     id="g444"
     transform="translate(-58643.066,-28421.953)">
    <circle
       cx="64500"
       cy="33000"
       r="200"
       id="circle446" />
  </g>
  <g
     style="fill:#008400;fill-opacity:1;stroke:#008400;stroke-width:0;stroke-linecap:round;stroke-linejoin:round;stroke-opacity:1"
     id="g448"
     transform="translate(-58643.066,-28421.953)" />
  <g
     style="fill:#008400;fill-opacity:1;stroke:#008400;stroke-width:100;stroke-linecap:round;stroke-linejoin:round;stroke-opacity:1"
     id="g450"
     transform="translate(-58643.066,-28421.953)">
    <circle
       cx="69500"
       cy="36000"
       r="200"
       id="circle452" />
  </g>
  <g
     style="fill:#008400;fill-opacity:1;stroke:#008400;stroke-width:0;stroke-linecap:round;stroke-linejoin:round;stroke-opacity:1"
     id="g454"
     transform="translate(-58643.066,-28421.953)" />
  <g
     style="fill:#008400;fill-opacity:1;stroke:#008400;stroke-width:100;stroke-linecap:round;stroke-linejoin:round;stroke-opacity:1"
     id="g456"
     transform="translate(-58643.066,-28421.953)">
    <circle
       cx="64500"
       cy="36000"
       r="200"
       id="circle458" />
  </g>
  <g
     style="fill:#008400;fill-opacity:1;stroke:#008400;stroke-width:0;stroke-linecap:round;stroke-linejoin:round;stroke-opacity:1"
     id="g460"
     transform="translate(-58643.066,-28421.953)" />
  <g
     style="fill:#008400;fill-opacity:1;stroke:#008400;stroke-width:100;stroke-linecap:round;stroke-linejoin:round;stroke-opacity:1"
     id="g462"
     transform="translate(-58643.066,-28421.953)">
    <circle
       cx="67000"
       cy="35000"
       r="200"
       id="circle464" />
  </g>
  <g
     style="fill:#008400;fill-opacity:1;stroke:#008400;stroke-width:0;stroke-linecap:round;stroke-linejoin:round;stroke-opacity:1"
     id="g466"
     transform="translate(-58643.066,-28421.953)" />
  <g
     style="fill:#008400;fill-opacity:1;stroke:#008400;stroke-width:100;stroke-linecap:round;stroke-linejoin:round;stroke-opacity:1"
     id="g468"
     transform="translate(-58643.066,-28421.953)">
    <circle
       cx="67000"
       cy="37000"
       r="200"
       id="circle470" />
  </g>
</svg>
